<svg width="19" height="25" viewBox="0 0 19 25" fill="none" xmlns="http://www.w3.org/2000/svg">
<path d="M15.5001 15.8008C15.7001 15.6008 15.7001 15.2008 15.5001 14.9008C15.3001 14.7008 14.9001 14.7008 14.6001 14.9008L12.6001 16.5008C12.2001 16.9008 11.5001 16.6008 11.5001 16.1008V5.90078C11.5001 5.60078 11.2001 5.30078 10.9001 5.30078H10.5001H10.1001C9.8001 5.30078 9.5001 5.60078 9.5001 5.90078V13.7008C9.5001 14.3008 8.8001 14.5008 8.4001 14.1008L5.9001 11.5008C5.7001 11.3008 5.3001 11.3008 5.0001 11.5008C4.8001 11.7008 4.8001 12.1008 5.0001 12.4008L9.3001 16.7008C9.4001 16.8008 9.5001 17.0008 9.5001 17.1008V22.7008C9.5001 23.0008 9.8001 23.3008 10.1001 23.3008H10.5001H10.9001C11.2001 23.3008 11.5001 23.0008 11.5001 22.7008V19.5008C11.5001 19.3008 11.6001 19.2008 11.7001 19.1008L15.5001 15.8008Z" fill="url(#paint0_linear_669_26)"/>
<path d="M15.5999 23.2004C15.5999 23.9004 13.2999 24.5004 10.4999 24.5004C7.6999 24.5004 5.3999 23.9004 5.3999 23.2004C5.3999 22.5004 7.6999 21.9004 10.4999 21.9004C13.2999 21.9004 15.5999 22.4004 15.5999 23.2004Z" fill="url(#paint1_linear_669_26)"/>
<path d="M10.5002 12.6C13.9796 12.6 16.8002 9.77939 16.8002 6.3C16.8002 2.82061 13.9796 0 10.5002 0C7.0208 0 4.2002 2.82061 4.2002 6.3C4.2002 9.77939 7.0208 12.6 10.5002 12.6Z" fill="url(#paint2_linear_669_26)"/>
<path d="M15.6999 17.9008C17.2463 17.9008 18.4999 16.6472 18.4999 15.1008C18.4999 13.5544 17.2463 12.3008 15.6999 12.3008C14.1535 12.3008 12.8999 13.5544 12.8999 15.1008C12.8999 16.6472 14.1535 17.9008 15.6999 17.9008Z" fill="url(#paint3_linear_669_26)"/>
<path d="M4 15.5C6.20914 15.5 8 13.7091 8 11.5C8 9.29086 6.20914 7.5 4 7.5C1.79086 7.5 0 9.29086 0 11.5C0 13.7091 1.79086 15.5 4 15.5Z" fill="url(#paint4_linear_669_26)"/>
<defs>
<linearGradient id="paint0_linear_669_26" x1="4.4704" y1="44.2481" x2="13.9482" y2="-5.89202" gradientUnits="userSpaceOnUse">
<stop stop-color="#ECF3EF"/>
<stop offset="0.5" stop-color="#72A15F"/>
<stop offset="1" stop-color="#495944"/>
</linearGradient>
<linearGradient id="paint1_linear_669_26" x1="6.4191" y1="44.6161" x2="15.8969" y2="-5.52409" gradientUnits="userSpaceOnUse">
<stop stop-color="#ECF3EF"/>
<stop offset="0.5" stop-color="#72A15F"/>
<stop offset="1" stop-color="#495944"/>
</linearGradient>
<linearGradient id="paint2_linear_669_26" x1="3.3502" y1="44.0355" x2="12.8279" y2="-6.1046" gradientUnits="userSpaceOnUse">
<stop stop-color="#ECF3EF"/>
<stop offset="0.5" stop-color="#72A15F"/>
<stop offset="1" stop-color="#495944"/>
</linearGradient>
<linearGradient id="paint3_linear_669_26" x1="9.9576" y1="45.2853" x2="19.4353" y2="-4.85482" gradientUnits="userSpaceOnUse">
<stop stop-color="#ECF3EF"/>
<stop offset="0.5" stop-color="#72A15F"/>
<stop offset="1" stop-color="#495944"/>
</linearGradient>
<linearGradient id="paint4_linear_669_26" x1="-1.91" y1="43.0413" x2="7.5677" y2="-7.0989" gradientUnits="userSpaceOnUse">
<stop stop-color="#ECF3EF"/>
<stop offset="0.5" stop-color="#72A15F"/>
<stop offset="1" stop-color="#495944"/>
</linearGradient>
</defs>
</svg>
