<?xml version="1.0" encoding="utf-8"?>
<!-- Generator: Adobe Illustrator 23.1.0, SVG Export Plug-In . SVG Version: 6.00 Build 0)  -->
<svg version="1.1" id="Layer_1" xmlns="http://www.w3.org/2000/svg" xmlns:xlink="http://www.w3.org/1999/xlink" x="0px" y="0px"
	 viewBox="0 0 180 40.6" style="enable-background:new 0 0 180 40.6;" xml:space="preserve">
<style type="text/css">
	.st0{fill:#FFFFFF;}
	.st1{fill:#91D873;}
</style>
<g>
	<g>
		<g>
			<path class="st0" d="M52.1,28.4c-0.5-0.3-0.9-0.7-1.3-1.2v1.5h-2.5V12.3h2.7v5.8c0.3-0.4,0.7-0.7,1.2-0.9c0.5-0.2,1-0.3,1.5-0.3
				h1.6c0.9,0,1.6,0.2,2.3,0.6c0.7,0.4,1.2,0.9,1.6,1.6c0.4,0.7,0.6,1.5,0.6,2.4v2.8c0,0.9-0.2,1.8-0.6,2.5
				c-0.4,0.7-0.9,1.3-1.6,1.7c-0.7,0.4-1.5,0.6-2.3,0.6h-1.6C53.2,28.9,52.7,28.8,52.1,28.4z M55,26.5c0.6,0,1.1-0.2,1.5-0.7
				c0.4-0.5,0.6-1.1,0.6-1.8v-2.5c0-0.7-0.2-1.3-0.6-1.7c-0.4-0.4-0.9-0.6-1.5-0.6h-1.5c-0.7,0-1.3,0.2-1.7,0.7
				c-0.5,0.5-0.7,1.1-0.8,1.9v2.3c0.1,0.7,0.3,1.3,0.8,1.7c0.5,0.4,1,0.7,1.6,0.7H55z"/>
			<path class="st0" d="M62.1,15.2c-0.3-0.3-0.5-0.7-0.5-1.2c0-0.5,0.2-0.9,0.5-1.2c0.3-0.3,0.7-0.5,1.3-0.5c0.5,0,1,0.2,1.3,0.5
				c0.3,0.3,0.5,0.7,0.5,1.2c0,0.5-0.2,0.9-0.5,1.2c-0.3,0.3-0.8,0.5-1.3,0.5C62.9,15.7,62.5,15.5,62.1,15.2z M62.1,17h2.7v11.7
				h-2.7V17z"/>
			<path class="st0" d="M68.4,27.7c-0.9-0.8-1.3-1.9-1.3-3.3v-2.9c0-0.9,0.2-1.7,0.6-2.4c0.4-0.7,1-1.2,1.7-1.6
				c0.7-0.4,1.6-0.6,2.5-0.6h2.1c1,0,1.8,0.2,2.5,0.6c0.7,0.4,1.3,0.9,1.7,1.6c0.4,0.7,0.6,1.5,0.6,2.4v2.9c0,1.4-0.4,2.5-1.3,3.3
				c-0.9,0.8-2.1,1.3-3.5,1.3h-2C70.4,28.9,69.2,28.5,68.4,27.7z M73.9,26.6c0.7,0,1.2-0.2,1.6-0.7c0.4-0.4,0.6-1,0.6-1.8v-2.6
				c0-0.7-0.2-1.3-0.6-1.8c-0.4-0.4-0.9-0.7-1.6-0.7h-2c-0.7,0-1.2,0.2-1.6,0.7c-0.4,0.4-0.6,1-0.6,1.8v2.6c0,0.7,0.2,1.3,0.6,1.8
				c0.4,0.4,0.9,0.7,1.5,0.7H73.9z"/>
			<path class="st0" d="M82.4,28.4c-0.7-0.4-1.3-0.9-1.7-1.5c-0.4-0.7-0.6-1.4-0.6-2.3v-3.2c0-0.9,0.2-1.7,0.6-2.4
				c0.4-0.7,1-1.2,1.7-1.6c0.7-0.4,1.6-0.6,2.5-0.6h1.9c1.4,0,2.6,0.4,3.4,1.2c0.9,0.8,1.3,1.9,1.3,3.3v2.4h-8.7v0.8
				c0,0.6,0.2,1.1,0.6,1.5c0.4,0.4,0.9,0.6,1.5,0.6h1.8c0.6,0,1.1-0.2,1.5-0.5c0.4-0.3,0.6-0.7,0.6-1.2h2.7c0,1.2-0.4,2.1-1.3,2.9
				c-0.9,0.7-2,1.1-3.5,1.1H85C84,28.9,83.2,28.7,82.4,28.4z M88.9,21.7v-0.3c0-0.7-0.2-1.2-0.6-1.7c-0.4-0.4-0.9-0.6-1.5-0.6H85
				c-0.6,0-1.2,0.2-1.6,0.7c-0.4,0.4-0.6,1-0.6,1.8v0.2H88.9z"/>
			<path class="st0" d="M94.1,27.7c-0.9-0.8-1.3-1.9-1.3-3.3v-3c0-0.9,0.2-1.7,0.6-2.4c0.4-0.7,0.9-1.2,1.7-1.6
				c0.7-0.4,1.6-0.6,2.5-0.6h1.9c1.3,0,2.4,0.4,3.3,1.2c0.8,0.8,1.2,1.8,1.2,3.1h-2.7c0-0.6-0.2-1-0.5-1.4c-0.3-0.4-0.8-0.5-1.3-0.5
				h-1.9c-0.6,0-1.1,0.2-1.5,0.7c-0.4,0.5-0.6,1-0.6,1.8v2.6c0,0.7,0.2,1.3,0.6,1.7c0.4,0.4,0.9,0.7,1.5,0.7h1.9
				c0.6,0,1-0.2,1.4-0.6c0.4-0.4,0.5-1,0.5-1.6h2.7c0,1.4-0.4,2.5-1.3,3.3c-0.8,0.8-2,1.3-3.3,1.3h-1.9C96.2,28.9,95,28.5,94.1,27.7
				z"/>
			<path class="st0" d="M106.4,27.7c-0.9-0.8-1.3-1.9-1.3-3.3v-2.9c0-0.9,0.2-1.7,0.6-2.4c0.4-0.7,1-1.2,1.7-1.6
				c0.7-0.4,1.6-0.6,2.5-0.6h2.1c1,0,1.8,0.2,2.5,0.6c0.7,0.4,1.3,0.9,1.7,1.6c0.4,0.7,0.6,1.5,0.6,2.4v2.9c0,1.4-0.4,2.5-1.3,3.3
				c-0.9,0.8-2.1,1.3-3.5,1.3h-2C108.5,28.9,107.3,28.5,106.4,27.7z M111.9,26.6c0.7,0,1.2-0.2,1.6-0.7c0.4-0.4,0.6-1,0.6-1.8v-2.6
				c0-0.7-0.2-1.3-0.6-1.8c-0.4-0.4-0.9-0.7-1.6-0.7h-2c-0.7,0-1.2,0.2-1.6,0.7c-0.4,0.4-0.6,1-0.6,1.8v2.6c0,0.7,0.2,1.3,0.6,1.8
				c0.4,0.4,0.9,0.7,1.5,0.7H111.9z"/>
			<path class="st0" d="M118.7,17h2.5v1.5c0.3-0.5,0.8-0.9,1.4-1.2c0.6-0.3,1.1-0.5,1.7-0.5h1.5c1.2,0,2.2,0.4,2.9,1.2
				c0.7,0.8,1.1,1.8,1.1,3v7.7H127v-7.7c0-0.6-0.1-1-0.4-1.4c-0.3-0.4-0.7-0.5-1.1-0.5H124c-0.6,0-1.2,0.2-1.6,0.7s-0.8,1.1-0.9,1.8
				v7.1h-2.7V17z"/>
			<path class="st0" d="M132.7,27.7c-0.9-0.8-1.3-1.9-1.3-3.3v-2.9c0-0.9,0.2-1.7,0.6-2.4c0.4-0.7,1-1.2,1.7-1.6
				c0.7-0.4,1.6-0.6,2.5-0.6h2.1c1,0,1.8,0.2,2.5,0.6c0.7,0.4,1.3,0.9,1.7,1.6c0.4,0.7,0.6,1.5,0.6,2.4v2.9c0,1.4-0.4,2.5-1.3,3.3
				c-0.9,0.8-2.1,1.3-3.5,1.3h-2C134.8,28.9,133.6,28.5,132.7,27.7z M138.2,26.6c0.7,0,1.2-0.2,1.6-0.7s0.6-1,0.6-1.8v-2.6
				c0-0.7-0.2-1.3-0.6-1.8c-0.4-0.4-0.9-0.7-1.6-0.7h-2c-0.7,0-1.2,0.2-1.6,0.7c-0.4,0.4-0.6,1-0.6,1.8v2.6c0,0.7,0.2,1.3,0.6,1.8
				c0.4,0.4,0.9,0.7,1.5,0.7H138.2z"/>
			<path class="st0" d="M160.9,17.9c0.7,0.7,1,1.7,1,3v7.9h-2.7v-7.9c0-0.5-0.1-0.9-0.4-1.2c-0.2-0.3-0.5-0.5-0.9-0.5h-1.1
				c-0.5,0-1,0.2-1.3,0.6c-0.4,0.4-0.6,0.9-0.7,1.5v7.5h-2.7v-7.8c0-0.5-0.1-1-0.4-1.3c-0.2-0.3-0.5-0.5-0.9-0.5h-1.1
				c-0.5,0-1,0.2-1.4,0.7c-0.4,0.5-0.6,1.1-0.7,1.8v7.1H145V17h2.5v1.5c0.3-0.5,0.7-0.9,1.1-1.2c0.5-0.3,0.9-0.4,1.4-0.4h1.3
				c0.6,0,1.1,0.2,1.6,0.5c0.5,0.3,0.8,0.7,1.1,1.3c0.3-0.5,0.8-1,1.2-1.3c0.5-0.3,1-0.5,1.6-0.5h1.3
				C159.3,16.8,160.2,17.2,160.9,17.9z"/>
			<path class="st0" d="M165.5,32.5c-0.8-0.7-1.2-1.5-1.3-2.6h2.7c0,0.4,0.2,0.7,0.5,0.9c0.3,0.2,0.6,0.4,1.1,0.4h1.9
				c0.6,0,1.1-0.2,1.4-0.7c0.4-0.4,0.5-1,0.5-1.8V27c-0.4,0.5-0.8,0.9-1.3,1.2c-0.5,0.3-1,0.4-1.5,0.4h-1.5c-1.2,0-2.2-0.4-2.9-1.2
				c-0.7-0.8-1.1-1.8-1.1-3.1V17h2.7v7.4c0,0.6,0.1,1.1,0.4,1.4c0.3,0.4,0.7,0.5,1.2,0.5h1.4c0.6,0,1.1-0.2,1.6-0.7
				c0.5-0.5,0.8-1.1,1-1.9V17h2.7v11.7c0,1.5-0.4,2.6-1.3,3.5c-0.8,0.9-2,1.3-3.4,1.3h-1.9C167.2,33.5,166.2,33.2,165.5,32.5z"/>
		</g>
		<g>
			<path class="st1" d="M43.6,32.4c-0.2,0-0.4,0-0.5-0.1l-5-2.9c-0.5-0.3-0.7-1-0.4-1.5c0.3-0.5,1-0.7,1.5-0.4l5,2.9
				c0.5,0.3,0.7,1,0.4,1.5C44.3,32.2,44,32.4,43.6,32.4z"/>
		</g>
		<g>
			<path class="st1" d="M6.1,31.6c-0.4,0-0.7-0.2-0.9-0.5c-0.3-0.5-0.1-1.2,0.4-1.5L9,27.6c0.5-0.3,1.2-0.1,1.5,0.4
				c0.3,0.5,0.1,1.2-0.4,1.5l-3.4,1.9C6.5,31.6,6.3,31.6,6.1,31.6z"/>
		</g>
		<g>
			<path class="st1" d="M24.1,37.8c-0.7,0-1.4-0.2-2-0.5l-11.6-6.7c-1.2-0.7-2-2-2-3.5V13.6c0-1.4,0.8-2.8,2-3.5l11.6-6.7
				c1.2-0.7,2.8-0.7,4,0l11.6,6.7c1.2,0.7,2,2,2,3.5V27c0,1.4-0.8,2.8-2,3.5l-11.6,6.7C25.4,37.6,24.8,37.8,24.1,37.8z M24.1,5.1
				c-0.3,0-0.6,0.1-0.9,0.2L11.5,12c-0.6,0.3-0.9,0.9-0.9,1.6V27c0,0.6,0.3,1.3,0.9,1.6l11.6,6.7c0.6,0.3,1.3,0.3,1.8,0l11.6-6.7
				c0,0,0,0,0,0c0.6-0.3,0.9-0.9,0.9-1.6V13.6c0-0.6-0.3-1.3-0.9-1.6L25,5.3C24.7,5.1,24.4,5.1,24.1,5.1z"/>
		</g>
		<g>
			<g>
				<path class="st1" d="M38.2,13.2c-0.4,0-0.7-0.2-0.9-0.5c-0.3-0.5-0.1-1.2,0.4-1.5l7.3-4.2c0.5-0.3,1.2-0.1,1.5,0.4
					c0.3,0.5,0.1,1.2-0.4,1.5L38.7,13C38.5,13.1,38.3,13.2,38.2,13.2z"/>
			</g>
		</g>
		<path class="st1" d="M16.7,27.1l-4,2.3c-0.5,0.3-0.7,1-0.4,1.5c0.2,0.4,0.6,0.5,0.9,0.5c0.2,0,0.4,0,0.5-0.1l4-2.3
			C17.2,28.6,16.8,27.9,16.7,27.1z"/>
		<path class="st1" d="M20.1,25.2v-5.1l5.5-3.2l4.1,2.4c0.1-0.8,0.6-1.5,1.3-1.8L26.7,15v-2.9c-0.4,0.3-0.8,0.5-1.4,0.5
			c-0.3,0-0.6-0.1-0.8-0.2V15l-4.4,2.6l0-3.6l3.6-2.2c-0.3-0.4-0.5-0.9-0.5-1.4c0-0.4,0.1-0.7,0.2-1l-4.4,2.7l-2.3-1.3
			c-0.5-0.3-1.2-0.1-1.5,0.4c-0.3,0.5-0.1,1.2,0.4,1.5l2.3,1.3l0,3.6l-1.6-0.9c-0.5-0.3-1.2-0.1-1.5,0.4c-0.3,0.5-0.1,1.2,0.4,1.5
			l2.7,1.5v5.1c0.3-0.2,0.7-0.3,1.1-0.3C19.4,24.9,19.7,25,20.1,25.2z"/>
		<path class="st1" d="M31.1,21.5v4.9l-5.5,3.2l-4.4-2.5c0,0.8-0.5,1.5-1.1,1.9l8.9,5.2c0.2,0.1,0.4,0.1,0.5,0.1
			c0.4,0,0.7-0.2,0.9-0.5c0.3-0.5,0.1-1.2-0.4-1.5l-2.3-1.3l5-2.9c0.3-0.2,0.5-0.6,0.5-0.9v-6c-0.4,0.3-0.9,0.6-1.5,0.6
			C31.6,21.7,31.3,21.6,31.1,21.5z"/>
		<path class="st1" d="M31.9,18C31.8,18,31.8,18,31.9,18c-0.8,0-1.5,0.7-1.5,1.5c0,0.1,0,0.1,0,0.2c0.1,0.5,0.3,0.9,0.7,1.1
			c0.2,0.1,0.5,0.2,0.7,0.2c0.7,0,1.3-0.5,1.5-1.2c0-0.1,0-0.2,0-0.3C33.3,18.6,32.7,18,31.9,18z"/>
		<path class="st1" d="M20.4,26.7c-0.1-0.2-0.2-0.4-0.3-0.6c-0.3-0.3-0.7-0.5-1.1-0.5c-0.4,0-0.8,0.2-1.1,0.5
			c-0.1,0.2-0.3,0.3-0.3,0.6c0,0.1-0.1,0.3-0.1,0.4c0,0.7,0.5,1.3,1.2,1.5c0.1,0,0.2,0,0.3,0c0.1,0,0.2,0,0.3,0
			c0.7-0.1,1.2-0.7,1.2-1.5C20.4,26.9,20.4,26.8,20.4,26.7z"/>
		<path class="st1" d="M24.9,9c0,0-0.1,0-0.1,0C24.8,9,24.8,9,24.9,9C24.9,9,24.9,9,24.9,9z"/>
		<path class="st1" d="M26.7,9.8c-0.2-0.5-0.8-0.9-1.4-0.9c-0.1,0-0.3,0-0.4,0.1c0,0,0,0-0.1,0c0,0,0,0,0,0c-0.6,0.2-1,0.8-1,1.4
			c0,0.4,0.2,0.8,0.4,1c0.1,0.1,0.2,0.1,0.2,0.2c0.2,0.2,0.5,0.3,0.8,0.3c0.6,0,1.1-0.4,1.4-0.9c0.1-0.2,0.1-0.4,0.1-0.6
			C26.8,10.2,26.8,10,26.7,9.8z"/>
	</g>
</g>
</svg>
