<svg width="27" height="16" viewBox="0 0 27 16" fill="none" xmlns="http://www.w3.org/2000/svg">
<path d="M27 11.6801C26.9146 11.9393 26.9146 12.2849 26.8293 12.5441C26.2317 14.6176 24.3538 16 22.3051 16C16.415 16 10.6104 16 4.72038 16C2.24487 16 0.196169 14.0992 0.0254444 11.5937C-0.230643 9.26096 1.47661 7.01461 3.7814 6.49622C3.95212 6.49622 4.03748 6.40982 4.03748 6.23703C4.12285 2.60831 7.28126 -0.242822 10.7811 0.0163725C12.9152 0.189168 14.5371 1.13955 15.7321 2.9539C15.7321 3.0403 15.8175 3.0403 15.8175 3.1267C16.159 2.86751 16.5858 2.60831 17.0979 2.52191C19.6588 1.83073 22.3904 3.55869 22.9026 6.23703C22.9026 6.40982 22.988 6.49622 23.1587 6.49622C25.122 6.92821 26.6586 8.56977 26.9146 10.5569C26.9146 10.6433 26.9146 10.6433 27 10.7297C27 10.9889 27 11.3345 27 11.6801Z" fill="url(#paint0_linear_669_32)"/>
<defs>
<linearGradient id="paint0_linear_669_32" x1="59.5346" y1="-11.7197" x2="-8.06745" y2="18.1813" gradientUnits="userSpaceOnUse">
<stop stop-color="#ECF3EF"/>
<stop offset="0.5" stop-color="#72A15F"/>
<stop offset="1" stop-color="#495944"/>
</linearGradient>
</defs>
</svg>
