<svg width="16" height="21" viewBox="0 0 16 21" fill="none" xmlns="http://www.w3.org/2000/svg">
<path d="M15.7711 10.4578C15.7711 13.6627 15.7711 16.9518 15.7711 20.1566C15.7711 20.8313 15.6024 21 14.9277 21C10.6265 21 6.3253 21 2.0241 21C0.759036 20.9157 0 20.241 0 18.8916C0 13.241 0 7.59036 0 2.0241C0 0.674699 0.759036 0 2.0241 0C6.3253 0 10.6265 0 14.9277 0C15.5181 0 15.7711 0.168674 15.7711 0.759036C15.7711 3.96386 15.7711 7.16867 15.7711 10.4578Z" fill="url(#paint0_linear_669_48)"/>
<path d="M7.84371 3.79401C6.2413 3.79401 4.63889 3.79401 3.12081 3.79401C2.69913 3.79401 2.36178 3.54099 2.44612 3.11931C2.44612 2.86629 2.69913 2.61328 3.03648 2.61328C3.12081 2.61328 3.20515 2.61328 3.28949 2.61328C6.40997 2.61328 9.44612 2.61328 12.5666 2.61328C12.6509 2.61328 12.7353 2.61328 12.7353 2.61328C13.0726 2.61328 13.41 2.86629 13.41 3.20364C13.41 3.54099 13.157 3.79401 12.7353 3.79401C11.5546 3.79401 10.2895 3.79401 9.10877 3.79401C8.68708 3.79401 8.26539 3.79401 7.84371 3.79401Z" fill="url(#paint1_linear_669_48)"/>
<path d="M5.48195 7.00104C4.72291 7.00104 3.96387 7.00104 3.1205 7.00104C2.69881 7.00104 2.4458 6.74802 2.4458 6.41067C2.4458 6.07333 2.69881 5.82031 3.1205 5.82031C4.72291 5.82031 6.24098 5.82031 7.84339 5.82031C8.18074 5.82031 8.43375 5.98899 8.51809 6.32634C8.60243 6.66369 8.43375 6.9167 8.0964 7.00104C8.01207 7.00104 7.84339 7.00104 7.75905 7.00104C7.00002 7.00104 6.24098 7.00104 5.48195 7.00104Z" fill="url(#paint2_linear_669_48)"/>
<defs>
<linearGradient id="paint0_linear_669_48" x1="-9.98141" y1="39.1021" x2="16.3189" y2="-2.47564" gradientUnits="userSpaceOnUse">
<stop stop-color="#ECF3EF"/>
<stop offset="0.5" stop-color="#72A15F"/>
<stop offset="1" stop-color="#495944"/>
</linearGradient>
<linearGradient id="paint1_linear_669_48" x1="-2.65621" y1="21.4059" x2="21.8393" y2="-21.01" gradientUnits="userSpaceOnUse">
<stop stop-color="#ECF3EF"/>
<stop offset="0.5" stop-color="#72A15F"/>
<stop offset="1" stop-color="#495944"/>
</linearGradient>
<linearGradient id="paint2_linear_669_48" x1="-3.07172" y1="21.1682" x2="21.4238" y2="-21.2476" gradientUnits="userSpaceOnUse">
<stop stop-color="#ECF3EF"/>
<stop offset="0.5" stop-color="#72A15F"/>
<stop offset="1" stop-color="#495944"/>
</linearGradient>
</defs>
</svg>
