<svg width="234" height="49" viewBox="0 0 234 49" fill="none" xmlns="http://www.w3.org/2000/svg">
<path d="M65.5 36.0008C64.8 35.6008 64.2 35.0008 63.8 34.3008V35.4008C63.8 36.0008 63.4 36.4008 62.8 36.4008H61.3C60.7 36.4008 60.3 36.0008 60.3 35.4008V14.8008C60.3 14.2008 60.7 13.8008 61.3 13.8008H63C63.6 13.8008 64 14.2008 64 14.8008V21.8008C64.4 21.3008 65 20.8008 65.6 20.5008C66.3 20.2008 66.9 20.0008 67.6 20.0008H69.9C71.1 20.0008 72.1 20.3008 73.1 20.8008C74 21.3008 74.7 22.1008 75.3 23.0008C75.8 23.9008 76.1 25.0008 76.1 26.3008V30.1008C76.1 31.4008 75.8 32.5008 75.3 33.5008C74.8 34.5008 74.1 35.3008 73.1 35.8008C72.2 36.3008 71.1 36.6008 69.9 36.6008H67.6C66.9 36.6008 66.2 36.4008 65.5 36.0008ZM69.9 33.4008C70 33.4008 70.2 33.4008 70.4 33.3008C71.7 32.7008 72.3 31.5008 72.3 30.0008V26.6008C72.3 25.6008 72 24.9008 71.5 24.3008C71 23.7008 70.3 23.4008 69.5 23.4008H67.4C66.5 23.4008 65.7 23.7008 65 24.4008C64.4 25.1008 64 26.0008 63.9 27.1008V30.3008C64 31.2008 64.4 32.0008 65 32.6008C65.6 33.2008 66.4 33.5008 67.2 33.5008L69.9 33.4008Z" fill="#333336"/>
<path d="M79.2 17.7992C78.8 17.3992 78.5 16.7992 78.5 16.0992C78.5 15.3992 78.7 14.7992 79.2 14.3992C79.6 13.9992 80.2 13.6992 81 13.6992C81.7 13.6992 82.3 13.8992 82.8 14.3992C83.3 14.7992 83.5 15.3992 83.5 16.0992C83.5 16.7992 83.3 17.3992 82.8 17.7992C82.3 18.1992 81.8 18.4992 81 18.4992C80.2 18.4992 79.6 18.1992 79.2 17.7992ZM80.1 20.2992H81.8C82.4 20.2992 82.8 20.6992 82.8 21.2992V35.3992C82.8 35.9992 82.4 36.3992 81.8 36.3992H80.1C79.5 36.3992 79.1 35.9992 79.1 35.3992V21.2992C79.1 20.6992 79.5 20.2992 80.1 20.2992Z" fill="#333336"/>
<path d="M87.6999 34.9C86.4999 33.8 85.8999 32.2 85.8999 30.3V26.3C85.8999 25.1 86.1999 24 86.6999 23C87.1999 22 87.9999 21.3 88.9999 20.8C89.9999 20.3 91.1999 20 92.4999 20H95.2999C96.5999 20 97.7999 20.3 98.7999 20.8C99.7999 21.3 100.6 22.1 101.1 23C101.6 24 101.9 25.1 101.9 26.3V30.3C101.9 32.2 101.3 33.7 100.1 34.9C98.8999 36.1 97.2999 36.6 95.1999 36.6H92.3999C90.4999 36.6 88.8999 36.1 87.6999 34.9ZM95.1999 33.4C96.0999 33.4 96.7999 33.1 97.3999 32.5C97.8999 31.9 98.1999 31.1 98.1999 30.1V26.5C98.1999 25.5 97.8999 24.7 97.3999 24.1C96.8999 23.5 96.0999 23.2 95.1999 23.2H92.4999C91.5999 23.2 90.8999 23.5 90.2999 24.1C89.7999 24.7 89.4999 25.5 89.4999 26.5V30.1C89.4999 31.1 89.7999 31.9 90.2999 32.5C90.7999 33.1 91.4999 33.4 92.3999 33.4H95.1999Z" fill="#333336"/>
<path d="M107 35.8977C106 35.3977 105.2 34.6977 104.7 33.7977C104.2 32.8977 103.9 31.8977 103.9 30.6977V26.3977C103.9 25.1977 104.2 24.0977 104.7 23.0977C105.2 22.0977 106 21.3977 107 20.8977C108 20.3977 109.2 20.0977 110.5 20.0977H113.1C115.1 20.0977 116.6 20.6977 117.8 21.7977C119 22.8977 119.6 24.4977 119.6 26.2977V28.4977C119.6 29.0977 119.2 29.4977 118.6 29.4977H107.6V30.6977C107.6 31.5977 107.9 32.1977 108.4 32.7977C108.9 33.2977 109.6 33.5977 110.5 33.5977H113C113.9 33.5977 114.6 33.3977 115.1 32.9977C115.4 32.6977 115.6 32.3977 115.8 32.0977C116 31.6977 116.3 31.3977 116.8 31.3977H118.5C119.1 31.3977 119.6 31.8977 119.5 32.4977C119.3 33.5977 118.7 34.4977 117.8 35.2977C116.6 36.2977 115 36.7977 113.1 36.7977H110.6C109.1 36.5977 108 36.3977 107 35.8977ZM115.9 26.6977V26.1977C115.9 25.2977 115.6 24.4977 115.1 23.8977C114.6 23.2977 113.9 22.9977 113.1 22.9977H110.5C109.6 22.9977 108.9 23.2977 108.4 23.8977C107.9 24.4977 107.6 25.2977 107.6 26.2977V26.5977H115.9V26.6977Z" fill="#333336"/>
<path d="M123 34.9C121.8 33.8 121.2 32.3 121.2 30.4V26.3C121.2 25.1 121.5 24 122 23C122.5 22 123.3 21.3 124.3 20.8C125.3 20.3 126.4 20 127.7 20H130.3C132.1 20 133.6 20.5 134.8 21.6C135.7 22.4 136.2 23.4 136.4 24.7C136.5 25.3 136 25.8 135.4 25.8H133.7C133.2 25.8 132.8 25.5 132.7 25C132.6 24.6 132.4 24.2 132.1 23.9C131.6 23.4 131 23.2 130.3 23.2H127.8C127 23.2 126.3 23.5 125.8 24.1C125.3 24.7 125 25.5 125 26.5V30.1C125 31.1 125.3 31.9 125.8 32.5C126.3 33.1 127 33.4 127.9 33.4H130.4C131.2 33.4 131.8 33.1 132.3 32.5C132.6 32.1 132.8 31.6 133 31.1C133.1 30.6 133.5 30.3 134 30.3H135.7C136.3 30.3 136.8 30.8 136.7 31.4C136.5 32.8 136 33.9 135 34.9C133.8 36.1 132.3 36.6 130.4 36.6H127.8C125.8 36.6 124.2 36.1 123 34.9Z" fill="#333336"/>
<path d="M139.8 34.9C138.6 33.8 138 32.2 138 30.3V26.3C138 25.1 138.3 24 138.8 23C139.3 22 140.1 21.3 141.1 20.8C142.1 20.3 143.3 20 144.6 20H147.4C148.7 20 149.9 20.3 150.9 20.8C151.9 21.3 152.7 22.1 153.2 23C153.7 24 154 25.1 154 26.3V30.3C154 32.2 153.4 33.7 152.2 34.9C151 36.1 149.4 36.6 147.3 36.6H144.5C142.6 36.6 141.1 36.1 139.8 34.9ZM147.4 33.4C148.3 33.4 149 33.1 149.6 32.5C150.1 31.9 150.4 31.1 150.4 30.1V26.5C150.4 25.5 150.1 24.7 149.6 24.1C149.1 23.5 148.3 23.2 147.4 23.2H144.7C143.8 23.2 143.1 23.5 142.5 24.1C142 24.7 141.7 25.5 141.7 26.5V30.1C141.7 31.1 142 31.9 142.5 32.5C143 33.1 143.7 33.4 144.6 33.4H147.4Z" fill="#333336"/>
<path d="M157.6 20.2977H159.1C159.7 20.2977 160.1 20.6977 160.1 21.2977V22.3977C160.6 21.6977 161.2 21.0977 162 20.6977C162.8 20.2977 163.5 20.0977 164.3 20.0977H166.3C168 20.0977 169.3 20.5977 170.3 21.6977C171.3 22.7977 171.8 24.0977 171.8 25.8977V35.4977C171.8 36.0977 171.4 36.4977 170.8 36.4977H169C168.4 36.4977 168 36.0977 168 35.4977V25.9977C168 25.1977 167.8 24.5977 167.4 24.0977C167 23.5977 166.5 23.3977 165.8 23.3977H163.8C163 23.3977 162.2 23.6977 161.5 24.3977C160.8 24.9977 160.4 25.7977 160.2 26.7977V35.4977C160.2 36.0977 159.8 36.4977 159.2 36.4977H157.5C156.9 36.4977 156.5 36.0977 156.5 35.4977V21.2977C156.6 20.6977 157.1 20.2977 157.6 20.2977Z" fill="#333336"/>
<path d="M175.9 34.9C174.7 33.8 174.1 32.2 174.1 30.3V26.3C174.1 25.1 174.4 24 174.9 23C175.4 22 176.2 21.3 177.2 20.8C178.2 20.3 179.4 20 180.7 20H183.5C184.8 20 186 20.3 187 20.8C188 21.3 188.8 22.1 189.3 23C189.8 24 190.1 25.1 190.1 26.3V30.3C190.1 32.2 189.5 33.7 188.3 34.9C187.1 36.1 185.5 36.6 183.4 36.6H180.6C178.7 36.6 177.1 36.1 175.9 34.9ZM183.4 33.4C184.3 33.4 185 33.1 185.6 32.5C186.1 31.9 186.4 31.1 186.4 30.1V26.5C186.4 25.5 186.1 24.7 185.6 24.1C185.1 23.5 184.3 23.2 183.4 23.2H180.7C179.8 23.2 179.1 23.5 178.5 24.1C178 24.7 177.7 25.5 177.7 26.5V30.1C177.7 31.1 178 31.9 178.5 32.5C179 33.1 179.7 33.4 180.6 33.4H183.4Z" fill="#333336"/>
<path d="M214.5 21.4984C215.4 22.4984 215.9 23.8984 215.9 25.5984V35.3984C215.9 35.8984 215.5 36.3984 214.9 36.3984H213.1C212.6 36.3984 212.1 35.9984 212.1 35.3984V25.5984C212.1 24.4984 211.7 23.7984 211 23.3984C210.9 23.2984 210.7 23.2984 210.5 23.2984H208.3C208.2 23.2984 208 23.2984 207.9 23.3984C206.8 23.8984 206.2 24.7984 206 26.0984V35.4984C206 35.9984 205.6 36.4984 205 36.4984H203.2C202.7 36.4984 202.2 36.0984 202.2 35.4984V25.7984C202.2 24.6984 201.8 23.9984 201.1 23.4984C201 23.3984 200.8 23.3984 200.6 23.3984H198.9C198.2 23.3984 197.6 23.6984 197 24.3984C196.5 24.9984 196.1 25.8984 196 26.8984V35.5984C196 36.0984 195.6 36.5984 195 36.5984H193.2C192.7 36.5984 192.2 36.1984 192.2 35.5984V21.1984C192.2 20.6984 192.6 20.1984 193.2 20.1984H194.7C195.2 20.1984 195.7 20.5984 195.7 21.1984V22.2984C196.1 21.5984 196.6 20.9984 197.2 20.5984C197.8 20.1984 198.5 19.9984 199.1 19.9984H200.9C201.7 19.9984 202.4 20.1984 203.1 20.5984C203.4 20.7984 203.7 21.0984 204 21.2984C204.4 21.6984 205 21.6984 205.4 21.2984C205.7 20.9984 206 20.7984 206.3 20.4984C207 20.0984 207.7 19.8984 208.4 19.8984H210.2C212.3 19.9984 213.6 20.4984 214.5 21.4984Z" fill="#333336"/>
<path d="M220.8 41.5992C220.1 40.9992 219.6 40.1992 219.3 39.3992C219.1 38.6992 219.6 38.0992 220.2 38.0992H221.9C222.3 38.0992 222.7 38.3992 222.8 38.6992C222.9 38.9992 223.1 39.1992 223.3 39.3992C223.7 39.6992 224.2 39.8992 224.8 39.8992H227.4C228.2 39.8992 228.9 39.5992 229.4 38.9992C229.9 38.3992 230.1 37.5992 230.1 36.4992V33.9992C229.6 34.6992 229 35.2992 228.3 35.6992C227.6 36.0992 226.9 36.2992 226.3 36.2992H224.2C222.6 36.2992 221.2 35.7992 220.2 34.6992C219.2 33.5992 218.7 32.1992 218.7 30.3992V21.2992C218.7 20.6992 219.1 20.2992 219.7 20.2992H221.4C222 20.2992 222.4 20.6992 222.4 21.2992V30.3992C222.4 31.1992 222.6 31.8992 223 32.3992C223.4 32.8992 223.9 33.0992 224.6 33.0992H226.5C227.3 33.0992 228 32.7992 228.7 32.0992C229.3 31.4992 229.8 30.6992 230 29.6992C230 29.5992 230 29.4992 230 29.3992V21.1992C230 20.5992 230.4 20.1992 231 20.1992H232.7C233.3 20.1992 233.7 20.5992 233.7 21.1992V36.2992C233.7 38.2992 233.1 39.8992 232 41.0992C230.8 42.2992 229.3 42.8992 227.4 42.8992H224.8C223.2 42.8992 221.8 42.4992 220.8 41.5992Z" fill="#333336"/>
<path d="M57.6001 7.09922C57.2001 6.39922 56.3001 6.09922 55.6001 6.59922L46.7001 11.6992C46.4001 11.3992 46.1001 11.1992 45.7001 10.8992L29.7001 1.69922C28.0001 0.699219 25.9001 0.699219 24.2001 1.69922L8.30009 10.8992C6.60009 11.8992 5.50009 13.6992 5.50009 15.6992V33.9992C5.50009 34.3992 5.60009 34.7992 5.60009 35.1992L1.60009 37.4992C0.900094 37.8992 0.600094 38.7992 1.10009 39.4992C1.40009 39.9992 1.90009 40.2992 2.40009 40.2992C2.70009 40.2992 2.90009 40.1992 3.10009 40.0992L7.00009 37.7992C7.30009 38.1992 7.70009 38.4992 8.20009 38.6992L24.2001 47.9992C25.0001 48.4992 26.0001 48.6992 27.0001 48.6992C28.0001 48.6992 28.9001 48.4992 29.8001 47.9992L45.7001 38.7992C46.2001 38.4992 46.7001 38.0992 47.0001 37.6992L53.0001 41.1992C53.2001 41.2992 53.5001 41.3992 53.7001 41.3992C54.2001 41.3992 54.7001 41.0992 55.0001 40.5992C55.4001 39.8992 55.2001 38.9992 54.5001 38.5992L48.3001 34.9992C48.4001 34.6992 48.4001 34.3992 48.4001 34.0992V15.5992C48.4001 15.0992 48.3001 14.5992 48.2001 14.1992L57.0001 9.09922C57.7001 8.69922 58.0001 7.79922 57.6001 7.09922ZM45.4001 33.9992C45.4001 34.8992 44.9001 35.6992 44.1001 36.1992L35.2001 41.2992C35.2001 41.2992 35.1001 41.2992 35.1001 41.1992L32.0001 39.3992L38.9001 35.3992C39.4001 35.0992 39.7001 34.5992 39.7001 34.0992V25.8992C39.2001 26.3992 38.5001 26.6992 37.7001 26.6992C37.3001 26.6992 37.0001 26.5992 36.7001 26.4992V33.2992L29.1001 37.6992L23.1001 34.1992C23.1001 35.2992 22.5001 36.2992 21.6001 36.7992L32.3001 42.9992L28.2001 45.3992C27.4001 45.7992 26.5001 45.7992 25.7001 45.3992L14.6001 38.9992L18.5001 36.7992C17.6001 36.2992 17.0001 35.2992 17.0001 34.1992L11.7001 37.2992L9.90009 36.1992C9.10009 35.7992 8.60009 34.8992 8.60009 33.9992V15.5992C8.60009 14.6992 9.10009 13.8992 9.90009 13.3992L25.8001 4.19922C26.1001 3.99922 26.5001 3.89922 27.0001 3.89922C27.5001 3.89922 27.9001 3.99922 28.3001 4.19922L44.2001 13.3992C44.5001 13.5992 44.8001 13.8992 45.0001 14.0992V14.1992C45.0001 14.2992 45.1001 14.2992 45.1001 14.3992C45.3001 14.7992 45.4001 15.0992 45.4001 15.5992V33.9992Z" fill="#91D873"/>
<path d="M36.4002 20.9L30.6002 17.5V13.6C30.1002 14 29.4002 14.3 28.7002 14.3C28.3002 14.3 27.9002 14.2 27.6002 14.1V17.6L21.5002 21.1V16.2L26.4002 13.2C26.0002 12.7 25.7002 12 25.7002 11.3C25.7002 10.8 25.8002 10.4 26.0002 10L20.0002 13.6L16.9002 11.8C16.2002 11.4 15.3002 11.6 14.9002 12.3C14.5002 13 14.7002 13.9 15.4002 14.3L18.5002 16.1V21L16.4002 19.8C15.7002 19.4 14.8002 19.6 14.4002 20.3C14.0002 21 14.2002 21.9 14.9002 22.3L18.5002 24.4V31.4C18.9002 31.1 19.5002 31 20.0002 31C20.5002 31 21.1002 31.2 21.5002 31.4V24.4L29.1002 20L34.7002 23.2C34.7002 22.3 35.4002 21.4 36.4002 20.9Z" fill="#91D873"/>
<path d="M37.7002 21.5977C37.6002 21.5977 37.6002 21.5977 37.7002 21.5977C36.6002 21.5977 35.7002 22.4977 35.7002 23.5977C35.7002 23.6977 35.7002 23.7977 35.7002 23.8977C35.8002 24.4977 36.2002 25.0977 36.7002 25.3977C37.0002 25.5977 37.3002 25.6977 37.7002 25.6977C38.7002 25.6977 39.5002 24.9977 39.7002 24.0977C39.7002 23.9977 39.7002 23.7977 39.7002 23.6977C39.7002 22.4977 38.8002 21.5977 37.7002 21.5977Z" fill="#91D873"/>
<path d="M21.5 32.7977C21.1 32.3977 20.6 32.0977 20 32.0977C19.4 32.0977 18.9 32.3977 18.5 32.7977C18.3 32.9977 18.2 33.2977 18.1 33.5977C18 33.7977 18 33.9977 18 34.1977C18 35.1977 18.7 35.9977 19.6 36.1977C19.7 36.1977 19.9 36.2977 20 36.2977C20.2 36.2977 20.3 36.2977 20.4 36.1977C21.3 35.9977 22 35.1977 22 34.1977C22 33.9977 22 33.7977 21.9 33.5977C21.8 33.1977 21.7 32.9977 21.5 32.7977Z" fill="#91D873"/>
<path d="M27.6001 12.8992C27.9001 13.0992 28.3001 13.1992 28.7001 13.1992C29.5001 13.1992 30.3001 12.6992 30.6001 11.9992C30.7001 11.7992 30.8001 11.4992 30.8001 11.1992C30.8001 10.8992 30.7001 10.5992 30.6001 10.3992C30.3001 9.69922 29.6001 9.19922 28.7001 9.19922C28.5001 9.19922 28.3001 9.19922 28.1001 9.29922C28.0001 9.29922 28.0001 9.29922 27.9001 9.29922C27.1001 9.59922 26.6001 10.2992 26.6001 11.1992C26.6001 11.6992 26.8001 12.1992 27.2001 12.5992C27.3001 12.6992 27.4001 12.7992 27.6001 12.8992Z" fill="#91D873"/>
</svg>
