<svg width="373" height="373" viewBox="0 0 373 373" fill="none" xmlns="http://www.w3.org/2000/svg">
<path d="M65.1455 141.928C66.0055 147.94 69.089 153.411 73.7868 157.26C72.775 155.023 72.1086 152.644 71.8105 150.207L75.024 151.126L74.873 149.214C75.3393 149.035 75.8474 148.996 76.3353 149.102C76.8232 149.208 77.2698 149.453 77.6206 149.808L77.8809 146.983L79.8765 147.43L80.0533 144.975L81.4319 145.656C82.1646 145.878 82.6274 144.878 82.5984 144.146C82.5695 143.413 82.5695 142.449 83.3054 142.218C83.7328 142.089 84.1795 142.311 84.5395 142.555C85.6674 143.32 86.5929 144.856 85.7188 145.9C85.3975 146.283 84.8737 146.543 84.7323 147.003C84.5523 147.587 85.0697 148.143 85.1629 148.744C85.2561 149.345 84.1988 149.921 84.0992 149.316C83.9458 149.717 83.8891 150.148 83.9338 150.575C83.9785 151.001 84.1232 151.411 84.3563 151.772L82.8684 150.345C82.8564 151.51 83.1383 152.659 83.6879 153.687L82.2417 153.006C82.1013 154.36 82.2796 155.729 82.7623 157.003L81.5315 156.502L81.6954 158.951C80.515 159.306 79.273 159.409 78.0501 159.254C76.8271 159.098 75.6505 158.687 74.5966 158.048C76.0717 160.995 79.4556 162.968 82.9069 162.884C83.8214 162.89 84.7243 162.68 85.5421 162.27C86.3349 161.778 87.0335 161.147 87.6052 160.41C91.4261 156.042 95.2792 151.627 97.9851 146.572C99.211 144.27 100.19 141.846 100.906 139.338C101.067 138.776 101.192 138.117 100.807 137.677C100.138 136.912 98.6471 137.523 97.8694 136.857C97.0917 136.192 97.9304 134.752 99.0102 134.656C100.09 134.56 101.044 135.276 101.787 136.019C103.014 135.839 103.394 133.637 104.566 133.959C104.978 134.071 105.209 134.466 105.418 134.817C107.26 137.848 110.219 140.034 113.658 140.903C113.172 140.26 114.159 139.38 114.972 139.534C115.785 139.688 116.341 140.373 116.929 140.929C117.517 141.485 118.385 141.973 119.14 141.629C118.253 141.012 118.88 139.534 119.911 139.145C120.943 138.757 122.09 139.033 123.189 139.113C124.288 139.194 125.606 138.953 126.081 137.998C123.264 134.544 119.585 131.896 115.416 130.321C114.937 132.049 115.126 133.894 115.946 135.488C113.696 135.263 112.224 133.313 110.611 131.838C108.998 130.363 106.228 129.315 104.647 130.858C104.175 129.664 104.031 128.366 104.231 127.098C104.432 125.831 104.968 124.64 105.784 123.65C104.712 123.404 103.74 122.837 102.998 122.023C100.974 124.784 96.8732 125.038 93.3575 125.083C87.2517 125.163 80.5835 125.671 76.1359 129.685C72.0965 133.329 70.4897 139.415 65.4508 141.652L65.1455 141.928Z" fill="#C6D2C4"/>
<path d="M115.609 139.714C115.496 139.737 115.528 139.506 115.641 139.518C115.753 139.531 115.811 139.666 115.811 139.782C115.811 140.589 114.497 141.167 114.876 141.88C115.048 142.108 115.291 142.272 115.567 142.346C116.412 142.714 117.105 143.36 117.53 144.178C117.506 143.757 117.575 143.336 117.731 142.944C117.887 142.552 118.126 142.199 118.433 141.909C118.607 141.745 118.857 141.588 119.076 141.71C119.19 141.789 119.277 141.901 119.323 142.031L120.001 143.449C119.156 143.792 118.138 144.499 118.449 145.358C118.558 145.594 118.717 145.805 118.915 145.975L120.602 147.642C120.691 147.748 120.801 147.834 120.924 147.896C121.383 148.083 121.84 147.575 121.923 147.08C122.007 146.585 121.907 146.071 122.1 145.615C122.169 145.452 122.273 145.308 122.405 145.19C122.536 145.073 122.692 144.986 122.861 144.936C123.03 144.886 123.208 144.874 123.383 144.9C123.557 144.927 123.723 144.991 123.869 145.089C124.016 145.188 124.139 145.317 124.23 145.468C124.32 145.619 124.377 145.788 124.395 145.964C124.413 146.139 124.392 146.316 124.333 146.482C124.275 146.649 124.181 146.8 124.057 146.926C123.504 147.491 122.367 147.585 122.286 148.372C122.241 148.783 122.553 149.14 122.839 149.439L125.484 152.177C125.831 151.855 125.767 151.287 125.86 150.814C125.921 150.559 126.032 150.319 126.187 150.108C126.342 149.896 126.536 149.717 126.761 149.581C126.985 149.445 127.233 149.355 127.492 149.316C127.751 149.276 128.016 149.289 128.27 149.352C128.813 149.866 129.318 150.859 128.665 151.219C128.418 151.308 128.157 151.351 127.894 151.348C127.687 151.393 127.494 151.486 127.33 151.618C127.165 151.751 127.033 151.92 126.945 152.112C126.857 152.305 126.815 152.515 126.821 152.726C126.828 152.937 126.884 153.144 126.985 153.33C127.833 154.664 130.317 153.726 131.236 155.011C131.439 155.297 131.525 155.654 131.721 155.94C131.892 156.192 132.137 156.384 132.423 156.489C132.709 156.593 133.021 156.604 133.313 156.521C133.606 156.438 133.865 156.264 134.053 156.024C134.241 155.785 134.348 155.492 134.36 155.188C135.222 154.951 136.133 154.962 136.988 155.22C137.888 153.902 138.939 152.479 140.498 152.138C141.201 151.987 141.96 152.071 142.625 151.798C143.055 151.62 143.413 151.304 143.644 150.9C143.874 150.497 143.963 150.027 143.897 149.567C143.831 149.107 143.614 148.682 143.279 148.359C142.945 148.036 142.512 147.833 142.05 147.784C140.697 147.639 139.373 148.809 138.071 148.407C137.242 148.15 136.6 147.286 135.735 147.36C135.388 147.392 134.986 147.559 134.733 147.324C134.66 147.236 134.61 147.131 134.587 147.019C134.563 146.907 134.567 146.792 134.598 146.681C134.742 145.82 135.308 145.091 135.562 144.255C135.815 143.42 135.546 142.272 134.691 142.105C133.836 141.938 133.193 142.812 132.779 143.568L131.93 145.116C131.583 145.743 131.111 146.457 130.394 146.473C129.456 146.495 128.967 145.255 129.244 144.358C129.52 143.461 130.24 142.783 130.703 141.97C131.043 141.373 131.185 140.492 130.622 140.1C130.405 139.98 130.155 139.932 129.909 139.965C129.663 139.998 129.434 140.11 129.257 140.283C128.91 140.638 128.633 141.054 128.44 141.511C128.014 142.329 127.512 143.105 126.943 143.831C126.843 143.983 126.703 144.104 126.538 144.181C126.418 144.211 126.293 144.212 126.172 144.185C126.052 144.158 125.939 144.103 125.844 144.024C125.031 143.452 124.88 142.26 125.201 141.318C125.522 140.376 126.223 139.621 126.888 138.879C127.102 138.693 127.234 138.429 127.255 138.146C127.219 137.69 126.612 137.481 126.188 137.658C125.791 137.883 125.459 138.206 125.224 138.596C124.261 139.833 122.957 140.761 121.473 141.267C120.712 139.017 123.434 137.021 123.559 134.653C123.576 134.476 123.555 134.298 123.498 134.129C123.266 133.538 122.399 133.467 121.865 133.808C121.332 134.149 121.03 134.746 120.673 135.273C120.316 135.8 119.812 136.314 119.176 136.327C118.179 136.347 117.247 135.122 116.38 135.608C115.718 135.974 115.843 136.97 116.19 137.642C116.537 138.313 117.039 139.027 116.833 139.756" fill="#C6D2C4"/>
<path d="M135.584 148.345C136.334 146.471 137.54 144.814 139.093 143.524C141.176 141.845 143.707 140.816 146.372 140.565C148.296 140.366 150.24 140.529 152.105 141.047C153.846 141.532 155.549 142.364 156.729 143.733C158.442 145.726 158.821 148.531 160.164 150.787C160.91 152.047 162.006 153.316 161.771 154.759C161.491 156.517 159.476 157.33 157.748 157.757C154.534 158.545 151.224 159.075 148.065 160.11C144.906 161.144 141.837 162.741 139.71 165.283C138.424 166.813 137.415 168.719 135.612 169.583C135.291 169.758 134.927 169.839 134.562 169.815C133.048 169.635 133.119 167.212 131.872 166.334C130.953 165.692 129.426 165.968 128.883 164.988C128.417 164.159 129.153 163.111 130.027 162.738C130.901 162.365 131.898 162.369 132.785 162.028C133.671 161.687 134.481 160.723 134.118 159.843C133.993 159.521 133.736 159.287 133.598 158.978C133.438 158.516 133.412 158.019 133.52 157.542L133.842 155.196C134.189 152.641 134.648 149.855 136.567 148.126" fill="#C6D2C4"/>
<path d="M153.262 154.306C154.521 150.15 155.893 146.033 157.375 141.953C159.162 142.821 159.682 145.128 159.599 147.114C159.515 149.1 159.049 151.147 159.699 153.021C160.505 149.049 163.041 141.706 164.461 141.928C165.881 142.149 164.214 149.088 163.497 152.59C165.046 148.631 169.645 142.079 170.509 142.236C171.373 142.394 168.581 148.908 167.202 152.089C171.38 150.003 173.87 142.127 174.69 142.249C175.509 142.371 173.787 148.053 172.199 151.189C176.432 149.554 177.871 142.397 179.012 143.133C180.153 143.869 178.189 147.176 176.853 150.225C180.561 148.593 183.232 143.014 184.022 143.207C184.813 143.4 184.411 147.593 182.974 149.714C186.509 148.959 190.989 143.197 191.6 143.509C192.21 143.821 189.672 147.886 188.386 149.913C189.286 150.235 190.208 149.435 190.636 148.583C191.063 147.731 191.256 146.738 191.895 146.035C192.535 145.331 193.917 145.18 194.306 146.051C194.171 145.196 194.248 144.123 195.013 143.731C195.777 143.339 196.828 143.959 197.127 144.804C197.426 145.649 197.227 146.584 197.021 147.458C197.252 147.647 197.535 147.76 197.833 147.782C198.13 147.803 198.427 147.732 198.682 147.577C198.204 146.69 198.04 145.553 198.557 144.685C199.074 143.817 200.35 143.4 201.15 144.017C201.716 144.457 201.883 145.225 202.179 145.88C202.474 146.536 203.143 147.185 203.814 146.967C204.779 146.665 204.554 145.289 204.83 144.331C204.933 144.039 205.095 143.771 205.308 143.545C205.52 143.318 205.777 143.139 206.063 143.018C206.348 142.897 206.656 142.837 206.966 142.842C207.276 142.847 207.582 142.916 207.864 143.046C209.297 143.795 209.952 146.125 211.556 145.9C213.52 145.623 213.092 142.015 214.975 141.401C216.029 141.047 217.112 141.941 217.626 142.927C218.141 143.914 218.35 145.061 219.034 145.942C220.487 145.736 220.528 143.663 221.284 142.407C222.19 140.912 224.638 140.729 225.76 142.069C226.882 143.409 226.988 146.086 228.778 146.247C229.057 145.283 229.362 144.245 230.095 143.544C230.828 142.844 232.139 142.632 232.82 143.383C233.659 144.299 233.045 145.864 233.659 146.944C234.552 148.516 237.216 147.632 237.907 145.961C238.187 145.283 238.351 144.447 239.006 144.123C240.003 143.628 241.034 144.765 241.465 145.778C241.895 146.79 242.429 148.075 243.531 148.169C244.572 148.255 245.295 147.204 246.002 146.449C246.709 145.694 248.123 145.164 248.663 146.057C249.01 146.636 248.689 147.417 248.956 148.04C249.467 149.232 251.253 148.699 252.359 148.017C253.464 147.336 255.344 146.96 255.688 148.213C255.131 149.289 254.308 150.204 253.297 150.871C254.21 152.018 255.945 152.24 256.855 153.391C258.188 155.081 256.794 157.777 254.775 158.532C252.757 159.287 250.517 158.712 248.441 158.137L251.886 153.545C250.44 153.169 248.936 153.927 247.763 154.853C246.59 155.778 245.54 156.919 244.167 157.514C242.795 158.108 240.915 157.938 240.154 156.649L245.408 150.543C244.306 149.923 242.885 150.437 241.924 151.26C240.963 152.083 240.266 153.188 239.296 153.985C236.85 156.022 233.306 155.823 230.137 155.515C232.481 154.36 234.661 152.9 236.622 151.173C234.26 151.395 232.444 153.23 230.439 154.512C228.434 155.794 225.445 156.408 223.964 154.557L229.221 150.826C229.587 150.566 230.002 150.183 229.906 149.759C229.777 149.178 228.941 149.155 228.382 149.354C226.454 150.042 224.963 151.604 223.241 152.754C221.518 153.905 219.166 154.602 217.456 153.436C217.456 152.314 218.896 151.916 219.963 151.575C221.03 151.234 222.087 149.798 221.158 149.168C220.458 148.696 219.593 149.425 219.012 150.039C217.744 151.368 216.211 152.416 214.513 153.114C213.928 153.352 213.079 153.452 212.832 152.87C212.327 151.694 215.319 150.723 214.384 149.846C213.152 149.993 211.949 150.318 210.81 150.81C211.023 151.803 210.094 153.06 209.178 152.635C208.638 152.378 208.465 151.72 208.214 151.183C207.963 150.646 207.34 150.116 206.829 150.418C206.318 150.72 206.491 151.642 206.099 152.153C205.54 152.88 204.374 152.292 203.766 151.604C203.159 150.916 202.346 150.058 201.517 150.415C201.376 150.895 201.082 151.315 200.681 151.614C200.279 151.912 199.791 152.071 199.291 152.067C198.791 152.063 198.306 151.896 197.909 151.591C197.512 151.287 197.225 150.861 197.092 150.379C196.128 150.778 195.607 151.867 194.714 152.423C193.82 152.979 192.168 152.211 192.712 151.311C191.04 151.388 189.422 151.922 188.033 152.854C186.747 152.613 186.554 150.209 185.253 150.36C184.411 150.46 184.17 151.578 183.511 152.115C182.624 152.835 181.03 151.967 181.152 150.829C180.51 150.28 179.52 151.064 179.224 151.871C178.929 152.677 178.858 153.667 178.144 154.146C176.48 155.258 174.156 152.095 172.54 153.278C171.839 153.792 171.524 155.029 170.663 154.923C170.136 154.859 169.815 154.281 169.304 154.13C168.568 153.918 167.941 154.682 167.221 154.952C165.936 155.441 164.461 153.715 165.158 152.516C164.241 153.427 163.429 154.438 162.739 155.531C162.125 154.486 160.489 154.93 159.547 155.698C158.606 156.466 157.597 157.504 156.408 157.26C155.649 157.102 155.093 156.45 154.377 156.157C153.66 155.865 152.535 156.334 152.77 157.077C152.002 157.077 151.559 155.92 152.127 155.415" fill="#C6D2C4"/>
<path d="M144.215 160.59C140.958 163.125 138.157 166.199 135.934 169.678C135.433 170.465 134.95 171.304 134.857 172.248C134.764 173.193 135.153 174.215 135.998 174.607C136.585 174.832 137.234 174.832 137.82 174.607C139.806 173.964 141.114 172.075 141.959 170.169C142.804 168.264 143.351 166.194 144.549 164.488C144.871 164.038 145.456 163.575 145.909 163.893C146.032 164.009 146.126 164.153 146.182 164.313C146.237 164.473 146.254 164.644 146.23 164.812C146.121 169.436 141.41 172.634 140.086 177.062C141.509 177.12 142.788 176.214 143.807 175.218C146.527 172.553 148.251 169.037 148.695 165.256C148.852 163.874 149.016 162.206 150.25 161.589C151.279 162.98 151.214 164.864 151.118 166.592C150.983 168.909 150.832 171.284 149.906 173.415C148.981 175.545 147.104 177.419 144.797 177.67C144.238 178.634 144.848 180.003 145.877 180.459C146.905 180.915 148.152 180.6 149.045 179.919C149.939 179.238 150.54 178.242 151.038 177.233C153.241 172.741 153.831 167.628 152.709 162.752C152.548 162.055 152.371 161.245 152.812 160.679C153.332 160.008 154.463 160.149 155.061 160.75C155.659 161.351 155.874 162.232 156.025 163.07C156.716 166.994 156.892 170.991 156.549 174.961C156.469 176.002 156.346 177.062 155.874 177.991C155.402 178.92 154.499 179.694 153.457 179.73C152.416 179.765 151.359 178.843 151.497 177.801C150.466 179.604 152.088 182.259 154.161 182.162C156.536 182.05 157.783 179.309 158.226 176.972C159.15 172.054 158.89 166.987 157.468 162.19C157.124 161.033 156.983 159.339 158.156 159.041C160.219 160.994 160.772 164.018 161.196 166.827C161.662 169.915 162.102 173.065 161.617 176.146C161.132 179.228 159.586 182.3 156.893 183.891C158.41 185.241 160.968 184.608 162.314 183.088C163.661 181.568 164.107 179.472 164.454 177.474C165.271 172.75 165.823 167.868 164.795 163.186C164.547 161.902 164.086 160.668 163.432 159.535C161.392 156.177 157.053 154.715 153.149 155.232C149.244 155.75 145.758 157.964 142.827 160.567" fill="#C6D2C4"/>
<path d="M163.214 157.619C166.186 163.136 167.605 169.356 167.317 175.615C167.227 177.489 166.97 179.407 166.064 181.046C165.158 182.685 163.493 184.012 161.61 184.054C162.404 185.941 165.02 186.506 166.871 185.629C168.722 184.752 169.879 182.862 170.608 180.95C171.889 177.563 172.136 173.872 171.315 170.345C170.505 166.887 168.696 163.735 167.764 160.306C167.465 159.213 167.61 157.594 168.728 157.52C170.855 158.914 172.096 161.305 172.993 163.683C174.788 168.447 175.555 173.536 175.242 178.617C175.091 181.04 174.397 183.845 172.16 184.781C171.582 185.022 170.875 185.166 170.592 185.722C170.165 186.564 171.132 187.496 172.064 187.65C173.584 187.885 175.11 187.008 176.007 185.741C176.903 184.475 177.273 182.949 177.492 181.426C178.366 175.426 177.228 169.291 175.377 163.519C174.654 161.27 173.809 158.927 174.188 156.588C175.441 156.459 176.537 157.43 177.292 158.442C179.927 161.977 180.474 166.614 180.827 171.014C181.181 175.413 181.361 180.188 178.989 183.932C178.025 185.446 176.63 186.895 176.688 188.685C178.565 188.585 180.262 187.4 181.341 185.863C182.421 184.327 182.948 182.473 183.286 180.622C184.23 175.297 183.607 169.776 182.103 164.58C181.357 162.009 180.4 159.467 180.226 156.797C180.207 156.459 180.226 156.067 180.487 155.858C180.911 155.537 181.505 155.952 181.843 156.369C183.983 159.014 184.841 162.44 185.545 165.766C186.316 169.41 186.968 173.138 186.583 176.843C186.197 180.548 184.655 184.27 181.708 186.554C181.049 187.065 180.233 187.766 180.509 188.553C180.597 188.74 180.721 188.907 180.874 189.045C181.026 189.184 181.205 189.291 181.399 189.36C183.494 190.305 186.085 189.517 187.72 187.901C189.356 186.284 190.166 184 190.539 181.731C191.268 177.267 190.474 172.675 189.141 168.353C187.807 164.03 185.927 159.891 184.446 155.621C184.108 154.656 183.854 153.419 184.626 152.748C185.191 152.256 186.094 152.349 186.718 152.767C187.31 153.23 187.783 153.828 188.096 154.512C192.03 161.775 192.978 170.29 192.827 178.549C192.788 180.722 192.669 182.939 191.863 184.954C191.056 186.969 189.424 188.775 187.303 189.254C185.815 189.575 183.848 189.485 183.247 190.89C185.461 191.658 188.006 191.015 189.883 189.604C191.76 188.193 193.036 186.114 193.897 183.932C196.002 178.601 195.825 172.64 194.986 166.964C194.637 164.249 194.001 161.577 193.09 158.995C192.412 157.182 191.516 155.354 191.634 153.422C191.629 153.193 191.697 152.968 191.827 152.78C192.322 152.192 193.206 152.966 193.537 153.66C196.654 160.2 198.126 167.403 197.824 174.642C197.58 180.426 195.738 186.767 190.719 189.623C189.906 190.086 188.916 191.137 189.652 191.715C189.999 191.992 190.507 191.86 190.937 191.696C196.477 189.504 199.935 183.691 200.867 177.807C201.799 171.923 200.588 165.917 199.167 160.132C198.698 158.224 198.203 156.276 198.473 154.319C198.492 153.982 198.624 153.661 198.849 153.41C199.595 152.728 200.652 153.821 201.028 154.759C204.969 164.698 204.844 175.788 200.681 185.635C203.027 185.372 204.132 182.656 204.691 180.362C206.465 173.099 207.583 165.358 205.334 158.224C204.82 156.585 204.129 154.968 204.049 153.252C204.025 153.097 204.032 152.939 204.07 152.786C204.108 152.634 204.176 152.491 204.27 152.365C204.759 151.854 205.588 152.426 206.015 152.989C210.694 159.127 211.755 167.826 208.686 174.908C208.406 175.551 208.303 176.599 209.007 176.679C209.396 176.724 209.704 176.358 209.913 176.036C212.349 172.238 212.108 167.967 212.34 163.667C212.558 159.631 212.439 155.685 210.668 151.922C209.238 148.882 206.452 146.256 203.107 145.986C202.4 145.932 201.587 146.025 201.16 146.59C200.954 146.867 200.867 147.214 200.677 147.5C200.009 148.506 198.512 148.329 197.335 148.065C192.601 146.998 187.771 146.414 182.919 146.32C181.242 146.288 179.522 146.32 177.948 146.908C176.807 147.336 175.795 148.033 174.734 148.615C172.263 149.961 169.499 150.684 166.726 151.186C165.29 151.436 163.815 151.636 162.503 152.275C161.192 152.915 160.048 154.107 159.9 155.559L163.214 157.619Z" fill="#C6D2C4"/>
<path d="M140.228 167.008C138.358 167.869 137.197 169.9 136.95 171.931C136.703 173.962 137.246 176.041 138.036 177.944C140.009 182.68 143.47 186.62 146.43 190.798C149.39 194.976 151.964 199.822 151.726 204.938C151.678 205.992 151.514 207.081 151.861 208.077C152.208 209.074 153.297 209.916 154.284 209.546C155.075 208.36 154.13 206.413 155.226 205.51C155.637 205.169 156.209 205.118 156.694 204.899C158.169 204.256 158.516 202.18 157.883 200.696C157.25 199.211 155.936 198.147 154.744 197.058C147.899 190.744 143.815 181.988 143.377 172.686C143.306 171.031 143.3 169.212 142.217 167.956C141.134 166.699 138.538 166.86 138.309 168.502" fill="#C6D2C4"/>
<path d="M152.469 209.683C151.614 209.066 151.598 207.652 152.34 206.9C153.083 206.148 154.345 206.077 155.265 206.579C157.35 207.748 157.193 210.756 156.756 213.102C154.683 224.173 152.533 235.951 156.698 246.417C156.961 247.083 157.257 247.783 157.144 248.49C157.032 249.197 156.312 249.856 155.637 249.618C153.905 244.766 152.154 239.836 151.836 234.697C151.607 230.995 152.131 227.306 152.353 223.595C152.613 219.171 152.44 214.732 151.836 210.342" fill="#C6D2C4"/>
<path d="M152.031 206.313C148.741 217.178 150.614 228.92 148.853 240.136C148.448 242.729 147.87 245.502 148.969 247.884C150.642 247.76 152.305 248.237 153.658 249.23C155.014 247.733 153.863 245.416 153.041 243.568C151.659 240.451 151.398 236.951 151.475 233.541C151.668 224.739 153.944 216.034 153.584 207.238C153.558 206.596 153.49 205.914 153.034 205.48C152.578 205.047 151.617 205.178 151.546 205.802" fill="#C6D2C4"/>
<path d="M247.378 150.75C246.733 150.393 246.002 150.22 245.266 150.249C244.529 150.279 243.815 150.51 243.2 150.917C242.668 151.279 242.299 151.836 242.173 152.468C242.048 153.1 242.175 153.756 242.529 154.295C243.204 155.259 244.569 155.856 245.035 156.901C245.971 159.012 242.847 160.651 241.118 162.393C240.972 162.509 240.851 162.655 240.765 162.822C240.679 162.988 240.628 163.17 240.617 163.357C240.661 163.612 240.772 163.852 240.938 164.051L247.481 173.271C249.55 176.185 251.761 179.219 255.28 180.964C257.684 182.156 260.509 182.638 263.298 182.892C267.412 183.284 271.866 183.169 275.275 181.247C276.689 180.45 277.942 179.126 277.576 177.754C277.19 176.295 275.217 175.543 273.443 175.199C271.67 174.855 269.687 174.63 268.478 173.508C266.92 172.046 267.37 169.678 265.978 168.071C265.336 167.332 264.371 166.84 263.488 166.304C261.418 165.072 259.62 163.432 258.205 161.483C256.652 159.298 255.737 156.817 253.94 154.76C252.144 152.704 249.033 151.084 246.067 151.775" fill="#C6D2C4"/>
<path d="M258.864 166.974C257.684 166.958 256.453 166.974 255.396 167.505C254.339 168.035 253.516 169.221 253.789 170.368C254.111 171.653 255.579 172.331 256.039 173.581C256.498 174.831 255.782 176.207 255.075 177.354C249.774 185.947 244.174 194.351 238.274 202.565C236.895 204.493 235.424 206.791 236.124 209.05C236.661 210.782 238.419 211.942 240.215 212.18C242.012 212.417 243.83 211.894 245.482 211.148C246.167 210.827 246.886 210.438 247.176 209.747C247.982 207.819 245.019 206.434 244.489 204.419C244.184 203.259 244.746 202.07 245.289 201.003C249.647 192.484 254.352 183.569 262.398 178.395C263.024 178.052 263.587 177.606 264.063 177.075C265.249 175.555 264.625 173.353 263.835 171.611C263.269 170.352 262.598 169.07 261.473 168.269C260.348 167.469 258.645 167.305 257.658 168.269" fill="#C6D2C4"/>
<path d="M265.712 175.186C264.799 175.292 263.848 175.43 263.086 175.944C262.325 176.458 261.801 177.461 262.138 178.319C262.511 179.283 263.719 179.656 264.198 180.568C264.677 181.481 264.263 182.625 263.832 183.583C260.595 190.766 257.109 197.829 253.375 204.773C252.501 206.38 251.598 208.308 252.366 210.001C252.954 211.287 254.429 212.004 255.843 212.01C257.257 212.016 258.61 211.425 259.812 210.68C260.31 210.358 260.824 209.992 260.978 209.429C261.409 207.861 258.976 207.084 258.366 205.573C258.015 204.709 258.327 203.732 258.642 202.851C261.152 195.83 263.893 188.464 269.594 183.657C270.042 183.327 270.432 182.925 270.748 182.468C271.509 181.182 270.809 179.534 270.021 178.258C269.456 177.339 268.807 176.416 267.859 175.912C266.911 175.407 265.577 175.462 264.912 176.307" fill="#C6D2C4"/>
<path d="M252.32 207.791C251.854 210.362 251.437 213.18 252.809 215.388C253.383 216.221 254.075 216.967 254.862 217.602C261.718 223.678 268.707 229.587 275.831 235.331C278.113 237.169 280.529 239.155 281.416 241.951C282.29 242.533 283.463 241.578 283.704 240.556C283.945 239.535 283.682 238.448 283.907 237.423C284.09 236.601 284.549 235.691 284.096 234.994C283.746 234.473 283.045 234.351 282.438 234.203C280.295 233.625 278.71 231.867 277.254 230.189L266.65 217.978C265.024 216.104 263.298 213.967 263.398 211.49C263.433 210.606 263.69 209.648 263.234 208.89C262.52 207.698 260.766 207.958 259.429 207.579C257.983 207.171 256.916 205.908 255.492 205.422C254.069 204.937 251.957 206.107 252.6 207.473" fill="#C6D2C4"/>
<path d="M241.886 206.724C240.6 208.591 239.231 210.696 239.524 212.955C239.68 213.826 239.962 214.67 240.359 215.461C243.614 222.782 247.041 230.02 250.643 237.175C251.796 239.467 253.002 241.925 252.696 244.473C253.185 245.251 254.464 244.917 255.026 244.191C255.588 243.464 255.772 242.5 256.312 241.764C256.755 241.18 257.459 240.624 257.34 239.901C257.253 239.357 256.729 239.02 256.308 238.67C254.808 237.433 254.181 235.456 253.628 233.596C252.285 229.067 250.941 224.54 249.595 220.015C248.978 217.933 248.377 215.606 249.354 213.668C249.701 212.977 250.251 212.306 250.164 211.538C250.026 210.329 248.535 209.899 247.593 209.118C246.587 208.266 246.195 206.868 245.238 205.972C244.28 205.075 242.185 205.245 242.194 206.56" fill="#C6D2C4"/>
<path d="M241.895 260.299C239.826 260.424 239.62 260.177 237.84 261.244C235.547 262.615 233.258 263.992 230.972 265.373C230.863 265.441 230.744 265.518 230.715 265.643C230.654 265.897 230.992 266.045 231.252 266.077C233.283 266.331 235.333 266.006 237.358 265.682L239.251 265.361L243.91 264.612C245.045 264.425 246.449 263.969 246.552 262.825C246.552 262.301 246.379 261.792 246.06 261.376C245.588 260.643 245 259.933 244.187 259.618C243.374 259.303 242.303 259.518 241.895 260.299Z" fill="#C6D2C4"/>
<path d="M280.658 241.963C280.915 240.803 281.14 240.781 281.394 239.617C281.44 239.239 281.599 238.883 281.851 238.595C282.365 238.126 283.245 238.399 283.676 238.946C284.319 239.749 284.245 240.9 283.962 241.883C283.679 242.866 283.207 243.811 283.11 244.82C282.972 246.27 283.608 247.741 283.3 249.165C283.03 250.399 282.105 251.366 281.497 252.472C280.26 254.744 280.427 257.504 279.685 259.982C279.502 260.589 279.177 261.267 278.557 261.402C278.158 261.492 277.712 261.335 277.348 261.524C276.85 261.788 276.706 262.617 276.134 262.62C275.491 262.62 275.491 261.656 275.674 261.068C277.771 254.821 279.436 248.438 280.658 241.963Z" fill="#C6D2C4"/>
<path d="M255.29 242.992C255.968 241.791 256.254 241.871 256.974 240.692C257.162 240.287 257.471 239.95 257.858 239.727C258.597 239.406 259.464 240.049 259.728 240.794C260.12 241.913 259.622 243.15 258.944 244.124C258.266 245.097 257.398 245.949 256.913 247.016C256.219 248.555 256.367 250.409 255.496 251.855C254.74 253.109 253.362 253.822 252.282 254.812C250.078 256.84 249.226 259.931 247.487 262.374C247.06 262.971 246.453 263.588 245.72 263.511C245.251 263.463 244.817 263.122 244.348 263.19C243.705 263.289 243.223 264.154 242.603 263.935C241.905 263.701 242.236 262.65 242.683 262.062C247.314 255.999 251.526 249.628 255.29 242.992Z" fill="#C6D2C4"/>
<path d="M273.777 260.043C272.794 259.217 271.28 259.503 270.149 260.113C269.018 260.724 268.018 261.617 266.781 261.964C265.422 262.344 263.805 262.061 262.719 262.964C262.621 263.032 262.539 263.122 262.479 263.226C262.419 263.329 262.382 263.445 262.372 263.565C262.372 263.886 262.693 264.114 262.963 264.285C263.96 264.898 265.078 265.538 266.232 265.339C267.131 265.184 267.861 264.548 268.664 264.114C271.325 262.678 274.571 263.52 277.511 264.214C278.114 264.403 278.753 264.444 279.375 264.333C279.982 264.175 280.538 263.629 280.484 263.002C280.413 262.196 279.488 261.797 278.7 261.608C276.486 261.068 276.046 259.978 273.777 260.043Z" fill="#C6D2C4"/>
<path d="M132.113 168.07C131.296 167.72 130.381 167.672 129.532 167.936C128.683 168.199 127.956 168.757 127.482 169.509C127.008 170.26 126.817 171.157 126.944 172.036C127.071 172.916 127.508 173.722 128.176 174.308C128.557 174.583 128.911 174.892 129.237 175.23C129.671 175.773 129.777 176.516 129.88 177.187C130.638 181.726 132.424 186.032 135.102 189.775C136.741 192.063 138.704 194.126 140.121 196.559C141.538 198.991 142.371 201.964 141.497 204.638C141.246 205.409 140.854 206.161 140.854 206.971C140.889 208.864 143.724 209.927 144.996 208.523C145.401 206.961 143.476 204.988 144.675 203.934C144.968 203.734 145.279 203.562 145.604 203.42C146.76 202.729 146.828 200.99 146.176 199.811C145.523 198.632 144.373 197.831 143.389 196.919C140.134 193.875 138.585 189.412 137.868 185.028C137.152 180.645 137.142 176.14 136.368 171.753C136.133 170.436 135.796 169.057 134.87 168.093C133.945 167.129 132.248 166.782 131.274 167.701" fill="#C6D2C4"/>
<path d="M141.398 205.241C141.035 204.396 139.595 204.791 139.299 205.665C139.004 206.54 139.409 207.475 139.736 208.336C141.616 213.282 141.022 218.803 140.013 223.996C139.325 227.531 138.448 231.066 138.673 234.655C138.859 237.647 139.807 240.536 140.745 243.383C140.836 243.756 141.017 244.1 141.272 244.386C141.999 245.067 143.3 244.476 143.673 243.55C144.046 242.625 143.802 241.58 143.58 240.61C141.975 233.621 141.727 226.389 142.85 219.307C143.728 213.799 145.421 208.133 143.927 202.76C143.61 202.719 143.29 202.802 143.032 202.991C142.775 203.18 142.6 203.461 142.545 203.776" fill="#C6D2C4"/>
<path d="M148.323 197.484C147.76 196.562 146.173 196.919 145.704 197.893C145.235 198.866 145.588 200.039 146.134 200.971C146.681 201.903 147.42 202.735 147.786 203.751C148.464 205.628 147.757 207.688 147.143 209.59C144.921 216.553 144.006 223.867 144.444 231.163C144.666 234.775 145.19 238.554 143.766 241.886C143.332 242.896 142.718 244.027 143.184 245.02C143.901 246.549 146.478 245.913 147.15 244.377C147.821 242.841 147.282 241.057 146.861 239.422C145.789 235.124 145.502 230.668 146.012 226.268C146.935 217.849 150.38 209.95 152.713 201.807C153.079 200.521 153.336 198.937 152.343 198.05C151.745 197.517 150.878 197.439 150.077 197.388L147.185 197.202" fill="#C6D2C4"/>
<path d="M140.893 242.88C139.98 243.889 139.848 245.361 139.765 246.736L139.08 257.663C139.058 258.068 139.051 258.527 139.344 258.803C139.71 259.151 140.353 258.983 140.674 258.598C140.96 258.18 141.126 257.692 141.156 257.187L142.397 248.902C142.602 247.546 142.805 246.19 142.988 244.831C143.068 244.243 143.133 243.6 142.811 243.102C142.49 242.604 141.625 242.459 141.349 242.98" fill="#C6D2C4"/>
<path d="M143.608 244.116C141.812 248.474 141.944 252.224 141.973 257.183C141.973 257.826 142.088 258.655 142.596 258.88C143.104 259.105 143.599 258.539 143.862 257.973C144.505 256.556 144.695 254.876 144.862 253.24C145.076 251.153 145.29 249.069 145.504 246.986C145.585 246.167 145.659 245.28 145.312 244.55C144.965 243.821 144.026 243.471 143.618 244.116" fill="#C6D2C4"/>
<path d="M151.626 245.517C149.829 249.874 149.964 253.625 149.993 258.583C149.993 259.226 150.106 260.055 150.616 260.28C151.127 260.505 151.619 259.939 151.879 259.374C152.522 257.957 152.715 256.276 152.879 254.637C153.093 252.555 153.307 250.471 153.522 248.387C153.605 247.567 153.676 246.68 153.329 245.951C152.982 245.221 152.043 244.871 151.635 245.517" fill="#C6D2C4"/>
<path d="M139.167 257.016C137.152 257.042 135.164 257.484 133.328 258.313C131.491 259.142 129.846 260.342 128.495 261.837C128.119 262.258 127.833 263.035 128.344 263.27C128.533 263.33 128.736 263.33 128.925 263.27C131.528 262.708 134.167 262.136 136.548 260.94C137.464 260.48 138.334 259.932 139.144 259.304C139.528 259.048 139.839 258.699 140.051 258.289C140.15 258.081 140.178 257.847 140.132 257.622C140.085 257.397 139.966 257.193 139.793 257.042C139.421 256.779 138.765 257.023 138.768 257.479" fill="#C6D2C4"/>
<path d="M138.89 258.604C136.493 260.432 133.517 264.504 134.822 265.012C136.04 265.523 137.367 264.649 138.389 263.813C139.996 262.528 141.574 261.178 142.785 259.52C143.107 259.073 143.412 258.443 143.081 257.996C142.843 257.675 142.39 257.624 141.992 257.637C140.89 257.672 139.818 258.005 138.89 258.601" fill="#C6D2C4"/>
<path d="M148.059 258.267C145.661 260.095 142.685 264.167 143.993 264.675C145.211 265.186 146.535 264.311 147.56 263.479C149.151 262.194 150.742 260.841 151.957 259.183C152.278 258.736 152.583 258.106 152.249 257.659C152.011 257.338 151.561 257.29 151.163 257.303C150.06 257.34 148.988 257.673 148.059 258.267Z" fill="#C6D2C4"/>
<path d="M259.384 150.891C258.503 150.75 257.6 150.891 256.805 151.296C256.01 151.7 255.363 152.346 254.959 153.141C254.772 153.478 254.702 153.868 254.759 154.249C254.907 154.892 255.63 155.268 256.289 155.242C256.947 155.167 257.576 154.93 258.121 154.555C258.786 154.166 259.471 153.726 259.818 153.041C260.165 152.357 260.023 151.36 259.336 151.039C259.08 150.93 258.793 150.919 258.53 151.008C258.267 151.097 258.046 151.28 257.909 151.521" fill="#C6D2C4"/>
<path d="M261.685 151.56C260.996 151.613 260.34 151.878 259.808 152.319C259.276 152.759 258.893 153.354 258.712 154.021C258.659 154.168 258.641 154.326 258.662 154.481C258.683 154.636 258.741 154.784 258.831 154.911C259.008 155.07 259.236 155.16 259.474 155.165C260.273 155.251 261.08 155.124 261.814 154.796C262.548 154.469 263.182 153.953 263.652 153.301C264.066 152.71 264.294 151.83 263.806 151.306C263.593 151.109 263.333 150.971 263.051 150.904C262.294 150.691 261.501 150.643 260.724 150.765C259.948 150.886 259.207 151.174 258.552 151.608" fill="#C6D2C4"/>
<path d="M262.427 154.464C262.427 157.276 265.496 154.441 266.888 155.428C268.173 154.425 267.36 152.034 265.769 151.716C264.179 151.398 262.604 152.847 262.427 154.457" fill="#C6D2C4"/>
<path d="M266.373 154.917C263.073 156.524 266.457 156.704 270.718 156.974C271.502 157.025 274.176 158.221 274.799 157.742C274.799 156.238 273.334 155.21 272.039 154.445C270.149 153.33 267.607 152.256 265.952 153.696" fill="#C6D2C4"/>
<path d="M273.045 157.179C273.784 158.803 274.969 160.185 276.461 161.164C276.737 161.391 277.091 161.5 277.448 161.469C278.325 161.289 278.142 159.981 277.737 159.181C277.332 158.381 276.933 157.616 276.217 157.144C275.5 156.671 274.395 156.671 273.909 157.381" fill="#C6D2C4"/>
<path d="M276.689 160.831C276.72 163.457 277.298 166.048 278.386 168.438C279.228 168.055 280.208 168.3 281.127 168.223C282.046 168.145 283.1 167.397 282.833 166.513C282.445 165.228 280.307 165.935 279.231 165.115C279.001 164.909 278.82 164.656 278.699 164.372C278.579 164.088 278.522 163.781 278.534 163.473C278.511 162.692 278.704 161.834 278.283 161.172C277.862 160.51 276.487 160.693 276.654 161.458" fill="#C6D2C4"/>
<path d="M279.462 168.576C279.175 168.574 278.894 168.658 278.654 168.815C278.414 168.973 278.225 169.198 278.113 169.463L280.417 170.378L280.613 176.221C280.632 176.732 280.668 177.288 281.015 177.664C281.571 178.265 281.551 178.846 282.255 178.428C282.959 178.011 286.047 177.227 285.469 176.59C284.64 174.874 282.127 174.061 282.065 172.046C282.043 171.32 282.181 170.591 282.065 169.871C281.95 169.151 281.506 168.409 280.78 168.283" fill="#C6D2C4"/>
<path d="M282.133 178.301C280.915 177.98 279.517 179.844 280.301 180.647C281.085 181.451 281.185 180.181 281.532 180.528C281.879 180.875 281.956 181.402 282.014 181.891C282.252 183.88 283.213 185.053 282.262 187.277C282.162 187.823 282.583 188.524 284.463 188.096C285.041 187.964 285.565 187.402 285.427 186.811C285.263 186.149 284.399 185.921 284.068 185.323C283.89 184.904 283.85 184.439 283.955 183.996C284.235 181.788 285.755 178.494 284.791 177.373C283.827 176.251 283.586 177.186 283.161 177.591" fill="#C6D2C4"/>
<path d="M283.83 187.694C282.596 187.861 281.343 188.228 282.024 189.365C282.41 189.944 283.046 189.249 283.444 190.034C283.55 191.591 283.413 193.156 283.036 194.671C282.371 194.394 281.619 195.188 281.773 195.889C281.928 196.589 282.708 197.02 283.425 196.988C284.14 196.905 284.813 196.605 285.353 196.13C284.533 193.819 284.548 191.294 285.395 188.992C285.514 188.671 285.649 188.305 285.488 188.003C285.327 187.701 284.624 187.553 283.82 187.681" fill="#C6D2C4"/>
<path d="M283.415 196.813C282.712 196.931 281.882 197.378 281.844 198.082C281.805 198.786 282.21 199.425 282.532 200.055C283.33 201.619 283.665 203.378 283.496 205.126L285.556 204.339C285.556 202.61 283.785 200.926 284.591 199.39C285.045 198.509 286.285 197.741 285.809 196.874C285.453 196.231 284.788 196.482 283.444 196.813" fill="#C6D2C4"/>
<path d="M283.826 204.385C283.349 204.348 282.875 204.493 282.501 204.791C282.126 205.089 281.879 205.518 281.808 205.992C281.808 206.843 284.279 206.715 284.378 207.974C284.478 209.234 283.758 210.43 283.116 211.5C284.397 211.686 285.704 211.477 286.863 210.899C285.147 209.556 284.976 206.663 286.522 205.13C286.763 204.616 286.201 203.652 283.839 204.398" fill="#C6D2C4"/>
<path d="M284.01 211.685C283.592 211.688 283.179 211.767 282.789 211.916C282.595 211.995 282.426 212.124 282.299 212.29C282.173 212.456 282.093 212.654 282.069 212.861C282.064 212.964 282.081 213.066 282.119 213.162C282.157 213.257 282.215 213.344 282.29 213.415C282.364 213.486 282.453 213.54 282.55 213.574C282.647 213.607 282.75 213.62 282.853 213.61C283.049 213.565 283.219 213.417 283.418 213.42C283.74 213.42 283.92 213.793 283.897 214.105C283.838 214.41 283.763 214.713 283.672 215.011C283.46 216.232 284.842 217.347 284.543 218.546C285.218 218.067 286.111 218.083 286.941 218.115C286.355 217.246 285.997 216.244 285.899 215.201C285.861 215.001 285.864 214.795 285.907 214.597C285.95 214.398 286.033 214.21 286.15 214.044C286.401 213.758 286.793 213.674 287.114 213.443C287.342 213.267 287.498 213.014 287.554 212.732C287.61 212.449 287.561 212.156 287.417 211.907C287.273 211.657 287.043 211.469 286.771 211.376C286.498 211.283 286.201 211.292 285.935 211.402" fill="#C6D2C4"/>
<path d="M285.013 218.677L283.856 219.458C283.695 219.568 283.534 219.706 283.515 219.899C283.496 220.091 283.772 220.287 284.007 220.316C284.242 220.309 284.478 220.333 284.707 220.387C285.209 220.58 285.25 221.255 285.295 221.795C285.382 222.884 285.816 223.909 286.26 224.915C286.42 225.291 286.661 225.728 287.069 225.747C287.242 225.737 287.406 225.667 287.533 225.55C287.661 225.433 287.744 225.276 287.77 225.105C287.816 224.765 287.783 224.42 287.673 224.096L287.201 222.261C287.069 221.737 286.986 221.062 287.436 220.763C287.564 220.692 287.697 220.628 287.834 220.573C288.435 220.271 288.583 219.394 288.226 218.822C288.032 218.546 287.769 218.324 287.464 218.179C287.159 218.034 286.822 217.97 286.484 217.993" fill="#C6D2C4"/>
<path d="M286.773 226.061C286.063 226.188 285.423 226.566 284.97 227.127C285.213 227.288 285.489 227.389 285.778 227.423C286.066 227.457 286.359 227.423 286.632 227.323C286.869 227.233 287.133 227.095 287.361 227.208C287.589 227.32 287.634 227.616 287.682 227.851C287.856 228.815 288.364 229.687 289.116 230.315C289.174 230.37 289.243 230.411 289.318 230.437C289.537 230.492 289.742 230.283 289.8 230.068C289.971 229.46 289.437 228.879 289.376 228.252C289.315 227.626 289.678 227.095 289.611 226.507C289.586 226.292 289.505 226.088 289.374 225.916C289.244 225.743 289.069 225.609 288.869 225.527C288.669 225.445 288.451 225.419 288.237 225.45C288.023 225.482 287.821 225.571 287.654 225.707" fill="#C6D2C4"/>
<path d="M289.392 230.279C288.9 230.456 288.576 231.227 288.193 231.565C288.02 231.722 287.849 231.966 287.962 232.172C288.074 232.378 288.46 232.349 288.711 232.223C288.961 232.098 289.292 231.969 289.488 232.169C289.565 232.261 289.615 232.372 289.633 232.49C289.807 233.084 290.103 233.635 290.504 234.107C290.904 234.58 291.399 234.962 291.956 235.231C292.278 234.611 292.564 233.817 292.133 233.271C291.908 232.985 291.532 232.847 291.304 232.564C290.983 232.182 291.024 231.629 291.127 231.147C291.193 230.939 291.208 230.719 291.172 230.504C291.114 230.34 291.005 230.198 290.861 230.099C290.718 229.999 290.547 229.948 290.372 229.951C290.022 229.967 289.683 230.079 289.392 230.273" fill="#C6D2C4"/>
<path d="M292.114 235.206C291.564 235.286 291.224 235.82 290.954 236.305C290.908 236.371 290.881 236.447 290.874 236.527C290.874 236.739 291.147 236.848 291.352 236.797C291.558 236.745 291.738 236.623 291.944 236.588C292.101 236.578 292.258 236.607 292.401 236.672C292.545 236.737 292.67 236.836 292.766 236.961C292.951 237.215 293.116 237.482 293.261 237.761C293.529 238.195 293.887 238.565 294.311 238.848C294.736 239.13 295.216 239.317 295.72 239.397C295.803 239.418 295.891 239.408 295.967 239.368C296.015 239.324 296.049 239.267 296.063 239.204C296.148 238.922 296.152 238.622 296.075 238.338C295.997 238.054 295.842 237.797 295.626 237.597C295.273 237.276 294.762 237.102 294.576 236.665C294.408 236.283 294.576 235.839 294.518 235.421C294.493 235.201 294.411 234.992 294.279 234.814C294.148 234.636 293.971 234.496 293.768 234.407C293.565 234.319 293.343 234.286 293.123 234.311C292.903 234.336 292.693 234.419 292.516 234.551" fill="#C6D2C4"/>
<path d="M296.106 239.296C295.731 239.751 295.461 240.282 295.312 240.852C295.219 241.221 295.293 241.758 295.672 241.777C296.051 241.796 296.224 241.25 296.594 241.173C296.71 241.163 296.827 241.185 296.932 241.237C297.037 241.288 297.125 241.367 297.189 241.465C297.323 241.652 297.401 241.877 297.51 242.076C297.822 242.495 298.237 242.827 298.715 243.04C299.318 243.407 299.966 243.694 300.643 243.895C300.696 243.915 300.753 243.922 300.809 243.916C300.865 243.909 300.918 243.889 300.964 243.856C301.007 243.801 301.032 243.736 301.038 243.667L301.305 242.079C301.343 241.941 301.334 241.794 301.279 241.661C301.206 241.557 301.103 241.476 300.984 241.43L297.359 239.618C297.506 239.558 297.631 239.456 297.718 239.324C297.805 239.192 297.85 239.037 297.847 238.878C297.835 238.721 297.765 238.574 297.651 238.465C297.538 238.356 297.388 238.293 297.23 238.287C297.153 238.292 297.078 238.313 297.01 238.349C296.942 238.384 296.882 238.434 296.834 238.495C296.787 238.556 296.753 238.626 296.735 238.701C296.717 238.776 296.715 238.854 296.729 238.93" fill="#C6D2C4"/>
<path d="M301.568 242.529L301.594 243.458C301.581 243.751 301.634 244.043 301.748 244.313C301.811 244.445 301.915 244.553 302.046 244.619C302.176 244.686 302.325 244.707 302.468 244.679C302.822 244.563 302.571 243.956 302.822 243.68C302.911 243.597 303.023 243.541 303.143 243.519C304.253 243.227 305.4 243.104 306.546 243.156C306.764 243.19 306.988 243.16 307.189 243.069C307.636 242.809 307.51 242.137 307.292 241.662C307.262 241.555 307.193 241.463 307.099 241.405C307.016 241.382 306.928 241.382 306.845 241.405L304.13 241.867C304.07 241.886 304.008 241.892 303.946 241.886C303.884 241.88 303.824 241.862 303.77 241.832C303.631 241.732 303.648 241.511 303.615 241.356C303.551 241.138 303.418 240.945 303.236 240.807C303.055 240.669 302.834 240.593 302.606 240.588C302.381 240.554 302.151 240.607 301.964 240.736C301.875 240.802 301.813 240.898 301.788 241.005C301.763 241.113 301.778 241.226 301.829 241.324" fill="#C6D2C4"/>
<path d="M307.485 242.737C307.464 243.228 307.603 243.713 307.88 244.119C308.028 244.337 308.327 244.54 308.523 244.376C308.719 244.212 308.594 243.865 308.651 243.598C308.738 243.213 309.23 243.075 309.616 243.136C310.001 243.197 310.384 243.38 310.776 243.338C311.115 243.275 311.434 243.126 311.701 242.907C311.974 242.761 312.198 242.538 312.344 242.265C312.527 241.779 312.151 241.22 311.666 241.04C311.163 240.896 310.628 240.919 310.139 241.105C309.654 241.29 309.144 241.406 308.626 241.448C308.553 241.454 308.479 241.44 308.414 241.407C308.285 241.336 308.256 241.169 308.179 241.047C308.113 240.944 308.012 240.87 307.895 240.837C307.778 240.804 307.653 240.815 307.543 240.868C307.434 240.921 307.348 241.012 307.301 241.124C307.254 241.237 307.25 241.362 307.289 241.477" fill="#C6D2C4"/>
<path d="M312.003 241.047C311.808 240.935 311.646 240.773 311.533 240.577C311.42 240.382 311.361 240.161 311.361 239.935C311.358 239.839 311.382 239.745 311.431 239.662C311.566 239.463 311.884 239.505 312.074 239.662C312.264 239.82 312.395 240.025 312.582 240.18C312.668 240.261 312.78 240.308 312.899 240.313C313.017 240.317 313.133 240.277 313.224 240.202C313.296 240.088 313.333 239.955 313.331 239.82C313.419 239.136 313.597 238.467 313.861 237.831C313.907 237.664 313.988 237.51 314.099 237.377C314.215 237.268 314.362 237.195 314.52 237.169C314.77 237.13 315.025 237.171 315.251 237.286C315.476 237.402 315.658 237.586 315.773 237.811C315.88 238.04 315.92 238.295 315.889 238.545C315.858 238.796 315.756 239.033 315.596 239.228C315.111 239.823 314.127 240.061 314.012 240.835C313.957 241.192 314.131 241.558 314.05 241.909C314.015 242.066 313.93 242.209 313.808 242.315C313.687 242.422 313.535 242.487 313.374 242.501C313.213 242.516 313.051 242.479 312.912 242.397C312.774 242.314 312.665 242.189 312.601 242.04" fill="#C6D2C4"/>
<path d="M314.439 237.307C314.282 237.4 314.083 237.213 314.083 237.03C314.107 236.845 314.178 236.67 314.288 236.519C314.738 235.658 314.417 234.617 314.372 233.643C314.352 233.261 314.436 232.792 314.796 232.653C314.957 232.618 315.125 232.629 315.28 232.686C315.435 232.743 315.57 232.843 315.67 232.975C316.592 233.939 316.448 235.597 315.693 236.712" fill="#C6D2C4"/>
<path d="M314.4 232.585C314.053 231.753 313.909 230.85 313.979 229.95C313.981 229.838 314.008 229.728 314.06 229.629C314.269 229.282 314.818 229.475 315.091 229.774C315.446 230.176 315.659 230.684 315.7 231.219C315.741 231.754 315.606 232.288 315.316 232.74" fill="#C6D2C4"/>
<path d="M312.826 225.99C312.55 225.81 312.161 226.09 312.106 226.414C312.089 226.745 312.181 227.073 312.37 227.346C312.794 228.13 313.257 228.953 314.044 229.377C314.102 229.417 314.168 229.444 314.237 229.457C314.306 229.469 314.377 229.467 314.446 229.451C314.715 229.355 314.683 228.963 314.58 228.693C314.218 227.747 313.639 226.9 312.89 226.218" fill="#C6D2C4"/>
<path d="M70.804 129.147L69.2037 133.592L68.9659 136.494L63.6731 142.047L62.9629 144.576L64.4026 148.169L66.5975 150.068L70.3284 157.89L74.2426 161.862L84.7477 165.496L88.5237 160.38L96.1688 157.713L103.579 158.6L108.004 163.067L111.481 167.016L113.535 174.366L119.223 183.794L127.639 198.191L130.487 201.035L134.002 223.28L138.784 242.166L139.295 249.158V251.649L138.109 254.541L132.264 255.978L127.601 258.073L126.219 262.103L127.72 266.319L129.892 267.463L135.937 267.187L137.952 268.054L142.023 268.334L147.474 267.939L151.307 265.528L153.084 256.389L155.732 252.163L155.337 238.216L156.603 222.884L155.099 218.854L157.947 206.132L159.46 196.257L164.82 198.863L173.275 199.258L183.626 200.206L194.533 201.787L202.831 200.206L209.624 199.653L219.741 197.963L223.651 198.31L226.932 204.551L234.121 220.121L240.208 233.158L243.447 242.484L244.395 249.12L241.628 255.364L238.389 259.709L236.335 260.342L233.906 259.146L231.358 259.117L227.594 261.338L226.467 264.005L227.948 266.168L230.586 266.782L232.344 267.691L239.298 267.887L243.762 267.296L247.239 265.953L252.14 260.975L258.776 251.492L262.018 245.643L263.677 244.222L264.625 240.585L261.543 233.63L259.804 225.889L261.462 212.533L267.745 197.716L273.317 183.794L274.975 174.366L276.518 173.299L278.652 176.024L279.719 188.235V205.778L281.258 222.846L286.593 235.53L293.232 242.995L301.291 246.909L307.217 247.028L314.123 244.894L318.397 241.337L320.808 236.359L321.479 230.828L319.664 226.046L315.277 223.003L311.167 222.254L309.152 223.794L309.313 227.47L311.957 230.668L312.748 233.63L311.761 236.912L308.284 239.007L302.516 238.846L297.776 235.964L293.585 228.852L291.037 218.459L290.799 203.05L290.78 188.274L289.359 175.314L286.435 165.12L280.744 156.585L270.313 149.396L253.464 143.429L230.23 140.17L199.116 138.746L171.437 136.85L157.333 134.244L145.478 128.611L126.515 121.618L108.082 115.988L96.1688 113.677L91.3709 113.086L86.9844 114.686L84.0215 115.22L80.6408 114.567L78.8058 115.278L78.2113 116.521L78.6869 118.359L78.0924 120.374L73.8858 124.819L70.804 129.147Z" stroke="#688C61" stroke-width="2" stroke-linecap="round" stroke-linejoin="round"/>
<path d="M151.903 262.466L155.251 260.281L157.787 253.15L159.676 248.468L159.281 234.521L161.54 219.883L160.949 215.378L164.821 198.863" stroke="#688C61" stroke-width="2" stroke-linecap="round" stroke-linejoin="round"/>
<path d="M261.132 231.795L262.925 236.75L267.235 241.217L271.737 248.252L272.608 253.956L271.599 258.892L270.156 259.335L267.726 258.14L265.178 258.111L261.415 260.331L260.29 262.999L261.772 265.162L264.407 265.775L266.164 266.685L273.119 266.881L277.586 266.289L281.063 264.946L283.894 259.968L286.278 249.868L288.57 243.704L289.816 239.154" stroke="#688C61" stroke-width="2" stroke-linecap="round" stroke-linejoin="round"/>
<path d="M78.0928 120.375L81.888 116.68L84.0218 115.221" stroke="#688C61" stroke-width="2" stroke-linecap="round" stroke-linejoin="round"/>
<path d="M66.5977 150.068L68.6126 147.42V144.576L65.8071 146.749L66.5977 150.068Z" stroke="#688C61" stroke-width="2" stroke-linecap="round" stroke-linejoin="round"/>
<path d="M66.749 150.383L69.5223 155.165H71.4955L76.3158 153.584L80.5835 150.383L84.5362 149.316" stroke="#688C61" stroke-width="2" stroke-linecap="round" stroke-linejoin="round"/>
<path d="M96.1695 157.712L98.3033 154.807L103.738 152.239L108.082 147.972V139.279L104.843 131.772L102.671 129.124L102.947 124.423L99.3895 117.796L94.2928 113.834L91.2913 114.348L88.8426 116.325L87.4575 121.46" stroke="#688C61" stroke-width="2" stroke-linecap="round" stroke-linejoin="round"/>
<path d="M75.0723 138.274L74.6577 135.607L77.7395 132.525H78.6265L78.093 133.769L75.0723 138.274Z" stroke="#688C61" stroke-width="2" stroke-linecap="round" stroke-linejoin="round"/>
<path d="M159.461 196.257L160.949 189.537L158.577 174.957" stroke="#688C61" stroke-width="2" stroke-linecap="round" stroke-linejoin="round"/>
<path d="M127.721 266.318L136.057 264.987L126.22 262.101L153.086 256.388L138.11 254.54L155.734 252.162L138.785 242.164L155.338 238.215L143.326 229.522L156.605 222.883L134.003 223.278L155.101 218.853L130.488 201.034L160.949 189.535L113.536 174.364L143.487 152.239L111.483 167.015L136.214 139.754L108.083 139.278V115.986L87.458 121.459L78.6271 132.523L70.8052 129.146L74.6583 135.605L68.967 136.492L78.0936 143.466L76.3165 153.582L66.5986 150.066" stroke="#688C61" stroke-linecap="round" stroke-linejoin="round"/>
<path d="M78.0928 120.374L87.4571 121.461L84.0218 115.22L88.8422 116.325L91.3713 113.086L91.2909 114.349" stroke="#688C61" stroke-linecap="round" stroke-linejoin="round"/>
<path d="M98.3037 154.808L136.214 139.756L103.58 158.6L119.925 157.713L119.256 163.427L113.536 174.366L138.518 169.128L155.149 177.152L154.644 187.519L144.245 195.842" stroke="#688C61" stroke-linecap="round" stroke-linejoin="round"/>
<path d="M108.083 115.986L136.214 139.754L145.479 128.609L143.487 152.239L157.334 134.243L167.232 176.26L187.381 145.442L201.961 183.793L227.563 149.89L231.712 186.573L261.463 212.532L251.032 165.475L273.318 183.793L253.465 143.427L274.976 174.364L272.923 158.007L276.519 173.297L281.854 166.382L278.691 176.475L284.54 174.997L279.363 184.172L285.646 184.4L279.72 188.51L290.797 198.861L279.761 206.256L291.038 218.458L281.259 222.844L293.493 228.468L286.594 235.528L297.777 235.962L293.233 242.993L302.517 238.845L301.292 246.907L308.285 239.005L314.124 244.893L311.762 236.91L318.398 241.335L313.067 233.314L319.665 226.045L309.153 223.792" stroke="#688C61" stroke-linecap="round" stroke-linejoin="round"/>
<path d="M227.595 261.338L232.345 267.691L236.336 260.342L243.763 267.296L241.629 255.364L249.136 258.703L244.396 249.12L257.434 243.352L240.209 233.158L255.123 226.223L261.463 212.533L241.947 217.987L223.652 198.31L231.712 186.574L219.741 197.963L201.961 183.794L194.534 201.787L167.232 176.262L160.949 189.537L164.821 198.863L157.658 207.417L160.949 215.377L155.1 218.854L160.949 223.72L155.782 232.84L159.294 235.051L155.492 243.586L159.677 248.468L155.733 252.163L155.251 260.281L153.085 256.389" stroke="#688C61" stroke-linecap="round" stroke-linejoin="round"/>
<path d="M157.333 134.244L187.38 145.443L194.267 138.415L227.563 149.891L253.464 143.429L272.923 158.009L280.745 156.585L281.853 166.383L286.436 165.12L284.54 174.999L289.816 179.491L285.645 184.402L290.797 198.863L286.452 213.494L281.259 222.846L290.032 223.241L293.493 228.469L293.702 235.806L293.232 242.995L301.983 242.368L303.943 243.914L307.218 247.028L311.55 242.297L312.414 239.122L313.857 238.309L314.224 235.061L320.808 236.359L316.888 229.106L311.958 230.668L311.524 224.301L315.278 223.003" stroke="#688C61" stroke-linecap="round" stroke-linejoin="round"/>
<path d="M251.031 165.478L253.464 143.43L227.563 149.892L251.031 165.478ZM251.031 165.478L231.711 186.575L201.96 183.795L167.231 176.263L164.821 198.864L183.707 191.669L196.985 195.843L202.831 200.207L212.218 191.971" stroke="#688C61" stroke-linecap="round" stroke-linejoin="round"/>
<path d="M261.415 260.332L265.898 262.295L266.165 266.685L275.053 261.855L272.608 253.956L277.348 256.784L283.894 259.969L286.198 249.338L281.146 243.518L283.994 239.575L278.296 231.795L281.259 222.845L276.242 219.487L279.928 208.117L277.358 194.89L270.905 189.823L275.748 187.653L278.691 176.477" stroke="#688C61" stroke-linecap="round" stroke-linejoin="round"/>
<path d="M261.772 265.163L270.156 259.337L281.063 264.947L277.348 256.785L286.198 249.339L271.737 248.253L289.817 239.155L266.843 240.813L278.296 231.796L259.805 225.89L276.243 219.488L261.463 212.534L279.929 208.118L267.261 198.863L279.72 193.963L273.318 183.795L257.961 196.717L248.413 201.145L241.947 217.987" stroke="#688C61" stroke-linecap="round" stroke-linejoin="round"/>
<path d="M248.413 201.144L251.032 165.477L241.947 146.301L230.23 140.17L227.563 149.891L187.38 145.443L163.838 161.862L143.486 152.24L160.949 189.537L143.759 210.644L150.125 219.899L149.727 223.006L135.465 229.058L143.325 229.523L138.785 242.166L155.492 243.586L149.669 248.586L139.295 251.334L138.11 254.541L132.264 255.978L138.569 259.477L147.474 267.939" stroke="#688C61" stroke-linecap="round" stroke-linejoin="round"/>
<path d="M272.923 158.008L269.433 166.392L265.882 168.677L251.032 165.476L230.401 174.956L201.961 183.794L174.333 165.399L163.838 161.861L155.148 177.151L134.957 181.219L127.64 198.19L144.245 195.841" stroke="#688C61" stroke-linecap="round" stroke-linejoin="round"/>
<path d="M70.3291 157.89L71.4956 155.165L74.2432 161.862L76.316 153.584L88.5244 160.38L84.5363 149.316L98.3033 154.808L88.6433 146.944L108.082 147.973L100.733 144.576L104.843 131.773L90.3818 143.467L99.6241 118.234L78.0931 143.467L88.6433 146.944" stroke="#688C61" stroke-linecap="round" stroke-linejoin="round"/>
<path d="M68.9663 136.494L68.6128 144.576L78.0928 143.468L75.0721 138.274L81.8849 139.023L78.6263 132.525L90.3816 143.468L89.6457 129.929L87.4572 121.461" stroke="#688C61" stroke-linecap="round" stroke-linejoin="round"/>
<path d="M230.4 174.958L210.894 171.969L187.38 145.444L161 149.811L150.263 143.429L145.478 128.611L125.352 130.578L108.082 139.28L100.733 144.576L88.6431 146.945L90.3816 143.468L102.67 129.126L104.843 131.773" stroke="#688C61" stroke-linecap="round" stroke-linejoin="round"/>
<path d="M231.711 186.574L231.358 206.598L240.208 233.158L241.947 217.987L255.122 226.223L264.625 240.585L257.433 243.352L262.019 245.643L249.135 258.703L247.239 265.953L238.389 259.709L239.299 267.887L232.344 267.691L231.358 259.118" stroke="#688C61" stroke-linecap="round" stroke-linejoin="round"/>
<path d="M151.308 265.528L138.57 259.477L136.057 264.988L137.953 268.054" stroke="#688C61" stroke-linecap="round" stroke-linejoin="round"/>
<path d="M134.003 223.28L143.76 210.644L144.245 195.842L134.958 181.221L143.487 152.241L136.214 139.756L108.083 147.973" stroke="#688C61" stroke-linecap="round" stroke-linejoin="round"/>
<path d="M74.6577 265.162L126.22 262.102L87.4574 279.044L129.893 267.463L138.801 289.714L227.949 266.168L232.464 281.888L266.164 266.685L271.888 275.908L335.192 267.691L281.063 264.946L317.055 260.766" stroke="#688C61" stroke-linecap="round" stroke-linejoin="round"/>
<path d="M155.251 260.279L226.467 264.004L151.308 265.527L194.514 288.646L239.299 267.886L272.922 289.712L261.771 265.161" stroke="#688C61" stroke-linecap="round" stroke-linejoin="round"/>
<path d="M247.24 265.953L260.29 263L250.058 263.09" stroke="#688C61" stroke-linecap="round" stroke-linejoin="round"/>
<path d="M304.609 283.787L271.888 275.908L232.464 281.888L177.438 279.507L120.57 284.298L109.162 269.558L89.2603 264.294L127.601 258.072" stroke="#688C61" stroke-linecap="round" stroke-linejoin="round"/>
<path d="M283.894 259.969L302.517 262.453" stroke="#688C61" stroke-linecap="round" stroke-linejoin="round"/>
<path d="M109.162 270.289C109.565 270.289 109.892 269.962 109.892 269.56C109.892 269.157 109.565 268.83 109.162 268.83C108.759 268.83 108.433 269.157 108.433 269.56C108.433 269.962 108.759 270.289 109.162 270.289Z" fill="#688C61"/>
<path d="M177.437 280.236C177.84 280.236 178.167 279.91 178.167 279.507C178.167 279.104 177.84 278.777 177.437 278.777C177.035 278.777 176.708 279.104 176.708 279.507C176.708 279.91 177.035 280.236 177.437 280.236Z" fill="#688C61"/>
<path d="M229.746 273.139C230.148 273.139 230.475 272.812 230.475 272.409C230.475 272.006 230.148 271.68 229.746 271.68C229.343 271.68 229.016 272.006 229.016 272.409C229.016 272.812 229.343 273.139 229.746 273.139Z" fill="#688C61"/>
<path d="M271.942 276.699C272.345 276.699 272.672 276.373 272.672 275.97C272.672 275.567 272.345 275.24 271.942 275.24C271.539 275.24 271.213 275.567 271.213 275.97C271.213 276.373 271.539 276.699 271.942 276.699Z" fill="#688C61"/>
<path d="M152.847 126.914L157.333 134.244L168.879 127.28" stroke="#688C61" stroke-linecap="round" stroke-linejoin="round"/>
<path d="M246.726 135.773L253.464 143.64L274.799 139.816" stroke="#688C61" stroke-linecap="round" stroke-linejoin="round"/>
<path d="M294.916 193.229L290.796 198.862L293.959 204.052" stroke="#688C61" stroke-linecap="round" stroke-linejoin="round"/>
<path d="M186.121 205.227L194.534 201.785L200.283 205.227" stroke="#688C61" stroke-linecap="round" stroke-linejoin="round"/>
<path d="M107.382 170.385L113.774 174.145V185.607" stroke="#688C61" stroke-linecap="round" stroke-linejoin="round"/>
<path d="M131.551 235.969L138.801 242.226L136.057 247.978" stroke="#688C61" stroke-linecap="round" stroke-linejoin="round"/>
<path d="M104.753 112.445L108.082 115.987L115.759 113.425" stroke="#688C61" stroke-linecap="round" stroke-linejoin="round"/>
<path d="M151.723 126.914C151.723 127.136 151.789 127.354 151.912 127.539C152.036 127.724 152.211 127.868 152.417 127.953C152.623 128.038 152.849 128.06 153.067 128.017C153.285 127.974 153.485 127.866 153.643 127.709C153.8 127.552 153.907 127.351 153.951 127.133C153.994 126.915 153.972 126.689 153.887 126.483C153.801 126.278 153.657 126.102 153.472 125.979C153.287 125.855 153.07 125.789 152.847 125.789C152.549 125.789 152.263 125.908 152.052 126.119C151.841 126.329 151.723 126.616 151.723 126.914Z" fill="#688C61"/>
<path d="M103.628 112.447C103.628 112.669 103.694 112.887 103.817 113.072C103.941 113.257 104.117 113.401 104.322 113.486C104.528 113.571 104.754 113.594 104.972 113.55C105.19 113.507 105.391 113.4 105.548 113.242C105.705 113.085 105.812 112.885 105.856 112.666C105.899 112.448 105.877 112.222 105.792 112.017C105.707 111.811 105.563 111.635 105.378 111.512C105.193 111.388 104.975 111.322 104.753 111.322C104.454 111.322 104.168 111.441 103.957 111.652C103.746 111.863 103.628 112.149 103.628 112.447Z" fill="#688C61"/>
<path d="M114.634 113.392C114.634 113.615 114.7 113.832 114.824 114.017C114.947 114.202 115.123 114.346 115.329 114.431C115.534 114.517 115.76 114.539 115.978 114.495C116.197 114.452 116.397 114.345 116.554 114.188C116.712 114.03 116.819 113.83 116.862 113.612C116.906 113.394 116.883 113.167 116.798 112.962C116.713 112.756 116.569 112.581 116.384 112.457C116.199 112.334 115.981 112.268 115.759 112.268C115.611 112.267 115.465 112.296 115.328 112.352C115.191 112.409 115.067 112.492 114.963 112.596C114.858 112.701 114.775 112.825 114.719 112.961C114.663 113.098 114.634 113.245 114.634 113.392Z" fill="#688C61"/>
<path d="M105.925 170.385C105.925 170.607 105.991 170.824 106.115 171.009C106.238 171.194 106.414 171.339 106.62 171.424C106.825 171.509 107.051 171.531 107.269 171.488C107.488 171.444 107.688 171.337 107.845 171.18C108.003 171.023 108.11 170.822 108.153 170.604C108.197 170.386 108.174 170.16 108.089 169.954C108.004 169.749 107.86 169.573 107.675 169.449C107.49 169.326 107.273 169.26 107.05 169.26C106.752 169.26 106.466 169.378 106.255 169.589C106.044 169.8 105.925 170.086 105.925 170.385Z" fill="#688C61"/>
<path d="M112.648 185.607C112.648 185.83 112.714 186.047 112.838 186.232C112.962 186.417 113.137 186.561 113.343 186.646C113.548 186.731 113.774 186.754 113.993 186.71C114.211 186.667 114.411 186.56 114.569 186.402C114.726 186.245 114.833 186.045 114.876 185.827C114.92 185.608 114.897 185.382 114.812 185.177C114.727 184.971 114.583 184.796 114.398 184.672C114.213 184.548 113.996 184.482 113.773 184.482C113.475 184.482 113.189 184.601 112.978 184.812C112.767 185.023 112.648 185.309 112.648 185.607Z" fill="#688C61"/>
<path d="M130.426 235.97C130.426 236.193 130.492 236.41 130.616 236.595C130.739 236.78 130.915 236.924 131.121 237.01C131.326 237.095 131.552 237.117 131.77 237.074C131.989 237.03 132.189 236.923 132.346 236.766C132.504 236.608 132.611 236.408 132.654 236.19C132.698 235.972 132.675 235.746 132.59 235.54C132.505 235.335 132.361 235.159 132.176 235.035C131.991 234.912 131.773 234.846 131.551 234.846C131.253 234.846 130.967 234.964 130.756 235.175C130.545 235.386 130.426 235.672 130.426 235.97Z" fill="#688C61"/>
<path d="M134.883 247.978C134.883 248.201 134.949 248.418 135.073 248.603C135.196 248.788 135.372 248.932 135.578 249.017C135.783 249.103 136.009 249.125 136.227 249.081C136.446 249.038 136.646 248.931 136.803 248.774C136.961 248.616 137.068 248.416 137.111 248.198C137.155 247.98 137.132 247.753 137.047 247.548C136.962 247.342 136.818 247.167 136.633 247.043C136.448 246.919 136.231 246.854 136.008 246.854C135.71 246.854 135.424 246.972 135.213 247.183C135.002 247.394 134.883 247.68 134.883 247.978Z" fill="#688C61"/>
<path d="M184.835 205.228C184.835 205.451 184.901 205.668 185.025 205.853C185.148 206.038 185.324 206.182 185.529 206.267C185.735 206.353 185.961 206.375 186.179 206.331C186.397 206.288 186.598 206.181 186.755 206.024C186.912 205.866 187.019 205.666 187.063 205.448C187.106 205.23 187.084 205.003 186.999 204.798C186.914 204.592 186.77 204.417 186.585 204.293C186.4 204.169 186.182 204.104 185.96 204.104C185.661 204.104 185.375 204.222 185.164 204.433C184.953 204.644 184.835 204.93 184.835 205.228Z" fill="#688C61"/>
<path d="M199.158 205.228C199.158 205.451 199.224 205.668 199.348 205.853C199.471 206.038 199.647 206.182 199.853 206.267C200.058 206.353 200.284 206.375 200.502 206.331C200.721 206.288 200.921 206.181 201.078 206.024C201.236 205.866 201.343 205.666 201.386 205.448C201.429 205.23 201.407 205.003 201.322 204.798C201.237 204.592 201.093 204.417 200.908 204.293C200.723 204.169 200.505 204.104 200.283 204.104C199.985 204.104 199.699 204.222 199.488 204.433C199.277 204.644 199.158 204.93 199.158 205.228Z" fill="#688C61"/>
<path d="M245.601 135.775C245.601 135.998 245.667 136.215 245.79 136.4C245.914 136.585 246.089 136.729 246.295 136.814C246.5 136.899 246.727 136.922 246.945 136.878C247.163 136.835 247.363 136.728 247.521 136.57C247.678 136.413 247.785 136.213 247.828 135.995C247.872 135.776 247.85 135.55 247.764 135.345C247.679 135.139 247.535 134.964 247.35 134.84C247.165 134.716 246.948 134.65 246.725 134.65C246.427 134.65 246.141 134.769 245.93 134.98C245.719 135.191 245.601 135.477 245.601 135.775Z" fill="#688C61"/>
<path d="M273.675 139.707C273.675 139.929 273.741 140.147 273.864 140.332C273.988 140.517 274.164 140.661 274.369 140.746C274.575 140.831 274.801 140.853 275.019 140.81C275.237 140.767 275.438 140.659 275.595 140.502C275.752 140.345 275.859 140.144 275.903 139.926C275.946 139.708 275.924 139.482 275.839 139.276C275.754 139.071 275.609 138.895 275.424 138.772C275.239 138.648 275.022 138.582 274.8 138.582C274.501 138.582 274.215 138.701 274.004 138.911C273.793 139.122 273.675 139.408 273.675 139.707Z" fill="#688C61"/>
<path d="M293.792 193.232C293.792 193.455 293.858 193.672 293.982 193.857C294.105 194.042 294.281 194.186 294.486 194.271C294.692 194.356 294.918 194.379 295.136 194.335C295.354 194.292 295.555 194.185 295.712 194.028C295.869 193.87 295.977 193.67 296.02 193.452C296.063 193.233 296.041 193.007 295.956 192.802C295.871 192.596 295.727 192.421 295.542 192.297C295.357 192.173 295.139 192.107 294.917 192.107C294.618 192.107 294.332 192.226 294.121 192.437C293.91 192.648 293.792 192.934 293.792 193.232Z" fill="#688C61"/>
<path d="M292.856 204.062C292.856 204.285 292.922 204.502 293.046 204.687C293.169 204.872 293.345 205.016 293.55 205.101C293.756 205.187 293.982 205.209 294.2 205.165C294.418 205.122 294.619 205.015 294.776 204.858C294.933 204.7 295.04 204.5 295.084 204.282C295.127 204.063 295.105 203.837 295.02 203.632C294.935 203.426 294.791 203.251 294.606 203.127C294.421 203.003 294.203 202.938 293.981 202.938C293.682 202.938 293.396 203.056 293.185 203.267C292.974 203.478 292.856 203.764 292.856 204.062Z" fill="#688C61"/>
<path d="M167.749 127.258C167.749 127.48 167.814 127.697 167.938 127.882C168.062 128.067 168.237 128.212 168.443 128.297C168.648 128.382 168.875 128.404 169.093 128.361C169.311 128.317 169.511 128.21 169.669 128.053C169.826 127.896 169.933 127.695 169.976 127.477C170.02 127.259 169.998 127.033 169.912 126.827C169.827 126.622 169.683 126.446 169.498 126.322C169.313 126.199 169.096 126.133 168.873 126.133C168.575 126.133 168.289 126.251 168.078 126.462C167.867 126.673 167.749 126.959 167.749 127.258Z" fill="#688C61"/>
<path d="M272.922 159.044C273.494 159.044 273.957 158.581 273.957 158.009C273.957 157.438 273.494 156.975 272.922 156.975C272.351 156.975 271.888 157.438 271.888 158.009C271.888 158.581 272.351 159.044 272.922 159.044Z" fill="#688C61"/>
<path d="M194.514 202.628C195.086 202.628 195.549 202.165 195.549 201.593C195.549 201.022 195.086 200.559 194.514 200.559C193.943 200.559 193.479 201.022 193.479 201.593C193.479 202.165 193.943 202.628 194.514 202.628Z" fill="#688C61"/>
<path d="M138.8 243.261C139.372 243.261 139.835 242.798 139.835 242.226C139.835 241.655 139.372 241.191 138.8 241.191C138.229 241.191 137.766 241.655 137.766 242.226C137.766 242.798 138.229 243.261 138.8 243.261Z" fill="#688C61"/>
<path d="M153.085 257.685C153.657 257.685 154.12 257.222 154.12 256.65C154.12 256.079 153.657 255.615 153.085 255.615C152.514 255.615 152.05 256.079 152.05 256.65C152.05 257.222 152.514 257.685 153.085 257.685Z" fill="#688C61"/>
<path d="M138.8 260.767C139.372 260.767 139.835 260.304 139.835 259.732C139.835 259.161 139.372 258.697 138.8 258.697C138.229 258.697 137.766 259.161 137.766 259.732C137.766 260.304 138.229 260.767 138.8 260.767Z" fill="#688C61"/>
<path d="M255.12 227.232C255.691 227.232 256.155 226.768 256.155 226.197C256.155 225.625 255.691 225.162 255.12 225.162C254.548 225.162 254.085 225.625 254.085 226.197C254.085 226.768 254.548 227.232 255.12 227.232Z" fill="#688C61"/>
<path d="M241.947 218.872C242.518 218.872 242.982 218.409 242.982 217.837C242.982 217.266 242.518 216.803 241.947 216.803C241.375 216.803 240.912 217.266 240.912 217.837C240.912 218.409 241.375 218.872 241.947 218.872Z" fill="#688C61"/>
<path d="M231.358 207.671C231.93 207.671 232.393 207.208 232.393 206.636C232.393 206.065 231.93 205.602 231.358 205.602C230.787 205.602 230.323 206.065 230.323 206.636C230.323 207.208 230.787 207.671 231.358 207.671Z" fill="#688C61"/>
<path d="M231.432 187.677C232.004 187.677 232.467 187.214 232.467 186.642C232.467 186.071 232.004 185.607 231.432 185.607C230.861 185.607 230.397 186.071 230.397 186.642C230.397 187.214 230.861 187.677 231.432 187.677Z" fill="#688C61"/>
<path d="M257.186 244.296C257.757 244.296 258.22 243.833 258.22 243.261C258.22 242.69 257.757 242.227 257.186 242.227C256.614 242.227 256.151 242.69 256.151 243.261C256.151 243.833 256.614 244.296 257.186 244.296Z" fill="#688C61"/>
<path d="M249.026 259.583C249.598 259.583 250.061 259.12 250.061 258.548C250.061 257.977 249.598 257.514 249.026 257.514C248.455 257.514 247.992 257.977 247.992 258.548C247.992 259.12 248.455 259.583 249.026 259.583Z" fill="#688C61"/>
<path d="M242.978 263.999C243.55 263.999 244.013 263.536 244.013 262.964C244.013 262.393 243.55 261.93 242.978 261.93C242.407 261.93 241.943 262.393 241.943 262.964C241.943 263.536 242.407 263.999 242.978 263.999Z" fill="#688C61"/>
<path d="M265.882 263.488C266.454 263.488 266.917 263.024 266.917 262.453C266.917 261.881 266.454 261.418 265.882 261.418C265.311 261.418 264.848 261.881 264.848 262.453C264.848 263.024 265.311 263.488 265.882 263.488Z" fill="#688C61"/>
<path d="M277.662 257.915C278.234 257.915 278.697 257.452 278.697 256.88C278.697 256.309 278.234 255.846 277.662 255.846C277.091 255.846 276.627 256.309 276.627 256.88C276.627 257.452 277.091 257.915 277.662 257.915Z" fill="#688C61"/>
<path d="M281.339 244.609C281.91 244.609 282.374 244.145 282.374 243.574C282.374 243.002 281.91 242.539 281.339 242.539C280.767 242.539 280.304 243.002 280.304 243.574C280.304 244.145 280.767 244.609 281.339 244.609Z" fill="#688C61"/>
<path d="M293.406 229.437C293.977 229.437 294.441 228.973 294.441 228.402C294.441 227.83 293.977 227.367 293.406 227.367C292.834 227.367 292.371 227.83 292.371 228.402C292.371 228.973 292.834 229.437 293.406 229.437Z" fill="#688C61"/>
<path d="M301.88 243.577C302.452 243.577 302.915 243.114 302.915 242.543C302.915 241.971 302.452 241.508 301.88 241.508C301.309 241.508 300.846 241.971 300.846 242.543C300.846 243.114 301.309 243.577 301.88 243.577Z" fill="#688C61"/>
<path d="M311.897 238.181C312.468 238.181 312.931 237.718 312.931 237.146C312.931 236.575 312.468 236.111 311.897 236.111C311.325 236.111 310.862 236.575 310.862 237.146C310.862 237.718 311.325 238.181 311.897 238.181Z" fill="#688C61"/>
<path d="M311.508 225.513C312.079 225.513 312.543 225.05 312.543 224.478C312.543 223.907 312.079 223.443 311.508 223.443C310.936 223.443 310.473 223.907 310.473 224.478C310.473 225.05 310.936 225.513 311.508 225.513Z" fill="#688C61"/>
<path d="M286.436 214.489C287.007 214.489 287.47 214.026 287.47 213.455C287.47 212.883 287.007 212.42 286.436 212.42C285.864 212.42 285.401 212.883 285.401 213.455C285.401 214.026 285.864 214.489 286.436 214.489Z" fill="#688C61"/>
<path d="M285.668 185.568C286.24 185.568 286.703 185.104 286.703 184.533C286.703 183.961 286.24 183.498 285.668 183.498C285.097 183.498 284.633 183.961 284.633 184.533C284.633 185.104 285.097 185.568 285.668 185.568Z" fill="#688C61"/>
<path d="M281.885 167.552C282.457 167.552 282.92 167.089 282.92 166.517C282.92 165.946 282.457 165.482 281.885 165.482C281.314 165.482 280.851 165.946 280.851 166.517C280.851 167.089 281.314 167.552 281.885 167.552Z" fill="#688C61"/>
<path d="M276.088 220.538C276.659 220.538 277.123 220.075 277.123 219.504C277.123 218.932 276.659 218.469 276.088 218.469C275.517 218.469 275.053 218.932 275.053 219.504C275.053 220.075 275.517 220.538 276.088 220.538Z" fill="#688C61"/>
<path d="M108.082 117.023C108.654 117.023 109.117 116.559 109.117 115.988C109.117 115.416 108.654 114.953 108.082 114.953C107.511 114.953 107.047 115.416 107.047 115.988C107.047 116.559 107.511 117.023 108.082 117.023Z" fill="#688C61"/>
<path d="M99.3385 119.269C99.91 119.269 100.373 118.805 100.373 118.234C100.373 117.663 99.91 117.199 99.3385 117.199C98.767 117.199 98.3037 117.663 98.3037 118.234C98.3037 118.805 98.767 119.269 99.3385 119.269Z" fill="#688C61"/>
<path d="M89.5265 131.238C90.098 131.238 90.5612 130.774 90.5612 130.203C90.5612 129.631 90.098 129.168 89.5265 129.168C88.955 129.168 88.4917 129.631 88.4917 130.203C88.4917 130.774 88.955 131.238 89.5265 131.238Z" fill="#688C61"/>
<path d="M84.0226 116.253C84.5941 116.253 85.0573 115.79 85.0573 115.218C85.0573 114.647 84.5941 114.184 84.0226 114.184C83.4511 114.184 82.9878 114.647 82.9878 115.218C82.9878 115.79 83.4511 116.253 84.0226 116.253Z" fill="#688C61"/>
<path d="M265.882 169.749C266.454 169.749 266.917 169.286 266.917 168.714C266.917 168.143 266.454 167.68 265.882 167.68C265.311 167.68 264.848 168.143 264.848 168.714C264.848 169.286 265.311 169.749 265.882 169.749Z" fill="#688C61"/>
<path d="M113.774 175.177C114.346 175.177 114.809 174.714 114.809 174.142C114.809 173.571 114.346 173.107 113.774 173.107C113.203 173.107 112.739 173.571 112.739 174.142C112.739 174.714 113.203 175.177 113.774 175.177Z" fill="#688C61"/>
<path d="M155.149 219.905C155.72 219.905 156.183 219.442 156.183 218.871C156.183 218.299 155.72 217.836 155.149 217.836C154.577 217.836 154.114 218.299 154.114 218.871C154.114 219.442 154.577 219.905 155.149 219.905Z" fill="#688C61"/>
<path d="M143.811 211.507C144.383 211.507 144.846 211.044 144.846 210.472C144.846 209.901 144.383 209.438 143.811 209.438C143.24 209.438 142.776 209.901 142.776 210.472C142.776 211.044 143.24 211.507 143.811 211.507Z" fill="#688C61"/>
<path d="M164.821 199.798C165.393 199.798 165.856 199.335 165.856 198.763C165.856 198.192 165.393 197.729 164.821 197.729C164.25 197.729 163.787 198.192 163.787 198.763C163.787 199.335 164.25 199.798 164.821 199.798Z" fill="#688C61"/>
<path d="M134.34 224.314C134.912 224.314 135.375 223.85 135.375 223.279C135.375 222.707 134.912 222.244 134.34 222.244C133.769 222.244 133.306 222.707 133.306 223.279C133.306 223.85 133.769 224.314 134.34 224.314Z" fill="#688C61"/>
<path d="M143.21 230.665C143.781 230.665 144.244 230.202 144.244 229.63C144.244 229.059 143.781 228.596 143.21 228.596C142.638 228.596 142.175 229.059 142.175 229.63C142.175 230.202 142.638 230.665 143.21 230.665Z" fill="#688C61"/>
<path d="M210.881 172.853C211.453 172.853 211.916 172.389 211.916 171.818C211.916 171.246 211.453 170.783 210.881 170.783C210.31 170.783 209.847 171.246 209.847 171.818C209.847 172.389 210.31 172.853 210.881 172.853Z" fill="#688C61"/>
<path d="M227.724 151.099C228.295 151.099 228.759 150.636 228.759 150.064C228.759 149.493 228.295 149.029 227.724 149.029C227.152 149.029 226.689 149.493 226.689 150.064C226.689 150.636 227.152 151.099 227.724 151.099Z" fill="#688C61"/>
<path d="M160.949 190.396C161.52 190.396 161.984 189.932 161.984 189.361C161.984 188.789 161.52 188.326 160.949 188.326C160.377 188.326 159.914 188.789 159.914 189.361C159.914 189.932 160.377 190.396 160.949 190.396Z" fill="#688C61"/>
<path d="M127.64 199.226C128.212 199.226 128.675 198.763 128.675 198.191C128.675 197.62 128.212 197.156 127.64 197.156C127.069 197.156 126.605 197.62 126.605 198.191C126.605 198.763 127.069 199.226 127.64 199.226Z" fill="#688C61"/>
<path d="M66.7491 151.103C67.3206 151.103 67.7839 150.639 67.7839 150.068C67.7839 149.496 67.3206 149.033 66.7491 149.033C66.1776 149.033 65.7144 149.496 65.7144 150.068C65.7144 150.639 66.1776 151.103 66.7491 151.103Z" fill="#688C61"/>
<path d="M88.4923 161.341C89.0638 161.341 89.5271 160.878 89.5271 160.306C89.5271 159.735 89.0638 159.271 88.4923 159.271C87.9208 159.271 87.4575 159.735 87.4575 160.306C87.4575 160.878 87.9208 161.341 88.4923 161.341Z" fill="#688C61"/>
<path d="M119.644 159.044C120.216 159.044 120.679 158.581 120.679 158.009C120.679 157.438 120.216 156.975 119.644 156.975C119.073 156.975 118.609 157.438 118.609 158.009C118.609 158.581 119.073 159.044 119.644 159.044Z" fill="#688C61"/>
<path d="M90.3824 144.351C90.9539 144.351 91.4172 143.888 91.4172 143.316C91.4172 142.745 90.9539 142.281 90.3824 142.281C89.8109 142.281 89.3477 142.745 89.3477 143.316C89.3477 143.888 89.8109 144.351 90.3824 144.351Z" fill="#688C61"/>
<path d="M145.63 129.896C146.201 129.896 146.665 129.432 146.665 128.861C146.665 128.289 146.201 127.826 145.63 127.826C145.058 127.826 144.595 128.289 144.595 128.861C144.595 129.432 145.058 129.896 145.63 129.896Z" fill="#688C61"/>
<path d="M248.426 201.915C248.997 201.915 249.461 201.452 249.461 200.88C249.461 200.309 248.997 199.846 248.426 199.846C247.854 199.846 247.391 200.309 247.391 200.88C247.391 201.452 247.854 201.915 248.426 201.915Z" fill="#688C61"/>
<path d="M258.059 197.622C258.631 197.622 259.094 197.159 259.094 196.587C259.094 196.016 258.631 195.553 258.059 195.553C257.488 195.553 257.024 196.016 257.024 196.587C257.024 197.159 257.488 197.622 258.059 197.622Z" fill="#688C61"/>
<path d="M163.787 162.896C164.358 162.896 164.821 162.432 164.821 161.861C164.821 161.289 164.358 160.826 163.787 160.826C163.215 160.826 162.752 161.289 162.752 161.861C162.752 162.432 163.215 162.896 163.787 162.896Z" fill="#688C61"/>
<path d="M160.949 150.804C161.52 150.804 161.984 150.341 161.984 149.769C161.984 149.198 161.52 148.734 160.949 148.734C160.377 148.734 159.914 149.198 159.914 149.769C159.914 150.341 160.377 150.804 160.949 150.804Z" fill="#688C61"/>
<path d="M150.28 144.462C150.851 144.462 151.315 143.999 151.315 143.427C151.315 142.856 150.851 142.393 150.28 142.393C149.708 142.393 149.245 142.856 149.245 143.427C149.245 143.999 149.708 144.462 150.28 144.462Z" fill="#688C61"/>
<path d="M157.334 135.279C157.905 135.279 158.368 134.815 158.368 134.244C158.368 133.672 157.905 133.209 157.334 133.209C156.762 133.209 156.299 133.672 156.299 134.244C156.299 134.815 156.762 135.279 157.334 135.279Z" fill="#688C61"/>
<path d="M202.002 184.829C202.574 184.829 203.037 184.366 203.037 183.795C203.037 183.223 202.574 182.76 202.002 182.76C201.431 182.76 200.967 183.223 200.967 183.795C200.967 184.366 201.431 184.829 202.002 184.829Z" fill="#688C61"/>
<path d="M78.0773 144.478C78.6487 144.478 79.112 144.014 79.112 143.443C79.112 142.871 78.6487 142.408 78.0773 142.408C77.5058 142.408 77.0425 142.871 77.0425 143.443C77.0425 144.014 77.5058 144.478 78.0773 144.478Z" fill="#688C61"/>
<path d="M253.465 144.675C254.036 144.675 254.5 144.212 254.5 143.64C254.5 143.069 254.036 142.605 253.465 142.605C252.893 142.605 252.43 143.069 252.43 143.64C252.43 144.212 252.893 144.675 253.465 144.675Z" fill="#688C61"/>
<path d="M272.922 184.829C273.494 184.829 273.957 184.366 273.957 183.795C273.957 183.223 273.494 182.76 272.922 182.76C272.351 182.76 271.888 183.223 271.888 183.795C271.888 184.366 272.351 184.829 272.922 184.829Z" fill="#688C61"/>
<path d="M230.398 175.991C230.97 175.991 231.433 175.528 231.433 174.957C231.433 174.385 230.97 173.922 230.398 173.922C229.827 173.922 229.363 174.385 229.363 174.957C229.363 175.528 229.827 175.991 230.398 175.991Z" fill="#688C61"/>
<path d="M187.403 146.353C187.975 146.353 188.438 145.889 188.438 145.318C188.438 144.746 187.975 144.283 187.403 144.283C186.832 144.283 186.369 144.746 186.369 145.318C186.369 145.889 186.832 146.353 187.403 146.353Z" fill="#688C61"/>
<path d="M143.458 154.048C144.457 154.048 145.267 153.238 145.267 152.239C145.267 151.24 144.457 150.43 143.458 150.43C142.458 150.43 141.648 151.24 141.648 152.239C141.648 153.238 142.458 154.048 143.458 154.048Z" fill="#688C61"/>
<path d="M251.035 167.292C252.035 167.292 252.845 166.482 252.845 165.483C252.845 164.484 252.035 163.674 251.035 163.674C250.036 163.674 249.226 164.484 249.226 165.483C249.226 166.482 250.036 167.292 251.035 167.292Z" fill="#688C61"/>
<path d="M108.082 141.365C109.081 141.365 109.891 140.555 109.891 139.555C109.891 138.556 109.081 137.746 108.082 137.746C107.082 137.746 106.272 138.556 106.272 139.555C106.272 140.555 107.082 141.365 108.082 141.365Z" fill="#688C61"/>
<path d="M144.244 197.134C144.958 197.134 145.536 196.556 145.536 195.843C145.536 195.129 144.958 194.551 144.244 194.551C143.531 194.551 142.953 195.129 142.953 195.843C142.953 196.556 143.531 197.134 144.244 197.134Z" fill="#688C61"/>
<path d="M174.462 166.775C175.176 166.775 175.754 166.197 175.754 165.483C175.754 164.77 175.176 164.191 174.462 164.191C173.749 164.191 173.17 164.77 173.17 165.483C173.17 166.197 173.749 166.775 174.462 166.775Z" fill="#688C61"/>
<path d="M136.037 141.109C136.751 141.109 137.329 140.531 137.329 139.817C137.329 139.104 136.751 138.525 136.037 138.525C135.324 138.525 134.746 139.104 134.746 139.817C134.746 140.531 135.324 141.109 136.037 141.109Z" fill="#688C61"/>
<path d="M135.089 182.535C135.802 182.535 136.381 181.957 136.381 181.243C136.381 180.53 135.802 179.951 135.089 179.951C134.375 179.951 133.797 180.53 133.797 181.243C133.797 181.957 134.375 182.535 135.089 182.535Z" fill="#688C61"/>
<path d="M155.148 178.461C155.861 178.461 156.44 177.882 156.44 177.169C156.44 176.455 155.861 175.877 155.148 175.877C154.434 175.877 153.856 176.455 153.856 177.169C153.856 177.882 154.434 178.461 155.148 178.461Z" fill="#688C61"/>
<path d="M138.621 170.385C139.335 170.385 139.913 169.806 139.913 169.093C139.913 168.379 139.335 167.801 138.621 167.801C137.908 167.801 137.33 168.379 137.33 169.093C137.33 169.806 137.908 170.385 138.621 170.385Z" fill="#688C61"/>
<path d="M84.6161 150.64C85.3295 150.64 85.9079 150.062 85.9079 149.348C85.9079 148.635 85.3295 148.057 84.6161 148.057C83.9026 148.057 83.3242 148.635 83.3242 149.348C83.3242 150.062 83.9026 150.64 84.6161 150.64Z" fill="#688C61"/>
<path d="M167.588 177.769C168.302 177.769 168.88 177.191 168.88 176.477C168.88 175.764 168.302 175.186 167.588 175.186C166.875 175.186 166.296 175.764 166.296 176.477C166.296 177.191 166.875 177.769 167.588 177.769Z" fill="#688C61"/>
<path d="M87.4574 122.752C88.1709 122.752 88.7492 122.173 88.7492 121.46C88.7492 120.746 88.1709 120.168 87.4574 120.168C86.7439 120.168 86.1655 120.746 86.1655 121.46C86.1655 122.173 86.7439 122.752 87.4574 122.752Z" fill="#688C61"/>
</svg>
