<svg width="29" height="30" viewBox="0 0 29 30" fill="none" xmlns="http://www.w3.org/2000/svg">
<path d="M25.9509 25.3064C25.6366 25.0197 25.3098 24.7456 25.0093 24.4439C24.6348 24.0667 24.6184 23.6191 24.939 23.311C25.2608 23.0018 25.7133 23.0332 26.0828 23.4016C26.8094 24.1233 27.5334 24.8475 28.2525 25.5767C28.6535 25.9828 28.6509 26.3889 28.2525 26.7912C27.5221 27.5255 26.7905 28.2598 26.0552 28.9903C25.707 29.336 25.2494 29.3599 24.9427 29.0594C24.6272 28.7489 24.6322 28.305 24.9779 27.9492C25.2834 27.6349 25.6089 27.3419 25.9257 27.0389L25.8905 26.9371H25.4895C18.8927 26.9371 12.2959 26.9346 5.69901 26.9396C4.42942 26.9396 3.43512 26.4631 2.7777 25.3542C2.45716 24.8135 2.37671 24.2163 2.37671 23.6002C2.37671 17.0132 2.37671 10.425 2.37671 3.83804V3.42564L2.26358 3.35523C1.96944 3.67459 1.70169 4.02663 1.36984 4.30072C1.18003 4.45663 0.87583 4.57607 0.638253 4.55218C0.0839074 4.49812 -0.171268 3.78146 0.219665 3.36906C1.00782 2.53799 1.82237 1.73584 2.6432 0.939966C2.92603 0.667133 3.36221 0.68725 3.65007 0.968884C4.44199 1.74338 5.22638 2.52542 5.99944 3.31751C6.29987 3.62555 6.28353 4.06561 6.00824 4.35101C5.7229 4.64899 5.27414 4.6754 4.95234 4.3661C4.61923 4.04675 4.32635 3.6859 4.01461 3.34392L3.90273 3.41433C3.89519 3.51365 3.88011 3.61172 3.88011 3.71105C3.88011 10.3697 3.87759 17.0296 3.88011 23.6882C3.88011 24.7695 4.5149 25.4271 5.57834 25.4271C12.282 25.4321 18.987 25.4296 25.6907 25.4296C25.7485 25.4296 25.8063 25.422 25.8629 25.4183L25.9496 25.3051L25.9509 25.3064Z" fill="white"/>
<path d="M28.5527 12.2223C28.5527 14.9984 28.5527 17.7732 28.5527 20.5493C28.5527 20.6927 28.5565 20.8373 28.5351 20.9768C28.4773 21.354 28.1618 21.613 27.7859 21.6055C27.4277 21.5992 27.1235 21.3414 27.0694 20.9806C27.0468 20.8285 27.0506 20.6713 27.0506 20.5167C27.0506 15.1203 27.0506 9.72402 27.0506 4.32644C27.0506 4.1718 27.0531 4.01715 27.0481 3.86124C27.0191 2.91953 26.3806 2.27202 25.4416 2.25316C24.7037 2.23933 23.9646 2.24939 23.2267 2.24939C18.4161 2.24939 13.6042 2.24939 8.79362 2.24939C8.62769 2.24939 8.458 2.25316 8.29584 2.22424C7.9401 2.16012 7.69624 1.84077 7.70378 1.47992C7.71133 1.13542 7.95393 0.83493 8.29584 0.770808C8.43537 0.744405 8.57993 0.74692 8.72323 0.74692C14.2227 0.745662 19.7234 0.745662 25.2254 0.748177C27.2592 0.748177 28.5489 2.03942 28.5515 4.07373C28.5552 6.78949 28.5515 9.50651 28.5515 12.2223H28.5527Z" fill="white"/>
<path d="M9.97368 9.55458C11.2609 8.96742 12.4085 9.19248 13.4355 10.1568C13.9207 9.69162 14.4625 9.36724 15.1224 9.26791C16.827 9.01268 18.3995 10.2888 18.4221 12.0151C18.4535 14.4329 18.4334 16.8507 18.4297 19.2685C18.4297 19.7563 18.1079 20.092 17.6754 20.092C17.2342 20.092 16.9325 19.7701 16.9313 19.2685C16.9275 16.9098 16.9325 14.5523 16.9275 12.1936C16.925 11.1891 16.074 10.5277 15.1526 10.7968C14.5467 10.9741 14.1759 11.5185 14.1746 12.254C14.1709 14.0758 14.1746 15.8989 14.1746 17.7207C14.1746 18.2211 14.1784 18.7215 14.1734 19.2219C14.1684 19.7663 13.8943 20.087 13.4405 20.092C12.9842 20.097 12.6738 19.75 12.6738 19.2068C12.67 16.9563 12.6725 14.7045 12.6712 12.4539C12.6712 12.3231 12.6738 12.1911 12.6675 12.0604C12.631 11.3123 12.0704 10.7566 11.3375 10.7415C10.6248 10.7264 10.0365 11.2456 9.95357 11.9698C9.93723 12.1107 9.94225 12.2553 9.94225 12.3986C9.94225 14.6139 9.94225 16.8293 9.94225 19.0447C9.94225 19.1754 9.94728 19.3074 9.9322 19.4369C9.88946 19.7915 9.58652 20.0706 9.23707 20.0907C8.87756 20.1108 8.55828 19.882 8.47406 19.5249C8.44389 19.3992 8.44137 19.2659 8.44137 19.1352C8.44012 16.0385 8.44012 12.9417 8.44137 9.84501C8.44137 9.74946 8.4376 9.6539 8.45017 9.55961C8.4992 9.20128 8.70158 8.97496 9.05228 8.89198C9.36025 8.81906 9.69085 8.98628 9.85678 9.2918C9.90203 9.37479 9.93345 9.46405 9.97368 9.55584V9.55458Z" fill="white"/>
<path d="M22.2013 11.2175C22.5194 11.2175 22.8386 11.2112 23.1567 11.2187C23.6507 11.2313 23.9813 11.5393 23.9788 11.9731C23.975 12.4031 23.6368 12.7137 23.1479 12.7174C22.3735 12.7237 21.6005 12.72 20.8261 12.7174C20.4189 12.7174 20.1084 12.5414 19.9412 12.168C19.769 11.7845 19.8306 11.4186 20.1172 11.1081C20.8261 10.3374 21.5351 9.56414 22.2604 8.8085C22.5181 8.5407 22.5998 8.26032 22.4326 7.93845C22.2793 7.64424 22.009 7.52983 21.6809 7.57886C21.3566 7.62664 21.1442 7.87433 21.0901 8.24649C21.0147 8.77204 20.6967 9.0587 20.2467 9.00715C19.8054 8.95686 19.5528 8.59099 19.5943 8.06418C19.6672 7.13001 20.3736 6.32911 21.3164 6.11034C22.2654 5.89032 23.2283 6.31277 23.7261 7.16899C24.2163 8.01012 24.0994 9.0411 23.4219 9.78165C23.0058 10.2355 22.5809 10.6806 22.1586 11.1307L22.2001 11.2162L22.2013 11.2175Z" fill="white"/>
<path d="M25.9509 25.3064C25.6366 25.0197 25.3098 24.7456 25.0093 24.4439C24.6348 24.0667 24.6184 23.6191 24.939 23.311C25.2608 23.0018 25.7133 23.0332 26.0828 23.4016C26.8094 24.1233 27.5334 24.8475 28.2525 25.5767C28.6535 25.9828 28.6509 26.3889 28.2525 26.7912C27.5221 27.5255 26.7905 28.2598 26.0552 28.9903C25.707 29.336 25.2494 29.3599 24.9427 29.0594C24.6272 28.7489 24.6322 28.305 24.9779 27.9492C25.2834 27.6349 25.6089 27.3419 25.9257 27.0389L25.8905 26.9371H25.4895C18.8927 26.9371 12.2959 26.9346 5.69901 26.9396C4.42942 26.9396 3.43512 26.4631 2.7777 25.3542C2.45716 24.8135 2.37671 24.2163 2.37671 23.6002C2.37671 17.0132 2.37671 10.425 2.37671 3.83804V3.42564L2.26358 3.35523C1.96944 3.67459 1.70169 4.02663 1.36984 4.30072C1.18003 4.45663 0.87583 4.57607 0.638253 4.55218C0.0839074 4.49812 -0.171268 3.78146 0.219665 3.36906C1.00782 2.53799 1.82237 1.73584 2.6432 0.939966C2.92603 0.667133 3.36221 0.68725 3.65007 0.968884C4.44199 1.74338 5.22638 2.52542 5.99944 3.31751C6.29987 3.62555 6.28353 4.06561 6.00824 4.35101C5.7229 4.64899 5.27414 4.6754 4.95234 4.3661C4.61923 4.04675 4.32635 3.6859 4.01461 3.34392L3.90273 3.41433C3.89519 3.51365 3.88011 3.61172 3.88011 3.71105C3.88011 10.3697 3.87759 17.0296 3.88011 23.6882C3.88011 24.7695 4.5149 25.4271 5.57834 25.4271C12.282 25.4321 18.987 25.4296 25.6907 25.4296C25.7485 25.4296 25.8063 25.422 25.8629 25.4183L25.9496 25.3051L25.9509 25.3064Z" fill="white"/>
<path d="M28.5527 12.2223C28.5527 14.9984 28.5527 17.7732 28.5527 20.5493C28.5527 20.6927 28.5565 20.8373 28.5351 20.9768C28.4773 21.354 28.1618 21.613 27.7859 21.6055C27.4277 21.5992 27.1235 21.3414 27.0694 20.9806C27.0468 20.8285 27.0506 20.6713 27.0506 20.5167C27.0506 15.1203 27.0506 9.72402 27.0506 4.32644C27.0506 4.1718 27.0531 4.01715 27.0481 3.86124C27.0191 2.91953 26.3806 2.27202 25.4416 2.25316C24.7037 2.23933 23.9646 2.24939 23.2267 2.24939C18.4161 2.24939 13.6042 2.24939 8.79362 2.24939C8.62769 2.24939 8.458 2.25316 8.29584 2.22424C7.9401 2.16012 7.69624 1.84077 7.70378 1.47992C7.71133 1.13542 7.95393 0.83493 8.29584 0.770808C8.43537 0.744405 8.57993 0.74692 8.72323 0.74692C14.2227 0.745662 19.7234 0.745662 25.2254 0.748177C27.2592 0.748177 28.5489 2.03942 28.5515 4.07373C28.5552 6.78949 28.5515 9.50651 28.5515 12.2223H28.5527Z" fill="white"/>
<path d="M9.97368 9.55458C11.2609 8.96742 12.4085 9.19248 13.4355 10.1568C13.9207 9.69162 14.4625 9.36724 15.1224 9.26791C16.827 9.01268 18.3995 10.2888 18.4221 12.0151C18.4535 14.4329 18.4334 16.8507 18.4297 19.2685C18.4297 19.7563 18.1079 20.092 17.6754 20.092C17.2342 20.092 16.9325 19.7701 16.9313 19.2685C16.9275 16.9098 16.9325 14.5523 16.9275 12.1936C16.925 11.1891 16.074 10.5277 15.1526 10.7968C14.5467 10.9741 14.1759 11.5185 14.1746 12.254C14.1709 14.0758 14.1746 15.8989 14.1746 17.7207C14.1746 18.2211 14.1784 18.7215 14.1734 19.2219C14.1684 19.7663 13.8943 20.087 13.4405 20.092C12.9842 20.097 12.6738 19.75 12.6738 19.2068C12.67 16.9563 12.6725 14.7045 12.6712 12.4539C12.6712 12.3231 12.6738 12.1911 12.6675 12.0604C12.631 11.3123 12.0704 10.7566 11.3375 10.7415C10.6248 10.7264 10.0365 11.2456 9.95357 11.9698C9.93723 12.1107 9.94225 12.2553 9.94225 12.3986C9.94225 14.6139 9.94225 16.8293 9.94225 19.0447C9.94225 19.1754 9.94728 19.3074 9.9322 19.4369C9.88946 19.7915 9.58652 20.0706 9.23707 20.0907C8.87756 20.1108 8.55828 19.882 8.47406 19.5249C8.44389 19.3992 8.44137 19.2659 8.44137 19.1352C8.44012 16.0385 8.44012 12.9417 8.44137 9.84501C8.44137 9.74946 8.4376 9.6539 8.45017 9.55961C8.4992 9.20128 8.70158 8.97496 9.05228 8.89198C9.36025 8.81906 9.69085 8.98628 9.85678 9.2918C9.90203 9.37479 9.93345 9.46405 9.97368 9.55584V9.55458Z" fill="white"/>
<path d="M22.2013 11.2175C22.5194 11.2175 22.8386 11.2112 23.1567 11.2187C23.6507 11.2313 23.9813 11.5393 23.9788 11.9731C23.975 12.4031 23.6368 12.7137 23.1479 12.7174C22.3735 12.7237 21.6005 12.72 20.8261 12.7174C20.4189 12.7174 20.1084 12.5414 19.9412 12.168C19.769 11.7845 19.8306 11.4186 20.1172 11.1081C20.8261 10.3374 21.5351 9.56414 22.2604 8.8085C22.5181 8.5407 22.5998 8.26032 22.4326 7.93845C22.2793 7.64424 22.009 7.52983 21.6809 7.57886C21.3566 7.62664 21.1442 7.87433 21.0901 8.24649C21.0147 8.77204 20.6967 9.0587 20.2467 9.00715C19.8054 8.95686 19.5528 8.59099 19.5943 8.06418C19.6672 7.13001 20.3736 6.32911 21.3164 6.11034C22.2654 5.89032 23.2283 6.31277 23.7261 7.16899C24.2163 8.01012 24.0994 9.0411 23.4219 9.78165C23.0058 10.2355 22.5809 10.6806 22.1586 11.1307L22.2001 11.2162L22.2013 11.2175Z" fill="white"/>
</svg>
