<svg width="39" height="33" viewBox="0 0 39 33" fill="none" xmlns="http://www.w3.org/2000/svg">
<path d="M30.8266 24.8789C31.5289 24.8789 32.2358 24.8927 32.9381 24.8789C35.1138 24.833 36.8397 23.4514 37.3722 21.3445C37.8587 19.4029 36.9591 17.3832 35.1322 16.3321C34.6227 16.0383 34.5768 15.8776 34.8109 15.2671C36.3669 11.2508 34.0397 6.94979 29.8398 6.07766C28.6601 5.83438 27.4988 5.93078 26.3558 6.2934C25.7683 6.48159 25.5939 6.39897 25.3506 5.83897C24.1939 3.13997 21.8896 1.71702 18.9657 1.90063C18.8923 1.90063 18.8234 1.9144 18.75 1.9144C18.3919 1.92358 18.1578 1.73997 18.1303 1.39571C18.1027 1.04227 18.3185 0.826533 18.6673 0.794401C19.7231 0.688828 20.7604 0.74391 21.7749 1.08358C23.7349 1.73538 25.1991 2.97931 26.1309 4.82455C26.2732 5.10914 26.4293 5.09078 26.6771 5.0357C31.2306 4.01209 35.5132 6.85799 36.3348 11.4481C36.5551 12.6829 36.4679 13.9085 36.064 15.1019C35.9722 15.3681 35.986 15.5196 36.243 15.7032C38.281 17.1675 39.0889 19.6278 38.3545 22.0376C37.666 24.296 35.5224 25.9346 33.0988 26.0035C31.5794 26.0448 30.0555 26.0173 28.5316 26.0127C28.0909 26.0127 27.8339 25.7694 27.8476 25.4114C27.8614 25.0671 28.0909 24.8835 28.5407 24.8789C29.3027 24.8743 30.0647 24.8789 30.822 24.8789H30.8266Z" fill="white"/>
<path d="M7.90332 14.8729C7.97676 12.6145 8.91315 10.8978 10.8318 9.80994C12.7964 8.69913 14.7885 8.78175 16.7302 9.91551C17.5977 10.4204 17.8594 11.366 17.3866 12.1647C16.9092 12.9771 15.9361 13.1837 15.0594 12.665C14.0633 12.0729 13.003 12.1188 12.1171 12.7935C11.2954 13.4178 10.9466 14.4644 11.2128 15.488C11.5433 16.7457 12.9066 17.6132 14.1367 17.2919C14.4764 17.2047 14.8161 16.9752 15.0777 16.7319C15.78 16.0709 16.7348 16.0066 17.4003 16.6309C18.0521 17.246 18.0613 18.2466 17.4187 18.9489C15.7892 20.7299 13.0397 21.1201 10.8686 19.8302C10.3223 19.5043 9.83577 19.0591 9.36758 18.623C9.05545 18.3338 9.08299 17.9804 9.33545 17.7509C9.59249 17.526 9.90921 17.5627 10.203 17.8794C11.3368 19.0774 12.7138 19.6237 14.3571 19.385C15.22 19.2611 15.959 18.8571 16.5603 18.2145C16.7807 17.9758 16.8587 17.705 16.6016 17.4525C16.3721 17.2276 16.1289 17.2919 15.9223 17.5122C14.8895 18.6047 13.6318 18.7286 12.319 18.2237C10.9649 17.7004 10.1709 16.6493 10.0194 15.1988C9.86331 13.6932 10.46 12.4906 11.7407 11.6873C12.9433 10.9345 14.2056 10.9208 15.4679 11.5909C15.5689 11.646 15.6653 11.7103 15.7708 11.7562C16.0279 11.8755 16.262 11.8342 16.4089 11.5863C16.5557 11.3385 16.4777 11.1135 16.2436 10.9529C15.3256 10.3332 14.302 10.0762 13.2141 10.2001C10.5013 10.5076 8.71578 12.8762 9.11512 15.5752C9.17479 15.9883 8.98201 16.3234 8.63774 16.3509C8.25217 16.383 8.05479 16.1535 8.00889 15.7909C7.96758 15.465 7.93545 15.1345 7.90791 14.8683L7.90332 14.8729Z" fill="white"/>
<path d="M8.62416 26.0171C7.23334 26.0814 5.71859 25.884 4.32778 25.1266C1.44976 23.5522 -0.0649919 21.1011 0.0359913 17.8237C0.136975 14.6198 1.74353 12.2559 4.65827 10.9156C5.45236 10.5529 5.70941 10.2133 5.75531 9.32277C5.91597 5.87098 9.29432 3.5346 12.6497 4.46181C12.9894 4.55361 13.1455 4.50771 13.3291 4.20476C13.9304 3.20411 14.7474 2.40542 15.7527 1.80411C16.1612 1.56083 16.4595 1.58378 16.6569 1.88673C16.8543 2.19427 16.7441 2.51558 16.331 2.77263C15.2982 3.42443 14.4995 4.28279 13.9579 5.38442C13.7009 5.91229 13.4805 5.98114 12.9159 5.74705C10.3592 4.68672 7.52252 6.10049 6.96252 8.749C6.84318 9.31359 6.87072 9.91949 6.92121 10.4978C6.98088 11.2139 6.94416 11.3333 6.2281 11.5215C3.23532 12.3155 1.13763 15.0054 1.13304 18.0624C1.12386 21.7712 4.07073 24.7686 7.83924 24.8742C8.60121 24.8971 9.36317 24.8742 10.1251 24.8834C10.5704 24.8834 10.8045 25.0716 10.8182 25.4158C10.832 25.7739 10.575 26.0034 10.1297 26.0125C9.68448 26.0217 9.23924 26.0125 8.62416 26.0125V26.0171Z" fill="white"/>
<path d="M30.3079 14.8304C30.2987 18.0205 27.641 20.6323 24.4417 20.5864C21.2607 20.5405 18.704 17.8828 18.7728 14.6927C18.8692 10.3825 23.4869 7.66515 27.2279 9.72613C27.4161 9.8317 27.5951 10.052 27.6548 10.254C27.6961 10.3917 27.5538 10.6901 27.4207 10.7451C27.2279 10.8232 26.9387 10.8186 26.7505 10.7268C25.5295 10.1209 24.2856 10.0015 22.9912 10.4376C21.0128 11.1078 19.7551 13.0769 19.9158 15.2573C20.0627 17.2356 21.6922 19.0212 23.6843 19.3792C25.7315 19.7464 27.82 18.6861 28.6922 16.8363C29.3348 15.4776 29.3256 14.1189 28.683 12.7648C28.6279 12.6501 28.559 12.5353 28.5085 12.4205C28.3754 12.1176 28.4167 11.8422 28.7105 11.6724C29.0181 11.4979 29.3026 11.5805 29.4862 11.8835C30.0371 12.7878 30.2849 13.7792 30.2987 14.835L30.3079 14.8304Z" fill="white"/>
<path d="M24.547 18.4857C22.5181 18.4995 20.8657 16.8745 20.8473 14.8457C20.829 12.8031 22.4768 11.1277 24.5148 11.1231C26.5483 11.1139 28.1961 12.7434 28.2099 14.7677C28.2237 16.8332 26.608 18.4765 24.5516 18.4857H24.547ZM24.547 17.3473C25.9653 17.3381 27.0762 16.2136 27.0716 14.7906C27.067 13.3814 25.9332 12.2523 24.524 12.2523C23.1011 12.2523 21.9627 13.4044 21.9765 14.8365C21.9903 16.2503 23.1286 17.3611 24.547 17.3473Z" fill="white"/>
<path d="M12.5256 30.878C13.0213 29.781 13.1728 28.8171 12.7734 27.7935C12.4567 26.981 12.5072 26.1364 12.7642 25.301C12.879 24.92 12.9524 24.5253 13.0121 24.1305C13.0718 23.7449 13.2737 23.52 13.6088 23.5338C13.9439 23.5476 14.1826 23.7908 14.1367 24.181C14.0862 24.663 13.9898 25.1404 13.8521 25.604C13.6639 26.2282 13.6134 26.8525 13.8429 27.463C14.2469 28.5187 14.2606 29.5607 13.8429 30.6072C13.8016 30.7082 13.7878 30.8184 13.8521 30.9928C14.0724 30.7587 14.2882 30.5154 14.5223 30.2859C14.7793 30.0289 15.0731 29.9738 15.3623 30.2308C15.6055 30.4512 15.5964 30.7908 15.3255 31.0708C14.8069 31.6079 14.279 32.1357 13.7419 32.6544C13.4344 32.9528 13.136 32.9528 12.8331 32.659C12.296 32.1403 11.7728 31.6079 11.2495 31.0754C10.9924 30.8138 10.9465 30.52 11.2036 30.2354C11.4193 29.9921 11.759 30.0059 12.039 30.2767C12.2088 30.442 12.3419 30.6439 12.5256 30.8734V30.878Z" fill="white"/>
<path d="M18.5618 30.8548C19.0805 29.7577 19.1907 28.7754 18.7913 27.7381C18.493 26.9669 18.5435 26.1682 18.7775 25.3742C18.8969 24.9656 18.9795 24.5433 19.0484 24.121C19.1126 23.7401 19.3238 23.506 19.6543 23.5381C20.0123 23.5748 20.2189 23.7997 20.1775 24.1486C20.1225 24.6305 20.0398 25.1125 19.9021 25.5715C19.7048 26.2279 19.6589 26.8705 19.9021 27.5086C20.2923 28.5368 20.2969 29.5512 19.8975 30.5748C19.8608 30.6666 19.8379 30.7676 19.8149 30.864C19.8103 30.8823 19.8333 30.9099 19.8746 31.0017C20.1179 30.7492 20.3336 30.5013 20.5677 30.281C20.8523 30.0148 21.192 30.001 21.4077 30.2397C21.6648 30.5289 21.6188 30.8227 21.3618 31.0797C20.8385 31.6122 20.3152 32.1446 19.7782 32.6633C19.4753 32.9571 19.1769 32.9525 18.8694 32.6541C18.3323 32.1354 17.8044 31.6076 17.2858 31.0705C17.0149 30.7905 17.0058 30.4509 17.249 30.2305C17.5382 29.9689 17.832 30.0286 18.089 30.2856C18.2497 30.4463 18.3828 30.6345 18.571 30.8594L18.5618 30.8548Z" fill="white"/>
<path d="M24.5837 30.905C25.0703 29.8034 25.2447 28.8578 24.8499 27.8434C24.524 26.9988 24.5653 26.1359 24.8362 25.2683C24.9509 24.9011 25.0244 24.5201 25.0749 24.1392C25.1208 23.772 25.2814 23.5424 25.6624 23.5333C25.9975 23.5287 26.2408 23.7811 26.204 24.1667C26.1581 24.6349 26.0755 25.1031 25.9378 25.5483C25.7312 26.2185 25.6899 26.8703 25.9378 27.5267C26.3188 28.5365 26.3188 29.5418 25.9332 30.5516C25.8873 30.6664 25.8644 30.7903 25.8276 30.9096L25.9332 30.9968C26.149 30.7582 26.3555 30.5149 26.5804 30.2854C26.8329 30.0283 27.1267 29.9641 27.4204 30.2165C27.6775 30.4414 27.6591 30.7903 27.3699 31.0886C26.8604 31.6165 26.3417 32.1352 25.8185 32.6401C25.4971 32.9522 25.2034 32.9477 24.8775 32.6309C24.3634 32.1306 23.8585 31.6211 23.3536 31.1116C23.0552 30.8041 23.0277 30.4827 23.2617 30.2349C23.5004 29.9824 23.8401 30.0008 24.1614 30.3221C24.3083 30.4736 24.4185 30.6618 24.5883 30.8959L24.5837 30.905Z" fill="white"/>
<path d="M32.5108 21.9821C32.9193 21.9821 33.259 21.9729 33.6033 21.9821C33.9842 21.9959 34.2367 22.23 34.2138 22.5559C34.1908 22.9139 33.9797 23.1021 33.6216 23.1067C32.9193 23.1159 32.2124 23.1342 31.5102 23.1067C30.8354 23.0791 30.6151 22.6064 31.0144 22.0418C31.5102 21.3349 32.0243 20.6464 32.5246 19.9487C32.6485 19.7742 32.7679 19.5906 32.8459 19.3933C32.9744 19.0628 32.8642 18.7828 32.5338 18.6542C32.2216 18.5303 31.9738 18.6588 31.8177 18.9526C31.7902 19.0031 31.7764 19.0582 31.7534 19.1133C31.6249 19.4529 31.3725 19.5814 31.0328 19.4713C30.7069 19.3657 30.6243 19.0949 30.6793 18.7736C30.8308 17.8877 31.8498 17.2818 32.7724 17.5342C33.8741 17.8326 34.3744 19.026 33.7915 20.0405C33.4197 20.6831 32.9744 21.2844 32.5108 21.9775V21.9821Z" fill="white"/>
</svg>
