<svg width="36" height="37" viewBox="0 0 36 37" fill="none" xmlns="http://www.w3.org/2000/svg">
<path d="M19.2075 3.81547C20.9359 1.85775 23.0858 0.804994 25.6791 0.748206C27.4985 0.708891 29.1818 1.21852 30.6721 2.2691C34.016 4.62652 35.0607 8.56453 33.9454 11.9995C33.2421 14.1661 31.8501 15.8057 29.8501 16.8868C27.864 17.9607 25.7461 18.166 23.5445 17.6229C23.4142 20.2264 22.1874 21.9264 19.6057 22.4324C17.8948 22.7673 15.5199 21.938 14.5371 19.3302C14.4199 19.3884 14.3041 19.4401 14.1927 19.5013C12.1695 20.6064 9.73996 20.3931 7.90892 18.9487C6.13612 17.5501 5.33745 15.1541 5.95994 12.9758C6.48631 11.1324 7.65556 9.84153 9.44729 9.14042C9.70429 9.03995 9.81422 8.93948 9.79675 8.63733C9.65624 6.21803 10.6333 4.34112 12.7439 3.18425C14.9033 2.00118 17.0372 2.23561 19.0277 3.69316C19.0699 3.72447 19.1143 3.75213 19.2082 3.81474L19.2075 3.81547ZM25.792 16.7551C31.0798 16.7492 34.6989 11.3952 32.6596 6.51507C31.5217 3.79217 29.4089 2.21741 26.4632 1.9422C23.7862 1.69176 21.5897 2.70884 19.8999 4.80707C19.4274 5.39388 19.1922 5.40407 18.6484 4.88497C17.1944 3.49804 15.0423 3.20901 13.2972 4.16494C11.539 5.12814 10.6194 7.0815 10.9973 9.05087C11.1211 9.69883 11.0104 9.85536 10.3683 10.0374C8.81534 10.4771 7.71817 11.4476 7.16922 12.9627C6.46957 14.8942 7.17214 17.0427 8.82262 18.2032C10.5284 19.403 12.7555 19.3265 14.3791 18.0124C14.987 17.5203 15.37 17.6666 15.5498 18.4238C15.6466 18.83 15.7522 19.2537 15.956 19.6127C16.8195 21.1357 18.5974 21.7298 20.2311 21.0826C21.768 20.4732 22.6395 18.7543 22.2493 17.0958C22.1838 16.817 22.1393 16.5454 22.3818 16.3233C22.6271 16.0984 22.8929 16.1726 23.1601 16.2775C24.0061 16.6087 24.8863 16.7543 25.7927 16.7558L25.792 16.7551Z" fill="white"/>
<path d="M28.6488 24.2157C28.0809 24.2157 27.5815 24.2135 27.082 24.2164C26.7843 24.2186 26.5244 24.1501 26.4108 23.84C26.3059 23.5539 26.429 23.3347 26.6314 23.1323C27.8844 21.8844 29.1308 20.6307 30.383 19.3829C30.8075 18.9599 31.0761 18.9555 31.494 19.3712C32.7477 20.6184 33.9956 21.8706 35.2456 23.1214C35.451 23.3267 35.6097 23.5473 35.4713 23.8575C35.3374 24.1581 35.0826 24.22 34.7855 24.2164C34.2868 24.2106 33.7874 24.2149 33.2319 24.2149C33.2319 24.4042 33.2319 24.5564 33.2319 24.7085C33.2319 28.2585 33.2319 31.8085 33.2319 35.3577C33.2319 36.0785 33.0724 36.2365 32.3458 36.2365C31.3826 36.2365 30.4194 36.2386 29.4562 36.2365C28.8461 36.235 28.651 36.0413 28.6503 35.4305C28.6488 31.8674 28.6495 28.3044 28.6495 24.7413C28.6495 24.5848 28.6495 24.4282 28.6495 24.2142L28.6488 24.2157ZM31.0375 20.6053C30.185 21.4389 29.3383 22.2659 28.5119 23.0733C28.552 23.0733 28.6437 23.0733 28.7362 23.0733C29.7241 23.0792 29.8013 23.1549 29.8013 24.1276C29.8013 27.5982 29.8013 31.0695 29.8013 34.5401C29.8013 34.7068 29.8013 34.8736 29.8013 35.0861C30.4478 35.0861 31.0397 35.0658 31.6287 35.0934C31.9898 35.1109 32.0976 35.0031 32.0954 34.634C32.0801 31.8099 32.0874 28.9858 32.0874 26.161C32.0874 25.4744 32.0874 24.7886 32.0874 24.1021C32.0874 23.1687 32.1798 23.0755 33.0986 23.0712C33.2217 23.0712 33.344 23.0581 33.4627 23.0508C32.6094 22.1902 31.7772 21.3501 31.0383 20.6038L31.0375 20.6053Z" fill="white"/>
<path d="M6.90455 27.0765V27.616C6.90455 30.2035 6.90455 32.791 6.90455 35.3777C6.90455 36.0636 6.7269 36.2368 6.03307 36.2376C5.05603 36.2383 4.07972 36.2398 3.10268 36.2376C2.51296 36.2361 2.32367 36.0461 2.32294 35.452C2.32076 32.8383 2.32221 30.2246 2.32221 27.6109C2.32221 27.4537 2.32221 27.2957 2.32221 27.0773C1.81622 27.0773 1.3328 27.0736 0.848644 27.0787C0.5334 27.0816 0.231988 27.0642 0.0827379 26.7205C-0.0701522 26.3696 0.14535 26.1476 0.364492 25.9277C1.58761 24.7053 2.80928 23.4814 4.03385 22.2605C4.46777 21.8273 4.75098 21.8251 5.17762 22.251C6.41967 23.4916 7.65735 24.7366 8.90158 25.975C9.11345 26.1861 9.25542 26.4089 9.13893 26.7132C9.01953 27.0248 8.75306 27.0795 8.45893 27.078C7.95949 27.0758 7.46078 27.078 6.90528 27.078L6.90455 27.0765ZM2.03973 25.9073C2.23412 25.9175 2.34842 25.9284 2.46273 25.9291C3.36405 25.9371 3.46671 26.0391 3.46671 26.9309C3.46671 29.4776 3.46671 32.0244 3.46671 34.5703C3.46671 34.7254 3.46671 34.8812 3.46671 35.0858C4.11758 35.0858 4.72259 35.064 5.32468 35.0938C5.6858 35.112 5.76151 34.9824 5.76006 34.6439C5.74695 32.0841 5.75278 29.5242 5.75278 26.9644C5.75278 26.8326 5.74695 26.7001 5.75714 26.5684C5.78845 26.1359 5.9741 25.951 6.40584 25.932C6.63663 25.9219 6.86887 25.9299 7.12369 25.9299C6.24348 25.0548 5.40113 24.2175 4.53839 23.3591C3.78413 24.117 3.00294 24.9026 2.2232 25.6882C2.17806 25.734 2.1402 25.7864 2.04119 25.9051L2.03973 25.9073Z" fill="white"/>
<path d="M14.9112 32.2149C12.3725 32.2134 10.3274 30.1669 10.334 27.6347C10.3406 25.1062 12.4009 23.0641 14.9353 23.0743C17.4456 23.0844 19.4921 25.1295 19.503 27.6384C19.514 30.1538 17.4448 32.2164 14.9112 32.2142V32.2149ZM18.3396 27.6602C18.3447 25.7782 16.8049 24.2275 14.9251 24.2195C13.0554 24.2115 11.488 25.7637 11.477 27.6355C11.4654 29.4949 13.03 31.0682 14.9003 31.0784C16.7729 31.0879 18.3352 29.5357 18.3403 27.661L18.3396 27.6602Z" fill="white"/>
<path d="M22.3633 30.5156C23.9235 30.5193 25.2121 31.8065 25.2172 33.3674C25.2231 34.9371 23.898 36.2541 22.3342 36.2345C20.7609 36.2141 19.4991 34.9298 19.5093 33.3579C19.5188 31.7824 20.7951 30.512 22.3633 30.5156ZM22.3596 35.0754C23.3076 35.0754 24.0742 34.3117 24.072 33.371C24.0698 32.442 23.2821 31.6536 22.3582 31.6543C21.4321 31.6543 20.6473 32.442 20.6458 33.3725C20.6444 34.3168 21.4081 35.0761 22.3596 35.0754Z" fill="white"/>
<path d="M23.4991 9.8853C23.5093 11.4455 22.2447 12.7247 20.6648 12.7531C19.1032 12.7815 17.7745 11.4637 17.7803 9.89186C17.7861 8.32437 19.0682 7.04956 20.6386 7.04883C22.2119 7.04883 23.4896 8.3149 23.4998 9.88458L23.4991 9.8853ZM20.6233 11.605C21.564 11.613 22.3473 10.8522 22.359 9.91734C22.3706 8.99126 21.5945 8.20133 20.6605 8.18895C19.7154 8.17657 18.9481 8.92865 18.9357 9.88021C18.9233 10.8281 19.6754 11.5969 20.6233 11.605Z" fill="white"/>
<path d="M17.0237 8.03497C16.7616 8.26722 16.4973 8.5002 16.2374 8.73026C15.0441 8.01313 14.2142 8.04517 13.5881 8.82199C13.0318 9.51291 13.0741 10.4594 13.6907 11.0935C14.3481 11.7699 15.2524 11.7655 16.2163 11.0571C16.4828 11.2879 16.7572 11.5252 17.0303 11.7611C16.0838 12.9828 14.1545 13.0767 12.9619 11.9817C11.7614 10.8795 11.7592 8.91882 12.9568 7.81801C14.1501 6.72085 16.0845 6.81258 17.0244 8.03424L17.0237 8.03497Z" fill="white"/>
<path d="M25.2069 14.4658H26.9112V15.6161C25.9371 15.6161 24.9899 15.6285 24.0434 15.6088C23.7297 15.6023 23.5476 15.3875 23.5127 15.0679C23.4545 14.5415 23.5251 14.0959 24.0413 13.7734C24.5764 13.4392 25.0649 13.0301 25.5629 12.6384C25.6619 12.5605 25.7092 12.4163 25.7798 12.3027C25.6546 12.2627 25.5308 12.1979 25.4027 12.1877C25.169 12.1688 24.9331 12.1826 24.7205 12.1826C24.6608 12.3996 24.6397 12.7017 24.5625 12.7163C24.2582 12.7745 23.9357 12.7505 23.6212 12.7374C23.5804 12.7359 23.5127 12.6231 23.512 12.5612C23.5076 12.219 23.4989 11.8746 23.5324 11.5346C23.5644 11.2114 23.7894 11.0498 24.1053 11.0469C24.8443 11.0396 25.5825 11.0388 26.3215 11.0461C26.7001 11.0498 26.9134 11.2616 26.9316 11.6337C26.9498 12.0021 26.9767 12.3785 26.9192 12.7388C26.8865 12.9463 26.7307 13.172 26.5654 13.3133C26.1242 13.6875 25.6473 14.0202 25.185 14.3689C25.1923 14.401 25.2003 14.433 25.2076 14.465L25.2069 14.4658Z" fill="white"/>
</svg>
