<svg width="39" height="38" viewBox="0 0 39 38" fill="none" xmlns="http://www.w3.org/2000/svg">
<path d="M29.2447 33.1591C30.0098 32.6943 30.7584 32.5873 31.5522 32.7478C31.6715 32.7724 31.8154 32.6943 31.9429 32.649C32.8972 32.3077 33.761 32.4681 34.563 33.0809C34.7193 33.2002 34.9291 33.2907 35.1265 33.3113C35.945 33.3976 36.599 33.7514 37.1049 34.4012C37.2242 34.5534 37.3723 34.6892 37.5245 34.8167C38.2772 35.4624 38.6967 36.2809 38.7913 37.264C38.8325 37.6918 38.6309 37.9221 38.199 37.955C38.0468 37.9673 37.8947 37.9591 37.7425 37.9591C25.8308 37.9591 13.9192 37.9591 2.00754 37.9591C1.88415 37.9591 1.76487 37.9591 1.64147 37.9591C1.09443 37.9385 0.896995 37.7329 0.925787 37.1941C0.979258 36.248 1.3988 35.483 2.08981 34.8455C2.27078 34.6768 2.43531 34.4671 2.54636 34.2491C3.13454 33.0768 4.22041 32.5051 5.51193 32.682C5.70525 32.7066 5.93559 32.6696 6.11245 32.5873C7.10783 32.1308 8.06208 32.2994 8.82301 33.0809C8.90116 33.1632 9.0081 33.2455 9.11504 33.266C9.52636 33.3606 9.94178 33.4305 10.4806 33.5334C10.4806 32.8465 10.4683 32.1678 10.4806 31.4933C10.5217 29.8192 10.5875 28.1452 10.6205 26.4752C10.6205 26.2737 10.5382 26.0187 10.3983 25.8788C9.23432 24.723 8.04974 23.5837 6.85693 22.4485C6.74588 22.3415 6.54433 22.2551 6.39626 22.2716C3.91604 22.5677 1.74019 20.7209 1.63325 18.2243C1.62502 18.0104 1.5551 17.7759 1.43993 17.595C0.226554 15.6577 1.16846 13.0746 3.35665 12.4083C3.64868 12.3178 3.79676 12.2068 3.87902 11.89C4.15049 10.833 4.79214 10.0597 5.77106 9.55378C5.93147 9.47152 6.08777 9.2782 6.13713 9.10545C6.63893 7.46842 7.69601 6.41957 9.37006 6.03294C9.61685 5.97535 9.71145 5.8643 9.76492 5.62574C10.2503 3.44577 12.0066 2.06376 14.2318 2.06787C14.4128 2.06787 14.6431 1.96916 14.7624 1.83342C16.7737 -0.416462 19.9984 -0.576874 22.203 1.48792C22.384 1.65656 22.5239 1.73471 22.7912 1.65656C25.1851 0.965553 27.7105 1.94448 29.0555 4.07097C29.1871 4.28074 29.3147 4.3918 29.5861 4.40825C32.4201 4.58923 34.5877 6.80209 34.7317 9.66895C34.7481 10.0227 34.8674 10.2818 35.0566 10.5738C35.3527 11.0222 35.5337 11.5487 35.7805 12.0299C35.8463 12.1574 35.9615 12.3055 36.089 12.3425C38.5034 13.087 39.4453 15.4973 38.1579 17.6443C38.0633 17.8006 38.0181 18.0104 38.0139 18.1996C37.944 20.6922 35.7764 22.5554 33.2838 22.2593C33.1316 22.2428 32.926 22.3168 32.8149 22.4238C31.618 23.5714 30.4293 24.7271 29.253 25.8953C29.1378 26.0104 29.0432 26.2079 29.0473 26.3642C29.1008 28.5976 29.1748 30.8352 29.2447 33.1591ZM8.15668 12.9142C8.08264 14.7075 9.23844 16.361 10.8919 16.8916C12.8991 17.5415 14.9516 16.6078 15.8359 14.6376C16.1238 13.996 16.3871 13.9137 16.9506 14.3045C18.0076 15.0366 19.1552 15.1929 20.385 14.868C20.9074 14.7322 21.0802 14.8104 21.2858 15.2793C22.1578 17.2371 24.1239 18.1544 26.1804 17.5456C26.5218 17.4428 26.8098 17.4551 27.1388 17.6073C28.1095 18.0597 29.0514 17.9281 29.8905 17.2988C30.7419 16.6654 31.1039 15.7687 30.9147 14.7281C30.816 14.1811 30.9517 13.9014 31.4329 13.6381C33.1563 12.7044 34.0077 10.726 33.5512 8.82164C33.0905 6.88436 31.3424 5.51468 29.2776 5.49823C28.8828 5.49823 28.5949 5.43242 28.3892 5.02933C27.3239 2.90695 25.0164 2.00206 22.7953 2.83292C22.3799 2.98922 22.0961 2.93986 21.7917 2.60258C19.9819 0.578917 17.0781 0.702312 15.441 2.86993C15.2148 3.17019 14.9639 3.28125 14.5855 3.24012C12.6071 3.02212 11.0235 4.33421 10.8508 6.30852C10.7973 6.90904 10.641 7.06945 10.0323 7.11469C8.88059 7.19695 8.03329 7.74812 7.55616 8.78463C7.07081 9.83759 7.13251 10.8947 7.8194 11.8571C8.07031 12.2068 8.28419 12.5358 8.14434 12.9142H8.15668ZM5.98906 10.8083C5.3762 11.2607 5.01425 11.89 4.94432 12.6921C4.89908 13.2474 4.75512 13.3955 4.22864 13.4407C3.31552 13.5147 2.63685 13.9507 2.25433 14.7775C1.86358 15.6207 1.9952 16.4268 2.51346 17.196C2.64508 17.3934 2.73968 17.6649 2.73557 17.8993C2.69855 19.4294 3.64046 20.7415 5.07183 21.0952C6.52788 21.4531 7.99627 20.7168 8.63381 19.3101C8.90939 18.7055 9.18908 18.615 9.7279 18.9811C10.4765 19.4952 11.2991 19.6104 12.167 19.4418C12.9444 19.2896 12.9403 19.2772 13.3146 20.0012C13.9768 21.2844 15.441 21.9796 16.675 21.5683C16.5886 21.4737 16.5187 21.3832 16.4364 21.3009C15.6261 20.5194 14.7953 19.7585 14.0138 18.9482C13.5161 18.4299 13.0431 18.1996 12.2575 18.2448C9.48111 18.4011 7.14485 16.1718 7.01734 13.3913C7.00912 13.1692 7.00912 12.9224 6.92274 12.7291C6.63893 12.0957 6.31811 11.4828 5.98495 10.8083H5.98906ZM17.8801 36.8115C18.0241 32.3159 18.1681 27.8449 18.3161 23.2546C18.1393 23.4151 18.0611 23.4768 17.9912 23.5467C16.5393 25.0192 15.0914 26.4958 13.6272 27.956C13.4009 28.1822 13.3269 28.4084 13.3392 28.721C13.4379 31.3205 13.5243 33.92 13.6189 36.5154C13.6189 36.6141 13.6518 36.7128 13.6724 36.8115H17.8801ZM26.0077 36.8033C26.0159 36.61 26.0283 36.429 26.0365 36.2522C26.1105 34.1257 26.1188 31.9909 26.2833 29.8727C26.3697 28.7539 26.164 27.9148 25.2714 27.1703C24.3419 26.4012 23.5357 25.484 22.6308 24.5832C22.3347 24.8958 22.0755 25.2166 21.7671 25.4798C21.4709 25.7349 21.3928 26.0146 21.4051 26.3971C21.5326 29.7246 21.6395 33.0521 21.7588 36.3797C21.7629 36.5236 21.7794 36.6676 21.7958 36.8403C23.1532 36.8403 24.4612 36.8403 25.765 36.8403C25.8391 36.8403 25.909 36.8198 26.0159 36.8074L26.0077 36.8033ZM27.7763 19.3389L27.8175 19.5117C27.9738 19.5281 28.1465 19.594 28.2905 19.5528C28.854 19.3883 29.4381 19.2608 29.9522 18.9934C30.6144 18.652 30.783 18.6603 31.0833 19.3554C31.6591 20.7004 33.1316 21.4366 34.5795 21.1117C36.0026 20.7909 36.9939 19.4541 36.9363 17.9857C36.9281 17.7225 37.0227 17.4181 37.1666 17.196C37.6808 16.4227 37.8083 15.6165 37.4175 14.7734C37.035 13.9466 36.3563 13.4942 35.4432 13.4407C34.9702 13.416 34.7728 13.1816 34.7317 12.725C34.7029 12.4001 34.6206 12.0834 34.5507 11.7255C34.1846 12.3055 33.9131 12.8607 33.5265 13.3173C33.1399 13.7739 32.6216 14.1235 32.1897 14.543C32.0951 14.6335 32.0746 14.8392 32.0787 14.9913C32.1568 17.1343 30.6473 18.833 28.5044 19.0346C28.2535 19.0592 28.0149 19.2279 27.7722 19.3307L27.7763 19.3389ZM26.6822 18.8618L26.6082 18.7014C26.1599 18.8454 25.6663 18.7754 25.2714 19.1868C23.9635 20.5441 22.6308 21.8809 21.3064 23.2217C21.0884 23.4438 20.8622 23.6495 20.5125 23.5014C20.1794 23.3616 20.1753 23.0695 20.167 22.7734C20.1136 20.7497 20.056 18.7261 20.0025 16.7065C20.0025 16.5996 20.0149 16.4885 19.9902 16.3898C19.9696 16.3199 19.8956 16.2623 19.8462 16.2006C19.7763 16.2623 19.6735 16.3076 19.6406 16.3857C19.6035 16.4762 19.62 16.5955 19.62 16.7024C19.5871 17.8418 19.5501 18.9852 19.5172 20.1245C19.5089 20.4207 19.4966 20.7086 19.1717 20.8526C18.8179 21.0089 18.5958 20.7909 18.3737 20.577C17.4154 19.6433 16.457 18.7096 15.4986 17.7718C15.1559 17.4373 14.7706 17.4524 14.3428 17.8171C14.4539 17.9035 14.5732 17.9734 14.6678 18.068C16.0662 19.4253 17.44 20.8032 18.8632 22.1318C19.3197 22.5595 19.4678 22.9996 19.4472 23.6125C19.2827 27.8243 19.1552 32.0362 19.0154 36.248C19.0112 36.4249 19.0154 36.6018 19.0154 36.791H20.6442C20.6442 36.5894 20.6483 36.4085 20.6442 36.2316C20.5249 32.7971 20.3974 29.3585 20.2987 25.9241C20.2904 25.6526 20.3892 25.303 20.5701 25.1138C21.8082 23.814 23.0791 22.5472 24.3378 21.268C25.1234 20.47 25.9049 19.668 26.6905 18.8659L26.6822 18.8618ZM11.7927 36.8157C11.6611 36.5565 11.5912 36.3097 11.4349 36.1411C10.9824 35.6558 10.53 35.1581 10.0076 34.755C9.74435 34.5534 9.33715 34.4794 8.98754 34.4629C8.62558 34.4465 8.36234 34.3766 8.12378 34.0845C7.67544 33.5375 7.02557 33.3976 6.44973 33.7473C6.08777 33.9694 5.76695 33.9735 5.3762 33.8789C4.56591 33.6773 3.7803 34.1545 3.47593 34.9236C3.3731 35.1827 3.17156 35.4295 2.95768 35.6187C2.58338 35.9519 2.23788 36.2809 2.13505 36.8198H11.7927V36.8157ZM27.9121 36.8115H37.5039C37.4299 36.2768 37.1008 35.9354 36.7142 35.627C36.5373 35.4871 36.3563 35.339 36.2247 35.1622C35.8463 34.6604 35.361 34.4012 34.7358 34.4547C34.4026 34.4835 34.1682 34.3766 33.9419 34.1298C33.4319 33.5745 32.7532 33.5046 32.0705 33.8254C31.8483 33.9282 31.544 33.9488 31.3054 33.8912C30.3141 33.6527 29.5656 34.0557 29.2283 35.0141C29.1542 35.2239 28.9897 35.4295 28.817 35.5694C28.4098 35.8984 28.0478 36.248 27.9121 36.8157V36.8115ZM12.4467 35.5324C12.4467 35.3102 12.4508 35.1498 12.4467 34.9894C12.3768 32.7519 12.2945 30.5184 12.2493 28.2809C12.2451 28.0135 12.3768 27.6804 12.5577 27.4829C13.3063 26.6644 14.1002 25.887 14.8775 25.0932C15.6426 24.3117 16.4035 23.5302 17.1645 22.7487L17.0698 22.613C16.8148 22.7652 16.5187 22.8803 16.313 23.0819C15.293 24.0814 14.3017 25.1138 13.2775 26.1133C13.113 26.2737 12.8374 26.4218 12.6194 26.4176C12.2163 26.4094 12.1547 26.0721 12.1423 25.7225C12.093 24.1307 12.0354 22.539 11.9778 20.9472H11.8421C11.8421 21.7986 11.8421 22.65 11.8421 23.5014C11.8421 23.8346 11.8667 24.1966 11.4636 24.3487C11.0893 24.4927 10.8714 24.2295 10.641 24.0032C9.88831 23.2752 9.12738 22.5472 8.37879 21.815C8.1937 21.6341 8.02506 21.523 7.84408 21.8562C8.90527 22.8845 9.93356 23.9415 11.0359 24.9205C11.6199 25.4387 11.805 25.9817 11.7639 26.7508C11.6364 29.2434 11.5788 31.7359 11.5007 34.2326C11.4965 34.393 11.4842 34.6028 11.5747 34.7056C11.8174 34.9853 12.1094 35.2239 12.4426 35.5282L12.4467 35.5324ZM31.6879 21.63C31.5892 21.4819 31.4329 21.6176 31.2684 21.7821C30.4828 22.5472 29.689 23.2999 28.9075 24.0649C28.6853 24.2829 28.418 24.4762 28.1506 24.2829C27.9697 24.1513 27.8298 23.8428 27.8175 23.6084C27.7805 22.6994 27.801 21.7863 27.801 20.8731C27.6941 20.9389 27.6817 21.0089 27.6817 21.0788C27.62 22.6294 27.5707 24.1801 27.4802 25.7266C27.4679 25.9611 27.3198 26.2613 27.1388 26.393C26.8673 26.5863 26.6 26.3847 26.3861 26.1585C26.1352 25.8912 25.8761 25.6361 25.6169 25.377C24.9835 24.7477 24.3501 24.1225 23.7249 23.5055C23.4041 23.6618 23.4905 23.8099 23.6797 23.995C24.7984 25.1138 25.9049 26.2449 27.0278 27.3596C27.3074 27.6392 27.4308 27.9313 27.4144 28.3303C27.328 30.5513 27.2663 32.7683 27.1964 34.9894C27.1923 35.1457 27.1964 35.302 27.1964 35.5077C27.4226 35.2897 27.5625 35.1005 27.7476 34.9812C28.1054 34.7509 28.1589 34.4465 28.1424 34.0516C28.0437 31.5303 27.982 29.0048 27.8668 26.4793C27.8422 25.8912 28.019 25.5004 28.4303 25.085C29.5327 23.9744 30.5815 22.8063 31.6838 21.6217L31.6879 21.63ZM21.257 21.5024C22.1948 20.5976 23.0709 19.7461 23.9429 18.8988C23.4576 18.7096 22.964 18.5616 22.5156 18.3271C22.0591 18.0844 21.6519 17.7513 21.257 17.4798V21.5024ZM18.2503 18.9852L18.5012 18.8947C18.5012 18.0515 18.5053 17.2083 18.493 16.3651C18.493 16.2952 18.3902 16.1842 18.312 16.1595C17.7403 15.9744 17.1645 15.8058 16.5722 15.6248L16.0128 16.4309L18.2503 18.9852ZM13.1953 24.4228L14.9598 22.7775L13.1953 21.8603V24.4228ZM24.6792 22.7611C25.2262 23.2834 25.802 23.8387 26.419 24.4269V21.8685L24.6792 22.7611ZM9.04101 20.7909L9.14795 20.7045L10.7932 22.4978C10.7932 21.8521 10.7973 21.3256 10.7891 20.8032C10.7891 20.7333 10.7192 20.6263 10.6575 20.6017C10.2626 20.4577 9.86363 20.3343 9.45232 20.1986L9.04512 20.7909H9.04101ZM30.1743 20.1862C30.0221 20.2562 29.8987 20.3096 29.7753 20.3631C29.471 20.4947 29.0309 20.5441 28.8951 20.7744C28.7429 21.0294 28.8663 21.449 28.8787 21.7945C28.8869 21.996 28.9157 22.1976 28.9362 22.3991L29.0761 22.432C29.5738 21.8891 30.0715 21.3461 30.5856 20.7826L30.1743 20.1862Z" fill="white"/>
<path d="M31.7217 9.77614C31.7093 9.68565 31.6888 9.45943 31.6353 9.23732C31.5489 8.86714 31.5942 8.55865 32.0014 8.43526C32.3386 8.33243 32.606 8.55043 32.7253 8.99876C33.1448 10.5618 32.3715 12.3139 30.9319 13.0502C30.5124 13.2641 30.2286 13.1983 30.0476 12.8445C29.8584 12.4661 30.0682 12.2523 30.3726 12.0754C31.298 11.5283 31.7134 10.8538 31.7176 9.77614H31.7217Z" fill="white"/>
</svg>
