<svg width="43" height="45" viewBox="0 0 43 45" fill="none" xmlns="http://www.w3.org/2000/svg">
<path d="M1.23086 10.1242C1.76729 8.24668 2.94744 7.08665 4.75118 6.66422C5.62958 6.46305 6.51469 6.44964 7.36627 6.43623C7.60096 6.43623 7.82895 6.42953 8.06363 6.42282C9.0158 6.40271 9.96796 6.38259 10.9268 6.36918C11.4096 6.36918 11.7382 6.20825 12.0332 5.85287L12.2411 5.60477C12.9787 4.71295 13.7498 3.78761 14.4002 2.80192C14.6751 2.39289 14.9702 1.96375 15.3457 1.58825C15.8016 1.12558 16.2844 0.864069 16.8141 0.783604C17.7328 0.642792 18.6313 0.843953 19.5633 1.4005C20.6966 2.07104 21.5012 3.06343 22.0779 3.86137C22.3863 4.29051 22.7082 4.88729 22.4131 5.6517V5.67182C23.0099 6.2753 23.3251 7.03301 23.3519 7.91812C23.372 8.83676 22.9294 9.514 22.0779 9.87609C21.8365 9.98337 21.5884 10.0504 21.347 10.0974L21.3738 10.2784C21.6152 11.8743 21.87 13.5305 21.7024 15.2337C21.6219 16.0182 21.5683 16.8094 21.5079 17.594C21.4207 18.8144 21.3269 20.0683 21.1525 21.3087C21.0318 22.2006 20.8843 22.9113 20.7033 23.5483C20.5222 24.1854 20.0327 24.2591 19.8316 24.2591C19.2616 24.2591 18.6916 24.2591 18.1217 24.2524H15.5334C15.2987 24.2524 15.0707 24.2524 14.8428 24.2524C14.7489 24.2524 14.655 24.2524 14.5611 24.2524C14.0381 24.2524 13.676 23.897 13.6626 23.3673C13.6425 22.3883 14.0314 21.6172 14.8025 21.1143C14.4941 20.1353 14.3533 19.1228 14.2125 18.1438L14.1186 17.4867C14.0448 16.9368 13.9644 16.3937 13.8973 15.8439C13.8839 15.7098 13.8504 15.5757 13.8168 15.4483C13.6961 15.5354 13.5687 15.6159 13.4346 15.6964C12.3282 16.3334 11.1615 16.2328 10.3837 16.0987C10.0954 16.0517 9.81374 15.9981 9.5187 15.9444C9.34436 16.7223 9.1499 17.5135 8.86828 18.2779C8.86828 18.3047 8.86828 18.3383 8.86828 18.3718V18.9485C8.86828 19.4044 8.87498 19.8604 8.86828 20.3164C8.86157 20.6315 8.90851 20.8461 9.0225 21.0405C9.13649 21.2283 9.21696 21.4227 9.29072 21.5971L9.33095 21.691C9.53882 22.1872 9.73327 22.7303 9.74668 23.3204C9.75339 23.5886 9.66622 23.83 9.50529 24.0043C9.25719 24.2591 8.86157 24.2658 8.47937 24.2658C8.09716 24.2658 7.72166 24.2658 7.33945 24.2658H3.84595C3.53751 24.2658 3.24247 24.2658 2.94744 24.2658C2.31042 24.2658 1.99527 24.0043 1.89469 23.3405L1.82764 22.8443C1.74717 22.281 1.66671 21.7178 1.61307 21.1478L1.58624 20.8461C1.51919 20.1353 1.44543 19.3977 1.55272 18.64C1.59295 18.3651 1.59295 18.1036 1.55272 17.8354L1.44543 17.2051C1.24427 16.0048 1.0297 14.7643 0.962645 13.5104C0.89559 12.1626 0.99617 11.0898 1.27109 10.1242H1.23086ZM20.1534 21.1813C20.3211 19.9744 20.4149 18.7339 20.5021 17.5336C20.5624 16.7357 20.6161 15.9377 20.6966 15.1398C20.8575 13.564 20.6228 12.0486 20.3747 10.4393L20.3412 10.2382C20.2138 10.2382 20.0931 10.2449 19.9724 10.2516C19.8182 10.2516 19.6706 10.2516 19.5164 10.2717C19.4561 11.0562 19.389 11.8877 19.2817 12.7192C19.2549 12.9471 19.2281 13.1617 19.2013 13.3696C19.2013 13.3897 19.2013 13.4031 19.2013 13.4232C19.1811 13.5976 19.1677 13.7719 19.1543 13.9395C19.1409 14.1139 19.1342 14.2882 19.1342 14.4626C19.1342 14.4827 19.1342 14.5095 19.1342 14.5296C19.1342 14.7375 19.1342 14.9521 19.1543 15.1599C19.161 15.2873 19.1744 15.408 19.1878 15.5354C19.1878 15.5689 19.1878 15.6025 19.2013 15.6427C19.208 15.7232 19.2214 15.8103 19.2281 15.8975C19.2348 16.0249 19.2415 16.1523 19.2348 16.2864C19.2214 16.4943 19.2013 16.7022 19.1878 16.9033C19.1744 17.0844 19.161 17.2654 19.1476 17.4532C19.1208 17.7348 19.0739 18.0164 19.0336 18.2913C19.0202 18.3986 19.0068 18.5059 18.9934 18.6132C18.7654 20.0347 18.457 21.5099 18.0077 23.2533H18.1351C18.6782 23.2533 19.2147 23.26 19.7578 23.26C19.9254 22.6632 20.0528 22.0195 20.1735 21.1813H20.1534ZM7.31934 23.26C7.78201 23.26 8.24468 23.26 8.70735 23.26C8.68053 22.8845 8.55313 22.5157 8.37208 22.0799L8.33185 21.986C8.2715 21.8385 8.21115 21.691 8.1441 21.577C7.84906 21.1009 7.82895 20.6181 7.83565 20.2962C7.84906 19.8537 7.84906 19.4111 7.84236 18.9619V18.3718C7.84236 18.2645 7.84236 18.1103 7.9027 17.9426C8.16421 17.2252 8.35196 16.4608 8.5196 15.7098C8.49948 15.7031 8.47266 15.6964 8.45255 15.6829C8.11728 15.5757 7.78871 15.4617 7.48027 15.3343C7.30593 15.9713 7.07794 16.6217 6.69574 17.2051C6.6421 17.2855 6.59516 17.3727 6.53481 17.4465C6.46776 17.5336 6.40741 17.6275 6.35376 17.7147C6.20625 17.9896 6.13919 18.2712 6.13919 18.6333C6.13919 18.8546 6.13249 19.0759 6.12578 19.2971C6.11237 19.6123 6.09896 19.9274 6.07884 20.2359C6.05873 20.598 6.03861 20.9601 6.04532 21.3624C6.07884 21.3892 6.11908 21.4294 6.15931 21.463C6.40741 21.6775 6.68233 21.9659 6.86337 22.3749C6.93043 22.5224 6.97736 22.6901 7.01089 22.8711C7.01089 22.8778 7.01089 22.8845 7.01089 22.8912C7.0243 22.9516 7.05112 23.0857 7.01089 23.2265C7.01089 23.2265 7.01089 23.2332 7.01089 23.2399H7.31263L7.31934 23.26ZM1.92151 13.4635C1.98857 14.6637 2.19643 15.8774 2.39089 17.0508L2.49817 17.6811C2.55852 18.0499 2.56523 18.412 2.50488 18.7942C2.41101 19.4312 2.47806 20.075 2.54511 20.7589L2.57193 21.0674C2.62558 21.6239 2.69934 22.167 2.7798 22.7169L2.84686 23.2131C2.84686 23.2131 2.85356 23.26 2.86027 23.2734H2.87367C3.1486 23.2667 3.48387 23.2734 3.79902 23.2734H5.99167C5.99167 23.2734 5.99838 23.2131 6.00508 23.1795C6.00508 23.1527 6.00508 23.1259 6.0185 23.0924V23.0723C5.96485 22.7437 5.7771 22.4688 5.4016 22.1603C5.36807 22.1335 5.34125 22.1 5.30773 22.0665C5.16021 21.9189 5.06633 21.7513 5.03281 21.5568C5.0194 21.4764 5.01269 21.3959 5.01269 21.302C5.0261 20.9198 5.04622 20.5443 5.06633 20.1621C5.08645 19.8537 5.09986 19.5519 5.11327 19.2435C5.11997 19.0423 5.12668 18.8479 5.12668 18.6534C5.12668 18.0902 5.25408 17.6208 5.51559 17.1782C5.58265 17.0642 5.6497 16.957 5.73687 16.843C5.76369 16.8094 5.78381 16.7692 5.81063 16.729C6.19954 16.1724 6.4007 15.5019 6.58175 14.7777C6.60186 14.7174 6.62198 14.6369 6.66221 14.5631C6.66892 14.5497 6.67562 14.5296 6.68233 14.5162C6.69574 14.4894 6.72256 14.4626 6.74268 14.4357C6.75609 14.4156 6.7695 14.3955 6.78961 14.3754C6.81643 14.3486 6.84996 14.3285 6.88349 14.3083C6.9036 14.2949 6.91702 14.2748 6.94384 14.2681H6.95054C6.98407 14.248 7.0176 14.2413 7.05112 14.2346C7.07794 14.2279 7.10476 14.2145 7.13159 14.2078C7.17852 14.2078 7.21876 14.2078 7.2657 14.2078C7.27911 14.2078 7.29252 14.2078 7.29922 14.2078C7.40651 14.2212 7.50709 14.2614 7.58085 14.2949C7.67472 14.3352 7.7686 14.3687 7.86247 14.4022C8.30503 14.5766 8.7677 14.7442 9.24378 14.885C9.67292 14.9655 10.1021 15.0392 10.5379 15.113C11.5437 15.2873 12.2813 15.2002 12.9183 14.8314C13.1664 14.6905 13.4011 14.4961 13.6492 14.2949L13.8303 14.1474C13.9845 14.0267 14.1923 13.9999 14.3667 14.0871C14.541 14.1742 14.655 14.3486 14.6483 14.5497C14.6483 14.7308 14.6952 14.9319 14.7556 15.1398C14.8092 15.3276 14.8562 15.5287 14.883 15.7433C14.9501 16.2797 15.0238 16.8229 15.0976 17.366L15.1914 18.0231C15.3323 19.0356 15.4865 20.0884 15.815 21.0606C15.9357 21.416 15.815 21.7178 15.4865 21.8787C14.9299 22.1737 14.6617 22.6096 14.6483 23.2667C14.9299 23.2667 15.2116 23.2667 15.5066 23.26H16.9483C16.9483 23.26 16.955 23.2064 16.9617 23.1795C17.431 21.3892 17.7529 19.8872 17.9809 18.459C18.0144 18.2645 18.0345 18.0633 18.0613 17.8622C18.0815 17.6946 18.1083 17.5135 18.1284 17.3526C18.1485 17.1782 18.1552 17.0039 18.1686 16.8296C18.182 16.6351 18.2022 16.4339 18.2156 16.2395C18.2156 16.1456 18.2156 16.0517 18.2089 15.9512C18.2089 15.8975 18.1955 15.8439 18.1887 15.7835C18.1887 15.7299 18.182 15.6829 18.1753 15.6293C18.1619 15.4952 18.1418 15.3611 18.1351 15.2203C18.1217 14.9923 18.115 14.7643 18.115 14.5363C18.115 14.5162 18.115 14.4961 18.115 14.476C18.115 14.2815 18.1217 14.0938 18.1351 13.8926C18.1485 13.725 18.1619 13.5573 18.1753 13.3964C18.1753 13.3562 18.1753 13.3159 18.1887 13.2757C18.2156 13.041 18.2424 12.8063 18.2692 12.5918C18.3832 11.7536 18.4503 10.8886 18.5173 10.0571C18.5173 9.96996 18.5441 9.90962 18.5575 9.84256C18.5642 9.80904 18.571 9.7621 18.5777 9.72857C18.6112 9.6347 18.6514 9.56094 18.7118 9.50059C18.8056 9.40671 18.9465 9.35307 19.1208 9.31954C19.1677 9.31284 19.208 9.29272 19.2683 9.28602C19.4896 9.25919 19.7176 9.25919 19.9456 9.25249C20.2071 9.25249 20.4485 9.23908 20.6831 9.20555C20.6831 9.20555 20.6831 9.20555 20.6898 9.20555C21.0654 9.15191 21.3805 9.09156 21.6688 8.96416C22.1449 8.763 22.3461 8.46126 22.3327 7.95165C22.3125 7.30793 22.0913 6.79162 21.6353 6.36918C21.3805 6.12779 21.3 5.84616 21.3939 5.49078C21.4006 5.43713 21.4207 5.35667 21.4476 5.28961C21.5347 5.06834 21.528 4.87388 21.233 4.46485C20.6831 3.70715 19.9925 2.85556 19.0202 2.2789C18.2893 1.84305 17.6255 1.68883 16.9348 1.79612C16.6197 1.84305 16.3381 1.99728 16.0363 2.31243C15.7212 2.62758 15.4597 3.00979 15.2116 3.37188C14.5343 4.3978 13.7498 5.34326 12.9921 6.25519L12.7909 6.50329C12.3081 7.08665 11.6979 7.37499 10.9201 7.38169C9.96796 7.3951 9.0158 7.41522 8.07034 7.43533C7.83565 7.44204 7.59426 7.44874 7.35957 7.44874C6.5214 7.46215 5.73016 7.47557 4.95905 7.64991C3.51739 7.98517 2.61217 8.88369 2.17632 10.4058C1.92822 11.2708 1.84775 12.2163 1.9081 13.4568L1.92151 13.4635Z" fill="white"/>
<path d="M24.9351 40.6825C24.9351 39.5937 24.9351 38.5204 24.9351 37.4408C24.4178 37.4953 23.9111 37.569 23.4021 37.5966C22.9188 37.6228 22.7744 37.4631 22.7721 36.985C22.7699 36.504 22.7717 36.0228 22.7717 35.4981C22.0364 35.6003 21.3357 35.6902 20.6391 35.8052C20.5653 35.8174 20.4827 35.9687 20.4597 36.0685C20.0622 37.7851 20.4332 39.3514 21.4446 40.7665C21.7506 41.1946 22.1331 41.5716 22.505 41.9476C22.8144 42.2604 22.8563 42.4102 22.6034 42.7534C22.224 43.2684 21.8318 43.7742 21.4543 44.2906C21.2572 44.5601 21.0333 44.6094 20.7336 44.4642C19.1405 43.6925 18.1084 42.4165 17.4492 40.8093C16.7904 39.203 16.6133 37.5289 16.7188 35.8041C16.8149 34.2331 16.985 32.6784 17.4404 31.1667C17.9359 29.5218 18.6887 28.0238 20.0129 26.8812C21.675 25.4469 23.6242 25.0398 25.7613 25.3066C26.0437 25.342 26.3571 25.2981 26.6298 25.2098C27.7384 24.8506 28.8061 24.7565 29.9422 25.2112C31.3795 25.7865 32.898 25.943 34.4531 25.7622C35.6361 25.6246 36.8122 25.6924 37.9481 26.12C39.3982 26.6657 40.3338 27.7079 40.8968 29.1214C40.9368 29.2217 40.9577 29.339 41.0237 29.418C41.9131 30.4805 42.2626 31.7668 42.4275 33.0876C42.6079 34.5335 42.6622 35.9955 42.7573 37.4514C42.7819 37.8268 42.5956 38.0518 42.317 38.0272C41.9838 37.9977 41.8996 37.7691 41.8881 37.4669C41.8492 36.4538 41.8112 35.4402 41.7408 34.4288C41.7041 33.9021 41.6006 33.3801 41.4629 32.8558C41.4289 33.3105 41.4294 33.771 41.3544 34.2187C41.1695 35.3235 40.9328 36.4198 40.7501 37.525C40.6225 38.2961 40.5289 39.0744 40.4573 39.8529C40.3421 41.1029 40.2593 42.3557 40.159 43.6071C40.1286 43.9848 39.9859 44.1203 39.6057 44.1212C38.0851 44.1248 36.5645 44.1253 35.0439 44.121C34.6686 44.1199 34.5134 43.9647 34.5066 43.5965C34.4992 43.186 34.4969 42.7752 34.5073 42.3649C34.5311 41.4202 35.1281 40.8124 36.216 40.6217C36.2878 40.2776 36.234 40.0152 35.9408 39.7392C35.5599 39.3804 35.2408 38.9404 34.9618 38.4936C34.7764 38.197 34.625 38.1277 34.2803 38.2141C33.0783 38.5152 31.8574 38.6562 30.6262 38.3918C30.1928 38.2988 29.7696 38.1585 29.3085 38.0306C29.3034 38.1362 29.2923 38.2605 29.2923 38.3846C29.2912 40.0751 29.2921 41.7659 29.2912 43.4564C29.291 43.994 29.1657 44.1221 28.6382 44.1226C27.1901 44.1237 25.742 44.1237 24.2936 44.1226C23.7657 44.1221 23.6424 43.9949 23.6409 43.4567C23.64 43.1668 23.6404 42.877 23.6409 42.5872C23.642 41.5972 23.989 41.0786 24.9351 40.6825ZM39.2974 43.2382C39.3154 43.1473 39.34 43.0669 39.346 42.9853C39.4268 41.9139 39.5015 40.8419 39.5854 39.7707C39.6354 39.1334 39.6563 38.4898 39.7666 37.8624C39.9229 36.9729 40.1882 36.1023 40.3383 35.2118C40.627 33.4992 40.7278 31.7781 40.2812 30.072C39.9031 28.6283 39.1303 27.4777 37.6724 26.9638C37.0575 26.7472 36.3838 26.6378 35.7306 26.6051C35.0255 26.5698 34.3127 26.7263 33.6041 26.7191C32.1738 26.7044 30.7742 26.4907 29.4233 25.9773C29.0316 25.8284 28.5748 25.7433 28.1626 25.7825C27.6329 25.8329 27.1201 26.0473 26.5956 26.1723C26.3943 26.2203 26.1733 26.2621 25.9737 26.2299C24.124 25.9322 22.382 26.1475 20.8533 27.3185C19.5347 28.3285 18.8109 29.7351 18.3202 31.2806C17.8267 32.8349 17.6575 34.441 17.5754 36.0606C17.478 37.9817 17.779 39.8162 18.7607 41.4986C19.2746 42.3793 19.9692 43.0804 20.905 43.5677C21.191 43.1853 21.4624 42.8227 21.7207 42.4775C21.693 42.4235 21.6896 42.4109 21.6817 42.4023C21.6082 42.3228 21.533 42.2444 21.4594 42.1647C19.7825 40.3519 19.0856 38.2553 19.6162 35.8014C19.7771 35.0571 19.827 35.0143 20.5745 34.9191C21.3004 34.8265 22.0242 34.7173 22.7719 34.6121C22.7719 34.1854 22.7768 33.7884 22.7703 33.3918C22.7654 33.0903 22.8561 32.859 23.1891 32.8234C23.4663 32.7939 23.6402 33.018 23.6413 33.3916C23.6445 34.3698 23.6424 35.3483 23.6424 36.3266C23.6424 36.4531 23.6424 36.5797 23.6424 36.7691C24.1726 36.645 24.6493 36.565 25.1061 36.4211C28.076 35.4866 29.7079 32.9822 29.3632 29.8903C29.3477 29.7506 29.2386 29.573 29.12 29.5016C28.4177 29.0782 27.7083 28.6645 26.9806 28.2873C26.8089 28.1984 26.5353 28.2006 26.3484 28.2691C25.9659 28.4094 25.6101 28.6229 25.2438 28.8071C24.9725 28.9435 24.7182 28.9539 24.5681 28.6461C24.4138 28.3294 24.6084 28.1504 24.8705 28.0191C25.2481 27.8304 25.6288 27.6482 26.003 27.453C26.4726 27.208 26.9262 27.2325 27.3805 27.4944C28.1851 27.9583 29.0012 28.4031 29.7932 28.8877C29.964 28.9922 30.1312 29.216 30.1674 29.4097C30.4259 30.7958 30.292 32.1514 29.7338 33.4519C29.0149 35.1267 27.736 36.2338 26.1036 36.9639C25.8835 37.0623 25.8054 37.1742 25.8083 37.4185C25.823 38.5778 25.816 39.7374 25.8142 40.8969C25.8135 41.3511 25.7341 41.4423 25.2942 41.5186C24.8836 41.59 24.5764 41.8492 24.5328 42.2348C24.4954 42.5631 24.5251 42.8991 24.5251 43.2346C25.8358 43.2346 27.1102 43.2346 28.4209 43.2346C28.4209 43.0885 28.4209 42.959 28.4209 42.8295C28.4209 41.0178 28.4137 39.2061 28.431 37.3944C28.433 37.1929 28.5228 36.9389 28.663 36.8046C28.8675 36.6089 29.0658 36.8321 29.2716 36.9305C29.7354 37.1521 30.2056 37.3901 30.7002 37.5104C32.0298 37.8336 33.3355 37.5746 34.6286 37.2384C35.106 37.1143 35.1873 37.1559 35.4354 37.5942C35.829 38.2889 36.2344 38.9724 36.9243 39.4327C37.0244 39.4995 37.0964 39.6736 37.1036 39.8027C37.1264 40.2121 37.1176 40.6235 37.1104 41.034C37.105 41.3374 36.9391 41.4993 36.6358 41.5123C36.4912 41.5186 36.3456 41.5069 36.2016 41.518C35.7779 41.5504 35.4325 41.8486 35.3904 42.2631C35.358 42.5813 35.3839 42.9054 35.3839 43.2387C36.7076 43.2382 37.9953 43.2382 39.2974 43.2382Z" fill="white"/>
<path d="M22.7738 30.6376C22.7407 30.8977 22.6039 31.072 22.3357 31.069C22.0702 31.0661 21.9082 30.8986 21.9127 30.6317C21.9167 30.3831 22.0751 30.225 22.3229 30.2171C22.5918 30.2083 22.7326 30.3768 22.7738 30.6376Z" fill="white"/>
</svg>
