<svg width="35" height="35" viewBox="0 0 35 35" fill="none" xmlns="http://www.w3.org/2000/svg">
<path d="M7.35932 34.7553C4.88373 32.2815 2.47023 29.8697 0.03125 27.4325C0.105429 27.3504 0.187566 27.2505 0.279255 27.1601C2.3311 25.1388 4.3804 23.1145 6.43766 21.0986C8.75566 18.8271 11.8094 18.2773 14.7648 19.6152C15.5836 19.9859 16.433 20.1259 17.3168 20.1275C18.2823 20.1294 19.2479 20.1138 20.2132 20.1221C21.1155 20.1297 21.9543 20.3337 22.6073 21.0136C23.7321 22.1848 23.258 24.0831 21.6509 24.7223C21.2068 24.8989 20.7032 24.9841 20.2231 24.9997C19.0359 25.0385 17.8468 25.0112 16.6584 25.0134C16.0847 25.0144 15.8911 25.1696 15.8797 25.6262C15.8695 26.036 16.0942 26.2272 16.6294 26.2282C18.5902 26.232 20.5513 26.2368 22.5118 26.2151C22.721 26.2129 22.9591 26.079 23.1316 25.9409C25.3455 24.1699 27.5282 22.3592 29.7705 20.6254C30.3757 20.1574 31.1311 19.8516 31.8589 19.5818C32.5877 19.3114 33.2642 19.6254 33.8458 20.0766C34.3393 20.4594 34.3329 21.1243 33.864 21.6516C32.127 23.6036 30.3868 25.5524 28.6479 27.5028C27.739 28.5222 26.8167 29.5302 25.9259 30.5656C24.8881 31.7721 23.5774 32.326 22.0021 32.3241C18.1547 32.3196 14.3073 32.3333 10.4599 32.3101C9.95271 32.3069 9.59996 32.4482 9.26345 32.8154C8.65347 33.4813 7.99987 34.1075 7.35932 34.7553ZM32.8786 20.9179C32.3807 20.6509 31.9261 20.697 31.5173 20.9315C30.9662 21.2481 30.4177 21.5854 29.9239 21.9831C27.7861 23.706 25.6722 25.4585 23.5376 27.1853C23.3602 27.3288 23.0934 27.4312 22.8671 27.4334C20.7882 27.4528 18.709 27.4484 16.63 27.4427C16.3804 27.442 16.1194 27.4299 15.8838 27.358C15.0099 27.0914 14.5457 26.2909 14.6817 25.3357C14.8147 24.4006 15.483 23.7894 16.4428 23.7757C17.7198 23.7579 18.9977 23.7948 20.2737 23.7553C20.6717 23.7429 21.1075 23.6341 21.451 23.4384C22.2345 22.9924 22.174 21.9748 21.3501 21.5994C21.0107 21.4447 20.6112 21.3703 20.2355 21.3569C19.2715 21.3223 18.3053 21.3324 17.3403 21.3429C16.1789 21.3557 15.1025 21.0776 14.022 20.6356C11.7123 19.6907 9.49999 19.9598 7.63853 21.6703C5.66149 23.4874 3.79111 25.4203 1.87489 27.3036C1.83382 27.344 1.80326 27.3953 1.81535 27.3793C3.68192 29.2467 5.53256 31.0985 7.41376 32.9805C7.88398 32.4997 8.40514 31.9919 8.89479 31.4555C9.13802 31.1889 9.4013 31.1068 9.75373 31.1077C13.7632 31.1182 17.773 31.1106 21.7824 31.1166C23.1157 31.1185 24.209 30.6817 25.1122 29.6454C27.4623 26.9495 29.8644 24.2988 32.2454 21.6296C32.4498 21.4008 32.6529 21.1718 32.8786 20.9179Z" fill="white"/>
<path d="M20.5049 15.3624C20.7962 15.0894 21.1028 14.8301 21.3696 14.5355C21.4588 14.4372 21.4842 14.245 21.475 14.0999C21.3613 12.2882 22.4823 10.8033 24.2546 10.4552C25.1935 10.2707 26.0196 10.6197 26.778 11.1043C27.6258 11.6461 28.4306 12.2558 29.2733 12.8492C28.6541 13.7668 28.0947 14.7152 27.4169 15.5708C26.4555 16.7847 25.0257 17.2295 23.7265 16.7589C23.2241 16.5769 22.7825 16.2272 22.1935 15.8842C21.8179 16.4016 21.4011 16.966 20.9965 17.539C20.8949 17.6829 20.8376 17.8572 20.7507 18.0122C20.4419 18.5636 19.9481 18.7968 19.376 18.667C18.8495 18.5477 18.4289 18.0519 18.4687 17.4452C18.6298 15.0038 18.8163 12.5637 19.0207 10.1256C19.0468 9.8144 19.0204 9.65499 18.7215 9.50163C16.1577 8.18598 16.0456 5.40958 16.9272 3.84607C17.6581 2.55015 18.8259 1.85652 20.2312 1.57653C21.4075 1.34204 22.609 1.23704 23.7955 1.05027C24.1696 0.991407 24.5316 0.853637 24.921 0.746094C25.3546 3.14131 25.5914 5.54385 24.1973 7.77999C23.4667 8.95214 22.5453 9.87708 21.0799 10.0584C20.9962 10.0689 20.8679 10.1895 20.8596 10.2694C20.682 11.9576 20.519 13.6475 20.3528 15.337C20.4034 15.3452 20.4543 15.3538 20.5049 15.3624ZM19.2344 8.35429C19.6985 6.58492 20.1146 4.82128 21.8624 3.84257C21.0952 5.41181 20.7962 7.06123 20.8446 8.78542C22.5291 8.92542 24.6653 5.83562 23.8704 2.3007C23.3482 2.35924 22.8143 2.38438 22.2948 2.48524C21.3534 2.66787 20.384 2.79737 19.4932 3.12891C18.3458 3.55622 17.6852 4.47797 17.6658 5.73221C17.648 6.88051 18.0927 7.81085 19.2344 8.35429ZM27.6713 13.1276C26.8779 12.6442 26.2192 12.1873 25.5112 11.8269C24.7958 11.4622 24.0897 11.6229 23.4749 12.1212C22.8914 12.5943 22.6905 13.23 22.7214 14.0079C23.6825 13.5889 24.6061 13.2195 25.6363 13.2803C24.6965 13.6468 23.7984 14.0716 23.0566 14.7697C23.9776 15.9323 25.2329 16.0554 26.2501 15.022C26.771 14.4928 27.1539 13.8282 27.6713 13.1276Z" fill="white"/>
<path d="M9.77002 12.8074C10.7942 12.1293 11.7722 11.3715 12.8492 10.8003C13.9275 10.2286 15.1013 10.2429 16.1401 10.9785C17.185 11.7179 17.6858 12.7775 17.5619 14.0537C17.4375 15.3394 16.6505 16.1994 15.4986 16.6748C14.3057 17.1673 13.117 17.0264 12.2014 16.0925C11.515 15.3925 10.9944 14.529 10.4067 13.7336C10.1966 13.4485 10.0047 13.1497 9.77002 12.8074ZM13.3599 13.039C14.2274 12.8866 15.2185 12.963 16.2156 13.173C16.0504 12.2238 15.201 11.5945 14.2338 11.6683C13.1014 11.7545 12.3411 12.5035 11.451 13.1946C11.9241 13.8265 12.3236 14.4765 12.8359 15.0206C13.8779 16.1272 15.5206 15.8275 16.2 14.4654C16.3512 14.1622 16.3331 13.9725 15.9841 13.8644C15.0768 13.5831 14.172 13.2948 13.3599 13.039Z" fill="white"/>
</svg>
