<svg width="34" height="38" viewBox="0 0 34 38" fill="none" xmlns="http://www.w3.org/2000/svg">
<path d="M20.1467 34.2202C21.4296 34.6856 22.6719 35.1343 23.9128 35.5867C25.9397 36.3257 27.9857 37.0177 29.9868 37.8228C31.7581 38.5354 33.4192 36.7354 33.1657 35.1523C32.738 32.4809 32.2921 29.812 31.8511 27.1427C31.0495 22.288 30.2445 17.4337 29.4453 12.5789C29.3023 11.7097 29.1007 10.8639 28.4495 10.2238C28.2255 10.0039 27.9474 9.82125 27.664 9.68594C27.2862 9.50581 26.8644 9.68217 26.6624 10.0445C26.4621 10.4035 26.5357 10.8669 26.9014 11.0838C27.4678 11.4194 27.6727 11.943 27.7717 12.5417C28.5854 17.4513 29.3958 22.3613 30.21 27.2705C30.6434 29.8841 31.091 32.4952 31.505 35.1121C31.5486 35.3881 31.4642 35.7224 31.3383 35.9792C31.1733 36.3156 30.8795 36.3864 30.4901 36.2427C27.1088 34.9923 23.72 33.7615 20.3333 32.5253C20.2157 32.4822 20.0977 32.4394 19.9788 32.3996C19.2382 32.1516 18.8413 32.4013 18.6809 33.1616C18.604 33.5261 18.471 33.8855 18.3143 34.2244C18.1726 34.5306 17.9253 34.6442 17.5567 34.5616C13.5246 33.6606 9.4883 32.7788 5.45494 31.8815C4.47039 31.6624 4.21147 31.3364 4.06269 30.3101C3.43472 25.9811 2.80385 21.6529 2.16424 17.326C2.10855 16.9486 2.21952 16.6759 2.54867 16.533C3.35202 16.1849 4.15454 15.8255 4.98199 15.5452C5.58211 15.3421 5.83396 14.9847 5.9175 14.366C6.26203 11.8094 6.64853 9.25866 7.01135 6.70456C7.08408 6.19349 7.28065 5.78464 7.70997 5.4692C8.12889 5.16088 8.19247 4.70134 7.93563 4.32599C7.67422 3.94437 7.19795 3.86478 6.74869 4.15801C5.99314 4.65107 5.55676 5.35986 5.42585 6.25633C5.16693 8.03209 4.913 9.80868 4.65533 11.5849C4.55268 12.2924 4.43257 12.9974 4.34529 13.7066C4.31495 13.953 4.20856 14.0598 3.98747 14.1498C3.19035 14.4745 2.37038 14.7648 1.62231 15.1837C0.758698 15.6676 0.390892 16.4471 0.545078 17.4865C1.20795 21.952 1.83634 26.4226 2.49339 30.8891C2.70078 32.2974 3.60262 33.1755 5.1208 33.5131C6.89955 33.909 8.67997 34.2981 10.4604 34.6886C12.6618 35.1716 14.8715 35.6198 17.063 36.1455C18.6289 36.5213 19.4817 35.6604 19.9613 34.6479C20.0204 34.5231 20.0715 34.3945 20.1463 34.2211L20.1467 34.2202Z" fill="white"/>
<path d="M13.8269 9.09598C13.6253 8.19994 13.9254 7.72322 14.8143 7.31185C16.4318 6.56284 17.1101 4.64339 16.5831 2.90911C16.091 1.28667 14.4345 0.158547 12.7309 0.285058C11.0116 0.412825 9.57405 1.76842 9.3168 3.5048C9.04624 5.32789 10.1127 7.07139 11.8632 7.63357C12.1291 7.71903 12.2002 7.84763 12.194 8.11029C12.1778 8.76882 12.1848 9.4286 12.1906 10.0875C12.1944 10.491 12.3187 10.8412 12.718 11.0104C13.2384 11.2307 13.7732 10.8596 13.8219 10.2312C13.851 9.85505 13.8273 9.47468 13.8273 9.09598H13.8269ZM10.9085 4.05608C10.9098 2.89445 11.8503 1.94059 13.0015 1.93389C14.1718 1.92676 15.1219 2.89151 15.1123 4.07745C15.1027 5.24746 14.1635 6.18121 13.0015 6.17618C11.8453 6.17116 10.9073 5.22107 10.9085 4.0565V4.05608Z" fill="white"/>
<path d="M22.1207 17.1144C21.8884 16.3738 22.2341 15.9042 23.114 15.5096C24.5262 14.8758 25.2663 13.1859 25.0128 11.6761C24.7464 10.0897 23.5084 8.80785 21.9785 8.53514C20.4047 8.25447 18.8458 8.99929 18.0595 10.4077C16.8937 12.4955 17.8966 15.0982 20.1636 15.838C20.4234 15.9226 20.5123 16.0407 20.5057 16.3101C20.489 16.9829 20.4932 17.6565 20.5032 18.3297C20.5115 18.8985 20.8327 19.2638 21.3028 19.2672C21.7724 19.2705 22.1053 18.8985 22.119 18.3414C22.1277 17.9912 22.1207 17.6401 22.1207 17.1148V17.1144ZM21.3227 14.3714C20.1682 14.3819 19.214 13.4414 19.197 12.276C19.1799 11.1261 20.1296 10.1458 21.2754 10.1299C22.4369 10.114 23.4202 11.0838 23.424 12.2492C23.4277 13.3987 22.4752 14.3609 21.3227 14.3714Z" fill="white"/>
<path d="M12.6928 28.2837C12.6928 27.9473 12.7115 27.6092 12.687 27.2745C12.6666 26.9964 12.7867 26.8887 13.0315 26.8032C15.6194 25.8971 16.4518 22.8714 14.7022 20.7534C13.6836 19.5201 11.7606 19.0832 10.3762 19.7706C8.718 20.5938 7.85065 22.266 8.21555 23.948C8.52309 25.3639 9.35678 26.3249 10.7162 26.794C11.0117 26.8958 11.0898 27.0395 11.0807 27.3332C11.0607 27.9917 11.0674 28.6511 11.0773 29.31C11.0857 29.878 11.4131 30.2379 11.8915 30.2316C12.357 30.2257 12.6699 29.8822 12.6886 29.336C12.7007 28.9858 12.6907 28.6347 12.6907 28.2845H12.6924L12.6928 28.2837ZM11.8786 25.3475C10.7287 25.3433 9.77321 24.3849 9.76739 23.2304C9.76157 22.0826 10.7158 21.1157 11.8682 21.1031C13.029 21.0902 14.0119 22.0763 13.9994 23.2408C13.9869 24.3979 13.0265 25.3517 11.8786 25.3475Z" fill="white"/>
<path d="M18.6981 2.9855C19.1948 2.877 19.8256 2.76641 20.4399 2.59507C20.8621 2.47736 21.1414 2.6223 21.2856 2.98215C21.4552 3.40525 21.5803 3.8518 21.6738 4.2992C21.7939 4.87394 21.8438 5.46377 21.9647 6.03851C22.0171 6.28693 22.1272 6.5521 22.2893 6.74144C22.52 7.00996 22.8529 7.02672 23.1691 6.8646C23.5215 6.68447 23.6691 6.36903 23.6051 5.99118C23.428 4.94348 23.2996 3.87861 23.0141 2.86024C22.7294 1.84565 22.1089 1.06103 20.9602 0.907707C20.8779 0.896815 20.7907 0.876708 20.7121 0.892626C19.8959 1.05851 19.0751 1.20681 18.268 1.41166C17.8283 1.52309 17.6172 1.9466 17.704 2.35839C17.7892 2.76306 18.1146 3.00142 18.6973 2.98592L18.6981 2.9855Z" fill="white"/>
</svg>
