<svg width="44" height="38" viewBox="0 0 44 38" fill="none" xmlns="http://www.w3.org/2000/svg">
<path d="M34.8339 32.5802C34.7383 33.3685 34.5389 34.1182 34.5825 34.8535C34.6535 36.052 33.8274 36.7375 33.2441 37.5685C33.1655 37.6803 32.9316 37.7232 32.7678 37.7274C32.0927 37.7447 31.417 37.7412 30.7415 37.7328C30.1718 37.7258 29.9903 37.4065 30.2697 36.916C30.41 36.6697 30.5584 36.4275 30.7088 36.1872C31.0373 35.663 31.2418 35.5166 31.892 35.3484C31.6625 33.6215 31.4321 31.8881 31.1965 30.1155C29.3018 30.8257 27.3353 31.2031 25.2812 31.4047C25.3885 32.1249 25.4899 32.8139 25.5947 33.5024C25.68 34.0632 25.9377 34.6617 25.8198 35.1749C25.6252 36.022 25.1988 36.8178 24.8414 37.6222C24.805 37.7042 24.5731 37.7272 24.4312 37.7298C23.7963 37.7409 23.1613 37.7401 22.5265 37.7329C21.95 37.7263 21.7464 37.4191 22.0335 36.9221C22.3058 36.4505 22.655 36.0242 22.9533 35.5666C23.0131 35.475 23.0412 35.3175 23.0068 35.217C22.6789 34.2599 22.3343 33.3087 21.9643 32.2706C21.7214 32.7315 21.5189 33.1311 21.3026 33.5228C20.4896 34.9957 19.6087 36.42 18.2578 37.4733C18.0717 37.6183 17.8023 37.7077 17.5647 37.7247C17.0404 37.7618 16.5116 37.744 15.9849 37.7339C15.4354 37.7232 15.249 37.4389 15.4695 36.9423C15.6061 36.6345 15.7497 36.3243 15.9362 36.0459C16.0668 35.8511 16.2507 35.6119 16.453 35.5611C17.0098 35.4211 17.142 34.9999 17.2923 34.5482C18.0481 32.2746 18.3832 29.979 17.6895 27.6233C17.6367 27.4439 17.5693 27.2687 17.5152 27.1111C17.1264 27.0877 16.7667 27.0673 16.407 27.0443C15.8306 27.0075 15.3584 27.2389 14.9358 27.6066C14.2686 28.1869 13.9635 28.2185 13.282 27.6375C12.8437 27.264 12.464 26.8152 12.0984 26.3672C11.9943 26.2397 11.9584 25.9696 12.0165 25.8108C12.3406 24.9247 12.6688 24.0369 13.0629 23.1806C13.4077 22.4314 14.0275 21.9571 14.8425 21.7729C15.2046 21.691 15.5333 21.5786 15.7828 21.2726C15.907 21.1206 16.0927 21.0121 16.2648 20.9074C16.7257 20.627 16.8644 20.6599 17.2305 21.0708C17.3044 21.1538 17.4188 21.2568 17.5139 21.2562C18.7023 21.2494 19.7441 21.7536 20.7987 22.1966C22.1293 22.7554 23.4649 23.2417 24.9494 23.0424C25.9261 22.9113 26.9046 22.7929 27.8845 22.689C29.8982 22.4757 31.9099 22.2189 33.9435 22.3992C36.1918 22.5985 38.1248 23.3894 39.2023 25.5011C39.6803 26.4377 39.9179 27.4987 40.2469 28.509C40.43 29.0717 40.5468 29.6573 40.7498 30.2121C40.9039 30.6336 41.2613 30.886 41.7162 30.9033C41.8999 30.9103 42.0859 30.7716 42.2762 30.7184C42.4564 30.668 42.7036 30.5547 42.8126 30.629C42.9502 30.7226 43.0631 30.9928 43.0352 31.1615C42.9675 31.5688 42.6396 31.7495 42.2494 31.8073C41.1397 31.9718 40.2461 31.482 39.8351 30.411C39.6142 29.8354 39.4813 29.2229 39.3419 28.6196C39.0793 27.4827 38.7813 26.3631 38.081 25.3997C37.9959 25.2825 37.9012 25.1723 37.8098 25.0572C37.8098 25.6682 37.8183 26.2535 37.8081 26.8384C37.7783 28.5902 38.3275 30.1626 39.3091 31.5872C39.555 31.944 39.6608 32.2693 39.6111 32.7079C39.4461 34.1712 39.3296 35.64 39.1916 37.1065C39.1453 37.5986 39.0114 37.7289 38.5357 37.7329C37.8468 37.7386 37.1577 37.7405 36.4688 37.7324C35.9303 37.726 35.7497 37.4921 35.9035 36.9826C36.0745 36.4156 36.2207 35.8321 36.8085 35.505C36.8883 35.4606 36.9113 35.2178 36.8802 35.0858C36.6165 33.9642 35.9233 33.1773 34.8339 32.5802ZM37.0128 28.5749C36.5081 28.9876 36.0414 29.374 35.5691 29.7537C35.2446 30.0148 34.9654 30.0266 34.7934 29.7753C34.586 29.4721 34.7381 29.25 34.9858 29.0505C35.5542 28.5931 36.1192 28.1311 36.6775 27.6616C36.7717 27.5823 36.8883 27.4557 36.8886 27.3504C36.8912 26.6618 36.9122 25.9677 36.8359 25.2855C36.7402 24.4316 36.0355 23.7028 35.194 23.5342C34.6138 23.418 34.0201 23.3714 33.434 23.2827C33.1611 23.2415 33.0633 23.3495 33.0046 23.6152C32.7516 24.7622 32.4743 25.9041 32.2014 27.0467C32.1293 27.3486 31.9792 27.6014 31.6189 27.5192C31.2611 27.4375 31.2265 27.1572 31.3023 26.8456C31.4297 26.3208 31.5571 25.7961 31.6813 25.2704C31.8347 24.6205 31.9844 23.9698 32.1638 23.1985C30.1255 23.3981 28.1737 23.5893 26.1749 23.785C26.3995 24.5896 26.6016 25.3153 26.8046 26.0408C26.9146 26.4338 26.8202 26.687 26.5293 26.7731C26.2558 26.854 26.0309 26.6721 25.9215 26.2779C25.7409 25.6275 25.5485 24.9799 25.3878 24.3245C25.312 24.0154 25.1692 23.9295 24.8523 23.9545C24.3703 23.9926 23.8817 23.9839 23.3986 23.9536C23.0677 23.9328 22.7413 23.8415 22.3854 23.7769C22.34 23.9254 22.3007 24.0518 22.2628 24.1786C21.7355 25.9372 21.2083 27.696 20.6812 29.4548C20.5906 29.7572 20.4322 29.9909 20.0747 29.8844C19.7154 29.7773 19.7165 29.4967 19.8075 29.1933C20.1102 28.1847 20.4096 27.1749 20.7112 26.1659C20.9766 25.2778 21.2429 24.39 21.5176 23.4728C21.0674 23.2914 20.6492 23.1227 20.158 22.9247C20.158 23.413 20.1545 23.8264 20.1591 24.2397C20.1628 24.5604 20.0709 24.8332 19.7056 24.8285C19.345 24.8237 19.2512 24.5455 19.2508 24.2301C19.2503 23.7569 19.2608 23.2831 19.2422 22.8106C19.238 22.7043 19.1556 22.537 19.0719 22.5087C18.6565 22.3681 18.2285 22.2647 17.7548 22.1344C17.7651 22.2776 17.7657 22.3416 17.7749 22.4045C17.8212 22.7206 17.7657 22.9974 17.399 23.0459C17.0606 23.0906 16.9372 22.8588 16.8721 22.5589C16.8167 22.3043 16.7137 22.0599 16.5971 21.7059C16.3614 21.9896 16.1593 22.1729 16.0313 22.3981C15.6729 23.0286 15.585 23.0629 15.0161 22.6805C14.4326 22.8062 14.0474 23.1828 13.8173 23.6927C13.512 24.3683 13.2564 25.0662 12.9908 25.7589C12.9585 25.8435 12.957 25.9869 13.0076 26.0492C13.3274 26.4428 13.6658 26.8211 13.9815 27.1856C15.3496 26.1701 15.3496 26.1675 17.0118 26.1756C17.328 26.1771 17.5608 26.0595 17.7048 25.7775C17.7783 25.6334 17.8409 25.4836 17.9146 25.3398C18.0336 25.1076 18.219 24.9871 18.4781 25.079C18.758 25.1784 18.8222 25.4018 18.749 25.6706C18.7208 25.774 18.6912 25.8903 18.6243 25.9675C18.2364 26.4154 18.3312 26.8741 18.5688 27.3431C18.5866 27.3782 18.5875 27.4216 18.598 27.4608C19.3825 30.3626 18.8876 33.1361 17.7625 35.8476C17.6458 36.1287 17.4558 36.2687 17.1457 36.2792C16.8232 36.2903 16.6457 36.4744 16.6128 36.7685C17.3699 37.0053 17.9205 36.718 18.3735 36.157C18.6616 35.7999 18.9818 35.4665 19.2479 35.0939C20.5604 33.2557 21.5156 31.2281 22.2931 29.1193C22.5166 28.5135 22.8211 28.1576 23.4756 28.1111C23.7752 28.0897 24.0371 28.1015 24.1141 28.4395C24.1904 28.7742 23.9815 28.9267 23.6845 29.0106C23.5383 29.0518 23.3298 29.102 23.2783 29.2099C23.067 29.6527 22.9051 30.1192 22.7038 30.6314C25.4183 30.5622 28.0145 30.2546 30.5275 29.3031C29.8691 29.0993 29.208 28.9006 28.5342 28.8362C27.6231 28.7493 26.7022 28.764 25.7854 28.7385C25.4908 28.7302 25.2688 28.6099 25.255 28.3009C25.2423 28.0165 25.4261 27.8577 25.7124 27.8393C27.8309 27.7031 29.8967 27.8888 31.8251 28.8713C31.9845 28.9526 32.1127 29.1035 32.2414 29.2356C32.6626 29.668 33.0313 30.167 33.5048 30.5298C34.3396 31.1694 35.2537 31.7041 36.1037 32.325C37.2167 33.1379 37.7706 34.2766 37.9036 35.6369C37.9385 35.9931 37.8164 36.2174 37.4504 36.2722C37.1595 36.3158 37.0089 36.4869 36.9315 36.8255C37.2859 36.8255 37.6064 36.806 37.9233 36.8312C38.2192 36.8547 38.3197 36.7497 38.3442 36.4544C38.4479 35.2019 38.5774 33.9515 38.6921 32.7C38.7041 32.5688 38.726 32.4086 38.667 32.3057C38.4268 31.8879 38.1568 31.4873 37.8854 31.0606C37.6963 31.1767 37.5341 31.3466 37.3545 31.3679C37.1621 31.3907 36.8868 31.3306 36.7741 31.1986C36.6942 31.1052 36.7772 30.8025 36.8741 30.6476C36.9662 30.5002 37.1875 30.4402 37.3195 30.309C37.3931 30.236 37.4525 30.0829 37.4286 29.9889C37.3125 29.5335 37.1663 29.0855 37.0128 28.5749ZM31.4396 36.845C31.8933 36.8198 32.4533 36.9558 32.6762 36.741C33.1177 36.3158 33.5872 35.8364 33.6509 35.123C33.7356 34.171 33.8888 33.2251 34.0067 32.2759C34.0185 32.1813 34.0262 32.031 33.9731 31.9922C33.4052 31.5756 32.8248 31.1764 32.23 30.76C32.23 30.8397 32.2238 30.8936 32.231 30.9456C32.4307 32.4029 32.6216 33.8612 32.8371 35.316C32.9531 36.1 32.8665 36.2421 32.0986 36.2704C31.7541 36.2833 31.5599 36.4503 31.4396 36.845ZM23.1093 36.6647C23.1372 36.7184 23.1654 36.7723 23.1933 36.826C23.4197 36.826 23.6483 36.8067 23.8721 36.8308C24.1735 36.8632 24.3105 36.7375 24.4455 36.4667C24.8302 35.6938 25.0395 34.9157 24.7517 34.0645C24.7432 34.0395 24.7462 34.011 24.7421 33.9843C24.6167 33.162 24.4911 32.3396 24.3609 31.4868C23.7921 31.5164 23.2656 31.544 22.7109 31.5729C22.7468 31.7041 22.7602 31.7696 22.7823 31.8318C23.2152 33.0507 23.6503 34.2691 24.0819 35.4884C24.2471 35.955 24.1459 36.1171 23.6976 36.2805C23.4833 36.3585 23.3042 36.5335 23.1093 36.6647Z" fill="white"/>
<path d="M34.5845 27.4434C34.1508 27.4598 33.923 27.1783 34.0302 26.8504C34.2306 26.2379 34.451 25.6317 34.6759 25.0276C34.7746 24.7623 34.9841 24.6514 35.2574 24.7465C35.5163 24.8366 35.6055 25.0576 35.5277 25.3007C35.3271 25.9272 35.1123 26.55 34.8732 27.1625C34.8199 27.2992 34.6442 27.3879 34.5845 27.4434Z" fill="white"/>
<path d="M28.3364 26.7527C28.378 26.5661 28.389 26.4711 28.4205 26.3836C28.6194 25.8277 28.8192 25.2721 29.0266 24.7192C29.1255 24.4553 29.3212 24.3339 29.5993 24.424C29.8865 24.5171 29.954 24.7457 29.8676 25.0062C29.6649 25.6174 29.4672 26.2325 29.2135 26.8228C29.1528 26.9641 28.8747 27.0936 28.7068 27.0818C28.5648 27.0719 28.4378 26.8498 28.3364 26.7527Z" fill="white"/>
<path d="M24.4936 26.6481C24.3785 26.7669 24.2604 26.9923 24.1196 27.0076C23.9507 27.026 23.6571 26.9084 23.6021 26.7739C23.4303 26.3541 23.3137 25.9033 23.2459 25.4538C23.2247 25.3147 23.4042 25.0391 23.5329 25.0104C23.6898 24.9752 23.9967 25.0889 24.0523 25.2183C24.2362 25.6472 24.3364 26.1123 24.4936 26.6481Z" fill="white"/>
<path d="M18.6902 12.2708C18.1871 12.4326 17.9482 12.6952 17.9167 13.2293C17.8558 14.2584 17.702 15.282 17.5823 16.3489C17.7669 16.3599 17.9255 16.3632 18.0828 16.38C18.3441 16.408 18.5056 16.5574 18.5133 16.8207C18.5217 17.1017 18.3635 17.2921 18.0832 17.295C17.1133 17.3047 16.1419 17.3213 15.1735 17.2767C14.6214 17.2513 14.1697 16.7302 14.0934 16.1683C14.085 16.1061 14.0837 16.0425 14.0812 15.9797C14.0331 14.8011 14.0334 14.8011 13.3891 13.6228C12.9336 14.5369 12.4966 15.4136 12.0182 16.3734C12.4181 16.3734 12.6911 16.3709 12.9644 16.374C13.2691 16.3776 13.4899 16.5027 13.4934 16.8335C13.4969 17.1622 13.2825 17.3036 12.9772 17.3058C12.1834 17.3113 11.3794 17.3833 10.599 17.28C10.1152 17.216 9.65708 16.8993 9.21085 16.6534C9.10519 16.5952 9.04475 16.3659 9.04652 16.2162C9.05667 15.388 8.71852 14.7036 8.22619 14.0711C8.04972 13.8442 7.89267 13.6023 7.7118 13.3461C6.35458 14.5912 4.81052 15.444 2.99296 15.7819C2.97377 16.0651 2.86392 16.3478 3.27 16.4848C3.36948 16.5184 3.4683 16.8011 3.4308 16.9291C3.38801 17.0748 3.19942 17.269 3.06178 17.2796C2.52334 17.3206 1.97829 17.3213 1.43964 17.282C1.2967 17.2716 1.10701 17.0906 1.04326 16.943C0.708862 16.1686 0.413948 15.3771 0.0930059 14.597C-0.0192687 14.3244 0.0164651 14.0889 0.242117 13.9192C0.979071 13.3644 1.25546 12.561 1.54 11.7279C2.37114 9.2947 3.30993 6.90851 4.63494 4.68564C5.48108 3.26611 6.70353 2.47182 8.2831 2.11892C9.88163 1.76183 11.4733 1.55548 13.1096 1.88056C14.1366 2.08471 15.0992 1.79538 16.0296 1.34206C16.4661 1.12931 16.9428 0.980999 17.4164 0.866236C18.2345 0.668049 19.0107 0.849904 19.6681 1.35442C20.2918 1.83334 20.9152 1.88719 21.6063 1.57424C21.7203 1.52259 21.8408 1.47735 21.9627 1.45153C22.3675 1.36612 22.7321 1.22355 23.0921 0.993137C23.7735 0.557258 24.352 0.713733 24.8419 1.33985C24.9439 1.47029 25.1047 1.56872 25.2573 1.64265C25.9426 1.9737 26.6286 2.32527 27.0846 2.94654C27.3585 3.31974 27.5815 3.77614 27.6693 4.22592C27.7456 4.61656 27.9329 4.83593 28.2269 5.01249C29.2151 5.60639 29.1997 5.50244 28.8049 6.67347C28.7566 6.8167 28.7528 6.99105 28.6657 7.10118C28.5197 7.28546 28.3443 7.52823 28.1438 7.57149C27.6069 7.68691 27.051 7.72333 26.5007 7.7646C26.0924 7.79506 25.7084 7.83655 25.3802 8.13273C25.2672 8.23469 25.0568 8.26007 24.8894 8.26448C24.3121 8.27971 23.7342 8.27044 23.2533 8.27044C23.3515 9.35716 23.4461 10.4183 23.546 11.479C23.5551 11.5747 23.5838 11.6767 23.6314 11.7597C24.3463 13.0029 25.0654 14.2439 25.7856 15.484C25.8866 15.6581 25.996 15.8278 26.1085 15.9949C26.2905 16.2652 26.5314 16.4149 26.8741 16.3762C26.9963 16.3626 27.1651 16.3484 27.2392 16.4155C27.3735 16.5374 27.5244 16.7137 27.5385 16.8786C27.5604 17.1324 27.3607 17.2906 27.1013 17.299C26.6606 17.3136 26.2126 17.2586 25.7796 17.3184C24.4828 17.4976 23.3954 17.1337 22.4529 16.2237C22.1732 15.9536 21.7887 15.7766 21.4285 15.608C20.0819 14.9775 19.3297 13.8481 18.7908 12.5308C18.7579 12.4507 18.7282 12.3695 18.6902 12.2708ZM16.6324 16.3685C16.7745 15.0801 16.9201 13.8534 17.0399 12.6244C17.08 12.213 17.2265 11.9506 17.6162 11.7436C18.9256 11.0481 19.9775 10.0841 20.6117 8.70323C20.6959 8.51961 20.9549 8.39778 21.1561 8.29075C21.4146 8.15347 21.6965 8.06034 22.0276 7.92372C21.3897 7.3605 21.3669 6.64235 21.2297 5.97077C21.1594 5.62581 21.3173 5.37973 21.5963 5.33096C21.8632 5.28417 22.0812 5.47066 22.1566 5.8176C22.2208 6.11289 22.255 6.41768 22.3492 6.7026C22.4087 6.88291 22.5212 7.13517 22.6664 7.18262C23.4298 7.43289 24.2402 7.45584 24.9869 7.20844C25.4386 7.05881 25.8628 6.85422 26.3496 6.83458C26.7396 6.81891 27.1318 6.80567 27.5169 6.74895C27.6444 6.73019 27.7849 6.60174 27.8632 6.48543C28.0796 6.16343 27.9951 5.93325 27.6407 5.73991C27.1344 5.46382 26.7755 5.06701 26.7539 4.43316C26.7376 3.95182 26.4826 3.56846 26.1129 3.27781C25.8372 3.06086 25.5416 2.86355 25.2337 2.69649C25.1208 2.63513 24.9319 2.64462 24.8042 2.69273C24.4729 2.81699 24.1875 2.67596 24.1348 2.32439C24.12 2.22507 24.1248 2.12157 24.1001 2.02534C24.0146 1.69143 23.8372 1.62544 23.5434 1.80509C23.1931 2.01916 23.3782 2.28069 23.479 2.53118C23.5952 2.8203 23.5496 3.07145 23.2586 3.20056C22.9653 3.33077 22.7456 3.18931 22.6167 2.9099C22.529 2.71966 22.4535 2.5239 22.369 2.32196C22.236 2.36235 22.1238 2.38464 22.021 2.42922C20.9937 2.87613 20.0324 2.85097 19.1179 2.11693C18.6159 1.71394 18.0064 1.65678 17.3934 1.84062C17.0213 1.95207 16.6477 2.07787 16.3009 2.25023C15.2309 2.78234 14.1121 3.02489 12.9307 2.80926C11.4349 2.53626 9.9778 2.71017 8.51095 3.03327C7.08116 3.34821 6.03121 4.09196 5.30617 5.38084C4.23856 7.27818 3.43875 9.28631 2.66076 11.3099C2.25269 12.3717 2.1724 13.6043 1.14208 14.363C1.09443 14.3981 1.09532 14.5522 1.12531 14.6312C1.32648 15.1611 1.53846 15.687 1.75661 16.2101C1.78617 16.2809 1.86977 16.329 1.92822 16.3877C1.96021 16.3732 1.99219 16.3586 2.02417 16.3442C2.02417 16.0324 2.01557 15.7201 2.0266 15.4087C2.03851 15.069 2.21299 14.8868 2.56481 14.8497C2.90142 14.8144 3.24022 14.7627 3.56668 14.6751C4.94971 14.3041 6.09606 13.525 7.16454 12.5961C8.33229 11.5809 9.70671 11.0296 11.2519 10.9212C11.8783 10.8773 12.5063 10.8524 13.1588 10.8173C13.3059 10.0175 13.6107 9.27859 14.0938 8.61937C14.2767 8.36998 14.5076 8.23822 14.8063 8.4331C15.0505 8.59244 15.0734 8.8597 14.8612 9.16052C13.8904 10.5372 13.7585 12.017 14.4251 13.5339C14.767 14.3121 15.142 15.0483 15.0235 15.9355C14.9931 16.1639 15.1435 16.3564 15.4049 16.365C15.8046 16.3782 16.2052 16.3685 16.6324 16.3685ZM22.3997 8.865C22.3538 8.84713 22.3079 8.82925 22.2623 8.81137C21.9497 8.99941 21.5169 9.11373 21.3475 9.38982C20.8755 10.1592 20.3565 10.8718 19.6859 11.4763C19.6081 11.5465 19.5289 11.7049 19.5558 11.7884C19.9559 13.0296 20.5576 14.1194 21.7911 14.7378C22.2248 14.9552 22.6381 15.216 23.0462 15.48C23.3414 15.6709 23.6338 15.8764 23.8893 16.1158C24.2735 16.4762 24.7047 16.3648 25.1827 16.3535C24.9803 15.9814 24.8131 15.6592 24.6322 15.3447C24.0754 14.3752 23.5337 13.3959 22.9425 12.4478C22.7352 12.1154 22.602 11.8087 22.5872 11.4097C22.5561 10.56 22.4657 9.71292 22.3997 8.865ZM13.0116 11.8058C11.4206 11.7941 9.89001 11.8586 8.49573 12.8014C8.72536 13.1309 8.93027 13.4297 9.14005 13.725C9.53819 14.2858 9.85185 14.8817 9.93457 15.578C9.99501 16.0869 10.3422 16.3954 10.8577 16.3623C10.9678 16.3553 11.1184 16.2443 11.1669 16.1416C11.4087 15.6318 11.6063 15.1008 11.8499 14.5919C12.2773 13.699 12.8171 12.8546 13.0116 11.8058Z" fill="white"/>
</svg>
