<svg width="33" height="33" viewBox="0 0 33 33" fill="none" xmlns="http://www.w3.org/2000/svg">
<path d="M13.3277 8.23936C13.411 8.07747 13.5332 7.9495 13.5347 7.82029C13.5532 6.33184 14.2321 5.32183 15.6424 4.80598C15.7451 4.76831 15.8603 4.5937 15.8636 4.4797C15.9132 2.80367 17.1978 1.22717 18.9068 0.854243C20.7236 0.457623 22.4339 1.23066 23.2859 2.87376C23.5274 3.33948 23.58 3.90173 23.7346 4.41509C23.777 4.55578 23.8454 4.76058 23.9516 4.79949C25.4592 5.34952 26.1099 6.44933 26.0702 8.05676C26.8519 8.39302 27.5453 8.88867 28.0434 9.61481C28.2305 9.88745 28.3911 10.183 28.5263 10.4849C28.643 10.7455 28.5667 10.9908 28.2896 11.1077C28.0152 11.2235 27.792 11.1167 27.6743 10.8491C27.274 9.93909 26.603 9.31522 25.6984 8.92184C25.301 8.74898 25.1254 8.42744 25.1232 7.99315C25.1162 6.64589 24.753 6.13578 23.4673 5.63564C22.9657 5.44057 22.8287 5.02998 22.8001 4.53882C22.7192 3.1514 21.7575 2.03687 20.4096 1.75075C18.6467 1.37633 16.9189 2.66947 16.8124 4.4812C16.774 5.13549 16.5246 5.52313 15.883 5.73067C14.9497 6.0325 14.4356 6.81477 14.4803 7.80831C14.506 8.38055 14.3214 8.7849 13.7754 8.98745C13.5367 9.076 13.5195 9.20996 13.5876 9.4387C14.1625 11.3689 14.6287 13.3236 14.8355 15.3314C14.8866 15.8273 14.8676 16.3304 14.9163 16.8268C14.9365 17.0336 15.0036 17.2671 15.1275 17.4277C16.1008 18.6874 18.2226 18.664 19.2019 17.3883C19.2859 17.2788 19.3308 17.1122 19.3331 16.9712C19.3455 16.194 19.3535 15.4157 19.3286 14.6389C19.3226 14.4553 19.2263 14.2363 19.0996 14.1014C18.5771 13.5453 18.0263 13.016 17.4868 12.476C17.1207 12.1093 17.0618 11.8571 17.2853 11.6256C17.5158 11.3871 17.7916 11.4452 18.1653 11.8279C18.5192 12.1903 18.8634 12.5623 19.2121 12.93C19.2545 12.9082 19.2969 12.8868 19.3396 12.8651C19.3396 12.3313 19.3388 11.7972 19.3401 11.2634C19.3406 11.097 19.2939 10.9032 19.3628 10.7707C19.4515 10.5996 19.6132 10.3988 19.782 10.3524C20.0474 10.2796 20.2198 10.4841 20.2624 10.7493C20.2886 10.9122 20.2784 11.0813 20.2786 11.2477C20.2799 12.0881 20.2791 12.9285 20.2791 13.7686C20.3168 13.7895 20.3547 13.8105 20.3924 13.8312C20.7705 13.4343 21.1436 13.0327 21.528 12.6421C21.8258 12.3393 22.1179 12.2936 22.3164 12.5206C22.5836 12.8264 22.4277 13.0756 22.1872 13.3129C21.624 13.8686 21.0566 14.4206 20.5143 14.9961C20.3884 15.1298 20.3046 15.3471 20.2896 15.5332C20.2564 15.947 20.3058 16.3676 20.2714 16.7814C20.239 17.172 20.3951 17.4312 20.6775 17.6749C22.186 18.9775 24.3475 18.425 24.9511 16.5347C25.1511 15.9083 25.431 15.4988 26.061 15.2179C27.0552 14.7749 27.6274 13.9175 27.8646 12.8576C27.9379 12.5298 28.0599 12.2998 28.433 12.3445C28.7341 12.3804 28.8999 12.6775 28.7717 13.0634C28.5682 13.6758 28.3091 14.2695 28.0691 14.8826C30.8425 15.6881 32.1801 17.6832 32.0018 20.5625C31.8421 23.142 30.4277 24.8505 27.81 25.4375C27.81 27.5423 27.81 29.6499 27.81 31.8163C27.9696 31.8163 28.1165 31.8163 28.2634 31.8163C29.3048 31.8163 30.3459 31.8215 31.3872 31.8136C31.7284 31.8108 32.0354 31.8729 32.0312 32.277C32.0272 32.6727 31.7239 32.7457 31.3822 32.7455C27.5643 32.742 23.7464 32.7432 19.9284 32.7432C13.5699 32.7432 7.21135 32.7432 0.852553 32.7432C0.297337 32.7432 0.0688655 32.6128 0.0563943 32.2902C0.0431749 31.952 0.273393 31.8165 0.863279 31.8165C2.73744 31.8163 4.61186 31.8165 6.48603 31.8165C6.63643 31.8165 6.78658 31.8165 6.9754 31.8165C6.98787 31.6529 7.00657 31.5205 7.00682 31.3878C7.00882 29.3884 7.00308 27.3889 7.01381 25.3896C7.0153 25.1079 6.95769 24.9765 6.64765 24.9276C3.34629 24.4065 1.41326 22.3478 0.419555 19.2871C-0.154119 17.52 -0.0134442 15.7115 0.335748 13.93C0.647527 12.3405 1.0713 10.773 1.44718 9.19599C1.46963 9.10194 1.50255 9.01015 1.53248 8.9181C1.63275 8.61178 1.85299 8.49579 2.14881 8.58833C2.44238 8.68038 2.50049 8.9201 2.42492 9.19449C2.23336 9.88945 1.98593 10.5734 1.85149 11.2791C1.53772 12.9257 1.18129 14.5726 1.01568 16.2366C0.715371 19.2564 2.3678 22.2248 4.95457 23.4668C5.5664 23.7607 6.25282 23.8991 6.96642 24.1286C6.98762 23.8777 7.00607 23.7579 7.00632 23.6382C7.00882 22.6801 7.02104 21.7217 6.99685 20.7643C6.99186 20.568 6.89184 20.3328 6.7574 20.1886C6.24683 19.6406 5.70583 19.1205 5.17231 18.5941C4.94135 18.3661 4.80641 18.1239 5.05309 17.8338C5.26535 17.5841 5.52425 17.6146 5.83703 17.9281C6.18946 18.2813 6.52893 18.6473 6.98038 18.9765C6.98961 18.8383 7.00632 18.6999 7.00682 18.5617C7.00907 17.5482 7.00782 16.5345 7.00857 15.521C7.00857 15.396 6.96766 15.2393 7.02703 15.153C7.14725 14.9779 7.30463 14.7429 7.47973 14.7105C7.75235 14.6601 7.93892 14.8819 7.94715 15.174C7.96037 15.6317 7.95264 16.0902 7.95363 16.5484C7.95388 16.6956 7.95363 16.843 7.95363 16.9902C7.99903 17.0211 8.04442 17.0518 8.08982 17.0827C8.45971 16.6791 8.81489 16.2601 9.20848 15.8809C9.32421 15.7694 9.55917 15.7103 9.71905 15.7395C9.84102 15.7617 10.0196 15.9657 10.0139 16.081C10.0049 16.2643 9.90113 16.4766 9.77118 16.6143C9.24764 17.1693 8.69267 17.6946 8.16415 18.2454C8.06014 18.3537 7.96386 18.525 7.96286 18.668C7.94939 20.3757 7.95438 22.0836 7.95638 23.7914C7.95638 23.8577 7.97658 23.9243 7.99229 24.0203C9.20748 23.9323 10.27 23.4918 11.1889 22.7364C13.2683 21.0267 14.1525 18.7653 13.9356 16.1326C13.5901 11.9401 12.4737 7.949 10.4172 4.25744C10.0573 3.61138 9.58012 3.00722 9.05982 2.47939C8.00202 1.40602 6.99685 1.42597 5.90163 2.46692C5.03289 3.29258 4.44899 4.31881 3.92894 5.3817C3.66705 5.91676 3.43483 6.46679 3.20586 7.01707C3.07367 7.33487 2.8669 7.51621 2.53167 7.37528C2.21565 7.24232 2.20168 6.97691 2.32465 6.67583C2.95045 5.14248 3.65108 3.65054 4.71362 2.3604C5.25886 1.69837 5.88392 1.13188 6.72348 0.867464C7.58324 0.596565 8.37117 0.797369 9.09474 1.28878C10.1346 1.99496 10.8537 2.98901 11.4074 4.08408C12.0746 5.4044 12.6535 6.76962 13.3277 8.23936ZM19.3056 31.7929C19.3056 27.3974 19.3056 23.0256 19.3056 18.6064C17.741 19.5395 16.2357 19.5939 14.7818 18.4811C13.848 22.0807 11.781 24.4504 7.98731 25.0206C7.98731 27.2801 7.98731 29.5324 7.98731 31.7926C11.7763 31.7929 15.5306 31.7929 19.3056 31.7929ZM26.8442 31.8163C26.8442 29.6521 26.8442 27.5373 26.8442 25.4145C26.6205 25.3629 26.4159 25.3265 26.2179 25.2683C24.1711 24.6672 22.7083 22.7282 22.6287 20.5074C22.615 20.124 22.6267 19.7396 22.6267 19.459C21.7757 19.1846 21.0349 18.9459 20.3143 18.7136C20.3143 23.0355 20.3143 27.4123 20.3143 31.8163C20.445 31.8163 20.5403 31.8163 20.6356 31.8163C22.6891 31.8163 24.7428 31.8163 26.8442 31.8163ZM27.7962 24.5177C28.2914 24.3077 28.7353 24.181 29.1142 23.9485C31.0567 22.7567 31.7045 19.907 30.5112 17.8286C29.7749 16.5462 28.7106 15.7774 27.1692 15.825C26.7514 15.838 26.047 16.2636 25.9525 16.5397C25.5736 17.6447 24.9256 18.5248 23.8584 19.0631C23.7561 19.1147 23.6536 19.2464 23.6281 19.3584C23.243 21.0629 24.0896 23.0897 25.5791 23.9722C25.9538 24.1942 26.3902 24.3117 26.8691 24.506C26.8691 23.06 26.8719 21.7574 26.8671 20.4548C26.8659 20.1325 26.9208 19.8603 27.3109 19.8339C27.6239 19.8127 27.7913 20.0359 27.795 20.4637C27.7985 20.8524 27.7957 21.241 27.7957 21.6297C27.8367 21.6431 27.8778 21.6566 27.9187 21.6701C28.1237 21.4446 28.3253 21.2156 28.535 20.9946C28.7563 20.7613 29.0249 20.6902 29.2671 20.9257C29.5135 21.1652 29.4322 21.4256 29.2035 21.6526C28.7999 22.0532 28.3931 22.4511 28.0015 22.8634C27.9055 22.9647 27.8147 23.1136 27.8052 23.2466C27.779 23.6175 27.7962 23.9922 27.7962 24.5177Z" fill="white"/>
</svg>
