<svg width="65" height="47" viewBox="0 0 65 47" fill="none" xmlns="http://www.w3.org/2000/svg">
<path d="M64.6353 9.414C64.5153 4.654 60.2353 0.754004 55.4853 0.734004C47.9753 0.684004 40.4653 0.714004 32.9453 0.714004V0.744004C25.3553 0.744004 17.7553 0.704004 10.1553 0.764004C5.43528 0.804004 1.14528 5.014 1.07528 9.714C0.955283 18.434 0.915283 27.174 0.915283 35.894C0.915283 37.234 1.20528 38.654 1.72528 39.874C3.61528 44.294 7.22528 46.104 11.8853 46.104C26.1353 46.104 40.3953 46.144 54.6453 46.084C60.2553 46.064 64.8253 41.944 64.8753 36.624C64.9453 27.554 64.8553 18.474 64.6353 9.414ZM60.8353 36.554C60.6453 39.134 58.9553 41.104 56.4853 41.734L11.2853 42.094H11.0453C7.58528 41.924 4.96528 39.634 4.98528 36.184C5.05528 27.334 5.26528 18.474 5.59528 9.634C5.71528 6.364 7.83528 4.624 11.1553 4.574C14.5853 4.524 18.0253 4.534 21.4553 4.534C32.2753 4.544 43.0853 4.554 53.9053 4.564C56.2853 4.574 58.5153 5.084 59.7953 7.284C60.3853 8.314 60.8253 9.594 60.8453 10.764C60.9353 17.824 60.8953 24.884 60.8953 31.944C60.8853 33.484 60.9553 35.024 60.8353 36.554Z" fill="white"/>
<path d="M42.5954 25.1441L27.2554 34.0041C25.9254 34.7741 24.2554 33.8141 24.2554 32.2741V14.5541C24.2554 13.0141 25.9254 12.0541 27.2554 12.8241L42.5954 21.6841C43.9254 22.4541 43.9254 24.3741 42.5954 25.1441Z" fill="white"/>
</svg>
