<svg width="62" height="41" viewBox="0 0 62 41" fill="none" xmlns="http://www.w3.org/2000/svg">
<path d="M0.291032 26.2866L0.808451 25.2102V24.5547L1.1399 23.7939V22.5476L1.56839 21.0341L1.96452 17.7321L2.60321 15.2313L3.50057 14.0821L4.6324 12.3826L4.85877 11.8808H5.23874L5.35193 11.4599L6.03912 10.9258L6.39483 9.16147L6.92841 7.94749L7.73686 7.53474L10.5179 6.30458L10.7039 5.94848L12.9756 3.73095L14.3904 3.27773L15.7082 2.18516L19.8151 0.671732L25.5308 0L32.6452 0.671732L38.9673 1.90189L41.2148 1.26254L42.4436 1.48914L43.5754 2.1285L44.7719 2.02329L46.5344 1.26254H49.849L52.1531 2.58172L53.002 4.24082L54.3278 4.88018L55.0392 5.61666L55.9124 6.61212L57.5697 10.1731L58.079 13.7341L58.9926 16.769L58.9845 18.7114L59.2028 19.3508L58.7662 21.018L58.7581 22.7175L56.834 26.3675L56.4136 27.2497L56.6238 27.5492L57.5697 28.3018L58.7581 29.3054L59.8091 29.7019L59.6717 30.2361H58.7581L57.9254 29.9366L55.9205 28.2937L55.4192 29.3539L54.9099 30.9483L55.1039 32.6883L56.8421 35.5938L58.5722 37.0424L60.3103 37.8194L61.5473 37.6009L62 38.0298L61.6524 39.1871L61.2077 39.5756L61.038 40.3445L60.5529 40.6439L59.7282 39.5351L57.8122 38.8148L54.0934 35.5776L53.2526 34.6388L53.0181 33.4814L52.6624 32.745V31.7981L52.428 30.8754L52.6624 29.9043L53.002 28.2775L53.6568 25.7363L53.7296 25.4611L53.0828 24.4171L52.3309 22.3776L52.0399 20.2815L52.0561 18.3553L50.1885 19.4236L47.7794 19.6583L45.0306 17.9668L43.5835 19.8364L43.7129 23.4864L43.2601 27.6705V33.0363L42.7346 34.396L42.2415 34.9463L41.8373 36.4921L41.8534 37.3662L42.8802 38.0703L43.3329 38.5801L44.0443 39.0091L45.16 39.1952L45.6289 39.5756L45.8553 40.1178L45.7016 40.6439L45.2328 40.9029H44.3435L42.1445 41L40.0829 40.9029L37.6333 40.7653L36.3964 40.1178L36.3721 39.8427C36.3641 39.8427 36.3641 39.8346 36.3641 39.8346H35.8143L34.4642 39.8993L32.8473 39.9398L32.0631 39.6323L31.7074 39.0334L31.9661 37.8679L32.6856 36.9372L32.7745 36.1522L32.8392 35.3591L33.68 33.5381L33.3486 32.3241L33.1707 30.7136L33.5264 28.5932V27.1364L33.1707 26.6184V24.9836L32.6371 25.0645L30.7615 25.9062L25.2155 27.5006L23.2348 27.5896L21.2865 27.2011L20.1789 31.1344L19.9849 32.4779L19.7747 33.5543L19.4028 34.6469L19.5806 35.7475L20.3244 36.654L21.4886 37.269L21.8686 37.8032L22.4911 37.8679L23.1378 38.5154L23.2834 39.1952L23.0166 39.438L21.9413 39.4947L20.9469 39.3733H19.9849L18.3922 39.4947H17.0745L16.8966 39.7779L16.2256 39.8508L15.8052 39.9964L15.3201 40.045L14.1236 39.956L12.9837 39.7375L11.4881 39.8103L10.3562 39.9641L8.90911 39.8589L8.31085 39.0576L8.48872 37.8194L8.71507 35.6828L8.90911 33.1577L9.46694 31.5472L10.4937 29.1759L10.4775 26.319L7.30029 19.6745L6.15229 14.3492L5.35193 14.3735L4.16352 15.8302L3.0155 17.6188L2.44959 20.8642L1.79476 24.4252L0.816524 26.4728L0.452721 27.015L0.121269 27.2011L1.50838e-06 26.7965L0.291032 26.2866ZM38.3528 31.7981L37.8274 33.1577L36.833 35.1891L36.5823 36.7106L37.0512 37.4228L37.221 37.2286L37.9405 35.529L38.5631 33.441L38.3528 31.7981ZM13.8002 36.6054L14.9159 37.6494L15.1422 37.7385L15.3767 36.8644L15.6516 36.3788L15.9588 35.8689V34.4688V32.7288L15.5465 31.0373L15.0776 29.9366L14.1398 32.575L14.1155 34.0156L13.299 35.2458L13.1373 36.0874L13.8002 36.6054Z" fill="#688C61"/>
</svg>
