<svg width="62" height="42" viewBox="0 0 62 42" fill="none" xmlns="http://www.w3.org/2000/svg">
<path d="M4.59375e-07 21.397L0.180999 19.9727L0.567619 19.1974L0.77328 18.5907L0.995411 18.2283L1.23397 17.5457L1.66996 16.9221L1.87562 16.1889L2.01548 15.3546L2.08951 14.1663L2.31165 13.3489L2.69007 12.1775L2.94506 11.8657L3.16719 11.4696L3.55385 11.1241L4.18726 10.4752L4.82895 10.0032L5.17444 9.92738L5.46237 9.68299L6.11225 9.54816L8.58842 8.77284L12.0764 7.29806L13.8534 7.01996L18.0736 6.0761L24.5807 3.37936L30.8657 0.834306L35.5959 0H40.6141L42.901 0.463501L44.2502 0.12641L45.188 0.463501L46.2081 1.12926L47.1048 2.46921L48.0426 3.38778L48.1248 4.26422L48.6513 5.05639L48.4045 5.8907L49.1367 6.55646V6.89355V7.31492L49.6303 7.98067L50.8725 8.48631L51.8514 8.5453L52.5425 8.77284L53.7271 8.35147L54.1137 8.77284L55.5204 9.08465L56.9271 8.66329L57.8897 8.30934C57.8897 8.30934 58.7041 8.77284 58.7699 8.77284C58.8274 8.77284 59.7488 8.77284 59.7488 8.77284L60.3411 9.04252L60.3 9.54816L60.2835 10.3825L60.7525 11.0904L61.0157 11.9247L60.6044 12.5483L61.172 13.0539V13.8292L61.7808 13.9978L61.4928 14.6045L61.7067 15.0512C61.7067 15.0512 61.8712 15.6664 61.9782 16.5344C62.0934 17.4024 61.715 17.6637 61.715 17.6637L61.6985 18.3041H61.427L61.2707 18.8772L61.0239 18.0092L61.0321 19.0205L60.736 18.8098L60.7525 18.4053L60.5303 17.9333C60.5303 17.9333 60.3905 17.8322 60.4316 18.1103C60.4728 18.3884 60.4728 19.1132 60.4728 19.1132L60.2918 19.6609L60.2753 20.5205L60.3987 20.984L60.4316 21.6329L59.9133 21.7593L60.0943 21.9616L59.6501 22.0206L59.8475 22.1807L59.4691 22.3071L59.5185 22.5599L59.0907 23.0656L59.0825 23.8156L59.0743 24.1106L58.9838 24.8943L58.8439 25.0966C58.8439 25.0966 58.6136 25.3747 58.3092 25.7707C58.0048 26.1668 57.3138 26.3017 57.3138 26.3017L56.7215 26.3944L56.4336 26.7062L56.2608 26.9337L56.2937 27.2371L55.9564 27.4815L55.6685 28.1473L55.5533 29.0574C55.5533 29.0574 55.5451 29.622 55.504 30.49C55.4628 31.3581 55.2325 31.4676 55.2325 31.4676L55.0268 32.0828L54.7225 32.5632L54.8129 31.8806L54.6073 32.0828L54.3934 32.5716L54.1713 32.6222L53.9903 33.0435L53.9245 32.9424L53.8751 32.6727C53.8751 32.6727 53.9985 32.3019 54.0067 32.2851C54.015 32.2682 53.941 31.9143 53.941 31.9143L53.76 31.6614L53.6695 31.9311L53.398 32.4705L53.2828 32.816L53.0854 32.9845L53.1018 32.6559L53.0689 32.0912L52.9044 31.7036L52.7645 31.8637V32.2261L52.5178 31.5182L52.3039 31.3581L52.271 31.8468L52.0571 31.4086L51.5799 30.5153L51.1357 29.9507L50.9712 28.5602C50.9712 28.5602 50.9547 27.9787 50.9547 27.9366C50.9547 27.8944 50.9959 27.254 50.9959 27.254L50.8972 26.4534L50.2719 25.6191L49.7784 25.1808L48.8158 25.3831L48.0755 25.7623L47.2199 25.9056L45.262 26.6893C45.262 26.6893 44.209 27.5236 43.6085 27.7343C43.008 27.945 41.519 29.108 41.519 29.108L41.1652 29.1417L41.0418 28.8804L40.9843 29.3271L40.8609 29.5968L40.6881 29.2765L40.6552 29.5715L40.5071 29.8243L40.3426 29.5715L40.2521 29.9086L40.1287 29.7484L39.7914 30.0518L39.5775 30.3636L39.3143 30.4395L39.1909 30.7766H38.9934L38.7549 31.1137L38.722 30.9957L38.5575 31.6025L38.4999 31.5435L38.3847 31.6614L38.3107 32.1502L38.0968 32.0912L37.6032 38.791L37.7924 39.0101L38.105 39.3387L38.3271 39.9539L38.5245 40.1478L38.9194 40.6534C38.9194 40.6534 39.1662 40.9146 39.1497 41.0326C39.1333 41.1506 38.6479 41.1253 38.3765 41.1422C38.105 41.159 37.4304 41.1338 37.4304 41.1338C37.4304 41.1338 37.8664 41.69 37.7019 41.8416C37.5373 41.9933 37.1836 41.8585 37.0767 41.9428C36.978 42.0271 36.4844 41.9933 36.4844 41.9933H35.4643C35.4643 41.9933 34.7075 41.9428 34.2715 41.8501C33.8355 41.7574 33.7038 41.5551 33.7038 41.5551L33.5064 41.0916L33.3418 40.6618L33.4735 40.0972L33.1773 40.2236C33.1773 40.2236 33.0457 40.1815 32.9552 39.9624C32.8647 39.7432 33.0704 39.3556 33.0293 39.1786C32.9881 39.0016 33.0622 38.8584 33.2678 38.5297C33.4735 38.2095 33.5722 37.3162 33.5722 37.3162L33.3007 37.0128L33.0375 36.9959L32.9552 36.7347L32.6837 36.878L32.5686 36.4987L32.3547 36.9117L32.256 36.465L32.0256 37.0297L31.9681 36.5072L31.8611 36.8611L31.5896 36.0858L31.3511 35.2599L31.4662 34.6953L31.1783 35.0155L31.0302 34.8554L31.1536 34.3835L30.8986 34.5436L30.4133 33.2879L30.0019 31.4423V29.3861L30.1418 28.3832L30.512 27.5995L30.4379 27.3214L29.7469 27.0096L28.9243 27.1107H28.406L28.2661 27.2118L27.8219 27.1107L27.6409 27.2877L27.3777 27.2371L27.0568 27.4056L26.7031 27.3467L26.3494 27.4225L25.7817 27.3635L25.2306 27.5658L24.8604 27.8944L24.6629 27.6585L24.0953 27.827L23.7416 27.7006L23.4208 27.8439L23.2644 27.5911L22.7626 27.5321L22.302 27.2624L21.833 27.6585L21.4464 27.9113L21.3888 28.4338L20.7142 28.4506H20.2865L19.834 28.181L19.5296 27.6416L19.1594 27.4983L17.3661 26.9337L15.5727 25.5264L14.1824 24.1948L13.8781 24.1358L13.1623 24.4055L12.4055 25.3241L12.0353 27.3888L11.8132 29.1417L11.443 29.917L11.114 31.0631L10.9741 32.1249L10.8918 33.7093L11.1551 35.4032L11.7227 37.2825L12.2739 38.1168L12.7264 38.9342L13.6477 39.3556L14.1002 40.0635L14.4046 40.5438L14.0179 40.9231L13.3269 41.0663H11.7556L11.0235 40.9399L10.6779 40.8135L10.5134 40.5607L10.4147 40.1646L10.1103 39.9371L9.88823 39.7264L9.8471 38.8668L9.62497 37.2151L9.11491 34.9228L8.56376 33.0182L8.34163 32.6812L7.93031 33.92L7.98791 35.5043L8.15244 37.8471L8.41566 38.8668L8.80232 39.4736L9.39464 39.7685L10.2502 40.6028L10.0857 40.9399H7.20639H6.902L6.6552 40.7714L6.40841 40.4596L6.32614 40.0214L6.28501 39.6H6.10405L5.92306 39.2039L6.06292 38.6393L5.6845 33.0435V32.6474L5.4377 32.0828L5.42123 31.4339L5.5035 30.8524L5.3801 30.2878L5.4377 29.8159L5.3472 29.3439L5.61866 28.6192L6.26035 27.6332L7.16526 25.9224L7.35445 24.869L7.18992 23.5628L7.25576 23.7313L7.24753 23.6976L5.96419 21.0009L4.55745 18.2114L4.105 16.6861L3.76771 15.2197L3.71838 13.8545L3.87467 12.6326L4.14613 11.8657L4.0145 11.9584L3.33172 12.8685C3.33172 12.8685 2.87928 13.9219 2.77234 14.554C2.66539 15.186 2.7394 16.4164 2.7394 16.4164L2.98619 17.0316L3.46335 17.9755L3.80064 19.3744L3.90757 20.8913L3.76771 22.1639L3.35638 22.8886L2.978 24.3465L2.74763 23.7482L2.6407 24.5319L2.21291 25.4084L2.22938 24.7932L1.89209 25.6275L1.58769 26.0067L1.4314 25.2735L0.970707 25.678L0.880248 23.8577L0.468925 25.3915L0.732148 22.4757L0.304396 23.074L0.320825 21.6329L0.106928 22.0206L4.59375e-07 21.397Z" fill="#688C61"/>
</svg>
