<svg width="45" height="47" viewBox="0 0 45 47" fill="none" xmlns="http://www.w3.org/2000/svg">
<path d="M44.2727 7.159L43.63 5.7255L41.9977 4.40227L41.4058 3.39289L39.5959 1.32323L37.3717 0H34.8684L33.0333 0.644649L31.8493 1.34019L30.7414 2.37502L28.7794 2.89244L27.1387 3.80852L25.5403 4.76701L23.426 5.92907L22.0053 7.37953L18.91 9.37286L15.9838 10.6876L12.2966 11.9345L10.4698 13.0796L7.78049 15.251L6.23285 17.1341L5.58166 18.4828L4.23699 19.8399L3.65345 20.6712L4.23699 20.5015L3.68728 21.1971L3.58579 22.0623L4.0171 21.9265L3.35745 23.4449V25.065C3.35745 25.065 4.14396 24.3779 4.00865 24.7172C3.87333 25.065 4.00865 26.2355 4.00865 26.7869C4.00865 27.3382 3.83105 28.9668 3.83105 28.9668L2.73163 30.6632L2.56249 32.0204L2.01278 33.1146L2.28341 33.8017L1.77598 34.7262L2.17346 35.532L2.55403 35.6677L2.30878 36.2191H2.82466L1.99587 37.432L3.34899 36.2191L2.9938 37.432L2.19883 38.7892L3.54351 37.0928L1.66604 41.0285L0 42.3687H0.651193L0.794963 42.9031H1.3785L1.99587 43.3866H3.12911L3.34054 43.7259L3.81413 43.8022L3.52659 44.0821L4.38921 44.0143L3.81413 44.2942L4.87126 44.2263L4.22007 44.4129L5.28566 44.2772L4.55835 44.5741H5.17572L6.03834 44.2942L5.59011 44.6589L6.25822 44.4553L6.03834 44.8031L6.32588 44.8201L6.80793 44.4214L7.28998 44.2687L7.23924 44.5656L7.67055 44.3451L7.50141 44.7098L8.3302 44.1924L8.06803 44.608L8.863 44.0736L8.39786 44.625L9.14208 44.1924L8.7446 44.6589L9.38733 44.2433C9.38733 44.2433 10.1823 43.4799 10.25 43.412C10.3176 43.3442 9.95396 44.1924 9.95396 44.1924C9.95396 44.1924 10.6221 43.429 10.639 43.3781C10.6559 43.3272 10.5544 44.1245 10.5544 44.1245L11.3325 43.2424L11.1295 43.7513L11.5946 43.5053L11.9752 43.7513L12.1782 43.5393L12.7955 43.5562L12.8886 43.3866L13.303 43.4884L13.286 43.1576C13.286 43.1576 13.582 43.1067 13.5989 43.1576C13.6159 43.2084 13.8019 43.0388 13.8019 43.0388L13.8696 42.6741L14.1487 42.9879L15.0958 42.8861L15.857 41.987L16.8549 41.6392L16.2037 42.1566L16.9649 41.9361L17.8444 41.5205L17.2101 42.0718L18.4364 41.6732L17.8698 42.0718L18.4702 41.9191L18.9861 41.5205L18.9354 41.8852C18.9354 41.8852 19.299 41.5205 19.5612 41.8852C19.8233 42.25 20.4999 42.1821 20.9143 41.9022C21.3202 41.6223 20.9904 41.2491 21.2103 41.1049C21.4302 40.9691 22.8848 41.0709 22.8848 41.0709C22.8848 41.0709 23.1892 40.9861 23.4091 40.9182C23.2907 41.0285 23.2146 41.2066 23.2823 41.2999C23.3838 41.4357 24.4155 41.283 24.627 41.1133C24.8299 40.9437 24.7623 40.1803 24.6777 40.0785C24.5931 39.9767 23.5106 39.6544 23.5106 39.6544L23.6206 39.3405L23.0709 39.2897L23.147 39.0013H22.3943C22.3943 39.0013 23.1216 38.8147 22.7072 38.6874C22.2928 38.5602 20.9228 38.1191 20.9228 38.1191L20.3815 38.6874L20.0432 38.3481L19.4512 38.6874L19.0622 38.3481L18.5717 39.1285L18.6986 38.5093L19.0622 37.466L19.5696 36.7704V35.6847L19.7895 36.1088C19.7895 36.1088 19.7895 36.1088 19.7388 34.7517C19.7134 34.0901 19.6119 33.4284 19.5189 32.9195L21.557 29.3824C21.8615 29.2043 22.1913 29.0007 22.5211 28.7802C23.7559 27.9489 23.6206 26.1337 23.6206 26.1337L23.925 25.2685L23.9081 27.0159C23.9081 27.0159 24.9737 29.2297 24.9737 29.3315C24.9737 29.4333 25.3204 29.8829 25.3204 29.8829L25.7687 31.469L25.9716 33.8186L26.5552 34.582L27.1049 35.6508L26.8596 36.482L27.3755 37.0334L26.9949 37.449L27.1641 38.1021L26.885 38.4499L27.1979 38.6535L26.9949 38.9673L27.6546 39.8325L27.3755 41.512L27.9252 42.5977L28.4073 43.2848L28.5764 43.4629L28.9992 45.0152L29.3967 45.2951L28.9992 45.6768L29.3967 45.787L29.5659 46.3808H30.3439L29.9126 46.754L30.7752 46.6522L30.6399 47C30.6399 47 31.697 46.754 31.697 46.6268C31.697 46.4995 32.602 46.3808 33.9128 46.5759C35.2236 46.771 35.5619 46.3893 35.5619 46.3893C35.5619 46.3893 36.8643 46.9321 36.8643 46.1772C36.8643 45.4138 35.748 45.1 35.748 45.1V44.4299L37.1011 44.6928L36.5176 43.658H37.1011V43.412C37.1011 43.412 37.6085 43.5138 38.4542 43.412C39.2999 43.3102 39.1562 42.8861 38.7418 42.479C38.3274 42.0718 38.691 41.0794 38.691 41.0794L39.0039 39.8834V38.5008L38.4542 36.8383C38.4542 36.8383 37.9214 36.0749 38.4542 34.7177C38.987 33.3606 38.7418 30.6548 38.7418 30.6548L38.4542 29.2976L37.8876 28.4324L37.507 27.7029L37.9891 27.9404C37.9891 27.9404 38.2682 27.9404 37.8538 27.423C37.4394 26.9056 37.1096 25.7266 37.1096 25.7266L37.3717 24.8614L37.7523 24.8275L37.4056 23.869L37.7861 23.7163L37.507 23.2667L37.82 23.3685L37.6846 22.7833L37.9637 22.5118L37.5832 21.1547C37.5832 21.1547 37.414 21.0529 37.4309 20.8493L37.5916 20.5015C37.6508 20.4252 37.7269 20.3489 37.8284 20.2555C38.5388 19.6363 38.9109 17.9399 38.9109 17.9399L39.689 17.2953L40.0019 16.6252L40.4924 17.1002L40.9829 17.8381L40.8814 17.1002L41.169 17.397L41.448 16.9814L41.651 17.3716L41.8032 16.9814L42.1415 17.2698L42.1923 18.1265L42.5136 17.2698L42.4037 18.2792L42.9957 17.2698L42.6828 18.3301L43.1986 17.4988L43.8583 14.9372L43.9682 13.0372L44.4588 12.2653L45 10.8657V9.59339L44.2727 7.159Z" fill="#688C61"/>
</svg>
