<svg width="627" height="82" viewBox="0 0 627 82" fill="none" xmlns="http://www.w3.org/2000/svg">
<g clip-path="url(#clip0_242_1129)">
<g clip-path="url(#clip1_242_1129)">
<path d="M315 9.3094L293.937 21.4702C293.608 18.6241 292.022 16.1611 289.747 14.6513L312 1.80385C313.856 0.732051 316.144 0.732051 318 1.80385L346.641 18.3397C348.497 19.4115 349.641 21.3923 349.641 23.5359V56.6077C349.641 58.7513 348.497 60.7321 346.641 61.8038L323.903 74.9314C323.967 74.4874 324 74.0334 324 73.5718C324 71.0737 323.036 68.8008 321.459 67.105L341.641 55.453V24.6906L315 9.3094Z" fill="#91D873"/>
<path d="M307.902 66.7364L288.359 55.453V31.2553C287.18 31.7801 285.874 32.0718 284.5 32.0718C283.016 32.0718 281.611 31.7313 280.359 31.1242V56.6077C280.359 58.7513 281.503 60.732 283.359 61.8038L305.029 74.3148C305.01 74.0696 305 73.8218 305 73.5718C305 70.888 306.113 68.4641 307.902 66.7364Z" fill="#91D873"/>
<path d="M292 22.5718C292 26.7139 288.642 30.0718 284.5 30.0718C280.358 30.0718 277 26.7139 277 22.5718C277 18.4297 280.358 15.0718 284.5 15.0718C288.642 15.0718 292 18.4297 292 22.5718Z" fill="#91D873"/>
<path d="M322 73.5718C322 77.7139 318.642 81.0718 314.5 81.0718C310.358 81.0718 307 77.7139 307 73.5718C307 69.4297 310.358 66.0718 314.5 66.0718C318.642 66.0718 322 69.4297 322 73.5718Z" fill="#91D873"/>
<g clip-path="url(#clip2_242_1129)">
<path d="M302.944 41.3498C303.113 41.6347 303.42 41.8094 303.751 41.8094H304.822L300.751 49.0463C300.591 49.3367 300.597 49.6895 300.766 49.9745C300.935 50.2594 301.241 50.4341 301.572 50.4341H315.377C311.13 48.6876 308.133 44.5149 308.133 39.6564C308.133 37.1444 308.943 34.7141 310.431 32.7158L309.892 31.8462C309.727 31.5462 309.412 31.3596 309.07 31.3596C308.728 31.3596 308.413 31.5461 308.248 31.8462L302.929 40.4216C302.77 40.712 302.776 41.0649 302.944 41.3498Z" fill="#55AB1D"/>
<path d="M318.719 43.3201L314.627 39.2276C314.261 38.8617 314.261 38.2683 314.627 37.9022C314.993 37.5362 315.586 37.5362 315.952 37.9022L318.879 40.8295V31.9733C318.879 31.4557 319.299 31.0361 319.816 31.0361C320.334 31.0361 320.754 31.4557 320.754 31.9733V37.1771L323.976 35.3166C324.424 35.0578 324.998 35.2113 325.256 35.6596C325.515 36.1078 325.362 36.681 324.913 36.9398L320.754 39.3414V49.3895C325.725 48.9176 329.626 44.7328 329.626 39.6563C329.626 37.2641 328.766 34.9959 327.193 33.2114C327.317 32.6661 327.379 32.1076 327.379 31.5444C327.379 27.3872 323.987 24.0051 319.816 24.0051C315.646 24.0051 312.254 27.3873 312.254 31.5445C312.254 32.1077 312.316 32.6662 312.44 33.2115C310.867 34.996 310.007 37.2641 310.007 39.6564C310.007 44.7329 313.908 48.9177 318.879 49.3896V43.4479C318.822 43.4118 318.768 43.3696 318.719 43.3201Z" fill="#55AB1D"/>
<path d="M301.627 28.8355C301.787 28.6668 301.991 28.5457 302.216 28.4854C302.68 28.3611 303.183 28.5154 303.497 28.8784C303.683 29.0923 303.944 29.2019 304.206 29.2018C304.304 29.2018 304.402 29.1857 304.496 29.155C304.854 29.0795 305.15 28.7977 305.223 28.4158C305.314 27.9442 305.673 27.5592 306.137 27.4349C306.362 27.3747 306.598 27.3776 306.821 27.4436C307.317 27.5902 307.839 27.3069 307.986 26.8105C308.133 26.3142 307.849 25.7928 307.353 25.6461C306.798 25.4822 306.21 25.4746 305.652 25.6243C304.925 25.8191 304.302 26.2716 303.885 26.8731C303.223 26.5609 302.457 26.4802 301.731 26.6749C301.172 26.8246 300.666 27.1253 300.268 27.5444C299.912 27.9196 299.927 28.5128 300.302 28.8693C300.677 29.2258 301.271 29.2108 301.627 28.8355Z" fill="#55AB1D"/>
<path d="M331.063 54.1204H320.754V49.3896C320.445 49.419 320.133 49.4345 319.816 49.4345C319.5 49.4345 319.188 49.419 318.879 49.3896V54.1204H310.944V52.3085H307.196V54.1204H300.937C300.42 54.1204 300 54.54 300 55.0576C300 55.5752 300.42 55.9948 300.937 55.9948H331.063C331.58 55.9948 332 55.5752 332 55.0576C332 54.54 331.58 54.1204 331.063 54.1204Z" fill="#55AB1D"/>
</g>
</g>
<path d="M0 43C0 41.8954 0.895431 41 2 41H250C251.105 41 252 41.8954 252 43C252 44.1046 251.105 45 250 45H1.99999C0.895423 45 0 44.1046 0 43Z" fill="#91D873"/>
<path d="M375 43C375 41.8954 375.895 41 377 41H625C626.105 41 627 41.8954 627 43C627 44.1046 626.105 45 625 45H377C375.895 45 375 44.1046 375 43Z" fill="#91D873"/>
</g>
<defs>
<clipPath id="clip0_242_1129">
<rect width="627" height="81.3182" fill="white"/>
</clipPath>
<clipPath id="clip1_242_1129">
<rect width="72.641" height="80.0718" fill="white" transform="translate(277 1)"/>
</clipPath>
<clipPath id="clip2_242_1129">
<rect width="32" height="32" fill="white" transform="translate(300 24)"/>
</clipPath>
</defs>
</svg>
