<svg width="384" height="150" viewBox="0 0 384 150" fill="none" xmlns="http://www.w3.org/2000/svg">
<path d="M137.636 47.8316C137.636 47.7508 137.636 47.6701 137.636 47.5894L133.817 46.957C133.804 47.2396 133.804 47.5356 133.804 47.8181C133.804 51.1682 134.467 54.4241 135.767 57.4783C137.027 60.4382 138.828 63.0887 141.116 65.3625C143.405 67.6362 146.086 69.4257 149.052 70.6769C152.139 71.9685 155.403 72.6278 158.775 72.6278C158.843 72.6278 158.897 72.6278 158.964 72.6278L158.49 68.8202C146.966 68.6857 137.636 59.3215 137.636 47.8316Z" fill="#72A15F"/>
<path d="M145.477 61.0561C147.21 62.7782 149.214 64.1236 151.462 65.0654C153.602 65.9669 155.877 66.4512 158.206 66.532L157.732 62.6975C150.216 62.1593 144.204 56.1049 143.825 48.6109L139.965 47.9785C139.979 50.4541 140.48 52.849 141.441 55.1093C142.389 57.3292 143.743 59.3339 145.477 61.0561Z" fill="#72A15F"/>
<path d="M157.421 60.2211L156.933 56.2924C153.602 55.5794 150.989 52.9692 150.271 49.6595L146.29 49.0137C146.56 51.8929 147.82 54.5703 149.905 56.6557C151.95 58.6873 154.577 59.9251 157.421 60.2211Z" fill="#72A15F"/>
<path d="M159.249 74.8861C159.1 74.8861 158.965 74.8861 158.816 74.8861C155.471 74.8861 152.261 74.2806 149.296 73.1774C150.88 76.9446 151.76 81.0885 151.76 85.4342C151.76 102.965 137.46 117.159 119.829 117.159C102.197 117.159 87.8834 102.965 87.8834 85.4342C87.8834 67.9033 102.184 53.709 119.815 53.709C124.528 53.709 129.01 54.7316 133.046 56.5479C132.111 53.8167 131.61 50.8971 131.61 47.8699C131.61 47.4528 131.624 47.0357 131.637 46.6186C127.9 45.5019 123.932 44.8965 119.815 44.8965C97.2815 44.883 79 63.0463 79 85.4342C79 107.822 97.2815 125.985 119.815 125.985C142.349 125.985 160.63 107.822 160.63 85.4342C160.644 81.7881 160.156 78.2496 159.249 74.8861Z" fill="#8EB47F"/>
<path d="M133.045 56.5478C129.01 54.7181 124.541 53.709 119.815 53.709C102.183 53.709 87.8833 67.9167 87.8833 85.4342C87.8833 102.952 102.183 117.159 119.815 117.159C137.446 117.159 151.76 102.965 151.76 85.4342C151.76 81.0884 150.88 76.958 149.296 73.1773C141.672 70.3654 135.672 64.2302 133.045 56.5478Z" fill="#72A15F"/>
<path d="M119.815 108.093C132.41 108.093 142.62 97.9494 142.62 85.4363C142.62 72.9232 132.41 62.7793 119.815 62.7793C107.221 62.7793 97.0107 72.9232 97.0107 85.4363C97.0107 97.9494 107.221 108.093 119.815 108.093Z" fill="#9ADB7F"/>
<path d="M157.272 50.925C156.256 50.6155 155.457 50.2119 154.875 49.7006L155.782 47.6825C156.365 48.1399 157.069 48.5032 157.908 48.7857C158.748 49.0683 159.588 49.2163 160.427 49.2163C161.47 49.2163 162.255 49.0548 162.77 48.7185C163.284 48.3821 163.542 47.9516 163.542 47.3999C163.542 46.9963 163.393 46.6734 163.108 46.4043C162.824 46.1487 162.458 45.9469 162.012 45.7989C161.565 45.6509 160.969 45.4894 160.197 45.3011C159.127 45.0454 158.26 44.7898 157.597 44.5476C156.933 44.292 156.365 43.9018 155.891 43.3637C155.417 42.8255 155.173 42.099 155.173 41.1706C155.173 40.4037 155.39 39.6906 155.809 39.0583C156.229 38.4259 156.866 37.9281 157.719 37.5514C158.572 37.1747 159.615 36.9863 160.847 36.9863C161.7 36.9863 162.553 37.094 163.379 37.3092C164.205 37.5245 164.923 37.8339 165.532 38.2241L164.706 40.2423C164.083 39.879 163.447 39.6099 162.77 39.4216C162.093 39.2332 161.443 39.139 160.82 39.139C159.791 39.139 159.019 39.3139 158.518 39.6637C158.017 40.0135 157.759 40.471 157.759 41.0361C157.759 41.4397 157.908 41.7626 158.193 42.0182C158.477 42.2739 158.843 42.4757 159.29 42.6237C159.737 42.7717 160.332 42.9331 161.104 43.1215C162.147 43.3637 163.014 43.6058 163.677 43.8749C164.341 44.1305 164.923 44.5342 165.397 45.0589C165.871 45.5971 166.115 46.3101 166.115 47.2116C166.115 47.9785 165.898 48.6781 165.478 49.3104C165.058 49.9428 164.422 50.4406 163.555 50.8039C162.702 51.1806 161.646 51.3689 160.414 51.3689C159.344 51.3824 158.288 51.2344 157.272 50.925Z" fill="#72A15F"/>
<path d="M177.693 37.7932C178.6 38.1968 179.291 38.7619 179.779 39.5153C180.266 40.2553 180.496 41.1433 180.496 42.1793C180.496 43.1883 180.253 44.0763 179.779 44.8297C179.291 45.5832 178.6 46.1617 177.693 46.5519C176.786 46.9555 175.73 47.1573 174.511 47.1573H171.328V51.1936H168.715V37.2012H174.511C175.716 37.2012 176.786 37.403 177.693 37.7932ZM176.975 44.2378C177.571 43.7534 177.856 43.0672 177.856 42.1793C177.856 41.2913 177.558 40.6051 176.975 40.1207C176.38 39.6364 175.526 39.4077 174.375 39.4077H171.315V44.9643H174.375C175.526 44.9508 176.38 44.7087 176.975 44.2378Z" fill="#72A15F"/>
<path d="M191.533 47.9511H184.491L183.11 51.1936H180.415L186.753 37.2012H189.326L195.677 51.1936H192.941L191.533 47.9511ZM190.666 45.9061L188.012 39.7978L185.371 45.9061H190.666Z" fill="#72A15F"/>
<path d="M199.929 50.4541C198.778 49.8352 197.884 48.9741 197.234 47.8843C196.584 46.7945 196.259 45.5567 196.259 44.1844C196.259 42.812 196.584 41.5742 197.247 40.4844C197.897 39.3946 198.805 38.5336 199.956 37.9147C201.107 37.2958 202.38 36.9863 203.802 36.9863C204.953 36.9863 206.009 37.1881 206.957 37.5918C207.905 37.9954 208.717 38.5739 209.367 39.3274L207.675 40.9015C206.659 39.8117 205.4 39.2601 203.91 39.2601C202.948 39.2601 202.082 39.4754 201.31 39.8925C200.538 40.3095 199.956 40.9015 199.522 41.6415C199.089 42.3815 198.872 43.2291 198.872 44.1844C198.872 45.1262 199.089 45.9738 199.522 46.7272C199.956 47.4672 200.552 48.0592 201.31 48.4763C202.068 48.8934 202.935 49.1086 203.91 49.1086C205.4 49.1086 206.645 48.557 207.675 47.4537L209.367 49.0548C208.704 49.8082 207.905 50.4002 206.943 50.7904C205.982 51.194 204.926 51.3959 203.774 51.3959C202.366 51.3824 201.08 51.0729 199.929 50.4541Z" fill="#72A15F"/>
<path d="M222.449 49.014V51.1936H211.886V37.2012H222.164V39.3808H214.5V43.0134H221.298V45.1526H214.5V49.014H222.449Z" fill="#72A15F"/>
<path d="M168.728 55.1094H171.342V69.1018H168.728V55.1094Z" fill="#72A15F"/>
<path d="M187.66 55.1094V69.1018H185.506L177.747 59.63V69.1018H175.147V55.1094H177.3L185.06 64.5812V55.1094H187.66Z" fill="#72A15F"/>
<path d="M194.295 57.3024H189.623V55.1094H201.567V57.3024H196.895V69.0884H194.281V57.3024H194.295Z" fill="#72A15F"/>
<path d="M214.107 66.9222V69.1018H203.544V55.1094H213.822V57.289H206.158V60.9216H212.956V63.0608H206.158V66.9222H214.107Z" fill="#72A15F"/>
<path d="M217.018 55.1094H219.632V66.8953H226.998V69.0884H217.018V55.1094Z" fill="#72A15F"/>
<path d="M229.07 55.1094H231.684V66.8953H239.051V69.0884H229.07V55.1094Z" fill="#72A15F"/>
<path d="M241.109 55.1094H243.722V69.1018H241.109V55.1094Z" fill="#72A15F"/>
<path d="M257.143 61.9446H259.621V67.5146C258.903 68.0932 258.05 68.5237 257.089 68.8331C256.127 69.1426 255.125 69.2906 254.109 69.2906C252.674 69.2906 251.387 68.9811 250.223 68.3622C249.072 67.7434 248.164 66.8823 247.514 65.7925C246.851 64.7027 246.526 63.4649 246.526 62.0926C246.526 60.7202 246.851 59.4824 247.514 58.3926C248.164 57.3028 249.085 56.4418 250.236 55.8229C251.401 55.204 252.701 54.8945 254.15 54.8945C255.328 54.8945 256.398 55.0829 257.373 55.4731C258.334 55.8632 259.147 56.4283 259.81 57.1683L258.158 58.7694C257.089 57.7065 255.789 57.1683 254.272 57.1683C253.283 57.1683 252.403 57.3701 251.631 57.7872C250.859 58.2043 250.263 58.7828 249.817 59.5228C249.383 60.2628 249.167 61.1239 249.167 62.0791C249.167 63.0075 249.383 63.8551 249.817 64.5951C250.25 65.335 250.859 65.927 251.631 66.3576C252.403 66.7881 253.283 67.0034 254.258 67.0034C255.355 67.0034 256.317 66.7612 257.156 66.2903V61.9446H257.143Z" fill="#72A15F"/>
<path d="M273.61 66.9222V69.1018H263.047V55.1094H273.325V57.289H265.66V60.9216H272.458V63.0608H265.66V66.9222H273.61Z" fill="#72A15F"/>
<path d="M289.034 55.1094V69.1018H286.88L279.121 59.63V69.1018H276.521V55.1094H278.674L286.434 64.5812V55.1094H289.034Z" fill="#72A15F"/>
<path d="M295.48 68.3623C294.329 67.7434 293.435 66.8823 292.785 65.7925C292.135 64.7027 291.81 63.4649 291.81 62.0926C291.81 60.7202 292.135 59.4824 292.799 58.3926C293.449 57.3028 294.356 56.4418 295.507 55.8229C296.658 55.204 297.931 54.8945 299.353 54.8945C300.504 54.8945 301.56 55.0963 302.508 55.5C303.456 55.9036 304.269 56.4821 304.919 57.2356L303.226 58.8097C302.21 57.7199 300.951 57.1683 299.461 57.1683C298.5 57.1683 297.633 57.3836 296.861 57.8007C296.103 58.2177 295.507 58.8097 295.074 59.5497C294.64 60.2897 294.424 61.1373 294.424 62.0926C294.424 63.0344 294.64 63.882 295.074 64.6354C295.507 65.3754 296.103 65.9674 296.861 66.3845C297.62 66.8016 298.486 67.0168 299.461 67.0168C300.951 67.0168 302.197 66.4652 303.226 65.362L304.919 66.963C304.255 67.7165 303.456 68.3084 302.495 68.6986C301.533 69.1022 300.477 69.3041 299.326 69.3041C297.904 69.2906 296.631 68.9812 295.48 68.3623Z" fill="#72A15F"/>
<path d="M318 66.9222V69.1018H307.437V55.1094H317.715V57.289H310.051V60.9216H316.849V63.0608H310.051V66.9222H318Z" fill="#72A15F"/>
</svg>
