<?xml version="1.0" encoding="utf-8"?>
<!-- Generator: Adobe Illustrator 23.1.0, SVG Export Plug-In . SVG Version: 6.00 Build 0)  -->
<svg version="1.1" id="Layer_1" xmlns="http://www.w3.org/2000/svg" xmlns:xlink="http://www.w3.org/1999/xlink" x="0px" y="0px"
	 viewBox="0 0 48 48" style="enable-background:new 0 0 48 48;" xml:space="preserve">
<style type="text/css">
	.st0{fill:#91D873;}
</style>
<g>
	<g>
		<g>
			<path class="st0" d="M43.4,36.1c-0.2,0-0.4,0-0.5-0.1l-5-2.9c-0.5-0.3-0.7-1-0.4-1.5s1-0.7,1.5-0.4l5,2.9c0.5,0.3,0.7,1,0.4,1.5
				C44.1,35.9,43.8,36.1,43.4,36.1z"/>
		</g>
		<g>
			<path class="st0" d="M5.9,35.3c-0.4,0-0.7-0.2-0.9-0.5c-0.3-0.5-0.1-1.2,0.4-1.5l3.4-1.9c0.5-0.3,1.2-0.1,1.5,0.4
				c0.3,0.5,0.1,1.2-0.4,1.5l-3.4,1.9C6.3,35.3,6.1,35.3,5.9,35.3z"/>
		</g>
		<g>
			<path class="st0" d="M23.8,41.4c-0.7,0-1.4-0.2-2-0.5l-11.6-6.7c-1.2-0.7-2-2-2-3.5V17.3c0-1.4,0.8-2.8,2-3.5l11.6-6.7
				c1.2-0.7,2.8-0.7,4,0l11.6,6.7c1.2,0.7,2,2,2,3.5v13.4c0,1.4-0.8,2.8-2,3.5l-11.6,6.7C25.2,41.3,24.5,41.4,23.8,41.4z M23.8,8.7
				c-0.3,0-0.6,0.1-0.9,0.2l-11.6,6.7c-0.6,0.3-0.9,0.9-0.9,1.6v13.4c0,0.6,0.3,1.3,0.9,1.6L22.9,39c0.6,0.3,1.3,0.3,1.8,0l11.6-6.7
				c0,0,0,0,0,0c0.6-0.3,0.9-0.9,0.9-1.6V17.3c0-0.6-0.3-1.3-0.9-1.6L24.7,9C24.5,8.8,24.1,8.7,23.8,8.7z"/>
		</g>
		<g>
			<g>
				<path class="st0" d="M37.9,16.9c-0.4,0-0.7-0.2-0.9-0.5c-0.3-0.5-0.1-1.2,0.4-1.5l7.3-4.2c0.5-0.3,1.2-0.1,1.5,0.4
					c0.3,0.5,0.1,1.2-0.4,1.5l-7.3,4.2C38.3,16.8,38.1,16.9,37.9,16.9z"/>
			</g>
		</g>
		<path class="st0" d="M16.5,30.8l-4,2.3c-0.5,0.3-0.7,1-0.4,1.5c0.2,0.4,0.6,0.5,0.9,0.5c0.2,0,0.4,0,0.5-0.1l4-2.3
			C17,32.3,16.5,31.6,16.5,30.8z"/>
		<path class="st0" d="M19.8,28.9v-5.1l5.5-3.2l4.1,2.4c0.1-0.8,0.6-1.5,1.3-1.8l-4.2-2.4v-2.9c-0.4,0.3-0.8,0.5-1.4,0.5
			c-0.3,0-0.6-0.1-0.8-0.2v2.6l-4.4,2.6l0-3.6l3.6-2.2c-0.3-0.4-0.5-0.9-0.5-1.4c0-0.4,0.1-0.7,0.2-1l-4.4,2.7l-2.3-1.3
			c-0.5-0.3-1.2-0.1-1.5,0.4c-0.3,0.5-0.1,1.2,0.4,1.5l2.3,1.3l0,3.6l-1.6-0.9c-0.5-0.3-1.2-0.1-1.5,0.4c-0.3,0.5-0.1,1.2,0.4,1.5
			l2.7,1.5v5.1c0.3-0.2,0.7-0.3,1.1-0.3C19.1,28.6,19.5,28.7,19.8,28.9z"/>
		<path class="st0" d="M30.9,25.2v4.9l-5.5,3.2l-4.4-2.5c0,0.8-0.5,1.5-1.1,1.9l8.9,5.2c0.2,0.1,0.4,0.1,0.5,0.1
			c0.4,0,0.7-0.2,0.9-0.5c0.3-0.5,0.1-1.2-0.4-1.5l-2.3-1.3l5-2.9c0.3-0.2,0.5-0.6,0.5-0.9v-6c-0.4,0.3-0.9,0.6-1.5,0.6
			C31.4,25.4,31.1,25.3,30.9,25.2z"/>
		<path class="st0" d="M31.6,21.7C31.6,21.7,31.6,21.7,31.6,21.7c-0.8,0-1.5,0.7-1.5,1.5c0,0.1,0,0.1,0,0.2c0.1,0.5,0.3,0.9,0.7,1.1
			c0.2,0.1,0.5,0.2,0.7,0.2c0.7,0,1.3-0.5,1.5-1.2c0-0.1,0-0.2,0-0.3C33.1,22.3,32.4,21.7,31.6,21.7z"/>
		<path class="st0" d="M20.1,30.3c-0.1-0.2-0.2-0.4-0.3-0.6c-0.3-0.3-0.7-0.5-1.1-0.5c-0.4,0-0.8,0.2-1.1,0.5
			c-0.1,0.2-0.3,0.3-0.3,0.6c0,0.1-0.1,0.3-0.1,0.4c0,0.7,0.5,1.3,1.2,1.5c0.1,0,0.2,0,0.3,0c0.1,0,0.2,0,0.3,0
			c0.7-0.1,1.2-0.7,1.2-1.5C20.2,30.6,20.2,30.5,20.1,30.3z"/>
		<path class="st0" d="M24.7,12.7c0,0-0.1,0-0.1,0C24.6,12.7,24.6,12.7,24.7,12.7C24.6,12.7,24.7,12.7,24.7,12.7z"/>
		<path class="st0" d="M26.4,13.5c-0.2-0.5-0.8-0.9-1.4-0.9c-0.1,0-0.3,0-0.4,0.1c0,0,0,0-0.1,0c0,0,0,0,0,0c-0.6,0.2-1,0.8-1,1.4
			c0,0.4,0.2,0.8,0.4,1c0.1,0.1,0.2,0.1,0.2,0.2c0.2,0.2,0.5,0.3,0.8,0.3c0.6,0,1.1-0.4,1.4-0.9c0.1-0.2,0.1-0.4,0.1-0.6
			C26.6,13.9,26.5,13.7,26.4,13.5z"/>
	</g>
</g>
</svg>
