<svg viewBox="0 0 190 54" fill="none" xmlns="http://www.w3.org/2000/svg">
<path d="M65.8662 16.5891H76.2529C77.8995 16.5891 79.2929 17.0958 80.4329 17.9824C81.4462 18.9958 81.9529 20.2624 81.9529 21.7824V24.5691C81.9529 26.2158 81.4462 27.4824 80.3062 28.4958C79.1662 29.5091 77.7729 30.0158 75.9995 30.0158H69.2862V36.8558H65.8662V16.5891ZM75.9995 27.1024C76.7595 27.1024 77.3929 26.8491 77.8995 26.3424C78.4062 25.8358 78.6595 25.2024 78.6595 24.4424V21.9091C78.6595 21.1491 78.4062 20.6424 78.0262 20.1358C77.6462 19.7558 77.0129 19.5024 76.2529 19.5024H69.2862V27.1024H75.9995Z" fill="white"/>
<path d="M85.2466 36.2224C84.7399 35.7158 84.6133 35.2091 84.6133 34.4491V16.5891H99.5599V19.5024H88.0333V25.0758H98.6733V27.9891H88.0333V33.9424H99.5599V36.8558H87.1466C86.2599 36.8558 85.6266 36.6024 85.2466 36.2224Z" fill="white"/>
<path d="M102.474 16.5891H112.987C114.634 16.5891 116.027 17.0958 117.04 17.9824C118.054 18.8691 118.56 20.1358 118.56 21.5291V23.5558C118.56 24.5691 118.307 25.4558 117.674 26.2158C117.04 26.9758 116.28 27.6091 115.14 27.8624C115.774 28.2424 116.28 28.7491 116.66 29.2558C117.04 29.8891 117.42 30.5224 117.674 31.5358L119.32 36.7291H115.774L114.254 31.6624C114 30.7758 113.62 30.1424 113.114 29.6358C112.607 29.1291 111.974 28.8758 111.34 28.8758H106.147V36.8558H102.474V16.5891ZM112.227 26.2158C113.114 26.2158 113.874 25.9624 114.38 25.4558C114.887 24.9491 115.14 24.3158 115.14 23.5558V21.5291C115.14 20.8958 114.887 20.3891 114.507 20.0091C114.127 19.6291 113.62 19.3758 112.86 19.3758H105.894V26.0891H112.227V26.2158Z" fill="white"/>
<path d="M122.614 36.2224C122.107 35.7158 121.98 35.2091 121.98 34.4491V16.5891H125.4V33.9424H136.42V36.8558H124.514C123.627 36.8558 122.994 36.6024 122.614 36.2224Z" fill="white"/>
<path d="M138.954 36.4761C138.574 36.0961 138.32 35.5894 138.32 34.9561C138.32 34.3227 138.574 33.8161 138.954 33.4361C139.334 33.0561 139.84 32.8027 140.474 32.8027C141.107 32.8027 141.614 33.0561 141.994 33.4361C142.374 33.8161 142.627 34.3227 142.627 34.9561C142.627 35.5894 142.374 36.0961 141.994 36.4761C141.614 36.8561 141.107 37.1094 140.474 37.1094C139.84 37.1094 139.334 36.8561 138.954 36.4761Z" fill="white"/>
<path d="M145.919 35.4624C144.906 34.449 144.399 33.1824 144.399 31.6624V27.7357C144.399 26.089 144.906 24.6957 145.919 23.6824C146.933 22.669 148.326 22.1624 149.973 22.1624H152.379C154.026 22.1624 155.293 22.669 156.306 23.6824C157.319 24.6957 157.826 25.9624 157.826 27.609V30.269H147.059V31.6624C147.059 32.549 147.313 33.309 147.819 33.8157C148.326 34.3223 149.086 34.5757 149.973 34.5757H152.253C153.139 34.5757 153.773 34.3224 154.406 33.9424C154.913 33.4357 155.166 32.929 155.166 32.169H157.826C157.826 33.5624 157.319 34.829 156.306 35.7157C155.293 36.6023 153.899 36.9823 152.253 36.9823H150.099C148.199 36.8557 146.933 36.349 145.919 35.4624ZM155.039 28.1157V27.4824C155.039 26.469 154.786 25.709 154.279 25.2024C153.773 24.569 153.139 24.3157 152.253 24.3157H149.846C148.959 24.3157 148.199 24.569 147.693 25.2024C147.186 25.8357 146.933 26.5957 146.933 27.609V27.989H155.039V28.1157Z" fill="white"/>
<path d="M162.006 35.3358C160.993 34.3225 160.486 33.0558 160.486 31.4092V27.4825C160.486 25.8358 160.993 24.4425 162.006 23.4292C163.02 22.4158 164.286 21.9092 166.06 21.9092H168.34C169.86 21.9092 171.126 22.4158 172.14 23.1758C173.153 24.0625 173.533 25.2025 173.533 26.7225H170.873C170.873 25.9625 170.62 25.3292 170.113 24.9492C169.606 24.5692 168.973 24.3158 168.213 24.3158H165.933C165.046 24.3158 164.413 24.5692 163.906 25.2025C163.4 25.8358 163.146 26.5958 163.146 27.6092V31.2825C163.146 32.1692 163.4 32.9292 163.906 33.5625C164.413 34.0692 165.173 34.4492 165.933 34.4492H168.213C168.973 34.4492 169.733 34.1958 170.113 33.5625C170.62 33.0558 170.873 32.2958 170.873 31.2825H173.533C173.533 32.9292 173.026 34.1958 172.013 35.2092C171 36.2225 169.733 36.7292 168.086 36.7292H165.806C164.413 36.8558 163.02 36.3492 162.006 35.3358Z" fill="white"/>
<path d="M177.712 35.3358C176.699 34.3225 176.192 32.9292 176.192 31.2825V27.4825C176.192 25.8358 176.699 24.4425 177.712 23.4292C178.726 22.4158 180.119 21.9092 181.892 21.9092H184.299C186.072 21.9092 187.339 22.4158 188.479 23.4292C189.492 24.4425 189.999 25.8358 189.999 27.4825V31.2825C189.999 32.9292 189.492 34.3225 188.479 35.3358C187.466 36.3492 186.072 36.8558 184.299 36.8558H181.892C180.119 36.8558 178.726 36.3492 177.712 35.3358ZM184.299 34.4492C185.186 34.4492 185.946 34.1958 186.579 33.5625C187.086 32.9292 187.466 32.1692 187.466 31.1558V27.6092C187.466 26.5958 187.212 25.8358 186.706 25.2025C186.199 24.5692 185.439 24.3158 184.552 24.3158H182.146C181.259 24.3158 180.499 24.5692 179.992 25.2025C179.486 25.8358 179.232 26.5958 179.232 27.6092V31.1558C179.232 32.1692 179.486 32.9292 179.992 33.5625C180.499 34.1958 181.259 34.4492 182.146 34.4492H184.299Z" fill="white"/>
<path d="M27.9933 0.249226C27.4867 0.249226 27.1067 0.122559 26.6 0.122559C11.9067 0.122559 0 12.0292 0 26.7226C0 30.7759 0.886667 34.5759 2.53333 37.9959C2.53333 38.1226 2.66 38.2492 2.66 38.2492L2.78666 38.3759C6.71333 46.4826 14.6933 52.3092 24.0667 53.1959C24.1933 53.1959 24.1933 53.1959 24.32 53.1959C24.8267 53.1959 25.46 53.3226 25.9667 53.3226C26.0933 53.3226 26.3467 53.3226 26.4733 53.3226H26.6C41.2933 53.3226 53.2 41.4159 53.2 26.7226C53.2 12.6626 42.0533 1.00923 27.9933 0.249226ZM38.76 13.9292C38.76 20.6426 33.3133 26.0892 26.6 26.0892C19 26.0892 12.92 32.1692 12.92 39.7692C12.92 43.3159 14.3133 46.6092 16.4667 49.0159C15.58 48.3826 14.9467 47.8759 14.3133 47.2426C11.6533 44.5826 10.0067 40.9092 10.0067 37.4892C10.0067 30.3959 14.44 26.3426 23.56 25.0759C31.54 23.9359 35.4667 20.0092 35.4667 13.4226C35.4667 10.0026 33.9467 6.83589 31.0333 4.55589C29.5133 3.28922 27.6133 2.40256 25.7133 1.89589C25.9667 1.89589 26.22 1.89589 26.6 1.89589C33.3133 1.76922 38.76 7.21589 38.76 13.9292ZM3.92667 37.4892C3.54667 36.2226 1.9 30.6492 4.05333 26.5959C5.06666 24.5692 6.84 23.1759 9.24667 22.5426C10.1333 22.2892 11.02 22.0359 11.9067 21.7826C19.5067 19.6292 23.6867 18.3626 23.8133 12.5359C23.94 9.62256 22.1667 7.08922 19.1267 5.82256C18.4933 5.56922 17.6067 5.31589 16.8467 5.18922C19.6333 4.68256 22.42 4.93589 24.5733 6.07589C27.1067 7.34256 28.3733 9.62256 28.3733 12.6626C28.3733 16.8426 26.3467 19.3759 21.66 20.6426C21.1533 20.7692 20.52 20.8959 19.8867 21.1492C12.6667 23.0492 3.67333 25.4559 4.43333 36.0959C4.56 37.4892 4.94 39.0092 5.57333 40.5292C5.06667 39.6426 4.43333 38.6292 3.92667 37.4892ZM5.57333 13.2959C8.48666 9.49589 11.9067 8.73589 14.06 9.24256C15.4533 9.62256 16.34 10.5092 16.5933 11.6492C16.8467 12.7892 16.72 13.8026 16.0867 14.4359C14.82 16.0826 11.78 16.5892 9.12 16.7159C6.20666 16.9692 3.92667 18.1092 2.40667 20.1359C3.16667 17.7292 4.18 15.4492 5.57333 13.2959ZM18.4933 3.16256C22.6733 2.27589 27.1067 3.16256 30.1467 5.69589C32.5533 7.59589 33.9467 10.3826 33.9467 13.2959C33.9467 19.1226 30.5267 22.4159 23.3067 23.4292C13.4267 24.8226 8.36 29.5092 8.36 37.3626C8.36 40.0226 9.24667 42.8092 10.7667 45.3426C7.98 42.5559 6.08 39.2626 5.95333 36.0959C5.32 26.7226 12.92 24.6959 20.2667 22.6692C20.9 22.5426 21.4067 22.4159 22.04 22.1626C27.36 20.6426 29.8933 17.6026 29.8933 12.6626C29.8933 9.11589 28.2467 6.20256 25.2067 4.68256C23.0533 3.54256 20.2667 3.16256 17.48 3.41589C17.86 3.28923 18.1133 3.28922 18.4933 3.16256ZM1.77333 28.3692C1.77333 26.0892 2.02667 23.1759 3.67333 21.1492C4.94 19.5026 6.84 18.4892 9.24667 18.3626C12.2867 18.1092 15.7067 17.6026 17.2267 15.4492C17.9867 14.3092 18.3667 13.0426 17.9867 11.3959C17.6067 9.62256 16.2133 8.22922 14.1867 7.72256C13.3 7.46922 12.2867 7.46922 11.1467 7.72256C13.9333 6.32922 16.5933 6.45589 18.4933 7.21589C20.9 8.22923 22.2933 10.2559 22.1667 12.5359C22.04 17.2226 18.8733 18.1092 11.4 20.2626C10.5133 20.5159 9.62667 20.7692 8.74 21.0226C5.82667 21.9092 3.8 23.5559 2.66 25.9626C2.28 26.7226 2.02667 27.4826 1.77333 28.3692ZM26.6 51.9292C26.4733 51.8026 26.4733 51.8026 26.6 51.9292C19.8867 51.8026 14.44 46.4826 14.44 39.7692C14.44 33.0559 19.8867 27.6092 26.6 27.6092C34.2 27.6092 40.28 21.5292 40.28 13.9292C40.28 9.74922 38.38 5.94922 35.34 3.41589C44.84 6.96256 51.68 16.0826 51.68 26.8492C51.68 40.6559 40.4067 51.9292 26.6 51.9292Z" fill="url(#paint0_linear-205391)"/>
<defs>
<linearGradient id="paint0_linear-205391" x1="-0.00886667" y1="26.8168" x2="53.1911" y2="26.8168" gradientUnits="userSpaceOnUse">
<stop stop-color="#45DCA3"/>
<stop offset="1" stop-color="#128D89"/>
</linearGradient>
</defs>
</svg>