<svg width="386" height="323" viewBox="0 0 386 323" fill="none" xmlns="http://www.w3.org/2000/svg">
<path d="M363.825 78.1964C363.825 72.6171 360.903 67.7244 356.434 64.9777L352.308 62.5743C352.222 62.5743 352.222 62.4884 352.136 62.4884L346.206 59.055L247.363 2.06006C242.55 -0.686686 236.62 -0.686686 231.807 2.06006L126.948 62.4884C126.862 62.4884 126.862 62.5743 126.776 62.5743L122.479 65.0635C118.181 67.8103 115.259 72.6171 115.259 78.1964V82.4023C115.259 82.4882 115.259 82.574 115.259 82.6599V203.517C115.259 209.096 118.181 214.16 122.994 216.907L223.985 275.104L231.291 279.31C233.697 280.769 236.448 281.627 239.542 281.627C242.55 281.627 245.387 280.769 247.793 279.224L253.294 276.048L356.09 216.821C360.903 214.074 363.825 208.924 363.825 203.431V85.4924V78.1964Z" fill="url(#paint0_linear_665_26443)"/>
<path d="M186.941 196.908C186.941 194.161 185.48 191.844 183.331 190.47L181.354 189.355C181.354 189.355 181.354 189.355 181.268 189.269L178.346 187.638L130.3 159.913C127.979 158.539 125.057 158.539 122.737 159.913L71.7684 189.269C71.7684 189.269 71.6824 189.269 71.6824 189.355L69.6196 190.556C67.4709 191.93 66.0957 194.247 66.0957 196.908V198.968C66.0957 199.054 66.0957 199.054 66.0957 199.054V257.851C66.0957 260.512 67.5568 263.002 69.8775 264.375L118.955 292.701L122.479 294.761C123.596 295.448 124.971 295.877 126.432 295.877C127.894 295.877 129.269 295.448 130.472 294.761L133.136 293.216L183.073 264.375C185.394 263.002 186.855 260.512 186.855 257.851V200.513L186.941 196.908Z" fill="url(#paint1_linear_665_26443)"/>
<path d="M178.002 314.331C178.002 314.073 177.744 313.901 177.486 314.073L173.189 316.562C173.103 316.391 172.845 316.219 172.587 316.219C172.243 316.219 171.899 316.562 171.899 316.906C171.899 317.249 172.243 317.592 172.587 317.592V322.571L171.899 322.742L172.243 322.914C172.329 323 172.501 323 172.587 323C172.759 323 172.845 323 172.931 322.914L173.189 322.742L177.658 320.167C177.83 320.082 178.002 319.824 178.002 319.566V314.331Z" fill="url(#paint2_linear_665_26443)"/>
<path d="M172.329 316.734L167.945 314.245V313.473L167.602 313.644C167.43 313.73 167.258 313.988 167.258 314.245V314.417V319.653C167.258 319.91 167.344 320.082 167.602 320.254L172.157 322.915C172.415 323.086 172.673 322.915 172.673 322.657V317.421C172.673 317.078 172.501 316.82 172.329 316.734Z" fill="url(#paint3_linear_665_26443)"/>
<path d="M178.001 314.158C178.001 313.901 177.916 313.729 177.658 313.557L177.486 313.471L177.228 313.3L172.93 310.81C172.759 310.725 172.501 310.725 172.243 310.81L167.688 313.471C167.43 313.643 167.43 313.901 167.688 314.072L171.985 316.561L172.243 316.733C172.415 316.819 172.673 316.819 172.93 316.733L173.188 316.561L175.079 315.446L177.486 314.072C177.744 313.901 178.001 314.072 178.001 314.33V314.501V314.158Z" fill="url(#paint4_linear_665_26443)"/>
<path d="M207.741 34.1625C207.741 33.905 207.483 33.7334 207.225 33.905L202.928 36.3943C202.842 36.2226 202.584 36.0509 202.326 36.0509C201.982 36.0509 201.639 36.3943 201.639 36.7376C201.639 37.081 201.982 37.4243 202.326 37.4243V42.4028L201.639 42.5745L201.982 42.7461C202.068 42.832 202.24 42.832 202.326 42.832C202.498 42.832 202.584 42.832 202.67 42.7461L202.928 42.5745L207.397 39.9994C207.569 39.9135 207.741 39.656 207.741 39.3985V34.1625Z" fill="url(#paint5_linear_665_26443)"/>
<path d="M201.982 36.4805L197.599 33.9913V33.2188L197.255 33.3904C197.083 33.4763 196.911 33.7338 196.911 33.9913V34.1629V39.3989C196.911 39.6564 196.997 39.8281 197.255 39.9998L201.81 42.6607C202.068 42.8324 202.326 42.6607 202.326 42.4032V37.1672C202.326 36.8239 202.24 36.6522 201.982 36.4805Z" fill="url(#paint6_linear_665_26443)"/>
<path d="M207.741 33.9901C207.741 33.7326 207.655 33.5609 207.397 33.3892L207.225 33.3034L206.967 33.1317L202.67 30.6425C202.498 30.5567 202.24 30.5567 201.982 30.6425L197.427 33.3034C197.169 33.4751 197.169 33.7326 197.427 33.9043L201.724 36.3935L201.982 36.5652C202.154 36.651 202.412 36.651 202.67 36.5652L202.928 36.3935L204.818 35.2776L207.225 33.9043C207.483 33.7326 207.741 33.9043 207.741 34.1618V34.3334V33.9901Z" fill="url(#paint7_linear_665_26443)"/>
<path d="M350.932 184.202C350.932 183.944 350.675 183.772 350.417 183.944L346.119 186.433C346.033 186.262 345.776 186.09 345.518 186.09C345.174 186.09 344.83 186.433 344.83 186.777C344.83 187.12 345.174 187.463 345.518 187.463V192.442L344.83 192.614L345.174 192.785C345.26 192.871 345.432 192.871 345.518 192.871C345.69 192.871 345.776 192.871 345.861 192.785L346.119 192.614L350.589 190.038C350.761 189.953 350.932 189.695 350.932 189.438V184.202Z" fill="url(#paint8_linear_665_26443)"/>
<path d="M345.174 186.52L340.79 184.03V183.258L340.446 183.429C340.274 183.515 340.103 183.773 340.103 184.03V184.202V189.438C340.103 189.695 340.188 189.867 340.446 190.039L345.002 192.7C345.259 192.871 345.517 192.7 345.517 192.442V187.12C345.517 186.863 345.431 186.605 345.174 186.52Z" fill="url(#paint9_linear_665_26443)"/>
<path d="M350.932 184.029C350.932 183.772 350.846 183.6 350.588 183.428L350.416 183.342L350.159 183.171L345.861 180.682C345.689 180.596 345.431 180.596 345.174 180.682L340.618 183.342C340.36 183.514 340.36 183.772 340.618 183.943L344.916 186.433L345.174 186.604C345.345 186.69 345.603 186.69 345.861 186.604L346.119 186.433L348.01 185.317L350.416 183.943C350.674 183.772 350.932 183.943 350.932 184.201V184.372V184.029Z" fill="url(#paint10_linear_665_26443)"/>
<path d="M178.002 237.85C178.002 237.593 177.744 237.421 177.486 237.593L173.189 240.082C173.103 239.91 172.845 239.738 172.587 239.738C172.243 239.738 171.899 240.082 171.899 240.425C171.899 240.768 172.243 241.112 172.587 241.112V246.09L171.899 246.262L172.243 246.434C172.329 246.519 172.501 246.519 172.587 246.519C172.759 246.519 172.845 246.519 172.931 246.434L173.189 246.262L177.658 243.687C177.83 243.601 178.002 243.344 178.002 243.086V237.85Z" fill="url(#paint11_linear_665_26443)"/>
<path d="M172.329 240.168L167.945 237.679V236.906L167.602 237.078C167.43 237.164 167.258 237.421 167.258 237.679V237.85V243.086C167.258 243.344 167.344 243.516 167.602 243.687L172.157 246.348C172.415 246.52 172.673 246.348 172.673 246.091V240.855C172.673 240.511 172.501 240.254 172.329 240.168Z" fill="url(#paint12_linear_665_26443)"/>
<path d="M178.001 237.592C178.001 237.334 177.916 237.162 177.658 236.991L177.486 236.905L177.228 236.733L172.93 234.244C172.759 234.158 172.501 234.158 172.243 234.244L167.688 236.905C167.43 237.077 167.43 237.334 167.688 237.506L171.985 239.995L172.243 240.167C172.415 240.253 172.673 240.253 172.93 240.167L173.188 239.995L175.079 238.879L177.486 237.506C177.744 237.334 178.001 237.506 178.001 237.763V237.935V237.592Z" fill="url(#paint13_linear_665_26443)"/>
<path d="M117.923 178.023L144.653 193.56" stroke="url(#paint14_linear_665_26443)" stroke-miterlimit="10" stroke-linecap="round" stroke-linejoin="round"/>
<path d="M82.6836 188.668L226.821 272.272" stroke="url(#paint15_linear_665_26443)" stroke-miterlimit="10" stroke-linecap="round" stroke-linejoin="round"/>
<path d="M202.325 80.8594L345.345 163.777" stroke="url(#paint16_linear_665_26443)" stroke-miterlimit="10" stroke-linecap="round" stroke-linejoin="round"/>
<path d="M347.752 187.465L383.937 208.409" stroke="url(#paint17_linear_665_26443)" stroke-miterlimit="10" stroke-linecap="round" stroke-linejoin="round"/>
<path d="M124.885 159.398L272.804 245.234" stroke="url(#paint18_linear_665_26443)" stroke-miterlimit="10" stroke-linecap="round" stroke-linejoin="round"/>
<path d="M272.89 245.406L226.821 272.187" stroke="url(#paint19_linear_665_26443)" stroke-miterlimit="10" stroke-linecap="round" stroke-linejoin="round"/>
<path d="M272.891 157.25V245.403" stroke="url(#paint20_linear_665_26443)" stroke-miterlimit="10" stroke-linecap="round" stroke-linejoin="round"/>
<path d="M202.325 36.7383V80.8579" stroke="url(#paint21_linear_665_26443)" stroke-miterlimit="10" stroke-linecap="round" stroke-linejoin="round"/>
<path d="M172.673 241.715V320.598" stroke="url(#paint22_linear_665_26443)" stroke-miterlimit="10" stroke-linecap="round" stroke-linejoin="round"/>
<path d="M124.885 114.762V159.396" stroke="url(#paint23_linear_665_26443)" stroke-miterlimit="10" stroke-linecap="round" stroke-linejoin="round"/>
<path d="M345.346 163.859V182.915" stroke="url(#paint24_linear_665_26443)" stroke-miterlimit="10" stroke-linecap="round" stroke-linejoin="round"/>
<path d="M229.4 270.898C229.4 270.812 229.228 270.727 229.142 270.727L227.079 271.928C226.993 271.842 226.907 271.757 226.821 271.757C226.649 271.757 226.478 271.928 226.478 272.1C226.478 272.272 226.649 272.443 226.821 272.443V274.847L226.478 274.933L226.649 275.018C226.735 275.018 226.735 275.104 226.821 275.104C226.907 275.104 226.907 275.104 226.993 275.018L227.079 274.933L229.228 273.731C229.314 273.645 229.4 273.559 229.4 273.473V270.898Z" fill="url(#paint25_linear_665_26443)"/>
<path d="M226.65 272.014L224.587 270.812V270.469L224.415 270.555C224.329 270.64 224.243 270.726 224.243 270.812V270.898V273.387C224.243 273.473 224.329 273.645 224.415 273.645L226.564 274.932C226.65 275.018 226.822 274.932 226.822 274.761V272.271C226.822 272.185 226.736 272.1 226.65 272.014Z" fill="url(#paint26_linear_665_26443)"/>
<path d="M229.4 270.812C229.4 270.727 229.314 270.555 229.228 270.555L229.142 270.469L229.056 270.383L226.994 269.182C226.908 269.096 226.736 269.096 226.65 269.182L224.501 270.469C224.415 270.555 224.415 270.727 224.501 270.727L226.564 271.928L226.65 272.014C226.736 272.1 226.908 272.1 226.994 272.014L227.079 271.928L227.939 271.413L229.056 270.727C229.142 270.641 229.314 270.727 229.314 270.898V270.984V270.812H229.4Z" fill="url(#paint27_linear_665_26443)"/>
<path d="M127.463 158.023C127.463 157.937 127.291 157.852 127.205 157.852L125.143 159.053C125.057 158.967 124.971 158.882 124.885 158.882C124.713 158.882 124.541 159.053 124.541 159.225C124.541 159.397 124.713 159.568 124.885 159.568V161.972L124.541 162.058L124.713 162.143C124.799 162.143 124.799 162.229 124.885 162.229C124.971 162.229 124.971 162.229 125.057 162.143L125.143 162.058L127.291 160.856C127.377 160.77 127.463 160.684 127.463 160.598V158.023Z" fill="url(#paint28_linear_665_26443)"/>
<path d="M124.713 159.139L122.65 157.937V157.594L122.479 157.68C122.393 157.765 122.307 157.851 122.307 157.937V158.023V160.512C122.307 160.598 122.393 160.77 122.479 160.77L124.627 162.057C124.713 162.143 124.885 162.057 124.885 161.886V159.396C124.885 159.31 124.799 159.225 124.713 159.139Z" fill="url(#paint29_linear_665_26443)"/>
<path d="M127.464 157.937C127.464 157.852 127.378 157.68 127.292 157.68L127.206 157.594L127.12 157.508L125.057 156.307C124.971 156.221 124.799 156.221 124.713 156.307L122.564 157.594C122.479 157.68 122.479 157.852 122.564 157.852L124.627 159.053L124.713 159.139C124.799 159.225 124.971 159.225 125.057 159.139L125.143 159.053L126.002 158.538L127.12 157.852C127.206 157.766 127.378 157.852 127.378 158.023V158.109L127.464 157.937Z" fill="url(#paint30_linear_665_26443)"/>
<path d="M204.904 79.5701C204.904 79.4843 204.732 79.3984 204.646 79.3984L202.583 80.6001C202.497 80.5143 202.411 80.4285 202.325 80.4285C202.153 80.4285 201.981 80.6001 201.981 80.7718C201.981 80.9435 202.153 81.1152 202.325 81.1152V83.5186L201.981 83.6044L202.153 83.6902C202.239 83.6902 202.239 83.7761 202.325 83.7761C202.411 83.7761 202.411 83.7761 202.497 83.6902L202.583 83.6044L204.732 82.4027C204.818 82.3169 204.904 82.231 204.904 82.1452V79.5701Z" fill="url(#paint31_linear_665_26443)"/>
<path d="M202.154 80.6857L200.091 79.484V79.1406L199.919 79.2265C199.833 79.3123 199.747 79.3981 199.747 79.484V79.5698V82.059C199.747 82.1449 199.833 82.3166 199.919 82.3166L202.068 83.6041C202.154 83.6899 202.326 83.6041 202.326 83.4324V80.9432C202.326 80.8573 202.24 80.7715 202.154 80.6857Z" fill="url(#paint32_linear_665_26443)"/>
<path d="M204.904 79.4843C204.904 79.3985 204.818 79.2268 204.732 79.2268L204.646 79.141L204.56 79.0551L202.497 77.8534C202.411 77.7676 202.24 77.7676 202.154 77.8534L200.005 79.141C199.919 79.2268 199.919 79.3985 200.005 79.3985L202.068 80.6002L202.154 80.686C202.24 80.7719 202.411 80.7719 202.497 80.686L202.583 80.6002L203.443 80.0852L204.56 79.3985C204.646 79.3127 204.818 79.3985 204.818 79.5702V79.656V79.4843H204.904Z" fill="url(#paint33_linear_665_26443)"/>
<path d="M385.999 207.293C385.999 207.207 385.828 207.121 385.742 207.121L383.679 208.323C383.593 208.237 383.507 208.151 383.421 208.151C383.249 208.151 383.077 208.323 383.077 208.494C383.077 208.666 383.249 208.838 383.421 208.838V211.241L383.077 211.327L383.249 211.413C383.335 211.413 383.335 211.499 383.421 211.499C383.507 211.499 383.507 211.499 383.593 211.413L383.679 211.327L385.828 210.125C385.913 210.04 385.999 209.954 385.999 209.868V207.293Z" fill="url(#paint34_linear_665_26443)"/>
<path d="M383.249 208.408L381.187 207.207V206.863L381.015 206.949C380.929 207.035 380.843 207.121 380.843 207.207V207.292V209.782C380.843 209.868 380.929 210.039 381.015 210.039L383.163 211.327C383.249 211.413 383.421 211.327 383.421 211.155V208.666C383.421 208.58 383.335 208.408 383.249 208.408Z" fill="url(#paint35_linear_665_26443)"/>
<path d="M386 207.207C386 207.121 385.914 206.949 385.828 206.949L385.742 206.864L385.656 206.778L383.593 205.576C383.507 205.49 383.335 205.49 383.249 205.576L381.101 206.864C381.015 206.949 381.015 207.121 381.101 207.121L383.163 208.323L383.249 208.409C383.335 208.495 383.507 208.495 383.593 208.409L383.679 208.323L384.539 207.808L385.656 207.121C385.742 207.035 385.914 207.121 385.914 207.293V207.379V207.207H386Z" fill="url(#paint36_linear_665_26443)"/>
<path d="M270.656 274.675L323.687 244.031V250.297L270.656 280.855V274.675Z" fill="url(#paint37_linear_665_26443)"/>
<path d="M251.318 263.344C251.404 263.43 251.489 263.601 251.661 263.687L270.656 274.674V280.94L251.661 269.953C251.146 269.696 251.06 269.266 251.318 268.923V263.344Z" fill="url(#paint38_linear_665_26443)"/>
<path d="M237.05 255.19C237.995 255.791 239.628 255.362 239.8 254.589C240.058 252.958 241.433 251.327 243.754 250.126C248.051 247.98 255.099 247.894 259.311 250.04C262.749 251.757 263.952 254.246 263.092 256.563C263.436 257.593 263.436 258.623 263.006 259.653C262.405 258.366 261.201 257.164 259.311 256.22C255.013 254.074 247.965 254.16 243.754 256.306C241.433 257.508 240.058 259.138 239.8 260.769C239.628 261.542 237.995 261.971 237.05 261.37L218.055 250.383V244.117L237.05 255.19Z" fill="url(#paint39_linear_665_26443)"/>
<path d="M288.963 232.445C286.127 232.616 283.291 233.389 281.228 234.762C279.939 235.621 279.165 236.565 278.735 237.595C278.306 236.565 278.306 235.535 278.649 234.505C277.962 232.445 278.821 230.127 281.228 228.496C283.291 227.123 286.127 226.35 288.963 226.179C289.737 226.093 290.253 225.835 290.424 225.406V231.243C290.682 231.844 290.081 232.445 288.963 232.445Z" fill="url(#paint40_linear_665_26443)"/>
<path d="M237.308 235.963L235.073 237.251C232.753 237.079 230.518 236.478 228.799 235.448C226.478 234.075 225.361 232.358 225.533 230.556V227.723V224.891C225.619 226.436 226.736 228.067 228.799 229.268C230.862 230.47 233.44 231.071 236.105 231.157C237.824 231.242 238.597 232.444 237.394 233.217L236.019 233.989C236.105 233.989 236.105 233.989 236.191 233.989C237.824 233.989 238.597 235.277 237.308 235.963Z" fill="url(#paint41_linear_665_26443)"/>
<path d="M244.527 219.739C246.762 220.941 247.965 222.486 248.137 224.117C248.223 225.147 250.372 225.576 251.661 224.889L271 213.73L289.995 224.717C290.94 225.318 290.338 226.262 288.963 226.262C286.127 226.434 283.291 227.207 281.228 228.58C277.446 231.069 277.36 235.104 281.142 237.593C285.697 240.597 293.604 240.683 298.504 237.936C300.566 236.734 301.684 235.275 301.942 233.73C302.113 232.958 303.747 232.614 304.692 233.129L323.687 244.116L270.656 274.674L251.661 263.687C250.716 263.086 251.317 262.142 252.692 262.142C255.357 261.97 257.935 261.369 259.912 260.168C264.725 257.335 264.553 252.786 259.311 250.211C255.013 248.065 247.965 248.151 243.754 250.297C241.433 251.498 240.058 253.129 239.8 254.76C239.628 255.532 237.995 255.962 237.05 255.361L218.055 244.374L237.393 233.215C238.683 232.529 237.909 231.241 236.104 231.155C233.44 231.069 230.861 230.468 228.798 229.267C224.243 226.692 224.415 222.4 229.142 219.825C233.44 217.421 240.316 217.421 244.527 219.739Z" fill="url(#paint42_linear_665_26443)"/>
<path d="M270.311 159.739C272.976 159.653 275.554 158.967 277.617 157.851C279.594 156.735 280.625 155.276 280.883 153.816V155.876C281.227 157.765 280.11 159.739 277.617 161.198C275.812 162.228 273.577 162.829 271.257 163.087L269.022 161.799C267.819 161.027 268.592 159.739 270.311 159.739Z" fill="url(#paint43_linear_665_26443)"/>
<path d="M245.988 121.286C244.784 122.058 243.925 123.088 243.495 124.204C243.065 123.174 243.065 122.144 243.409 121.114C242.722 118.968 243.581 116.65 245.988 115.105C250.543 112.187 258.45 112.015 263.178 114.762C265.154 115.964 266.358 117.423 266.53 118.882C266.616 119.655 268.335 119.998 269.28 119.483L288.447 108.41V114.676L269.28 125.749C268.335 126.35 266.702 125.921 266.53 125.148C266.272 123.603 265.154 122.144 263.178 121.028C258.45 118.195 250.543 118.367 245.988 121.286Z" fill="url(#paint44_linear_665_26443)"/>
<path d="M254.067 129.012C253.981 129.012 253.981 129.012 253.895 129.012L255.27 128.24C256.559 127.553 255.786 126.265 253.981 126.179C251.231 126.094 248.48 125.407 246.417 124.119C244.269 122.832 243.323 121.115 243.495 119.398H243.409V122.231V122.746V125.579H243.495C243.323 127.295 244.269 129.012 246.417 130.385C248.222 131.501 250.543 132.188 253.036 132.36C253.121 132.36 255.872 129.098 254.067 129.012ZM243.581 122.66C243.581 122.746 243.581 122.746 243.581 122.832C243.581 122.832 243.581 122.746 243.581 122.66Z" fill="url(#paint45_linear_665_26443)"/>
<path d="M255.012 150.299C255.958 150.9 257.591 150.471 257.763 149.699C258.021 148.068 259.396 146.437 261.717 145.235C266.014 143.089 273.062 143.003 277.273 145.149C280.711 146.866 281.915 149.355 281.055 151.673C281.399 152.703 281.399 153.733 280.969 154.763C280.368 153.475 279.164 152.274 277.273 151.33C272.976 149.184 265.928 149.269 261.717 151.415C259.396 152.617 258.021 154.248 257.763 155.879C257.591 156.651 255.958 157.081 255.012 156.48L236.018 145.493V142.66V142.145V139.312L255.012 150.299Z" fill="url(#paint46_linear_665_26443)"/>
<path d="M270.311 156.821C272.976 156.735 275.554 156.049 277.617 154.933C279.594 153.817 280.625 152.358 280.883 150.898V152.958C281.227 154.847 280.11 156.821 277.617 158.28C275.812 159.31 273.577 159.911 271.257 160.169L269.022 158.881C267.819 158.194 268.592 156.907 270.311 156.821Z" fill="url(#paint47_linear_665_26443)"/>
<path d="M245.988 114.59C244.785 115.362 243.925 116.392 243.496 117.508C242.636 115.362 243.496 112.873 245.988 111.242C250.543 108.324 258.451 108.152 263.178 110.899C265.155 112.1 266.358 113.56 266.53 115.019C266.616 115.791 268.335 116.135 269.28 115.62L288.447 104.547V107.894L269.28 118.967C268.335 119.568 266.702 119.139 266.53 118.366C266.272 116.821 265.155 115.362 263.178 114.246C258.451 111.585 250.543 111.671 245.988 114.59Z" fill="url(#paint48_linear_665_26443)"/>
<path d="M246.503 120.256C248.566 121.544 251.317 122.23 254.067 122.316C255.786 122.402 256.559 123.604 255.356 124.376L253.121 125.664C250.715 125.492 248.308 124.805 246.503 123.69C244.355 122.402 243.409 120.599 243.581 118.883H243.495V115.535H243.581C243.409 117.166 244.441 118.969 246.503 120.256Z" fill="url(#paint49_linear_665_26443)"/>
<path d="M255.012 146.436C255.958 147.037 257.591 146.608 257.763 145.835C258.021 144.205 259.396 142.574 261.717 141.372C266.014 139.226 273.062 139.14 277.273 141.286C280.797 143.089 282.001 145.75 280.969 148.153C280.368 146.865 279.164 145.664 277.273 144.72C272.976 142.574 265.928 142.66 261.717 144.805C259.396 146.007 258.021 147.638 257.763 149.269C257.591 150.041 255.958 150.471 255.012 149.87L236.018 138.883V135.535L255.012 146.436Z" fill="url(#paint50_linear_665_26443)"/>
<path d="M270.311 153.044C272.976 152.958 275.554 152.271 277.617 151.155C279.594 150.04 280.625 148.58 280.883 147.121V149.181C281.227 151.07 280.11 153.044 277.617 154.503C275.812 155.533 273.577 156.134 271.257 156.391L269.022 155.104C267.819 154.331 268.592 153.13 270.311 153.044Z" fill="url(#paint51_linear_665_26443)"/>
<path d="M270.311 151.157C272.976 151.071 275.554 150.385 277.617 149.269C279.594 148.153 280.625 146.694 280.883 145.234V147.294C281.227 149.183 280.11 151.157 277.617 152.616C275.812 153.646 273.577 154.247 271.257 154.505L269.022 153.217C267.819 152.53 268.592 151.243 270.311 151.157Z" fill="url(#paint52_linear_665_26443)"/>
<path d="M245.988 112.789C244.784 113.562 243.925 114.592 243.495 115.708C243.065 114.678 243.065 113.648 243.409 112.618C242.722 110.472 243.581 108.154 245.988 106.609C250.543 103.691 258.45 103.519 263.178 106.266C265.154 107.468 266.358 108.927 266.53 110.386C266.616 111.159 268.335 111.502 269.28 110.987L288.447 99.9141V106.18L269.28 117.253C268.335 117.854 266.702 117.425 266.53 116.652C266.272 115.107 265.154 113.648 263.178 112.532C258.45 109.699 250.543 109.785 245.988 112.789Z" fill="url(#paint53_linear_665_26443)"/>
<path d="M193.644 124.548C197.942 126.866 204.732 126.78 209.029 124.548C211.264 123.346 212.467 121.801 212.639 120.171C212.725 119.141 214.96 118.711 216.163 119.398L235.502 130.471L254.668 119.398C254.84 119.312 254.926 119.141 255.012 119.055V124.634C255.27 124.977 255.184 125.321 254.668 125.578L235.502 136.737L216.249 125.664C215.046 124.977 212.811 125.407 212.725 126.437C212.553 128.067 211.35 129.612 209.115 130.814C204.818 133.132 197.942 133.132 193.73 130.814C191.409 129.612 190.206 127.896 190.12 126.265H190.034V119.999H190.12C190.206 121.63 191.409 123.346 193.644 124.548Z" fill="url(#paint54_linear_665_26443)"/>
<path d="M182.814 100.086L201.981 111.159C203.185 111.845 202.497 113.133 200.692 113.219H200.606L201.981 113.991C203.185 114.678 202.497 115.966 200.692 116.051C200.348 116.051 200.09 116.051 199.747 116.137L182.729 106.352H182.643L182.814 100.086Z" fill="url(#paint55_linear_665_26443)"/>
<path d="M254.067 120.426C253.981 120.426 253.981 120.426 253.895 120.426L255.27 119.654C256.559 118.967 255.786 117.679 253.981 117.594C251.231 117.508 248.48 116.821 246.417 115.533C244.269 114.246 243.323 112.529 243.495 110.812H243.409V113.645V114.16V116.993H243.495C243.323 118.709 244.269 120.426 246.417 121.799C248.222 122.915 250.543 123.602 253.036 123.774C253.121 123.774 255.872 120.512 254.067 120.426ZM243.581 114.16C243.581 114.246 243.581 114.246 243.581 114.332C243.581 114.246 243.581 114.16 243.581 114.16Z" fill="url(#paint56_linear_665_26443)"/>
<path d="M255.012 141.714C255.958 142.314 257.591 141.885 257.763 141.113C258.021 139.482 259.396 137.851 261.717 136.649C266.014 134.503 273.062 134.418 277.273 136.563C280.711 138.28 281.915 140.769 281.055 143.087C281.399 144.117 281.399 145.147 280.969 146.177C280.368 144.889 279.164 143.688 277.273 142.744C272.976 140.598 265.928 140.684 261.717 142.829C259.396 144.031 258.021 145.662 257.763 147.293C257.591 148.065 255.958 148.495 255.012 147.894L236.018 136.907V134.074V133.559V130.727L255.012 141.714Z" fill="url(#paint57_linear_665_26443)"/>
<path d="M322.397 141.713L341.735 130.555V136.821L324.631 146.692C324.288 146.692 324.03 146.606 323.686 146.606C321.967 146.52 321.193 145.318 322.397 144.546L323.772 143.773C323.686 143.773 323.686 143.773 323.6 143.773C321.881 143.688 321.107 142.486 322.397 141.713Z" fill="url(#paint58_linear_665_26443)"/>
<path d="M270.311 148.325C272.976 148.239 275.554 147.552 277.617 146.437C279.594 145.321 280.625 143.862 280.883 142.402V144.462C281.227 146.351 280.11 148.325 277.617 149.784C275.812 150.814 273.577 151.415 271.257 151.673L269.022 150.385C267.819 149.613 268.592 148.411 270.311 148.325Z" fill="url(#paint59_linear_665_26443)"/>
<path d="M269.195 149.613C269.195 149.785 269.367 150.042 269.625 150.214L288.619 161.201L307.958 150.042C309.247 149.356 311.396 149.785 311.482 150.729C311.654 152.274 312.771 153.733 314.748 154.935C319.303 157.51 326.695 157.424 331.079 154.763C332.798 153.648 333.829 152.36 334.001 150.901V155.879C334.259 157.682 333.313 159.57 331.079 160.944C326.695 163.69 319.217 163.776 314.748 161.115C312.685 159.914 311.654 158.454 311.482 156.909C311.396 155.879 309.161 155.45 307.958 156.223L288.619 167.381L269.625 156.394C269.281 156.137 269.109 155.879 269.195 155.622V149.613Z" fill="url(#paint60_linear_665_26443)"/>
<path d="M217.452 143.69C220.289 143.862 223.039 144.634 225.188 145.922C227.594 147.467 228.454 149.785 227.766 151.845C228.11 152.875 228.11 153.991 227.68 154.935C227.251 153.905 226.477 152.961 225.188 152.102C223.125 150.729 220.375 149.956 217.452 149.87C216.507 149.785 215.991 149.441 215.991 148.926V142.746C215.991 143.261 216.593 143.604 217.452 143.69Z" fill="url(#paint61_linear_665_26443)"/>
<path d="M245.644 168.152C250.2 165.148 258.193 164.976 263.006 167.723C264.983 168.925 266.186 170.384 266.358 171.843C266.444 172.616 268.163 172.959 269.109 172.444L288.276 161.371V167.637L269.109 178.71C268.163 179.311 266.53 178.882 266.358 178.109C266.101 176.564 264.983 175.105 263.006 173.989C258.193 171.242 250.2 171.328 245.644 174.418C244.441 175.191 243.668 176.221 243.238 177.251C242.808 176.221 242.808 175.191 243.152 174.161C242.378 172.015 243.238 169.697 245.644 168.152Z" fill="url(#paint62_linear_665_26443)"/>
<path d="M182.557 167.809V161.543L201.723 172.616C202.927 173.302 202.239 174.59 200.434 174.676H200.348L201.723 175.448C202.927 176.135 202.239 177.423 200.434 177.508C200.09 177.508 199.833 177.508 199.489 177.594L182.557 167.809Z" fill="url(#paint63_linear_665_26443)"/>
<path d="M254.325 180.941C254.583 180.855 254.669 180.683 254.755 180.512V186.263C254.927 186.52 254.755 186.864 254.325 187.121L235.158 198.194V191.928L254.325 180.941Z" fill="url(#paint64_linear_665_26443)"/>
<path d="M189.862 181.544C189.948 183.175 191.152 184.892 193.472 186.093C197.77 188.411 204.56 188.325 208.857 186.093C211.092 184.892 212.295 183.347 212.467 181.716C212.553 180.686 214.788 180.256 215.991 180.943L235.244 192.016V198.282L215.991 187.123C214.788 186.437 212.553 186.866 212.467 187.896C212.295 189.527 211.092 191.072 208.857 192.273C204.56 194.591 197.684 194.591 193.472 192.273C191.152 191.072 189.948 189.355 189.862 187.724V187.638C189.862 187.553 189.862 187.467 189.862 187.381V181.544Z" fill="url(#paint65_linear_665_26443)"/>
<path d="M225.102 145.92C223.039 144.547 220.289 143.774 217.366 143.688C215.991 143.602 215.389 142.658 216.335 142.143L235.502 131.07L254.754 142.143C255.958 142.83 258.192 142.401 258.278 141.371C258.45 139.74 259.654 138.195 261.888 136.993C266.186 134.675 273.062 134.675 277.273 136.993C282 139.482 282.086 143.774 277.531 146.435C275.468 147.637 272.89 148.237 270.225 148.323C268.506 148.409 267.733 149.697 268.936 150.383L288.103 161.456L268.936 172.529C267.991 173.13 266.358 172.701 266.186 171.928C265.928 170.383 264.81 168.924 262.834 167.808C258.02 165.061 250.027 165.147 245.472 168.237C241.776 170.726 241.776 174.761 245.472 177.25C247.535 178.623 250.285 179.396 253.207 179.482C254.582 179.568 255.184 180.512 254.239 181.027L235.072 192.1L215.819 181.027C214.616 180.34 212.381 180.769 212.295 181.799C212.123 183.43 210.92 184.975 208.685 186.177C204.388 188.494 197.512 188.494 193.3 186.177C188.573 183.688 188.487 179.396 193.043 176.735C195.105 175.533 197.684 174.932 200.348 174.847C202.067 174.761 202.841 173.473 201.637 172.786L182.471 161.714L201.637 150.641C202.583 150.04 204.216 150.469 204.388 151.242C204.646 152.787 205.763 154.246 207.74 155.362C212.553 158.109 220.546 158.023 225.102 154.933C228.884 152.443 228.884 148.409 225.102 145.92Z" fill="url(#paint66_linear_665_26443)"/>
<path d="M263.178 106.181C258.365 103.434 250.544 103.52 245.988 106.524C242.293 108.927 242.207 113.133 245.902 115.623C247.965 116.996 250.716 117.769 253.638 117.854C255.013 117.94 255.615 118.884 254.669 119.399L235.503 130.472L216.25 119.399C215.047 118.713 212.812 119.142 212.726 120.172C212.554 121.803 211.351 123.348 209.116 124.55C204.819 126.867 197.943 126.867 193.731 124.55C189.004 122.06 188.918 117.769 193.473 115.108C195.536 113.906 198.114 113.305 200.779 113.219C202.498 113.133 203.271 111.846 202.068 111.159L182.901 100.086L231.635 71.9322C234.299 70.3872 237.479 70.3872 240.144 71.9322L288.534 99.8288L269.367 110.902C268.421 111.502 266.788 111.073 266.616 110.301C266.358 108.842 265.241 107.382 263.178 106.181Z" fill="url(#paint67_linear_665_26443)"/>
<path d="M262.92 106.438C264.983 107.64 266.014 109.099 266.186 110.644C266.272 111.674 268.507 112.103 269.71 111.331L289.048 100.172L341.736 130.558L322.397 141.716C321.108 142.403 321.881 143.691 323.686 143.776C326.437 143.862 329.187 144.549 331.25 145.837C335.203 148.326 335.203 152.274 331.25 154.763C326.866 157.51 319.389 157.596 314.919 154.935C312.857 153.733 311.825 152.274 311.653 150.729C311.567 149.699 309.333 149.27 308.129 150.042L288.791 161.201L269.71 150.214C268.764 149.613 269.366 148.669 270.741 148.669C273.406 148.497 275.984 147.897 277.961 146.695C282.774 143.862 282.602 139.313 277.359 136.738C273.062 134.592 266.014 134.678 261.802 136.824C259.482 138.025 258.107 139.656 257.849 141.287C257.677 142.06 256.044 142.489 255.098 141.888L236.104 130.901L255.442 119.742C256.731 119.056 255.958 117.768 254.153 117.682C251.403 117.597 248.652 116.91 246.589 115.622C242.636 113.133 242.636 109.185 246.589 106.695C250.973 103.863 258.364 103.863 262.92 106.438Z" fill="url(#paint68_linear_665_26443)"/>
<path d="M121.877 219.915C123.166 219.229 125.315 219.658 125.401 220.602C125.573 222.147 126.69 223.606 128.667 224.808C133.222 227.383 140.614 227.297 144.997 224.636C146.716 223.52 147.748 222.147 147.92 220.774V222.919C148.005 223.263 147.92 225.752 147.92 225.752C148.177 227.555 147.232 229.443 144.997 230.816C140.614 233.563 133.136 233.649 128.667 230.988C126.604 229.786 125.573 228.327 125.401 226.782C125.315 225.752 123.08 225.323 121.877 226.095L102.538 237.254V230.988L121.877 219.915Z" fill="url(#paint69_linear_665_26443)"/>
<path d="M57.5 184.98C57.4141 184.551 57.4141 184.122 57.5 183.693V181.633C57.7579 183.006 58.7033 184.294 60.4223 185.41C62.4851 186.697 65.2355 187.384 67.9859 187.47C69.7049 187.555 70.4784 188.757 69.2751 189.53L67.8999 190.302C67.9859 190.302 67.9859 190.302 68.0718 190.302C69.7908 190.388 70.5644 191.59 69.3611 192.362L67.1264 193.65C64.7198 193.478 62.3132 192.791 60.5082 191.676C58.2736 190.302 57.3281 188.414 57.586 186.611V184.98H57.5Z" fill="url(#paint70_linear_665_26443)"/>
<path d="M120.93 188.843C118.266 189.015 115.688 189.616 113.711 190.818C112.164 191.762 111.132 192.792 110.617 193.993C110.187 192.963 110.101 191.933 110.531 190.903C109.757 188.672 110.788 186.354 113.797 184.637C115.859 183.436 118.352 182.835 121.016 182.663C121.79 182.577 122.306 182.32 122.478 181.891V184.723V184.895C122.564 185.067 122.564 185.152 122.478 185.324V187.727C122.564 188.242 121.962 188.757 120.93 188.843Z" fill="url(#paint71_linear_665_26443)"/>
<path d="M137.519 216.481C135.8 216.395 135.027 215.193 136.23 214.421L137.605 213.648C137.519 213.648 137.519 213.648 137.433 213.648C135.714 213.563 134.941 212.361 136.144 211.588L155.483 200.43V206.696L138.379 216.567C138.207 216.481 137.863 216.481 137.519 216.481Z" fill="url(#paint72_linear_665_26443)"/>
<path d="M1.54709 172.704L49.507 200.343L68.6738 189.27C68.9316 189.184 69.0176 189.013 69.1035 188.841V191.674V191.76C69.1895 191.931 69.1895 192.103 69.1035 192.189V194.592C69.1895 194.85 69.1035 195.193 68.6738 195.45L49.507 206.523L1.54709 178.97C0.687597 178.455 0.171899 177.597 0 176.738V173.906V172.961V172.79V170.129C0 171.073 0.515698 172.103 1.54709 172.704Z" fill="url(#paint73_linear_665_26443)"/>
<path d="M92.2244 160.859C90.4195 161.975 88.0129 162.662 85.6063 162.919L83.3716 161.632C82.1683 160.945 82.9419 159.658 84.6609 159.572H84.7468L83.3716 158.799C82.1683 158.113 82.9419 156.825 84.6609 156.739C87.4112 156.653 90.1616 155.967 92.2244 154.679C93.9434 153.649 94.8889 152.276 95.1467 150.902V155.795C95.4905 157.512 94.5451 159.4 92.2244 160.859Z" fill="url(#paint74_linear_665_26443)"/>
<path d="M61.1102 182.06C59.2193 183.004 57.9301 184.292 57.3284 185.579C56.8987 184.549 56.8128 183.519 57.2425 182.489C56.383 180.171 57.6722 177.596 61.1102 175.88C65.4077 173.734 72.4556 173.734 76.6671 175.88C78.9878 177.081 80.363 178.712 80.6208 180.343C80.7927 181.116 82.3398 181.545 83.3712 180.944L102.538 169.871V172.704V173.219V176.051L83.3712 187.038C82.4258 187.639 80.7927 187.21 80.6208 186.437C80.363 184.807 79.0737 183.176 76.6671 181.974C72.4556 179.914 65.4077 179.914 61.1102 182.06Z" fill="url(#paint75_linear_665_26443)"/>
<path d="M49.8506 200.602L102.538 230.987V237.253L49.8506 206.868V200.602Z" fill="url(#paint76_linear_665_26443)"/>
<path d="M128.666 224.806C126.604 223.604 125.572 222.145 125.4 220.6C125.314 219.57 123.08 219.141 121.876 219.913L102.538 231.072L49.8506 200.6L69.1893 189.442C70.4785 188.755 69.705 187.468 67.9 187.382C65.1496 187.296 62.3992 186.609 60.3364 185.322C56.3828 182.832 56.3828 178.884 60.3364 176.395C64.7199 173.648 72.1975 173.562 76.6669 176.223C78.7297 177.425 79.7611 178.884 79.933 180.429C80.0189 181.459 82.2536 181.888 83.4569 181.116L102.796 169.957L121.79 180.944C122.736 181.545 122.134 182.489 120.759 182.489C118.095 182.661 115.516 183.262 113.539 184.463C108.726 187.296 108.898 191.845 114.141 194.42C118.438 196.566 125.486 196.48 129.698 194.334C132.018 193.133 133.394 191.502 133.652 189.871C133.823 189.098 135.456 188.669 136.402 189.27L155.397 200.257L136.058 211.416C134.769 212.102 135.542 213.39 137.347 213.476C140.098 213.562 142.848 214.248 144.911 215.536C148.865 218.025 148.865 221.973 144.911 224.463C140.613 227.295 133.222 227.381 128.666 224.806Z" fill="url(#paint77_linear_665_26443)"/>
<path d="M60.4226 185.836C55.6094 183.089 55.8673 178.454 61.1102 175.793C65.4077 173.647 72.4556 173.647 76.6671 175.793C78.9878 176.995 80.363 178.625 80.6208 180.256C80.7927 181.029 82.3398 181.458 83.3712 180.857L102.538 169.784L83.2852 158.711C82.0819 158.025 82.8555 156.737 84.5745 156.651C87.3249 156.566 90.0753 155.879 92.1381 154.591C96.0917 152.102 96.1777 148.154 92.224 145.664C87.8406 142.918 80.4489 142.918 75.8936 145.493C73.8308 146.694 72.7134 148.154 72.5415 149.699C72.4556 150.729 70.2209 151.158 69.0176 150.471L49.8508 139.398L1.54709 167.295C-0.515698 168.497 -0.515698 171.501 1.54709 172.703L49.507 200.342L68.6738 189.269C69.6192 188.668 69.0176 187.724 67.6424 187.724C65.0639 187.638 62.4854 186.951 60.4226 185.836Z" fill="url(#paint78_linear_665_26443)"/>
<path d="M158.491 128.237L159.866 127.465C159.78 127.465 159.78 127.465 159.694 127.465C157.975 127.379 157.202 126.177 158.405 125.405L177.743 114.246V120.512L160.639 130.383C160.296 130.383 160.038 130.297 159.694 130.297C158.061 130.212 157.287 128.924 158.491 128.237Z" fill="url(#paint79_linear_665_26443)"/>
<path d="M135.972 98.3677C138.035 97.166 140.527 96.5652 143.192 96.3935C144.051 96.3077 144.653 95.9643 144.653 95.5352V101.801C144.653 102.23 144.051 102.66 143.192 102.745C140.527 102.917 137.949 103.518 135.972 104.72C134.425 105.664 133.394 106.694 132.878 107.896C132.448 106.865 132.362 105.835 132.792 104.805C131.933 102.488 132.964 100.084 135.972 98.3677Z" fill="url(#paint80_linear_665_26443)"/>
<path d="M105.374 133.387C105.46 133.558 105.546 133.73 105.803 133.816L124.798 144.803V151.069L105.803 140.082C105.374 139.824 105.288 139.567 105.374 139.224V133.387Z" fill="url(#paint81_linear_665_26443)"/>
<path d="M144.138 133.646C145.427 132.959 147.575 133.388 147.661 134.332C147.833 135.877 148.951 137.337 150.928 138.538C155.483 141.113 162.875 141.028 167.258 138.367C169.235 137.165 170.18 135.62 170.266 133.989V140.255C170.18 141.8 169.235 143.431 167.258 144.633C162.875 147.379 155.397 147.465 150.928 144.804C148.865 143.603 147.833 142.143 147.661 140.598C147.575 139.568 145.341 139.139 144.138 139.912L124.799 151.07V144.804L144.138 133.646Z" fill="url(#paint82_linear_665_26443)"/>
<path d="M91.1921 125.405C92.1376 126.006 93.7706 125.577 93.9425 124.804C94.2004 123.259 95.3177 121.8 97.3805 120.598C102.194 117.766 110.187 117.937 114.742 120.941C117.149 122.487 117.922 124.718 117.235 126.778C117.579 127.808 117.579 128.838 117.149 129.868C116.719 128.838 115.946 127.894 114.742 127.122C110.187 124.117 102.28 124.032 97.3805 126.778C95.3177 127.98 94.2004 129.439 93.9425 130.984C93.7706 131.757 92.1376 132.1 91.1921 131.585L72.1973 120.684V114.418L91.1921 125.405Z" fill="url(#paint83_linear_665_26443)"/>
<path d="M144.223 94.8503C145.169 95.4511 144.567 96.3953 143.192 96.3953C140.527 96.567 137.949 97.1678 135.972 98.3695C131.159 101.202 131.331 105.751 136.574 108.326C140.871 110.472 147.919 110.387 152.13 108.241C154.451 107.039 155.826 105.408 156.084 103.777C156.256 103.005 157.889 102.575 158.835 103.176L177.829 114.163L158.491 125.322C157.201 126.009 157.975 127.296 159.78 127.382C162.53 127.468 165.281 128.155 167.344 129.442C171.297 131.931 171.297 135.88 167.344 138.369C162.96 141.116 155.482 141.202 151.013 138.541C148.95 137.339 147.919 135.88 147.747 134.335C147.661 133.305 145.426 132.876 144.223 133.648L124.884 144.807L105.89 133.82C104.944 133.219 105.546 132.275 106.921 132.275C109.757 132.103 112.594 131.33 114.656 129.957C118.438 127.468 118.524 123.434 114.742 120.944C110.187 117.94 102.28 117.854 97.3805 120.601C95.3177 121.803 94.2004 123.262 93.9425 124.807C93.7706 125.579 92.1376 125.923 91.1921 125.408L72.1973 114.421L125.228 83.8633L144.223 94.8503Z" fill="url(#paint84_linear_665_26443)"/>
<defs>
<linearGradient id="paint0_linear_665_26443" x1="-378.069" y1="-217.759" x2="539.137" y2="316.207" gradientUnits="userSpaceOnUse">
<stop stop-color="#C5D8C2"/>
<stop offset="1" stop-color="#ECF3EF"/>
</linearGradient>
<linearGradient id="paint1_linear_665_26443" x1="110.124" y1="215.001" x2="724.857" y2="680.395" gradientUnits="userSpaceOnUse">
<stop stop-color="#DCE7DC"/>
<stop offset="1" stop-color="#7EB666"/>
</linearGradient>
<linearGradient id="paint2_linear_665_26443" x1="165.361" y1="309.292" x2="174.714" y2="318.211" gradientUnits="userSpaceOnUse">
<stop stop-color="#72A15F"/>
<stop offset="1" stop-color="#495944"/>
</linearGradient>
<linearGradient id="paint3_linear_665_26443" x1="163.599" y1="310.379" x2="182.743" y2="334.72" gradientUnits="userSpaceOnUse">
<stop stop-color="#72A15F"/>
<stop offset="1" stop-color="#495944"/>
</linearGradient>
<linearGradient id="paint4_linear_665_26443" x1="152.267" y1="301.948" x2="182.927" y2="319.797" gradientUnits="userSpaceOnUse">
<stop stop-color="#ECF3EF"/>
<stop offset="0.5" stop-color="#7EB666"/>
<stop offset="1" stop-color="#495944"/>
</linearGradient>
<linearGradient id="paint5_linear_665_26443" x1="195.05" y1="29.1182" x2="204.403" y2="38.0375" gradientUnits="userSpaceOnUse">
<stop stop-color="#72A15F"/>
<stop offset="1" stop-color="#495944"/>
</linearGradient>
<linearGradient id="paint6_linear_665_26443" x1="193.287" y1="30.2049" x2="212.431" y2="54.5457" gradientUnits="userSpaceOnUse">
<stop stop-color="#72A15F"/>
<stop offset="1" stop-color="#495944"/>
</linearGradient>
<linearGradient id="paint7_linear_665_26443" x1="181.956" y1="21.774" x2="212.616" y2="39.6234" gradientUnits="userSpaceOnUse">
<stop stop-color="#ECF3EF"/>
<stop offset="0.5" stop-color="#7EB666"/>
<stop offset="1" stop-color="#495944"/>
</linearGradient>
<linearGradient id="paint8_linear_665_26443" x1="338.228" y1="179.106" x2="347.581" y2="188.025" gradientUnits="userSpaceOnUse">
<stop stop-color="#72A15F"/>
<stop offset="1" stop-color="#495944"/>
</linearGradient>
<linearGradient id="paint9_linear_665_26443" x1="336.466" y1="180.192" x2="355.61" y2="204.533" gradientUnits="userSpaceOnUse">
<stop stop-color="#72A15F"/>
<stop offset="1" stop-color="#495944"/>
</linearGradient>
<linearGradient id="paint10_linear_665_26443" x1="325.134" y1="171.762" x2="355.794" y2="189.611" gradientUnits="userSpaceOnUse">
<stop stop-color="#ECF3EF"/>
<stop offset="0.5" stop-color="#7EB666"/>
<stop offset="1" stop-color="#495944"/>
</linearGradient>
<linearGradient id="paint11_linear_665_26443" x1="165.361" y1="232.738" x2="174.714" y2="241.657" gradientUnits="userSpaceOnUse">
<stop stop-color="#72A15F"/>
<stop offset="1" stop-color="#495944"/>
</linearGradient>
<linearGradient id="paint12_linear_665_26443" x1="163.599" y1="233.824" x2="182.743" y2="258.165" gradientUnits="userSpaceOnUse">
<stop stop-color="#72A15F"/>
<stop offset="1" stop-color="#495944"/>
</linearGradient>
<linearGradient id="paint13_linear_665_26443" x1="152.267" y1="225.393" x2="182.927" y2="243.243" gradientUnits="userSpaceOnUse">
<stop stop-color="#ECF3EF"/>
<stop offset="0.5" stop-color="#7EB666"/>
<stop offset="1" stop-color="#495944"/>
</linearGradient>
<linearGradient id="paint14_linear_665_26443" x1="117.488" y1="185.768" x2="145.074" y2="185.768" gradientUnits="userSpaceOnUse">
<stop stop-color="#72A15F" stop-opacity="0.5"/>
<stop offset="1" stop-color="#495944" stop-opacity="0.5"/>
</linearGradient>
<linearGradient id="paint15_linear_665_26443" x1="82.2916" y1="230.505" x2="227.23" y2="230.505" gradientUnits="userSpaceOnUse">
<stop stop-color="#72A15F" stop-opacity="0.5"/>
<stop offset="1" stop-color="#495944" stop-opacity="0.5"/>
</linearGradient>
<linearGradient id="paint16_linear_665_26443" x1="201.914" y1="122.319" x2="345.781" y2="122.319" gradientUnits="userSpaceOnUse">
<stop stop-color="#72A15F" stop-opacity="0.5"/>
<stop offset="1" stop-color="#495944" stop-opacity="0.5"/>
</linearGradient>
<linearGradient id="paint17_linear_665_26443" x1="347.31" y1="197.931" x2="384.369" y2="197.931" gradientUnits="userSpaceOnUse">
<stop stop-color="#72A15F" stop-opacity="0.5"/>
<stop offset="1" stop-color="#495944" stop-opacity="0.5"/>
</linearGradient>
<linearGradient id="paint18_linear_665_26443" x1="124.427" y1="202.346" x2="273.206" y2="202.346" gradientUnits="userSpaceOnUse">
<stop stop-color="#72A15F" stop-opacity="0.5"/>
<stop offset="1" stop-color="#495944" stop-opacity="0.5"/>
</linearGradient>
<linearGradient id="paint19_linear_665_26443" x1="226.37" y1="258.826" x2="273.333" y2="258.826" gradientUnits="userSpaceOnUse">
<stop stop-color="#72A15F" stop-opacity="0.5"/>
<stop offset="1" stop-color="#495944" stop-opacity="0.5"/>
</linearGradient>
<linearGradient id="paint20_linear_665_26443" x1="-nan" y1="-nan" x2="-nan" y2="-nan" gradientUnits="userSpaceOnUse">
<stop stop-color="#72A15F" stop-opacity="0.5"/>
<stop offset="1" stop-color="#495944" stop-opacity="0.5"/>
</linearGradient>
<linearGradient id="paint21_linear_665_26443" x1="-nan" y1="-nan" x2="-nan" y2="-nan" gradientUnits="userSpaceOnUse">
<stop stop-color="#72A15F" stop-opacity="0.5"/>
<stop offset="1" stop-color="#495944" stop-opacity="0.5"/>
</linearGradient>
<linearGradient id="paint22_linear_665_26443" x1="-nan" y1="-nan" x2="-nan" y2="-nan" gradientUnits="userSpaceOnUse">
<stop stop-color="#72A15F" stop-opacity="0.5"/>
<stop offset="1" stop-color="#495944" stop-opacity="0.5"/>
</linearGradient>
<linearGradient id="paint23_linear_665_26443" x1="-nan" y1="-nan" x2="-nan" y2="-nan" gradientUnits="userSpaceOnUse">
<stop stop-color="#72A15F" stop-opacity="0.5"/>
<stop offset="1" stop-color="#495944" stop-opacity="0.5"/>
</linearGradient>
<linearGradient id="paint24_linear_665_26443" x1="-nan" y1="-nan" x2="-nan" y2="-nan" gradientUnits="userSpaceOnUse">
<stop stop-color="#72A15F" stop-opacity="0.5"/>
<stop offset="1" stop-color="#495944" stop-opacity="0.5"/>
</linearGradient>
<linearGradient id="paint25_linear_665_26443" x1="223.31" y1="268.471" x2="227.787" y2="272.741" gradientUnits="userSpaceOnUse">
<stop stop-color="#72A15F"/>
<stop offset="1" stop-color="#495944"/>
</linearGradient>
<linearGradient id="paint26_linear_665_26443" x1="222.467" y1="268.991" x2="231.631" y2="280.642" gradientUnits="userSpaceOnUse">
<stop stop-color="#72A15F"/>
<stop offset="1" stop-color="#495944"/>
</linearGradient>
<linearGradient id="paint27_linear_665_26443" x1="217.043" y1="264.956" x2="231.719" y2="273.5" gradientUnits="userSpaceOnUse">
<stop stop-color="#ECF3EF"/>
<stop offset="0.5" stop-color="#7EB666"/>
<stop offset="1" stop-color="#495944"/>
</linearGradient>
<linearGradient id="paint28_linear_665_26443" x1="121.366" y1="155.627" x2="125.843" y2="159.896" gradientUnits="userSpaceOnUse">
<stop stop-color="#72A15F"/>
<stop offset="1" stop-color="#495944"/>
</linearGradient>
<linearGradient id="paint29_linear_665_26443" x1="120.523" y1="156.146" x2="129.687" y2="167.797" gradientUnits="userSpaceOnUse">
<stop stop-color="#72A15F"/>
<stop offset="1" stop-color="#495944"/>
</linearGradient>
<linearGradient id="paint30_linear_665_26443" x1="115.099" y1="152.112" x2="129.775" y2="160.655" gradientUnits="userSpaceOnUse">
<stop stop-color="#ECF3EF"/>
<stop offset="0.5" stop-color="#7EB666"/>
<stop offset="1" stop-color="#495944"/>
</linearGradient>
<linearGradient id="paint31_linear_665_26443" x1="198.85" y1="77.1813" x2="203.327" y2="81.4507" gradientUnits="userSpaceOnUse">
<stop stop-color="#72A15F"/>
<stop offset="1" stop-color="#495944"/>
</linearGradient>
<linearGradient id="paint32_linear_665_26443" x1="198.007" y1="77.701" x2="207.171" y2="89.3522" gradientUnits="userSpaceOnUse">
<stop stop-color="#72A15F"/>
<stop offset="1" stop-color="#495944"/>
</linearGradient>
<linearGradient id="paint33_linear_665_26443" x1="192.583" y1="73.6663" x2="207.259" y2="82.2102" gradientUnits="userSpaceOnUse">
<stop stop-color="#ECF3EF"/>
<stop offset="0.5" stop-color="#7EB666"/>
<stop offset="1" stop-color="#495944"/>
</linearGradient>
<linearGradient id="paint34_linear_665_26443" x1="379.925" y1="204.848" x2="384.402" y2="209.117" gradientUnits="userSpaceOnUse">
<stop stop-color="#72A15F"/>
<stop offset="1" stop-color="#495944"/>
</linearGradient>
<linearGradient id="paint35_linear_665_26443" x1="379.082" y1="205.368" x2="388.245" y2="217.019" gradientUnits="userSpaceOnUse">
<stop stop-color="#72A15F"/>
<stop offset="1" stop-color="#495944"/>
</linearGradient>
<linearGradient id="paint36_linear_665_26443" x1="373.657" y1="201.333" x2="388.333" y2="209.877" gradientUnits="userSpaceOnUse">
<stop stop-color="#ECF3EF"/>
<stop offset="0.5" stop-color="#7EB666"/>
<stop offset="1" stop-color="#495944"/>
</linearGradient>
<linearGradient id="paint37_linear_665_26443" x1="-3.50607" y1="128.582" x2="367.633" y2="294.278" gradientUnits="userSpaceOnUse">
<stop stop-color="#ECF3EF"/>
<stop offset="0.5" stop-color="#72A15F"/>
<stop offset="1" stop-color="#495944"/>
</linearGradient>
<linearGradient id="paint38_linear_665_26443" x1="-13.0977" y1="150.065" x2="358.042" y2="315.761" gradientUnits="userSpaceOnUse">
<stop stop-color="#ECF3EF"/>
<stop offset="0.5" stop-color="#72A15F"/>
<stop offset="1" stop-color="#495944"/>
</linearGradient>
<linearGradient id="paint39_linear_665_26443" x1="-9.14217" y1="141.206" x2="361.997" y2="306.902" gradientUnits="userSpaceOnUse">
<stop stop-color="#ECF3EF"/>
<stop offset="0.5" stop-color="#72A15F"/>
<stop offset="1" stop-color="#495944"/>
</linearGradient>
<linearGradient id="paint40_linear_665_26443" x1="5.91635" y1="107.478" x2="377.055" y2="273.174" gradientUnits="userSpaceOnUse">
<stop stop-color="#ECF3EF"/>
<stop offset="0.5" stop-color="#72A15F"/>
<stop offset="1" stop-color="#495944"/>
</linearGradient>
<linearGradient id="paint41_linear_665_26443" x1="-3.08812" y1="127.647" x2="368.051" y2="293.343" gradientUnits="userSpaceOnUse">
<stop stop-color="#ECF3EF"/>
<stop offset="0.5" stop-color="#72A15F"/>
<stop offset="1" stop-color="#495944"/>
</linearGradient>
<linearGradient id="paint42_linear_665_26443" x1="120.933" y1="179.013" x2="564.574" y2="372.328" gradientUnits="userSpaceOnUse">
<stop stop-color="#ECF3EF"/>
<stop offset="0.5" stop-color="#72A15F"/>
<stop offset="1" stop-color="#495944"/>
</linearGradient>
<linearGradient id="paint43_linear_665_26443" x1="-26.8949" y1="481.103" x2="510.379" y2="-93.5371" gradientUnits="userSpaceOnUse">
<stop stop-color="#ECF3EF"/>
<stop offset="0.5" stop-color="#72A15F"/>
<stop offset="1" stop-color="#495944"/>
</linearGradient>
<linearGradient id="paint44_linear_665_26443" x1="-53.1971" y1="456.512" x2="484.076" y2="-118.129" gradientUnits="userSpaceOnUse">
<stop stop-color="#ECF3EF"/>
<stop offset="0.5" stop-color="#72A15F"/>
<stop offset="1" stop-color="#495944"/>
</linearGradient>
<linearGradient id="paint45_linear_665_26443" x1="-57.7289" y1="452.276" x2="479.545" y2="-122.365" gradientUnits="userSpaceOnUse">
<stop stop-color="#ECF3EF"/>
<stop offset="0.5" stop-color="#72A15F"/>
<stop offset="1" stop-color="#495944"/>
</linearGradient>
<linearGradient id="paint46_linear_665_26443" x1="-41.6504" y1="467.309" x2="495.623" y2="-107.331" gradientUnits="userSpaceOnUse">
<stop stop-color="#ECF3EF"/>
<stop offset="0.5" stop-color="#72A15F"/>
<stop offset="1" stop-color="#495944"/>
</linearGradient>
<linearGradient id="paint47_linear_665_26443" x1="-28.3198" y1="479.771" x2="508.954" y2="-94.8688" gradientUnits="userSpaceOnUse">
<stop stop-color="#ECF3EF"/>
<stop offset="0.5" stop-color="#72A15F"/>
<stop offset="1" stop-color="#495944"/>
</linearGradient>
<linearGradient id="paint48_linear_665_26443" x1="-55.8268" y1="454.052" x2="481.447" y2="-120.588" gradientUnits="userSpaceOnUse">
<stop stop-color="#ECF3EF"/>
<stop offset="0.5" stop-color="#72A15F"/>
<stop offset="1" stop-color="#495944"/>
</linearGradient>
<linearGradient id="paint49_linear_665_26443" x1="-60.0564" y1="450.099" x2="477.217" y2="-124.541" gradientUnits="userSpaceOnUse">
<stop stop-color="#ECF3EF"/>
<stop offset="0.5" stop-color="#72A15F"/>
<stop offset="1" stop-color="#495944"/>
</linearGradient>
<linearGradient id="paint50_linear_665_26443" x1="-44.2802" y1="464.85" x2="492.994" y2="-109.79" gradientUnits="userSpaceOnUse">
<stop stop-color="#ECF3EF"/>
<stop offset="0.5" stop-color="#72A15F"/>
<stop offset="1" stop-color="#495944"/>
</linearGradient>
<linearGradient id="paint51_linear_665_26443" x1="-30.2374" y1="477.977" x2="507.036" y2="-96.6623" gradientUnits="userSpaceOnUse">
<stop stop-color="#ECF3EF"/>
<stop offset="0.5" stop-color="#72A15F"/>
<stop offset="1" stop-color="#495944"/>
</linearGradient>
<linearGradient id="paint52_linear_665_26443" x1="-31.1696" y1="477.108" x2="506.104" y2="-97.5321" gradientUnits="userSpaceOnUse">
<stop stop-color="#ECF3EF"/>
<stop offset="0.5" stop-color="#72A15F"/>
<stop offset="1" stop-color="#495944"/>
</linearGradient>
<linearGradient id="paint53_linear_665_26443" x1="-57.4716" y1="452.517" x2="479.802" y2="-122.123" gradientUnits="userSpaceOnUse">
<stop stop-color="#ECF3EF"/>
<stop offset="0.5" stop-color="#72A15F"/>
<stop offset="1" stop-color="#495944"/>
</linearGradient>
<linearGradient id="paint54_linear_665_26443" x1="83.6888" y1="43.7435" x2="261.536" y2="146.688" gradientUnits="userSpaceOnUse">
<stop stop-color="#ECF3EF"/>
<stop offset="0.5" stop-color="#72A15F"/>
<stop offset="1" stop-color="#495944"/>
</linearGradient>
<linearGradient id="paint55_linear_665_26443" x1="82.7112" y1="45.4334" x2="260.558" y2="148.378" gradientUnits="userSpaceOnUse">
<stop stop-color="#ECF3EF"/>
<stop offset="0.5" stop-color="#72A15F"/>
<stop offset="1" stop-color="#495944"/>
</linearGradient>
<linearGradient id="paint56_linear_665_26443" x1="-62.0034" y1="448.277" x2="475.27" y2="-126.364" gradientUnits="userSpaceOnUse">
<stop stop-color="#ECF3EF"/>
<stop offset="0.5" stop-color="#72A15F"/>
<stop offset="1" stop-color="#495944"/>
</linearGradient>
<linearGradient id="paint57_linear_665_26443" x1="-45.9249" y1="463.31" x2="491.349" y2="-111.33" gradientUnits="userSpaceOnUse">
<stop stop-color="#ECF3EF"/>
<stop offset="0.5" stop-color="#72A15F"/>
<stop offset="1" stop-color="#495944"/>
</linearGradient>
<linearGradient id="paint58_linear_665_26443" x1="190.227" y1="71.7149" x2="372.506" y2="157.715" gradientUnits="userSpaceOnUse">
<stop stop-color="#ECF3EF"/>
<stop offset="0.5" stop-color="#72A15F"/>
<stop offset="1" stop-color="#495944"/>
</linearGradient>
<linearGradient id="paint59_linear_665_26443" x1="-32.5944" y1="475.776" x2="504.679" y2="-98.8638" gradientUnits="userSpaceOnUse">
<stop stop-color="#ECF3EF"/>
<stop offset="0.5" stop-color="#72A15F"/>
<stop offset="1" stop-color="#495944"/>
</linearGradient>
<linearGradient id="paint60_linear_665_26443" x1="178.491" y1="96.596" x2="360.769" y2="182.596" gradientUnits="userSpaceOnUse">
<stop stop-color="#ECF3EF"/>
<stop offset="0.5" stop-color="#72A15F"/>
<stop offset="1" stop-color="#495944"/>
</linearGradient>
<linearGradient id="paint61_linear_665_26443" x1="-45.3671" y1="13.3185" x2="364.736" y2="221.009" gradientUnits="userSpaceOnUse">
<stop stop-color="#ECF3EF"/>
<stop offset="0.5" stop-color="#72A15F"/>
<stop offset="1" stop-color="#495944"/>
</linearGradient>
<linearGradient id="paint62_linear_665_26443" x1="-44.9052" y1="12.4062" x2="365.198" y2="220.096" gradientUnits="userSpaceOnUse">
<stop stop-color="#ECF3EF"/>
<stop offset="0.5" stop-color="#72A15F"/>
<stop offset="1" stop-color="#495944"/>
</linearGradient>
<linearGradient id="paint63_linear_665_26443" x1="-60.252" y1="42.7084" x2="349.851" y2="250.399" gradientUnits="userSpaceOnUse">
<stop stop-color="#ECF3EF"/>
<stop offset="0.5" stop-color="#72A15F"/>
<stop offset="1" stop-color="#495944"/>
</linearGradient>
<linearGradient id="paint64_linear_665_26443" x1="-57.2237" y1="36.729" x2="352.879" y2="244.419" gradientUnits="userSpaceOnUse">
<stop stop-color="#ECF3EF"/>
<stop offset="0.5" stop-color="#72A15F"/>
<stop offset="1" stop-color="#495944"/>
</linearGradient>
<linearGradient id="paint65_linear_665_26443" x1="-64.3112" y1="50.7247" x2="345.792" y2="258.415" gradientUnits="userSpaceOnUse">
<stop stop-color="#ECF3EF"/>
<stop offset="0.5" stop-color="#72A15F"/>
<stop offset="1" stop-color="#495944"/>
</linearGradient>
<linearGradient id="paint66_linear_665_26443" x1="160.694" y1="113.397" x2="611.266" y2="404.449" gradientUnits="userSpaceOnUse">
<stop stop-color="#ECF3EF"/>
<stop offset="0.5" stop-color="#72A15F"/>
<stop offset="1" stop-color="#495944"/>
</linearGradient>
<linearGradient id="paint67_linear_665_26443" x1="-12.1168" y1="39.9305" x2="618.049" y2="200.937" gradientUnits="userSpaceOnUse">
<stop stop-color="#ECF3EF"/>
<stop offset="0.5" stop-color="#72A15F"/>
<stop offset="1" stop-color="#495944"/>
</linearGradient>
<linearGradient id="paint68_linear_665_26443" x1="100.829" y1="61.0716" x2="633.371" y2="258.746" gradientUnits="userSpaceOnUse">
<stop stop-color="#ECF3EF"/>
<stop offset="0.5" stop-color="#72A15F"/>
<stop offset="1" stop-color="#495944"/>
</linearGradient>
<linearGradient id="paint69_linear_665_26443" x1="-96.9669" y1="16.1771" x2="175.251" y2="277.522" gradientUnits="userSpaceOnUse">
<stop stop-color="#ECF3EF"/>
<stop offset="0.5" stop-color="#72A15F"/>
<stop offset="1" stop-color="#495944"/>
</linearGradient>
<linearGradient id="paint70_linear_665_26443" x1="-125.715" y1="388.714" x2="411.559" y2="-185.926" gradientUnits="userSpaceOnUse">
<stop stop-color="#ECF3EF"/>
<stop offset="0.5" stop-color="#72A15F"/>
<stop offset="1" stop-color="#495944"/>
</linearGradient>
<linearGradient id="paint71_linear_665_26443" x1="-80.6671" y1="-0.801206" x2="191.551" y2="260.544" gradientUnits="userSpaceOnUse">
<stop stop-color="#ECF3EF"/>
<stop offset="0.5" stop-color="#72A15F"/>
<stop offset="1" stop-color="#495944"/>
</linearGradient>
<linearGradient id="paint72_linear_665_26443" x1="-76.756" y1="-4.87616" x2="195.462" y2="256.469" gradientUnits="userSpaceOnUse">
<stop stop-color="#ECF3EF"/>
<stop offset="0.5" stop-color="#72A15F"/>
<stop offset="1" stop-color="#495944"/>
</linearGradient>
<linearGradient id="paint73_linear_665_26443" x1="-80.873" y1="57.4983" x2="121.632" y2="278.599" gradientUnits="userSpaceOnUse">
<stop stop-color="#ECF3EF"/>
<stop offset="0.5" stop-color="#72A15F"/>
<stop offset="1" stop-color="#495944"/>
</linearGradient>
<linearGradient id="paint74_linear_665_26443" x1="-37.728" y1="17.9829" x2="164.777" y2="239.084" gradientUnits="userSpaceOnUse">
<stop stop-color="#ECF3EF"/>
<stop offset="0.5" stop-color="#72A15F"/>
<stop offset="1" stop-color="#495944"/>
</linearGradient>
<linearGradient id="paint75_linear_665_26443" x1="-121.645" y1="392.518" x2="415.629" y2="-182.123" gradientUnits="userSpaceOnUse">
<stop stop-color="#ECF3EF"/>
<stop offset="0.5" stop-color="#72A15F"/>
<stop offset="1" stop-color="#495944"/>
</linearGradient>
<linearGradient id="paint76_linear_665_26443" x1="-115.437" y1="35.4144" x2="156.781" y2="296.76" gradientUnits="userSpaceOnUse">
<stop stop-color="#ECF3EF"/>
<stop offset="0.5" stop-color="#72A15F"/>
<stop offset="1" stop-color="#495944"/>
</linearGradient>
<linearGradient id="paint77_linear_665_26443" x1="-73.6778" y1="139.513" x2="666.943" y2="396.382" gradientUnits="userSpaceOnUse">
<stop stop-color="#ECF3EF"/>
<stop offset="0.5" stop-color="#72A15F"/>
<stop offset="1" stop-color="#495944"/>
</linearGradient>
<linearGradient id="paint78_linear_665_26443" x1="-274.421" y1="54.6657" x2="684.313" y2="383.743" gradientUnits="userSpaceOnUse">
<stop stop-color="#ECF3EF"/>
<stop offset="0.5" stop-color="#72A15F"/>
<stop offset="1" stop-color="#495944"/>
</linearGradient>
<linearGradient id="paint79_linear_665_26443" x1="396.836" y1="1.89693" x2="39.9314" y2="191.237" gradientUnits="userSpaceOnUse">
<stop stop-color="#ECF3EF"/>
<stop offset="0.5" stop-color="#72A15F"/>
<stop offset="1" stop-color="#495944"/>
</linearGradient>
<linearGradient id="paint80_linear_665_26443" x1="381.356" y1="-27.2816" x2="24.4516" y2="162.058" gradientUnits="userSpaceOnUse">
<stop stop-color="#ECF3EF"/>
<stop offset="0.5" stop-color="#72A15F"/>
<stop offset="1" stop-color="#495944"/>
</linearGradient>
<linearGradient id="paint81_linear_665_26443" x1="393.216" y1="-4.92708" x2="36.3114" y2="184.413" gradientUnits="userSpaceOnUse">
<stop stop-color="#ECF3EF"/>
<stop offset="0.5" stop-color="#72A15F"/>
<stop offset="1" stop-color="#495944"/>
</linearGradient>
<linearGradient id="paint82_linear_665_26443" x1="400.85" y1="9.46294" x2="43.9451" y2="198.803" gradientUnits="userSpaceOnUse">
<stop stop-color="#ECF3EF"/>
<stop offset="0.5" stop-color="#72A15F"/>
<stop offset="1" stop-color="#495944"/>
</linearGradient>
<linearGradient id="paint83_linear_665_26443" x1="380.43" y1="-29.0287" x2="23.525" y2="160.311" gradientUnits="userSpaceOnUse">
<stop stop-color="#ECF3EF"/>
<stop offset="0.5" stop-color="#72A15F"/>
<stop offset="1" stop-color="#495944"/>
</linearGradient>
<linearGradient id="paint84_linear_665_26443" x1="1.5542" y1="48.6203" x2="711.224" y2="427.297" gradientUnits="userSpaceOnUse">
<stop stop-color="#ECF3EF"/>
<stop offset="0.5" stop-color="#72A15F"/>
<stop offset="1" stop-color="#495944"/>
</linearGradient>
</defs>
</svg>
