<svg width="248" height="57" viewBox="0 0 248 57" fill="none" xmlns="http://www.w3.org/2000/svg">
<g opacity="0.8">
<path d="M72.2676 39.8309C71.5676 39.4309 70.9676 38.8309 70.5676 38.1309V40.2309H67.0676V17.6309H70.7676V25.6309C71.1676 25.1309 71.7676 24.6309 72.3676 24.3309C73.0676 24.0309 73.6676 23.8309 74.3676 23.8309H76.6676C77.8676 23.8309 78.8676 24.1309 79.8676 24.6309C80.7676 25.1309 81.4676 25.9309 82.0676 26.8309C82.5676 27.7309 82.8676 28.8309 82.8676 30.1309V33.9309C82.8676 35.2309 82.5676 36.3309 82.0676 37.3309C81.5676 38.3309 80.8676 39.1309 79.8676 39.6309C78.9676 40.1309 77.8676 40.4309 76.6676 40.4309H74.3676C73.6676 40.4309 72.9676 40.2309 72.2676 39.8309ZM76.1676 37.2309C76.9676 37.2309 77.6676 36.9309 78.2676 36.2309C78.7676 35.6309 79.0676 34.7309 79.0676 33.7309V30.3309C79.0676 29.3309 78.7676 28.6309 78.2676 28.0309C77.7676 27.4309 77.0676 27.1309 76.2676 27.1309H74.1676C73.2676 27.1309 72.4676 27.4309 71.7676 28.1309C71.1676 28.8309 70.7676 29.7309 70.6676 30.8309V34.0309C70.7676 34.9309 71.1676 35.7309 71.7676 36.3309C72.3676 36.9309 73.1676 37.2309 73.9676 37.2309H76.1676Z" fill="white"/>
<path d="M85.9676 21.6312C85.5676 21.2312 85.2676 20.6312 85.2676 19.9312C85.2676 19.2312 85.4676 18.6312 85.9676 18.2312C86.3676 17.8312 86.9676 17.5312 87.7676 17.5312C88.4676 17.5312 89.0676 17.7312 89.5676 18.2312C90.0676 18.6312 90.2676 19.2312 90.2676 19.9312C90.2676 20.6312 90.0676 21.2312 89.5676 21.6312C89.0676 22.0312 88.5676 22.3312 87.7676 22.3312C86.9676 22.3312 86.3676 22.0312 85.9676 21.6312ZM85.8676 24.1312H89.5676V40.2313H85.8676V24.1312Z" fill="white"/>
<path d="M94.4675 38.732C93.2675 37.632 92.6675 36.032 92.6675 34.132V30.132C92.6675 28.932 92.9675 27.832 93.4675 26.832C93.9675 25.832 94.7675 25.132 95.7675 24.632C96.7675 24.132 97.9675 23.832 99.2675 23.832H102.067C103.367 23.832 104.567 24.132 105.567 24.632C106.567 25.132 107.367 25.932 107.867 26.832C108.367 27.832 108.667 28.932 108.667 30.132V34.132C108.667 36.032 108.067 37.532 106.867 38.732C105.667 39.932 104.067 40.432 101.967 40.432H99.1675C97.2675 40.432 95.6675 39.932 94.4675 38.732ZM101.967 37.232C102.867 37.232 103.567 36.932 104.167 36.332C104.667 35.732 104.967 34.932 104.967 33.932V30.332C104.967 29.332 104.667 28.532 104.167 27.932C103.667 27.332 102.867 27.032 101.967 27.032H99.2675C98.3675 27.032 97.6675 27.332 97.0675 27.932C96.5675 28.532 96.2675 29.332 96.2675 30.332V33.932C96.2675 34.932 96.5675 35.732 97.0675 36.332C97.5675 36.932 98.2675 37.232 99.1675 37.232H101.967Z" fill="white"/>
<path d="M113.767 39.7316C112.767 39.2316 111.967 38.5316 111.467 37.6316C110.967 36.7316 110.667 35.7316 110.667 34.5316V30.2316C110.667 29.0316 110.967 27.9316 111.467 26.9316C111.967 25.9316 112.767 25.2316 113.767 24.7316C114.767 24.2316 115.967 23.9316 117.267 23.9316H119.867C121.867 23.9316 123.367 24.5316 124.567 25.6316C125.767 26.7316 126.367 28.3316 126.367 30.1316V33.3316H114.367V34.5316C114.367 35.4316 114.667 36.0316 115.167 36.6316C115.667 37.1316 116.367 37.4316 117.267 37.4316H119.767C120.667 37.4316 121.367 37.2316 121.867 36.8316C122.367 36.4316 122.667 35.8316 122.667 35.1316H126.267C126.267 36.7316 125.667 38.0316 124.467 39.0316C123.267 40.0316 121.667 40.5316 119.767 40.5316H117.267C115.867 40.4316 114.767 40.2316 113.767 39.7316ZM122.667 30.5316V30.0316C122.667 29.1316 122.367 28.3316 121.867 27.7316C121.367 27.1316 120.667 26.8316 119.867 26.8316H117.267C116.367 26.8316 115.667 27.1316 115.167 27.7316C114.667 28.3316 114.367 29.1316 114.367 30.1316V30.4316H122.667V30.5316Z" fill="white"/>
<path d="M129.768 38.732C128.568 37.632 127.968 36.132 127.968 34.232V30.132C127.968 28.932 128.268 27.832 128.768 26.832C129.268 25.832 130.068 25.132 131.068 24.632C132.068 24.132 133.168 23.832 134.468 23.832H137.068C138.868 23.832 140.368 24.332 141.568 25.432C142.668 26.532 143.268 27.932 143.268 29.632H139.668C139.668 28.832 139.468 28.232 138.968 27.732C138.468 27.232 137.868 27.032 137.168 27.032H134.668C133.868 27.032 133.168 27.332 132.668 27.932C132.168 28.532 131.868 29.332 131.868 30.332V33.932C131.868 34.932 132.168 35.732 132.668 36.332C133.168 36.932 133.868 37.232 134.768 37.232H137.268C138.068 37.232 138.668 36.932 139.168 36.332C139.668 35.732 139.868 35.032 139.868 34.032H143.468C143.468 35.932 142.868 37.432 141.768 38.632C140.568 39.832 139.068 40.332 137.168 40.332H134.568C132.568 40.432 130.968 39.932 129.768 38.732Z" fill="white"/>
<path d="M146.568 38.732C145.368 37.632 144.768 36.032 144.768 34.132V30.132C144.768 28.932 145.068 27.832 145.568 26.832C146.068 25.832 146.868 25.132 147.868 24.632C148.868 24.132 150.068 23.832 151.368 23.832H154.168C155.468 23.832 156.668 24.132 157.668 24.632C158.668 25.132 159.468 25.932 159.968 26.832C160.468 27.832 160.768 28.932 160.768 30.132V34.132C160.768 36.032 160.168 37.532 158.968 38.732C157.768 39.932 156.168 40.432 154.068 40.432H151.268C149.368 40.432 147.868 39.932 146.568 38.732ZM154.168 37.232C155.068 37.232 155.768 36.932 156.368 36.332C156.868 35.732 157.168 34.932 157.168 33.932V30.332C157.168 29.332 156.868 28.532 156.368 27.932C155.868 27.332 155.068 27.032 154.168 27.032H151.468C150.568 27.032 149.868 27.332 149.268 27.932C148.768 28.532 148.468 29.332 148.468 30.332V33.932C148.468 34.932 148.768 35.732 149.268 36.332C149.768 36.932 150.468 37.232 151.368 37.232H154.168Z" fill="white"/>
<path d="M163.368 24.1316H166.868V26.2316C167.368 25.5316 167.968 24.9316 168.768 24.5316C169.568 24.1316 170.268 23.9316 171.068 23.9316H173.068C174.768 23.9316 176.068 24.4316 177.068 25.5316C178.068 26.6316 178.568 27.9316 178.568 29.7316V40.3316H174.768V29.7316C174.768 28.9316 174.568 28.3316 174.168 27.8316C173.768 27.3316 173.268 27.1316 172.568 27.1316H170.568C169.768 27.1316 168.968 27.4316 168.268 28.1316C167.568 28.7316 167.168 29.5316 166.968 30.5316V40.2316H163.268V24.1316H163.368Z" fill="white"/>
<path d="M182.668 38.732C181.468 37.632 180.868 36.032 180.868 34.132V30.132C180.868 28.932 181.168 27.832 181.668 26.832C182.168 25.832 182.968 25.132 183.968 24.632C184.968 24.132 186.168 23.832 187.468 23.832H190.268C191.568 23.832 192.768 24.132 193.768 24.632C194.768 25.132 195.568 25.932 196.068 26.832C196.568 27.832 196.868 28.932 196.868 30.132V34.132C196.868 36.032 196.268 37.532 195.068 38.732C193.868 39.932 192.268 40.432 190.168 40.432H187.368C185.468 40.432 183.868 39.932 182.668 38.732ZM190.168 37.232C191.068 37.232 191.768 36.932 192.368 36.332C192.868 35.732 193.168 34.932 193.168 33.932V30.332C193.168 29.332 192.868 28.532 192.368 27.932C191.868 27.332 191.068 27.032 190.168 27.032H187.468C186.568 27.032 185.868 27.332 185.268 27.932C184.768 28.532 184.468 29.332 184.468 30.332V33.932C184.468 34.932 184.768 35.732 185.268 36.332C185.768 36.932 186.468 37.232 187.368 37.232H190.168Z" fill="white"/>
<path d="M221.268 25.332C222.168 26.332 222.668 27.732 222.668 29.432V40.232H218.968V29.432C218.968 28.732 218.768 28.132 218.468 27.732C218.168 27.332 217.668 27.132 217.168 27.132H215.668C214.968 27.132 214.368 27.432 213.868 27.932C213.368 28.432 213.068 29.132 212.868 29.932V40.232H209.168V29.532C209.168 28.832 208.968 28.232 208.668 27.732C208.368 27.332 207.868 27.032 207.368 27.032H205.868C205.168 27.032 204.568 27.332 203.968 28.032C203.468 28.632 203.068 29.532 202.968 30.532V40.232H199.268V24.132H202.768V26.132C203.168 25.432 203.668 24.832 204.268 24.432C204.868 24.032 205.568 23.832 206.168 23.832H207.968C208.768 23.832 209.468 24.032 210.168 24.432C210.768 24.832 211.368 25.432 211.668 26.232C212.168 25.432 212.668 24.932 213.368 24.432C214.068 24.032 214.768 23.832 215.468 23.832H217.268C219.068 23.832 220.368 24.332 221.268 25.332Z" fill="white"/>
<path d="M227.568 45.4309C226.468 44.5309 225.868 43.3309 225.768 41.8309H229.368C229.468 42.3309 229.668 42.8309 230.068 43.1309C230.468 43.4309 230.968 43.6309 231.568 43.6309H234.168C234.968 43.6309 235.668 43.3309 236.168 42.7309C236.668 42.1309 236.868 41.3309 236.868 40.2309V37.8309C236.368 38.5309 235.768 39.1309 235.068 39.5309C234.368 39.9309 233.668 40.1309 233.068 40.1309H230.968C229.368 40.1309 227.968 39.6309 226.968 38.5309C225.968 37.4309 225.468 36.0309 225.468 34.2309V24.1309H229.168V34.2309C229.168 35.0309 229.368 35.7309 229.768 36.2309C230.168 36.7309 230.668 36.9309 231.368 36.9309H233.268C234.068 36.9309 234.768 36.6309 235.468 35.9309C236.168 35.2309 236.568 34.4309 236.868 33.4309V24.1309H240.568V40.2309C240.568 42.2309 239.968 43.8309 238.868 45.0309C237.668 46.2309 236.168 46.8309 234.268 46.8309H231.668C229.968 46.7309 228.568 46.3309 227.568 45.4309Z" fill="white"/>
<path d="M64.3677 10.9313C63.9677 10.2313 63.0677 9.93125 62.3677 10.4313L53.4677 15.5312C53.1677 15.2312 52.8677 15.0312 52.4677 14.7312L36.4677 5.53125C34.7677 4.53125 32.6677 4.53125 30.9677 5.53125L15.0677 14.7312C13.3677 15.7312 12.2677 17.5313 12.2677 19.5313V37.8312C12.2677 38.2313 12.3677 38.6312 12.3677 39.0312L8.36767 41.3312C7.66767 41.7313 7.36767 42.6312 7.86767 43.3312C8.16767 43.8312 8.66767 44.1312 9.16767 44.1312C9.46767 44.1312 9.66767 44.0312 9.86767 43.9312L13.7677 41.6312C14.0677 42.0312 14.4677 42.3312 14.9677 42.5312L30.9677 51.8312C31.7677 52.3312 32.7677 52.5312 33.6677 52.5312C34.6677 52.5312 35.5677 52.3312 36.4677 51.8312L52.3677 42.6312C52.8677 42.3312 53.3677 41.9313 53.6677 41.5312L59.6677 45.0312C59.8677 45.1312 60.1677 45.2313 60.3677 45.2313C60.8677 45.2313 61.3677 44.9312 61.6677 44.4312C62.0677 43.7312 61.8677 42.8312 61.1677 42.4312L55.0677 38.8312C55.1677 38.5312 55.1677 38.2312 55.1677 37.9312V19.4313C55.1677 18.9313 55.0677 18.4313 54.9677 18.0313L63.7677 12.9313C64.4677 12.5313 64.7677 11.6313 64.3677 10.9313ZM52.1677 37.8312C52.1677 38.7313 51.6677 39.5312 50.8677 40.0312L34.9677 49.2313C34.1677 49.6313 33.2677 49.6313 32.4677 49.2313L16.5677 40.0312C15.7677 39.6312 15.2677 38.7313 15.2677 37.8312V19.4313C15.2677 18.5313 15.7677 17.7312 16.5677 17.2312L32.4677 8.03125C32.8677 7.83125 33.2677 7.73125 33.7677 7.73125C34.2677 7.73125 34.6677 7.83125 35.0677 8.03125L50.9677 17.2312C51.2677 17.4312 51.5677 17.7313 51.7677 17.9313V18.0313C51.7677 18.1313 51.8677 18.1312 51.8677 18.2312C52.0677 18.6312 52.1677 18.9313 52.1677 19.4313V37.8312Z" fill="white"/>
<path d="M23.6677 38.0312L18.1677 41.2313C17.4677 41.6313 17.1677 42.5313 17.6677 43.2313C17.9677 43.7313 18.4677 44.0312 18.9677 44.0312C19.2677 44.0312 19.4677 43.9312 19.6677 43.8312L25.1677 40.6312C24.3677 40.0312 23.7677 39.1313 23.6677 38.0312Z" fill="white"/>
<path d="M28.2677 35.3305V28.3305L35.8677 23.9305L41.4677 27.1305C41.5677 26.0305 42.2677 25.1305 43.1677 24.6305L37.3677 21.2305V17.3305C36.8677 17.7305 36.1677 18.0305 35.4677 18.0305C35.0677 18.0305 34.6677 17.9305 34.3677 17.8305V21.3305L28.2677 24.8305V19.9305L33.1677 16.9305C32.7677 16.4305 32.4677 15.7305 32.4677 15.0305C32.4677 14.5305 32.5677 14.1305 32.7677 13.7305L26.7677 17.3305L23.6677 15.5305C22.9677 15.1305 22.0677 15.3305 21.6677 16.0305C21.2677 16.7305 21.4677 17.6305 22.1677 18.0305L25.2677 19.8305V24.7305L23.1677 23.5305C22.4677 23.1305 21.5677 23.3305 21.1677 24.0305C20.7677 24.7305 20.9677 25.6305 21.6677 26.0305L25.2677 28.1305V35.1305C25.6677 34.8305 26.2677 34.7305 26.7677 34.7305C27.2677 34.9305 27.7677 35.1305 28.2677 35.3305Z" fill="white"/>
<path d="M43.3678 30.3305V37.1305L35.7678 41.5305L29.7678 38.0305C29.7678 39.1305 29.1678 40.1305 28.2678 40.6305L40.4678 47.7305C40.6678 47.8305 40.9678 47.9305 41.2678 47.9305C41.7678 47.9305 42.2678 47.6305 42.5678 47.2305C42.9678 46.5305 42.7678 45.6305 42.0678 45.1305L38.7678 43.2305L45.6678 39.2305C46.1678 38.9305 46.4678 38.4305 46.4678 37.9305V29.7305C45.9678 30.2305 45.2678 30.5305 44.4678 30.5305C44.0678 30.5305 43.7678 30.4305 43.3678 30.3305Z" fill="white"/>
<path d="M44.4678 25.4316C44.3678 25.4316 44.3678 25.4316 44.4678 25.4316C43.3678 25.4316 42.4678 26.3316 42.4678 27.4316C42.4678 27.5316 42.4678 27.6316 42.4678 27.7316C42.5678 28.3316 42.9678 28.9316 43.4678 29.2316C43.7678 29.4316 44.0678 29.5316 44.4678 29.5316C45.4678 29.5316 46.2678 28.8316 46.4678 27.9316C46.4678 27.8316 46.4678 27.6316 46.4678 27.5316C46.4678 26.3316 45.5678 25.4316 44.4678 25.4316Z" fill="white"/>
<path d="M28.6678 37.332C28.5678 37.032 28.4678 36.832 28.2678 36.532C27.8678 36.132 27.3678 35.832 26.7678 35.832C26.1678 35.832 25.6678 36.132 25.2678 36.532C25.0678 36.732 24.9678 37.032 24.8678 37.332C24.7678 37.532 24.7678 37.732 24.7678 37.932C24.7678 38.932 25.4678 39.732 26.3678 39.932C26.4678 39.932 26.6678 40.032 26.7678 40.032C26.9678 40.032 27.0678 40.032 27.1678 39.932C28.0678 39.732 28.7678 38.932 28.7678 37.932C28.7678 37.732 28.7678 37.532 28.6678 37.332Z" fill="white"/>
<path d="M37.3677 14.2312C37.0677 13.5312 36.3677 13.0312 35.4677 13.0312C35.2677 13.0312 35.0677 13.0313 34.8677 13.1313C34.8677 13.1313 34.7677 13.1312 34.7677 13.2312C34.7677 13.2312 34.7677 13.2312 34.6677 13.2312C33.8677 13.5312 33.3677 14.2313 33.3677 15.1313C33.3677 15.6313 33.5677 16.1312 33.9677 16.5312C34.0677 16.6312 34.1677 16.7313 34.2677 16.8313C34.5677 17.0312 34.9677 17.1312 35.3677 17.1312C36.1677 17.1312 36.9677 16.6313 37.2677 15.9313C37.3677 15.7313 37.4677 15.4313 37.4677 15.1313C37.4677 14.7313 37.4677 14.5312 37.3677 14.2312Z" fill="white"/>
</g>
</svg>
