<svg width="364" height="305" viewBox="0 0 364 305" fill="none" xmlns="http://www.w3.org/2000/svg">
<path d="M343.089 74.1498C343.089 68.8884 340.333 64.2746 336.119 61.6844L332.228 59.418C332.147 59.418 332.147 59.3371 332.066 59.3371L326.473 56.0993L233.265 2.3528C228.726 -0.237392 223.133 -0.237392 218.595 2.3528L119.712 59.3371C119.631 59.3371 119.631 59.418 119.55 59.418L115.498 61.7654C111.445 64.3556 108.689 68.8884 108.689 74.1498V78.116C108.689 78.1969 108.689 78.2779 108.689 78.3588V192.327C108.689 197.589 111.445 202.364 115.984 204.955L211.219 259.834L218.108 263.801C220.378 265.177 222.971 265.986 225.889 265.986C228.726 265.986 231.401 265.177 233.67 263.72L238.857 260.725L335.794 204.874C340.333 202.283 343.089 197.427 343.089 192.246V81.03V74.1498Z" fill="url(#paint0_linear_716_1271)"/>
<path d="M176.286 186.096C176.286 183.506 174.908 181.321 172.882 180.026L171.018 178.973C171.018 178.973 171.018 178.973 170.937 178.892L168.181 177.354L122.874 151.21C120.685 149.915 117.93 149.915 115.741 151.21L67.678 178.892C67.678 178.892 67.5969 178.892 67.5969 178.973L65.6517 180.106C63.6254 181.402 62.3286 183.587 62.3286 186.096V188.039C62.3286 188.12 62.3286 188.12 62.3286 188.12V243.566C62.3286 246.075 63.7065 248.423 65.8949 249.718L112.175 276.429L115.498 278.372C116.552 279.02 117.849 279.424 119.226 279.424C120.604 279.424 121.901 279.02 123.036 278.372L125.548 276.915L172.639 249.718C174.827 248.423 176.205 246.075 176.205 243.566V189.496L176.286 186.096Z" fill="url(#paint1_linear_716_1271)"/>
<path d="M167.857 296.826C167.857 296.583 167.614 296.421 167.37 296.583L163.318 298.93C163.237 298.768 162.994 298.606 162.75 298.606C162.426 298.606 162.102 298.93 162.102 299.254C162.102 299.578 162.426 299.901 162.75 299.901V304.596L162.102 304.758L162.426 304.92C162.507 305.001 162.669 305.001 162.75 305.001C162.913 305.001 162.994 305.001 163.075 304.92L163.318 304.758L167.532 302.33C167.695 302.249 167.857 302.006 167.857 301.763V296.826Z" fill="url(#paint2_linear_716_1271)"/>
<path d="M162.507 299.091L158.373 296.744V296.016L158.049 296.177C157.887 296.258 157.725 296.501 157.725 296.744V296.906V301.844C157.725 302.086 157.806 302.248 158.049 302.41L162.345 304.919C162.588 305.081 162.831 304.919 162.831 304.677V299.739C162.831 299.415 162.669 299.172 162.507 299.091Z" fill="url(#paint3_linear_716_1271)"/>
<path d="M167.856 296.663C167.856 296.42 167.775 296.258 167.532 296.096L167.37 296.015L167.127 295.853L163.074 293.506C162.912 293.425 162.669 293.425 162.426 293.506L158.13 296.015C157.887 296.177 157.887 296.42 158.13 296.582L162.183 298.929L162.426 299.091C162.588 299.172 162.831 299.172 163.074 299.091L163.317 298.929L165.101 297.877L167.37 296.582C167.613 296.42 167.856 296.582 167.856 296.825V296.987V296.663Z" fill="url(#paint4_linear_716_1271)"/>
<path d="M195.901 32.6244C195.901 32.3816 195.658 32.2197 195.415 32.3816L191.362 34.7289C191.281 34.567 191.038 34.4052 190.795 34.4052C190.471 34.4052 190.146 34.7289 190.146 35.0527C190.146 35.3765 190.471 35.7003 190.795 35.7003V40.395L190.146 40.5569L190.471 40.7188C190.552 40.7997 190.714 40.7997 190.795 40.7997C190.957 40.7997 191.038 40.7997 191.119 40.7188L191.362 40.5569L195.577 38.1286C195.739 38.0476 195.901 37.8048 195.901 37.562V32.6244Z" fill="url(#paint5_linear_716_1271)"/>
<path d="M190.47 34.8102L186.337 32.4629V31.7344L186.013 31.8963C185.851 31.9772 185.688 32.22 185.688 32.4629V32.6248V37.5623C185.688 37.8051 185.77 37.967 186.013 38.1289L190.308 40.6382C190.552 40.8001 190.795 40.6382 190.795 40.3953V35.4578C190.795 35.134 190.714 34.9721 190.47 34.8102Z" fill="url(#paint6_linear_716_1271)"/>
<path d="M195.901 32.4636C195.901 32.2208 195.82 32.0589 195.576 31.897L195.414 31.8161L195.171 31.6542L191.119 29.3068C190.957 29.2259 190.713 29.2259 190.47 29.3068L186.175 31.8161C185.931 31.9779 185.931 32.2208 186.175 32.3827L190.227 34.73L190.47 34.8919C190.632 34.9729 190.876 34.9729 191.119 34.8919L191.362 34.73L193.145 33.6778L195.414 32.3827C195.658 32.2208 195.901 32.3827 195.901 32.6255V32.7874V32.4636Z" fill="url(#paint7_linear_716_1271)"/>
<path d="M330.931 174.115C330.931 173.872 330.688 173.71 330.445 173.872L326.393 176.219C326.311 176.057 326.068 175.895 325.825 175.895C325.501 175.895 325.177 176.219 325.177 176.543C325.177 176.867 325.501 177.19 325.825 177.19V181.885L325.177 182.047L325.501 182.209C325.582 182.29 325.744 182.29 325.825 182.29C325.987 182.29 326.068 182.29 326.149 182.209L326.393 182.047L330.607 179.619C330.769 179.538 330.931 179.295 330.931 179.052V174.115Z" fill="url(#paint8_linear_716_1271)"/>
<path d="M325.501 176.3L321.367 173.953V173.225L321.043 173.386C320.881 173.467 320.719 173.71 320.719 173.953V174.115V179.053C320.719 179.295 320.8 179.457 321.043 179.619L325.339 182.128C325.582 182.29 325.825 182.128 325.825 181.886V176.867C325.825 176.624 325.744 176.381 325.501 176.3Z" fill="url(#paint9_linear_716_1271)"/>
<path d="M330.931 173.954C330.931 173.711 330.85 173.549 330.607 173.387L330.445 173.306L330.201 173.144L326.149 170.797C325.987 170.716 325.744 170.716 325.501 170.797L321.205 173.306C320.962 173.468 320.962 173.711 321.205 173.873L325.257 176.22L325.501 176.382C325.663 176.463 325.906 176.463 326.149 176.382L326.392 176.22L328.175 175.168L330.445 173.873C330.688 173.711 330.931 173.873 330.931 174.116V174.278V173.954Z" fill="url(#paint10_linear_716_1271)"/>
<path d="M167.856 224.704C167.856 224.462 167.613 224.3 167.37 224.462L163.317 226.809C163.236 226.647 162.993 226.485 162.75 226.485C162.426 226.485 162.102 226.809 162.102 227.133C162.102 227.457 162.426 227.78 162.75 227.78V232.475L162.102 232.637L162.426 232.799C162.507 232.88 162.669 232.88 162.75 232.88C162.912 232.88 162.993 232.88 163.074 232.799L163.317 232.637L167.532 230.209C167.694 230.128 167.856 229.885 167.856 229.642V224.704Z" fill="url(#paint11_linear_716_1271)"/>
<path d="M162.507 226.89L158.373 224.543V223.814L158.049 223.976C157.887 224.057 157.725 224.3 157.725 224.543V224.705V229.642C157.725 229.885 157.806 230.047 158.049 230.209L162.345 232.718C162.588 232.88 162.831 232.718 162.831 232.475V227.538C162.831 227.214 162.669 226.971 162.507 226.89Z" fill="url(#paint12_linear_716_1271)"/>
<path d="M167.857 224.462C167.857 224.219 167.776 224.057 167.533 223.895L167.37 223.814L167.127 223.652L163.075 221.305C162.913 221.224 162.669 221.224 162.426 221.305L158.131 223.814C157.887 223.976 157.887 224.219 158.131 224.381L162.183 226.728L162.426 226.89C162.588 226.971 162.832 226.971 163.075 226.89L163.318 226.728L165.101 225.676L167.37 224.381C167.614 224.219 167.857 224.381 167.857 224.624V224.785V224.462Z" fill="url(#paint13_linear_716_1271)"/>
<path d="M111.202 168.285L136.409 182.936" stroke="url(#paint14_linear_716_1271)" stroke-miterlimit="10" stroke-linecap="round" stroke-linejoin="round"/>
<path d="M77.9712 178.322L213.894 257.161" stroke="url(#paint15_linear_716_1271)" stroke-miterlimit="10" stroke-linecap="round" stroke-linejoin="round"/>
<path d="M190.794 76.6582L325.663 154.85" stroke="url(#paint16_linear_716_1271)" stroke-miterlimit="10" stroke-linecap="round" stroke-linejoin="round"/>
<path d="M327.932 177.189L362.055 196.94" stroke="url(#paint17_linear_716_1271)" stroke-miterlimit="10" stroke-linecap="round" stroke-linejoin="round"/>
<path d="M117.767 150.721L257.256 231.664" stroke="url(#paint18_linear_716_1271)" stroke-miterlimit="10" stroke-linecap="round" stroke-linejoin="round"/>
<path d="M257.337 231.826L213.894 257.081" stroke="url(#paint19_linear_716_1271)" stroke-miterlimit="10" stroke-linecap="round" stroke-linejoin="round"/>
<path d="M257.337 148.697V231.826" stroke="url(#paint20_linear_716_1271)" stroke-miterlimit="10" stroke-linecap="round" stroke-linejoin="round"/>
<path d="M190.794 35.0527V76.6577" stroke="url(#paint21_linear_716_1271)" stroke-miterlimit="10" stroke-linecap="round" stroke-linejoin="round"/>
<path d="M162.832 228.346V302.733" stroke="url(#paint22_linear_716_1271)" stroke-miterlimit="10" stroke-linecap="round" stroke-linejoin="round"/>
<path d="M117.767 108.631V150.722" stroke="url(#paint23_linear_716_1271)" stroke-miterlimit="10" stroke-linecap="round" stroke-linejoin="round"/>
<path d="M325.663 154.93V172.899" stroke="url(#paint24_linear_716_1271)" stroke-miterlimit="10" stroke-linecap="round" stroke-linejoin="round"/>
<path d="M216.325 255.869C216.325 255.788 216.163 255.707 216.082 255.707L214.137 256.84C214.056 256.759 213.975 256.678 213.894 256.678C213.731 256.678 213.569 256.84 213.569 257.002C213.569 257.164 213.731 257.326 213.894 257.326V259.592L213.569 259.673L213.731 259.754C213.812 259.754 213.812 259.835 213.894 259.835C213.975 259.835 213.975 259.835 214.056 259.754L214.137 259.673L216.163 258.54C216.244 258.459 216.325 258.378 216.325 258.297V255.869Z" fill="url(#paint25_linear_716_1271)"/>
<path d="M213.732 256.922L211.787 255.789V255.465L211.625 255.546C211.543 255.627 211.462 255.708 211.462 255.789V255.87V258.217C211.462 258.298 211.543 258.46 211.625 258.46L213.651 259.674C213.732 259.755 213.894 259.674 213.894 259.512V257.165C213.894 257.084 213.813 257.003 213.732 256.922Z" fill="url(#paint26_linear_716_1271)"/>
<path d="M216.325 255.788C216.325 255.707 216.244 255.545 216.163 255.545L216.082 255.464L216.001 255.383L214.056 254.25C213.975 254.169 213.813 254.169 213.732 254.25L211.705 255.464C211.624 255.545 211.624 255.707 211.705 255.707L213.651 256.84L213.732 256.921C213.813 257.002 213.975 257.002 214.056 256.921L214.137 256.84L214.947 256.355L216.001 255.707C216.082 255.626 216.244 255.707 216.244 255.869V255.95V255.788H216.325Z" fill="url(#paint27_linear_716_1271)"/>
<path d="M120.199 149.428C120.199 149.347 120.037 149.266 119.956 149.266L118.011 150.399C117.93 150.318 117.849 150.237 117.768 150.237C117.605 150.237 117.443 150.399 117.443 150.561C117.443 150.723 117.605 150.884 117.768 150.884V153.151L117.443 153.232L117.605 153.313C117.687 153.313 117.687 153.394 117.768 153.394C117.849 153.394 117.849 153.394 117.93 153.313L118.011 153.232L120.037 152.099C120.118 152.018 120.199 151.937 120.199 151.856V149.428Z" fill="url(#paint28_linear_716_1271)"/>
<path d="M117.606 150.48L115.661 149.347V149.023L115.499 149.104C115.417 149.185 115.336 149.266 115.336 149.347V149.428V151.776C115.336 151.856 115.417 152.018 115.499 152.018L117.525 153.233C117.606 153.313 117.768 153.233 117.768 153.071V150.723C117.768 150.642 117.687 150.561 117.606 150.48Z" fill="url(#paint29_linear_716_1271)"/>
<path d="M120.199 149.347C120.199 149.266 120.118 149.104 120.037 149.104L119.956 149.023L119.875 148.942L117.93 147.809C117.849 147.728 117.687 147.728 117.606 147.809L115.579 149.023C115.498 149.104 115.498 149.266 115.579 149.266L117.525 150.399L117.606 150.48C117.687 150.561 117.849 150.561 117.93 150.48L118.011 150.399L118.821 149.913L119.875 149.266C119.956 149.185 120.118 149.266 120.118 149.428V149.509L120.199 149.347Z" fill="url(#paint30_linear_716_1271)"/>
<path d="M193.226 75.4451C193.226 75.3641 193.064 75.2832 192.983 75.2832L191.038 76.4164C190.957 76.3355 190.875 76.2545 190.794 76.2545C190.632 76.2545 190.47 76.4164 190.47 76.5783C190.47 76.7402 190.632 76.9021 190.794 76.9021V79.1685L190.47 79.2494L190.632 79.3304C190.713 79.3304 190.713 79.4113 190.794 79.4113C190.875 79.4113 190.875 79.4113 190.957 79.3304L191.038 79.2494L193.064 78.1162C193.145 78.0353 193.226 77.9543 193.226 77.8734V75.4451Z" fill="url(#paint31_linear_716_1271)"/>
<path d="M190.633 76.498L188.687 75.3648V75.041L188.525 75.122C188.444 75.2029 188.363 75.2838 188.363 75.3648V75.4457V77.7931C188.363 77.874 188.444 78.0359 188.525 78.0359L190.552 79.2501C190.633 79.331 190.795 79.2501 190.795 79.0882V76.7408C190.795 76.6599 190.714 76.5789 190.633 76.498Z" fill="url(#paint32_linear_716_1271)"/>
<path d="M193.225 75.3643C193.225 75.2833 193.144 75.1214 193.063 75.1214L192.982 75.0405L192.901 74.9595L190.956 73.8263C190.875 73.7454 190.713 73.7454 190.631 73.8263L188.605 75.0405C188.524 75.1214 188.524 75.2833 188.605 75.2833L190.55 76.4165L190.631 76.4975C190.713 76.5784 190.875 76.5784 190.956 76.4975L191.037 76.4165L191.847 75.9309L192.901 75.2833C192.982 75.2024 193.144 75.2833 193.144 75.4452V75.5262V75.3643H193.225Z" fill="url(#paint33_linear_716_1271)"/>
<path d="M364 195.888C364 195.808 363.838 195.727 363.757 195.727L361.811 196.86C361.73 196.779 361.649 196.698 361.568 196.698C361.406 196.698 361.244 196.86 361.244 197.022C361.244 197.184 361.406 197.345 361.568 197.345V199.612L361.244 199.693L361.406 199.774C361.487 199.774 361.487 199.855 361.568 199.855C361.649 199.855 361.649 199.855 361.73 199.774L361.811 199.693L363.838 198.56C363.919 198.479 364 198.398 364 198.317V195.888Z" fill="url(#paint34_linear_716_1271)"/>
<path d="M361.407 196.941L359.461 195.808V195.484L359.299 195.565C359.218 195.646 359.137 195.727 359.137 195.808V195.889V198.236C359.137 198.317 359.218 198.479 359.299 198.479L361.326 199.693C361.407 199.774 361.569 199.693 361.569 199.532V197.184C361.569 197.103 361.488 196.941 361.407 196.941Z" fill="url(#paint35_linear_716_1271)"/>
<path d="M364.001 195.808C364.001 195.727 363.92 195.565 363.839 195.565L363.758 195.484L363.677 195.403L361.732 194.27C361.651 194.189 361.488 194.189 361.407 194.27L359.381 195.484C359.3 195.565 359.3 195.727 359.381 195.727L361.326 196.86L361.407 196.941C361.488 197.022 361.651 197.022 361.732 196.941L361.813 196.86L362.623 196.374L363.677 195.727C363.758 195.646 363.92 195.727 363.92 195.889V195.97V195.808H364.001Z" fill="url(#paint36_linear_716_1271)"/>
<path d="M255.23 259.428L305.239 230.531V236.44L255.23 265.256V259.428Z" fill="url(#paint37_linear_716_1271)"/>
<path d="M236.994 248.742C237.075 248.823 237.156 248.985 237.318 249.066L255.231 259.427V265.336L237.318 254.975C236.832 254.732 236.751 254.327 236.994 254.004V248.742Z" fill="url(#paint38_linear_716_1271)"/>
<path d="M223.539 241.053C224.431 241.62 225.971 241.215 226.133 240.486C226.376 238.949 227.673 237.411 229.861 236.277C233.914 234.254 240.56 234.173 244.531 236.196C247.773 237.815 248.908 240.163 248.098 242.348C248.422 243.319 248.422 244.291 248.017 245.262C247.449 244.048 246.315 242.915 244.531 242.024C240.479 240.001 233.833 240.082 229.861 242.105C227.673 243.239 226.376 244.776 226.133 246.314C225.971 247.043 224.431 247.448 223.539 246.881L205.627 236.52V230.611L223.539 241.053Z" fill="url(#paint39_linear_716_1271)"/>
<path d="M272.494 219.602C269.819 219.764 267.145 220.493 265.2 221.788C263.984 222.597 263.254 223.487 262.849 224.459C262.444 223.487 262.444 222.516 262.768 221.545C262.12 219.602 262.93 217.417 265.2 215.879C267.145 214.584 269.819 213.855 272.494 213.693C273.224 213.612 273.71 213.37 273.872 212.965V218.469C274.115 219.036 273.548 219.602 272.494 219.602Z" fill="url(#paint40_linear_716_1271)"/>
<path d="M223.783 222.922L221.675 224.136C219.487 223.974 217.38 223.408 215.759 222.437C213.57 221.141 212.517 219.523 212.679 217.823V215.152V212.48C212.76 213.937 213.814 215.475 215.759 216.609C217.704 217.742 220.136 218.308 222.648 218.389C224.269 218.47 224.999 219.604 223.864 220.332L222.567 221.06C222.648 221.06 222.648 221.06 222.729 221.06C224.269 221.06 224.999 222.275 223.783 222.922Z" fill="url(#paint41_linear_716_1271)"/>
<path d="M230.591 207.625C232.698 208.758 233.833 210.215 233.995 211.753C234.076 212.724 236.102 213.129 237.318 212.482L255.554 201.959L273.467 212.32C274.358 212.886 273.791 213.777 272.494 213.777C269.819 213.939 267.145 214.667 265.199 215.962C261.633 218.31 261.552 222.114 265.118 224.461C269.414 227.294 276.871 227.375 281.491 224.785C283.436 223.652 284.49 222.276 284.733 220.819C284.895 220.09 286.435 219.767 287.326 220.252L305.239 230.613L255.23 259.429L237.318 249.068C236.426 248.502 236.994 247.611 238.291 247.611C240.803 247.449 243.235 246.883 245.099 245.749C249.638 243.078 249.476 238.788 244.531 236.36C240.479 234.336 233.833 234.417 229.861 236.441C227.673 237.574 226.376 239.112 226.133 240.65C225.971 241.379 224.431 241.783 223.539 241.217L205.627 230.856L223.863 220.333C225.079 219.686 224.35 218.471 222.648 218.391C220.135 218.31 217.704 217.743 215.758 216.61C211.463 214.181 211.625 210.134 216.083 207.706C220.135 205.44 226.619 205.44 230.591 207.625Z" fill="url(#paint42_linear_716_1271)"/>
<path d="M254.905 151.046C257.417 150.965 259.849 150.318 261.794 149.265C263.658 148.213 264.631 146.837 264.874 145.461V147.404C265.198 149.184 264.145 151.046 261.794 152.422C260.092 153.393 257.985 153.96 255.796 154.203L253.689 152.989C252.554 152.26 253.284 151.046 254.905 151.046Z" fill="url(#paint43_linear_716_1271)"/>
<path d="M231.968 114.782C230.833 115.511 230.022 116.482 229.617 117.534C229.212 116.563 229.212 115.592 229.536 114.62C228.888 112.597 229.698 110.411 231.968 108.954C236.263 106.202 243.72 106.04 248.178 108.63C250.042 109.764 251.177 111.14 251.339 112.516C251.42 113.244 253.041 113.568 253.932 113.082L272.007 102.641V108.55L253.932 118.991C253.041 119.558 251.501 119.153 251.339 118.425C251.096 116.968 250.042 115.592 248.178 114.539C243.72 111.868 236.263 112.03 231.968 114.782Z" fill="url(#paint44_linear_716_1271)"/>
<path d="M239.587 122.068C239.506 122.068 239.506 122.068 239.425 122.068L240.722 121.339C241.937 120.692 241.208 119.477 239.506 119.396C236.912 119.316 234.319 118.668 232.373 117.454C230.347 116.24 229.456 114.621 229.618 113.002H229.537V115.673V116.159V118.83H229.618C229.456 120.449 230.347 122.068 232.373 123.363C234.075 124.415 236.264 125.063 238.614 125.224C238.695 125.224 241.289 122.149 239.587 122.068ZM229.699 116.078C229.699 116.159 229.699 116.159 229.699 116.24C229.699 116.24 229.699 116.159 229.699 116.078Z" fill="url(#paint45_linear_716_1271)"/>
<path d="M240.479 142.142C241.37 142.709 242.91 142.304 243.072 141.575C243.315 140.037 244.612 138.5 246.801 137.366C250.853 135.343 257.499 135.262 261.471 137.285C264.713 138.904 265.848 141.252 265.037 143.437C265.361 144.408 265.361 145.38 264.956 146.351C264.389 145.137 263.254 144.004 261.471 143.113C257.418 141.09 250.772 141.171 246.801 143.194C244.612 144.327 243.315 145.865 243.072 147.403C242.91 148.132 241.37 148.537 240.479 147.97L222.566 137.609V134.938V134.452V131.781L240.479 142.142Z" fill="url(#paint46_linear_716_1271)"/>
<path d="M254.905 148.294C257.417 148.213 259.849 147.566 261.794 146.513C263.658 145.461 264.631 144.085 264.874 142.709V144.652C265.198 146.432 264.145 148.294 261.794 149.67C260.092 150.641 257.985 151.208 255.796 151.451L253.689 150.237C252.554 149.589 253.284 148.375 254.905 148.294Z" fill="url(#paint47_linear_716_1271)"/>
<path d="M231.968 108.47C230.834 109.199 230.023 110.17 229.618 111.222C228.807 109.199 229.618 106.852 231.968 105.314C236.264 102.562 243.721 102.4 248.178 104.99C250.043 106.123 251.177 107.499 251.339 108.875C251.42 109.604 253.041 109.927 253.933 109.442L272.007 99V102.157L253.933 112.599C253.041 113.165 251.501 112.76 251.339 112.032C251.096 110.575 250.043 109.199 248.178 108.147C243.721 105.637 236.264 105.718 231.968 108.47Z" fill="url(#paint48_linear_716_1271)"/>
<path d="M232.454 113.813C234.399 115.027 236.993 115.675 239.586 115.756C241.207 115.837 241.937 116.97 240.802 117.699L238.695 118.913C236.425 118.751 234.156 118.103 232.454 117.051C230.428 115.837 229.536 114.137 229.698 112.518H229.617V109.361H229.698C229.536 110.899 230.509 112.599 232.454 113.813Z" fill="url(#paint49_linear_716_1271)"/>
<path d="M240.478 138.501C241.37 139.067 242.91 138.662 243.072 137.934C243.315 136.396 244.612 134.858 246.8 133.725C250.853 131.701 257.499 131.62 261.47 133.644C264.793 135.344 265.928 137.853 264.956 140.119C264.388 138.905 263.254 137.772 261.47 136.882C257.418 134.858 250.772 134.939 246.8 136.963C244.612 138.096 243.315 139.634 243.072 141.172C242.91 141.9 241.37 142.305 240.478 141.738L222.566 131.378V128.221L240.478 138.501Z" fill="url(#paint50_linear_716_1271)"/>
<path d="M254.905 144.734C257.417 144.653 259.849 144.005 261.794 142.953C263.658 141.901 264.631 140.524 264.874 139.148V141.091C265.198 142.872 264.145 144.734 261.794 146.11C260.092 147.081 257.985 147.648 255.796 147.89L253.689 146.676C252.554 145.948 253.284 144.814 254.905 144.734Z" fill="url(#paint51_linear_716_1271)"/>
<path d="M254.905 142.952C257.417 142.871 259.849 142.224 261.794 141.172C263.658 140.119 264.631 138.743 264.874 137.367V139.31C265.198 141.091 264.145 142.952 261.794 144.328C260.092 145.3 257.985 145.866 255.796 146.109L253.689 144.895C252.554 144.247 253.284 143.033 254.905 142.952Z" fill="url(#paint52_linear_716_1271)"/>
<path d="M231.968 106.77C230.833 107.499 230.023 108.47 229.618 109.523C229.212 108.551 229.212 107.58 229.537 106.609C228.888 104.585 229.699 102.399 231.968 100.943C236.264 98.1904 243.721 98.0285 248.178 100.619C250.043 101.752 251.177 103.128 251.339 104.504C251.42 105.233 253.041 105.556 253.933 105.071L272.007 94.6289V100.538L253.933 110.98C253.041 111.546 251.501 111.141 251.339 110.413C251.096 108.956 250.043 107.58 248.178 106.528C243.721 103.856 236.264 103.937 231.968 106.77Z" fill="url(#paint53_linear_716_1271)"/>
<path d="M182.608 117.86C186.66 120.046 193.063 119.965 197.116 117.86C199.223 116.727 200.358 115.27 200.52 113.732C200.601 112.761 202.708 112.356 203.843 113.003L222.08 123.445L240.154 113.003C240.316 112.923 240.397 112.761 240.478 112.68V117.941C240.721 118.265 240.64 118.589 240.154 118.831L222.08 129.354L203.924 118.912C202.789 118.265 200.682 118.67 200.601 119.641C200.439 121.179 199.304 122.636 197.197 123.769C193.144 125.954 186.66 125.954 182.689 123.769C180.5 122.636 179.366 121.017 179.285 119.479H179.204V113.57H179.285C179.366 115.108 180.5 116.727 182.608 117.86Z" fill="url(#paint54_linear_716_1271)"/>
<path d="M172.395 94.791L190.469 105.233C191.604 105.88 190.956 107.094 189.254 107.175H189.173L190.469 107.904C191.604 108.551 190.956 109.766 189.254 109.847C188.929 109.847 188.686 109.847 188.362 109.927L172.314 100.7H172.233L172.395 94.791Z" fill="url(#paint55_linear_716_1271)"/>
<path d="M239.587 113.974C239.506 113.974 239.506 113.974 239.425 113.974L240.722 113.245C241.937 112.598 241.208 111.384 239.506 111.303C236.912 111.222 234.319 110.574 232.373 109.36C230.347 108.146 229.456 106.527 229.618 104.908H229.537V107.579V108.065V110.736H229.618C229.456 112.355 230.347 113.974 232.373 115.269C234.075 116.321 236.264 116.969 238.614 117.131C238.695 117.131 241.289 114.055 239.587 113.974ZM229.699 108.065C229.699 108.146 229.699 108.146 229.699 108.227C229.699 108.146 229.699 108.065 229.699 108.065Z" fill="url(#paint56_linear_716_1271)"/>
<path d="M240.479 134.048C241.37 134.615 242.91 134.21 243.072 133.482C243.315 131.944 244.612 130.406 246.801 129.273C250.853 127.249 257.499 127.168 261.471 129.192C264.713 130.811 265.848 133.158 265.037 135.343C265.361 136.315 265.361 137.286 264.956 138.257C264.389 137.043 263.254 135.91 261.471 135.02C257.418 132.996 250.772 133.077 246.801 135.101C244.612 136.234 243.315 137.772 243.072 139.31C242.91 140.038 241.37 140.443 240.479 139.876L222.566 129.515V126.844V126.359V123.688L240.479 134.048Z" fill="url(#paint57_linear_716_1271)"/>
<path d="M304.023 134.048L322.259 123.525V129.434L306.13 138.743C305.806 138.743 305.562 138.662 305.238 138.662C303.617 138.581 302.888 137.448 304.023 136.719L305.319 135.991C305.238 135.991 305.238 135.991 305.157 135.991C303.536 135.91 302.807 134.777 304.023 134.048Z" fill="url(#paint58_linear_716_1271)"/>
<path d="M254.905 140.28C257.417 140.199 259.849 139.552 261.794 138.5C263.658 137.447 264.631 136.071 264.874 134.695V136.638C265.198 138.419 264.145 140.28 261.794 141.656C260.092 142.628 257.985 143.194 255.796 143.437L253.689 142.223C252.554 141.495 253.284 140.361 254.905 140.28Z" fill="url(#paint59_linear_716_1271)"/>
<path d="M253.852 141.494C253.852 141.656 254.014 141.899 254.257 142.061L272.17 152.422L290.406 141.899C291.622 141.251 293.648 141.656 293.729 142.546C293.891 144.003 294.945 145.379 296.809 146.513C301.105 148.941 308.075 148.86 312.209 146.351C313.83 145.298 314.803 144.084 314.965 142.708V147.403C315.208 149.103 314.316 150.884 312.209 152.179C308.075 154.769 301.024 154.85 296.809 152.341C294.864 151.207 293.891 149.831 293.729 148.374C293.648 147.403 291.541 146.998 290.406 147.727L272.17 158.249L254.257 147.889C253.933 147.646 253.771 147.403 253.852 147.16V141.494Z" fill="url(#paint60_linear_716_1271)"/>
<path d="M205.059 135.91C207.733 136.072 210.327 136.8 212.353 138.014C214.623 139.471 215.433 141.657 214.785 143.6C215.109 144.571 215.109 145.623 214.704 146.514C214.298 145.542 213.569 144.652 212.353 143.842C210.408 142.547 207.814 141.819 205.059 141.738C204.167 141.657 203.681 141.333 203.681 140.847V135.02C203.681 135.505 204.248 135.829 205.059 135.91Z" fill="url(#paint61_linear_716_1271)"/>
<path d="M231.644 158.979C235.94 156.145 243.477 155.984 248.016 158.574C249.88 159.707 251.015 161.083 251.177 162.459C251.258 163.188 252.879 163.511 253.771 163.026L271.845 152.584V158.493L253.771 168.935C252.879 169.501 251.339 169.096 251.177 168.368C250.934 166.911 249.88 165.535 248.016 164.483C243.477 161.892 235.94 161.973 231.644 164.887C230.509 165.616 229.78 166.587 229.374 167.559C228.969 166.587 228.969 165.616 229.293 164.645C228.564 162.621 229.374 160.436 231.644 158.979Z" fill="url(#paint62_linear_716_1271)"/>
<path d="M172.152 158.655V152.746L190.226 163.188C191.361 163.835 190.713 165.05 189.01 165.13H188.929L190.226 165.859C191.361 166.506 190.713 167.721 189.01 167.802C188.686 167.802 188.443 167.802 188.119 167.883L172.152 158.655Z" fill="url(#paint63_linear_716_1271)"/>
<path d="M239.83 171.039C240.073 170.959 240.154 170.797 240.235 170.635V176.058C240.397 176.301 240.235 176.625 239.83 176.867L221.755 187.309V181.4L239.83 171.039Z" fill="url(#paint64_linear_716_1271)"/>
<path d="M179.041 171.606C179.122 173.144 180.257 174.763 182.445 175.896C186.498 178.081 192.901 178.001 196.953 175.896C199.061 174.763 200.195 173.306 200.357 171.768C200.438 170.797 202.546 170.392 203.681 171.039L221.836 181.481V187.39L203.681 176.867C202.546 176.22 200.438 176.624 200.357 177.596C200.195 179.134 199.061 180.591 196.953 181.724C192.901 183.909 186.417 183.909 182.445 181.724C180.257 180.591 179.122 178.972 179.041 177.434V177.353C179.041 177.272 179.041 177.191 179.041 177.11V171.606Z" fill="url(#paint65_linear_716_1271)"/>
<path d="M212.272 138.015C210.327 136.72 207.733 135.991 204.978 135.91C203.681 135.829 203.113 134.939 204.005 134.453L222.079 124.012L240.235 134.453C241.369 135.101 243.477 134.696 243.558 133.725C243.72 132.187 244.855 130.73 246.962 129.597C251.014 127.411 257.499 127.411 261.47 129.597C265.928 131.944 266.009 135.991 261.713 138.501C259.768 139.634 257.336 140.2 254.824 140.281C253.203 140.362 252.473 141.576 253.608 142.224L271.682 152.666L253.608 163.107C252.717 163.674 251.177 163.269 251.014 162.541C250.771 161.084 249.718 159.708 247.853 158.656C243.315 156.065 235.777 156.146 231.481 159.06C227.996 161.408 227.996 165.212 231.481 167.559C233.426 168.854 236.02 169.583 238.776 169.664C240.073 169.745 240.64 170.635 239.748 171.121L221.674 181.563L203.519 171.121C202.384 170.473 200.277 170.878 200.195 171.849C200.033 173.387 198.899 174.844 196.791 175.977C192.739 178.163 186.255 178.163 182.283 175.977C177.825 173.63 177.744 169.583 182.04 167.074C183.985 165.94 186.417 165.374 188.929 165.293C190.55 165.212 191.28 163.998 190.145 163.35L172.071 152.909L190.145 142.467C191.037 141.9 192.577 142.305 192.739 143.033C192.982 144.49 194.036 145.866 195.9 146.919C200.439 149.509 207.976 149.428 212.272 146.514C215.838 144.167 215.838 140.362 212.272 138.015Z" fill="url(#paint66_linear_716_1271)"/>
<path d="M248.179 100.538C243.64 97.9475 236.264 98.0284 231.968 100.861C228.483 103.128 228.402 107.094 231.887 109.441C233.833 110.737 236.426 111.465 239.182 111.546C240.479 111.627 241.046 112.517 240.155 113.003L222.08 123.445L203.925 113.003C202.79 112.355 200.683 112.76 200.602 113.731C200.44 115.269 199.305 116.726 197.198 117.86C193.145 120.045 186.661 120.045 182.689 117.86C178.232 115.512 178.151 111.465 182.446 108.956C184.392 107.823 186.823 107.256 189.336 107.175C190.957 107.094 191.686 105.88 190.551 105.232L172.477 94.7907L218.433 68.2412C220.946 66.7842 223.944 66.7842 226.457 68.2412L272.089 94.5478L254.014 104.99C253.123 105.556 251.583 105.151 251.421 104.423C251.178 103.047 250.124 101.671 248.179 100.538Z" fill="url(#paint67_linear_716_1271)"/>
<path d="M247.935 100.78C249.88 101.913 250.853 103.289 251.015 104.746C251.096 105.718 253.203 106.122 254.338 105.394L272.574 94.8711L322.259 123.525L304.022 134.048C302.806 134.695 303.536 135.909 305.238 135.99C307.832 136.071 310.425 136.719 312.37 137.933C316.099 140.28 316.099 144.004 312.37 146.351C308.237 148.941 301.185 149.022 296.971 146.513C295.025 145.38 294.053 144.004 293.891 142.547C293.81 141.576 291.702 141.171 290.568 141.899L272.331 152.422L254.338 142.061C253.446 141.495 254.014 140.604 255.311 140.604C257.823 140.442 260.255 139.876 262.119 138.743C266.658 136.071 266.496 131.781 261.551 129.353C257.499 127.329 250.853 127.41 246.881 129.434C244.693 130.567 243.396 132.105 243.153 133.643C242.991 134.372 241.451 134.776 240.559 134.21L222.647 123.849L240.883 113.326C242.099 112.679 241.37 111.465 239.668 111.384C237.074 111.303 234.48 110.655 232.535 109.441C228.807 107.094 228.807 103.37 232.535 101.023C236.669 98.3517 243.639 98.3517 247.935 100.78Z" fill="url(#paint68_linear_716_1271)"/>
<path d="M114.93 207.791C116.146 207.143 118.172 207.548 118.253 208.438C118.416 209.895 119.469 211.271 121.333 212.404C125.629 214.833 132.599 214.752 136.733 212.242C138.354 211.19 139.327 209.895 139.489 208.6V210.624C139.57 210.947 139.489 213.295 139.489 213.295C139.732 214.994 138.84 216.775 136.733 218.07C132.599 220.661 125.548 220.741 121.333 218.232C119.388 217.099 118.416 215.723 118.253 214.266C118.172 213.295 116.065 212.89 114.93 213.618L96.6938 224.141V218.232L114.93 207.791Z" fill="url(#paint69_linear_716_1271)"/>
<path d="M54.2229 174.846C54.1418 174.442 54.1418 174.037 54.2229 173.632V171.689C54.4661 172.985 55.3576 174.199 56.9786 175.251C58.9239 176.465 61.5175 177.113 64.1111 177.194C65.7321 177.275 66.4616 178.408 65.3269 179.136L64.0301 179.865C64.1111 179.865 64.1111 179.865 64.1922 179.865C65.8132 179.946 66.5426 181.079 65.4079 181.807L63.3006 183.022C61.0312 182.86 58.7618 182.212 57.0597 181.16C54.9524 179.865 54.0608 178.084 54.3039 176.384V174.846H54.2229Z" fill="url(#paint70_linear_716_1271)"/>
<path d="M114.038 178.488C111.525 178.65 109.094 179.217 107.23 180.35C105.771 181.24 104.798 182.211 104.312 183.345C103.907 182.373 103.826 181.402 104.231 180.431C103.501 178.326 104.474 176.141 107.311 174.522C109.256 173.389 111.606 172.822 114.119 172.66C114.848 172.579 115.335 172.336 115.497 171.932V174.603V174.765C115.578 174.927 115.578 175.007 115.497 175.169V177.436C115.578 177.921 115.011 178.407 114.038 178.488Z" fill="url(#paint71_linear_716_1271)"/>
<path d="M129.682 204.552C128.061 204.472 127.331 203.338 128.466 202.61L129.763 201.881C129.682 201.881 129.682 201.881 129.601 201.881C127.98 201.8 127.25 200.667 128.385 199.939L146.621 189.416V195.325L130.492 204.633C130.33 204.552 130.006 204.552 129.682 204.552Z" fill="url(#paint72_linear_716_1271)"/>
<path d="M1.45892 163.27L46.6854 189.334L64.7597 178.892C65.0029 178.811 65.0839 178.649 65.165 178.488V181.159V181.24C65.246 181.401 65.246 181.563 65.165 181.644V183.911C65.246 184.154 65.165 184.477 64.7597 184.72L46.6854 195.162L1.45892 169.179C0.648408 168.693 0.162102 167.884 0 167.074V164.403V163.513V163.351V160.842C0 161.732 0.486306 162.703 1.45892 163.27Z" fill="url(#paint73_linear_716_1271)"/>
<path d="M86.9679 152.1C85.2658 153.153 82.9964 153.8 80.727 154.043L78.6197 152.829C77.4849 152.181 78.2144 150.967 79.8354 150.886H79.9165L78.6197 150.158C77.4849 149.51 78.2144 148.296 79.8354 148.215C82.4291 148.134 85.0227 147.487 86.9679 146.272C88.5889 145.301 89.4805 144.006 89.7236 142.711V147.325C90.0479 148.944 89.1563 150.724 86.9679 152.1Z" fill="url(#paint74_linear_716_1271)"/>
<path d="M57.6271 172.094C55.844 172.984 54.6282 174.198 54.0609 175.412C53.6556 174.441 53.5746 173.47 53.9798 172.498C53.1693 170.313 54.3851 167.885 57.6271 166.266C61.6797 164.242 68.3258 164.242 72.2973 166.266C74.4857 167.399 75.7825 168.937 76.0257 170.475C76.1878 171.203 77.6467 171.608 78.6193 171.041L96.6937 160.6V163.271V163.756V166.428L78.6193 176.788C77.7278 177.355 76.1878 176.95 76.0257 176.222C75.7825 174.684 74.5668 173.146 72.2973 172.013C68.3258 170.07 61.6797 170.07 57.6271 172.094Z" fill="url(#paint75_linear_716_1271)"/>
<path d="M47.0093 189.578L96.6935 218.232V224.141L47.0093 195.487V189.578Z" fill="url(#paint76_linear_716_1271)"/>
<path d="M121.333 212.403C119.388 211.269 118.415 209.893 118.253 208.436C118.172 207.465 116.065 207.06 114.93 207.789L96.6935 218.312L47.0093 189.577L65.2458 179.054C66.4615 178.406 65.7321 177.192 64.03 177.111C61.4364 177.03 58.8427 176.383 56.8975 175.169C53.1692 172.821 53.1692 169.098 56.8975 166.75C61.0311 164.16 68.0825 164.079 72.2972 166.589C74.2424 167.722 75.215 169.098 75.3771 170.555C75.4582 171.526 77.5655 171.931 78.7002 171.202L96.9367 160.68L114.849 171.04C115.741 171.607 115.173 172.497 113.876 172.497C111.364 172.659 108.932 173.226 107.068 174.359C102.529 177.03 102.691 181.32 107.635 183.749C111.688 185.772 118.334 185.691 122.306 183.668C124.494 182.534 125.791 180.997 126.034 179.459C126.196 178.73 127.736 178.325 128.628 178.892L146.54 189.253L128.303 199.775C127.088 200.423 127.817 201.637 129.519 201.718C132.113 201.799 134.706 202.447 136.652 203.661C140.38 206.008 140.38 209.731 136.652 212.079C132.599 214.75 125.629 214.831 121.333 212.403Z" fill="url(#paint77_linear_716_1271)"/>
<path d="M56.9789 175.654C52.44 173.064 52.6832 168.693 57.6273 166.183C61.6798 164.16 68.326 164.16 72.2975 166.183C74.4859 167.317 75.7827 168.854 76.0258 170.392C76.1879 171.121 77.6469 171.526 78.6195 170.959L96.6938 160.517L78.5384 150.076C77.4037 149.428 78.1332 148.214 79.7542 148.133C82.3478 148.052 84.9415 147.404 86.8867 146.19C90.615 143.843 90.6961 140.12 86.9677 137.772C82.8341 135.182 75.8637 135.182 71.568 137.61C69.6228 138.743 68.5692 140.12 68.4071 141.577C68.326 142.548 66.2187 142.953 65.084 142.305L47.0096 131.863L1.45892 158.17C-0.486306 159.303 -0.486306 162.136 1.45892 163.269L46.6854 189.333L64.7598 178.892C65.6513 178.325 65.084 177.435 63.7871 177.435C61.3556 177.354 58.9241 176.706 56.9789 175.654Z" fill="url(#paint78_linear_716_1271)"/>
<path d="M149.459 121.34L150.755 120.612C150.674 120.612 150.674 120.612 150.593 120.612C148.972 120.531 148.243 119.398 149.377 118.669L167.614 108.146V114.055L151.485 123.364C151.161 123.364 150.917 123.283 150.593 123.283C149.053 123.202 148.324 121.988 149.459 121.34Z" fill="url(#paint79_linear_716_1271)"/>
<path d="M128.223 93.1731C130.169 92.0399 132.519 91.4733 135.032 91.3114C135.842 91.2304 136.41 90.9067 136.41 90.502V96.4108C136.41 96.8155 135.842 97.2203 135.032 97.3012C132.519 97.4631 130.088 98.0297 128.223 99.1629C126.765 100.053 125.792 101.025 125.306 102.158C124.9 101.186 124.819 100.215 125.225 99.2439C124.414 97.0584 125.387 94.792 128.223 93.1731Z" fill="url(#paint80_linear_716_1271)"/>
<path d="M99.3691 126.197C99.4501 126.359 99.5312 126.521 99.7743 126.602L117.687 136.963V142.872L99.7743 132.511C99.3691 132.268 99.288 132.025 99.3691 131.701V126.197Z" fill="url(#paint81_linear_716_1271)"/>
<path d="M135.923 126.441C137.139 125.793 139.166 126.198 139.247 127.088C139.409 128.545 140.462 129.921 142.327 131.055C146.622 133.483 153.593 133.402 157.726 130.893C159.59 129.76 160.482 128.303 160.563 126.765V132.674C160.482 134.131 159.59 135.668 157.726 136.802C153.593 139.392 146.541 139.473 142.327 136.964C140.381 135.83 139.409 134.454 139.247 132.997C139.166 132.026 137.058 131.621 135.923 132.35L117.687 142.872V136.964L135.923 126.441Z" fill="url(#paint82_linear_716_1271)"/>
<path d="M85.9958 118.669C86.8873 119.236 88.4273 118.831 88.5894 118.103C88.8326 116.646 89.8862 115.27 91.8314 114.137C96.3703 111.465 103.908 111.627 108.204 114.46C110.473 115.917 111.203 118.022 110.554 119.964C110.878 120.936 110.878 121.907 110.473 122.878C110.068 121.907 109.338 121.017 108.204 120.288C103.908 117.455 96.4513 117.374 91.8314 119.964C89.8862 121.098 88.8326 122.474 88.5894 123.931C88.4273 124.659 86.8873 124.983 85.9958 124.497L68.0835 114.217V108.309L85.9958 118.669Z" fill="url(#paint83_linear_716_1271)"/>
<path d="M136.003 89.8549C136.895 90.4215 136.327 91.3119 135.031 91.3119C132.518 91.4738 130.087 92.0404 128.222 93.1736C123.684 95.8447 123.846 100.135 128.79 102.563C132.842 104.587 139.488 104.506 143.46 102.482C145.648 101.349 146.945 99.811 147.188 98.2731C147.35 97.5446 148.89 97.1398 149.782 97.7064L167.694 108.067L149.458 118.59C148.242 119.237 148.971 120.452 150.673 120.533C153.267 120.613 155.861 121.261 157.806 122.475C161.534 124.823 161.534 128.546 157.806 130.893C153.672 133.484 146.621 133.564 142.406 131.055C140.461 129.922 139.488 128.546 139.326 127.089C139.245 126.118 137.138 125.713 136.003 126.441L117.767 136.964L99.8545 126.603C98.9629 126.037 99.5303 125.146 100.827 125.146C103.502 124.984 106.176 124.256 108.122 122.961C111.688 120.613 111.769 116.809 108.203 114.462C103.907 111.629 96.4504 111.548 91.8305 114.138C89.8852 115.271 88.8316 116.647 88.5884 118.104C88.4263 118.833 86.8864 119.157 85.9948 118.671L68.0825 108.31L118.091 79.4941L136.003 89.8549Z" fill="url(#paint84_linear_716_1271)"/>
<defs>
<linearGradient id="paint0_linear_716_1271" x1="-356.521" y1="-204.938" x2="508.409" y2="298.595" gradientUnits="userSpaceOnUse">
<stop stop-color="#C5D8C2"/>
<stop offset="1" stop-color="#ECF3EF"/>
</linearGradient>
<linearGradient id="paint1_linear_716_1271" x1="103.847" y1="203.158" x2="683.544" y2="642.027" gradientUnits="userSpaceOnUse">
<stop stop-color="#DCE7DC"/>
<stop offset="1" stop-color="#7EB666"/>
</linearGradient>
<linearGradient id="paint2_linear_716_1271" x1="155.937" y1="292.074" x2="164.756" y2="300.485" gradientUnits="userSpaceOnUse">
<stop stop-color="#72A15F"/>
<stop offset="1" stop-color="#495944"/>
</linearGradient>
<linearGradient id="paint3_linear_716_1271" x1="154.275" y1="293.098" x2="172.328" y2="316.052" gradientUnits="userSpaceOnUse">
<stop stop-color="#72A15F"/>
<stop offset="1" stop-color="#495944"/>
</linearGradient>
<linearGradient id="paint4_linear_716_1271" x1="143.589" y1="285.149" x2="172.501" y2="301.981" gradientUnits="userSpaceOnUse">
<stop stop-color="#ECF3EF"/>
<stop offset="0.5" stop-color="#7EB666"/>
<stop offset="1" stop-color="#495944"/>
</linearGradient>
<linearGradient id="paint5_linear_716_1271" x1="183.933" y1="27.8675" x2="192.753" y2="36.2785" gradientUnits="userSpaceOnUse">
<stop stop-color="#72A15F"/>
<stop offset="1" stop-color="#495944"/>
</linearGradient>
<linearGradient id="paint6_linear_716_1271" x1="182.271" y1="28.8923" x2="200.324" y2="51.8458" gradientUnits="userSpaceOnUse">
<stop stop-color="#72A15F"/>
<stop offset="1" stop-color="#495944"/>
</linearGradient>
<linearGradient id="paint7_linear_716_1271" x1="171.585" y1="20.9438" x2="200.498" y2="37.7758" gradientUnits="userSpaceOnUse">
<stop stop-color="#ECF3EF"/>
<stop offset="0.5" stop-color="#7EB666"/>
<stop offset="1" stop-color="#495944"/>
</linearGradient>
<linearGradient id="paint8_linear_716_1271" x1="318.951" y1="169.309" x2="327.771" y2="177.72" gradientUnits="userSpaceOnUse">
<stop stop-color="#72A15F"/>
<stop offset="1" stop-color="#495944"/>
</linearGradient>
<linearGradient id="paint9_linear_716_1271" x1="317.29" y1="170.334" x2="335.343" y2="193.287" gradientUnits="userSpaceOnUse">
<stop stop-color="#72A15F"/>
<stop offset="1" stop-color="#495944"/>
</linearGradient>
<linearGradient id="paint10_linear_716_1271" x1="306.603" y1="162.385" x2="335.516" y2="179.217" gradientUnits="userSpaceOnUse">
<stop stop-color="#ECF3EF"/>
<stop offset="0.5" stop-color="#7EB666"/>
<stop offset="1" stop-color="#495944"/>
</linearGradient>
<linearGradient id="paint11_linear_716_1271" x1="155.936" y1="219.883" x2="164.756" y2="228.294" gradientUnits="userSpaceOnUse">
<stop stop-color="#72A15F"/>
<stop offset="1" stop-color="#495944"/>
</linearGradient>
<linearGradient id="paint12_linear_716_1271" x1="154.274" y1="220.908" x2="172.327" y2="243.862" gradientUnits="userSpaceOnUse">
<stop stop-color="#72A15F"/>
<stop offset="1" stop-color="#495944"/>
</linearGradient>
<linearGradient id="paint13_linear_716_1271" x1="143.589" y1="212.959" x2="172.502" y2="229.791" gradientUnits="userSpaceOnUse">
<stop stop-color="#ECF3EF"/>
<stop offset="0.5" stop-color="#7EB666"/>
<stop offset="1" stop-color="#495944"/>
</linearGradient>
<linearGradient id="paint14_linear_716_1271" x1="110.792" y1="175.588" x2="136.806" y2="175.588" gradientUnits="userSpaceOnUse">
<stop stop-color="#72A15F" stop-opacity="0.5"/>
<stop offset="1" stop-color="#495944" stop-opacity="0.5"/>
</linearGradient>
<linearGradient id="paint15_linear_716_1271" x1="77.6015" y1="217.775" x2="214.279" y2="217.775" gradientUnits="userSpaceOnUse">
<stop stop-color="#72A15F" stop-opacity="0.5"/>
<stop offset="1" stop-color="#495944" stop-opacity="0.5"/>
</linearGradient>
<linearGradient id="paint16_linear_716_1271" x1="190.407" y1="115.755" x2="326.074" y2="115.755" gradientUnits="userSpaceOnUse">
<stop stop-color="#72A15F" stop-opacity="0.5"/>
<stop offset="1" stop-color="#495944" stop-opacity="0.5"/>
</linearGradient>
<linearGradient id="paint17_linear_716_1271" x1="327.516" y1="187.059" x2="362.462" y2="187.059" gradientUnits="userSpaceOnUse">
<stop stop-color="#72A15F" stop-opacity="0.5"/>
<stop offset="1" stop-color="#495944" stop-opacity="0.5"/>
</linearGradient>
<linearGradient id="paint18_linear_716_1271" x1="117.335" y1="191.221" x2="257.635" y2="191.221" gradientUnits="userSpaceOnUse">
<stop stop-color="#72A15F" stop-opacity="0.5"/>
<stop offset="1" stop-color="#495944" stop-opacity="0.5"/>
</linearGradient>
<linearGradient id="paint19_linear_716_1271" x1="213.468" y1="244.481" x2="257.754" y2="244.481" gradientUnits="userSpaceOnUse">
<stop stop-color="#72A15F" stop-opacity="0.5"/>
<stop offset="1" stop-color="#495944" stop-opacity="0.5"/>
</linearGradient>
<linearGradient id="paint20_linear_716_1271" x1="-nan" y1="-nan" x2="-nan" y2="-nan" gradientUnits="userSpaceOnUse">
<stop stop-color="#72A15F" stop-opacity="0.5"/>
<stop offset="1" stop-color="#495944" stop-opacity="0.5"/>
</linearGradient>
<linearGradient id="paint21_linear_716_1271" x1="-nan" y1="-nan" x2="-nan" y2="-nan" gradientUnits="userSpaceOnUse">
<stop stop-color="#72A15F" stop-opacity="0.5"/>
<stop offset="1" stop-color="#495944" stop-opacity="0.5"/>
</linearGradient>
<linearGradient id="paint22_linear_716_1271" x1="-nan" y1="-nan" x2="-nan" y2="-nan" gradientUnits="userSpaceOnUse">
<stop stop-color="#72A15F" stop-opacity="0.5"/>
<stop offset="1" stop-color="#495944" stop-opacity="0.5"/>
</linearGradient>
<linearGradient id="paint23_linear_716_1271" x1="-nan" y1="-nan" x2="-nan" y2="-nan" gradientUnits="userSpaceOnUse">
<stop stop-color="#72A15F" stop-opacity="0.5"/>
<stop offset="1" stop-color="#495944" stop-opacity="0.5"/>
</linearGradient>
<linearGradient id="paint24_linear_716_1271" x1="-nan" y1="-nan" x2="-nan" y2="-nan" gradientUnits="userSpaceOnUse">
<stop stop-color="#72A15F" stop-opacity="0.5"/>
<stop offset="1" stop-color="#495944" stop-opacity="0.5"/>
</linearGradient>
<linearGradient id="paint25_linear_716_1271" x1="210.582" y1="253.58" x2="214.804" y2="257.606" gradientUnits="userSpaceOnUse">
<stop stop-color="#72A15F"/>
<stop offset="1" stop-color="#495944"/>
</linearGradient>
<linearGradient id="paint26_linear_716_1271" x1="209.787" y1="254.071" x2="218.429" y2="265.058" gradientUnits="userSpaceOnUse">
<stop stop-color="#72A15F"/>
<stop offset="1" stop-color="#495944"/>
</linearGradient>
<linearGradient id="paint27_linear_716_1271" x1="204.672" y1="250.266" x2="218.512" y2="258.323" gradientUnits="userSpaceOnUse">
<stop stop-color="#ECF3EF"/>
<stop offset="0.5" stop-color="#7EB666"/>
<stop offset="1" stop-color="#495944"/>
</linearGradient>
<linearGradient id="paint28_linear_716_1271" x1="114.45" y1="147.167" x2="118.671" y2="151.193" gradientUnits="userSpaceOnUse">
<stop stop-color="#72A15F"/>
<stop offset="1" stop-color="#495944"/>
</linearGradient>
<linearGradient id="paint29_linear_716_1271" x1="113.655" y1="147.658" x2="122.296" y2="158.645" gradientUnits="userSpaceOnUse">
<stop stop-color="#72A15F"/>
<stop offset="1" stop-color="#495944"/>
</linearGradient>
<linearGradient id="paint30_linear_716_1271" x1="108.539" y1="143.853" x2="122.379" y2="151.91" gradientUnits="userSpaceOnUse">
<stop stop-color="#ECF3EF"/>
<stop offset="0.5" stop-color="#7EB666"/>
<stop offset="1" stop-color="#495944"/>
</linearGradient>
<linearGradient id="paint31_linear_716_1271" x1="187.517" y1="73.1924" x2="191.739" y2="77.2185" gradientUnits="userSpaceOnUse">
<stop stop-color="#72A15F"/>
<stop offset="1" stop-color="#495944"/>
</linearGradient>
<linearGradient id="paint32_linear_716_1271" x1="186.722" y1="73.6834" x2="195.364" y2="84.6706" gradientUnits="userSpaceOnUse">
<stop stop-color="#72A15F"/>
<stop offset="1" stop-color="#495944"/>
</linearGradient>
<linearGradient id="paint33_linear_716_1271" x1="181.606" y1="69.8778" x2="195.446" y2="77.9348" gradientUnits="userSpaceOnUse">
<stop stop-color="#ECF3EF"/>
<stop offset="0.5" stop-color="#7EB666"/>
<stop offset="1" stop-color="#495944"/>
</linearGradient>
<linearGradient id="paint34_linear_716_1271" x1="358.271" y1="193.583" x2="362.493" y2="197.609" gradientUnits="userSpaceOnUse">
<stop stop-color="#72A15F"/>
<stop offset="1" stop-color="#495944"/>
</linearGradient>
<linearGradient id="paint35_linear_716_1271" x1="357.476" y1="194.074" x2="366.118" y2="205.061" gradientUnits="userSpaceOnUse">
<stop stop-color="#72A15F"/>
<stop offset="1" stop-color="#495944"/>
</linearGradient>
<linearGradient id="paint36_linear_716_1271" x1="352.362" y1="190.268" x2="366.202" y2="198.325" gradientUnits="userSpaceOnUse">
<stop stop-color="#ECF3EF"/>
<stop offset="0.5" stop-color="#7EB666"/>
<stop offset="1" stop-color="#495944"/>
</linearGradient>
<linearGradient id="paint37_linear_716_1271" x1="-3.30604" y1="121.662" x2="346.68" y2="277.914" gradientUnits="userSpaceOnUse">
<stop stop-color="#ECF3EF"/>
<stop offset="0.5" stop-color="#72A15F"/>
<stop offset="1" stop-color="#495944"/>
</linearGradient>
<linearGradient id="paint38_linear_716_1271" x1="-12.3509" y1="141.92" x2="337.636" y2="298.172" gradientUnits="userSpaceOnUse">
<stop stop-color="#ECF3EF"/>
<stop offset="0.5" stop-color="#72A15F"/>
<stop offset="1" stop-color="#495944"/>
</linearGradient>
<linearGradient id="paint39_linear_716_1271" x1="-8.62088" y1="133.565" x2="341.365" y2="289.817" gradientUnits="userSpaceOnUse">
<stop stop-color="#ECF3EF"/>
<stop offset="0.5" stop-color="#72A15F"/>
<stop offset="1" stop-color="#495944"/>
</linearGradient>
<linearGradient id="paint40_linear_716_1271" x1="5.57938" y1="101.758" x2="355.565" y2="258.01" gradientUnits="userSpaceOnUse">
<stop stop-color="#ECF3EF"/>
<stop offset="0.5" stop-color="#72A15F"/>
<stop offset="1" stop-color="#495944"/>
</linearGradient>
<linearGradient id="paint41_linear_716_1271" x1="-2.91193" y1="120.779" x2="347.074" y2="277.031" gradientUnits="userSpaceOnUse">
<stop stop-color="#ECF3EF"/>
<stop offset="0.5" stop-color="#72A15F"/>
<stop offset="1" stop-color="#495944"/>
</linearGradient>
<linearGradient id="paint42_linear_716_1271" x1="114.041" y1="169.22" x2="532.397" y2="351.517" gradientUnits="userSpaceOnUse">
<stop stop-color="#ECF3EF"/>
<stop offset="0.5" stop-color="#72A15F"/>
<stop offset="1" stop-color="#495944"/>
</linearGradient>
<linearGradient id="paint43_linear_716_1271" x1="-25.3622" y1="454.094" x2="481.29" y2="-87.7947" gradientUnits="userSpaceOnUse">
<stop stop-color="#ECF3EF"/>
<stop offset="0.5" stop-color="#72A15F"/>
<stop offset="1" stop-color="#495944"/>
</linearGradient>
<linearGradient id="paint44_linear_716_1271" x1="-50.1652" y1="430.903" x2="456.487" y2="-110.987" gradientUnits="userSpaceOnUse">
<stop stop-color="#ECF3EF"/>
<stop offset="0.5" stop-color="#72A15F"/>
<stop offset="1" stop-color="#495944"/>
</linearGradient>
<linearGradient id="paint45_linear_716_1271" x1="-54.4382" y1="426.908" x2="452.214" y2="-114.982" gradientUnits="userSpaceOnUse">
<stop stop-color="#ECF3EF"/>
<stop offset="0.5" stop-color="#72A15F"/>
<stop offset="1" stop-color="#495944"/>
</linearGradient>
<linearGradient id="paint46_linear_716_1271" x1="-39.276" y1="441.084" x2="467.376" y2="-100.805" gradientUnits="userSpaceOnUse">
<stop stop-color="#ECF3EF"/>
<stop offset="0.5" stop-color="#72A15F"/>
<stop offset="1" stop-color="#495944"/>
</linearGradient>
<linearGradient id="paint47_linear_716_1271" x1="-26.7059" y1="452.837" x2="479.946" y2="-89.0509" gradientUnits="userSpaceOnUse">
<stop stop-color="#ECF3EF"/>
<stop offset="0.5" stop-color="#72A15F"/>
<stop offset="1" stop-color="#495944"/>
</linearGradient>
<linearGradient id="paint48_linear_716_1271" x1="-52.6448" y1="428.586" x2="454.007" y2="-113.304" gradientUnits="userSpaceOnUse">
<stop stop-color="#ECF3EF"/>
<stop offset="0.5" stop-color="#72A15F"/>
<stop offset="1" stop-color="#495944"/>
</linearGradient>
<linearGradient id="paint49_linear_716_1271" x1="-56.6334" y1="424.857" x2="450.018" y2="-117.032" gradientUnits="userSpaceOnUse">
<stop stop-color="#ECF3EF"/>
<stop offset="0.5" stop-color="#72A15F"/>
<stop offset="1" stop-color="#495944"/>
</linearGradient>
<linearGradient id="paint50_linear_716_1271" x1="-41.7563" y1="438.767" x2="464.896" y2="-103.122" gradientUnits="userSpaceOnUse">
<stop stop-color="#ECF3EF"/>
<stop offset="0.5" stop-color="#72A15F"/>
<stop offset="1" stop-color="#495944"/>
</linearGradient>
<linearGradient id="paint51_linear_716_1271" x1="-28.5142" y1="451.148" x2="478.138" y2="-90.7406" gradientUnits="userSpaceOnUse">
<stop stop-color="#ECF3EF"/>
<stop offset="0.5" stop-color="#72A15F"/>
<stop offset="1" stop-color="#495944"/>
</linearGradient>
<linearGradient id="paint52_linear_716_1271" x1="-29.3932" y1="450.325" x2="477.259" y2="-91.5629" gradientUnits="userSpaceOnUse">
<stop stop-color="#ECF3EF"/>
<stop offset="0.5" stop-color="#72A15F"/>
<stop offset="1" stop-color="#495944"/>
</linearGradient>
<linearGradient id="paint53_linear_716_1271" x1="-54.1955" y1="427.136" x2="452.456" y2="-114.754" gradientUnits="userSpaceOnUse">
<stop stop-color="#ECF3EF"/>
<stop offset="0.5" stop-color="#72A15F"/>
<stop offset="1" stop-color="#495944"/>
</linearGradient>
<linearGradient id="paint54_linear_716_1271" x1="78.9193" y1="41.6609" x2="246.63" y2="138.738" gradientUnits="userSpaceOnUse">
<stop stop-color="#ECF3EF"/>
<stop offset="0.5" stop-color="#72A15F"/>
<stop offset="1" stop-color="#495944"/>
</linearGradient>
<linearGradient id="paint55_linear_716_1271" x1="77.9971" y1="43.2534" x2="245.708" y2="140.331" gradientUnits="userSpaceOnUse">
<stop stop-color="#ECF3EF"/>
<stop offset="0.5" stop-color="#72A15F"/>
<stop offset="1" stop-color="#495944"/>
</linearGradient>
<linearGradient id="paint56_linear_716_1271" x1="-58.4691" y1="423.139" x2="448.182" y2="-118.75" gradientUnits="userSpaceOnUse">
<stop stop-color="#ECF3EF"/>
<stop offset="0.5" stop-color="#72A15F"/>
<stop offset="1" stop-color="#495944"/>
</linearGradient>
<linearGradient id="paint57_linear_716_1271" x1="-43.3068" y1="437.316" x2="463.345" y2="-104.573" gradientUnits="userSpaceOnUse">
<stop stop-color="#ECF3EF"/>
<stop offset="0.5" stop-color="#72A15F"/>
<stop offset="1" stop-color="#495944"/>
</linearGradient>
<linearGradient id="paint58_linear_716_1271" x1="179.386" y1="68.0391" x2="351.276" y2="149.138" gradientUnits="userSpaceOnUse">
<stop stop-color="#ECF3EF"/>
<stop offset="0.5" stop-color="#72A15F"/>
<stop offset="1" stop-color="#495944"/>
</linearGradient>
<linearGradient id="paint59_linear_716_1271" x1="-30.7368" y1="449.068" x2="475.915" y2="-92.8199" gradientUnits="userSpaceOnUse">
<stop stop-color="#ECF3EF"/>
<stop offset="0.5" stop-color="#72A15F"/>
<stop offset="1" stop-color="#495944"/>
</linearGradient>
<linearGradient id="paint60_linear_716_1271" x1="168.318" y1="91.4986" x2="340.207" y2="172.597" gradientUnits="userSpaceOnUse">
<stop stop-color="#ECF3EF"/>
<stop offset="0.5" stop-color="#72A15F"/>
<stop offset="1" stop-color="#495944"/>
</linearGradient>
<linearGradient id="paint61_linear_716_1271" x1="-42.7816" y1="12.9686" x2="343.948" y2="208.822" gradientUnits="userSpaceOnUse">
<stop stop-color="#ECF3EF"/>
<stop offset="0.5" stop-color="#72A15F"/>
<stop offset="1" stop-color="#495944"/>
</linearGradient>
<linearGradient id="paint62_linear_716_1271" x1="-42.3459" y1="12.1093" x2="344.383" y2="207.962" gradientUnits="userSpaceOnUse">
<stop stop-color="#ECF3EF"/>
<stop offset="0.5" stop-color="#72A15F"/>
<stop offset="1" stop-color="#495944"/>
</linearGradient>
<linearGradient id="paint63_linear_716_1271" x1="-56.818" y1="40.6844" x2="329.911" y2="236.538" gradientUnits="userSpaceOnUse">
<stop stop-color="#ECF3EF"/>
<stop offset="0.5" stop-color="#72A15F"/>
<stop offset="1" stop-color="#495944"/>
</linearGradient>
<linearGradient id="paint64_linear_716_1271" x1="-53.9623" y1="35.0469" x2="332.767" y2="230.9" gradientUnits="userSpaceOnUse">
<stop stop-color="#ECF3EF"/>
<stop offset="0.5" stop-color="#72A15F"/>
<stop offset="1" stop-color="#495944"/>
</linearGradient>
<linearGradient id="paint65_linear_716_1271" x1="-60.646" y1="48.2427" x2="326.083" y2="244.096" gradientUnits="userSpaceOnUse">
<stop stop-color="#ECF3EF"/>
<stop offset="0.5" stop-color="#72A15F"/>
<stop offset="1" stop-color="#495944"/>
</linearGradient>
<linearGradient id="paint66_linear_716_1271" x1="151.535" y1="107.345" x2="576.427" y2="381.809" gradientUnits="userSpaceOnUse">
<stop stop-color="#ECF3EF"/>
<stop offset="0.5" stop-color="#72A15F"/>
<stop offset="1" stop-color="#495944"/>
</linearGradient>
<linearGradient id="paint67_linear_716_1271" x1="-11.4261" y1="38.0634" x2="582.824" y2="189.893" gradientUnits="userSpaceOnUse">
<stop stop-color="#ECF3EF"/>
<stop offset="0.5" stop-color="#72A15F"/>
<stop offset="1" stop-color="#495944"/>
</linearGradient>
<linearGradient id="paint68_linear_716_1271" x1="95.0824" y1="57.9994" x2="597.272" y2="244.408" gradientUnits="userSpaceOnUse">
<stop stop-color="#ECF3EF"/>
<stop offset="0.5" stop-color="#72A15F"/>
<stop offset="1" stop-color="#495944"/>
</linearGradient>
<linearGradient id="paint69_linear_716_1271" x1="-91.4404" y1="15.6644" x2="165.262" y2="262.114" gradientUnits="userSpaceOnUse">
<stop stop-color="#ECF3EF"/>
<stop offset="0.5" stop-color="#72A15F"/>
<stop offset="1" stop-color="#495944"/>
</linearGradient>
<linearGradient id="paint70_linear_716_1271" x1="-118.55" y1="366.968" x2="388.102" y2="-174.921" gradientUnits="userSpaceOnUse">
<stop stop-color="#ECF3EF"/>
<stop offset="0.5" stop-color="#72A15F"/>
<stop offset="1" stop-color="#495944"/>
</linearGradient>
<linearGradient id="paint71_linear_716_1271" x1="-76.0696" y1="-0.347719" x2="180.634" y2="246.102" gradientUnits="userSpaceOnUse">
<stop stop-color="#ECF3EF"/>
<stop offset="0.5" stop-color="#72A15F"/>
<stop offset="1" stop-color="#495944"/>
</linearGradient>
<linearGradient id="paint72_linear_716_1271" x1="-72.3811" y1="-4.18847" x2="184.322" y2="242.261" gradientUnits="userSpaceOnUse">
<stop stop-color="#ECF3EF"/>
<stop offset="0.5" stop-color="#72A15F"/>
<stop offset="1" stop-color="#495944"/>
</linearGradient>
<linearGradient id="paint73_linear_716_1271" x1="-76.2636" y1="54.6305" x2="114.7" y2="263.129" gradientUnits="userSpaceOnUse">
<stop stop-color="#ECF3EF"/>
<stop offset="0.5" stop-color="#72A15F"/>
<stop offset="1" stop-color="#495944"/>
</linearGradient>
<linearGradient id="paint74_linear_716_1271" x1="-35.5779" y1="17.3672" x2="155.386" y2="225.866" gradientUnits="userSpaceOnUse">
<stop stop-color="#ECF3EF"/>
<stop offset="0.5" stop-color="#72A15F"/>
<stop offset="1" stop-color="#495944"/>
</linearGradient>
<linearGradient id="paint75_linear_716_1271" x1="-114.712" y1="370.556" x2="391.94" y2="-171.333" gradientUnits="userSpaceOnUse">
<stop stop-color="#ECF3EF"/>
<stop offset="0.5" stop-color="#72A15F"/>
<stop offset="1" stop-color="#495944"/>
</linearGradient>
<linearGradient id="paint76_linear_716_1271" x1="-108.858" y1="33.8057" x2="147.845" y2="280.256" gradientUnits="userSpaceOnUse">
<stop stop-color="#ECF3EF"/>
<stop offset="0.5" stop-color="#72A15F"/>
<stop offset="1" stop-color="#495944"/>
</linearGradient>
<linearGradient id="paint77_linear_716_1271" x1="-69.4786" y1="131.971" x2="628.931" y2="374.199" gradientUnits="userSpaceOnUse">
<stop stop-color="#ECF3EF"/>
<stop offset="0.5" stop-color="#72A15F"/>
<stop offset="1" stop-color="#495944"/>
</linearGradient>
<linearGradient id="paint78_linear_716_1271" x1="-258.78" y1="51.9599" x2="645.311" y2="362.282" gradientUnits="userSpaceOnUse">
<stop stop-color="#ECF3EF"/>
<stop offset="0.5" stop-color="#72A15F"/>
<stop offset="1" stop-color="#495944"/>
</linearGradient>
<linearGradient id="paint79_linear_716_1271" x1="374.22" y1="2.20063" x2="37.6564" y2="180.749" gradientUnits="userSpaceOnUse">
<stop stop-color="#ECF3EF"/>
<stop offset="0.5" stop-color="#72A15F"/>
<stop offset="1" stop-color="#495944"/>
</linearGradient>
<linearGradient id="paint80_linear_716_1271" x1="359.622" y1="-25.3149" x2="23.059" y2="153.233" gradientUnits="userSpaceOnUse">
<stop stop-color="#ECF3EF"/>
<stop offset="0.5" stop-color="#72A15F"/>
<stop offset="1" stop-color="#495944"/>
</linearGradient>
<linearGradient id="paint81_linear_716_1271" x1="370.806" y1="-4.23338" x2="34.243" y2="174.315" gradientUnits="userSpaceOnUse">
<stop stop-color="#ECF3EF"/>
<stop offset="0.5" stop-color="#72A15F"/>
<stop offset="1" stop-color="#495944"/>
</linearGradient>
<linearGradient id="paint82_linear_716_1271" x1="378.005" y1="9.33595" x2="41.4416" y2="187.884" gradientUnits="userSpaceOnUse">
<stop stop-color="#ECF3EF"/>
<stop offset="0.5" stop-color="#72A15F"/>
<stop offset="1" stop-color="#495944"/>
</linearGradient>
<linearGradient id="paint83_linear_716_1271" x1="358.748" y1="-26.9623" x2="22.1853" y2="151.586" gradientUnits="userSpaceOnUse">
<stop stop-color="#ECF3EF"/>
<stop offset="0.5" stop-color="#72A15F"/>
<stop offset="1" stop-color="#495944"/>
</linearGradient>
<linearGradient id="paint84_linear_716_1271" x1="1.46574" y1="46.2598" x2="670.688" y2="403.354" gradientUnits="userSpaceOnUse">
<stop stop-color="#ECF3EF"/>
<stop offset="0.5" stop-color="#72A15F"/>
<stop offset="1" stop-color="#495944"/>
</linearGradient>
</defs>
</svg>
