<svg width="70" height="82" viewBox="0 0 70 82" fill="none" xmlns="http://www.w3.org/2000/svg">
<path d="M41.1002 13.9668C42.6768 12.271 43.641 9.9981 43.641 7.5C43.641 7.03837 43.6081 6.58443 43.5445 6.1404L66.282 19.268C68.1384 20.3397 69.282 22.3205 69.282 24.4641V57.5359C69.282 59.6795 68.1384 61.6603 66.282 62.7321L43.5445 75.8596C43.6081 75.4156 43.641 74.9616 43.641 74.5C43.641 72.0019 42.6768 69.729 41.1002 68.0332L61.282 56.3812V25.6188L41.1002 13.9668Z" fill="#91D873"/>
<path d="M27.5435 14.3354L8 25.6188V56.3812L27.5435 67.6646C25.7539 69.3923 24.641 71.8162 24.641 74.5C24.641 74.7501 24.6507 74.9978 24.6696 75.243L3 62.7321C1.14359 61.6603 0 59.6795 0 57.5359V24.4641C0 22.3205 1.14359 20.3397 3 19.268L24.6696 6.75697C24.6507 7.00216 24.641 7.24995 24.641 7.5C24.641 10.1838 25.7539 12.6077 27.5435 14.3354Z" fill="#91D873"/>
<path d="M41.641 74.5C41.641 78.6421 38.2832 82 34.141 82C29.9989 82 26.641 78.6421 26.641 74.5C26.641 70.3579 29.9989 67 34.141 67C38.2832 67 41.641 70.3579 41.641 74.5Z" fill="#91D873"/>
<path d="M41.641 7.5C41.641 11.6421 38.2832 15 34.141 15C29.9989 15 26.641 11.6421 26.641 7.5C26.641 3.35786 29.9989 0 34.141 0C38.2832 0 41.641 3.35786 41.641 7.5Z" fill="#91D873"/>
<path d="M36.9376 48.0927V45.8125H31.0626V48.0927L28.7334 45.8203H26.0484L31.0626 50.7122V55.125H25.0001V57H43.0001V55.125H36.9376V50.7122L41.9598 45.8125H39.2748L36.9376 48.0927Z" fill="#91D873"/>
<path d="M42.6667 36.3125H47.5875C48.0994 35.4902 48.3553 34.5593 48.3553 33.5822C48.3553 30.8131 46.1025 28.5602 43.3334 28.5602H42.6423C41.5703 27.4952 40.3284 26.6477 38.9456 26.0379C37.3839 25.3492 35.7199 25 34.0001 25C31.1859 25 28.4364 25.9769 26.2581 27.7506C24.3913 29.2707 23.0088 31.3172 22.2921 33.5938H28.0001V35.4688H22.2383C19.9013 35.4688 18 37.37 18 39.7071C18 42.0441 19.9013 43.9454 22.2383 43.9454L44.9629 43.9375C46.9502 43.9375 48.567 42.3207 48.567 40.3333C48.567 39.5299 48.3051 38.7874 47.8634 38.1875H42.6668L42.6667 36.3125Z" fill="#91D873"/>
</svg>
