<svg width="73" height="81" viewBox="0 0 73 81" fill="none" xmlns="http://www.w3.org/2000/svg">
<path d="M38 8.3094L16.9368 20.4702C16.6082 17.6241 15.0217 15.1611 12.7475 13.6513L35 0.803847C36.8564 -0.267949 39.1436 -0.267949 41 0.803848L69.641 17.3397C71.4974 18.4115 72.641 20.3923 72.641 22.5359V55.6077C72.641 57.7513 71.4974 59.7321 69.641 60.8038L46.9034 73.9314C46.9671 73.4874 47 73.0334 47 72.5718C47 70.0737 46.0358 67.8008 44.4592 66.105L64.641 54.453V23.6906L38 8.3094Z" fill="#91D873"/>
<path d="M30.9024 65.7364L11.359 54.453V30.2553C10.1798 30.7801 8.87397 31.0718 7.5 31.0718C6.01552 31.0718 4.61057 30.7313 3.35898 30.1242V55.6077C3.35898 57.7513 4.50257 59.732 6.35898 60.8038L28.0286 73.3148C28.0097 73.0696 28 72.8218 28 72.5718C28 69.888 29.1129 67.4641 30.9024 65.7364Z" fill="#91D873"/>
<path d="M15 21.5718C15 25.7139 11.6421 29.0718 7.5 29.0718C3.35786 29.0718 0 25.7139 0 21.5718C0 17.4297 3.35786 14.0718 7.5 14.0718C11.6421 14.0718 15 17.4297 15 21.5718Z" fill="#91D873"/>
<path d="M45 72.5718C45 76.7139 41.6421 80.0718 37.5 80.0718C33.3579 80.0718 30 76.7139 30 72.5718C30 68.4297 33.3579 65.0718 37.5 65.0718C41.6421 65.0718 45 68.4297 45 72.5718Z" fill="#91D873"/>
<path d="M40.1324 48.5379C40.4088 48.8143 40.8275 48.8902 41.1833 48.7285L45.4532 46.7876L41.8828 43.2172L39.9419 47.4871C39.7802 47.8428 39.8561 48.2616 40.1324 48.5379Z" fill="#91D873"/>
<path d="M55.6004 35.7216L52.9488 33.07C52.5827 32.7039 51.9891 32.7039 51.623 33.07L43.0051 41.6878L46.9826 45.6653L55.6004 37.0474C55.9665 36.6813 55.9665 36.0877 55.6004 35.7216Z" fill="#91D873"/>
<path d="M32.1875 27.375H42.1875C42.7052 27.375 43.125 26.9552 43.125 26.4375V23.9375C43.125 23.4198 42.7052 23 42.1875 23H40.625V21.9375C40.625 21.4198 40.2052 21 39.6875 21H34.6875C34.1698 21 33.75 21.4198 33.75 21.9375V23H32.1875C31.6698 23 31.25 23.4198 31.25 23.9375V26.4375C31.25 26.9552 31.6698 27.375 32.1875 27.375Z" fill="#91D873"/>
<path d="M46.8207 48.2256L41.9591 50.4354C41.5911 50.6028 41.1996 50.6876 40.7956 50.6876C40.0442 50.6876 39.3378 50.395 38.8066 49.8638C37.9823 49.0394 37.7525 47.7725 38.2349 46.7112L40.4446 41.8498C40.585 41.5413 40.7772 41.2639 41.0163 41.0249L49.375 32.6662V26.125C49.375 25.6073 48.9552 25.1875 48.4375 25.1875H45V26.4375C45 27.9883 43.7383 29.25 42.1875 29.25H32.1875C30.6367 29.25 29.375 27.9883 29.375 26.4375V25.1875H25.9375C25.4198 25.1875 25 25.6073 25 26.125V52.0625C25 52.5802 25.4198 53 25.9375 53H48.4375C48.9552 53 49.375 52.5802 49.375 52.0625V45.9245L47.6455 47.654C47.4062 47.8932 47.1287 48.0856 46.8207 48.2256ZM31.2121 33.4621C31.5782 33.096 32.1718 33.096 32.5379 33.4621L33.4375 34.3617L35.8996 31.8996C36.2657 31.5335 36.8593 31.5335 37.2254 31.8996C37.5916 32.2658 37.5916 32.8593 37.2254 33.2254L34.1004 36.3504C33.9174 36.5335 33.6774 36.625 33.4375 36.625C33.1976 36.625 32.9576 36.5335 32.7746 36.3504L31.2121 34.7879C30.846 34.4218 30.846 33.8282 31.2121 33.4621ZM31.2121 39.5559C31.5782 39.1898 32.1718 39.1898 32.5379 39.5559L33.4375 40.4554L35.8996 37.9934C36.2657 37.6273 36.8593 37.6273 37.2254 37.9934C37.5916 38.3595 37.5916 38.9531 37.2254 39.3192L34.1004 42.4442C33.9174 42.6273 33.6774 42.7188 33.4376 42.7188C33.1977 42.7188 32.9577 42.6273 32.7747 42.4442L31.2122 40.8817C30.846 40.5156 30.846 39.9219 31.2121 39.5559ZM28.75 48.5C28.2323 48.5 27.8125 48.0802 27.8125 47.5625C27.8125 47.0448 28.2323 46.625 28.75 46.625C29.2677 46.625 29.6875 47.0448 29.6875 47.5625C29.6875 48.0802 29.2677 48.5 28.75 48.5ZM28.75 42.4062C28.2323 42.4062 27.8125 41.9865 27.8125 41.4688C27.8125 40.951 28.2323 40.5312 28.75 40.5312C29.2677 40.5312 29.6875 40.951 29.6875 41.4688C29.6875 41.9865 29.2677 42.4062 28.75 42.4062ZM28.75 36.3125C28.2323 36.3125 27.8125 35.8927 27.8125 35.375C27.8125 34.8573 28.2323 34.4375 28.75 34.4375C29.2677 34.4375 29.6875 34.8573 29.6875 35.375C29.6875 35.8927 29.2677 36.3125 28.75 36.3125ZM33.4375 48.8125C33.1976 48.8125 32.9576 48.721 32.7746 48.5379L31.2121 46.9754C30.846 46.6093 30.846 46.0157 31.2121 45.6496C31.5782 45.2834 32.1718 45.2834 32.5379 45.6496L33.4375 46.5492L35.8996 44.0871C36.2657 43.721 36.8593 43.721 37.2254 44.0871C37.5916 44.4533 37.5916 45.0468 37.2254 45.4129L34.1004 48.5379C33.9174 48.721 33.6774 48.8125 33.4375 48.8125Z" fill="#91D873"/>
</svg>
