<svg width="75" height="79" viewBox="0 0 75 79" fill="none" xmlns="http://www.w3.org/2000/svg">
<path d="M10.359 30.6341C9.45668 30.9184 8.49625 31.0718 7.5 31.0718C5.60569 31.0718 3.84088 30.5174 2.35898 29.5619V55.6077C2.35898 57.7513 3.50257 59.732 5.35898 60.8038L34 77.3398C35.8564 78.4115 38.1436 78.4115 40 77.3398L64.0796 63.4374C61.407 62.4056 59.3181 60.2002 58.4448 57.453L37 69.8342L10.359 54.453V30.6341Z" fill="#91D873"/>
<path d="M12.266 13.352L34 0.803847C35.8564 -0.267949 38.1436 -0.267949 40 0.803848L68.641 17.3397C70.4974 18.4115 71.641 20.3923 71.641 22.5359V46.0194C70.3894 45.4123 68.9845 45.0718 67.5 45.0718C66.126 45.0718 64.8202 45.3635 63.641 45.8883V23.6906L37 8.3094L16.8599 19.9373C16.3721 17.1244 14.6472 14.7356 12.266 13.352Z" fill="#91D873"/>
<path d="M75 54.5718C75 58.7139 71.6421 62.0718 67.5 62.0718C63.3579 62.0718 60 58.7139 60 54.5718C60 50.4297 63.3579 47.0718 67.5 47.0718C71.6421 47.0718 75 50.4297 75 54.5718Z" fill="#91D873"/>
<path d="M15 21.5718C15 25.7139 11.6421 29.0718 7.5 29.0718C3.35786 29.0718 0 25.7139 0 21.5718C0 17.4297 3.35786 14.0718 7.5 14.0718C11.6421 14.0718 15 17.4297 15 21.5718Z" fill="#91D873"/>
<path d="M36.5124 50.1363C35.7108 49.3366 34.4112 49.3366 33.6096 50.1363C34.4112 49.3366 34.4112 48.04 33.6096 47.2403C32.8079 46.4406 31.5083 46.4406 30.7067 47.2403C31.5083 46.4406 31.5083 45.1441 30.7067 44.3444C29.9051 43.5447 28.6054 43.5447 27.8038 44.3444C28.6054 43.5447 28.6054 42.2481 27.8038 41.4484C27.0022 40.6487 25.7025 40.6487 24.9009 41.4484L23.5295 42.8165C22.7279 43.6162 22.7279 44.9128 23.5295 45.7124C24.3312 46.5121 25.6308 46.5121 26.4324 45.7124C25.6308 46.5121 25.6308 47.8086 26.4324 48.6083C27.234 49.408 28.5337 49.408 29.3353 48.6083C28.5337 49.408 28.5337 50.7046 29.3353 51.5043C30.1369 52.304 31.4366 52.304 32.2382 51.5043C31.4366 52.304 31.4366 53.6005 32.2382 54.4001C33.0398 55.1998 34.3394 55.1998 35.1411 54.4001L36.5124 53.0321C37.3141 52.2325 37.3141 50.9359 36.5124 50.1363Z" fill="#91D873"/>
<path d="M33.5563 35.7074C34.3536 36.5044 35.6461 36.5044 36.4433 35.7074L41.2628 30.8892L49.9873 39.5867L50.5952 38.9831C53.8016 35.7844 53.8016 30.5982 50.5952 27.3995C47.3888 24.2007 42.1902 24.2007 38.9838 27.3995L33.5564 32.8212C32.7591 33.6182 32.7591 34.9104 33.5563 35.7074Z" fill="#91D873"/>
<path d="M41.3001 33.6679L37.8517 37.1153C36.2791 38.6873 33.7204 38.6872 32.148 37.1154C31.3862 36.3539 30.9667 35.3413 30.9667 34.2642C30.9667 33.1872 31.3862 32.1747 32.148 31.4132L35.5916 27.9732L35.0162 27.3991C31.8098 24.2003 26.6112 24.2003 23.4048 27.3991C20.1984 30.5978 20.1984 35.784 23.4048 38.9827L24.02 39.5965C25.597 38.4841 27.7999 38.6317 29.2107 40.0391C29.7302 40.5573 30.0912 41.1917 30.2693 41.8837C30.9457 42.0573 31.5851 42.4077 32.1136 42.9351C32.6331 43.4532 32.9941 44.0877 33.1721 44.7796C33.8485 44.9532 34.4879 45.3037 35.0164 45.831C35.5359 46.3492 35.8969 46.9836 36.075 47.6756C36.7512 47.8493 37.3908 48.1996 37.9193 48.7269C38.6841 49.4899 39.1053 50.5046 39.1054 51.5843C39.1054 52.4293 38.8473 53.2347 38.3684 53.9106L38.8589 54.4C39.6605 55.1997 40.9601 55.1997 41.7618 54.4C42.5634 53.6003 42.5634 52.3038 41.7618 51.5041C42.5634 52.3038 43.863 52.3038 44.6646 51.5041C45.4663 50.7044 45.4663 49.4078 44.6646 48.6081C45.4663 49.4078 46.7659 49.4078 47.5675 48.6081C48.3692 47.8084 48.3692 46.5119 47.5675 45.7122C48.3692 46.5119 49.6688 46.5119 50.4704 45.7122C51.272 44.9126 51.272 43.616 50.4704 42.8163L41.3001 33.6679Z" fill="#91D873"/>
</svg>
