<svg width="76" height="79" viewBox="0 0 76 79" fill="none" xmlns="http://www.w3.org/2000/svg">
<path d="M38 8.3094L11.359 23.6906V45.8883C10.1798 45.3635 8.87397 45.0718 7.5 45.0718C6.01552 45.0718 4.61057 45.4123 3.35898 46.0194V22.5359C3.35898 20.3923 4.50258 18.4115 6.35898 17.3397L35 0.803847C36.8564 -0.267949 39.1436 -0.267949 41 0.803848L63.2525 13.6513C60.9783 15.1611 59.3918 17.6241 59.0632 20.4702L38 8.3094Z" fill="#91D873"/>
<path d="M64.641 30.2553V54.453L38 69.8342L16.5552 57.453C15.6819 60.2002 13.593 62.4056 10.9204 63.4374L35 77.3398C36.8564 78.4115 39.1436 78.4115 41 77.3398L69.641 60.8038C71.4974 59.7321 72.641 57.7513 72.641 55.6077V30.1242C71.3894 30.7313 69.9845 31.0718 68.5 31.0718C67.126 31.0718 65.8202 30.7801 64.641 30.2553Z" fill="#91D873"/>
<path d="M15 54.5718C15 58.7139 11.6421 62.0718 7.5 62.0718C3.35786 62.0718 0 58.7139 0 54.5718C0 50.4297 3.35786 47.0718 7.5 47.0718C11.6421 47.0718 15 50.4297 15 54.5718Z" fill="#91D873"/>
<path d="M76 21.5718C76 25.7139 72.6421 29.0718 68.5 29.0718C64.3579 29.0718 61 25.7139 61 21.5718C61 17.4297 64.3579 14.0718 68.5 14.0718C72.6421 14.0718 76 17.4297 76 21.5718Z" fill="#91D873"/>
<path d="M26.6667 35.4776H28.2669L30.6667 37.9792L33.0664 35.4776H35.6002L38 37.9792L40.3998 35.4776H42.9335L45.3333 37.9792L47.7331 35.4776H49.3333C51.2287 35.4776 52.7708 33.9355 52.7708 32.0401V26.4375C52.7708 24.5421 51.2287 23 49.3333 23H26.6667C24.7713 23 23.2292 24.5421 23.2292 26.4375V32.0401C23.2292 33.9355 24.7713 35.4776 26.6667 35.4776ZM29.6057 30.1296V28.2546H46.3943V30.1296H29.6057Z" fill="#91D873"/>
<path d="M30.9385 52.6425C30.9385 51.6503 31.142 50.6895 31.5288 49.8074C31.2357 49.3593 30.8758 48.9592 30.4622 48.6218C29.5305 49.2651 28.4019 49.6424 27.1866 49.6424C25.9714 49.6424 24.8427 49.2651 23.9111 48.6218C22.7449 49.5728 22 51.0205 22 52.6425V55H30.9385V52.6425Z" fill="#91D873"/>
<path d="M31.0814 44.1021C31.2151 41.9498 29.5788 40.0967 27.4265 39.963C25.2742 39.8293 23.4211 41.4656 23.2874 43.6179C23.1537 45.7701 24.7901 47.6233 26.9423 47.757C29.0946 47.8907 30.9477 46.2543 31.0814 44.1021Z" fill="#91D873"/>
<path d="M52.0891 48.6218C51.1574 49.2651 50.0287 49.6424 48.8135 49.6424C47.5982 49.6424 46.4696 49.2651 45.5379 48.6218C45.1243 48.9591 44.7644 49.3593 44.4713 49.8073C44.8581 50.6895 45.0616 51.6503 45.0616 52.6425V55H54V52.6425C54 51.0205 53.2551 49.5728 52.0891 48.6218Z" fill="#91D873"/>
<path d="M50.28 47.4705C52.2813 46.6661 53.2515 44.3916 52.4471 42.3903C51.6427 40.389 49.3683 39.4187 47.367 40.2231C45.3657 41.0275 44.3954 43.302 45.1998 45.3033C46.0042 47.3046 48.2787 48.2749 50.28 47.4705Z" fill="#91D873"/>
<path d="M43.1866 55V52.6425C43.1866 51.0205 42.4416 49.5729 41.2756 48.6218C40.3439 49.2651 39.2152 49.6424 38 49.6424C36.7848 49.6424 35.6561 49.2651 34.7244 48.6218C33.5584 49.5729 32.8135 51.0205 32.8135 52.6425V55H43.1866Z" fill="#91D873"/>
<path d="M38.1973 47.7754C40.3517 47.6654 42.0091 45.8297 41.8991 43.6753C41.7891 41.5209 39.9534 39.8636 37.799 39.9735C35.6446 40.0835 33.9873 41.9192 34.0973 44.0736C34.2073 46.228 36.0429 47.8854 38.1973 47.7754Z" fill="#91D873"/>
</svg>
