<svg width="199" height="49" viewBox="0 0 199 49" fill="none" xmlns="http://www.w3.org/2000/svg">
<path d="M47.6479 16.2294V34.7321H55.6182C57.6379 34.7071 58.2138 34.7071 59.2904 34.3148C61.4937 33.5303 62.2782 31.8278 62.5369 30.9598C62.7956 30.1753 62.7956 29.5994 62.7956 29.2573C62.7956 26.0358 60.5673 25.0677 59.4156 24.7004C59.9163 24.4417 60.3587 24.1747 60.7509 23.7574C61.8275 22.6808 61.9277 21.3955 61.9277 20.8447C61.9277 20.369 61.8192 19.1421 60.9596 18.0405C59.4657 16.1293 57.0787 16.2294 54.9339 16.2294H47.6479ZM51.6039 19.3758H54.6668C55.6349 19.3758 56.8951 19.2673 57.5795 20.1603C57.9717 20.6861 57.9968 21.3371 57.9968 21.5791C57.9968 22.2384 57.7381 22.6808 57.5795 22.8894C56.9536 23.6739 56.0105 23.6739 55.0924 23.724H51.6039V19.3758ZM51.6039 26.4781H54.8504C55.927 26.5031 57.5461 26.3446 58.2805 27.4462C58.7229 28.0722 58.7229 28.7565 58.7229 28.9902C58.7229 30.5092 57.8299 31.085 57.254 31.2937C56.5196 31.5273 55.2093 31.5023 55.1592 31.5023H51.5955V26.4698L51.6039 26.4781ZM68.7546 16.2294H65.0824V19.3508H68.7546V16.2294ZM68.7546 21.312H65.0824V34.7321H68.7546V21.312ZM77.8599 20.9198C73.7704 20.9699 72.0929 23.5904 71.517 25.0593C71.2834 25.5851 70.9913 26.5532 70.9913 27.9971C70.9913 30.9097 72.3015 33.5303 75.1057 34.6236C76.2825 35.0993 77.4676 35.1244 77.91 35.1244C80.6057 35.1244 82.1329 33.9476 82.9175 33.1297C84.7285 31.2186 84.7786 28.8567 84.7786 27.9971C84.7786 25.9273 84.1526 23.9326 82.5252 22.5222C80.7392 20.9782 78.7028 20.9198 77.8599 20.9198ZM77.8599 23.724C78.177 23.724 78.9365 23.7741 79.6459 24.2998C80.7976 25.1678 81.0647 26.6033 81.0647 27.9386C81.0647 29.274 80.7726 31.0016 79.5708 31.8445C78.8864 32.2868 78.1854 32.3452 77.9183 32.3452C77.6012 32.3452 76.9251 32.3202 76.2408 31.8695C75.3728 31.2686 74.6968 30.167 74.6968 27.9887C74.6968 24.8173 76.3493 23.7156 77.8682 23.7156L77.8599 23.724ZM99.6258 28.9652C99.6258 28.0221 99.7844 24.2498 96.8467 22.0965C95.3277 20.9949 93.7003 20.9198 93.0493 20.9198C88.9598 20.9198 86.3142 24.1413 86.3142 28.0722C86.2892 30.8263 87.5995 33.4969 90.2451 34.5986C91.4803 35.0993 92.6571 35.1244 93.1578 35.1244C93.5 35.1244 94.6267 35.0994 95.6699 34.7071C97.1137 34.1813 98.3406 33.0296 98.9999 31.6692C99.2336 31.1935 99.3421 30.7512 99.3921 30.5676H95.8785C95.6949 30.9849 95.5614 31.1935 95.4612 31.3521C94.7268 32.4037 93.7337 32.4788 93.2579 32.4788C91.0046 32.4788 90.3786 30.8764 90.195 30.0919C90.0615 29.6161 90.0615 29.1738 90.0365 28.9652H99.6258ZM90.0615 26.5282C90.1366 25.8188 90.2451 25.4766 90.4037 25.1678C90.9044 24.1496 91.8976 23.5153 93.0243 23.5153C94.151 23.5153 95.069 24.1162 95.5364 25.1428C95.7951 25.7186 95.8535 26.3195 95.8785 26.5282H90.0615ZM114.515 26.0024C114.465 25.4766 114.406 25.268 114.331 25.0092C113.889 23.3317 112.236 20.9448 108.063 20.9198C103.924 20.9198 102.221 23.5153 101.62 25.0092C101.095 26.3195 101.045 27.7049 101.045 28.1556C101.045 31.3521 102.647 33.0296 103.64 33.7891C104.95 34.7822 106.419 35.1244 108.047 35.1244C108.965 35.1244 111.427 35.0493 113.213 32.9211C114.047 31.9279 114.415 30.8513 114.598 29.5911H111.035C110.801 31.2185 109.774 32.2868 108.072 32.2868C104.767 32.2868 104.767 28.648 104.767 28.0972C104.767 24.7422 106.494 23.6906 108.122 23.6906C109.249 23.6906 110.3 24.2414 110.717 25.3431C110.851 25.6352 110.876 25.8438 110.901 26.0024H114.515ZM122.694 20.9198C118.604 20.9699 116.927 23.5904 116.351 25.0593C116.117 25.5851 115.825 26.5532 115.825 27.9971C115.825 30.9097 117.135 33.5303 119.94 34.6236C121.116 35.0993 122.301 35.1244 122.744 35.1244C125.439 35.1244 126.967 33.9476 127.751 33.1297C129.562 31.2186 129.612 28.8567 129.612 27.9971C129.612 25.9273 128.986 23.9326 127.359 22.5222C125.573 20.9782 123.537 20.9198 122.694 20.9198ZM122.694 23.724C123.011 23.724 123.77 23.7741 124.48 24.2998C125.631 25.1678 125.899 26.6033 125.899 27.9386C125.899 29.274 125.606 31.0016 124.405 31.8445C123.72 32.2868 123.019 32.3452 122.752 32.3452C122.435 32.3452 121.759 32.3202 121.075 31.8695C120.207 31.2686 119.531 30.167 119.531 27.9887C119.531 24.8173 121.183 23.7156 122.702 23.7156L122.694 23.724ZM135.338 21.312H131.824V34.7321H135.438V27.7884C135.463 26.8453 135.438 25.9774 135.964 25.1678C136.281 24.6921 136.957 23.966 138.376 23.966C139.11 23.966 139.552 24.2247 139.819 24.4083C140.629 25.0343 140.604 26.1109 140.604 27.0039V34.7321H144.243V26.2695C144.218 25.3765 144.218 24.5168 143.926 23.6489C143.058 21.1034 140.52 20.9198 139.736 20.9198C138.058 20.9198 137.007 21.5457 136.456 21.938C135.93 22.3302 135.671 22.6223 135.329 23.1732V21.312H135.338ZM153.331 20.9198C149.242 20.9699 147.564 23.5904 146.988 25.0593C146.755 25.5851 146.463 26.5532 146.463 27.9971C146.463 30.9097 147.773 33.5303 150.577 34.6236C151.754 35.0993 152.939 35.1244 153.381 35.1244C156.077 35.1244 157.604 33.9476 158.389 33.1297C160.2 31.2186 160.25 28.8567 160.25 27.9971C160.25 25.9273 159.624 23.9326 157.997 22.5222C156.211 20.9782 154.174 20.9198 153.331 20.9198ZM153.331 23.724C153.648 23.724 154.408 23.7741 155.117 24.2998C156.269 25.1678 156.536 26.6033 156.536 27.9386C156.536 29.274 156.244 31.0016 155.042 31.8445C154.358 32.2868 153.657 32.3452 153.39 32.3452C153.073 32.3452 152.397 32.3202 151.712 31.8695C150.844 31.2686 150.168 30.167 150.168 27.9887C150.168 24.8173 151.821 23.7156 153.34 23.7156L153.331 23.724ZM165.975 21.312H162.462V34.7321H166.075V27.4462C166.1 26.5783 166.1 25.7937 166.601 25.0343C166.86 24.642 167.569 23.9326 168.83 23.9326C169.455 23.9326 169.906 24.1162 170.115 24.2498C170.949 24.8006 170.924 25.6352 170.949 26.5282V34.7321H174.563V27.4462C174.563 26.5783 174.513 25.7687 175.064 24.9842C175.356 24.5669 175.982 23.966 177.209 23.966C177.442 23.966 177.968 23.966 178.494 24.2832C179.253 24.7255 179.362 25.4599 179.412 26.2778V34.7405H183.051V25.7019C183.026 24.7088 182.942 24.2331 182.792 23.7323C182.166 21.8211 180.355 20.9281 178.469 20.9281C176.583 20.9281 175.431 21.7126 174.88 22.2134C174.513 22.5556 174.354 22.7642 174.071 23.1565C173.962 22.9729 173.862 22.7392 173.57 22.372C172.76 21.3204 171.55 20.9281 170.265 20.9281C168.12 20.9281 166.935 21.9463 166.384 22.6056C166.226 22.7892 166.092 22.9729 165.967 23.1565V21.3204L165.975 21.312ZM198.315 21.312H194.493L191.505 30.8513L188.442 21.312H184.461L189.177 33.7056C189.285 34.0728 189.385 34.39 189.385 34.7822C189.385 35.4666 189.152 35.7754 188.91 35.984C188.567 36.3262 188.175 36.4597 187.257 36.4597H185.788V39.4976L188.225 39.5227C188.96 39.5227 190.587 39.5978 191.839 37.9787C192.39 37.2442 192.732 36.4347 193.358 34.6737L198.307 21.3037L198.315 21.312Z" fill="white"/>
<path fill-rule="evenodd" clip-rule="evenodd" d="M21.7802 0.666016L42.6479 12.7115V36.8138L21.7802 48.8651L0.906982 36.8139V12.7114L21.7802 0.666016ZM4.12318 14.5687V34.957L21.78 45.1512L39.4317 34.9572V14.5686L21.78 4.37945L4.12318 14.5687Z" fill="white"/>
<path d="M14.0723 15.2422V35.7723H22.9115C25.1521 35.7455 25.79 35.7455 26.9799 35.3059C29.4243 34.4322 30.2926 32.5454 30.5875 31.5859C30.8769 30.7121 30.8769 30.0742 30.8769 29.6937C30.8769 26.1183 28.4058 25.0409 27.1247 24.6335C27.6768 24.344 28.1699 24.0546 28.6095 23.5882C29.7995 22.3982 29.9174 20.9724 29.9174 20.3613C29.9174 19.836 29.7995 18.4691 28.84 17.2523C27.1836 15.1296 24.5356 15.2475 22.1503 15.2475H14.0669L14.0723 15.2422ZM18.4624 18.7318H21.8662C22.9436 18.7318 24.3373 18.6138 25.0931 19.6055C25.5273 20.1844 25.5595 20.9134 25.5595 21.1761C25.5595 21.9051 25.27 22.3982 25.0931 22.6287C24.3963 23.5025 23.351 23.5025 22.3325 23.5614H18.4677V18.7371L18.4624 18.7318ZM18.4624 26.6115H22.0699C23.2599 26.6383 25.0663 26.4667 25.8811 27.6889C26.3742 28.3857 26.3742 29.1415 26.3742 29.4042C26.3742 31.0927 25.3879 31.7306 24.7447 31.9611C23.9299 32.2237 22.4773 32.1916 22.4183 32.1916H18.4624V26.6115Z" fill="white"/>
</svg>
