<svg width="86" height="124" viewBox="0 0 86 124" fill="none" xmlns="http://www.w3.org/2000/svg">
<path d="M0.0947266 110.614V121.149H4.6327C5.78264 121.134 6.11051 121.134 6.7235 120.911C7.97798 120.464 8.42464 119.495 8.57195 119.001C8.71926 118.554 8.71926 118.226 8.71926 118.031C8.71926 116.197 7.45053 115.646 6.79478 115.437C7.07988 115.29 7.33173 115.138 7.55506 114.9C8.16805 114.287 8.22507 113.555 8.22507 113.242C8.22507 112.971 8.1633 112.272 7.67386 111.645C6.82329 110.557 5.46427 110.614 4.24305 110.614H0.0947266ZM2.34708 112.405H4.091C4.64221 112.405 5.35973 112.343 5.74938 112.852C5.97271 113.151 5.98697 113.522 5.98697 113.66C5.98697 114.035 5.83966 114.287 5.74938 114.406C5.39299 114.852 4.85604 114.852 4.33334 114.881H2.34708V112.405ZM2.34708 116.449H4.19554C4.80852 116.463 5.73037 116.373 6.14853 117C6.40038 117.357 6.40037 117.746 6.40037 117.879C6.40037 118.744 5.89193 119.072 5.56406 119.191C5.1459 119.324 4.39987 119.31 4.37135 119.31H2.34233V116.444L2.34708 116.449ZM12.112 110.614H10.0213V112.391H12.112V110.614ZM12.112 113.508H10.0213V121.149H12.112V113.508ZM17.2963 113.284C14.9679 113.313 14.0128 114.805 13.6849 115.641C13.5518 115.941 13.3855 116.492 13.3855 117.314C13.3855 118.972 14.1316 120.464 15.7282 121.087C16.3982 121.358 17.0729 121.372 17.3248 121.372C18.8596 121.372 19.7292 120.702 20.1759 120.236C21.207 119.148 21.2355 117.803 21.2355 117.314C21.2355 116.135 20.8791 115 19.9525 114.197C18.9356 113.318 17.7762 113.284 17.2963 113.284ZM17.2963 114.881C17.4768 114.881 17.9093 114.909 18.3132 115.209C18.9689 115.703 19.121 116.52 19.121 117.281C19.121 118.041 18.9547 119.024 18.2704 119.504C17.8807 119.756 17.4816 119.79 17.3295 119.79C17.149 119.79 16.7641 119.775 16.3744 119.519C15.8802 119.177 15.4953 118.549 15.4953 117.309C15.4953 115.503 16.4362 114.876 17.301 114.876L17.2963 114.881ZM29.689 117.865C29.689 117.328 29.7793 115.18 28.1066 113.954C27.2418 113.327 26.3152 113.284 25.9446 113.284C23.6162 113.284 22.1099 115.119 22.1099 117.357C22.0956 118.925 22.8416 120.445 24.348 121.073C25.0512 121.358 25.7212 121.372 26.0063 121.372C26.2012 121.372 26.8427 121.358 27.4366 121.134C28.2587 120.835 28.9572 120.179 29.3326 119.405C29.4657 119.134 29.5274 118.882 29.5559 118.777H27.5554C27.4509 119.015 27.3749 119.134 27.3178 119.224C26.8997 119.823 26.3342 119.866 26.0634 119.866C24.7804 119.866 24.424 118.953 24.3194 118.507C24.2434 118.236 24.2434 117.984 24.2292 117.865H29.689ZM24.2434 116.478C24.2862 116.074 24.348 115.879 24.4382 115.703C24.7233 115.123 25.2888 114.762 25.9303 114.762C26.5718 114.762 27.0945 115.104 27.3606 115.689C27.5079 116.017 27.5412 116.359 27.5554 116.478H24.2434ZM38.1662 116.178C38.1377 115.879 38.1044 115.76 38.0617 115.613C37.8098 114.658 36.869 113.299 34.4931 113.284C32.1362 113.284 31.1668 114.762 30.8247 115.613C30.5253 116.359 30.4968 117.148 30.4968 117.404C30.4968 119.224 31.4091 120.179 31.9746 120.612C32.7206 121.177 33.557 121.372 34.4836 121.372C35.0063 121.372 36.408 121.329 37.4249 120.117C37.9001 119.552 38.1092 118.939 38.2137 118.221H36.1847C36.0517 119.148 35.4672 119.756 34.4978 119.756C32.6161 119.756 32.6161 117.684 32.6161 117.371C32.6161 115.461 33.5997 114.862 34.5263 114.862C35.1678 114.862 35.7665 115.176 36.0041 115.803C36.0802 115.969 36.0944 116.088 36.1087 116.178H38.1662ZM42.823 113.284C40.4946 113.313 39.5395 114.805 39.2116 115.641C39.0786 115.941 38.9123 116.492 38.9123 117.314C38.9123 118.972 39.6583 120.464 41.2549 121.087C41.9249 121.358 42.5997 121.372 42.8515 121.372C44.3863 121.372 45.2559 120.702 45.7026 120.236C46.7337 119.148 46.7622 117.803 46.7622 117.314C46.7622 116.135 46.4058 115 45.4792 114.197C44.4624 113.318 43.3029 113.284 42.823 113.284ZM42.823 114.881C43.0036 114.881 43.436 114.909 43.8399 115.209C44.4956 115.703 44.6477 116.52 44.6477 117.281C44.6477 118.041 44.4814 119.024 43.7971 119.504C43.4075 119.756 43.0083 119.79 42.8562 119.79C42.6757 119.79 42.2908 119.775 41.9011 119.519C41.4069 119.177 41.022 118.549 41.022 117.309C41.022 115.503 41.9629 114.876 42.8277 114.876L42.823 114.881ZM50.022 113.508H48.0215V121.149H50.079V117.195C50.0933 116.658 50.079 116.164 50.3784 115.703C50.5589 115.432 50.9438 115.019 51.7516 115.019C52.1698 115.019 52.4216 115.166 52.5737 115.271C53.0346 115.627 53.0204 116.24 53.0204 116.748V121.149H55.0922V116.33C55.0779 115.822 55.0779 115.332 54.9116 114.838C54.4174 113.389 52.9728 113.284 52.5262 113.284C51.5711 113.284 50.9723 113.641 50.6587 113.864C50.3594 114.087 50.212 114.254 50.0172 114.567V113.508H50.022ZM60.2669 113.284C57.9385 113.313 56.9834 114.805 56.6555 115.641C56.5224 115.941 56.3561 116.492 56.3561 117.314C56.3561 118.972 57.1022 120.464 58.6988 121.087C59.3688 121.358 60.0435 121.372 60.2954 121.372C61.8302 121.372 62.6998 120.702 63.1465 120.236C64.1776 119.148 64.2061 117.803 64.2061 117.314C64.2061 116.135 63.8497 115 62.9231 114.197C61.9062 113.318 60.7468 113.284 60.2669 113.284ZM60.2669 114.881C60.4474 114.881 60.8799 114.909 61.2838 115.209C61.9395 115.703 62.0916 116.52 62.0916 117.281C62.0916 118.041 61.9253 119.024 61.241 119.504C60.8513 119.756 60.4522 119.79 60.3001 119.79C60.1196 119.79 59.7347 119.775 59.345 119.519C58.8508 119.177 58.4659 118.549 58.4659 117.309C58.4659 115.503 59.4068 114.876 60.2716 114.876L60.2669 114.881ZM67.4659 113.508H65.4653V121.149H67.5229V117C67.5371 116.506 67.5371 116.059 67.8223 115.627C67.9696 115.404 68.3735 115 69.091 115C69.4474 115 69.704 115.104 69.8228 115.18C70.2979 115.494 70.2837 115.969 70.2979 116.478V121.149H72.3555V117C72.3555 116.506 72.327 116.045 72.6406 115.598C72.8069 115.361 73.1633 115.019 73.8618 115.019C73.9948 115.019 74.2942 115.019 74.5936 115.199C75.026 115.451 75.0878 115.869 75.1163 116.335V121.153H77.1881V116.007C77.1738 115.442 77.1263 115.171 77.0408 114.886C76.6844 113.798 75.6532 113.289 74.5793 113.289C73.5054 113.289 72.8497 113.736 72.536 114.021C72.327 114.216 72.2367 114.334 72.0751 114.558C72.0133 114.453 71.9563 114.32 71.79 114.111C71.3291 113.512 70.6401 113.289 69.9083 113.289C68.6871 113.289 68.0123 113.869 67.6987 114.244C67.6084 114.349 67.5324 114.453 67.4611 114.558V113.512L67.4659 113.508ZM85.8791 113.508H83.7028L82.0016 118.939L80.2577 113.508H77.9911L80.6759 120.564C80.7377 120.773 80.7947 120.954 80.7947 121.177C80.7947 121.567 80.6616 121.743 80.5238 121.861C80.329 122.056 80.1057 122.132 79.583 122.132H78.7467V123.862L80.1342 123.876C80.5523 123.876 81.4789 123.919 82.1917 122.997C82.5053 122.579 82.7002 122.118 83.0565 121.115L85.8744 113.503L85.8791 113.508Z" fill="white"/>
<path fill-rule="evenodd" clip-rule="evenodd" d="M42.993 0.376953L85.8797 25.1326V74.667L42.993 99.4346L0.0947266 74.6672V25.1324L42.993 0.376953ZM6.70459 28.9495V70.851L42.9925 91.8019L79.2699 70.8513V28.9492L42.9925 8.00871L6.70459 28.9495Z" fill="white"/>
</svg>
