<svg width="225" height="38" viewBox="0 0 225 38" fill="none" xmlns="http://www.w3.org/2000/svg">
<path d="M16.5249 37.2645L0.707397 28.139V9.87592L16.5249 0.738281L32.3424 9.87592V28.139L16.5249 37.2767V37.2645ZM5.57432 25.3284L16.5249 31.6554L27.4754 25.3284V12.6866L16.5249 6.35957L5.57432 12.6866V25.3284Z" fill="white"/>
<path d="M41.3828 7.92883V30.4383H51.0801C53.5379 30.414 54.2436 30.414 55.5455 29.9273C58.2223 28.9783 59.1836 26.8976 59.4999 25.8391C59.8163 24.89 59.8163 24.1843 59.8163 23.7706C59.8163 19.8528 57.103 18.6726 55.7037 18.2224C56.3121 17.906 56.8474 17.5775 57.3341 17.0786C58.6482 15.7646 58.7699 14.2072 58.7699 13.538C58.7699 12.9539 58.636 11.4695 57.5896 10.1311C55.7767 7.80715 52.8687 7.92883 50.2528 7.92883H41.3828ZM46.2011 11.7615H49.9243C51.1045 11.7615 52.6376 11.6277 53.4649 12.7106C53.9395 13.3554 53.976 14.1463 53.976 14.4383C53.976 15.2414 53.6596 15.7767 53.4649 16.0322C52.6984 16.9813 51.5547 16.9813 50.4353 17.0421H46.1889V11.7494L46.2011 11.7615ZM46.2011 20.4003H50.1554C51.4695 20.4246 53.4406 20.2421 54.3288 21.5805C54.8642 22.3471 54.8642 23.1744 54.8642 23.4543C54.8642 25.3037 53.7813 25.9973 53.0756 26.2528C52.1874 26.5326 50.5935 26.5083 50.5326 26.5083H46.2011V20.3881V20.4003ZM67.068 7.92883H62.6026V11.725H67.068V7.92883ZM67.068 14.1098H62.6026V30.4383H67.068V14.1098ZM78.1524 13.6353C73.176 13.6961 71.1319 16.884 70.4383 18.6726C70.1585 19.3174 69.7934 20.4855 69.7934 22.2497C69.7934 25.7904 71.3874 28.9783 74.7942 30.3167C76.2299 30.9007 77.6657 30.925 78.201 30.925C81.4862 30.925 83.3356 29.4893 84.2969 28.5037C86.4991 26.1798 86.56 23.3083 86.56 22.2619C86.56 19.7433 85.7934 17.322 83.8223 15.6064C81.6444 13.7326 79.1744 13.6596 78.1402 13.6596L78.1524 13.6353ZM78.1524 17.0421C78.5417 17.0421 79.4664 17.103 80.3303 17.7478C81.7296 18.8064 82.0581 20.5463 82.0581 22.1767C82.0581 23.8072 81.7052 25.8999 80.2452 26.9341C79.4178 27.4695 78.5539 27.5425 78.2376 27.5425C77.8482 27.5425 77.033 27.506 76.1934 26.9585C75.1349 26.2284 74.3197 24.89 74.3197 22.2376C74.3197 18.3805 76.3273 17.0421 78.1767 17.0421H78.1524ZM104.641 23.43C104.641 22.2862 104.835 17.687 101.258 15.071C99.4086 13.7326 97.4254 13.6353 96.6345 13.6353C91.6581 13.6353 88.4337 17.5532 88.4337 22.3349C88.3972 25.6809 89.9912 28.9296 93.2155 30.2802C94.7242 30.8885 96.1478 30.925 96.7562 30.925C97.1699 30.925 98.5448 30.8885 99.8102 30.414C101.562 29.7691 103.059 28.3699 103.862 26.7151C104.142 26.1311 104.276 25.5957 104.336 25.3767H100.066C99.8467 25.8878 99.6763 26.1433 99.5546 26.3258C98.6664 27.6033 97.4497 27.7007 96.8778 27.7007C94.1402 27.7007 93.3737 25.7539 93.1547 24.7927C92.9965 24.2087 92.9965 23.6733 92.96 23.4178H104.628L104.641 23.43ZM93.0086 20.4611C93.106 19.5973 93.2277 19.1836 93.4223 18.8064C94.0307 17.5653 95.2353 16.7988 96.6102 16.7988C97.9851 16.7988 99.0923 17.5288 99.6642 18.7821C99.9805 19.4878 100.054 20.2178 100.078 20.4733H92.9965L93.0086 20.4611ZM122.758 19.8163C122.697 19.1714 122.624 18.9281 122.539 18.6117C122.003 16.5676 119.984 13.6718 114.91 13.6353C109.873 13.6353 107.804 16.7988 107.074 18.6117C106.429 20.2056 106.381 21.8969 106.381 22.4444C106.381 26.3379 108.327 28.3699 109.532 29.2946C111.126 30.4992 112.914 30.925 114.898 30.925C116.017 30.925 119.01 30.8277 121.188 28.2482C122.198 27.0437 122.648 25.7296 122.879 24.1965H118.548C118.268 26.1798 117.015 27.4817 114.946 27.4817C110.931 27.4817 110.931 23.0528 110.931 22.3836C110.931 18.2954 113.036 17.0178 115.007 17.0178C116.382 17.0178 117.66 17.687 118.171 19.0254C118.329 19.3783 118.365 19.6338 118.39 19.8284H122.782L122.758 19.8163ZM132.711 13.6353C127.734 13.6961 125.69 16.884 124.996 18.6726C124.717 19.3174 124.352 20.4855 124.352 22.2497C124.352 25.7904 125.946 28.9783 129.352 30.3167C130.788 30.9007 132.224 30.925 132.771 30.925C136.044 30.925 137.906 29.4893 138.867 28.5037C141.069 26.1798 141.13 23.3083 141.13 22.2619C141.13 19.7433 140.364 17.322 138.393 15.6064C136.215 13.7326 133.745 13.6596 132.711 13.6596V13.6353ZM132.711 17.0421C133.1 17.0421 134.025 17.103 134.888 17.7478C136.288 18.8064 136.616 20.5463 136.616 22.1767C136.616 23.8072 136.263 25.8999 134.803 26.9341C133.976 27.4695 133.112 27.5425 132.796 27.5425C132.406 27.5425 131.591 27.506 130.752 26.9585C129.693 26.2284 128.878 24.89 128.878 22.2376C128.878 18.3805 130.885 17.0421 132.735 17.0421H132.711ZM148.09 14.122H143.819V30.4505H148.212V22.0064C148.236 20.8627 148.212 19.8041 148.857 18.8186C149.246 18.2345 150.061 17.3585 151.789 17.3585C152.689 17.3585 153.225 17.6748 153.541 17.8938C154.526 18.6604 154.502 19.9623 154.502 21.0573V30.4627H158.931V20.1448C158.907 19.0619 158.907 18.0155 158.542 16.957C157.483 13.8543 154.405 13.6353 153.444 13.6353C151.399 13.6353 150.122 14.4018 149.453 14.8764C148.808 15.3509 148.492 15.7037 148.078 16.3851V14.122H148.09ZM169.979 13.6475C165.003 13.7083 162.958 16.8961 162.265 18.6847C161.985 19.3296 161.62 20.4976 161.62 22.2619C161.62 25.8026 163.214 28.9904 166.621 30.3288C168.057 30.9128 169.492 30.9372 170.028 30.9372C173.313 30.9372 175.162 29.5014 176.123 28.5159C178.326 26.1919 178.387 23.3205 178.387 22.2741C178.387 19.7554 177.62 17.3341 175.649 15.6186C173.471 13.7448 171.001 13.6718 169.967 13.6718L169.979 13.6475ZM169.979 17.0543C170.368 17.0543 171.293 17.1151 172.157 17.76C173.556 18.8186 173.885 20.5585 173.885 22.1889C173.885 23.8193 173.532 25.9121 172.072 26.9463C171.244 27.4817 170.38 27.5547 170.064 27.5547C169.675 27.5547 168.86 27.5182 168.02 26.9706C166.961 26.2406 166.146 24.9022 166.146 22.2497C166.146 18.3927 168.154 17.0543 170.003 17.0543H169.979ZM185.358 14.1341H181.088V30.4627H185.48V21.5927C185.517 20.5341 185.517 19.5851 186.125 18.6604C186.441 18.1859 187.305 17.322 188.838 17.322C189.605 17.322 190.152 17.541 190.408 17.7113C191.418 18.3805 191.393 19.4026 191.418 20.4855V30.4627H195.81V21.5927C195.81 20.5341 195.749 19.5486 196.419 18.5995C196.771 18.0885 197.538 17.3585 199.034 17.3585C199.314 17.3585 199.959 17.3585 200.604 17.7478C201.529 18.2832 201.663 19.1836 201.723 20.1691V30.4627H206.152V19.4513C206.128 18.2467 206.018 17.6627 205.836 17.0543C205.069 14.7303 202.867 13.6475 200.58 13.6475C198.292 13.6475 196.881 14.5965 196.212 15.217C195.761 15.6307 195.567 15.8862 195.226 16.3608C195.092 16.1418 194.971 15.8497 194.618 15.4117C193.632 14.1341 192.16 13.6596 190.59 13.6596C187.974 13.6596 186.539 14.9007 185.869 15.7037C185.675 15.9227 185.517 16.1539 185.358 16.3729V14.1341ZM224.707 14.1341H220.06L216.422 25.7417L212.698 14.1341H207.856L213.599 29.2094C213.733 29.6596 213.854 30.0368 213.854 30.5235C213.854 31.3509 213.574 31.7281 213.27 31.9836C212.856 32.3973 212.37 32.5676 211.263 32.5676H209.474V36.2665L212.443 36.2908C213.343 36.2908 215.314 36.3881 216.835 34.417C217.504 33.5288 217.918 32.5433 218.685 30.4018L224.707 14.1341Z" fill="white"/>
</svg>
