<svg width="232" height="49" viewBox="0 0 232 49" fill="none" xmlns="http://www.w3.org/2000/svg">
<g clip-path="url(#clip0_242_930)">
<path d="M64.9402 35.6929C64.2461 35.2963 63.6513 34.7014 63.2547 34.0074V35.098C63.2547 35.6929 62.8581 36.0895 62.2632 36.0895H60.7761C60.1812 36.0895 59.7846 35.6929 59.7846 35.098V14.6741C59.7846 14.0792 60.1812 13.6826 60.7761 13.6826H62.4615C63.0564 13.6826 63.453 14.0792 63.453 14.6741V21.6142C63.8496 21.1185 64.4444 20.6228 65.0393 20.3254C65.7333 20.0279 66.3282 19.8296 67.0222 19.8296H69.3026C70.4923 19.8296 71.4838 20.1271 72.4752 20.6228C73.3675 21.1185 74.0615 21.9117 74.6564 22.804C75.1521 23.6963 75.4496 24.7869 75.4496 26.0758V29.8433C75.4496 31.1322 75.1521 32.2228 74.6564 33.2142C74.1607 34.2057 73.4667 34.9989 72.4752 35.4946C71.5829 35.9903 70.4923 36.2877 69.3026 36.2877H67.0222C66.3282 36.2877 65.6342 36.0895 64.9402 35.6929ZM69.3026 33.1151C69.4017 33.1151 69.6 33.1151 69.7983 33.0159C71.0872 32.4211 71.682 31.2313 71.682 29.7442V26.3732C71.682 25.3818 71.3846 24.6877 70.8889 24.0929C70.3932 23.498 69.6991 23.2006 68.906 23.2006H66.8239C65.9316 23.2006 65.1385 23.498 64.4444 24.192C63.8496 24.886 63.453 25.7783 63.3538 26.8689V30.0416C63.453 30.9339 63.8496 31.7271 64.4444 32.3219C65.0393 32.9168 65.8325 33.2142 66.6256 33.2142L69.3026 33.1151Z" fill="#333336"/>
<path d="M78.5231 17.647C78.1265 17.2504 77.829 16.6555 77.829 15.9615C77.829 15.2675 78.0273 14.6726 78.5231 14.276C78.9196 13.8795 79.5145 13.582 80.3077 13.582C81.0017 13.582 81.5966 13.7803 82.0923 14.276C82.588 14.6726 82.7863 15.2675 82.7863 15.9615C82.7863 16.6555 82.588 17.2504 82.0923 17.647C81.5966 18.0436 81.1008 18.341 80.3077 18.341C79.5145 18.341 78.9196 18.0436 78.5231 17.647ZM79.4154 20.1256H81.1008C81.6957 20.1256 82.0923 20.5222 82.0923 21.1171V35.0966C82.0923 35.6914 81.6957 36.088 81.1008 36.088H79.4154C78.8205 36.088 78.4239 35.6914 78.4239 35.0966V21.1171C78.4239 20.5222 78.8205 20.1256 79.4154 20.1256Z" fill="#333336"/>
<path d="M86.9503 34.6018C85.7606 33.5112 85.1657 31.9248 85.1657 30.0411V26.0753C85.1657 24.8855 85.4631 23.7949 85.9589 22.8035C86.4546 21.812 87.2478 21.118 88.2392 20.6223C89.2307 20.1265 90.4204 19.8291 91.7093 19.8291H94.4854C95.7743 19.8291 96.964 20.1265 97.9555 20.6223C98.9469 21.118 99.7402 21.9112 100.236 22.8035C100.732 23.7949 101.029 24.8855 101.029 26.0753V30.0411C101.029 31.9248 100.434 33.412 99.2444 34.6018C98.0546 35.7915 96.4683 36.2872 94.3862 36.2872H91.6102C89.7264 36.2872 88.1401 35.7915 86.9503 34.6018ZM94.3862 33.1146C95.2785 33.1146 95.9726 32.8171 96.5674 32.2223C97.0632 31.6274 97.3606 30.8342 97.3606 29.8428V26.2735C97.3606 25.2821 97.0632 24.4889 96.5674 23.8941C96.0717 23.2992 95.2785 23.0018 94.3862 23.0018H91.7093C90.817 23.0018 90.123 23.2992 89.5281 23.8941C89.0324 24.4889 88.7349 25.2821 88.7349 26.2735V29.8428C88.7349 30.8342 89.0324 31.6274 89.5281 32.2223C90.0238 32.8171 90.7179 33.1146 91.6102 33.1146H94.3862Z" fill="#333336"/>
<path d="M106.085 35.5907C105.094 35.095 104.301 34.401 103.805 33.5087C103.309 32.6164 103.012 31.6249 103.012 30.4352V26.1719C103.012 24.9822 103.309 23.8916 103.805 22.9001C104.301 21.9087 105.094 21.2147 106.085 20.7189C107.077 20.2232 108.267 19.9258 109.556 19.9258H112.133C114.116 19.9258 115.603 20.5207 116.793 21.6113C117.983 22.7019 118.578 24.2882 118.578 26.0728V28.254C118.578 28.8489 118.181 29.2454 117.586 29.2454H106.68V30.4352C106.68 31.3275 106.978 31.9224 107.474 32.5172C107.969 33.013 108.663 33.3104 109.556 33.3104H112.034C112.926 33.3104 113.621 33.1121 114.116 32.7155C114.414 32.4181 114.612 32.1207 114.81 31.8232C115.009 31.4266 115.306 31.1292 115.802 31.1292H117.487C118.082 31.1292 118.578 31.6249 118.479 32.2198C118.28 33.3104 117.685 34.2027 116.793 34.9959C115.603 35.9873 114.017 36.483 112.133 36.483H109.655C108.168 36.2848 107.077 36.0865 106.085 35.5907ZM114.909 26.4694V25.9736C114.909 25.0813 114.612 24.2882 114.116 23.6933C113.621 23.0984 112.926 22.801 112.133 22.801H109.556C108.663 22.801 107.969 23.0984 107.474 23.6933C106.978 24.2882 106.68 25.0813 106.68 26.0728V26.3702H114.909V26.4694Z" fill="#333336"/>
<path d="M121.949 34.6018C120.759 33.5112 120.164 32.024 120.164 30.1402V26.0753C120.164 24.8855 120.462 23.7949 120.957 22.8035C121.453 21.812 122.246 21.118 123.238 20.6223C124.229 20.1265 125.32 19.8291 126.609 19.8291H129.186C130.971 19.8291 132.458 20.3248 133.648 21.4154C134.54 22.2086 135.036 23.2 135.234 24.4889C135.333 25.0838 134.838 25.5795 134.243 25.5795H132.557C132.062 25.5795 131.665 25.2821 131.566 24.7864C131.467 24.3898 131.268 23.9932 130.971 23.6958C130.475 23.2 129.88 23.0018 129.186 23.0018H126.708C125.915 23.0018 125.221 23.2992 124.725 23.8941C124.229 24.4889 123.932 25.2821 123.932 26.2735V29.8428C123.932 30.8342 124.229 31.6274 124.725 32.2223C125.221 32.8171 125.915 33.1146 126.807 33.1146H129.285C130.079 33.1146 130.674 32.8171 131.169 32.2223C131.467 31.8257 131.665 31.33 131.863 30.8342C131.962 30.3385 132.359 30.0411 132.855 30.0411H134.54C135.135 30.0411 135.631 30.5368 135.532 31.1317C135.333 32.5197 134.838 33.6103 133.846 34.6018C132.656 35.7915 131.169 36.2872 129.285 36.2872H126.708C124.725 36.2872 123.138 35.7915 121.949 34.6018Z" fill="#333336"/>
<path d="M138.605 34.6018C137.415 33.5112 136.821 31.9248 136.821 30.0411V26.0753C136.821 24.8855 137.118 23.7949 137.614 22.8035C138.109 21.812 138.903 21.118 139.894 20.6223C140.885 20.1265 142.075 19.8291 143.364 19.8291H146.14C147.429 19.8291 148.619 20.1265 149.61 20.6223C150.602 21.118 151.395 21.9112 151.891 22.8035C152.386 23.7949 152.684 24.8855 152.684 26.0753V30.0411C152.684 31.9248 152.089 33.412 150.899 34.6018C149.709 35.7915 148.123 36.2872 146.041 36.2872H143.265C141.381 36.2872 139.894 35.7915 138.605 34.6018ZM146.14 33.1146C147.032 33.1146 147.727 32.8171 148.321 32.2223C148.817 31.6274 149.115 30.8342 149.115 29.8428V26.2735C149.115 25.2821 148.817 24.4889 148.321 23.8941C147.826 23.2992 147.032 23.0018 146.14 23.0018H143.463C142.571 23.0018 141.877 23.2992 141.282 23.8941C140.786 24.4889 140.489 25.2821 140.489 26.2735V29.8428C140.489 30.8342 140.786 31.6274 141.282 32.2223C141.778 32.8171 142.472 33.1146 143.364 33.1146H146.14Z" fill="#333336"/>
<path d="M156.253 20.1241H157.74C158.335 20.1241 158.732 20.5207 158.732 21.1155V22.2061C159.227 21.5121 159.822 20.9172 160.615 20.5207C161.409 20.1241 162.103 19.9258 162.896 19.9258H164.879C166.564 19.9258 167.853 20.4215 168.844 21.5121C169.836 22.6027 170.332 23.8916 170.332 25.6762V35.1942C170.332 35.789 169.935 36.1856 169.34 36.1856H167.556C166.961 36.1856 166.564 35.789 166.564 35.1942V25.7754C166.564 24.9822 166.366 24.3873 165.969 23.8916C165.573 23.3959 165.077 23.1976 164.383 23.1976H162.4C161.607 23.1976 160.814 23.495 160.12 24.189C159.426 24.7839 159.029 25.5771 158.831 26.5685V35.1942C158.831 35.789 158.434 36.1856 157.839 36.1856H156.154C155.559 36.1856 155.162 35.789 155.162 35.1942V21.1155C155.262 20.5207 155.757 20.1241 156.253 20.1241Z" fill="#333336"/>
<path d="M174.397 34.6018C173.207 33.5112 172.612 31.9248 172.612 30.0411V26.0753C172.612 24.8855 172.909 23.7949 173.405 22.8035C173.901 21.812 174.694 21.118 175.685 20.6223C176.677 20.1265 177.867 19.8291 179.156 19.8291H181.932C183.221 19.8291 184.41 20.1265 185.402 20.6223C186.393 21.118 187.186 21.9112 187.682 22.8035C188.178 23.7949 188.475 24.8855 188.475 26.0753V30.0411C188.475 31.9248 187.88 33.412 186.691 34.6018C185.501 35.7915 183.915 36.2872 181.832 36.2872H179.056C177.173 36.2872 175.586 35.7915 174.397 34.6018ZM181.832 33.1146C182.725 33.1146 183.419 32.8171 184.014 32.2223C184.509 31.6274 184.807 30.8342 184.807 29.8428V26.2735C184.807 25.2821 184.509 24.4889 184.014 23.8941C183.518 23.2992 182.725 23.0018 181.832 23.0018H179.156C178.263 23.0018 177.569 23.2992 176.974 23.8941C176.479 24.4889 176.181 25.2821 176.181 26.2735V29.8428C176.181 30.8342 176.479 31.6274 176.974 32.2223C177.47 32.8171 178.164 33.1146 179.056 33.1146H181.832Z" fill="#333336"/>
<path d="M212.667 21.3148C213.559 22.3063 214.055 23.6943 214.055 25.3798V35.096C214.055 35.5918 213.658 36.0875 213.063 36.0875H211.279C210.783 36.0875 210.287 35.6909 210.287 35.096V25.3798C210.287 24.2892 209.891 23.5952 209.197 23.1986C209.097 23.0995 208.899 23.0995 208.701 23.0995H206.52C206.421 23.0995 206.222 23.0995 206.123 23.1986C205.032 23.6943 204.438 24.5866 204.239 25.8755V35.1952C204.239 35.6909 203.843 36.1866 203.248 36.1866H201.463C200.968 36.1866 200.472 35.7901 200.472 35.1952V25.5781C200.472 24.4875 200.075 23.7935 199.381 23.2977C199.282 23.1986 199.084 23.1986 198.885 23.1986H197.2C196.506 23.1986 195.911 23.496 195.316 24.1901C194.821 24.7849 194.424 25.6772 194.325 26.6687V35.2943C194.325 35.7901 193.928 36.2858 193.333 36.2858H191.549C191.053 36.2858 190.557 35.8892 190.557 35.2943V21.0174C190.557 20.5217 190.954 20.026 191.549 20.026H193.036C193.532 20.026 194.027 20.4225 194.027 21.0174V22.108C194.424 21.414 194.92 20.8191 195.515 20.4225C196.109 20.026 196.803 19.8277 197.398 19.8277H199.183C199.976 19.8277 200.67 20.026 201.364 20.4225C201.662 20.6208 201.959 20.9183 202.256 21.1166C202.653 21.5131 203.248 21.5131 203.644 21.1166C203.942 20.8191 204.239 20.6208 204.537 20.3234C205.231 19.9268 205.925 19.7285 206.619 19.7285H208.403C210.485 19.8277 211.774 20.3234 212.667 21.3148Z" fill="#333336"/>
<path d="M218.913 41.2435C218.219 40.6486 217.723 39.8554 217.426 39.0623C217.227 38.3682 217.723 37.7734 218.318 37.7734H220.003C220.4 37.7734 220.797 38.0708 220.896 38.3682C220.995 38.6657 221.193 38.864 221.391 39.0623C221.788 39.3597 222.284 39.558 222.879 39.558H225.456C226.25 39.558 226.944 39.2606 227.439 38.6657C227.935 38.0708 228.133 37.2776 228.133 36.187V33.7084C227.638 34.4024 227.043 34.9973 226.349 35.3939C225.655 35.7905 224.961 35.9888 224.366 35.9888H222.284C220.697 35.9888 219.309 35.493 218.318 34.4024C217.326 33.3118 216.831 31.9238 216.831 30.1392V21.117C216.831 20.5221 217.227 20.1255 217.822 20.1255H219.508C220.103 20.1255 220.499 20.5221 220.499 21.117V30.1392C220.499 30.9324 220.697 31.6264 221.094 32.1221C221.491 32.6178 221.986 32.8161 222.68 32.8161H224.564C225.357 32.8161 226.051 32.5187 226.745 31.8247C227.34 31.2298 227.836 30.4366 228.034 29.4452C228.034 29.346 228.034 29.2469 228.034 29.1477V21.0178C228.034 20.4229 228.431 20.0264 229.026 20.0264H230.711C231.306 20.0264 231.703 20.4229 231.703 21.0178V35.9888C231.703 37.9717 231.108 39.558 230.017 40.7477C228.827 41.9375 227.34 42.5324 225.456 42.5324H222.879C221.292 42.5324 219.904 42.1358 218.913 41.2435Z" fill="#333336"/>
<path d="M57.1078 7.03835C56.7112 6.34434 55.8189 6.0469 55.1249 6.54263L46.301 11.599C46.0035 11.3016 45.7061 11.1033 45.3095 10.8059L29.4463 1.68451C27.7608 0.693054 25.6788 0.693054 23.9933 1.68451L8.22917 10.8059C6.5437 11.7973 5.4531 13.5819 5.4531 15.5648V33.7084C5.4531 34.105 5.55224 34.5016 5.55224 34.8982L1.58643 37.1785C0.892419 37.5751 0.594983 38.4674 1.09071 39.1614C1.38814 39.6571 1.88387 39.9546 2.37959 39.9546C2.67703 39.9546 2.87532 39.8554 3.07361 39.7563L6.94028 37.4759C7.23771 37.8725 7.6343 38.17 8.13002 38.3682L23.9933 47.5888C24.7864 48.0845 25.7779 48.2828 26.7694 48.2828C27.7608 48.2828 28.6531 48.0845 29.5454 47.5888L45.3095 38.4674C45.8052 38.17 46.301 37.7734 46.5984 37.3768L52.5471 40.8469C52.7454 40.946 53.0429 41.0452 53.2411 41.0452C53.7369 41.0452 54.2326 40.7477 54.53 40.252C54.9266 39.558 54.7283 38.6657 54.0343 38.2691L47.8873 34.6999C47.9864 34.4024 47.9864 34.105 47.9864 33.8076V15.4657C47.9864 14.97 47.8873 14.4742 47.7882 14.0777L56.5129 9.02126C57.207 8.62468 57.5044 7.73237 57.1078 7.03835ZM45.0121 33.7084C45.0121 34.6007 44.5164 35.3939 43.7232 35.8896L34.8993 40.946C34.8993 40.946 34.8001 40.946 34.8001 40.8469L31.7266 39.0623L38.5676 35.0965C39.0634 34.799 39.3608 34.3033 39.3608 33.8076V25.6777C38.8651 26.1734 38.1711 26.4708 37.3779 26.4708C36.9813 26.4708 36.6839 26.3717 36.3864 26.2725V33.0144L28.8514 37.3768L22.9027 33.9067C22.9027 34.9973 22.3078 35.9888 21.4155 36.4845L32.024 42.6315L27.9591 45.011C27.1659 45.4076 26.2736 45.4076 25.4805 45.011L14.4753 38.6657L18.342 36.4845C17.4497 35.9888 16.8548 34.9973 16.8548 33.9067L11.6001 36.9802L9.81549 35.8896C9.02233 35.493 8.5266 34.6007 8.5266 33.7084V15.4657C8.5266 14.5734 9.02233 13.7802 9.81549 13.2845L25.5796 4.16314C25.877 3.96485 26.2736 3.86571 26.7694 3.86571C27.2651 3.86571 27.6617 3.96485 28.0582 4.16314L43.8223 13.2845C44.1198 13.4828 44.4172 13.7802 44.6155 13.9785V14.0777C44.6155 14.1768 44.7146 14.1768 44.7146 14.2759C44.9129 14.6725 45.0121 14.97 45.0121 15.4657V33.7084Z" fill="#91D873"/>
<path d="M36.0891 20.7214L30.3387 17.3504V13.4838C29.843 13.8804 29.1489 14.1778 28.4549 14.1778C28.0583 14.1778 27.6618 14.0787 27.3643 13.9795V17.4496L21.3165 20.9197V16.0616L26.1746 13.0872C25.778 12.5915 25.4806 11.8975 25.4806 11.2034C25.4806 10.7077 25.5797 10.3111 25.778 9.91455L19.8293 13.4838L16.7558 11.6992C16.0618 11.3026 15.1694 11.5009 14.7729 12.1949C14.3763 12.8889 14.5746 13.7812 15.2686 14.1778L18.3421 15.9624V20.8205L16.26 19.6308C15.566 19.2342 14.6737 19.4325 14.2771 20.1265C13.8806 20.8205 14.0788 21.7128 14.7729 22.1094L18.3421 24.1915V31.1316C18.7387 30.8342 19.3335 30.7351 19.8293 30.7351C20.325 30.7351 20.9199 30.9334 21.3165 31.1316V24.1915L28.8515 19.8291L34.4036 23.0017C34.4036 22.1094 35.0977 21.2171 36.0891 20.7214Z" fill="#91D873"/>
<path d="M37.378 21.4131C37.2788 21.4131 37.2788 21.4131 37.378 21.4131C36.2874 21.4131 35.3951 22.3054 35.3951 23.396C35.3951 23.4951 35.3951 23.5943 35.3951 23.6934C35.4942 24.2883 35.8908 24.8832 36.3865 25.1806C36.684 25.3789 36.9814 25.478 37.378 25.478C38.3694 25.478 39.1626 24.784 39.3609 23.8917C39.3609 23.7926 39.3609 23.5943 39.3609 23.4951C39.3609 22.3054 38.4686 21.4131 37.378 21.4131Z" fill="#91D873"/>
<path d="M21.3162 32.5173C20.9196 32.1207 20.4239 31.8232 19.829 31.8232C19.2342 31.8232 18.7384 32.1207 18.3419 32.5173C18.1436 32.7156 18.0444 33.013 17.9453 33.3104C17.8461 33.5087 17.8461 33.707 17.8461 33.9053C17.8461 34.8967 18.5401 35.6899 19.4325 35.8882C19.5316 35.8882 19.7299 35.9873 19.829 35.9873C20.0273 35.9873 20.1265 35.9873 20.2256 35.8882C21.1179 35.6899 21.8119 34.8967 21.8119 33.9053C21.8119 33.707 21.8119 33.5087 21.7128 33.3104C21.6137 32.9138 21.5145 32.7156 21.3162 32.5173Z" fill="#91D873"/>
<path d="M27.3642 12.789C27.6616 12.9873 28.0582 13.0864 28.4548 13.0864C29.248 13.0864 30.0411 12.5907 30.3386 11.8967C30.4377 11.6984 30.5368 11.4009 30.5368 11.1035C30.5368 10.8061 30.4377 10.5086 30.3386 10.3103C30.0411 9.61633 29.3471 9.12061 28.4548 9.12061C28.2565 9.12061 28.0582 9.12061 27.8599 9.21975C27.7608 9.21975 27.7608 9.21975 27.6616 9.21975C26.8685 9.51719 26.3727 10.2112 26.3727 11.1035C26.3727 11.5992 26.571 12.0949 26.9676 12.4915C27.0668 12.5907 27.1659 12.6898 27.3642 12.789Z" fill="#91D873"/>
</g>
<defs>
<clipPath id="clip0_242_930">
<rect width="232" height="48.5812" fill="white"/>
</clipPath>
</defs>
</svg>
