<svg width="138" height="29" viewBox="0 0 138 29" fill="none" xmlns="http://www.w3.org/2000/svg">
<g clip-path="url(#clip0_242_449)">
<path d="M38.6282 21.2312C38.2154 20.9953 37.8615 20.6415 37.6256 20.2287V20.8774C37.6256 21.2312 37.3897 21.4671 37.0359 21.4671H36.1513C35.7974 21.4671 35.5615 21.2312 35.5615 20.8774V8.72866C35.5615 8.37481 35.7974 8.13892 36.1513 8.13892H37.1538C37.5077 8.13892 37.7436 8.37481 37.7436 8.72866V12.8569C37.9795 12.562 38.3333 12.2671 38.6872 12.0902C39.1 11.9133 39.4538 11.7953 39.8667 11.7953H41.2231C41.9308 11.7953 42.5205 11.9722 43.1102 12.2671C43.641 12.562 44.0538 13.0338 44.4077 13.5646C44.7026 14.0953 44.8795 14.744 44.8795 15.5107V17.7517C44.8795 18.5184 44.7026 19.1671 44.4077 19.7569C44.1128 20.3466 43.7 20.8184 43.1102 21.1133C42.5795 21.4081 41.9308 21.5851 41.2231 21.5851H39.8667C39.4538 21.5851 39.041 21.4671 38.6282 21.2312ZM41.2231 19.6979C41.282 19.6979 41.4 19.6979 41.5179 19.6389C42.2846 19.2851 42.6384 18.5774 42.6384 17.6928V15.6876C42.6384 15.0979 42.4615 14.6851 42.1667 14.3312C41.8718 13.9774 41.459 13.8005 40.9872 13.8005H39.7487C39.2179 13.8005 38.7461 13.9774 38.3333 14.3902C37.9795 14.803 37.7436 15.3338 37.6846 15.9825V17.8697C37.7436 18.4005 37.9795 18.8722 38.3333 19.2261C38.6872 19.5799 39.159 19.7569 39.6308 19.7569L41.2231 19.6979Z" fill="#757576"/>
<path d="M46.7077 10.4971C46.4718 10.2612 46.2949 9.90731 46.2949 9.49449C46.2949 9.08167 46.4129 8.72782 46.7077 8.49192C46.9436 8.25603 47.2975 8.0791 47.7693 8.0791C48.1821 8.0791 48.536 8.19705 48.8308 8.49192C49.1257 8.72782 49.2436 9.08167 49.2436 9.49449C49.2436 9.90731 49.1257 10.2612 48.8308 10.4971C48.536 10.7329 48.2411 10.9099 47.7693 10.9099C47.2975 10.9099 46.9436 10.7329 46.7077 10.4971ZM47.2385 11.9714H48.2411C48.5949 11.9714 48.8308 12.2073 48.8308 12.5612V20.8765C48.8308 21.2304 48.5949 21.4663 48.2411 21.4663H47.2385C46.8847 21.4663 46.6488 21.2304 46.6488 20.8765V12.5612C46.6488 12.2073 46.8847 11.9714 47.2385 11.9714Z" fill="#757576"/>
<path d="M51.7205 20.5821C51.0128 19.9334 50.6589 18.9898 50.6589 17.8693V15.5103C50.6589 14.8026 50.8359 14.1539 51.1307 13.5642C51.4256 12.9744 51.8974 12.5616 52.4871 12.2667C53.0769 11.9718 53.7846 11.7949 54.5512 11.7949H56.2025C56.9692 11.7949 57.6769 11.9718 58.2666 12.2667C58.8564 12.5616 59.3282 13.0334 59.6231 13.5642C59.918 14.1539 60.0949 14.8026 60.0949 15.5103V17.8693C60.0949 18.9898 59.7411 19.8744 59.0334 20.5821C58.3256 21.2898 57.382 21.5847 56.1436 21.5847H54.4923C53.3718 21.5847 52.4282 21.2898 51.7205 20.5821ZM56.1436 19.6975C56.6743 19.6975 57.0871 19.5206 57.441 19.1667C57.7359 18.8129 57.9128 18.3411 57.9128 17.7513V15.6283C57.9128 15.0385 57.7359 14.5667 57.441 14.2129C57.1461 13.859 56.6743 13.6821 56.1436 13.6821H54.5512C54.0205 13.6821 53.6077 13.859 53.2538 14.2129C52.9589 14.5667 52.782 15.0385 52.782 15.6283V17.7513C52.782 18.3411 52.9589 18.8129 53.2538 19.1667C53.5487 19.5206 53.9615 19.6975 54.4923 19.6975H56.1436Z" fill="#757576"/>
<path d="M63.1026 21.1706C62.5129 20.8757 62.0411 20.4629 61.7462 19.9321C61.4513 19.4014 61.2744 18.8116 61.2744 18.1039V15.568C61.2744 14.8604 61.4513 14.2116 61.7462 13.6219C62.0411 13.0321 62.5129 12.6193 63.1026 12.3245C63.6924 12.0296 64.4001 11.8527 65.1667 11.8527H66.7001C67.8795 11.8527 68.7642 12.2065 69.4719 12.8552C70.1795 13.5039 70.5334 14.4475 70.5334 15.5091V16.8065C70.5334 17.1604 70.2975 17.3963 69.9436 17.3963H63.4565V18.1039C63.4565 18.6347 63.6334 18.9886 63.9283 19.3424C64.2231 19.6373 64.636 19.8142 65.1667 19.8142H66.6411C67.1718 19.8142 67.5847 19.6963 67.8795 19.4604C68.0565 19.2834 68.1744 19.1065 68.2924 18.9296C68.4103 18.6937 68.5872 18.5168 68.8821 18.5168H69.8847C70.2385 18.5168 70.5334 18.8116 70.4744 19.1655C70.3565 19.8142 70.0026 20.345 69.4719 20.8168C68.7642 21.4065 67.8206 21.7014 66.7001 21.7014H65.2257C64.3411 21.5834 63.6924 21.4655 63.1026 21.1706ZM68.3513 15.745V15.4501C68.3513 14.9193 68.1744 14.4475 67.8795 14.0937C67.5847 13.7398 67.1718 13.5629 66.7001 13.5629H65.1667C64.636 13.5629 64.2231 13.7398 63.9283 14.0937C63.6334 14.4475 63.4565 14.9193 63.4565 15.5091V15.686H68.3513V15.745Z" fill="#757576"/>
<path d="M72.5383 20.5821C71.8307 19.9334 71.4768 19.0488 71.4768 17.9283V15.5103C71.4768 14.8026 71.6537 14.1539 71.9486 13.5642C72.2435 12.9744 72.7153 12.5616 73.305 12.2667C73.8948 11.9718 74.5435 11.7949 75.3101 11.7949H76.8435C77.905 11.7949 78.7896 12.0898 79.4973 12.7385C80.0281 13.2103 80.323 13.8001 80.4409 14.5667C80.4999 14.9206 80.205 15.2154 79.8512 15.2154H78.8486C78.5537 15.2154 78.3178 15.0385 78.2589 14.7436C78.1999 14.5077 78.0819 14.2718 77.905 14.0949C77.6101 13.8 77.2563 13.6821 76.8435 13.6821H75.3691C74.8973 13.6821 74.4845 13.859 74.1896 14.2129C73.8948 14.5667 73.7178 15.0385 73.7178 15.6283V17.7513C73.7178 18.3411 73.8948 18.8129 74.1896 19.1667C74.4845 19.5206 74.8973 19.6975 75.4281 19.6975H76.9024C77.3742 19.6975 77.7281 19.5206 78.023 19.1667C78.1999 18.9308 78.3178 18.6359 78.4358 18.3411C78.4948 18.0462 78.7307 17.8693 79.0255 17.8693H80.0281C80.3819 17.8693 80.6768 18.1642 80.6178 18.518C80.4999 19.3436 80.205 19.9924 79.6153 20.5821C78.9076 21.2898 78.023 21.5847 76.9024 21.5847H75.3691C74.1896 21.5847 73.246 21.2898 72.5383 20.5821Z" fill="#757576"/>
<path d="M82.4463 20.5821C81.7386 19.9334 81.3848 18.9898 81.3848 17.8693V15.5103C81.3848 14.8026 81.5617 14.1539 81.8566 13.5642C82.1514 12.9744 82.6232 12.5616 83.213 12.2667C83.8027 11.9718 84.5104 11.7949 85.2771 11.7949H86.9283C87.695 11.7949 88.4027 11.9718 88.9924 12.2667C89.5822 12.5616 90.054 13.0334 90.3489 13.5642C90.6437 14.1539 90.8207 14.8026 90.8207 15.5103V17.8693C90.8207 18.9898 90.4668 19.8744 89.7591 20.5821C89.0514 21.2898 88.1078 21.5847 86.8694 21.5847H85.2181C84.0976 21.5847 83.213 21.2898 82.4463 20.5821ZM86.9283 19.6975C87.4591 19.6975 87.8719 19.5206 88.2258 19.1667C88.5207 18.8129 88.6976 18.3411 88.6976 17.7513V15.6283C88.6976 15.0385 88.5207 14.5667 88.2258 14.2129C87.9309 13.859 87.4591 13.6821 86.9283 13.6821H85.336C84.8053 13.6821 84.3925 13.859 84.0386 14.2129C83.7437 14.5667 83.5668 15.0385 83.5668 15.6283V17.7513C83.5668 18.3411 83.7437 18.8129 84.0386 19.1667C84.3335 19.5206 84.7463 19.6975 85.2771 19.6975H86.9283Z" fill="#757576"/>
<path d="M92.9436 11.9706H93.8283C94.1821 11.9706 94.418 12.2065 94.418 12.5604V13.2091C94.7129 12.7963 95.0667 12.4424 95.5385 12.2065C96.0103 11.9706 96.4231 11.8527 96.8949 11.8527H98.0744C99.077 11.8527 99.8436 12.1475 100.433 12.7963C101.023 13.445 101.318 14.2116 101.318 15.2732V20.9347C101.318 21.2886 101.082 21.5245 100.728 21.5245H99.6667C99.3129 21.5245 99.077 21.2886 99.077 20.9347V15.3321C99.077 14.8604 98.959 14.5065 98.7231 14.2116C98.4872 13.9168 98.1924 13.7988 97.7795 13.7988H96.6001C96.1283 13.7988 95.6565 13.9757 95.2436 14.3886C94.8308 14.7424 94.5949 15.2142 94.477 15.8039V20.9347C94.477 21.2886 94.2411 21.5245 93.8872 21.5245H92.8847C92.5308 21.5245 92.2949 21.2886 92.2949 20.9347V12.5604C92.3539 12.2065 92.6488 11.9706 92.9436 11.9706Z" fill="#757576"/>
<path d="M103.736 20.5821C103.028 19.9334 102.674 18.9898 102.674 17.8693V15.5103C102.674 14.8026 102.851 14.1539 103.146 13.5642C103.441 12.9744 103.913 12.5616 104.503 12.2667C105.092 11.9718 105.8 11.7949 106.567 11.7949H108.218C108.985 11.7949 109.692 11.9718 110.282 12.2667C110.872 12.5616 111.344 13.0334 111.638 13.5642C111.933 14.1539 112.11 14.8026 112.11 15.5103V17.8693C112.11 18.9898 111.756 19.8744 111.049 20.5821C110.341 21.2898 109.397 21.5847 108.159 21.5847H106.508C105.387 21.5847 104.444 21.2898 103.736 20.5821ZM108.159 19.6975C108.69 19.6975 109.103 19.5206 109.456 19.1667C109.751 18.8129 109.928 18.3411 109.928 17.7513V15.6283C109.928 15.0385 109.751 14.5667 109.456 14.2129C109.161 13.859 108.69 13.6821 108.159 13.6821H106.567C106.036 13.6821 105.623 13.859 105.269 14.2129C104.974 14.5667 104.797 15.0385 104.797 15.6283V17.7513C104.797 18.3411 104.974 18.8129 105.269 19.1667C105.564 19.5206 105.977 19.6975 106.508 19.6975H108.159Z" fill="#757576"/>
<path d="M126.5 12.6787C127.031 13.2684 127.326 14.0941 127.326 15.0966V20.8761C127.326 21.171 127.09 21.4659 126.736 21.4659H125.674C125.379 21.4659 125.085 21.23 125.085 20.8761V15.0966C125.085 14.4479 124.849 14.0351 124.436 13.7992C124.377 13.7402 124.259 13.7402 124.141 13.7402H122.844C122.785 13.7402 122.667 13.7402 122.608 13.7992C121.959 14.0941 121.605 14.6249 121.487 15.3915V20.9351C121.487 21.23 121.251 21.5249 120.897 21.5249H119.836C119.541 21.5249 119.246 21.289 119.246 20.9351V15.2146C119.246 14.5659 119.01 14.1531 118.597 13.8582C118.538 13.7992 118.42 13.7992 118.302 13.7992H117.3C116.887 13.7992 116.533 13.9761 116.179 14.389C115.885 14.7428 115.649 15.2736 115.59 15.8633V20.9941C115.59 21.289 115.354 21.5838 115 21.5838H113.938C113.644 21.5838 113.349 21.3479 113.349 20.9941V12.5018C113.349 12.2069 113.585 11.912 113.938 11.912H114.823C115.118 11.912 115.413 12.1479 115.413 12.5018V13.1505C115.649 12.7377 115.944 12.3838 116.297 12.1479C116.651 11.912 117.064 11.7941 117.418 11.7941H118.479C118.951 11.7941 119.364 11.912 119.777 12.1479C119.954 12.2659 120.131 12.4428 120.308 12.5607C120.544 12.7966 120.897 12.7966 121.133 12.5607C121.31 12.3838 121.487 12.2659 121.664 12.089C122.077 11.8531 122.49 11.7351 122.902 11.7351H123.964C125.202 11.7941 125.969 12.089 126.5 12.6787Z" fill="#757576"/>
<path d="M130.216 24.5329C129.803 24.179 129.508 23.7072 129.331 23.2354C129.213 22.8226 129.508 22.4688 129.862 22.4688H130.864C131.1 22.4688 131.336 22.6457 131.395 22.8226C131.454 22.9995 131.572 23.1175 131.69 23.2354C131.926 23.4124 132.221 23.5303 132.574 23.5303H134.108C134.58 23.5303 134.992 23.3534 135.287 22.9995C135.582 22.6457 135.7 22.1739 135.7 21.5252V20.0508C135.405 20.4636 135.051 20.8175 134.639 21.0534C134.226 21.2893 133.813 21.4072 133.459 21.4072H132.221C131.277 21.4072 130.451 21.1124 129.862 20.4636C129.272 19.8149 128.977 18.9893 128.977 17.9277V12.5611C128.977 12.2072 129.213 11.9713 129.567 11.9713H130.569C130.923 11.9713 131.159 12.2072 131.159 12.5611V17.9277C131.159 18.3995 131.277 18.8124 131.513 19.1072C131.749 19.4021 132.044 19.52 132.457 19.52H133.577C134.049 19.52 134.462 19.3431 134.874 18.9303C135.228 18.5765 135.523 18.1047 135.641 17.5149C135.641 17.4559 135.641 17.397 135.641 17.338V12.5021C135.641 12.1483 135.877 11.9124 136.231 11.9124H137.233C137.587 11.9124 137.823 12.1483 137.823 12.5021V21.4072C137.823 22.5867 137.469 23.5303 136.821 24.238C136.113 24.9457 135.228 25.2995 134.108 25.2995H132.574C131.631 25.2995 130.805 25.0636 130.216 24.5329Z" fill="#757576"/>
<path d="M33.9694 4.18686C33.7335 3.77404 33.2027 3.59712 32.7899 3.89199L27.5412 6.89967C27.3643 6.72275 27.1873 6.6048 26.9514 6.42787L17.5155 1.00224C16.513 0.4125 15.2745 0.4125 14.2719 1.00224L4.89502 6.42787C3.89246 7.01762 3.24374 8.07916 3.24374 9.25864V20.051C3.24374 20.2868 3.30271 20.5227 3.30271 20.7586L0.943737 22.1151C0.530919 22.351 0.353996 22.8817 0.648866 23.2945C0.825789 23.5894 1.12066 23.7663 1.41553 23.7663C1.59246 23.7663 1.7104 23.7074 1.82835 23.6484L4.12835 22.292C4.30528 22.5279 4.54117 22.7048 4.83605 22.8227L14.2719 28.3074C14.7437 28.6022 15.3335 28.7202 15.9232 28.7202C16.513 28.7202 17.0437 28.6022 17.5745 28.3074L26.9514 22.8817C27.2463 22.7048 27.5412 22.4689 27.7181 22.233L31.2566 24.2971C31.3745 24.3561 31.5514 24.4151 31.6694 24.4151C31.9643 24.4151 32.2591 24.2381 32.4361 23.9433C32.6719 23.5304 32.554 22.9997 32.1412 22.7638L28.4848 20.6407C28.5437 20.4638 28.5437 20.2868 28.5437 20.1099V9.19967C28.5437 8.9048 28.4848 8.60993 28.4258 8.37403L33.6155 5.36635C34.0284 5.13045 34.2053 4.59968 33.9694 4.18686ZM26.7745 20.051C26.7745 20.5817 26.4796 21.0535 26.0078 21.3484L20.7591 24.3561C20.7591 24.3561 20.7002 24.3561 20.7002 24.2971L18.8719 23.2356L22.9412 20.8766C23.2361 20.6997 23.413 20.4048 23.413 20.1099V15.274C23.1181 15.5689 22.7053 15.7458 22.2335 15.7458C21.9976 15.7458 21.8207 15.6868 21.6437 15.6279V19.6381L17.1617 22.233L13.6232 20.1689C13.6232 20.8176 13.2694 21.4074 12.7386 21.7022L19.0489 25.3586L16.6309 26.774C16.1591 27.0099 15.6284 27.0099 15.1566 26.774L8.61041 22.9997L10.9104 21.7022C10.3796 21.4074 10.0258 20.8176 10.0258 20.1689L6.90015 21.9971L5.83861 21.3484C5.36681 21.1125 5.07194 20.5817 5.07194 20.051V9.19967C5.07194 8.6689 5.36681 8.19711 5.83861 7.90223L15.2155 2.4766C15.3925 2.35866 15.6284 2.29968 15.9232 2.29968C16.2181 2.29968 16.454 2.35866 16.6899 2.4766L26.0668 7.90223C26.2437 8.02018 26.4207 8.1971 26.5386 8.31505V8.37403C26.5386 8.433 26.5976 8.433 26.5976 8.49198C26.7155 8.72787 26.7745 8.9048 26.7745 9.19967V20.051Z" fill="#C5C5C5"/>
<path d="M21.4669 12.3257L18.0464 10.3205V8.02054C17.7515 8.25644 17.3387 8.43336 16.9259 8.43336C16.69 8.43336 16.4541 8.37438 16.2772 8.31541V10.3795L12.6797 12.4436V9.55387L15.5695 7.78464C15.3336 7.48977 15.1566 7.07695 15.1566 6.66413C15.1566 6.36926 15.2156 6.13336 15.3336 5.89746L11.7951 8.02054L9.9669 6.959C9.55408 6.7231 9.02331 6.84105 8.78742 7.25387C8.55152 7.66669 8.66947 8.19746 9.08229 8.43336L10.9105 9.4949V12.3846L9.67203 11.6769C9.25921 11.4411 8.72844 11.559 8.49254 11.9718C8.25665 12.3846 8.3746 12.9154 8.78742 13.1513L10.9105 14.3898V18.518C11.1464 18.3411 11.5002 18.2821 11.7951 18.2821C12.09 18.2821 12.4438 18.4 12.6797 18.518V14.3898L17.1618 11.7949L20.4643 13.6821C20.4643 13.1513 20.8772 12.6205 21.4669 12.3257Z" fill="#C5C5C5"/>
<path d="M22.2334 12.7371C22.1745 12.7371 22.1745 12.7371 22.2334 12.7371C21.5847 12.7371 21.054 13.2678 21.054 13.9165C21.054 13.9755 21.054 14.0345 21.054 14.0935C21.1129 14.4473 21.3488 14.8012 21.6437 14.9781C21.8206 15.096 21.9975 15.155 22.2334 15.155C22.8232 15.155 23.295 14.7422 23.4129 14.2114C23.4129 14.1524 23.4129 14.0345 23.4129 13.9755C23.4129 13.2678 22.8822 12.7371 22.2334 12.7371Z" fill="#C5C5C5"/>
<path d="M12.6796 19.3423C12.4437 19.1064 12.1488 18.9294 11.795 18.9294C11.4411 18.9294 11.1462 19.1064 10.9104 19.3423C10.7924 19.4602 10.7334 19.6371 10.6745 19.8141C10.6155 19.932 10.6155 20.05 10.6155 20.1679C10.6155 20.7577 11.0283 21.2294 11.5591 21.3474C11.618 21.3474 11.736 21.4064 11.795 21.4064C11.9129 21.4064 11.9719 21.4064 12.0309 21.3474C12.5616 21.2294 12.9745 20.7577 12.9745 20.1679C12.9745 20.05 12.9745 19.932 12.9155 19.8141C12.8565 19.5782 12.7975 19.4602 12.6796 19.3423Z" fill="#C5C5C5"/>
<path d="M16.277 7.60733C16.4539 7.72528 16.6898 7.78426 16.9257 7.78426C17.3975 7.78426 17.8693 7.48938 18.0462 7.07656C18.1052 6.95861 18.1642 6.78169 18.1642 6.60477C18.1642 6.42785 18.1052 6.25092 18.0462 6.13297C17.8693 5.72017 17.4565 5.42529 16.9257 5.42529C16.8078 5.42529 16.6898 5.42529 16.5719 5.48427C16.5129 5.48427 16.5129 5.48427 16.4539 5.48427C15.9821 5.66119 15.6873 6.074 15.6873 6.60477C15.6873 6.89964 15.8052 7.19451 16.0411 7.43041C16.1001 7.48938 16.1591 7.54836 16.277 7.60733Z" fill="#C5C5C5"/>
</g>
<defs>
<clipPath id="clip0_242_449">
<rect width="138" height="28.8974" fill="white"/>
</clipPath>
</defs>
</svg>
