<svg width="199" height="49" viewBox="0 0 199 49" fill="none" xmlns="http://www.w3.org/2000/svg">
<path d="M47.4484 16.2177V34.7204H55.4186C57.4383 34.6954 58.0142 34.6954 59.0908 34.3031C61.2941 33.5186 62.0786 31.8161 62.3373 30.9481C62.5961 30.1636 62.5961 29.5877 62.5961 29.2456C62.5961 26.0241 60.3677 25.0559 59.216 24.6887C59.7167 24.43 60.1591 24.1629 60.5513 23.7456C61.6279 22.669 61.7281 21.3838 61.7281 20.8329C61.7281 20.3572 61.6196 19.1304 60.76 18.0287C59.2661 16.1175 56.8792 16.2177 54.7343 16.2177H47.4484ZM51.4043 19.3641H54.4672C55.4353 19.3641 56.6955 19.2556 57.3799 20.1486C57.7722 20.6744 57.7972 21.3254 57.7972 21.5674C57.7972 22.2267 57.5385 22.669 57.3799 22.8777C56.754 23.6622 55.8109 23.6622 54.8928 23.7123H51.4043V19.3641ZM51.4043 26.4664H54.6508C55.7274 26.4914 57.3465 26.3329 58.081 27.4345C58.5233 28.0604 58.5233 28.7448 58.5233 28.9785C58.5233 30.4974 57.6303 31.0733 57.0544 31.2819C56.32 31.5156 55.0097 31.4906 54.9596 31.4906H51.3959V26.458L51.4043 26.4664ZM68.555 16.2177H64.8828V19.339H68.555V16.2177ZM68.555 21.3003H64.8828V34.7204H68.555V21.3003ZM77.6603 20.9081C73.5708 20.9581 71.8933 23.5787 71.3175 25.0476C71.0838 25.5734 70.7917 26.5415 70.7917 27.9853C70.7917 30.898 72.102 33.5186 74.9062 34.6119C76.0829 35.0876 77.268 35.1127 77.7104 35.1127C80.4061 35.1127 81.9334 33.9359 82.7179 33.118C84.5289 31.2068 84.579 28.845 84.579 27.9853C84.579 25.9156 83.9531 23.9209 82.3256 22.5105C80.5396 20.9665 78.5032 20.9081 77.6603 20.9081ZM77.6603 23.7123C77.9774 23.7123 78.7369 23.7623 79.4463 24.2881C80.598 25.1561 80.8651 26.5916 80.8651 27.9269C80.8651 29.2622 80.573 30.9898 79.3712 31.8328C78.6868 32.2751 77.9858 32.3335 77.7187 32.3335C77.4016 32.3335 76.7256 32.3085 76.0412 31.8578C75.1732 31.2569 74.4972 30.1553 74.4972 27.977C74.4972 24.8056 76.1497 23.7039 77.6686 23.7039L77.6603 23.7123ZM99.4262 28.9535C99.4262 28.0104 99.5848 24.238 96.6471 22.0848C95.1281 20.9832 93.5007 20.9081 92.8497 20.9081C88.7603 20.9081 86.1146 24.1296 86.1146 28.0604C86.0896 30.8146 87.3999 33.4852 90.0455 34.5869C91.2807 35.0876 92.4575 35.1127 92.9582 35.1127C93.3004 35.1127 94.4271 35.0876 95.4703 34.6954C96.9141 34.1696 98.141 33.0179 98.8003 31.6575C99.034 31.1818 99.1425 30.7395 99.1926 30.5559H95.679C95.4953 30.9731 95.3618 31.1818 95.2617 31.3404C94.5272 32.3919 93.5341 32.4671 93.0584 32.4671C90.805 32.4671 90.1791 30.8646 89.9954 30.0801C89.8619 29.6044 89.8619 29.1621 89.8369 28.9535H99.4262ZM89.8619 26.5165C89.937 25.8071 90.0455 25.4649 90.2041 25.1561C90.7048 24.1379 91.698 23.5036 92.8247 23.5036C93.9514 23.5036 94.8694 24.1045 95.3368 25.1311C95.5955 25.7069 95.6539 26.3078 95.679 26.5165H89.8619ZM114.315 25.9907C114.265 25.4649 114.207 25.2562 114.132 24.9975C113.689 23.32 112.037 20.9331 107.864 20.9081C103.724 20.9081 102.022 23.5036 101.421 24.9975C100.895 26.3078 100.845 27.6932 100.845 28.1439C100.845 31.3404 102.447 33.0179 103.441 33.7773C104.751 34.7705 106.22 35.1127 107.847 35.1127C108.765 35.1127 111.227 35.0376 113.013 32.9094C113.848 31.9162 114.215 30.8396 114.399 29.5794H110.835C110.601 31.2068 109.575 32.2751 107.872 32.2751C104.567 32.2751 104.567 28.6363 104.567 28.0855C104.567 24.7305 106.295 23.6789 107.922 23.6789C109.049 23.6789 110.101 24.2297 110.518 25.3314C110.651 25.6235 110.676 25.8321 110.701 25.9907H114.315ZM122.494 20.9081C118.405 20.9581 116.727 23.5787 116.151 25.0476C115.918 25.5734 115.626 26.5415 115.626 27.9853C115.626 30.898 116.936 33.5186 119.74 34.6119C120.917 35.0876 122.102 35.1127 122.544 35.1127C125.24 35.1127 126.767 33.9359 127.552 33.118C129.363 31.2068 129.413 28.845 129.413 27.9853C129.413 25.9156 128.787 23.9209 127.159 22.5105C125.373 20.9665 123.337 20.9081 122.494 20.9081ZM122.494 23.7123C122.811 23.7123 123.571 23.7623 124.28 24.2881C125.432 25.1561 125.699 26.5916 125.699 27.9269C125.699 29.2622 125.407 30.9898 124.205 31.8328C123.521 32.2751 122.82 32.3335 122.553 32.3335C122.235 32.3335 121.559 32.3085 120.875 31.8578C120.007 31.2569 119.331 30.1553 119.331 27.977C119.331 24.8056 120.984 23.7039 122.502 23.7039L122.494 23.7123ZM135.138 21.3003H131.624V34.7204H135.238V27.7767C135.263 26.8336 135.238 25.9656 135.764 25.1561C136.081 24.6804 136.757 23.9543 138.176 23.9543C138.91 23.9543 139.353 24.213 139.62 24.3966C140.429 25.0226 140.404 26.0992 140.404 26.9922V34.7204H144.043V26.2577C144.018 25.3647 144.018 24.5051 143.726 23.6371C142.858 21.0917 140.321 20.9081 139.536 20.9081C137.859 20.9081 136.807 21.534 136.256 21.9263C135.731 22.3185 135.472 22.6106 135.13 23.1614V21.3003H135.138ZM153.132 20.9081C149.042 20.9581 147.365 23.5787 146.789 25.0476C146.555 25.5734 146.263 26.5415 146.263 27.9853C146.263 30.898 147.573 33.5186 150.378 34.6119C151.554 35.0876 152.739 35.1127 153.182 35.1127C155.877 35.1127 157.405 33.9359 158.189 33.118C160 31.2068 160.05 28.845 160.05 27.9853C160.05 25.9156 159.424 23.9209 157.797 22.5105C156.011 20.9665 153.975 20.9081 153.132 20.9081ZM153.132 23.7123C153.449 23.7123 154.208 23.7623 154.918 24.2881C156.069 25.1561 156.337 26.5916 156.337 27.9269C156.337 29.2622 156.044 30.9898 154.843 31.8328C154.158 32.2751 153.457 32.3335 153.19 32.3335C152.873 32.3335 152.197 32.3085 151.513 31.8578C150.645 31.2569 149.969 30.1553 149.969 27.977C149.969 24.8056 151.621 23.7039 153.14 23.7039L153.132 23.7123ZM165.776 21.3003H162.262V34.7204H165.876V27.4345C165.901 26.5665 165.901 25.782 166.402 25.0226C166.66 24.6303 167.37 23.9209 168.63 23.9209C169.256 23.9209 169.707 24.1045 169.915 24.238C170.75 24.7889 170.725 25.6235 170.75 26.5165V34.7204H174.364V27.4345C174.364 26.5665 174.313 25.757 174.864 24.9725C175.156 24.5552 175.782 23.9543 177.009 23.9543C177.243 23.9543 177.769 23.9543 178.294 24.2714C179.054 24.7138 179.162 25.4482 179.212 26.2661V34.7288H182.851V25.6902C182.826 24.6971 182.743 24.2214 182.592 23.7206C181.967 21.8094 180.156 20.9164 178.269 20.9164C176.383 20.9164 175.231 21.7009 174.681 22.2017C174.313 22.5438 174.155 22.7525 173.871 23.1447C173.763 22.9611 173.662 22.7275 173.37 22.3602C172.561 21.3087 171.351 20.9164 170.065 20.9164C167.921 20.9164 166.735 21.9346 166.185 22.5939C166.026 22.7775 165.892 22.9611 165.767 23.1447V21.3087L165.776 21.3003ZM198.116 21.3003H194.293L191.306 30.8396L188.243 21.3003H184.262L188.977 33.6939C189.086 34.0611 189.186 34.3782 189.186 34.7705C189.186 35.4548 188.952 35.7636 188.71 35.9723C188.368 36.3145 187.976 36.448 187.058 36.448H185.589V39.4859L188.026 39.5109C188.76 39.5109 190.388 39.5861 191.639 37.967C192.19 37.2325 192.532 36.423 193.158 34.662L198.107 21.292L198.116 21.3003Z" fill="white"/>
<path fill-rule="evenodd" clip-rule="evenodd" d="M21.5807 0.654297L42.4483 12.6998V36.8021L21.5807 48.8534L0.707397 36.8022V12.6997L21.5807 0.654297ZM3.9236 14.557V34.9453L21.5804 45.1395L39.2321 34.9454V14.5569L21.5804 4.36773L3.9236 14.557Z" fill="white"/>
</svg>
