<svg width="86" height="124" viewBox="0 0 86 124" fill="none" xmlns="http://www.w3.org/2000/svg">
<path d="M0.168945 110.536V121.07H4.70692C5.85686 121.056 6.18473 121.056 6.79772 120.833C8.05219 120.386 8.49886 119.417 8.64617 118.923C8.79348 118.476 8.79347 118.148 8.79347 117.953C8.79347 116.119 7.52474 115.568 6.86899 115.359C7.1541 115.211 7.40595 115.059 7.62928 114.822C8.24227 114.209 8.29929 113.477 8.29929 113.163C8.29929 112.893 8.23751 112.194 7.74808 111.567C6.8975 110.479 5.53849 110.536 4.31727 110.536H0.168945ZM2.4213 112.327H4.16521C4.71642 112.327 5.43395 112.265 5.82359 112.774C6.04693 113.073 6.06118 113.444 6.06118 113.582C6.06118 113.957 5.91388 114.209 5.82359 114.328C5.46721 114.774 4.93026 114.774 4.40756 114.803H2.4213V112.327ZM2.4213 116.371H4.26975C4.88274 116.385 5.80459 116.295 6.22275 116.922C6.47459 117.278 6.47459 117.668 6.47459 117.801C6.47459 118.666 5.96615 118.994 5.63827 119.113C5.22012 119.246 4.47408 119.231 4.44557 119.231H2.41655V116.366L2.4213 116.371ZM12.1863 110.536H10.0955V112.313H12.1863V110.536ZM12.1863 113.43H10.0955V121.07H12.1863V113.43ZM17.3705 113.206C15.0421 113.235 14.087 114.727 13.7591 115.563C13.6261 115.862 13.4598 116.414 13.4598 117.236C13.4598 118.894 14.2058 120.386 15.8024 121.009C16.4724 121.28 17.1472 121.294 17.399 121.294C18.9338 121.294 19.8034 120.624 20.2501 120.158C21.2812 119.07 21.3097 117.725 21.3097 117.236C21.3097 116.057 20.9534 114.922 20.0267 114.119C19.0099 113.239 17.8504 113.206 17.3705 113.206ZM17.3705 114.803C17.5511 114.803 17.9835 114.831 18.3874 115.131C19.0431 115.625 19.1952 116.442 19.1952 117.202C19.1952 117.963 19.0289 118.946 18.3446 119.426C17.955 119.678 17.5558 119.711 17.4038 119.711C17.2232 119.711 16.8383 119.697 16.4486 119.441C15.9544 119.098 15.5696 118.471 15.5696 117.231C15.5696 115.425 16.5104 114.798 17.3752 114.798L17.3705 114.803ZM29.7632 117.787C29.7632 117.25 29.8535 115.102 28.1809 113.876C27.316 113.249 26.3894 113.206 26.0188 113.206C23.6904 113.206 22.1841 115.04 22.1841 117.278C22.1698 118.847 22.9158 120.367 24.4222 120.994C25.1254 121.28 25.7954 121.294 26.0806 121.294C26.2754 121.294 26.9169 121.28 27.5108 121.056C28.3329 120.757 29.0314 120.101 29.4068 119.327C29.5399 119.056 29.6016 118.804 29.6302 118.699H27.6296C27.5251 118.937 27.4491 119.056 27.3921 119.146C26.9739 119.745 26.4084 119.787 26.1376 119.787C24.8546 119.787 24.4982 118.875 24.3937 118.428C24.3176 118.158 24.3176 117.906 24.3034 117.787H29.7632ZM24.3176 116.399C24.3604 115.996 24.4222 115.801 24.5125 115.625C24.7976 115.045 25.363 114.684 26.0045 114.684C26.646 114.684 27.1687 115.026 27.4348 115.611C27.5821 115.938 27.6154 116.281 27.6296 116.399H24.3176ZM38.2404 116.1C38.2119 115.801 38.1787 115.682 38.1359 115.535C37.884 114.579 36.9432 113.22 34.5673 113.206C32.2104 113.206 31.241 114.684 30.8989 115.535C30.5995 116.281 30.571 117.069 30.571 117.326C30.571 119.146 31.4834 120.101 32.0488 120.533C32.7949 121.099 33.6312 121.294 34.5578 121.294C35.0805 121.294 36.4823 121.251 37.4991 120.039C37.9743 119.474 38.1834 118.861 38.288 118.143H36.2589C36.1259 119.07 35.5414 119.678 34.572 119.678C32.6903 119.678 32.6903 117.606 32.6903 117.293C32.6903 115.383 33.6739 114.784 34.6005 114.784C35.242 114.784 35.8408 115.097 36.0784 115.725C36.1544 115.891 36.1686 116.01 36.1829 116.1H38.2404ZM42.8972 113.206C40.5688 113.235 39.6137 114.727 39.2858 115.563C39.1528 115.862 38.9865 116.414 38.9865 117.236C38.9865 118.894 39.7325 120.386 41.3291 121.009C41.9991 121.28 42.6739 121.294 42.9257 121.294C44.4605 121.294 45.3301 120.624 45.7768 120.158C46.8079 119.07 46.8365 117.725 46.8365 117.236C46.8365 116.057 46.4801 114.922 45.5535 114.119C44.5366 113.239 43.3771 113.206 42.8972 113.206ZM42.8972 114.803C43.0778 114.803 43.5102 114.831 43.9141 115.131C44.5698 115.625 44.7219 116.442 44.7219 117.202C44.7219 117.963 44.5556 118.946 43.8713 119.426C43.4817 119.678 43.0825 119.711 42.9305 119.711C42.7499 119.711 42.365 119.697 41.9754 119.441C41.4812 119.098 41.0963 118.471 41.0963 117.231C41.0963 115.425 42.0371 114.798 42.902 114.798L42.8972 114.803ZM50.0962 113.43H48.0957V121.07H50.1532V117.117C50.1675 116.58 50.1532 116.086 50.4526 115.625C50.6331 115.354 51.018 114.941 51.8259 114.941C52.244 114.941 52.4959 115.088 52.6479 115.192C53.1088 115.549 53.0946 116.162 53.0946 116.67V121.07H55.1664V116.252C55.1521 115.744 55.1521 115.254 54.9858 114.76C54.4916 113.311 53.0471 113.206 52.6004 113.206C51.6453 113.206 51.0466 113.563 50.7329 113.786C50.4336 114.009 50.2863 114.176 50.0914 114.489V113.43H50.0962ZM60.3411 113.206C58.0127 113.235 57.0576 114.727 56.7297 115.563C56.5967 115.862 56.4304 116.414 56.4304 117.236C56.4304 118.894 57.1764 120.386 58.773 121.009C59.443 121.28 60.1178 121.294 60.3696 121.294C61.9044 121.294 62.774 120.624 63.2207 120.158C64.2518 119.07 64.2803 117.725 64.2803 117.236C64.2803 116.057 63.924 114.922 62.9974 114.119C61.9805 113.239 60.821 113.206 60.3411 113.206ZM60.3411 114.803C60.5217 114.803 60.9541 114.831 61.358 115.131C62.0137 115.625 62.1658 116.442 62.1658 117.202C62.1658 117.963 61.9995 118.946 61.3152 119.426C60.9256 119.678 60.5264 119.711 60.3744 119.711C60.1938 119.711 59.8089 119.697 59.4192 119.441C58.9251 119.098 58.5402 118.471 58.5402 117.231C58.5402 115.425 59.481 114.798 60.3458 114.798L60.3411 114.803ZM67.5401 113.43H65.5396V121.07H67.5971V116.922C67.6114 116.428 67.6114 115.981 67.8965 115.549C68.0438 115.325 68.4477 114.922 69.1652 114.922C69.5216 114.922 69.7782 115.026 69.897 115.102C70.3722 115.416 70.3579 115.891 70.3722 116.399V121.07H72.4297V116.922C72.4297 116.428 72.4012 115.967 72.7148 115.52C72.8811 115.283 73.2375 114.941 73.936 114.941C74.0691 114.941 74.3684 114.941 74.6678 115.121C75.1002 115.373 75.162 115.791 75.1905 116.257V121.075H77.2623V115.929C77.248 115.364 77.2005 115.093 77.115 114.808C76.7586 113.719 75.7274 113.211 74.6535 113.211C73.5796 113.211 72.9239 113.658 72.6103 113.943C72.4012 114.138 72.3109 114.256 72.1493 114.48C72.0876 114.375 72.0305 114.242 71.8642 114.033C71.4033 113.434 70.7143 113.211 69.9825 113.211C68.7613 113.211 68.0865 113.791 67.7729 114.166C67.6826 114.271 67.6066 114.375 67.5353 114.48V113.434L67.5401 113.43ZM85.9533 113.43H83.777L82.0759 118.861L80.3319 113.43H78.0653L80.7501 120.486C80.8119 120.695 80.8689 120.876 80.8689 121.099C80.8689 121.489 80.7359 121.664 80.5981 121.783C80.4032 121.978 80.1799 122.054 79.6572 122.054H78.8209V123.784L80.2084 123.798C80.6266 123.798 81.5532 123.841 82.2659 122.919C82.5796 122.501 82.7744 122.04 83.1308 121.037L85.9486 113.425L85.9533 113.43Z" fill="white"/>
<path fill-rule="evenodd" clip-rule="evenodd" d="M43.0672 0.298828L85.9539 25.0545V74.5888L43.0672 99.3565L0.168945 74.5891V25.0542L43.0672 0.298828ZM6.77881 28.8714V70.7729L43.0667 91.7238L79.3441 70.7732V28.8711L43.0667 7.93059L6.77881 28.8714Z" fill="white"/>
<path d="M27.2246 30.2598V72.4527H45.3907C49.9956 72.3976 51.3066 72.3976 53.7522 71.4943C58.7757 69.6986 60.5604 65.8208 61.1663 63.8489C61.7612 62.0532 61.7612 60.7422 61.7612 59.9601C61.7612 52.6121 56.6826 50.3978 54.0497 49.5606C55.1844 48.9657 56.1979 48.3708 57.1012 47.4124C59.5469 44.9667 59.7892 42.0363 59.7892 40.7805C59.7892 39.7009 59.5469 36.8917 57.5749 34.3909C54.1708 30.0284 48.7287 30.2708 43.8264 30.2708H27.2136L27.2246 30.2598ZM36.2471 37.4315H43.2425C45.4568 37.4315 48.3211 37.1891 49.8744 39.2271C50.7668 40.4169 50.8329 41.9152 50.8329 42.455C50.8329 43.9532 50.238 44.9667 49.8744 45.4404C48.4423 47.2361 46.2941 47.2361 44.201 47.3573H36.2581V37.4425L36.2471 37.4315ZM36.2471 53.6256H43.6612C46.1068 53.6807 49.8194 53.3282 51.4939 55.8399C52.5074 57.2721 52.5074 58.8254 52.5074 59.3652C52.5074 62.8354 50.4803 64.1463 49.1584 64.62C47.4839 65.1598 44.4984 65.0937 44.3772 65.0937H36.2471V53.6256Z" fill="white"/>
</svg>
