<svg width="384" height="150" viewBox="0 0 384 150" fill="none" xmlns="http://www.w3.org/2000/svg">
<path d="M79 79.7137H83.8513L90.6138 65.5517L94.387 73.1472H89.0947L87.1346 77.4595H96.3472L97.7193 79.7627H102.326L92.3779 59.2793H88.8007L79 79.7137Z" fill="#72A15F"/>
<path d="M107.569 58.3964C107.569 59.5725 106.589 60.5525 105.413 60.5525C104.237 60.5525 103.257 59.5725 103.257 58.3964C103.257 57.2203 104.237 56.2402 105.413 56.2402C106.638 56.2402 107.569 57.2203 107.569 58.3964Z" fill="#72A15F"/>
<path d="M107.618 61.9707H103.306V79.7589H107.618V61.9707Z" fill="#72A15F"/>
<path d="M120.849 62.0723H114.233C111.832 62.1213 109.921 64.0324 109.921 66.4336V79.8605H114.233V67.1686C114.282 66.8746 114.478 66.6296 114.772 66.5806H120.8V62.0723H120.849Z" fill="#72A15F"/>
<path d="M177.301 62.1699H170.783C168.382 62.1699 166.422 64.1301 166.422 66.5312V79.8601H170.783V67.2173C170.783 66.8742 171.077 66.5312 171.42 66.5312H177.301V62.1699Z" fill="#72A15F"/>
<path d="M163.972 66.2361C163.923 63.884 162.012 61.9728 159.709 61.9238H159.611H159.268H147.801V66.2361H158.974C159.366 66.2361 159.66 66.5301 159.66 66.9222V68.0982H150.496C148.193 68.1963 146.331 70.0094 146.282 72.3125V75.5468C146.429 77.7519 148.242 79.516 150.496 79.614H159.66C162.012 79.614 163.923 77.7519 164.021 75.4488L163.972 66.2361ZM150.594 74.8607V72.9986C150.643 72.7046 150.888 72.5085 151.133 72.4595H158.925C159.317 72.4595 159.611 72.7536 159.611 73.1456V74.7627C159.611 75.1057 159.317 75.3997 158.974 75.4488H151.28C150.937 75.4488 150.643 75.2037 150.594 74.8607Z" fill="#72A15F"/>
<path d="M203.175 86.4248C203.126 85.1017 202.097 84.0236 200.724 83.9746H200.675H200.528H194.011V86.4248H200.332C200.528 86.4248 200.724 86.5718 200.724 86.8168V87.4538H195.53C194.207 87.5029 193.178 88.5319 193.129 89.855V91.6681C193.227 92.9422 194.256 93.9223 195.53 93.9713H200.724C202.048 93.9713 203.126 92.9422 203.224 91.6191L203.175 86.4248ZM195.579 91.3251V90.296C195.628 90.149 195.726 90.002 195.873 90.002H200.283C200.479 90.002 200.675 90.149 200.675 90.394V91.3251C200.675 91.5211 200.528 91.7171 200.283 91.7171H195.922C195.775 91.6191 195.628 91.4721 195.579 91.3251Z" fill="#72A15F"/>
<path d="M197.294 66.4338C197.294 66.1888 197.245 65.8947 197.196 65.6497C196.853 63.6896 195.187 62.2195 193.178 62.0725H192.933H192.149H183.965V59.2793H179.8V75.2544C179.8 75.2544 179.8 75.2544 179.8 75.3034C179.849 77.6065 181.662 79.5177 183.965 79.6157H192.541H192.933H193.129C195.383 79.5177 197.196 77.6555 197.294 75.4014V75.2544V74.7153V66.4338ZM192.884 74.8134C192.884 75.2054 192.541 75.4994 192.198 75.4994H184.602C184.21 75.4994 183.916 75.2054 183.916 74.8134V66.9728C184.014 66.7278 184.259 66.5318 184.553 66.5318H192.198C192.59 66.5318 192.884 66.8258 192.884 67.2178V74.8134Z" fill="#72A15F"/>
<path d="M217.141 66.4336C217.141 66.0905 217.092 65.7965 217.043 65.4535C216.602 63.4934 214.838 62.0723 212.779 62.0723H203.812C201.509 62.1703 199.646 64.0814 199.646 66.4336V66.6786V75.2542C199.646 75.3522 199.646 75.4502 199.646 75.4992C199.793 77.7533 201.558 79.5175 203.812 79.6155H212.24H212.779H212.926C215.132 79.5665 216.896 77.8513 217.141 75.7442L217.19 75.6952V75.2542V74.8131L217.141 66.4336ZM204.498 75.4992C204.106 75.4992 203.812 75.2052 203.812 74.8131V66.9726C203.812 66.7276 204.155 66.5316 204.449 66.5316H212.093C212.485 66.5316 212.779 66.8256 212.779 67.2176V74.8131C212.779 75.2052 212.436 75.4992 212.093 75.4992H204.498Z" fill="#72A15F"/>
<path d="M237.231 66.4336C237.231 64.0324 235.271 62.0723 232.87 62.0723H223.903C223.854 62.0723 223.805 62.0723 223.756 62.0723C221.599 62.2683 219.884 63.9834 219.737 66.1885V66.4336V66.8256V79.6155H223.903V66.9726C223.903 66.6786 224.246 66.5316 224.54 66.5316H232.184C232.576 66.5316 232.87 66.8256 232.87 67.2176V79.6155H237.231V66.4336Z" fill="#72A15F"/>
<path d="M192.149 86.4269C192.149 85.0548 191.022 83.9277 189.65 83.9277H184.504C184.455 83.9277 184.455 83.9277 184.406 83.9277C183.181 84.0257 182.152 85.0548 182.103 86.2799V86.4269V86.6719V94.0224H184.504V86.7699C184.504 86.6229 184.7 86.5249 184.847 86.5249H189.209C189.405 86.5249 189.601 86.7209 189.601 86.9169V94.0224H192.1L192.149 86.4269Z" fill="#72A15F"/>
<path d="M214.494 86.4269C214.494 85.0548 213.367 83.9277 211.995 83.9277H206.85C206.801 83.9277 206.801 83.9277 206.752 83.9277C205.527 84.0257 204.498 85.0548 204.449 86.2799V86.4269V86.6719V94.0224H206.85V86.7699C206.85 86.6229 207.046 86.5249 207.193 86.5249H211.554C211.75 86.5249 211.946 86.7209 211.946 86.9169V94.0224H214.445L214.494 86.4269Z" fill="#72A15F"/>
<path d="M157.111 94.0211H145.546V82.1133H157.111V84.4164H147.899V87.0626H155.494V89.0228H147.899V91.6689H157.111V94.0211Z" fill="#72A15F"/>
<path d="M169.803 83.7793H166.569L163.972 86.9155L161.424 83.7793H158.189L162.355 88.9246L158.189 94.021H161.522L163.972 90.9338L166.471 94.021H169.803L165.638 88.9246L169.803 83.7793Z" fill="#72A15F"/>
<path d="M184.504 82.1133H182.103V88.1897H184.504V82.1133Z" fill="#72A15F"/>
<path d="M226.353 86.4269C226.353 85.0548 225.275 83.9767 223.952 83.9277H219.051H218.806H218.708C217.434 83.9767 216.356 85.0548 216.307 86.3289V86.4269V86.7209V91.4742C216.307 91.6213 216.307 91.7683 216.356 91.9153C216.552 93.0424 217.483 93.8754 218.659 93.9734H218.806H219.247H223.903V94.4144C223.903 94.6105 223.756 94.7575 223.56 94.8065H220.227V97.1096H223.903C225.226 97.1096 226.255 96.0806 226.353 94.8065V94.1694V93.9734V86.4269ZM223.952 91.1802C223.903 91.3272 223.756 91.4252 223.609 91.4252H219.247C219.051 91.4252 218.855 91.2292 218.855 91.0332V86.6719C218.855 86.4759 219.051 86.2799 219.247 86.2799H223.56C223.756 86.2799 223.952 86.4759 223.952 86.6719V91.1802Z" fill="#72A15F"/>
<path d="M180.927 87.456V86.0839C180.927 84.9078 179.947 83.9277 178.771 83.9277H172.891C171.714 83.9277 170.783 84.9078 170.734 86.0839V86.9659V91.8173C170.734 91.8663 170.734 91.8663 170.734 91.9153C170.783 93.0424 171.714 93.9734 172.891 93.9734H178.771C179.947 93.9734 180.927 92.9934 180.927 91.8173V90.4452H178.771V91.4742C178.771 91.6703 178.624 91.8173 178.477 91.8173H173.234C173.087 91.8173 172.94 91.6703 172.94 91.5233V86.3779C172.94 86.1819 173.087 86.0349 173.283 86.0349H178.477C178.624 86.0349 178.771 86.1819 178.771 86.3289V87.456H180.927Z" fill="#72A15F"/>
<path d="M237.918 86.4269C237.918 85.0548 236.84 83.9767 235.517 83.9277H230.616H230.371H230.273C228.999 83.9767 227.921 85.0548 227.872 86.3289V86.4269V86.6719V86.7699V87.897V90.5432V91.2292V91.5723C227.921 92.8953 228.95 93.9734 230.322 94.0224H230.371H230.567H237.085V91.5723H230.763C230.567 91.5723 230.371 91.4252 230.371 91.2292V89.6121H237.918V87.897V87.456V86.4269ZM230.371 87.456V86.7209C230.371 86.5249 230.567 86.3289 230.763 86.3289H235.076C235.272 86.3289 235.468 86.5249 235.468 86.7209V87.456H230.371Z" fill="#72A15F"/>
<path d="M143.929 66.4338V63.6406C143.929 61.2394 141.969 59.2793 139.568 59.2793H127.709C125.357 59.3283 123.446 61.2394 123.397 63.5916V63.6896V65.4537V75.2544C123.397 75.3034 123.397 75.3524 123.397 75.4014C123.495 77.7045 125.406 79.5177 127.709 79.5667H139.568C141.969 79.5667 143.929 77.6065 143.929 75.2054V72.4122H139.568V74.5193C139.568 74.8624 139.274 75.1564 138.931 75.2054H128.297C127.954 75.1564 127.709 74.9114 127.709 74.5683V64.2286C127.709 63.8366 128.003 63.5426 128.395 63.5426H138.98C139.274 63.5916 139.519 63.8366 139.568 64.1306V66.3848H143.929V66.4338Z" fill="#72A15F"/>
<path d="M275.454 49.3809L271.387 53.5461V58.2505L275.454 54.1342L279.571 58.2505V53.5461L275.454 49.3809Z" fill="#72A15F"/>
<path d="M275.454 55.8477L271.387 60.0129V64.7173L275.454 60.601L279.571 64.7173V60.0129L275.454 55.8477Z" fill="#72A15F"/>
<path d="M259.381 73.2928L270.75 79.8592V92.9921L259.381 99.5586L248.012 92.9921V79.8592L259.381 73.2928ZM259.381 68.9805L244.288 77.7031V95.1483L259.381 103.871L274.474 95.1483V77.7031L259.381 68.9805Z" fill="#72A15F"/>
<path d="M291.528 73.2928L302.896 79.8592V92.9921L291.528 99.5586L280.159 92.9921V79.8592L291.528 73.2928ZM291.528 68.9805L276.435 77.7031V95.1483L291.528 103.871L306.621 95.1483V77.7031L291.528 68.9805Z" fill="#72A15F"/>
<path d="M275.454 45.3123L286.823 51.8787V65.0116L275.454 71.5781L264.086 65.0116V51.8787L275.454 45.3123ZM275.454 41L260.361 49.7226V67.1678L275.454 75.8904L290.547 67.1678V49.7226L275.454 41Z" fill="#72A15F"/>
</svg>
