<svg width="384" height="150" viewBox="0 0 384 150" fill="none" xmlns="http://www.w3.org/2000/svg">
<g clip-path="url(#clip0_545:1747)">
<path d="M254.746 76.7774C254.945 76.6289 254.895 76.468 254.796 76.3319C254.658 76.1586 254.496 75.9977 254.334 75.8492C254.097 75.6388 253.873 75.4408 253.761 75.1314C253.661 74.8716 253.449 74.7231 253.199 74.6612C252.85 74.5745 252.501 74.5127 252.139 74.4755C251.491 74.4013 251.242 74.129 251.404 73.4979C251.528 72.9781 251.603 72.5079 251.267 72.0252C251.154 71.8767 251.154 71.6292 251.142 71.4188C251.129 71.1466 251.254 71.0104 251.516 71.0599C252.476 71.2579 253.362 71.5673 253.798 72.5697C253.885 72.7677 254.035 72.9534 254.197 73.0895C254.534 73.3741 254.746 73.7083 254.783 74.1538C254.833 74.6117 255.033 74.9211 255.506 75.0572C255.843 75.1438 256.055 75.4161 256.23 75.7007C257.19 77.2229 258.312 78.6337 259.435 80.0445C259.721 80.4034 260.033 80.7499 260.332 81.0964C260.395 81.1706 260.47 81.2573 260.557 81.3191C260.993 81.6533 261.38 81.5295 261.455 80.985C261.579 80.1682 261.679 79.3391 261.779 78.5223C261.791 78.4357 261.791 78.349 261.779 78.25C261.729 77.8912 261.043 77.0249 260.707 76.8764C260.457 76.765 260.208 76.8269 259.971 76.9135C259.584 77.0373 259.21 77.0249 258.836 76.8392C258.188 76.5175 258.125 75.9235 258.499 75.2799C258.786 74.7849 259.16 74.327 259.659 73.9929C259.796 73.9063 259.921 73.7949 260.021 73.6588C260.258 73.3246 260.058 72.9534 259.647 72.941C259.472 72.9286 259.297 72.9534 259.073 72.9658C258.998 72.4707 258.599 72.2851 258.212 72.0747C257.926 71.9262 257.639 71.753 257.34 71.6168C256.504 71.2208 255.768 70.7134 255.095 70.0947C254.496 69.5378 253.773 69.1913 252.913 69.1913C252.763 69.1913 252.613 69.1541 252.476 69.117C251.94 68.9685 251.404 68.9809 250.892 69.2036C250.643 69.315 250.394 69.315 250.219 69.1541C249.708 68.7086 249.109 68.7705 248.523 68.8076C248.423 68.82 248.311 68.8324 248.211 68.8447C247.613 68.919 247.139 68.6962 246.752 68.226C246.478 67.8918 246.465 67.8918 246.041 68.0403C245.58 68.2012 245.119 68.3869 244.62 68.3869C243.822 68.3745 243.086 67.5701 243.173 66.7781C243.198 66.5058 243.323 66.2707 243.535 66.0727C243.834 65.788 244.009 65.4291 244.096 65.0331C244.183 64.5752 243.996 64.2287 243.547 64.105C243.323 64.0431 243.073 64.0431 242.837 64.0307C242.55 64.0183 242.263 64.0431 241.989 64.0307C241.49 63.9936 241.066 63.7956 240.717 63.4491C240.542 63.2882 240.355 63.1397 240.155 63.0036C239.956 62.8798 239.744 62.8922 239.582 63.0778C238.896 63.8822 237.898 64.0555 236.951 64.2906C236.514 64.3896 236.053 64.3649 235.629 64.204C235.329 64.0926 235.167 63.8946 235.13 63.5728C235.105 63.2634 235.23 63.0283 235.504 62.8674C235.666 62.7808 235.828 62.7066 235.978 62.6199C236.464 62.3229 236.589 61.964 236.364 61.4443C236.265 61.2215 236.09 61.0235 235.99 60.7884C235.891 60.578 235.828 60.3552 235.791 60.1201C235.753 59.9097 235.866 59.7241 236.103 59.7241C236.639 59.7117 236.913 59.3899 237.113 58.9444C237.337 58.4494 237.761 58.1277 238.272 57.9544C238.609 57.8306 238.859 57.6326 239.033 57.3109C239.145 57.0881 239.307 56.8901 239.445 56.6797C239.669 56.3209 240.006 56.1352 240.417 56.0238C241.066 55.863 241.714 55.6773 242.363 55.4917C242.824 55.3679 243.148 55.0833 243.323 54.6378C243.522 54.1304 243.909 53.8953 244.47 53.8582C244.869 53.8334 245.268 53.7468 245.655 53.6601C245.78 53.6354 245.879 53.5488 245.992 53.4993C245.954 53.2889 245.842 53.2765 245.717 53.3013C245.144 53.3879 244.62 53.2146 244.096 53.0414C243.51 52.8434 243.086 52.4845 242.949 51.8533C242.874 51.4945 242.662 51.2346 242.325 51.0984C242.188 51.0366 242.051 50.9747 241.914 50.9128C241.652 50.8138 241.502 50.6282 241.44 50.3559C241.353 49.9475 241.502 49.6258 241.914 49.5391C242.637 49.3783 243.373 49.3288 244.071 49.6505C244.483 49.8362 244.819 49.8485 245.181 49.5391C245.43 49.3288 245.767 49.2545 246.104 49.2545C246.378 49.2545 246.64 49.2669 246.914 49.2298C247.313 49.1679 247.463 48.9699 247.388 48.5739C247.351 48.3759 247.276 48.1778 247.201 47.9798C247.151 47.8561 247.076 47.7447 247.027 47.621C246.777 47.0517 246.889 46.6804 247.451 46.4082C248.249 46.0245 249.059 45.6904 249.857 45.3315C250.007 45.2696 250.169 45.2201 250.306 45.1335C250.743 44.8984 250.88 44.49 250.668 44.0445C250.606 43.9083 250.506 43.797 250.443 43.6608C250.306 43.3514 250.443 43.1287 250.793 43.1163C250.892 43.1163 251.005 43.1287 251.104 43.1534C251.491 43.2029 251.641 43.1411 251.778 42.8688C251.915 42.5965 251.878 42.2377 251.666 42.0397C251.491 41.8788 251.279 41.755 251.092 41.6189C251.017 41.5694 250.955 41.5075 250.867 41.4456C250.88 41.359 250.88 41.26 250.917 41.1858C251.117 40.7155 251.329 40.2329 251.541 39.7626C251.653 39.5151 251.79 39.4656 252.052 39.6017C252.214 39.676 252.351 39.7873 252.514 39.8863C252.8 39.7873 253.025 39.5893 253.224 39.3666C253.324 39.2552 253.411 39.1314 253.511 39.0201C253.648 38.8592 253.81 38.7849 254.022 38.8963C254.047 38.9087 254.085 38.9087 254.11 38.9211C254.559 39.2676 254.945 39.0696 255.319 38.7973C255.693 38.5127 256.068 38.4755 256.479 38.7478C256.816 38.9706 257.19 38.9953 257.552 38.8592C258.225 38.6241 258.824 38.7602 259.372 39.1686C259.659 39.3789 259.884 39.4037 260.17 39.1809C260.432 38.9706 260.719 38.7849 261.006 38.5869C261.168 38.4755 261.33 38.3642 261.505 38.3023C261.991 38.129 262.315 37.8073 262.502 37.3494C262.627 37.0524 262.777 36.7554 262.889 36.4584C263.026 36.1118 263.263 35.9633 263.637 35.951C264.61 35.9015 265.545 36.0995 266.455 36.3717C267.54 36.6811 268.326 37.4236 268.862 38.3889C269.274 39.1314 269.835 39.7007 270.521 40.1586C271.044 40.5051 271.556 40.864 272.067 41.2105C272.429 41.458 272.815 41.6684 273.264 41.656C273.838 41.6436 274.262 41.9159 274.611 42.3367C274.698 42.4357 274.786 42.547 274.848 42.6584C274.985 42.9307 275.172 43.0421 275.484 43.0297C275.883 43.0173 276.195 43.2277 276.394 43.5742C276.619 43.9702 276.843 44.3786 277.055 44.787C277.18 45.0469 277.367 45.1583 277.654 45.1335C277.978 45.0964 278.315 45.0964 278.639 45.084C279.088 45.0593 279.474 45.2078 279.749 45.5419C279.961 45.8018 280.148 46.0988 280.31 46.3958C280.46 46.6681 280.609 46.9032 280.971 46.8908C281.145 46.8908 281.233 47.0022 281.283 47.1631C281.47 47.9551 281.682 48.7471 281.856 49.5391C281.968 50.0837 281.769 50.5292 281.308 50.8509C281.058 51.0242 280.809 51.2222 280.497 51.445C280.659 51.6058 280.784 51.7791 280.946 51.8905C281.258 52.1256 281.569 52.3484 281.919 52.534C282.156 52.6577 282.442 52.7567 282.717 52.7815C283.203 52.831 283.54 53.029 283.714 53.4869C283.852 53.8458 284.113 54.0562 284.45 54.2294C284.899 54.4645 285.335 54.7244 285.747 55.0091C285.934 55.1328 286.084 55.1452 286.283 55.0462C286.495 54.9348 286.72 54.8358 286.944 54.7739C287.468 54.6254 287.817 54.7863 288.029 55.2813C288.141 55.5288 288.191 55.7887 288.266 56.0486C288.366 56.3827 288.453 56.457 288.802 56.4446C288.914 56.4446 289.039 56.4199 289.151 56.3951C289.663 56.2714 290.124 56.3827 290.536 56.7169C291.371 57.4099 291.92 58.3133 292.281 59.3157C292.444 59.7612 292.319 60.1943 292.182 60.6275C292.094 60.9245 291.97 61.2215 291.945 61.5309C291.833 62.9541 292.294 64.1792 293.391 65.1074C294.239 65.8251 294.489 66.6914 294.327 67.731C294.277 68.0527 294.189 68.3745 294.102 68.6839C293.952 69.216 293.965 69.7358 294.164 70.2555C294.327 70.6392 294.451 71.0476 294.651 71.4065C295.05 72.1118 295.075 72.842 294.95 73.6093C294.825 74.3642 294.526 75.0572 294.164 75.7255C293.99 76.0596 293.716 76.2328 293.329 76.1957C293.204 76.1833 293.092 76.1957 292.967 76.1833C292.394 76.1462 291.882 76.2947 291.396 76.6041C290.985 76.8764 290.648 76.8145 290.324 76.4556C290.199 76.3071 290.112 76.1338 290.024 75.9606C289.538 74.9087 288.69 74.327 287.568 74.0795C287.156 73.9929 286.994 74.0919 286.894 74.5003C286.882 74.5622 286.882 74.6117 286.869 74.6736C286.745 75.2304 286.346 75.3789 285.884 75.0201C285.722 74.8963 285.585 74.7354 285.46 74.5746C285.273 74.3394 285.049 74.1785 284.762 74.129C284.4 74.0672 284.026 74.0177 283.652 73.9558C283.502 73.931 283.353 73.9063 283.216 73.8692C282.929 73.7949 282.792 73.5969 282.792 73.3123C282.792 73.1019 282.829 72.9039 282.854 72.6935C282.929 72.1366 282.654 71.7901 282.081 71.8148C281.819 71.8272 281.544 71.8767 281.308 71.9757C280.534 72.2851 279.799 72.248 279.075 71.8272C278.813 71.6787 278.552 71.5302 278.302 71.3817C277.941 71.1589 277.542 71.1094 277.142 71.2208C276.319 71.4436 275.509 71.6911 274.773 72.1242C274.474 72.2975 274.175 72.4707 273.925 72.6935C273.501 73.0771 273.027 73.3246 272.491 73.4731C271.182 73.8568 269.947 74.426 268.762 75.0943C268.039 75.5027 267.453 76.072 266.829 76.6041C266.518 76.8764 266.206 77.161 265.882 77.4209C265.445 77.7674 265.171 78.2129 265.034 78.7451C264.759 79.7598 264.71 80.787 264.722 81.8265C264.772 83.9675 264.822 86.096 264.859 88.237C264.884 89.3384 264.834 90.4274 264.722 91.5165C264.622 92.4817 264.734 93.4346 265.171 94.338C265.408 94.8331 265.42 95.3652 265.42 95.9097C265.42 97.271 265.296 98.6323 265.146 99.9936C265.071 100.674 265.084 101.355 265.034 102.036C265.009 102.37 264.959 102.716 264.872 103.038C264.734 103.558 264.685 104.077 264.697 104.622C264.722 105.352 264.722 106.07 264.747 106.8C264.759 107.184 264.585 107.444 264.236 107.604C263.699 107.852 263.126 107.951 262.54 107.926C262.265 107.914 262.078 107.778 262.028 107.518C261.954 107.122 261.891 106.726 261.866 106.33C261.829 105.513 261.841 104.696 261.829 103.879C261.779 102.097 261.704 100.328 261.692 98.5457C261.679 97.0606 261.767 95.588 261.804 94.1029C261.816 93.843 261.854 93.5584 261.791 93.3109C261.467 92.1971 261.542 91.0709 261.579 89.9572C261.642 88.2122 261.704 86.4549 261.791 84.71C261.816 84.215 261.717 83.7818 261.417 83.3734C261.018 82.8289 260.607 82.3092 260.046 81.9132C258.462 80.8117 256.803 80.9479 255.294 81.9998C255.207 82.0617 255.145 82.1359 255.082 82.2225C254.833 82.569 254.584 82.9279 254.334 83.2744C254.085 83.6086 254.06 83.9427 254.247 84.314C254.422 84.6729 254.571 85.0441 254.733 85.4154C254.783 85.5268 254.821 85.6381 254.833 85.7495C254.87 86.0713 254.708 86.2693 254.384 86.294C253.723 86.3559 253.125 86.1332 253.037 85.3411C252.962 84.6976 252.663 84.4625 251.965 84.3635C251.566 84.314 251.154 84.314 250.755 84.2769C250.169 84.215 249.695 83.7818 249.595 83.2126C249.583 83.1259 249.608 83.0146 249.645 82.9156C250.107 81.8389 250.855 81.3934 252.04 81.6533C252.464 81.7399 252.888 81.8142 253.324 81.6904C253.661 81.5914 253.96 81.4305 254.197 81.1706C254.496 80.8365 254.808 80.5271 255.12 80.193C255.22 80.0816 255.332 79.9826 255.419 79.8712C255.893 79.2772 255.818 78.6213 255.22 78.151C255.057 78.0273 254.87 77.9159 254.671 77.854C253.461 77.458 252.252 77.0744 251.042 76.7031C250.468 76.5299 249.87 76.4804 249.271 76.5051C248.76 76.5299 248.261 76.5299 247.75 76.5299C247.388 76.5299 247.039 76.4927 246.702 76.3442C246.278 76.1586 245.817 76.2205 245.381 76.2824C244.67 76.3814 243.971 76.5299 243.261 76.6041C242.612 76.666 241.951 76.7031 241.29 76.6784C240.629 76.6536 240.018 76.765 239.432 77.0744C238.759 77.4333 238.085 77.7798 237.412 78.1263C236.34 78.6708 235.217 79.0421 234.02 79.2029C233.584 79.2648 233.147 79.3886 232.711 79.4876C232.324 79.5866 232 79.4876 231.725 79.2153C231.476 78.9678 231.439 78.646 231.663 78.3738C231.8 78.2253 231.975 78.1015 232.162 78.0025C232.361 77.8788 232.598 77.8045 232.798 77.6808C233.459 77.2724 233.621 76.5794 233.234 75.9111C233.11 75.6883 232.973 75.478 232.848 75.2552C232.698 74.9829 232.686 74.6859 232.773 74.3889C232.885 74.0053 233.185 73.7578 233.584 73.733C233.821 73.7206 234.057 73.733 234.307 73.733C234.731 73.7454 234.806 73.6959 234.968 73.2999C235.105 72.9534 235.242 72.6069 235.392 72.2727C235.454 72.1366 235.529 72.0005 235.616 71.8891C235.828 71.6168 236.04 71.5426 236.364 71.6787C236.601 71.7777 236.826 71.8891 237.038 72.0376C237.262 72.1985 237.487 72.2108 237.749 72.149C238.41 71.9757 239.083 71.8148 239.756 71.6911C240.106 71.6292 240.467 71.6168 240.829 71.6045C241.041 71.6045 241.203 71.5426 241.353 71.3941C241.59 71.1589 241.826 70.9486 242.063 70.7134C242.774 69.9709 243.672 69.5873 244.682 69.5006C245.131 69.4635 245.58 69.4759 246.029 69.4635C246.328 69.4635 246.59 69.5873 246.765 69.8224C247.264 70.5402 247.949 70.9733 248.748 71.2827C249.147 71.4436 249.408 71.7158 249.496 72.1614C249.533 72.3965 249.496 72.6069 249.321 72.7677C249.009 73.0648 248.872 73.4608 248.785 73.8692C248.66 74.5127 248.959 75.0819 249.571 75.2923C249.932 75.4161 250.331 75.4903 250.705 75.4903C252.027 75.4903 253.237 75.8863 254.384 76.4927C254.484 76.5546 254.596 76.6041 254.708 76.6536C254.658 76.7774 254.696 76.765 254.746 76.7774ZM259.647 67.7186C259.634 67.6443 259.634 67.6072 259.622 67.5825C258.512 66.0355 257.153 64.9094 255.145 64.7361C254.446 64.6742 253.798 64.4144 253.212 63.9812C252.813 63.6842 252.326 63.511 251.865 63.2882C251.641 63.1768 251.391 63.2016 251.167 63.3129C250.917 63.4491 250.693 63.5233 250.406 63.4367C250.207 63.3748 249.982 63.5728 250.044 63.7585C250.182 64.2535 250.306 64.7732 250.83 65.0455C250.967 65.1198 251.104 65.2188 251.229 65.3178C251.553 65.5653 251.878 65.8375 252.214 66.085C252.538 66.3202 252.888 66.5182 253.224 66.7409C253.835 67.1617 254.334 67.6815 254.633 68.3745C254.696 68.523 254.796 68.6715 254.92 68.7581C255.544 69.1665 256.155 69.5749 256.866 69.8472C257.414 70.0575 257.938 70.3545 258.474 70.6268C258.699 70.7382 258.911 70.8867 259.123 71.0228C259.684 71.3569 260.245 71.7035 260.806 72.0376C260.894 72.0871 260.968 72.1242 261.081 72.1861C261.18 71.7901 261.28 71.4312 261.343 71.0723C261.355 70.9857 261.305 70.8619 261.243 70.8001C261.018 70.5897 260.781 70.3793 260.532 70.1937C260.357 70.0699 260.145 69.9833 259.933 69.8843C259.385 69.6244 259.135 69.1541 258.986 68.6096C258.886 68.2631 258.998 68.0651 259.322 67.8918C259.422 67.8423 259.522 67.7928 259.647 67.7186ZM274.474 67.0998C274.324 67.3349 274.299 67.5577 274.387 67.8052C274.436 67.9413 274.486 68.0898 274.511 68.226C274.561 68.4611 274.574 68.7086 274.362 68.8819C274.15 69.0551 273.925 69.0304 273.688 68.9314C273.613 68.9066 273.551 68.8819 273.489 68.8447C273.09 68.622 272.715 68.6839 272.341 68.9066C271.955 69.1418 271.618 69.4388 271.356 69.81C271.094 70.1937 270.733 70.4412 270.309 70.6144C269.685 70.8743 269.037 71.0104 268.363 71.0847C267.939 71.1342 267.49 71.1466 267.091 71.2827C266.256 71.5673 265.695 72.1861 265.333 72.9658C265.221 73.2133 265.221 73.5103 265.196 73.7825C265.196 73.8939 265.258 74.0548 265.346 74.1414C265.907 74.6612 266.455 74.8592 267.154 74.3765C267.54 74.1043 267.964 73.9434 268.426 73.8568C268.625 73.8196 268.837 73.7701 269.024 73.6835C270.059 73.2628 271.107 72.8667 272.117 72.3841C272.952 71.9757 273.751 71.4683 274.536 70.9486C274.923 70.6887 275.247 70.3174 275.571 69.9833C275.821 69.7234 276.033 69.4388 276.282 69.1789C276.818 68.6344 277.08 68.5972 277.791 68.919C278.078 69.0428 278.365 69.0923 278.664 69.018C278.988 68.9314 279.113 68.6467 278.938 68.3621C278.851 68.2136 278.714 68.0775 278.564 68.0032C278.252 67.8547 277.928 67.7433 277.591 67.6691C277.367 67.6196 277.105 67.5948 276.881 67.632C276.195 67.7805 275.584 67.632 274.973 67.3226C274.811 67.2483 274.648 67.1741 274.474 67.0998ZM261.38 59.0063C261.205 59.0682 261.056 59.1424 260.881 59.1796C260.495 59.2909 260.208 59.5013 260.008 59.8726C259.759 60.3181 259.397 60.6646 258.886 60.8379C258.587 60.9369 258.424 61.172 258.437 61.4814C258.437 61.7165 258.474 61.9517 258.524 62.1868C258.574 62.4095 258.661 62.6075 258.711 62.8303C258.811 63.2758 258.749 63.3748 258.35 63.5976C258.275 63.6347 258.2 63.6842 258.113 63.7337C258.088 64.2287 258.337 64.5629 258.711 64.8104C259.322 65.2064 259.946 65.59 260.569 65.9613C260.694 66.0355 260.844 66.085 260.981 66.1222C261.467 66.2707 261.767 66.1345 261.904 65.6519C261.991 65.3549 262.028 65.0455 262.066 64.7361C262.178 63.7956 262.016 62.8798 261.767 61.9764C261.555 61.1968 261.442 60.4047 261.579 59.6003C261.604 59.3899 261.53 59.2043 261.38 59.0063ZM289.239 70.0204C289.014 70.0823 288.702 70.1318 288.416 70.2432C287.917 70.4412 287.58 70.8248 287.468 71.3446C287.43 71.5302 287.43 71.8025 287.53 71.9386C288.029 72.5945 288.628 73.139 289.438 73.436C289.588 73.4979 289.725 73.4979 289.862 73.4113C290.286 73.1514 290.685 73.2133 291.072 73.4731C291.371 73.6711 291.708 73.7206 292.057 73.6464C292.493 73.5474 292.643 73.3865 292.681 72.9658C292.755 72.149 292.232 71.3941 291.421 71.1342C291.159 71.0476 290.872 71.0104 290.723 70.7629C290.423 70.1689 289.875 70.0947 289.239 70.0204ZM288.54 65.0826C288.441 64.4267 288.74 63.9317 289.027 63.4243C289.102 63.3006 289.139 63.1521 289.201 63.0159C289.264 62.8674 289.264 62.7066 289.114 62.6199C289.002 62.558 288.827 62.5209 288.702 62.5457C288.466 62.5952 288.353 62.7684 288.303 63.0159C288.191 63.5481 287.867 63.7956 287.331 63.7956C287.169 63.7956 287.007 63.7585 286.844 63.7213C286.333 63.5728 286.296 63.5852 286.021 64.0431C285.996 64.0926 285.959 64.1421 285.934 64.1916C285.735 64.6124 285.398 64.7485 284.936 64.6619C284.675 64.6124 284.4 64.6 284.138 64.6371C283.615 64.7114 283.103 64.8846 282.555 64.7237C282.243 64.6371 281.956 64.9465 281.906 65.3178C281.869 65.59 282.018 65.7385 282.392 65.8375C282.792 65.9365 283.153 65.8747 283.515 65.7014C283.951 65.4786 284.425 65.3796 284.887 65.6519C285.473 65.986 285.922 66.4563 286.059 67.1493C286.146 67.5701 286.371 67.7186 286.782 67.5701C286.969 67.5082 287.169 67.3968 287.318 67.2607C287.667 66.9637 287.655 66.5182 287.306 66.2212C287.181 66.1098 287.031 66.0479 286.894 65.9489C286.632 65.7756 286.495 65.5405 286.52 65.2311C286.533 65.0826 286.607 64.9094 286.72 64.8227C286.882 64.699 287.019 64.8475 287.119 64.9836C287.318 65.2559 287.605 65.3178 287.917 65.2435C288.091 65.194 288.278 65.1445 288.54 65.0826ZM267.603 60.8874C266.929 60.182 266.256 60.0953 265.483 60.578C265.37 60.6522 265.271 60.7389 265.158 60.8007C264.909 60.9369 264.647 61.0483 264.41 61.1968C264.223 61.3081 263.999 61.4319 263.924 61.6175C263.749 61.9764 263.625 62.36 263.55 62.7437C263.475 63.1768 263.699 63.4615 264.161 63.6347C264.498 63.7708 264.747 63.6718 265.034 63.2882C265.134 63.1521 265.208 63.0159 265.296 62.8798C265.657 62.3353 266.094 62.261 266.618 62.657C266.692 62.7066 266.755 62.7684 266.829 62.8179C267.665 63.4491 268.6 63.4243 269.561 63.2139C269.885 63.1397 269.984 62.8056 269.76 62.5457C269.648 62.4219 269.486 62.2982 269.324 62.261C269.062 62.1992 268.8 62.2115 268.525 62.1992C268.264 62.1868 267.989 62.2115 267.727 62.1744C267.129 62.1002 266.954 61.667 267.328 61.1968C267.416 61.1101 267.503 61.0111 267.603 60.8874ZM246.615 59.9097C246.54 59.7612 246.49 59.6622 246.428 59.5632C245.992 58.8083 245.617 58.7588 245.031 59.4271C244.794 59.6993 244.508 59.8478 244.146 59.8726C243.984 59.885 243.809 59.8726 243.66 59.8973C243.398 59.9468 243.123 59.9963 242.899 60.1077C242.525 60.3057 242.562 60.7636 242.949 60.9492C243.273 61.1101 243.572 61.0978 243.809 60.8255C244.258 60.3057 244.794 60.2191 245.43 60.3552C245.879 60.4666 246.291 60.3305 246.615 59.9097ZM256.679 49.2421C256.217 49.2421 255.905 49.4773 255.856 49.8857C255.806 50.3064 255.93 50.6282 256.417 50.7519C256.666 50.8138 256.903 50.8881 257.14 50.9623C257.365 51.0366 257.514 50.9376 257.601 50.7396C257.976 50.0094 257.489 49.2421 256.679 49.2421ZM267.653 69.3398C267.977 69.117 268.151 68.82 268.264 68.4735C268.326 68.2755 268.289 68.0898 268.089 67.9661C267.852 67.83 267.603 67.8423 267.366 67.9661C267.166 68.0775 267.116 68.2631 267.191 68.4611C267.303 68.7829 267.416 69.0799 267.653 69.3398ZM252.888 57.7316C252.875 57.8554 252.863 57.9173 252.863 57.9792C252.863 58.1772 252.9 58.3628 253.1 58.4742C253.312 58.5732 253.486 58.4618 253.623 58.3257C253.86 58.0905 254.085 57.8306 254.297 57.5584C254.347 57.4965 254.322 57.3851 254.334 57.2119C253.81 57.3975 253.349 57.5708 252.888 57.7316Z" fill="#72A15F"/>
<path d="M112.397 107.506C112.285 107.531 112.235 107.543 112.172 107.543C111.412 107.543 110.651 107.543 109.89 107.555C109.641 107.555 109.529 107.456 109.491 107.234C109.466 107.097 109.466 106.974 109.466 106.838C109.466 103.558 109.466 100.279 109.466 96.9992C109.466 96.8383 109.466 96.6774 109.466 96.467C109.092 96.4547 108.768 96.4175 108.444 96.4175C105.413 96.4175 102.371 96.4175 99.3404 96.4175C98.7917 96.4175 98.2305 96.4052 97.6818 96.4299C96.5096 96.467 95.4372 96.764 94.5642 97.5808C93.4419 98.6204 93.0927 99.9569 93.205 101.43C93.2299 101.826 93.3421 102.222 93.4668 102.593C94.0031 104.189 95.1503 105.031 96.8214 105.179C97.395 105.229 97.9811 105.254 98.5672 105.254C100.924 105.266 103.293 105.254 105.65 105.254C105.825 105.254 106.012 105.254 106.224 105.254C106.274 105.464 106.349 105.637 106.349 105.823C106.361 106.268 106.361 106.714 106.336 107.159C106.324 107.469 106.261 107.506 105.95 107.543C105.837 107.555 105.713 107.555 105.588 107.555C102.52 107.555 99.4526 107.555 96.3974 107.555C93.1551 107.543 90.7358 105.513 90.1373 102.345C89.7632 100.353 90.1248 98.509 91.2845 96.8383C92.3196 95.3533 93.7911 94.5365 95.5619 94.2395C96.2477 94.1281 96.9585 94.0786 97.6569 94.0662C101.336 94.0538 105.014 94.0538 108.693 94.0538C108.868 94.0538 109.042 94.0538 109.304 94.0538C109.192 93.7568 109.142 93.5093 109.03 93.2989C108.344 92.0985 107.296 91.3931 105.937 91.1827C105.214 91.0714 104.478 91.0342 103.755 91.0342C100.301 91.0219 96.8463 91.0342 93.392 91.0342C93.205 91.0342 93.0179 90.9971 92.8059 90.9847C92.6563 90.4278 92.6812 89.9081 92.7186 89.3759C92.756 88.7572 92.781 88.7324 93.4045 88.7324C97.4324 88.7324 101.448 88.7324 105.476 88.7448C106.461 88.7448 107.446 88.8809 108.369 89.2646C109.167 89.5863 109.89 90.0195 110.539 90.5764C111.823 91.6778 112.447 93.0886 112.447 94.7716C112.447 97.2219 112.459 99.6599 112.459 102.11C112.459 103.67 112.459 105.229 112.447 106.776C112.447 107.023 112.422 107.271 112.397 107.506Z" fill="#72A15F"/>
<path d="M157.402 94.0666C157.44 93.7201 157.34 93.4973 157.203 93.2745C156.517 92.1236 155.494 91.4182 154.173 91.1955C153.437 91.0717 152.689 91.0346 151.94 91.0346C148.511 91.0222 145.094 91.0222 141.665 91.0222C141.44 91.0222 141.228 91.0222 140.991 91.0222C140.817 90.2673 140.892 89.5619 140.929 88.807C141.178 88.7823 141.428 88.7204 141.677 88.7204C145.73 88.7204 149.783 88.6833 153.836 88.7328C155.931 88.7575 157.776 89.5 159.223 91.0593C160.158 92.0741 160.62 93.2993 160.62 94.673C160.632 98.7321 160.62 102.804 160.62 106.863C160.62 106.925 160.62 106.986 160.62 107.036C160.607 107.457 160.545 107.531 160.121 107.531C159.46 107.543 158.812 107.531 158.151 107.531C158.076 107.531 158.001 107.519 157.926 107.506C157.851 107.494 157.789 107.457 157.677 107.42C157.602 103.794 157.677 100.168 157.627 96.4921C157.39 96.4674 157.19 96.4179 156.991 96.4179C153.3 96.4179 149.608 96.4055 145.917 96.4303C145.356 96.4303 144.782 96.5416 144.246 96.7149C143.012 97.0862 142.164 97.9029 141.69 99.091C141.241 100.242 141.216 101.418 141.615 102.581C142.164 104.177 143.323 105.031 145.019 105.18C145.618 105.229 146.216 105.254 146.815 105.254C149.159 105.266 151.504 105.254 153.861 105.254C154.035 105.254 154.222 105.254 154.447 105.254C154.634 105.984 154.522 106.702 154.559 107.469C154.26 107.494 153.998 107.543 153.749 107.556C150.718 107.556 147.675 107.556 144.645 107.556C141.291 107.556 138.871 105.514 138.323 102.222C138.061 100.687 138.161 99.2024 138.896 97.8039C139.956 95.7744 141.59 94.5121 143.909 94.2151C144.558 94.1284 145.219 94.0666 145.867 94.0666C149.534 94.0542 153.187 94.0542 156.854 94.0542C157.041 94.0666 157.215 94.0666 157.402 94.0666Z" fill="#72A15F"/>
<path d="M226.239 107.47C225.939 107.507 225.702 107.556 225.466 107.556C222.335 107.556 219.218 107.581 216.088 107.556C213.818 107.532 211.474 106.356 210.464 103.732C209.441 101.084 209.753 98.646 211.524 96.4185C212.509 95.1686 213.856 94.5003 215.414 94.2651C216.15 94.1538 216.898 94.1043 217.647 94.0919C221.251 94.0795 224.855 94.0795 228.458 94.0795C228.583 94.0795 228.695 94.0795 228.82 94.0671C229.107 94.0424 229.182 93.931 229.107 93.6464C229.082 93.5598 229.045 93.4731 228.995 93.3989C228.284 92.1985 227.261 91.4064 225.852 91.1961C225.091 91.0847 224.306 91.0475 223.533 91.0352C220.141 91.0228 216.749 91.0228 213.344 91.0228C213.132 91.0228 212.933 91.0228 212.721 91.0228C212.534 90.2679 212.658 89.5501 212.621 88.8076C212.908 88.7705 213.145 88.721 213.394 88.721C217.435 88.721 221.463 88.6962 225.503 88.7333C227.698 88.7581 229.593 89.5377 231.052 91.2084C231.875 92.149 232.299 93.2627 232.299 94.5127C232.312 98.6337 232.312 102.755 232.312 106.876C232.312 107.074 232.274 107.284 232.262 107.494C232.1 107.519 231.988 107.544 231.875 107.544C231.227 107.544 230.591 107.556 229.942 107.544C229.444 107.532 229.381 107.47 229.381 106.962C229.381 106.282 229.381 105.601 229.381 104.92C229.381 102.359 229.381 99.7846 229.381 97.2229C229.381 97.2105 229.381 97.1981 229.381 97.1734C229.369 96.4556 229.344 96.4185 228.621 96.4185C224.929 96.4185 221.238 96.4061 217.547 96.4308C216.125 96.4432 214.916 96.9382 214.018 98.0644C213.494 98.7203 213.182 99.4628 213.12 100.304C213.07 101.121 213.082 101.938 213.382 102.718C213.93 104.165 215.003 104.945 216.512 105.18C216.923 105.242 217.347 105.255 217.759 105.255C220.34 105.267 222.934 105.255 225.515 105.255C226.214 105.255 226.214 105.255 226.226 105.935C226.251 106.43 226.239 106.913 226.239 107.47Z" fill="#72A15F"/>
<path d="M257.552 107.493C257.128 107.517 256.779 107.542 256.429 107.567C255.507 107.641 254.659 107.431 253.823 107.059C249.783 105.29 245.73 103.532 241.677 101.763C241.478 101.676 241.278 101.577 241.054 101.478C241.054 100.698 241.241 99.9807 241.49 99.2134C241.702 99.2134 241.914 99.2134 242.114 99.2134C245.119 99.2134 248.124 99.2134 251.13 99.2134C252.576 99.2134 253.786 98.6689 254.684 97.5304C255.669 96.2804 255.744 94.8944 255.22 93.4465C254.746 92.1347 253.773 91.4045 252.402 91.1942C251.691 91.0828 250.98 91.0457 250.257 91.0333C247.95 91.0085 245.655 91.0209 243.348 91.0333C242.725 91.0333 242.089 91.0952 241.478 91.1942C240.019 91.4293 238.859 92.6421 238.622 94.189C238.547 94.6716 238.522 95.1667 238.522 95.6493C238.51 99.1515 238.522 102.654 238.522 106.156C238.522 106.552 238.522 106.948 238.522 107.319C237.936 107.604 236.577 107.641 235.542 107.418C235.529 107.208 235.504 106.973 235.504 106.738C235.504 103.508 235.504 100.265 235.504 97.0353C235.504 96.4166 235.479 95.7854 235.492 95.1667C235.567 92.2956 237.637 89.6844 240.692 88.979C241.365 88.8181 242.076 88.7438 242.774 88.7315C245.73 88.7067 248.698 88.7067 251.653 88.7315C252.663 88.7315 253.649 88.88 254.596 89.2512C256.292 89.9071 257.427 91.0952 258.001 92.803C258.487 94.2632 258.649 95.7483 258.051 97.1962C257.14 99.4114 255.557 100.909 253.125 101.354C252.514 101.466 251.878 101.478 251.254 101.503C250.643 101.528 250.032 101.503 249.434 101.503C249.334 101.75 249.471 101.825 249.633 101.899C250.045 102.072 250.456 102.258 250.868 102.431C252.938 103.334 254.995 104.238 257.065 105.116C257.415 105.265 257.577 105.475 257.564 105.847C257.539 106.366 257.552 106.886 257.552 107.493Z" fill="#72A15F"/>
<path d="M203.88 107.554C203.855 107.257 203.805 106.997 203.805 106.737C203.792 104.782 203.792 102.826 203.792 100.859C203.792 98.9776 203.805 97.0965 203.78 95.2031C203.78 94.7205 203.742 94.2131 203.593 93.7552C203.131 92.332 202.121 91.4781 200.65 91.1935C200.101 91.0821 199.527 91.045 198.954 91.0326C197.37 91.0078 195.786 91.0202 194.203 91.0326C193.916 91.0326 193.641 91.0697 193.305 91.0945C193.28 91.2925 193.23 91.4905 193.23 91.6885C193.217 92.827 193.217 93.9779 193.217 95.1165C193.217 98.9033 193.217 102.678 193.217 106.465C193.217 106.786 193.192 107.108 193.192 107.442C192.507 107.603 191.846 107.541 191.197 107.517C191.01 107.504 190.898 107.393 190.86 107.22C190.836 107.083 190.836 106.96 190.836 106.824C190.836 101.725 190.836 96.6139 190.823 91.5152C190.823 91.3915 190.811 91.2553 190.798 91.0945C190.499 91.0697 190.212 91.0202 189.938 91.0202C188.217 91.0078 186.496 91.0078 184.775 91.0202C183.528 91.0326 182.381 91.342 181.433 92.2083C180.722 92.8641 180.298 93.6562 180.298 94.6338C180.286 95.8342 180.286 97.0347 180.286 98.2351C180.286 101.119 180.286 103.99 180.273 106.873C180.273 107.046 180.261 107.22 180.248 107.43C179.512 107.628 178.789 107.529 178.016 107.517C177.991 107.207 177.941 106.923 177.941 106.65C177.941 104.695 177.954 102.74 177.941 100.772C177.941 98.8291 177.929 96.8861 177.916 94.9432C177.904 93.3963 178.403 92.0226 179.463 90.8841C180.61 89.6465 182.031 88.9164 183.727 88.7803C184.301 88.7308 184.887 88.7184 185.473 88.7184C190.137 88.7184 194.801 88.706 199.465 88.7184C201.061 88.7184 202.545 89.1144 203.805 90.1292C204.852 90.9707 205.663 91.9855 205.975 93.3097C206.074 93.7057 206.124 94.1264 206.124 94.5348C206.137 98.6311 206.137 102.727 206.124 106.811C206.124 107.517 206.112 107.517 205.388 107.517C204.915 107.554 204.416 107.554 203.88 107.554Z" fill="#72A15F"/>
<path d="M287.493 96.9744C287.643 97.7293 287.568 98.41 287.531 99.1649C287.194 99.202 286.882 99.2515 286.583 99.2515C282.019 99.2639 277.467 99.2639 272.903 99.2639C272.579 99.2639 272.242 99.2391 271.918 99.2762C271.544 99.3258 271.531 99.3505 271.519 99.7341C271.506 100.514 271.506 101.306 271.531 102.085C271.544 102.741 271.868 103.274 272.329 103.731C273.115 104.511 274.075 104.957 275.185 105.093C276.407 105.254 277.629 105.241 278.851 105.241C281.557 105.254 284.263 105.254 286.969 105.254C287.132 105.254 287.294 105.254 287.468 105.254C287.643 105.959 287.605 106.615 287.531 107.271C287.518 107.345 287.418 107.444 287.331 107.481C287.206 107.531 287.069 107.543 286.944 107.543C283.278 107.543 279.612 107.555 275.958 107.543C274.624 107.543 273.302 107.37 272.055 106.85C270.808 106.33 269.785 105.538 269.037 104.412C268.588 103.744 268.351 103.001 268.339 102.197C268.339 100.551 268.326 98.905 268.326 97.2591C268.326 96.467 268.339 95.6874 268.301 94.8954C268.214 92.6059 269.286 90.9847 271.219 89.8586C272.566 89.0666 274.05 88.7695 275.596 88.7695C279.35 88.7448 283.104 88.7448 286.857 88.7324C287.057 88.7324 287.269 88.7819 287.468 88.8067C287.643 89.5368 287.593 90.2298 287.493 90.9847C287.269 90.9971 287.032 91.0342 286.795 91.0342C283.665 91.0342 280.547 91.0219 277.417 91.0342C276.42 91.0342 275.409 91.0837 274.437 91.3684C273.601 91.6159 272.853 91.9995 272.267 92.643C271.805 93.1381 271.519 93.7197 271.506 94.4003C271.494 95.0934 271.494 95.7988 271.519 96.4918C271.531 96.8259 271.581 96.8754 271.905 96.9002C272.042 96.9126 272.18 96.9126 272.304 96.9126C277.155 96.9126 281.994 96.9126 286.845 96.9126C287.069 96.9126 287.281 96.9621 287.493 96.9744Z" fill="#72A15F"/>
<path d="M126.937 91.0954C126.937 91.578 126.937 91.9864 126.937 92.4072C126.937 97.0108 126.937 101.602 126.925 106.206C126.925 106.614 127.012 107.035 126.825 107.48C126.114 107.617 125.391 107.604 124.63 107.493C124.593 107.282 124.543 107.084 124.543 106.886C124.543 105.03 124.555 103.174 124.555 101.33C124.555 98.1122 124.543 94.8946 124.53 91.677C124.53 91.1696 124.443 91.083 123.944 91.0583C123.819 91.0583 123.707 91.0583 123.583 91.0583C120.739 91.0583 117.896 91.0583 115.053 91.0583C114.841 91.0583 114.641 91.0583 114.392 91.0583C114.23 90.3157 114.255 89.598 114.354 88.8926C114.754 88.7688 136.028 88.6822 137.063 88.7936C137.1 88.9792 137.163 89.1772 137.175 89.3752C137.188 89.8083 137.175 90.2415 137.188 90.6622C137.2 90.8974 137.088 91.0211 136.863 91.0459C136.764 91.0583 136.651 91.0583 136.552 91.0583C133.771 91.0583 130.99 91.0459 128.209 91.0583C127.822 91.0335 127.423 91.0706 126.937 91.0954Z" fill="#72A15F"/>
</g>
<defs>
<clipPath id="clip0_545:1747">
<rect width="205" height="72" fill="white" transform="translate(90 36)"/>
</clipPath>
</defs>
</svg>
