<svg width="384" height="150" viewBox="0 0 384 150" fill="none" xmlns="http://www.w3.org/2000/svg">
<path d="M147.927 88.7154C145.359 85.61 144.075 82.0569 144.284 78.0259C144.314 77.6975 144.374 77.3989 144.404 77.0704C144.464 77.0406 144.523 77.0406 144.553 77.0107C145.688 79.7577 147.539 81.9374 149.958 83.6095C152.346 85.2517 154.944 86.3864 157.93 86.9238C157.81 86.5655 157.721 86.3267 157.631 86.0878C157.094 84.6844 156.795 83.2512 156.765 81.7583C156.736 79.9369 156.467 78.1752 155.989 76.4136C155.004 72.8006 153.302 69.6058 150.286 67.2469C150.196 67.1872 150.137 67.0678 149.958 66.8588C151.003 66.9185 151.898 67.0678 152.734 67.3066C153.571 67.5455 154.436 67.7844 155.243 68.1128C156.079 68.4413 156.885 68.8294 157.691 69.2773C158.467 69.6953 159.184 70.2328 159.93 70.7105C159.96 70.6807 160.02 70.6508 160.05 70.621C159.214 68.6204 158.557 66.59 158.288 64.4402C158.109 62.9473 158.049 61.4543 158.199 59.9912C157.243 57.7518 156.109 55.6319 154.765 53.6313C152.496 55.2138 150.764 57.3338 149.331 59.8121C148.495 61.305 147.838 62.8577 147.33 64.4999C146.225 68.0232 143.986 70.6508 140.881 72.6215C140.731 72.2035 140.552 71.8153 140.463 71.4271C140.373 71.0091 140.313 70.5911 140.343 70.1731C140.582 66.799 139.537 63.8729 137.566 61.1856C136.432 59.6329 134.879 58.5879 133.147 57.8116C132.908 57.722 132.699 57.6025 132.46 57.4831C132.431 57.4831 132.431 57.4234 132.431 57.3637C132.849 57.4234 133.237 57.4831 133.744 57.5428C133.804 57.2144 133.894 56.9158 133.923 56.6172C133.953 55.4228 133.416 54.3778 132.819 53.3925C132.58 53.0043 132.341 52.6161 132.132 52.228C131.774 51.5412 131.684 50.8246 131.983 50.0483C132.371 48.9734 132.042 48.0179 131.176 47.3013C130.878 47.0624 130.52 46.8534 130.191 46.6145C130.221 46.4951 130.191 46.3458 130.221 46.2264C130.908 43.4495 131.803 40.7622 133.117 38.2242C130.131 37.4479 126.966 37.0299 123.742 37C124.817 38.4332 125.772 39.9859 126.429 41.658C127.175 43.5092 128.191 45.1514 129.684 46.4652C129.713 46.4951 129.713 46.5548 129.773 46.6444C129.594 46.7041 129.385 46.7638 129.206 46.7937C128.22 47.0325 127.265 47.4207 126.518 48.0477C125.623 48.7942 124.608 49.2421 123.503 49.481C122.219 49.7795 120.905 49.9886 119.591 50.2274C118.755 50.3767 117.979 50.5559 117.292 51.0635C116.546 51.6308 116.307 52.3474 116.546 53.2432C116.605 53.4522 116.695 53.6612 116.814 53.8702C117.412 55.0048 117.77 56.1693 117.71 57.4831C117.68 58.3191 118.128 58.8267 118.934 59.0656C119.621 59.2448 120.278 59.1552 120.905 58.8865C121.353 58.7073 121.861 58.5282 122.338 58.4983C123.264 58.4087 123.861 58.8566 124.189 59.7225C124.428 60.3794 124.399 61.0363 124.279 61.723C124.13 62.4098 123.98 63.0965 123.921 63.7833C123.652 66.7393 124.279 69.3967 126.578 71.5167C127.265 72.1437 127.832 72.8902 128.161 73.786C128.609 74.9206 128.34 75.7865 127.325 76.4733C127.146 76.5927 126.996 76.7121 126.727 76.9212C127.056 76.951 127.205 76.951 127.355 76.951C129.713 76.951 131.803 76.115 133.804 74.9206C134.431 74.5325 135.088 74.1443 135.775 73.8158C136.73 73.368 137.745 73.0992 138.82 73.0097C140.074 72.9201 140.642 73.5471 141.03 74.5325C141.627 76.115 141.06 77.7273 139.597 78.7425C139.388 78.8918 139.179 79.0411 138.91 79.2203C139.089 79.4293 139.208 79.5487 139.328 79.6682C141.06 81.4298 142.015 83.5199 142.105 85.9982C142.164 87.6106 142.493 89.1931 142.941 90.7159C143.598 92.9254 144.732 94.8065 146.375 96.4488C147.808 97.882 149.211 99.3749 150.585 100.868C152.466 98.9271 154.168 96.8071 155.601 94.4781C155.332 94.3288 155.034 94.1795 154.765 94.0302C152.078 92.7164 149.808 90.9846 147.927 88.7154ZM121.502 55.3333C121.263 55.5721 120.935 55.7214 120.606 55.8409C120.129 56.02 119.77 55.8707 119.532 55.5423C119.263 55.1541 119.293 54.7958 119.591 54.3778C120.338 53.3626 121.89 52.9147 123.234 53.3029C122.667 53.9896 122.129 54.7062 121.502 55.3333ZM127.026 52.5266C127.205 51.153 128.4 50.1677 129.684 50.2573C130.251 50.2871 130.639 50.5857 130.758 51.0336C130.848 51.4815 130.699 51.8398 130.281 52.019C130.042 52.1085 129.803 52.1682 129.564 52.1981C128.34 52.3773 127.683 52.9744 127.474 54.1986C127.444 54.3778 127.384 54.5868 127.355 54.766C126.937 54.0493 126.937 53.273 127.026 52.5266ZM131.833 67.5156C131.624 67.5156 131.445 67.5156 131.236 67.5156C129.952 67.5455 128.698 67.7545 127.743 68.7697C126.638 66.9483 127.116 65.0374 129.415 64.3506C129.773 64.2312 130.251 64.3805 130.639 64.4402C131.087 64.5298 131.505 64.6791 131.923 64.7686C132.759 64.8881 133.117 65.3061 133.117 66.1123C133.117 66.9782 132.64 67.4858 131.833 67.5156ZM137.745 64.5895C137.178 64.7388 136.79 65.0075 136.551 65.5748C136.312 66.1123 135.864 66.1123 135.476 65.6943C134.939 65.0971 134.61 64.4103 134.61 63.8729C134.61 63.216 134.849 62.6785 135.297 62.2605C135.685 61.9022 136.611 61.8425 137.208 62.2008C137.805 62.5292 138.134 63.0368 138.283 63.6639C138.402 64.1715 138.253 64.4701 137.745 64.5895Z" fill="#E4EDE8"/>
<path d="M124.428 46.734C124.428 46.734 130.041 46.4951 130.191 46.5847C130.34 46.6742 132.012 47.0923 132.37 48.1075C132.729 49.1227 139.835 63.3354 139.835 63.3354L140.82 71.1584L140.91 72.6215C140.91 72.6215 141.268 74.6817 141.179 75.6372C141.089 76.5927 140.462 76.2941 140.462 76.2941L133.803 84.1171L148.673 102.63L150.524 100.868C150.524 100.868 159.721 91.8804 160.975 78.9217C162.229 65.963 157.034 52.0488 146.822 45.032C136.61 38.0152 131.415 37.1493 123.622 37" fill="#E4EDE8"/>
<path d="M158.258 59.9609C158.109 61.4539 158.169 62.917 158.348 64.4099C158.617 66.5597 159.274 68.5901 160.11 70.5907C160.08 70.6205 160.02 70.6504 159.99 70.6802C159.244 70.2025 158.527 69.6949 157.751 69.247C156.975 68.7991 156.138 68.411 155.302 68.0825C154.496 67.7541 153.63 67.5152 152.794 67.2763C151.928 67.0375 151.063 66.8882 150.017 66.8285C150.197 67.0375 150.256 67.1569 150.346 67.2166C153.332 69.6053 155.034 72.7703 156.049 76.3832C156.527 78.1449 156.795 79.9066 156.825 81.728C156.855 83.2209 157.154 84.6541 157.691 86.0575C157.781 86.2964 157.84 86.5352 157.99 86.8935C155.034 86.3561 152.406 85.2214 150.017 83.5792C147.599 81.9071 145.748 79.7274 144.613 76.9804C144.553 77.0103 144.494 77.0103 144.464 77.0401C144.434 77.3686 144.344 77.6672 144.344 77.9956C144.135 82.0564 145.419 85.6096 147.987 88.6851C149.868 90.9245 152.137 92.6861 154.735 93.9999C155.034 94.1492 155.302 94.2985 155.571 94.4478C159.184 88.6851 161.244 81.8773 161.244 74.5619C161.214 69.3963 160.169 64.4696 158.258 59.9609Z" fill="#72A15F"/>
<path d="M142.881 90.7159C142.403 89.1632 142.105 87.6106 142.045 85.9982C141.955 83.5199 141 81.4298 139.268 79.6682C139.149 79.5487 139.029 79.3994 138.85 79.2203C139.089 79.0411 139.328 78.8918 139.537 78.7425C141 77.7273 141.567 76.115 140.97 74.5325C140.612 73.5471 140.014 72.9201 138.76 73.0097C137.686 73.0694 136.67 73.3381 135.715 73.8158C135.028 74.1443 134.401 74.5325 133.744 74.9206C131.773 76.115 129.653 76.951 127.295 76.951C127.145 76.951 126.996 76.9212 126.668 76.9212C126.936 76.7121 127.116 76.5927 127.265 76.4733C128.25 75.7865 128.549 74.9206 128.101 73.786C127.743 72.9201 127.205 72.1736 126.518 71.5167C124.219 69.4266 123.592 66.7393 123.861 63.7833C123.921 63.0966 124.07 62.4098 124.219 61.7231C124.368 61.0363 124.368 60.3794 124.13 59.7225C123.801 58.8566 123.204 58.4087 122.278 58.4983C121.801 58.558 121.293 58.7073 120.845 58.8865C120.188 59.1253 119.531 59.2448 118.874 59.0656C118.068 58.8566 117.591 58.3192 117.65 57.4831C117.71 56.1693 117.352 55.0048 116.755 53.8702C116.635 53.6612 116.546 53.4522 116.486 53.2432C116.217 52.3474 116.456 51.6009 117.232 51.0635C117.919 50.5559 118.725 50.3767 119.531 50.2274C120.845 50.0184 122.159 49.7795 123.443 49.481C124.548 49.2421 125.563 48.7942 126.459 48.0477C127.235 47.3908 128.161 47.0325 129.146 46.7937C129.325 46.734 129.504 46.7041 129.713 46.6444C129.683 46.5548 129.653 46.4951 129.624 46.4652C128.131 45.1514 127.116 43.5092 126.369 41.658C125.712 39.9859 124.757 38.4332 123.682 37C123.652 37 123.592 37 123.562 37C102.84 37 86 53.8403 86 74.5922C86 95.344 102.84 112.214 123.622 112.214C134.162 112.214 143.717 107.855 150.555 100.868C149.181 99.3749 147.778 97.9119 146.345 96.4488C144.672 94.8066 143.568 92.8956 142.881 90.7159ZM110.663 52.7356C110.962 52.7953 111.111 52.9744 111.081 53.2432C111.081 53.5119 110.932 53.6612 110.663 53.691C110.604 53.7209 110.514 53.7209 110.454 53.7209C110.036 53.7508 109.618 53.7508 109.2 53.8403C108.812 53.9299 108.454 54.0792 108.095 54.1986C108.484 53.273 109.768 52.5564 110.663 52.7356ZM111.022 60.5287C110.783 60.7676 110.484 60.7377 110.335 60.4093C110.036 59.7822 109.529 59.6031 108.932 59.4538C108.364 59.3045 108.006 58.8865 107.827 58.349C107.439 57.2144 107.886 55.7812 108.842 55.0347C108.902 55.0048 108.961 55.0048 109.081 54.975C108.932 55.4229 108.752 55.8409 108.663 56.2589C108.454 57.2144 108.812 57.931 109.738 58.2893C110.066 58.4386 110.454 58.4983 110.813 58.6177C111.171 58.7372 111.529 58.9163 111.589 59.3344C111.589 59.8121 111.35 60.2003 111.022 60.5287ZM117.352 89.2827C117.292 89.6708 117.053 89.8799 116.605 89.9694C116.396 89.4618 116.008 89.1035 115.56 88.7751C115.351 88.6258 115.232 88.2675 115.232 87.9689C115.232 87.1926 115.59 86.5954 116.396 86.3565C116.277 86.5357 116.157 86.7447 116.068 86.9238C115.799 87.521 115.889 87.9689 116.426 88.3571C116.546 88.4466 116.695 88.5064 116.814 88.5959C117.113 88.7751 117.411 88.9244 117.352 89.2827ZM118.038 85.5205C118.009 85.6399 117.74 85.7593 117.561 85.7593C117.113 85.7295 116.695 85.6399 116.098 85.5802C116.605 85.1323 117.083 85.0427 117.62 85.1323C117.889 85.1323 118.128 85.2518 118.038 85.5205ZM131.505 99.2256C131.415 99.4645 131.415 99.7631 131.445 100.002C131.475 100.45 131.445 100.629 130.967 100.659C129.235 100.868 127.534 100.987 125.802 100.778C125.354 100.719 124.906 100.659 124.578 100.271C125.563 99.6138 125.682 99.1958 125.205 98.0612C125.175 98.0014 125.175 97.9716 125.145 97.9119C124.219 96.2696 124.458 94.6274 125.234 93.015C125.354 92.7762 125.473 92.5074 125.533 92.2387C125.682 91.5519 125.384 91.1041 124.697 91.0145C124.398 90.9846 124.1 91.0145 123.801 91.0145C122.876 91.0145 122.517 90.5367 122.667 89.6111C122.756 89.1334 122.726 88.6258 122.667 88.1182C122.458 87.0134 122.846 86.476 123.95 86.4461C124.309 86.4461 124.637 86.5058 124.996 86.5357C126.16 86.6253 127.354 86.7148 128.459 86.2072C128.788 86.0579 129.176 86.0579 129.564 85.9982C130.519 85.8489 131.266 87.103 130.758 87.8793C130.37 88.4765 130.46 89.0438 130.639 89.6708C130.788 90.2083 130.848 90.8055 130.848 91.3728C130.848 91.7311 130.699 92.0595 130.042 91.8207C130.251 92.0894 130.34 92.2387 130.43 92.3581C131.982 94.508 132.46 96.7474 131.505 99.2256Z" fill="#72A15F"/>
<path d="M141.508 51.1855C141.359 53.6339 140.97 56.0525 140.314 58.4412C140.284 58.5606 140.284 58.68 140.343 58.8592C140.851 58.2321 141.299 57.5752 141.836 57.0079C142.404 56.4108 142.971 55.8136 143.598 55.2761C144.225 54.7387 144.912 54.2609 145.628 53.8429C146.375 53.4249 147.151 53.0367 147.928 52.7381C148.704 52.4395 149.48 52.2007 150.286 52.0215C151.093 51.8424 151.899 51.7229 152.735 51.6334C152.944 51.6035 153.123 51.6035 153.332 51.6035C149.868 47.1247 145.419 43.4521 140.314 40.9141C140.433 41.6605 140.582 42.3771 140.791 43.1236C141.508 45.7512 141.657 48.4683 141.508 51.1855Z" fill="#E4EDE8"/>
<path d="M130.071 91.8814C130.728 92.1202 130.877 91.7918 130.877 91.4335C130.877 90.8662 130.788 90.2989 130.668 89.7315C130.519 89.1045 130.399 88.5372 130.788 87.94C131.265 87.1637 130.549 85.9395 129.593 86.0589C129.235 86.1186 128.817 86.1186 128.488 86.2679C127.354 86.8054 126.189 86.7158 125.025 86.5964C124.667 86.5665 124.338 86.5068 123.98 86.5068C122.875 86.5366 122.487 87.0741 122.696 88.1789C122.785 88.6566 122.785 89.1642 122.696 89.6718C122.547 90.5676 122.905 91.0453 123.83 91.0752C124.129 91.0752 124.428 91.0155 124.726 91.0752C125.413 91.1648 125.712 91.6126 125.562 92.2994C125.503 92.5681 125.383 92.807 125.264 93.0757C124.487 94.6881 124.248 96.3303 125.174 97.9725C125.204 98.0024 125.204 98.0621 125.234 98.1218C125.712 99.2565 125.592 99.6745 124.607 100.331C124.935 100.69 125.383 100.779 125.831 100.839C127.563 101.048 129.295 100.929 130.997 100.72C131.444 100.66 131.504 100.511 131.474 100.063C131.444 99.7939 131.444 99.4953 131.534 99.2863C132.49 96.8081 132.012 94.5687 130.489 92.4785C130.37 92.2994 130.25 92.1501 130.071 91.8814ZM129.295 87.1338C129.743 87.2234 130.041 87.4623 130.041 87.8504C130.041 88.1789 129.802 88.4177 129.324 88.4775C128.727 88.567 128.13 88.6566 127.533 88.7462C127.384 87.6713 128.518 87.0144 129.295 87.1338ZM125.294 89.1344C124.995 89.4031 124.637 89.4927 124.248 89.4329C123.711 89.3732 123.472 88.9552 123.681 88.4775C123.86 88.0296 124.248 87.7907 124.726 87.7609C125.264 87.7011 125.741 87.8206 126.488 88.1789C126.04 88.5073 125.682 88.8059 125.294 89.1344ZM128.638 96.3005C128.518 96.6886 128.279 96.8379 127.742 96.7185C127.115 96.5692 126.518 96.5393 125.861 96.7782C125.712 95.7033 126.04 95.1957 126.906 95.0763C127.145 95.0464 127.384 95.1061 127.623 95.1658C127.832 95.2255 128.011 95.4047 128.22 95.4943C128.638 95.7331 128.757 95.9422 128.638 96.3005ZM130.817 96.0019C130.758 96.0914 130.638 96.1512 130.519 96.181C130.161 96.2706 129.802 96.3303 129.384 96.39C129.086 95.6734 129.145 95.1957 129.593 94.8672C129.922 94.6284 130.22 94.6284 130.549 94.8971C130.847 95.1658 130.997 95.7331 130.817 96.0019Z" fill="#E4EDE8"/>
<path d="M110.753 58.5881C110.395 58.4686 110.036 58.4089 109.678 58.2596C108.752 57.8715 108.394 57.1847 108.603 56.2292C108.693 55.8112 108.872 55.3932 109.021 54.9453C108.932 54.9752 108.842 54.9752 108.782 55.005C107.827 55.7515 107.379 57.1847 107.767 58.3194C107.946 58.8867 108.304 59.3047 108.872 59.4241C109.469 59.5734 110.006 59.7824 110.275 60.3796C110.424 60.7081 110.723 60.7379 110.962 60.499C111.29 60.1706 111.529 59.7824 111.47 59.3047C111.47 58.8867 111.111 58.7374 110.753 58.5881Z" fill="#E4EDE8"/>
<path d="M116.844 88.5968C116.725 88.5073 116.576 88.4475 116.456 88.358C115.919 87.9698 115.799 87.5219 116.098 86.9247C116.187 86.7157 116.307 86.5366 116.426 86.3574C115.62 86.6262 115.262 87.2233 115.262 87.9698C115.262 88.2385 115.381 88.6267 115.59 88.776C116.038 89.1044 116.396 89.4627 116.635 89.9703C117.083 89.8808 117.322 89.6419 117.382 89.2836C117.412 88.9253 117.113 88.776 116.844 88.5968Z" fill="white"/>
<path d="M110.484 53.7492C110.544 53.7492 110.634 53.7492 110.693 53.7193C110.932 53.6596 111.082 53.5402 111.111 53.2715C111.111 52.9729 110.962 52.8236 110.693 52.7639C109.798 52.5548 108.514 53.3013 108.125 54.2568C108.514 54.1374 108.872 53.9582 109.23 53.8985C109.618 53.779 110.066 53.779 110.484 53.7492Z" fill="#E4EDE8"/>
<path d="M117.65 85.1041C117.113 85.0146 116.635 85.134 116.127 85.552C116.695 85.6416 117.143 85.7312 117.591 85.7312C117.74 85.7312 118.009 85.6117 118.068 85.4923C118.128 85.2534 117.889 85.134 117.65 85.1041Z" fill="white"/>
<path d="M152.764 51.6298C151.958 51.6895 151.122 51.8388 150.316 52.018C149.509 52.1971 148.703 52.436 147.957 52.7346C147.18 53.0332 146.404 53.4213 145.658 53.8393C144.941 54.2574 144.254 54.7351 143.627 55.2726C143 55.81 142.403 56.3773 141.866 57.0044C141.328 57.6015 140.85 58.2286 140.373 58.8556C140.283 58.6765 140.313 58.557 140.343 58.4376C141 56.0489 141.418 53.6303 141.537 51.1819C141.686 48.4648 141.537 45.7775 140.85 43.1201C140.671 42.4034 140.492 41.657 140.373 40.9105C138.074 39.7759 135.655 38.8503 133.147 38.1934C131.863 40.7314 130.967 43.4186 130.251 46.1955C130.221 46.3149 130.221 46.4344 130.221 46.5837C130.579 46.8225 130.907 47.0316 131.206 47.2704C132.102 47.987 132.4 48.9724 132.012 50.0174C131.743 50.7938 131.833 51.5104 132.162 52.1971C132.371 52.5853 132.609 52.9734 132.848 53.3616C133.445 54.3469 133.983 55.392 133.953 56.5864C133.953 56.8849 133.834 57.1835 133.774 57.512C133.266 57.4523 132.878 57.3925 132.46 57.3328C132.49 57.4224 132.49 57.4523 132.49 57.4523C132.729 57.5717 132.938 57.6613 133.177 57.7807C134.909 58.557 136.461 59.6021 137.596 61.1547C139.566 63.842 140.612 66.798 140.373 70.1422C140.343 70.5602 140.403 70.9783 140.492 71.3963C140.582 71.7845 140.761 72.1726 140.91 72.5906C143.986 70.5901 146.255 67.9924 147.36 64.4691C147.867 62.8268 148.524 61.2742 149.36 59.7812C150.764 57.303 152.525 55.183 154.794 53.6005C154.347 52.9137 153.839 52.2568 153.331 51.5999C153.152 51.5999 152.973 51.6298 152.764 51.6298Z" fill="#72A15F"/>
<path d="M131.923 64.7404C131.475 64.6807 131.057 64.5015 130.639 64.4119C130.221 64.3522 129.773 64.2029 129.415 64.3224C127.116 65.039 126.668 66.9499 127.743 68.7415C128.698 67.7561 129.952 67.5471 131.236 67.4874C131.445 67.4874 131.625 67.5173 131.834 67.4874C132.67 67.4575 133.117 66.9499 133.117 66.0542C133.147 65.2778 132.759 64.8897 131.923 64.7404Z" fill="#72A15F"/>
<path d="M137.208 62.2307C136.581 61.9023 135.685 61.9321 135.297 62.2904C134.879 62.7085 134.64 63.2161 134.61 63.9028C134.61 64.4403 134.939 65.127 135.476 65.7242C135.864 66.1422 136.312 66.1422 136.551 65.6048C136.79 65.0374 137.178 64.7389 137.746 64.6194C138.253 64.5 138.402 64.2014 138.283 63.7237C138.104 63.0668 137.775 62.5293 137.208 62.2307Z" fill="#72A15F"/>
<path d="M127.414 54.2283C127.653 53.004 128.28 52.4069 129.504 52.2277C129.743 52.1979 130.011 52.1381 130.22 52.0486C130.638 51.8694 130.818 51.5111 130.698 51.0632C130.609 50.6153 130.191 50.3168 129.623 50.2869C128.339 50.1973 127.145 51.1827 126.966 52.5562C126.876 53.3026 126.876 54.0491 127.235 54.7956C127.354 54.5866 127.384 54.4074 127.414 54.2283Z" fill="#72A15F"/>
<path d="M119.591 54.409C119.292 54.827 119.262 55.2151 119.531 55.5734C119.77 55.9019 120.128 56.0213 120.606 55.872C120.934 55.7526 121.263 55.6033 121.502 55.3644C122.099 54.7075 122.666 54.0208 123.233 53.334C121.92 52.9459 120.367 53.3938 119.591 54.409Z" fill="#72A15F"/>
<path d="M128.19 95.4948C127.981 95.3754 127.802 95.2261 127.593 95.1663C127.354 95.0768 127.115 95.0171 126.876 95.0768C126.01 95.2261 125.682 95.7337 125.831 96.7787C126.488 96.5399 127.085 96.5697 127.712 96.719C128.25 96.8384 128.489 96.719 128.608 96.301C128.757 95.9427 128.638 95.7337 128.19 95.4948Z" fill="#72A15F"/>
<path d="M124.727 87.7296C124.249 87.7894 123.861 87.9984 123.682 88.4463C123.473 88.9538 123.711 89.342 124.249 89.4017C124.637 89.4614 124.995 89.3719 125.294 89.1031C125.682 88.7747 126.04 88.4761 126.488 88.1178C125.742 87.7894 125.264 87.6699 124.727 87.7296Z" fill="#72A15F"/>
<path d="M129.325 88.4767C129.773 88.417 130.041 88.1781 130.041 87.8497C130.041 87.4914 129.773 87.2227 129.295 87.1331C128.519 87.0137 127.384 87.6705 127.503 88.7455C128.13 88.6559 128.728 88.5663 129.325 88.4767Z" fill="#72A15F"/>
<path d="M129.594 94.867C129.146 95.1954 129.056 95.6732 129.385 96.3898C129.803 96.3002 130.161 96.2704 130.519 96.1808C130.639 96.1509 130.758 96.0912 130.818 96.0016C130.997 95.7329 130.848 95.1656 130.549 94.8968C130.251 94.6281 129.952 94.6281 129.594 94.867Z" fill="#72A15F"/>
<path d="M88.0005 78.2051C88.0005 78.2051 96.988 84.3858 93.1661 96.7175C94.1514 98.091 95.2263 99.3749 96.3908 100.599C96.9581 98.7479 97.3463 96.6578 97.406 94.3885C97.7046 84.7441 92.0016 79.5189 88.0005 78.2051Z" fill="#72A15F"/>
<path d="M112.754 99.6465C112.754 99.6465 117.86 103.05 119.92 112.068C120.786 112.157 121.682 112.217 122.577 112.247C121.025 107.499 118.158 102.543 112.754 99.6465Z" fill="#72A15F"/>
<path d="M306.447 68.2329C306.447 67.2476 307.253 66.4414 308.238 66.4414C309.224 66.4414 310 67.2476 310 68.2329C310 69.2183 309.194 69.9946 308.208 69.9946C307.223 69.9946 306.447 69.2183 306.447 68.2329ZM308.208 66.6803C307.372 66.6803 306.686 67.367 306.686 68.2031C306.686 69.069 307.372 69.7557 308.208 69.7557C309.044 69.7557 309.731 69.069 309.731 68.2329C309.761 67.3969 309.074 66.7101 308.208 66.6803Z" fill="#72A15F"/>
<path d="M307.791 69.0675C307.701 69.0675 307.611 69.0675 307.552 69.0675C307.552 68.4703 307.552 67.8731 307.552 67.2461C307.582 67.2461 307.611 67.2461 307.641 67.2461C307.88 67.2461 308.119 67.2461 308.328 67.2461C308.597 67.2461 308.836 67.4551 308.866 67.7537C308.895 67.9926 308.776 68.1717 308.567 68.2912C308.776 68.5002 308.866 68.7689 308.895 69.0675C308.806 69.0675 308.716 69.0675 308.657 69.0675C308.657 69.0078 308.627 68.948 308.627 68.8883C308.597 68.739 308.537 68.5897 308.418 68.4703C308.328 68.3807 308.209 68.321 308.059 68.321C307.97 68.321 307.88 68.321 307.791 68.321C307.791 68.5897 307.791 68.8286 307.791 69.0675ZM307.791 68.112C307.791 68.112 307.82 68.112 307.791 68.112C308 68.112 308.149 68.112 308.328 68.112C308.507 68.112 308.657 67.9328 308.627 67.7537C308.597 67.6044 308.477 67.5148 308.328 67.5148C308.149 67.5148 308 67.5148 307.82 67.5148H307.791C307.791 67.694 307.791 67.903 307.791 68.112Z" fill="#72A15F"/>
<path d="M282.649 66.2949C284.053 66.2949 285.396 66.2949 286.77 66.2949C287.815 69.3704 288.83 72.4757 289.905 75.6109C290.114 75.3421 290.054 75.1331 290.054 74.9241C290.054 72.2667 290.054 69.6391 290.054 66.9817C290.054 66.7727 290.054 66.5637 290.054 66.2949C291.219 66.2949 292.324 66.2949 293.488 66.2949C293.488 71.6098 293.488 76.8948 293.488 82.1798C292.115 82.1798 290.801 82.1798 289.398 82.1798C288.323 79.0148 287.278 75.8796 286.203 72.7444C286.143 72.7444 286.113 72.7444 286.053 72.7444C286.053 72.9236 286.024 73.1027 286.024 73.2819C286.024 76.0289 286.024 78.746 286.024 81.493C286.024 81.702 286.024 81.911 286.024 82.1499C284.859 82.1499 283.754 82.1499 282.62 82.1499C282.649 76.8948 282.649 71.6098 282.649 66.2949Z" fill="#72A15F"/>
<path d="M210.809 82.1803C210.541 81.6727 210.511 81.1353 210.481 80.6277C210.421 79.7021 210.421 78.7764 210.361 77.8508C210.332 77.4627 210.302 77.0745 210.242 76.7162C210.123 76.119 209.764 75.7607 209.137 75.6711C208.57 75.5816 208.003 75.5816 207.376 75.6413C207.376 75.8801 207.346 76.119 207.346 76.3579C207.346 78.0897 207.346 79.7916 207.346 81.5234C207.346 81.7325 207.316 81.9415 207.316 82.1803C206.092 82.1803 204.927 82.1803 203.763 82.1803C203.643 81.7922 203.613 66.9524 203.733 66.2955C203.852 66.2955 203.972 66.2656 204.091 66.2656C206.092 66.2656 208.092 66.2656 210.063 66.2955C210.451 66.2955 210.869 66.3552 211.257 66.4149C212.78 66.7135 213.706 67.6093 214.064 69.1022C214.273 70.0278 214.273 70.9833 214.064 71.9089C213.825 73.0137 213.198 73.7602 212.123 74.1483C212.034 74.1782 211.914 74.2379 211.824 74.2678C211.795 74.2678 211.795 74.3275 211.765 74.3872C212.004 74.4469 212.213 74.5066 212.422 74.5962C213.138 74.8351 213.676 75.3128 213.825 76.0593C213.974 76.8655 214.064 77.6717 214.124 78.4779C214.183 79.0452 214.153 79.6125 214.153 80.1499C214.183 80.8367 214.213 81.5234 214.601 82.1505C214.183 82.2699 211.735 82.2998 210.809 82.1803ZM207.376 68.9231C207.376 70.3563 207.346 71.6999 207.376 73.1033C208.092 73.163 208.719 73.163 209.316 72.9838C209.854 72.8346 210.212 72.4762 210.391 71.9388C210.57 71.3416 210.57 70.7743 210.451 70.1771C210.332 69.5799 209.943 69.1918 209.346 69.0425C208.719 68.8633 208.092 68.8335 207.376 68.9231Z" fill="#72A15F"/>
<path d="M295.34 82.2102C295.34 76.8953 295.34 71.6103 295.34 66.3253C295.489 66.2955 295.609 66.2656 295.728 66.2656C297.49 66.2656 299.251 66.2656 300.983 66.2955C301.58 66.2955 302.178 66.3851 302.745 66.5344C304.178 66.8927 305.104 67.8481 305.581 69.2216C305.82 69.8785 305.94 70.5951 306.029 71.2819C306.268 73.6407 306.179 75.9697 305.82 78.3286C305.462 80.6874 303.82 82.1505 301.461 82.2102C299.55 82.2699 297.609 82.2401 295.698 82.2401C295.579 82.2401 295.489 82.2102 295.34 82.2102ZM299.132 68.8932C298.953 69.4904 298.983 79.1347 299.132 79.5826C299.669 79.6423 300.237 79.6125 300.774 79.4931C301.371 79.3736 301.759 79.0153 301.939 78.448C302.088 77.9404 302.207 77.4328 302.267 76.9252C302.416 75.1038 302.446 73.2824 302.297 71.4312C302.267 70.9833 302.178 70.5354 302.028 70.1174C301.849 69.5501 301.461 69.1321 300.834 69.0425C300.267 68.9529 299.729 68.9231 299.132 68.8932Z" fill="#72A15F"/>
<path d="M202.181 74.1147C202.211 75.518 202.24 76.9214 201.972 78.2949C201.882 78.7428 201.763 79.2205 201.613 79.6684C201.166 81.0419 200.21 81.9376 198.807 82.3258C197.373 82.714 195.94 82.714 194.507 82.3258C193.104 81.9376 192.148 81.0419 191.67 79.6385C191.342 78.683 191.193 77.6678 191.133 76.6526C191.014 74.7118 190.984 72.7411 191.223 70.8003C191.312 70.0539 191.491 69.3074 191.79 68.5908C192.327 67.3069 193.283 66.4708 194.656 66.1424C195.94 65.8438 197.194 65.8139 198.478 66.0826C200.18 66.441 201.255 67.5159 201.763 69.1581C202.031 70.024 202.151 70.8899 202.181 71.7857C202.211 72.562 202.181 73.3383 202.181 74.1147ZM198.448 73.9056C198.389 72.8904 198.389 71.9051 198.299 70.9496C198.269 70.442 198.15 69.9344 198.001 69.4567C197.821 68.8297 197.344 68.5311 196.687 68.5012C196 68.4713 195.522 68.7401 195.254 69.3671C195.164 69.5761 195.074 69.7851 195.074 69.9941C194.985 70.8003 194.865 71.6065 194.865 72.4127C194.865 74.2042 194.895 75.9958 194.985 77.7873C195.015 78.2949 195.164 78.7726 195.313 79.2504C195.433 79.6684 195.731 79.967 196.209 80.0565C197.105 80.2058 197.732 79.9968 198.03 79.0413C198.18 78.5337 198.269 77.9664 198.299 77.429C198.389 76.2645 198.389 75.0701 198.448 73.9056Z" fill="#72A15F"/>
<path d="M277.276 66.2955C278.53 66.2955 279.724 66.2955 280.948 66.2955C280.948 66.5045 280.978 66.7135 280.978 66.8927C280.978 70.2368 280.978 73.5512 280.978 76.8953C280.978 77.5821 280.918 78.2688 280.799 78.9556C280.5 80.8666 279.336 82.0609 277.425 82.4491C276.201 82.6879 274.977 82.7178 273.752 82.4192C271.841 82.0012 270.677 80.6874 270.498 78.7466C270.438 78.1196 270.408 77.4925 270.408 76.8356C270.408 73.5512 270.408 70.2368 270.408 66.9524C270.408 66.7434 270.408 66.5344 270.408 66.2656C271.662 66.2656 272.886 66.2656 274.141 66.2656C274.141 66.5045 274.141 66.7135 274.141 66.9225C274.141 70.4458 274.141 73.999 274.141 77.5224C274.141 77.9703 274.141 78.4181 274.23 78.866C274.409 79.7021 274.947 80.0902 275.783 80.0604C276.44 80.0305 276.888 79.7021 277.067 79.075C277.156 78.7466 277.216 78.3883 277.216 78.0598C277.246 76.4773 277.246 74.8649 277.246 73.2824C277.246 71.1326 277.246 69.0126 277.246 66.8628C277.276 66.7135 277.276 66.5045 277.276 66.2955Z" fill="#72A15F"/>
<path d="M189.639 82.2086C188.833 82.2086 188.027 82.2086 187.161 82.2086C187.101 81.7905 187.072 81.3725 187.012 80.8649C186.863 81.0142 186.803 81.0739 186.773 81.1635C186.295 81.9398 185.579 82.3579 184.683 82.5072C183.787 82.6564 182.891 82.6564 181.996 82.3877C180.921 82.0891 180.174 81.4024 179.697 80.3872C179.308 79.5213 179.129 78.5957 179.04 77.6402C178.86 75.4605 178.86 73.2808 179.04 71.131C179.099 70.5338 179.189 69.9366 179.338 69.3693C179.816 67.5778 180.951 66.5029 182.772 66.1147C183.907 65.8758 185.041 65.8758 186.176 66.1147C188.057 66.5029 189.132 67.6674 189.43 69.638C189.49 70.0859 189.52 70.5637 189.55 71.0713C188.356 71.0713 187.221 71.0713 186.027 71.0713C185.997 70.7727 185.937 70.4442 185.907 70.1456C185.877 69.9366 185.847 69.7276 185.788 69.5186C185.579 68.8318 185.161 68.5034 184.474 68.5034C183.787 68.5034 183.28 68.8318 183.071 69.4887C182.951 69.847 182.862 70.2352 182.862 70.5935C182.682 73.1614 182.623 75.7292 182.921 78.2971C182.951 78.5359 183.011 78.8047 183.071 79.0435C183.28 79.7303 183.757 80.0886 184.414 80.1185C185.071 80.1483 185.668 79.79 185.907 79.1331C186.056 78.7151 186.146 78.2672 186.176 77.8193C186.236 77.3117 186.176 76.8041 186.176 76.2667C185.638 76.0577 185.071 76.2667 184.444 76.0875C184.384 75.3112 184.414 74.5349 184.444 73.6988C186.176 73.6988 187.878 73.6988 189.58 73.6988C189.699 74.1168 189.759 81.2531 189.639 82.2086Z" fill="#72A15F"/>
<path d="M240.967 82.2096C242.311 76.8948 243.655 71.6098 244.998 66.2949C246.581 66.2949 248.104 66.2949 249.746 66.2949C251.06 71.5501 252.343 76.8351 253.687 82.1798C252.373 82.2694 251.149 82.2096 249.835 82.2395C249.626 81.2542 249.417 80.2987 249.238 79.3432C248.79 79.2238 246.103 79.1939 245.416 79.3133C245.327 79.7911 245.237 80.2688 245.148 80.7764C245.058 81.2542 244.938 81.7319 244.849 82.2096C243.535 82.2096 242.311 82.2096 240.967 82.2096ZM247.357 69.6391C247.297 69.6391 247.238 69.6391 247.208 69.6092C246.79 71.8188 246.342 74.0283 245.954 76.2976C246.879 76.3275 247.745 76.3275 248.671 76.2976C248.223 74.0283 247.805 71.8188 247.357 69.6391Z" fill="#72A15F"/>
<path d="M238.34 46.6465C239.385 46.6465 240.341 46.6465 241.296 46.6465C241.445 47.0645 241.445 60.2621 241.296 60.7995C240.132 60.7995 238.967 60.7995 237.743 60.7995C237.265 59.3962 236.817 58.0227 236.339 56.6193C235.862 55.2458 235.414 53.8424 234.906 52.3794C234.727 52.6182 234.787 52.8272 234.787 53.0064C234.787 55.3951 234.787 57.7539 234.787 60.1426C234.787 60.3517 234.787 60.5308 234.787 60.7995C233.742 60.8592 232.756 60.8592 231.741 60.7995C231.741 56.0818 231.741 51.394 231.741 46.6763C231.92 46.6465 232.1 46.6465 232.249 46.6465C233.145 46.6465 234.01 46.6465 234.906 46.6465C235.384 46.6465 235.384 46.6465 235.563 47.1242C236.369 49.5129 237.146 51.9016 237.952 54.2903C238.012 54.4993 238.101 54.6785 238.221 54.8875C238.34 54.2007 238.31 53.5439 238.31 52.8571C238.31 52.2002 238.31 51.5135 238.31 50.8566C238.31 50.1698 238.31 49.4831 238.31 48.7963C238.34 48.0797 238.34 47.393 238.34 46.6465Z" fill="#72A15F"/>
<path d="M204.958 60.7683C204.958 56.0805 204.958 51.3926 204.958 46.7048C205.077 46.675 205.167 46.6152 205.286 46.6152C207.018 46.6451 208.75 46.6451 210.511 46.675C210.75 46.675 210.989 46.7347 211.198 46.7645C212.631 47.0034 213.527 47.8693 214.035 49.1831C214.363 50.049 214.453 50.9746 214.512 51.9002C214.602 53.7813 214.542 55.6624 214.214 57.5435C213.885 59.4545 212.482 60.7384 210.541 60.7981C208.779 60.8579 207.018 60.828 205.256 60.828C205.196 60.828 205.107 60.7981 204.958 60.7683ZM208.272 58.4393C208.75 58.4393 209.168 58.4692 209.586 58.4393C210.213 58.3796 210.661 58.0213 210.87 57.4241C210.929 57.2151 210.989 57.0061 211.019 56.7971C211.258 55.1548 211.258 53.4827 211.168 51.8107C211.138 51.3329 211.079 50.8253 210.989 50.3476C210.899 49.8997 210.72 49.5115 210.302 49.2727C209.645 48.9144 208.959 48.9144 208.242 49.0039C208.272 52.169 208.272 55.2743 208.272 58.4393Z" fill="#72A15F"/>
<path d="M256.823 53.6331C256.763 52.3791 256.763 51.0951 257.032 49.8411C257.091 49.5126 257.211 49.1842 257.33 48.8557C257.838 47.5121 258.823 46.7059 260.227 46.4372C261.212 46.258 262.167 46.258 263.153 46.4073C264.765 46.7059 265.81 47.6315 266.228 49.1842C266.467 50.0202 266.586 50.8861 266.616 51.752C266.706 53.5734 266.736 55.3649 266.437 57.1863C266.348 57.6342 266.258 58.1119 266.109 58.5598C265.721 59.7542 264.885 60.5305 263.69 60.859C262.436 61.2173 261.152 61.2471 259.868 60.9187C258.525 60.5604 257.599 59.7243 257.241 58.3807C257.032 57.6044 256.882 56.7982 256.823 55.992C256.763 55.2157 256.823 54.4095 256.823 53.6331ZM263.332 53.7526C263.302 53.7526 263.272 53.7526 263.242 53.7526C263.242 52.9464 263.272 52.1103 263.242 51.3042C263.212 50.7368 263.123 50.1994 263.003 49.6321C262.854 48.9453 262.376 48.587 261.749 48.587C261.092 48.587 260.645 48.9155 260.436 49.6022C260.346 49.8709 260.286 50.1397 260.286 50.4084C260.107 52.6478 260.107 54.8872 260.316 57.1266C260.346 57.4849 260.465 57.8731 260.585 58.2314C260.764 58.739 261.212 58.9779 261.749 58.9779C262.287 58.9779 262.705 58.7688 262.914 58.2314C263.033 57.9029 263.153 57.5446 263.183 57.1863C263.212 56.0218 263.272 54.8872 263.332 53.7526Z" fill="#72A15F"/>
<path d="M223.201 60.7981C222.066 60.7981 220.961 60.7981 219.827 60.7981C220.155 59.1858 220.603 57.663 220.991 56.1103C221.379 54.5278 221.797 52.9453 222.185 51.3628C222.574 49.8101 222.992 48.2575 223.38 46.6451C223.589 46.6451 223.798 46.6152 223.977 46.6152C224.962 46.6152 225.948 46.6152 226.903 46.6152C227.56 46.6152 227.56 46.6152 227.739 47.2423C228.754 51.3926 229.799 55.543 230.815 59.6934C230.904 60.0517 230.964 60.3801 231.083 60.7981C229.919 60.7981 228.814 60.7981 227.68 60.7981C227.5 59.9322 227.321 59.0962 227.142 58.2303C226.007 58.2303 224.903 58.2303 223.768 58.2303C223.529 59.0365 223.38 59.9024 223.201 60.7981ZM226.605 55.543C226.396 54.4979 226.216 53.5126 226.037 52.5571C225.828 51.6016 225.709 50.6462 225.44 49.6907C225.38 49.6907 225.351 49.6907 225.291 49.6907C224.933 51.6315 224.544 53.5723 224.186 55.543C225.022 55.543 225.769 55.543 226.605 55.543Z" fill="#72A15F"/>
<path d="M269.691 69.1907C267.87 69.2504 266.108 69.1907 264.316 69.2205C264.316 70.3552 264.316 71.4301 264.316 72.5647C265.989 72.5946 267.661 72.5647 269.333 72.5946C269.333 73.5799 269.333 74.4757 269.333 75.4311C268.765 75.5506 268.198 75.461 267.661 75.4909C267.123 75.4909 266.586 75.4909 266.018 75.4909C265.451 75.4909 264.914 75.4909 264.287 75.4909C264.227 76.6553 264.257 77.7601 264.257 78.8649C264.257 79.9697 264.257 81.0744 264.257 82.2091C263.003 82.2091 261.778 82.2091 260.554 82.2091C260.554 76.8942 260.554 71.6391 260.554 66.3242C263.6 66.3242 266.616 66.3242 269.661 66.3242C269.691 67.2498 269.691 68.1755 269.691 69.1907Z" fill="#72A15F"/>
<path d="M276.41 50.4985C275.424 50.4985 274.439 50.4985 273.424 50.4985C273.364 50.1701 273.334 49.8715 273.274 49.5729C273.095 48.8563 272.647 48.5577 271.931 48.5876C271.363 48.6174 270.945 48.9459 270.766 49.5132C270.497 50.3492 270.766 51.1256 271.513 51.6033C271.781 51.7825 272.08 51.9019 272.379 52.0512C273.095 52.3796 273.842 52.7081 274.558 53.0067C276.081 53.6636 276.857 54.7982 276.857 56.4404C276.857 57.1272 276.798 57.8139 276.648 58.4708C276.41 59.5457 275.693 60.2922 274.678 60.6804C274.26 60.8297 273.812 60.9491 273.364 61.0088C272.379 61.1581 271.423 61.1581 270.438 61.0088C268.527 60.6804 267.571 59.6055 267.392 57.6646C267.362 57.3362 267.392 56.9779 267.392 56.6196C268.437 56.6196 269.423 56.6196 270.468 56.6196C270.497 56.9779 270.557 57.3063 270.587 57.6646C270.736 58.5604 271.184 58.9486 271.99 58.9486C272.826 58.9486 273.364 58.4708 273.513 57.6348C273.663 56.7092 273.334 55.9627 272.498 55.5447C271.841 55.2162 271.184 54.9773 270.497 54.6788C270.109 54.4996 269.721 54.3503 269.363 54.1413C268.318 53.5441 267.691 52.6484 267.541 51.454C267.422 50.7075 267.452 49.9611 267.631 49.2445C267.959 47.871 268.796 46.9752 270.169 46.587C271.453 46.2287 272.737 46.2287 274.051 46.5572C275.872 47.0648 276.648 48.8563 276.41 50.4985Z" fill="#72A15F"/>
<path d="M277.484 56.6194C278.529 56.6194 279.514 56.6194 280.53 56.6194C280.559 56.7687 280.589 56.8881 280.589 57.0374C280.619 57.336 280.649 57.6047 280.709 57.9033C280.888 58.5901 281.276 58.9185 281.963 58.9782C282.679 59.0081 283.247 58.6797 283.486 58.0526C283.874 57.0673 283.515 56.0521 282.56 55.5743C281.933 55.2758 281.306 55.007 280.679 54.7383C280.559 54.6786 280.44 54.6487 280.321 54.589C277.783 53.5141 276.797 50.8567 278.051 48.3784C278.559 47.3632 279.425 46.8257 280.5 46.557C281.604 46.2883 282.739 46.2883 283.844 46.5271C285.516 46.8855 286.412 47.9604 286.561 49.6922C286.591 49.931 286.561 50.1998 286.561 50.5282C285.576 50.5879 284.59 50.5581 283.545 50.5282C283.515 50.3789 283.456 50.2893 283.456 50.1699C283.426 49.9609 283.396 49.7818 283.366 49.5727C283.187 48.886 282.799 48.5874 282.112 48.6173C281.455 48.6173 280.977 49.0054 280.828 49.6623C280.649 50.4984 280.918 51.215 281.664 51.6629C281.963 51.842 282.321 51.9913 282.65 52.1406C283.306 52.4392 283.963 52.7378 284.65 53.0065C286.233 53.6634 286.979 54.8876 286.979 56.5895C286.979 57.127 286.949 57.6346 286.83 58.1422C286.531 59.7546 285.486 60.6503 283.904 60.9788C282.769 61.2177 281.634 61.2475 280.5 61.0385C278.619 60.7101 277.633 59.6053 277.484 57.6645C277.454 57.336 277.484 56.9777 277.484 56.6194Z" fill="#72A15F"/>
<path d="M288.173 46.7048C288.621 46.5854 295.787 46.5854 296.235 46.7048C296.235 47.511 296.235 48.3172 296.235 49.2129C295.697 49.2727 295.16 49.2428 294.623 49.2428C294.085 49.2428 293.577 49.2428 293.04 49.2428C292.503 49.2428 291.965 49.2428 291.368 49.2428C291.368 50.258 291.368 51.1836 291.368 52.2287C292.861 52.2287 294.354 52.2287 295.877 52.2287C295.877 53.0946 295.877 53.9008 295.877 54.7965C294.384 54.8562 292.891 54.7965 291.368 54.8264C291.368 55.9312 291.368 57.0061 291.368 58.1407C291.577 58.1706 291.786 58.2004 291.995 58.2004C293.219 58.2004 294.413 58.2004 295.638 58.2004C295.847 58.2004 296.056 58.2004 296.265 58.2004C296.444 58.6185 296.474 60.1412 296.324 60.7384C295.906 60.8579 288.681 60.8579 288.173 60.7384C288.083 60.3204 288.054 47.2423 288.173 46.7048Z" fill="#72A15F"/>
<path d="M240.399 79.2531C240.399 80.2981 240.399 81.2536 240.399 82.2091C237.354 82.2091 234.368 82.2091 231.293 82.2091C231.263 76.9241 231.263 71.6391 231.263 66.3242C232.517 66.3242 233.711 66.3242 234.995 66.3242C235.025 67.3991 234.995 68.4442 234.995 69.5191C234.995 70.594 234.995 71.6988 234.995 72.7737C234.995 73.8486 234.995 74.9235 234.995 75.9686C234.995 77.0435 234.995 78.0886 234.995 79.2232C236.846 79.2531 238.608 79.2531 240.399 79.2531Z" fill="#72A15F"/>
<path d="M221.29 82.1798C221.29 76.8948 221.29 71.6098 221.29 66.2949C222.514 66.2949 223.679 66.2949 224.933 66.2949C224.963 66.5637 224.993 66.8025 224.993 67.0414C224.993 70.8335 224.993 74.6255 224.993 78.4176C224.993 78.6564 224.993 78.9252 224.993 79.2536C226.814 79.2536 228.576 79.2536 230.397 79.2536C230.397 80.2688 230.397 81.1944 230.397 82.1499C229.979 82.2694 222.096 82.2992 221.29 82.1798Z" fill="#72A15F"/>
<path d="M229.053 102.63C228.456 102.63 227.948 102.63 227.471 102.63C227.351 102.241 227.321 88.3869 227.441 87.7001C228.187 87.6703 228.964 87.6703 229.77 87.7001C231.412 91.8206 233.024 95.9113 234.667 100.092C234.876 99.8228 234.816 99.6138 234.816 99.4048C234.816 95.762 234.816 92.1192 234.816 88.4765C234.816 88.2376 234.816 87.9987 234.816 87.73C235.383 87.73 235.891 87.73 236.428 87.73C236.548 88.148 236.578 102.092 236.428 102.659C235.742 102.659 235.055 102.659 234.338 102.659C234.069 102.659 234.04 102.45 233.98 102.241C233.562 101.166 233.144 100.121 232.726 99.0465C231.621 96.2696 230.516 93.4927 229.411 90.7159C229.352 90.5964 229.292 90.477 229.173 90.2381C229.113 90.4471 229.083 90.5666 229.083 90.686C229.083 91.3429 229.083 91.9998 229.083 92.6567C229.083 95.762 229.083 98.8673 229.083 101.943C229.053 102.152 229.053 102.361 229.053 102.63Z" fill="#72A15F"/>
<path d="M186.415 102.661C185.907 102.661 185.489 102.661 185.071 102.661C184.982 102.661 184.862 102.631 184.743 102.601C184.743 97.6445 184.743 92.688 184.743 87.7314C184.892 87.7016 185.041 87.6717 185.191 87.6717C185.668 87.6717 186.176 87.7016 186.654 87.6717C187.012 87.6418 187.161 87.7911 187.281 88.1196C187.997 89.9708 188.714 91.7922 189.46 93.6435C190.237 95.6141 191.013 97.5848 191.789 99.5555C191.849 99.7048 191.909 99.8541 191.998 100.033C192.207 99.8242 192.118 99.5853 192.118 99.4062C192.118 95.7336 192.118 92.0908 192.118 88.4182C192.118 88.2092 192.148 88.0001 192.148 87.7314C192.715 87.7314 193.223 87.7314 193.73 87.7314C193.85 88.2092 193.85 102.153 193.73 102.691C193.073 102.691 192.387 102.691 191.7 102.691C191.431 102.691 191.401 102.482 191.312 102.302C190.983 101.496 190.655 100.69 190.356 99.8839C189.162 96.8383 187.967 93.8226 186.743 90.777C186.683 90.6277 186.624 90.4784 186.534 90.2993C186.355 90.5083 186.415 90.6874 186.415 90.8666C186.415 93.106 186.415 95.3753 186.415 97.6147C186.415 99.0777 186.415 100.541 186.415 102.034C186.415 102.183 186.415 102.392 186.415 102.661Z" fill="#72A15F"/>
<path d="M248.163 46.6465C250.85 46.6465 253.537 46.6465 256.225 46.6465C256.225 47.5124 256.225 48.3186 256.225 49.2143C255.717 49.2741 255.179 49.2442 254.672 49.2442C254.134 49.2442 253.627 49.2442 253.089 49.2442C252.582 49.2442 252.044 49.2442 251.477 49.2442C251.417 50.2594 251.417 51.2149 251.477 52.2301C252.223 52.2599 252.94 52.2301 253.657 52.2301C254.373 52.2301 255.09 52.2301 255.807 52.2301C255.986 52.6182 256.016 53.9917 255.866 54.7979C254.433 54.8576 252.97 54.7979 251.447 54.8278C251.358 55.843 251.417 56.8283 251.417 57.7838C251.417 58.7691 251.417 59.7246 251.417 60.6801C250.94 60.8294 248.67 60.8294 248.133 60.71C248.163 56.052 248.163 51.3642 248.163 46.6465Z" fill="#72A15F"/>
<path d="M275.394 87.7296C275.514 87.6998 275.633 87.6699 275.753 87.6699C276.29 87.6699 276.798 87.6699 277.335 87.6699C277.634 87.6699 277.783 87.7894 277.903 88.0581C278.41 89.342 278.918 90.6259 279.425 91.9099C280.411 94.4479 281.426 96.956 282.411 99.494C282.471 99.6731 282.561 99.8523 282.71 100.031C282.829 98.6878 282.799 97.3442 282.799 96.0005C282.799 94.627 282.799 93.2535 282.799 91.88C282.799 90.5364 282.799 89.1629 282.799 87.7595C283.367 87.7595 283.874 87.7595 284.442 87.7595C284.472 87.9387 284.501 88.0879 284.501 88.2671C284.501 92.8952 284.501 97.5532 284.501 102.181C284.501 102.331 284.472 102.48 284.472 102.689C284.083 102.689 283.695 102.719 283.337 102.719C282.949 102.719 282.471 102.808 282.172 102.629C281.904 102.45 281.844 101.972 281.695 101.614C280.261 98.0309 278.858 94.4479 277.425 90.8648C277.365 90.7155 277.276 90.5364 277.186 90.3274C277.007 90.5662 277.067 90.7454 277.067 90.9245C277.067 94.627 277.067 98.3295 277.067 102.002C277.067 102.211 277.067 102.42 277.067 102.689C276.499 102.689 275.962 102.689 275.454 102.689C275.305 102.211 275.275 88.4164 275.394 87.7296Z" fill="#72A15F"/>
<path d="M303.252 60.7981C302.177 60.7981 301.132 60.7981 299.997 60.7981C299.997 60.5891 299.997 60.3801 299.997 60.201C299.997 58.708 299.997 57.1852 299.997 55.6923C299.997 55.3937 299.937 55.0653 299.818 54.7965C298.773 52.3183 297.698 49.8101 296.653 47.3318C296.563 47.1228 296.504 46.9437 296.384 46.675C296.563 46.6451 296.683 46.6152 296.832 46.6152C297.728 46.6152 298.594 46.6152 299.49 46.6152C299.997 46.6152 299.997 46.6152 300.146 47.093C300.594 48.4366 301.012 49.7803 301.43 51.1239C301.49 51.3031 301.55 51.4822 301.61 51.6614C301.639 51.6614 301.699 51.6614 301.729 51.6614C301.789 51.5121 301.878 51.3628 301.908 51.1836C302.326 49.84 302.744 48.4963 303.192 47.1527C303.371 46.6152 303.371 46.6152 303.909 46.6152C304.864 46.6152 305.82 46.6152 306.895 46.6152C306.805 46.884 306.745 47.0631 306.656 47.2721C305.64 49.7205 304.595 52.1391 303.55 54.5875C303.371 55.0354 303.252 55.4534 303.282 55.961C303.312 57.3644 303.282 58.7677 303.282 60.1412C303.282 60.3204 303.282 60.5294 303.252 60.7981Z" fill="#72A15F"/>
<path d="M217.767 102.629C217.17 102.629 216.662 102.629 216.184 102.629C216.155 102.599 216.155 102.599 216.125 102.569L216.095 102.54C216.065 102.42 216.065 102.301 216.065 102.151C216.065 97.4039 216.065 92.6563 216.065 87.9088C216.065 87.8491 216.095 87.8192 216.125 87.7296C216.244 87.6998 216.364 87.6699 216.483 87.6699C217.976 87.6699 219.499 87.6699 220.992 87.6998C221.231 87.6998 221.499 87.7296 221.738 87.7894C223.261 88.0282 224.157 88.9538 224.515 90.4169C224.724 91.2828 224.694 92.1786 224.455 93.0445C224.187 93.9701 223.649 94.6569 222.753 95.045C222.664 95.0749 222.604 95.1346 222.514 95.1645C222.514 95.1645 222.485 95.1943 222.485 95.254C222.634 95.3138 222.753 95.3735 222.903 95.4332C223.649 95.6721 224.127 96.1498 224.276 96.9261C224.425 97.7323 224.515 98.5684 224.575 99.4044C224.634 99.9717 224.605 100.569 224.694 101.136C224.784 101.644 224.963 102.122 225.112 102.689C224.575 102.689 224.007 102.689 223.44 102.689C223.171 102.689 223.082 102.51 223.052 102.301C222.962 101.793 222.873 101.256 222.843 100.748C222.783 99.9419 222.753 99.1058 222.723 98.2996C222.694 98.0011 222.664 97.6726 222.574 97.374C222.395 96.6574 221.947 96.2095 221.231 96.0304C221.171 96.0304 221.111 96.0005 221.081 96.0005C220.036 95.8512 218.991 95.9408 217.886 95.9408C217.737 98.1802 217.827 100.36 217.767 102.629ZM217.797 94.5374C218.872 94.5673 219.887 94.627 220.902 94.4777C221.798 94.3284 222.365 93.8208 222.664 92.9848C222.873 92.3876 222.932 91.7904 222.813 91.1634C222.634 90.0288 222.007 89.342 220.872 89.1927C219.917 89.0733 218.931 89.133 217.946 89.1031C217.916 89.1031 217.856 89.1629 217.767 89.2226C217.797 90.9544 217.767 92.7161 217.797 94.5374Z" fill="#72A15F"/>
<path d="M263.391 95.1368C263.421 93.8528 263.481 92.5988 263.779 91.3447C263.869 90.9267 263.988 90.5385 264.138 90.1504C264.794 88.4783 266.019 87.5228 267.81 87.4033C268.378 87.3735 268.975 87.4033 269.542 87.5228C270.647 87.7318 271.423 88.3887 271.99 89.3442C272.498 90.2399 272.737 91.1954 272.856 92.1807C273.095 94.3903 273.095 96.6297 272.677 98.8393C272.558 99.4364 272.349 100.034 272.11 100.601C271.572 101.855 270.617 102.661 269.243 102.84C268.557 102.93 267.84 102.93 267.123 102.84C265.899 102.661 265.003 101.945 264.436 100.87C263.929 99.9142 263.69 98.8691 263.57 97.7942C263.481 96.8984 263.451 96.0325 263.391 95.1368ZM265.272 95.1368C265.272 95.7041 265.272 96.3013 265.272 96.8686C265.272 97.197 265.332 97.5553 265.362 97.8838C265.481 98.69 265.631 99.4961 266.019 100.243C266.347 100.84 266.795 101.318 267.482 101.437C268.766 101.706 269.841 101.318 270.408 100.153C270.677 99.6156 270.856 98.9885 270.945 98.3914C271.304 96.3908 271.244 94.3903 271.035 92.3898C270.945 91.5239 270.736 90.6878 270.288 89.9115C269.452 88.5081 266.974 88.4484 266.138 89.9115C265.899 90.3594 265.69 90.8371 265.571 91.3148C265.272 92.5689 265.242 93.8528 265.272 95.1368Z" fill="#72A15F"/>
<path d="M219.438 66.2955C219.438 71.5805 219.438 76.8655 219.438 82.1803C218.214 82.2699 217.02 82.2102 215.736 82.2102C215.736 76.8655 215.736 71.6103 215.736 66.2656C216.96 66.2955 218.184 66.2955 219.438 66.2955Z" fill="#72A15F"/>
<path d="M297.071 102.633C296.384 102.633 295.817 102.633 295.16 102.633C294.802 101.289 294.473 99.9154 294.115 98.5419C292.443 98.5419 290.861 98.5419 289.188 98.5419C288.83 99.9154 288.442 101.259 288.084 102.633C287.486 102.633 286.919 102.633 286.232 102.633C287.666 97.6162 289.099 92.6895 290.532 87.7031C291.338 87.7031 292.115 87.7031 292.951 87.7031C294.324 92.6597 295.698 97.5864 297.071 102.633ZM293.787 97.0489C293.608 96.3622 293.458 95.7053 293.279 95.0484C293.13 94.3915 292.951 93.7346 292.801 93.1076C292.652 92.4507 292.473 91.8236 292.294 91.1667C292.144 90.5397 292.025 89.8828 291.726 89.3155C291.428 90.1814 291.189 91.0174 290.98 91.8834C290.741 92.7493 290.502 93.6152 290.293 94.5109C290.084 95.347 289.756 96.183 289.666 97.0788C291.04 97.0489 292.353 97.0489 293.787 97.0489Z" fill="#72A15F"/>
<path d="M249.029 102.662C248.492 102.662 247.954 102.662 247.417 102.662C247.178 102.662 247.178 102.453 247.118 102.274C246.879 101.289 246.64 100.304 246.372 99.3182C246.133 98.4523 246.312 98.5419 245.386 98.5419C244.222 98.5419 243.057 98.5419 241.923 98.5419C241.714 98.5419 241.535 98.5419 241.266 98.5419C240.818 99.8855 240.549 101.289 240.131 102.632C239.534 102.632 238.967 102.632 238.399 102.632C238.399 102.244 242.221 88.7482 242.639 87.7031C243.416 87.7031 244.192 87.7031 244.968 87.7031C245.267 88.3899 249.029 102.185 249.029 102.662ZM241.714 97.0489C243.057 97.0489 244.401 97.0489 245.834 97.0489C245.177 94.4213 244.52 91.8535 243.864 89.2259C243.595 89.6141 241.714 96.4517 241.714 97.0489Z" fill="#72A15F"/>
<path d="M189.401 52.7657C188.655 52.7657 187.998 52.7657 187.311 52.7657C187.251 54.2885 187.311 55.7516 187.281 57.2744C186.475 57.2744 185.699 57.2744 184.922 57.2744C184.803 56.9161 184.743 47.6599 184.862 46.7641C185.251 46.6447 186.624 46.6148 187.281 46.7342C187.281 48.0182 187.281 49.3021 187.281 50.6756C187.998 50.7055 188.655 50.7353 189.371 50.6756C189.371 49.3319 189.371 48.0779 189.371 46.794C189.789 46.6447 191.163 46.6148 191.82 46.7342C191.82 50.2277 191.82 53.7212 191.82 57.2744C191.013 57.2744 190.237 57.2744 189.401 57.2744C189.401 55.7814 189.401 54.3184 189.401 52.7657Z" fill="#72A15F"/>
<path d="M206.301 87.7031C208.809 87.7031 211.287 87.7031 213.825 87.7031C213.825 88.1809 213.825 88.6586 213.825 89.1662C213.616 89.1662 213.407 89.1961 213.198 89.1961C211.705 89.1961 210.182 89.1961 208.689 89.1961C208.48 89.1961 208.271 89.2259 208.062 89.2259C207.943 89.6738 207.913 93.3464 208.032 94.0332C208.241 94.063 208.45 94.0929 208.66 94.0929C210.063 94.0929 211.436 94.0929 212.84 94.0929C213.049 94.0929 213.258 94.1228 213.526 94.1228C213.526 94.6304 213.526 95.0782 213.526 95.5858C211.675 95.5858 209.884 95.5858 208.092 95.5858C207.943 96.0337 207.913 100.423 208.062 101.08C209.048 101.11 210.063 101.08 211.078 101.08C212.063 101.08 213.079 101.08 214.124 101.08C214.124 101.587 214.124 102.065 214.124 102.543C213.735 102.662 207.107 102.692 206.36 102.603C206.181 102.214 206.151 88.3302 206.301 87.7031Z" fill="#72A15F"/>
<path d="M219.11 60.7711C218.035 60.7711 216.96 60.7711 215.915 60.7711C215.796 60.3531 215.736 47.1854 215.885 46.6181C216.96 46.5882 218.005 46.5882 219.11 46.6181C219.11 51.3656 219.11 56.0535 219.11 60.7711Z" fill="#72A15F"/>
<path d="M193.133 46.707C195.134 46.707 197.105 46.707 199.105 46.707C199.105 47.3341 199.105 47.9312 199.105 48.618C197.911 48.618 196.746 48.618 195.522 48.618C195.462 49.3645 195.492 50.0811 195.492 50.8275C195.701 50.8574 195.91 50.8873 196.089 50.8873C196.806 50.8873 197.552 50.8873 198.269 50.8873C198.478 50.8873 198.657 50.9171 198.896 50.9171C198.896 51.5441 198.896 52.1115 198.896 52.7385C198.717 52.7385 198.508 52.7684 198.329 52.7684C197.612 52.7684 196.866 52.7684 196.149 52.7684C195.97 52.7684 195.761 52.7982 195.522 52.7982C195.522 53.6343 195.522 54.4106 195.522 55.2765C196.746 55.3661 197.97 55.2466 199.225 55.3362C199.314 55.9931 199.284 56.5903 199.254 57.1875C198.836 57.3069 193.88 57.3367 193.163 57.2472C193.014 56.8889 192.984 47.4236 193.133 46.707Z" fill="#72A15F"/>
<path d="M300.625 101.11C302.715 101.11 304.715 101.11 306.776 101.11C306.776 101.647 306.776 102.125 306.776 102.633C304.148 102.633 301.55 102.633 298.953 102.633C298.833 102.185 298.803 88.2704 298.953 87.7031C299.49 87.7031 300.028 87.7031 300.625 87.7031C300.625 87.942 300.655 88.151 300.655 88.3899C300.655 92.3611 300.655 96.3323 300.655 100.304C300.625 100.542 300.625 100.751 300.625 101.11Z" fill="#72A15F"/>
<path d="M200.927 102.629C200.3 102.629 199.792 102.629 199.195 102.629C199.165 101.524 199.195 100.42 199.165 99.3148C199.165 98.1802 199.165 97.0754 199.165 95.9408C199.165 94.836 199.165 93.7313 199.165 92.6265C199.165 91.5217 199.165 90.4169 199.165 89.2524C197.911 89.1031 196.687 89.2524 195.403 89.1629C195.313 88.6851 195.373 88.2372 195.373 87.7296C195.522 87.6998 195.672 87.6699 195.791 87.6699C198.628 87.6699 201.434 87.6699 204.271 87.6699C204.39 87.6699 204.48 87.6998 204.629 87.6998C204.629 88.1775 204.629 88.6254 204.629 89.1629C204.45 89.1629 204.271 89.1927 204.092 89.1927C203.256 89.1927 202.42 89.1927 201.584 89.1927C201.404 89.1927 201.195 89.2226 200.927 89.2226C200.897 90.3572 200.927 91.462 200.897 92.5668C200.897 93.7014 200.897 94.8062 200.897 95.9408C200.897 97.0456 200.897 98.1503 200.897 99.2551C200.927 100.36 200.927 101.465 200.927 102.629Z" fill="#72A15F"/>
<path d="M248.551 87.7031C251.627 87.7031 254.672 87.7031 257.718 87.7031C257.837 88.2107 257.807 88.6586 257.718 89.1961C256.494 89.2856 255.299 89.1662 254.015 89.2558C254.015 93.7346 254.015 98.1835 254.015 102.633C253.418 102.633 252.881 102.633 252.284 102.633C252.224 100.363 252.284 98.1537 252.254 95.9143C252.254 93.7047 252.254 91.4952 252.254 89.2259C250.97 89.1662 249.775 89.2259 248.521 89.1662C248.462 88.6885 248.491 88.2406 248.551 87.7031Z" fill="#72A15F"/>
<path d="M179.727 48.7076C178.95 48.7076 178.264 48.7076 177.547 48.7076C177.428 48.0208 177.487 47.3639 177.517 46.707C179.816 46.707 182.056 46.707 184.355 46.707C184.444 47.3639 184.385 47.991 184.385 48.7076C183.638 48.7076 182.981 48.7076 182.205 48.7076C182.145 49.6929 182.175 50.6484 182.175 51.574C182.175 52.5295 182.175 53.4551 182.175 54.4106C182.175 55.3661 182.175 56.2917 182.175 57.3069C181.369 57.3367 180.563 57.3367 179.727 57.3069C179.727 54.4404 179.727 51.6337 179.727 48.7076Z" fill="#72A15F"/>
<path d="M259.39 87.7031C259.958 87.7031 260.495 87.7031 261.092 87.7031C261.092 92.6895 261.092 97.6461 261.092 102.603C260.913 102.632 260.794 102.662 260.704 102.662C260.286 102.662 259.838 102.662 259.42 102.662C259.301 102.244 259.271 88.4496 259.39 87.7031Z" fill="#72A15F"/>
<path d="M181.847 102.631C181.28 102.631 180.742 102.631 180.175 102.631C180.175 97.674 180.175 92.7175 180.175 87.7908C180.563 87.6415 181.16 87.6415 181.817 87.7311L181.847 87.7609L181.877 87.7908C181.877 87.9102 181.907 88.0296 181.907 88.1789C181.907 92.9265 181.907 97.674 181.907 102.422C181.907 102.481 181.877 102.511 181.847 102.631Z" fill="#72A15F"/>
<path d="M123.622 112.244C144.4 112.244 161.244 95.4001 161.244 74.622C161.244 53.844 144.4 37 123.622 37C102.844 37 86 53.844 86 74.622C86 95.4001 102.844 112.244 123.622 112.244Z" stroke="#72A15F" stroke-width="2" stroke-miterlimit="10"/>
</svg>
