<svg width="837" height="323" viewBox="0 0 837 323" fill="none" xmlns="http://www.w3.org/2000/svg">
<path d="M313.407 32.64L308.899 34.908V32.948L313.687 30.4H315.479V50H313.407V32.64ZM325.487 50.224C324.367 50.224 323.368 49.9627 322.491 49.44C321.632 48.9173 320.96 48.18 320.475 47.228C319.99 46.276 319.747 45.184 319.747 43.952V36.448C319.747 35.216 319.99 34.124 320.475 33.172C320.96 32.22 321.632 31.4827 322.491 30.96C323.368 30.4373 324.367 30.176 325.487 30.176H328.455C329.575 30.176 330.564 30.4373 331.423 30.96C332.282 31.4827 332.944 32.22 333.411 33.172C333.896 34.124 334.139 35.216 334.139 36.448V43.952C334.139 45.184 333.896 46.276 333.411 47.228C332.944 48.18 332.282 48.9173 331.423 49.44C330.564 49.9627 329.575 50.224 328.455 50.224H325.487ZM328.399 48.376C329.5 48.376 330.387 47.9747 331.059 47.172C331.731 46.3507 332.067 45.2773 332.067 43.952V36.448C332.067 35.1227 331.731 34.0587 331.059 33.256C330.387 32.4347 329.5 32.024 328.399 32.024H325.543C324.442 32.024 323.546 32.4347 322.855 33.256C322.164 34.0587 321.819 35.1227 321.819 36.448V43.952C321.819 45.2773 322.164 46.3507 322.855 47.172C323.546 47.9747 324.442 48.376 325.543 48.376H328.399ZM343.588 50.224C342.468 50.224 341.47 49.9627 340.592 49.44C339.734 48.9173 339.062 48.18 338.576 47.228C338.091 46.276 337.848 45.184 337.848 43.952V36.448C337.848 35.216 338.091 34.124 338.576 33.172C339.062 32.22 339.734 31.4827 340.592 30.96C341.47 30.4373 342.468 30.176 343.588 30.176H346.556C347.676 30.176 348.666 30.4373 349.524 30.96C350.383 31.4827 351.046 32.22 351.512 33.172C351.998 34.124 352.24 35.216 352.24 36.448V43.952C352.24 45.184 351.998 46.276 351.512 47.228C351.046 48.18 350.383 48.9173 349.524 49.44C348.666 49.9627 347.676 50.224 346.556 50.224H343.588ZM346.5 48.376C347.602 48.376 348.488 47.9747 349.16 47.172C349.832 46.3507 350.168 45.2773 350.168 43.952V36.448C350.168 35.1227 349.832 34.0587 349.16 33.256C348.488 32.4347 347.602 32.024 346.5 32.024H343.644C342.543 32.024 341.647 32.4347 340.956 33.256C340.266 34.0587 339.92 35.1227 339.92 36.448V43.952C339.92 45.2773 340.266 46.3507 340.956 47.172C341.647 47.9747 342.543 48.376 343.644 48.376H346.5ZM371.882 29.784H373.898L363.37 50.7H361.354L371.882 29.784ZM359.478 42.72C358.339 42.72 357.415 42.3467 356.706 41.6C356.015 40.8347 355.67 39.836 355.67 38.604V34.292C355.67 33.06 356.015 32.0707 356.706 31.324C357.415 30.5587 358.339 30.176 359.478 30.176H361.046C362.185 30.176 363.099 30.5587 363.79 31.324C364.499 32.0707 364.854 33.06 364.854 34.292V38.604C364.854 39.836 364.499 40.8347 363.79 41.6C363.099 42.3467 362.185 42.72 361.046 42.72H359.478ZM361.046 41.124C361.662 41.124 362.157 40.9 362.53 40.452C362.903 39.9853 363.09 39.3693 363.09 38.604V34.292C363.09 33.5267 362.903 32.92 362.53 32.472C362.157 32.0053 361.662 31.772 361.046 31.772H359.478C358.862 31.772 358.367 32.0053 357.994 32.472C357.621 32.92 357.434 33.5267 357.434 34.292V38.604C357.434 39.3693 357.621 39.9853 357.994 40.452C358.367 40.9 358.862 41.124 359.478 41.124H361.046ZM374.038 50.224C372.899 50.224 371.975 49.8507 371.266 49.104C370.575 48.3387 370.23 47.34 370.23 46.108V41.796C370.23 40.564 370.575 39.5747 371.266 38.828C371.975 38.0627 372.899 37.68 374.038 37.68H375.606C376.745 37.68 377.659 38.0627 378.35 38.828C379.059 39.5747 379.414 40.564 379.414 41.796V46.108C379.414 47.34 379.059 48.3387 378.35 49.104C377.659 49.8507 376.745 50.224 375.606 50.224H374.038ZM375.606 48.628C376.222 48.628 376.717 48.404 377.09 47.956C377.463 47.4893 377.65 46.8733 377.65 46.108V41.796C377.65 41.0307 377.463 40.424 377.09 39.976C376.717 39.5093 376.222 39.276 375.606 39.276H374.038C373.422 39.276 372.927 39.5093 372.554 39.976C372.181 40.424 371.994 41.0307 371.994 41.796V46.108C371.994 46.8733 372.181 47.4893 372.554 47.956C372.927 48.404 373.422 48.628 374.038 48.628H375.606ZM395.03 50.224C393.462 50.224 392.202 49.7387 391.25 48.768C390.298 47.7973 389.822 46.5187 389.822 44.932V41.096C389.822 39.5093 390.298 38.2307 391.25 37.26C392.221 36.2893 393.5 35.804 395.086 35.804H397.382C398.969 35.804 400.238 36.2893 401.19 37.26C402.161 38.2307 402.646 39.5093 402.646 41.096V44.932C402.646 46.5187 402.161 47.7973 401.19 48.768C400.22 49.7387 398.932 50.224 397.326 50.224H395.03ZM397.326 48.432C398.334 48.432 399.137 48.1147 399.734 47.48C400.332 46.8267 400.63 45.9773 400.63 44.932V41.096C400.63 40.0507 400.332 39.2107 399.734 38.576C399.137 37.9227 398.353 37.596 397.382 37.596H395.086C394.116 37.596 393.332 37.9227 392.734 38.576C392.137 39.2107 391.838 40.0507 391.838 41.096V44.932C391.838 45.996 392.128 46.8453 392.706 47.48C393.285 48.1147 394.06 48.432 395.03 48.432H397.326ZM407.587 37.82H405.179V36.028H407.587V34.936C407.587 33.4053 407.979 32.248 408.763 31.464C409.547 30.68 410.695 30.288 412.207 30.288H413.271V32.024H412.207C411.311 32.024 410.648 32.2667 410.219 32.752C409.808 33.2187 409.603 33.9467 409.603 34.936V36.028H412.963V37.82H409.603V50H407.587V37.82ZM429.011 50C427.536 50 426.472 49.6827 425.819 49.048C425.184 48.4133 424.867 47.368 424.867 45.912V37.82H422.403V36.028H424.867V31.8H426.883V36.028H430.523V37.82H426.883V45.912C426.883 46.7333 427.042 47.3213 427.359 47.676C427.695 48.0307 428.246 48.208 429.011 48.208H430.523V50H429.011ZM434.214 30.4H436.23V37.96C436.66 37.3067 437.21 36.784 437.882 36.392C438.554 36 439.236 35.804 439.926 35.804H441.886C443.174 35.804 444.21 36.2427 444.994 37.12C445.797 37.9973 446.198 39.1453 446.198 40.564V50H444.182V40.508C444.182 39.6493 443.968 38.9493 443.538 38.408C443.109 37.8667 442.54 37.596 441.83 37.596H439.982C439.105 37.596 438.302 37.9413 437.574 38.632C436.865 39.304 436.417 40.172 436.23 41.236V50H434.214V30.4ZM454.941 50.224C453.373 50.224 452.113 49.7667 451.161 48.852C450.209 47.9187 449.733 46.6867 449.733 45.156V41.152C449.733 39.5467 450.209 38.2587 451.161 37.288C452.113 36.2987 453.373 35.804 454.941 35.804H457.237C458.73 35.804 459.934 36.28 460.849 37.232C461.763 38.184 462.221 39.444 462.221 41.012V43.476H451.749V45.156C451.749 46.1267 452.038 46.92 452.617 47.536C453.214 48.1333 453.989 48.432 454.941 48.432H457.069C458.002 48.432 458.758 48.18 459.337 47.676C459.915 47.1533 460.205 46.4627 460.205 45.604H462.165C462.165 46.9853 461.698 48.1053 460.765 48.964C459.831 49.804 458.599 50.224 457.069 50.224H454.941ZM460.205 41.74V41.012C460.205 39.9853 459.934 39.164 459.393 38.548C458.851 37.9133 458.133 37.596 457.237 37.596H454.941C453.989 37.596 453.214 37.9227 452.617 38.576C452.038 39.2293 451.749 40.088 451.749 41.152V41.74H460.205ZM477.159 50.224C475.647 50.224 474.434 49.8133 473.519 48.992C472.605 48.152 472.147 47.0507 472.147 45.688H474.695C474.695 46.3787 474.919 46.9387 475.367 47.368C475.815 47.7973 476.413 48.012 477.159 48.012H479.623C480.333 48.012 480.902 47.8813 481.331 47.62C481.761 47.34 481.975 46.976 481.975 46.528V45.716C481.975 45.4173 481.845 45.156 481.583 44.932C481.341 44.6893 481.023 44.5307 480.631 44.456L475.787 43.616C474.761 43.4293 473.939 43.0467 473.323 42.468C472.707 41.8707 472.399 41.18 472.399 40.396V39.472C472.399 38.3707 472.838 37.484 473.715 36.812C474.593 36.14 475.769 35.804 477.243 35.804H479.595C480.995 35.804 482.115 36.1867 482.955 36.952C483.814 37.7173 484.243 38.7347 484.243 40.004H481.695C481.677 39.4067 481.471 38.9307 481.079 38.576C480.706 38.2027 480.211 38.016 479.595 38.016H477.271C476.581 38.016 476.03 38.156 475.619 38.436C475.227 38.716 475.031 39.0893 475.031 39.556V40.256C475.031 40.5547 475.162 40.816 475.423 41.04C475.685 41.264 476.021 41.4227 476.431 41.516L481.331 42.384C482.302 42.552 483.086 42.9253 483.683 43.504C484.299 44.0827 484.607 44.7547 484.607 45.52V46.612C484.607 47.6947 484.15 48.572 483.235 49.244C482.321 49.8973 481.117 50.224 479.623 50.224H477.159ZM491.867 50.224C490.467 50.224 489.347 49.8693 488.507 49.16C487.667 48.432 487.247 47.4707 487.247 46.276V45.352C487.247 44.176 487.686 43.2333 488.563 42.524C489.44 41.796 490.588 41.432 492.007 41.432H493.771C494.331 41.432 494.928 41.516 495.563 41.684C496.198 41.852 496.739 42.0853 497.187 42.384V40.34C497.187 39.6493 496.972 39.0987 496.543 38.688C496.114 38.2587 495.554 38.044 494.863 38.044H492.567C491.858 38.044 491.288 38.212 490.859 38.548C490.43 38.884 490.215 39.3227 490.215 39.864H487.639C487.639 38.6507 488.087 37.6707 488.983 36.924C489.898 36.1773 491.092 35.804 492.567 35.804H494.863C496.338 35.804 497.523 36.224 498.419 37.064C499.315 37.8853 499.763 38.9773 499.763 40.34V50H497.327V48.124C496.898 48.7587 496.338 49.272 495.647 49.664C494.956 50.0373 494.256 50.224 493.547 50.224H491.867ZM493.687 48.068C494.508 48.068 495.236 47.8347 495.871 47.368C496.506 46.8827 496.944 46.2387 497.187 45.436V44.596C496.832 44.2787 496.347 44.0267 495.731 43.84C495.115 43.6533 494.48 43.56 493.827 43.56H492.035C491.382 43.56 490.85 43.728 490.439 44.064C490.028 44.4 489.823 44.848 489.823 45.408V46.248C489.823 46.808 490.019 47.256 490.411 47.592C490.822 47.9093 491.363 48.068 492.035 48.068H493.687ZM507.699 50C506.224 50 505.16 49.692 504.507 49.076C503.854 48.4413 503.527 47.424 503.527 46.024V30.4H506.131V45.94C506.131 46.5747 506.262 47.032 506.523 47.312C506.784 47.592 507.214 47.732 507.811 47.732H508.931V50H507.699ZM516.193 50.224C514.55 50.224 513.225 49.7573 512.217 48.824C511.227 47.872 510.733 46.6307 510.733 45.1V41.236C510.733 39.5933 511.227 38.2773 512.217 37.288C513.225 36.2987 514.55 35.804 516.193 35.804H518.489C520.075 35.804 521.354 36.2893 522.325 37.26C523.295 38.2307 523.781 39.5187 523.781 41.124V43.756H513.337V45.1C513.337 45.9587 513.598 46.6493 514.121 47.172C514.643 47.6947 515.334 47.956 516.193 47.956H518.349C519.189 47.956 519.87 47.7413 520.393 47.312C520.915 46.864 521.177 46.276 521.177 45.548H523.725C523.725 46.948 523.23 48.0773 522.241 48.936C521.251 49.7947 519.945 50.224 518.321 50.224H516.193ZM521.177 41.684V41.124C521.177 40.1907 520.925 39.444 520.421 38.884C519.935 38.324 519.291 38.044 518.489 38.044H516.193C515.334 38.044 514.643 38.3427 514.121 38.94C513.598 39.5187 513.337 40.2933 513.337 41.264V41.684H521.177ZM534.507 36.028H536.999V37.792C537.391 37.1947 537.895 36.7187 538.511 36.364C539.146 35.9907 539.781 35.804 540.415 35.804H542.347C543.915 35.804 545.175 36.2893 546.127 37.26C547.098 38.2307 547.583 39.5093 547.583 41.096V44.428C547.583 45.5667 547.359 46.5747 546.911 47.452C546.482 48.3293 545.866 49.0107 545.063 49.496C544.261 49.9813 543.337 50.224 542.291 50.224H540.331C539.771 50.224 539.183 50.0747 538.567 49.776C537.97 49.4773 537.485 49.0853 537.111 48.6V55.572H534.507V36.028ZM542.067 47.928C542.945 47.928 543.645 47.6013 544.167 46.948C544.69 46.2947 544.951 45.4267 544.951 44.344V41.18C544.951 40.2653 544.69 39.528 544.167 38.968C543.663 38.3893 542.991 38.1 542.151 38.1H540.275C539.585 38.1 538.941 38.3707 538.343 38.912C537.765 39.4533 537.354 40.1627 537.111 41.04V44.764C537.223 45.6973 537.569 46.4627 538.147 47.06C538.745 47.6387 539.454 47.928 540.275 47.928H542.067ZM550.941 36.028H553.433V38.072C553.806 37.456 554.348 36.952 555.057 36.56C555.785 36.168 556.541 35.972 557.325 35.972H558.781V38.296H557.325C556.186 38.296 555.272 38.6507 554.581 39.36C553.89 40.0507 553.545 40.9653 553.545 42.104V50H550.941V36.028ZM565.603 50.224C563.96 50.224 562.635 49.7293 561.627 48.74C560.637 47.7507 560.143 46.4533 560.143 44.848V41.208C560.143 39.584 560.647 38.2773 561.655 37.288C562.663 36.2987 563.997 35.804 565.659 35.804H568.011C569.672 35.804 571.007 36.2987 572.015 37.288C573.023 38.2773 573.527 39.584 573.527 41.208V44.848C573.527 46.4533 573.013 47.7507 571.987 48.74C570.979 49.7293 569.644 50.224 567.983 50.224H565.603ZM567.955 47.928C568.851 47.928 569.569 47.6387 570.111 47.06C570.652 46.4813 570.923 45.7067 570.923 44.736V41.292C570.923 40.3213 570.652 39.5467 570.111 38.968C569.588 38.3893 568.888 38.1 568.011 38.1H565.659C564.781 38.1 564.072 38.3893 563.531 38.968C563.008 39.5467 562.747 40.3213 562.747 41.292V44.736C562.747 45.7067 563.008 46.4813 563.531 47.06C564.053 47.6387 564.753 47.928 565.631 47.928H567.955ZM581.706 50.224C580.101 50.224 578.804 49.748 577.814 48.796C576.825 47.8253 576.33 46.556 576.33 44.988V41.236C576.33 39.5933 576.816 38.2773 577.786 37.288C578.776 36.2987 580.073 35.804 581.678 35.804H583.946C585.477 35.804 586.709 36.2333 587.642 37.092C588.576 37.9507 589.042 39.0893 589.042 40.508H586.466C586.466 39.78 586.233 39.2013 585.766 38.772C585.318 38.324 584.712 38.1 583.946 38.1H581.706C580.885 38.1 580.213 38.3987 579.69 38.996C579.186 39.5747 578.934 40.3493 578.934 41.32V44.904C578.934 45.8187 579.196 46.556 579.718 47.116C580.241 47.6573 580.913 47.928 581.734 47.928H583.974C584.758 47.928 585.384 47.6573 585.85 47.116C586.336 46.556 586.578 45.8187 586.578 44.904H589.154C589.154 46.4907 588.678 47.7787 587.726 48.768C586.774 49.7387 585.524 50.224 583.974 50.224H581.706ZM597.021 50.224C595.378 50.224 594.053 49.7573 593.045 48.824C592.055 47.872 591.561 46.6307 591.561 45.1V41.236C591.561 39.5933 592.055 38.2773 593.045 37.288C594.053 36.2987 595.378 35.804 597.021 35.804H599.317C600.903 35.804 602.182 36.2893 603.153 37.26C604.123 38.2307 604.609 39.5187 604.609 41.124V43.756H594.165V45.1C594.165 45.9587 594.426 46.6493 594.949 47.172C595.471 47.6947 596.162 47.956 597.021 47.956H599.177C600.017 47.956 600.698 47.7413 601.221 47.312C601.743 46.864 602.005 46.276 602.005 45.548H604.553C604.553 46.948 604.058 48.0773 603.069 48.936C602.079 49.7947 600.773 50.224 599.149 50.224H597.021ZM602.005 41.684V41.124C602.005 40.1907 601.753 39.444 601.249 38.884C600.763 38.324 600.119 38.044 599.317 38.044H597.021C596.162 38.044 595.471 38.3427 594.949 38.94C594.426 39.5187 594.165 40.2933 594.165 41.264V41.684H602.005ZM612.716 50.224C611.073 50.224 609.748 49.7573 608.74 48.824C607.751 47.872 607.256 46.6307 607.256 45.1V41.236C607.256 39.5933 607.751 38.2773 608.74 37.288C609.748 36.2987 611.073 35.804 612.716 35.804H615.012C616.599 35.804 617.877 36.2893 618.848 37.26C619.819 38.2307 620.304 39.5187 620.304 41.124V43.756H609.86V45.1C609.86 45.9587 610.121 46.6493 610.644 47.172C611.167 47.6947 611.857 47.956 612.716 47.956H614.872C615.712 47.956 616.393 47.7413 616.916 47.312C617.439 46.864 617.7 46.276 617.7 45.548H620.248C620.248 46.948 619.753 48.0773 618.764 48.936C617.775 49.7947 616.468 50.224 614.844 50.224H612.716ZM617.7 41.684V41.124C617.7 40.1907 617.448 39.444 616.944 38.884C616.459 38.324 615.815 38.044 615.012 38.044H612.716C611.857 38.044 611.167 38.3427 610.644 38.94C610.121 39.5187 609.86 40.2933 609.86 41.264V41.684H617.7ZM628.075 50.224C626.545 50.224 625.303 49.7293 624.351 48.74C623.418 47.7507 622.951 46.444 622.951 44.82V41.516C622.951 40.396 623.175 39.4067 623.623 38.548C624.071 37.6707 624.697 36.9987 625.499 36.532C626.321 36.0467 627.263 35.804 628.327 35.804H630.231C630.829 35.804 631.417 35.944 631.995 36.224C632.574 36.504 633.041 36.8773 633.395 37.344V30.4H636.027V50H633.535V48.012C633.125 48.6653 632.583 49.1973 631.911 49.608C631.239 50.0187 630.567 50.224 629.895 50.224H628.075ZM630.007 47.928C630.885 47.928 631.65 47.5733 632.303 46.864C632.957 46.136 633.321 45.2773 633.395 44.288V41.124C633.265 40.2093 632.919 39.4813 632.359 38.94C631.818 38.38 631.165 38.1 630.399 38.1H628.523C627.646 38.1 626.927 38.4267 626.367 39.08C625.826 39.7147 625.555 40.564 625.555 41.628V44.736C625.555 45.688 625.807 46.4627 626.311 47.06C626.834 47.6387 627.487 47.928 628.271 47.928H630.007ZM644.257 50.224C642.745 50.224 641.532 49.8133 640.617 48.992C639.702 48.152 639.245 47.0507 639.245 45.688H641.793C641.793 46.3787 642.017 46.9387 642.465 47.368C642.913 47.7973 643.51 48.012 644.257 48.012H646.721C647.43 48.012 648 47.8813 648.429 47.62C648.858 47.34 649.073 46.976 649.073 46.528V45.716C649.073 45.4173 648.942 45.156 648.681 44.932C648.438 44.6893 648.121 44.5307 647.729 44.456L642.885 43.616C641.858 43.4293 641.037 43.0467 640.421 42.468C639.805 41.8707 639.497 41.18 639.497 40.396V39.472C639.497 38.3707 639.936 37.484 640.813 36.812C641.69 36.14 642.866 35.804 644.341 35.804H646.693C648.093 35.804 649.213 36.1867 650.053 36.952C650.912 37.7173 651.341 38.7347 651.341 40.004H648.793C648.774 39.4067 648.569 38.9307 648.177 38.576C647.804 38.2027 647.309 38.016 646.693 38.016H644.369C643.678 38.016 643.128 38.156 642.717 38.436C642.325 38.716 642.129 39.0893 642.129 39.556V40.256C642.129 40.5547 642.26 40.816 642.521 41.04C642.782 41.264 643.118 41.4227 643.529 41.516L648.429 42.384C649.4 42.552 650.184 42.9253 650.781 43.504C651.397 44.0827 651.705 44.7547 651.705 45.52V46.612C651.705 47.6947 651.248 48.572 650.333 49.244C649.418 49.8973 648.214 50.224 646.721 50.224H644.257ZM667.996 50C666.465 50 665.355 49.664 664.664 48.992C663.992 48.32 663.656 47.2373 663.656 45.744V38.296H661.192V36.028H663.684V31.8H666.26V36.028H669.9V38.296H666.26V45.688C666.26 46.416 666.4 46.9387 666.68 47.256C666.979 47.5733 667.455 47.732 668.108 47.732H669.9V50H667.996ZM677.712 50.224C676.069 50.224 674.744 49.7293 673.736 48.74C672.747 47.7507 672.252 46.4533 672.252 44.848V41.208C672.252 39.584 672.756 38.2773 673.764 37.288C674.772 36.2987 676.107 35.804 677.768 35.804H680.12C681.781 35.804 683.116 36.2987 684.124 37.288C685.132 38.2773 685.636 39.584 685.636 41.208V44.848C685.636 46.4533 685.123 47.7507 684.096 48.74C683.088 49.7293 681.753 50.224 680.092 50.224H677.712ZM680.064 47.928C680.96 47.928 681.679 47.6387 682.22 47.06C682.761 46.4813 683.032 45.7067 683.032 44.736V41.292C683.032 40.3213 682.761 39.5467 682.22 38.968C681.697 38.3893 680.997 38.1 680.12 38.1H677.768C676.891 38.1 676.181 38.3893 675.64 38.968C675.117 39.5467 674.856 40.3213 674.856 41.292V44.736C674.856 45.7067 675.117 46.4813 675.64 47.06C676.163 47.6387 676.863 47.928 677.74 47.928H680.064ZM689.766 50.28C689.243 50.28 688.814 50.1213 688.478 49.804C688.161 49.468 688.002 49.0387 688.002 48.516C688.002 47.9933 688.161 47.564 688.478 47.228C688.814 46.892 689.243 46.724 689.766 46.724C690.307 46.724 690.737 46.892 691.054 47.228C691.39 47.5453 691.558 47.9747 691.558 48.516C691.558 49.0387 691.39 49.468 691.054 49.804C690.718 50.1213 690.289 50.28 689.766 50.28ZM696.11 50.28C695.587 50.28 695.158 50.1213 694.822 49.804C694.504 49.468 694.346 49.0387 694.346 48.516C694.346 47.9933 694.504 47.564 694.822 47.228C695.158 46.892 695.587 46.724 696.11 46.724C696.651 46.724 697.08 46.892 697.398 47.228C697.734 47.5453 697.902 47.9747 697.902 48.516C697.902 49.0387 697.734 49.468 697.398 49.804C697.062 50.1213 696.632 50.28 696.11 50.28ZM702.454 50.28C701.931 50.28 701.502 50.1213 701.166 49.804C700.848 49.468 700.69 49.0387 700.69 48.516C700.69 47.9933 700.848 47.564 701.166 47.228C701.502 46.892 701.931 46.724 702.454 46.724C702.995 46.724 703.424 46.892 703.742 47.228C704.078 47.5453 704.246 47.9747 704.246 48.516C704.246 49.0387 704.078 49.468 703.742 49.804C703.406 50.1213 702.976 50.28 702.454 50.28Z" fill="white"/>
<path d="M209.405 241.47C200.846 231.12 196.567 219.277 197.264 205.842C197.363 204.747 197.562 203.752 197.662 202.657C197.861 202.558 198.06 202.558 198.159 202.458C201.941 211.614 208.111 218.879 216.173 224.452C224.134 229.926 232.792 233.708 242.744 235.499C242.346 234.305 242.048 233.509 241.749 232.713C239.958 228.035 238.963 223.258 238.863 218.282C238.764 212.211 237.868 206.34 236.276 200.468C232.991 188.426 227.319 177.777 217.267 169.915C216.969 169.716 216.77 169.318 216.173 168.622C219.656 168.821 222.641 169.318 225.428 170.114C228.214 170.911 231.101 171.707 233.788 172.801C236.574 173.896 239.261 175.19 241.948 176.683C244.536 178.076 246.924 179.867 249.412 181.46C249.512 181.36 249.711 181.261 249.81 181.161C247.024 174.493 244.834 167.726 243.939 160.56C243.342 155.584 243.142 150.608 243.64 145.732C240.455 138.268 236.674 131.202 232.195 124.534C224.632 129.809 218.86 136.875 214.083 145.135C211.296 150.111 209.107 155.286 207.415 160.76C203.733 172.503 196.269 181.261 185.918 187.829C185.421 186.436 184.824 185.142 184.525 183.848C184.227 182.455 184.028 181.062 184.127 179.668C184.923 168.423 181.44 158.67 174.872 149.713C171.09 144.538 165.915 141.055 160.143 138.467C159.347 138.168 158.65 137.77 157.854 137.372C157.754 137.372 157.754 137.173 157.754 136.974C159.148 137.173 160.441 137.372 162.133 137.571C162.332 136.477 162.631 135.481 162.73 134.486C162.83 130.505 161.038 127.022 159.048 123.738C158.252 122.444 157.456 121.151 156.759 119.857C155.565 117.568 155.266 115.179 156.261 112.592C157.555 109.009 156.46 105.824 153.574 103.436C152.579 102.64 151.385 101.943 150.29 101.147C150.39 100.749 150.29 100.251 150.39 99.8533C152.679 90.5979 155.664 81.6411 160.043 73.1819C150.091 70.5944 139.542 69.2011 128.794 69.1016C132.377 73.8785 135.561 79.0536 137.751 84.6267C140.239 90.7969 143.622 96.2705 148.598 100.649C148.698 100.749 148.698 100.948 148.897 101.247C148.3 101.446 147.603 101.645 147.006 101.744C143.722 102.54 140.537 103.834 138.049 105.924C135.064 108.412 131.68 109.905 127.998 110.701C123.718 111.696 119.34 112.393 114.961 113.189C112.174 113.687 109.587 114.284 107.298 115.976C104.81 117.866 104.013 120.255 104.81 123.24C105.009 123.937 105.307 124.634 105.705 125.33C107.696 129.112 108.89 132.993 108.691 137.372C108.591 140.159 110.084 141.851 112.771 142.647C115.06 143.244 117.25 142.945 119.34 142.05C120.832 141.453 122.524 140.856 124.116 140.756C127.202 140.457 129.192 141.95 130.287 144.836C131.083 147.026 130.983 149.215 130.585 151.504C130.088 153.793 129.59 156.082 129.391 158.371C128.495 168.224 130.585 177.081 138.248 184.147C140.537 186.237 142.428 188.725 143.523 191.71C145.016 195.492 144.12 198.378 140.736 200.667C140.139 201.065 139.642 201.463 138.746 202.16C139.841 202.259 140.338 202.259 140.836 202.259C148.698 202.259 155.664 199.473 162.332 195.492C164.422 194.198 166.612 192.905 168.9 191.81C172.085 190.317 175.469 189.421 179.052 189.123C183.231 188.824 185.122 190.914 186.416 194.198C188.406 199.473 186.516 204.847 181.639 208.231C180.942 208.728 180.246 209.226 179.35 209.823C179.947 210.52 180.345 210.918 180.743 211.316C186.516 217.187 189.7 224.154 189.999 232.414C190.198 237.788 191.293 243.063 192.785 248.138C194.975 255.503 198.757 261.772 204.23 267.246C209.007 272.023 213.685 276.999 218.262 281.975C224.532 275.506 230.205 268.44 234.982 260.678C234.086 260.18 233.091 259.682 232.195 259.185C223.238 254.806 215.675 249.034 209.405 241.47ZM121.33 130.207C120.534 131.003 119.439 131.501 118.344 131.899C116.752 132.496 115.558 131.998 114.762 130.904C113.866 129.61 113.965 128.416 114.961 127.022C117.449 123.639 122.624 122.146 127.102 123.44C125.211 125.728 123.42 128.117 121.33 130.207ZM139.741 120.852C140.338 116.274 144.319 112.99 148.598 113.288C150.489 113.388 151.783 114.383 152.181 115.876C152.48 117.369 151.982 118.563 150.589 119.16C149.793 119.459 148.996 119.658 148.2 119.757C144.12 120.354 141.931 122.345 141.234 126.425C141.134 127.022 140.935 127.719 140.836 128.316C139.443 125.928 139.443 123.34 139.741 120.852ZM155.764 170.811C155.067 170.811 154.47 170.811 153.773 170.811C149.494 170.911 145.314 171.607 142.13 174.991C138.447 168.92 140.04 162.551 147.703 160.262C148.897 159.864 150.489 160.361 151.783 160.56C153.276 160.859 154.669 161.357 156.062 161.655C158.849 162.053 160.043 163.447 160.043 166.134C160.043 169.02 158.451 170.712 155.764 170.811ZM175.469 161.058C173.578 161.556 172.284 162.451 171.488 164.342C170.692 166.134 169.199 166.134 167.905 164.74C166.114 162.75 165.019 160.461 165.019 158.67C165.019 156.48 165.815 154.689 167.308 153.296C168.602 152.101 171.687 151.902 173.677 153.096C175.668 154.191 176.763 155.883 177.26 157.973C177.658 159.665 177.161 160.66 175.469 161.058Z" fill="white"/>
<path d="M131.081 101.545C131.081 101.545 149.791 100.749 150.288 101.047C150.786 101.346 156.359 102.739 157.553 106.123C158.748 109.507 182.433 156.878 182.433 156.878L185.717 182.953L186.016 187.829C186.016 187.829 187.21 194.696 186.912 197.881C186.613 201.065 184.523 200.07 184.523 200.07L162.33 226.144L211.891 287.847L218.061 281.975C218.061 281.975 248.714 252.019 252.893 208.828C257.073 165.636 239.757 119.26 205.721 95.8725C171.685 72.4852 154.369 69.5992 128.394 69.1016" fill="#C4C4C4"/>
<path d="M243.839 145.631C243.342 150.607 243.541 155.483 244.138 160.459C245.033 167.625 247.223 174.392 250.009 181.06C249.91 181.16 249.711 181.259 249.611 181.359C247.123 179.766 244.735 178.074 242.147 176.582C239.56 175.089 236.773 173.795 233.987 172.7C231.3 171.606 228.414 170.809 225.627 170.013C222.741 169.217 219.855 168.72 216.372 168.52C216.969 169.217 217.168 169.615 217.466 169.814C227.418 177.776 233.091 188.325 236.475 200.367C238.067 206.239 238.963 212.11 239.062 218.181C239.162 223.157 240.157 227.934 241.948 232.611C242.247 233.408 242.446 234.204 242.944 235.398C233.091 233.607 224.333 229.825 216.372 224.351C208.311 218.778 202.14 211.513 198.359 202.357C198.16 202.457 197.96 202.457 197.861 202.556C197.761 203.651 197.463 204.646 197.463 205.741C196.766 219.276 201.046 231.119 209.604 241.369C215.874 248.833 223.438 254.705 232.096 259.084C233.091 259.581 233.987 260.079 234.882 260.576C246.924 241.369 253.791 218.679 253.791 194.296C253.692 177.079 250.208 160.658 243.839 145.631Z" fill="#333336"/>
<path d="M192.586 248.138C190.993 242.963 189.998 237.788 189.799 232.414C189.501 224.154 186.316 217.187 180.544 211.316C180.146 210.918 179.748 210.42 179.15 209.823C179.947 209.226 180.743 208.728 181.439 208.231C186.316 204.847 188.207 199.473 186.216 194.198C185.022 190.914 183.032 188.824 178.852 189.123C175.269 189.322 171.886 190.217 168.701 191.81C166.412 192.905 164.322 194.198 162.133 195.492C155.564 199.473 148.498 202.259 140.636 202.259C140.139 202.259 139.641 202.16 138.546 202.16C139.442 201.463 140.039 201.065 140.537 200.667C143.821 198.378 144.816 195.492 143.323 191.71C142.129 188.824 140.338 186.336 138.049 184.147C130.386 177.18 128.296 168.224 129.191 158.371C129.39 156.082 129.888 153.793 130.386 151.504C130.883 149.215 130.883 147.026 130.087 144.836C128.992 141.95 127.002 140.457 123.917 140.756C122.325 140.955 120.633 141.453 119.14 142.05C116.95 142.846 114.761 143.244 112.572 142.647C109.885 141.95 108.292 140.159 108.491 137.372C108.69 132.993 107.496 129.112 105.506 125.33C105.108 124.634 104.809 123.937 104.61 123.24C103.714 120.255 104.51 117.767 107.098 115.976C109.387 114.284 112.074 113.687 114.761 113.189C119.14 112.492 123.519 111.696 127.798 110.701C131.48 109.905 134.864 108.412 137.85 105.924C140.437 103.735 143.522 102.54 146.806 101.744C147.404 101.545 148.001 101.446 148.697 101.247C148.598 100.948 148.498 100.749 148.399 100.649C143.423 96.2705 140.039 90.7969 137.551 84.6267C135.362 79.0536 132.177 73.8785 128.594 69.1016C128.495 69.1016 128.296 69.1016 128.196 69.1016C59.1293 69.1016 3 125.231 3 194.397C3 263.564 59.1293 319.793 128.395 319.793C163.526 319.793 195.372 305.263 218.162 281.975C213.584 276.999 208.907 272.122 204.13 267.246C198.557 261.772 194.875 255.403 192.586 248.138ZM85.2036 121.549C86.1988 121.748 86.6964 122.345 86.5968 123.24C86.5968 124.136 86.0992 124.634 85.2036 124.733C85.0045 124.833 84.706 124.833 84.5069 124.833C83.1136 124.932 81.7204 124.932 80.3271 125.231C79.0333 125.529 77.8391 126.027 76.6448 126.425C77.9386 123.34 82.218 120.952 85.2036 121.549ZM86.3978 147.523C85.6016 148.32 84.6064 148.22 84.1088 147.125C83.1136 145.035 81.4218 144.438 79.4314 143.941C77.5405 143.443 76.3463 142.05 75.7492 140.258C74.4554 136.477 75.9482 131.7 79.1328 129.212C79.3319 129.112 79.5309 129.112 79.929 129.013C79.4314 130.505 78.8343 131.899 78.5357 133.292C77.8391 136.477 79.0333 138.865 82.1184 140.059C83.2132 140.557 84.5069 140.756 85.7012 141.154C86.8954 141.552 88.0896 142.149 88.2887 143.543C88.2887 145.135 87.4925 146.429 86.3978 147.523ZM107.496 243.361C107.297 244.655 106.501 245.352 105.008 245.65C104.311 243.958 103.018 242.764 101.525 241.669C100.828 241.172 100.43 239.977 100.43 238.982C100.43 236.395 101.624 234.404 104.311 233.608C103.913 234.205 103.515 234.902 103.217 235.499C102.321 237.489 102.62 238.982 104.411 240.276C104.809 240.575 105.307 240.774 105.705 241.072C106.7 241.669 107.695 242.167 107.496 243.361ZM109.785 230.822C109.685 231.22 108.79 231.618 108.193 231.618C106.7 231.518 105.307 231.22 103.316 231.021C105.008 229.528 106.6 229.229 108.392 229.528C109.287 229.528 110.084 229.926 109.785 230.822ZM154.669 276.501C154.37 277.297 154.37 278.293 154.47 279.089C154.569 280.582 154.47 281.179 152.877 281.278C147.105 281.975 141.432 282.373 135.66 281.676C134.167 281.477 132.675 281.278 131.58 279.985C134.864 277.795 135.262 276.402 133.67 272.62C133.57 272.421 133.57 272.321 133.471 272.122C130.386 266.649 131.182 261.175 133.769 255.801C134.167 255.005 134.565 254.109 134.765 253.214C135.262 250.925 134.267 249.432 131.978 249.133C130.983 249.034 129.988 249.133 128.992 249.133C125.907 249.133 124.713 247.541 125.211 244.456C125.509 242.864 125.41 241.172 125.211 239.48C124.514 235.798 125.808 234.006 129.49 233.907C130.684 233.907 131.779 234.106 132.973 234.205C136.854 234.504 140.835 234.802 144.518 233.111C145.612 232.613 146.906 232.613 148.2 232.414C151.384 231.916 153.872 236.096 152.181 238.684C150.887 240.674 151.185 242.565 151.782 244.655C152.28 246.446 152.479 248.437 152.479 250.328C152.479 251.522 151.982 252.617 149.792 251.82C150.489 252.716 150.787 253.214 151.086 253.612C156.261 260.777 157.853 268.241 154.669 276.501Z" fill="#333336"/>
<path d="M188.009 116.379C187.511 124.54 186.217 132.601 184.028 140.563C183.928 140.961 183.928 141.359 184.127 141.956C185.819 139.866 187.312 137.677 189.103 135.786C190.994 133.795 192.885 131.805 194.975 130.014C197.065 128.222 199.354 126.63 201.743 125.237C204.231 123.843 206.818 122.55 209.406 121.554C211.993 120.559 214.581 119.763 217.268 119.166C219.955 118.569 222.642 118.171 225.428 117.872C226.125 117.773 226.722 117.773 227.419 117.773C215.874 102.845 201.046 90.6037 184.028 82.1445C184.426 84.6325 184.924 87.021 185.62 89.509C188.009 98.2668 188.506 107.323 188.009 116.379Z" fill="#C4C4C4"/>
<path d="M149.89 252.019C152.08 252.816 152.577 251.721 152.577 250.527C152.577 248.636 152.279 246.745 151.881 244.854C151.383 242.764 150.985 240.873 152.279 238.883C153.871 236.295 151.482 232.215 148.298 232.613C147.104 232.812 145.71 232.812 144.616 233.31C140.834 235.101 136.952 234.802 133.071 234.404C131.877 234.305 130.782 234.106 129.588 234.106C125.906 234.205 124.612 235.997 125.309 239.679C125.607 241.271 125.607 242.963 125.309 244.655C124.811 247.641 126.005 249.233 129.09 249.332C130.086 249.332 131.081 249.133 132.076 249.332C134.365 249.631 135.36 251.124 134.863 253.413C134.664 254.308 134.265 255.105 133.867 256C131.28 261.374 130.484 266.848 133.569 272.322C133.668 272.421 133.668 272.62 133.768 272.819C135.36 276.601 134.962 277.994 131.678 280.184C132.773 281.378 134.265 281.676 135.758 281.875C141.53 282.572 147.303 282.174 152.975 281.477C154.468 281.278 154.667 280.781 154.568 279.288C154.468 278.392 154.468 277.397 154.767 276.7C157.951 268.44 156.359 260.976 151.283 254.01C150.885 253.413 150.487 252.915 149.89 252.019ZM147.303 236.196C148.795 236.494 149.791 237.29 149.791 238.584C149.791 239.679 148.994 240.475 147.402 240.674C145.412 240.973 143.421 241.271 141.431 241.57C140.933 237.987 144.715 235.798 147.303 236.196ZM133.967 242.864C132.972 243.759 131.777 244.058 130.484 243.859C128.692 243.66 127.896 242.266 128.593 240.674C129.19 239.181 130.484 238.385 132.076 238.286C133.867 238.087 135.46 238.485 137.948 239.679C136.455 240.774 135.261 241.769 133.967 242.864ZM145.113 266.748C144.715 268.042 143.919 268.54 142.128 268.142C140.038 267.644 138.047 267.545 135.858 268.341C135.36 264.758 136.455 263.066 139.341 262.668C140.137 262.569 140.933 262.768 141.729 262.967C142.426 263.166 143.023 263.763 143.72 264.061C145.113 264.858 145.511 265.554 145.113 266.748ZM152.378 265.753C152.179 266.052 151.781 266.251 151.383 266.35C150.189 266.649 148.994 266.848 147.601 267.047C146.606 264.658 146.805 263.066 148.298 261.971C149.393 261.175 150.388 261.175 151.482 262.071C152.478 262.967 152.975 264.858 152.378 265.753Z" fill="white"/>
<path d="M85.5013 141.054C84.3071 140.655 83.1129 140.456 81.9186 139.959C78.8335 138.665 77.6393 136.376 78.3359 133.191C78.6345 131.798 79.2316 130.405 79.7292 128.912C79.4306 129.012 79.1321 129.012 78.933 129.111C75.7484 131.599 74.2556 136.376 75.5493 140.158C76.1465 142.049 77.3407 143.442 79.2316 143.84C81.222 144.338 83.0133 145.034 83.909 147.025C84.4066 148.119 85.4018 148.219 86.198 147.423C87.2927 146.328 88.0889 145.034 87.8898 143.442C87.8898 142.049 86.6956 141.551 85.5013 141.054Z" fill="white"/>
<path d="M105.804 241.077C105.406 240.779 104.909 240.58 104.511 240.281C102.719 238.987 102.321 237.495 103.316 235.504C103.615 234.808 104.013 234.21 104.411 233.613C101.724 234.509 100.53 236.499 100.53 238.987C100.53 239.883 100.928 241.177 101.625 241.674C103.117 242.769 104.312 243.963 105.108 245.655C106.601 245.357 107.397 244.56 107.596 243.366C107.695 242.172 106.7 241.674 105.804 241.077Z" fill="white"/>
<path d="M84.6067 124.927C84.8057 124.927 85.1043 124.927 85.3033 124.828C86.0995 124.629 86.5971 124.231 86.6966 123.335C86.6966 122.34 86.199 121.842 85.3033 121.643C82.3177 120.947 78.0383 123.435 76.7446 126.619C78.0383 126.221 79.2326 125.624 80.4268 125.425C81.7206 125.027 83.2134 125.027 84.6067 124.927Z" fill="white"/>
<path d="M108.49 229.431C106.699 229.133 105.107 229.531 103.415 230.924C105.306 231.222 106.798 231.521 108.291 231.521C108.789 231.521 109.685 231.123 109.884 230.725C110.083 229.929 109.286 229.531 108.49 229.431Z" fill="white"/>
<path d="M225.526 117.864C222.839 118.063 220.053 118.561 217.366 119.158C214.678 119.755 211.991 120.551 209.503 121.546C206.916 122.542 204.328 123.835 201.84 125.229C199.452 126.622 197.163 128.214 195.073 130.006C192.983 131.797 190.993 133.688 189.201 135.778C187.41 137.768 185.818 139.858 184.225 141.948C183.927 141.351 184.026 140.953 184.126 140.555C186.315 132.593 187.709 124.532 188.107 116.371C188.604 107.315 188.107 98.3582 185.818 89.5009C185.221 87.1124 184.623 84.6244 184.225 82.1364C176.562 78.3546 168.501 75.2695 160.142 73.0801C155.862 81.5393 152.877 90.4961 150.488 99.7514C150.389 100.15 150.389 100.548 150.389 101.045C151.583 101.841 152.677 102.538 153.673 103.334C156.658 105.723 157.654 109.007 156.36 112.49C155.464 115.078 155.763 117.466 156.857 119.755C157.554 121.049 158.35 122.342 159.146 123.636C161.137 126.92 162.928 130.404 162.829 134.384C162.829 135.38 162.43 136.375 162.231 137.47C160.54 137.271 159.246 137.071 157.853 136.872C157.952 137.171 157.952 137.271 157.952 137.271C158.748 137.669 159.445 137.967 160.241 138.365C166.013 140.953 171.188 144.436 174.97 149.611C181.538 158.568 185.022 168.42 184.225 179.567C184.126 180.96 184.325 182.353 184.623 183.746C184.922 185.04 185.519 186.334 186.017 187.727C196.267 181.059 203.831 172.401 207.513 160.658C209.205 155.184 211.394 150.009 214.181 145.033C218.858 136.773 224.73 129.707 232.294 124.432C230.801 122.143 229.109 119.954 227.417 117.765C226.82 117.765 226.223 117.864 225.526 117.864Z" fill="#333336"/>
<path d="M156.063 161.561C154.57 161.362 153.176 160.765 151.783 160.466C150.39 160.267 148.897 159.77 147.703 160.168C140.04 162.556 138.547 168.925 142.13 174.897C145.314 171.612 149.494 170.916 153.774 170.717C154.47 170.717 155.067 170.816 155.764 170.717C158.551 170.617 160.043 168.925 160.043 165.94C160.143 163.352 158.849 162.059 156.063 161.561Z" fill="#333336"/>
<path d="M173.678 153.198C171.588 152.103 168.602 152.203 167.308 153.397C165.915 154.79 165.119 156.482 165.019 158.771C165.019 160.563 166.114 162.851 167.905 164.842C169.199 166.235 170.692 166.235 171.488 164.444C172.284 162.553 173.578 161.558 175.469 161.16C177.161 160.762 177.658 159.766 177.26 158.174C176.663 155.985 175.568 154.193 173.678 153.198Z" fill="#333336"/>
<path d="M141.033 126.525C141.829 122.444 143.919 120.454 147.999 119.857C148.796 119.757 149.691 119.558 150.388 119.26C151.781 118.663 152.378 117.468 151.98 115.975C151.682 114.483 150.288 113.487 148.398 113.388C144.118 113.089 140.137 116.374 139.54 120.951C139.242 123.439 139.242 125.927 140.436 128.415C140.834 127.719 140.934 127.122 141.033 126.525Z" fill="#333336"/>
<path d="M114.958 127.125C113.963 128.518 113.863 129.812 114.759 131.006C115.555 132.101 116.749 132.499 118.342 132.002C119.436 131.604 120.531 131.106 121.327 130.31C123.318 128.12 125.208 125.831 127.099 123.542C122.72 122.249 117.545 123.742 114.958 127.125Z" fill="#333336"/>
<path d="M143.621 264.069C142.925 263.671 142.327 263.173 141.631 262.974C140.835 262.676 140.038 262.477 139.242 262.676C136.356 263.173 135.261 264.865 135.759 268.348C137.949 267.552 139.939 267.652 142.029 268.149C143.82 268.548 144.616 268.149 145.014 266.756C145.512 265.562 145.114 264.865 143.621 264.069Z" fill="#333336"/>
<path d="M132.077 238.184C130.485 238.383 129.191 239.08 128.594 240.573C127.898 242.264 128.694 243.558 130.485 243.757C131.779 243.956 132.973 243.658 133.968 242.762C135.262 241.667 136.456 240.672 137.949 239.478C135.461 238.383 133.869 237.985 132.077 238.184Z" fill="#333336"/>
<path d="M147.403 240.673C148.895 240.474 149.791 239.678 149.791 238.583C149.791 237.389 148.895 236.493 147.303 236.195C144.716 235.797 140.934 237.986 141.332 241.569C143.422 241.27 145.412 240.972 147.403 240.673Z" fill="#333336"/>
<path d="M148.3 261.972C146.807 263.067 146.508 264.659 147.603 267.047C148.996 266.749 150.191 266.649 151.385 266.351C151.783 266.251 152.181 266.052 152.38 265.754C152.977 264.858 152.48 262.967 151.484 262.071C150.489 261.176 149.494 261.176 148.3 261.972Z" fill="#333336"/>
<path d="M9.66846 206.441C9.66846 206.441 39.624 227.042 26.8854 268.144C30.1696 272.722 33.7523 277.001 37.6336 281.081C39.5245 274.911 40.8182 267.945 41.0173 260.381C42.0125 228.236 23.0041 210.82 9.66846 206.441Z" fill="white"/>
<path d="M92.1713 277.902C92.1713 277.902 109.189 289.248 116.056 319.303C118.942 319.601 121.928 319.8 124.913 319.9C119.738 304.076 110.184 287.556 92.1713 277.902Z" fill="white"/>
<path d="M737.755 173.198C737.755 169.914 740.442 167.227 743.726 167.227C747.011 167.227 749.598 169.914 749.598 173.198C749.598 176.482 746.911 179.069 743.627 179.069C740.343 179.069 737.755 176.482 737.755 173.198ZM743.627 168.023C740.84 168.023 738.551 170.312 738.551 173.098C738.551 175.984 740.84 178.273 743.627 178.273C746.414 178.273 748.702 175.984 748.702 173.198C748.802 170.411 746.513 168.122 743.627 168.023Z" fill="white"/>
<path d="M742.235 175.979C741.936 175.979 741.638 175.979 741.439 175.979C741.439 173.989 741.439 171.998 741.439 169.908C741.538 169.908 741.638 169.908 741.737 169.908C742.533 169.908 743.329 169.908 744.026 169.908C744.922 169.908 745.718 170.605 745.818 171.6C745.917 172.396 745.519 172.993 744.822 173.391C745.519 174.088 745.818 174.984 745.917 175.979C745.618 175.979 745.32 175.979 745.121 175.979C745.121 175.78 745.021 175.581 745.021 175.382C744.922 174.884 744.723 174.387 744.325 173.989C744.026 173.69 743.628 173.491 743.13 173.491C742.832 173.491 742.533 173.491 742.235 173.491C742.235 174.387 742.235 175.183 742.235 175.979ZM742.235 172.794C742.235 172.794 742.334 172.794 742.235 172.794C742.931 172.794 743.429 172.794 744.026 172.794C744.623 172.794 745.121 172.197 745.021 171.6C744.922 171.102 744.524 170.804 744.026 170.804C743.429 170.804 742.931 170.804 742.334 170.804H742.235C742.235 171.401 742.235 172.098 742.235 172.794Z" fill="white"/>
<path d="M658.438 166.734C663.115 166.734 667.594 166.734 672.172 166.734C675.655 176.985 679.039 187.335 682.621 197.785C683.318 196.889 683.119 196.192 683.119 195.496C683.119 186.638 683.119 177.881 683.119 169.023C683.119 168.327 683.119 167.63 683.119 166.734C687 166.734 690.682 166.734 694.564 166.734C694.564 184.449 694.564 202.064 694.564 219.679C689.986 219.679 685.607 219.679 680.929 219.679C677.347 209.13 673.864 198.68 670.281 188.231C670.082 188.231 669.982 188.231 669.783 188.231C669.783 188.828 669.684 189.425 669.684 190.022C669.684 199.178 669.684 208.234 669.684 217.39C669.684 218.087 669.684 218.783 669.684 219.58C665.802 219.58 662.12 219.58 658.338 219.58C658.438 202.064 658.438 184.449 658.438 166.734Z" fill="white"/>
<path d="M418.993 219.687C418.097 217.995 417.998 216.204 417.898 214.512C417.699 211.427 417.699 208.341 417.5 205.256C417.4 203.963 417.301 202.669 417.102 201.475C416.704 199.484 415.51 198.29 413.42 197.991C411.529 197.693 409.638 197.693 407.548 197.892C407.548 198.688 407.448 199.484 407.448 200.28C407.448 206.053 407.448 211.725 407.448 217.497C407.448 218.194 407.349 218.891 407.349 219.687C403.269 219.687 399.387 219.687 395.506 219.687C395.108 218.393 395.008 168.932 395.407 166.742C395.805 166.742 396.203 166.643 396.601 166.643C403.269 166.643 409.936 166.643 416.505 166.742C417.799 166.742 419.192 166.941 420.486 167.14C425.561 168.135 428.646 171.121 429.84 176.097C430.537 179.182 430.537 182.367 429.84 185.452C429.044 189.134 426.954 191.622 423.372 192.916C423.073 193.015 422.675 193.214 422.376 193.314C422.277 193.314 422.277 193.513 422.177 193.712C422.974 193.911 423.67 194.11 424.367 194.409C426.755 195.205 428.547 196.797 429.044 199.285C429.542 201.972 429.84 204.659 430.04 207.346C430.239 209.237 430.139 211.128 430.139 212.919C430.239 215.208 430.338 217.497 431.632 219.587C430.239 219.985 422.078 220.085 418.993 219.687ZM407.548 175.5C407.548 180.277 407.448 184.755 407.548 189.433C409.936 189.632 412.026 189.632 414.017 189.035C415.808 188.537 417.002 187.343 417.6 185.551C418.197 183.561 418.197 181.67 417.799 179.68C417.4 177.689 416.107 176.396 414.116 175.898C412.026 175.301 409.936 175.201 407.548 175.5Z" fill="white"/>
<path d="M700.736 219.786C700.736 202.072 700.736 184.457 700.736 166.842C701.234 166.742 701.632 166.643 702.03 166.643C707.902 166.643 713.773 166.643 719.545 166.742C721.536 166.742 723.526 167.041 725.417 167.538C730.194 168.733 733.279 171.917 734.872 176.495C735.668 178.685 736.066 181.073 736.364 183.362C737.161 191.224 736.862 198.987 735.668 206.849C734.473 214.711 729 219.587 721.138 219.786C714.768 219.985 708.3 219.886 701.93 219.886C701.532 219.886 701.234 219.786 700.736 219.786ZM713.375 175.4C712.778 177.391 712.878 209.536 713.375 211.029C715.167 211.228 717.057 211.128 718.849 210.73C720.839 210.332 722.133 209.138 722.73 207.247C723.228 205.555 723.626 203.863 723.825 202.171C724.322 196.101 724.422 190.03 723.924 183.86C723.825 182.367 723.526 180.874 723.029 179.481C722.432 177.59 721.138 176.197 719.048 175.898C717.157 175.599 715.366 175.5 713.375 175.4Z" fill="white"/>
<path d="M390.234 192.799C390.334 197.476 390.433 202.154 389.537 206.732C389.239 208.225 388.841 209.817 388.343 211.31C386.85 215.888 383.666 218.873 378.988 220.167C374.211 221.461 369.434 221.461 364.657 220.167C359.98 218.873 356.795 215.888 355.203 211.21C354.108 208.025 353.611 204.642 353.412 201.258C353.014 194.789 352.914 188.221 353.71 181.752C354.009 179.264 354.606 176.776 355.601 174.388C357.392 170.108 360.577 167.322 365.155 166.227C369.434 165.232 373.614 165.132 377.894 166.028C383.566 167.222 387.149 170.805 388.841 176.279C389.736 179.165 390.135 182.051 390.234 185.036C390.334 187.624 390.234 190.211 390.234 192.799ZM377.794 192.102C377.595 188.719 377.595 185.434 377.296 182.25C377.197 180.558 376.799 178.866 376.301 177.274C375.704 175.184 374.112 174.189 371.922 174.089C369.633 173.99 368.041 174.885 367.145 176.975C366.847 177.672 366.548 178.369 366.548 179.065C366.25 181.752 365.852 184.439 365.852 187.126C365.852 193.097 365.951 199.069 366.25 205.04C366.349 206.732 366.847 208.324 367.344 209.916C367.743 211.31 368.738 212.305 370.33 212.603C373.316 213.101 375.406 212.404 376.401 209.22C376.898 207.528 377.197 205.637 377.296 203.846C377.595 199.964 377.595 195.984 377.794 192.102Z" fill="white"/>
<path d="M640.527 166.742C644.707 166.742 648.688 166.742 652.768 166.742C652.768 167.439 652.868 168.135 652.868 168.732C652.868 179.879 652.868 190.925 652.868 202.072C652.868 204.361 652.668 206.65 652.27 208.939C651.275 215.308 647.394 219.289 641.025 220.582C636.944 221.379 632.864 221.478 628.784 220.483C622.414 219.09 618.533 214.711 617.936 208.242C617.737 206.152 617.637 204.062 617.637 201.873C617.637 190.925 617.637 179.879 617.637 168.932C617.637 168.235 617.637 167.538 617.637 166.643C621.817 166.643 625.898 166.643 630.077 166.643C630.077 167.439 630.077 168.135 630.077 168.832C630.077 180.575 630.077 192.418 630.077 204.162C630.077 205.654 630.077 207.147 630.376 208.64C630.973 211.427 632.764 212.72 635.551 212.621C637.74 212.521 639.233 211.427 639.83 209.337C640.129 208.242 640.328 207.048 640.328 205.953C640.428 200.678 640.428 195.304 640.428 190.03C640.428 182.864 640.428 175.798 640.428 168.633C640.527 168.135 640.527 167.439 640.527 166.742Z" fill="white"/>
<path d="M348.433 219.779C345.746 219.779 343.059 219.779 340.173 219.779C339.974 218.386 339.874 216.993 339.675 215.301C339.178 215.799 338.979 215.998 338.879 216.296C337.287 218.884 334.898 220.277 331.913 220.775C328.927 221.272 325.942 221.272 322.956 220.377C319.373 219.381 316.885 217.092 315.293 213.709C313.999 210.823 313.402 207.738 313.104 204.553C312.506 197.288 312.506 190.023 313.104 182.858C313.303 180.867 313.601 178.877 314.099 176.986C315.691 171.015 319.473 167.432 325.544 166.138C329.325 165.342 333.107 165.342 336.889 166.138C343.159 167.432 346.741 171.313 347.737 177.882C347.936 179.374 348.035 180.967 348.135 182.658C344.154 182.658 340.372 182.658 336.391 182.658C336.292 181.663 336.093 180.569 335.993 179.573C335.894 178.877 335.794 178.18 335.595 177.483C334.898 175.194 333.505 174.1 331.216 174.1C328.927 174.1 327.235 175.194 326.539 177.384C326.141 178.578 325.842 179.872 325.842 181.066C325.245 189.625 325.046 198.184 326.041 206.742C326.141 207.538 326.34 208.434 326.539 209.23C327.235 211.519 328.828 212.714 331.017 212.813C333.207 212.913 335.197 211.718 335.993 209.529C336.491 208.136 336.789 206.643 336.889 205.15C337.088 203.458 336.889 201.766 336.889 199.975C335.098 199.278 333.207 199.975 331.117 199.378C330.918 196.79 331.017 194.203 331.117 191.416C336.889 191.416 342.562 191.416 348.234 191.416C348.632 192.81 348.831 216.595 348.433 219.779Z" fill="white"/>
<path d="M519.51 219.779C523.989 202.064 528.467 184.449 532.945 166.734C538.22 166.734 543.295 166.734 548.769 166.734C553.148 184.25 557.427 201.865 561.906 219.679C557.527 219.978 553.446 219.779 549.068 219.878C548.371 216.594 547.674 213.409 547.077 210.225C545.584 209.827 536.628 209.727 534.339 210.125C534.04 211.717 533.741 213.31 533.443 215.002C533.144 216.594 532.746 218.186 532.448 219.779C528.069 219.779 523.989 219.779 519.51 219.779ZM540.807 177.881C540.608 177.881 540.409 177.881 540.31 177.781C538.917 185.146 537.424 192.51 536.13 200.074C539.215 200.173 542.101 200.173 545.186 200.074C543.693 192.51 542.3 185.146 540.807 177.881Z" fill="white"/>
<path d="M510.753 101.248C514.236 101.248 517.421 101.248 520.606 101.248C521.103 102.641 521.103 146.629 520.606 148.421C516.724 148.421 512.843 148.421 508.763 148.421C507.17 143.743 505.678 139.165 504.085 134.488C502.493 129.91 501 125.232 499.308 120.356C498.711 121.152 498.91 121.849 498.91 122.446C498.91 130.407 498.91 138.27 498.91 146.231C498.91 146.928 498.91 147.525 498.91 148.421C495.427 148.62 492.143 148.62 488.759 148.421C488.759 132.696 488.759 117.072 488.759 101.348C489.356 101.248 489.953 101.248 490.451 101.248C493.437 101.248 496.323 101.248 499.308 101.248C500.901 101.248 500.901 101.248 501.498 102.84C504.185 110.802 506.772 118.764 509.459 126.725C509.658 127.422 509.957 128.019 510.355 128.716C510.753 126.427 510.654 124.237 510.654 121.948C510.654 119.759 510.654 117.47 510.654 115.28C510.654 112.991 510.654 110.702 510.654 108.413C510.753 106.025 510.753 103.736 510.753 101.248Z" fill="white"/>
<path d="M399.49 148.317C399.49 132.692 399.49 117.068 399.49 101.443C399.888 101.344 400.186 101.145 400.585 101.145C406.357 101.244 412.129 101.244 418.001 101.344C418.797 101.344 419.593 101.543 420.289 101.642C425.066 102.438 428.052 105.324 429.744 109.703C430.839 112.589 431.137 115.674 431.336 118.76C431.635 125.029 431.436 131.299 430.341 137.569C429.246 143.938 424.569 148.218 418.1 148.417C412.228 148.616 406.357 148.516 400.485 148.516C400.286 148.516 399.987 148.417 399.49 148.317ZM410.537 140.554C412.129 140.554 413.522 140.654 414.915 140.554C417.005 140.355 418.498 139.161 419.195 137.171C419.394 136.474 419.593 135.778 419.692 135.081C420.489 129.607 420.489 124.034 420.19 118.461C420.09 116.869 419.891 115.177 419.593 113.585C419.294 112.092 418.697 110.798 417.304 110.002C415.114 108.808 412.825 108.808 410.437 109.106C410.537 119.655 410.537 130.005 410.537 140.554Z" fill="white"/>
<path d="M572.356 124.535C572.157 120.355 572.157 116.076 573.053 111.896C573.252 110.802 573.65 109.707 574.048 108.612C575.74 104.134 579.024 101.447 583.702 100.551C586.986 99.9539 590.17 99.9539 593.455 100.451C598.829 101.447 602.312 104.532 603.705 109.707C604.501 112.493 604.899 115.379 604.999 118.266C605.297 124.336 605.397 130.307 604.402 136.378C604.103 137.871 603.805 139.463 603.307 140.956C602.013 144.937 599.227 147.524 595.246 148.619C591.066 149.813 586.787 149.913 582.507 148.818C578.029 147.624 574.944 144.837 573.75 140.359C573.053 137.771 572.555 135.084 572.356 132.397C572.157 129.81 572.356 127.123 572.356 124.535ZM594.052 124.933C593.952 124.933 593.853 124.933 593.753 124.933C593.753 122.246 593.853 119.46 593.753 116.773C593.654 114.882 593.355 113.09 592.957 111.2C592.459 108.911 590.867 107.716 588.777 107.716C586.588 107.716 585.095 108.811 584.398 111.1C584.1 111.996 583.901 112.891 583.901 113.787C583.303 121.251 583.303 128.715 584 136.179C584.1 137.373 584.498 138.667 584.896 139.861C585.493 141.553 586.986 142.349 588.777 142.349C590.568 142.349 591.962 141.653 592.658 139.861C593.056 138.767 593.455 137.572 593.554 136.378C593.654 132.497 593.853 128.715 594.052 124.933Z" fill="white"/>
<path d="M460.294 148.417C456.513 148.417 452.83 148.417 449.049 148.417C450.143 143.042 451.636 137.967 452.93 132.792C454.224 127.517 455.617 122.243 456.911 116.968C458.205 111.793 459.598 106.618 460.892 101.244C461.588 101.244 462.285 101.145 462.882 101.145C466.166 101.145 469.45 101.145 472.635 101.145C474.824 101.145 474.824 101.145 475.422 103.234C478.805 117.068 482.288 130.901 485.672 144.734C485.971 145.929 486.17 147.023 486.568 148.417C482.686 148.417 479.004 148.417 475.222 148.417C474.625 145.53 474.028 142.744 473.431 139.858C469.649 139.858 465.967 139.858 462.185 139.858C461.389 142.545 460.892 145.431 460.294 148.417ZM471.64 130.901C470.943 127.418 470.346 124.134 469.749 120.949C469.052 117.764 468.654 114.58 467.758 111.395C467.559 111.395 467.46 111.395 467.261 111.395C466.067 117.864 464.773 124.333 463.579 130.901C466.365 130.901 468.853 130.901 471.64 130.901Z" fill="white"/>
<path d="M615.248 176.386C609.177 176.585 603.306 176.386 597.335 176.485C597.335 180.267 597.335 183.85 597.335 187.632C602.908 187.731 608.481 187.632 614.054 187.731C614.054 191.015 614.054 194.001 614.054 197.186C612.163 197.584 610.272 197.285 608.481 197.385C606.69 197.385 604.898 197.385 603.007 197.385C601.116 197.385 599.325 197.385 597.235 197.385C597.036 201.266 597.136 204.948 597.136 208.63C597.136 212.313 597.136 215.995 597.136 219.777C592.956 219.777 588.875 219.777 584.795 219.777C584.795 202.062 584.795 184.547 584.795 166.832C594.946 166.832 604.998 166.832 615.149 166.832C615.248 169.917 615.248 173.002 615.248 176.386Z" fill="white"/>
<path d="M637.64 114.088C634.356 114.088 631.072 114.088 627.688 114.088C627.489 112.994 627.39 111.998 627.191 111.003C626.594 108.615 625.101 107.619 622.712 107.719C620.821 107.818 619.428 108.913 618.831 110.804C617.935 113.591 618.831 116.178 621.319 117.77C622.215 118.368 623.21 118.766 624.205 119.263C626.594 120.358 629.082 121.453 631.47 122.448C636.546 124.637 639.133 128.419 639.133 133.893C639.133 136.182 638.934 138.471 638.436 140.66C637.64 144.243 635.252 146.731 631.868 148.025C630.475 148.522 628.982 148.92 627.489 149.119C624.205 149.617 621.02 149.617 617.736 149.119C611.367 148.025 608.182 144.442 607.585 137.973C607.486 136.878 607.585 135.684 607.585 134.49C611.068 134.49 614.353 134.49 617.836 134.49C617.935 135.684 618.134 136.779 618.234 137.973C618.731 140.959 620.224 142.252 622.911 142.252C625.698 142.252 627.489 140.66 627.987 137.874C628.484 134.788 627.39 132.3 624.603 130.907C622.414 129.812 620.224 129.016 617.935 128.021C616.642 127.424 615.348 126.926 614.153 126.23C610.67 124.239 608.58 121.254 608.083 117.273C607.685 114.785 607.784 112.297 608.381 109.908C609.476 105.33 612.263 102.345 616.841 101.051C621.12 99.8569 625.399 99.8569 629.778 100.952C635.849 102.643 638.436 108.615 637.64 114.088Z" fill="white"/>
<path d="M641.222 134.487C644.705 134.487 647.989 134.487 651.373 134.487C651.472 134.984 651.572 135.382 651.572 135.88C651.671 136.875 651.771 137.771 651.97 138.766C652.567 141.055 653.861 142.15 656.15 142.349C658.538 142.448 660.429 141.354 661.225 139.264C662.519 135.979 661.325 132.596 658.14 131.003C656.05 130.008 653.96 129.113 651.87 128.217C651.472 128.018 651.074 127.918 650.676 127.719C642.217 124.137 638.933 115.279 643.112 107.019C644.804 103.635 647.69 101.844 651.273 100.948C654.955 100.053 658.737 100.053 662.419 100.849C667.992 102.043 670.978 105.626 671.476 111.398C671.575 112.194 671.476 113.09 671.476 114.185C668.191 114.384 664.907 114.284 661.424 114.185C661.325 113.687 661.126 113.388 661.126 112.99C661.026 112.294 660.927 111.697 660.827 111C660.23 108.711 658.936 107.716 656.647 107.815C654.458 107.815 652.865 109.109 652.368 111.299C651.771 114.085 652.666 116.474 655.154 117.966C656.15 118.563 657.344 119.061 658.438 119.559C660.628 120.554 662.817 121.549 665.106 122.445C670.381 124.634 672.869 128.715 672.869 134.387C672.869 136.179 672.769 137.87 672.371 139.562C671.376 144.936 667.893 147.922 662.618 149.017C658.837 149.813 655.055 149.912 651.273 149.216C645.003 148.121 641.719 144.439 641.222 137.97C641.122 136.875 641.222 135.681 641.222 134.487Z" fill="white"/>
<path d="M676.849 101.443C678.342 101.045 702.227 101.045 703.72 101.443C703.72 104.13 703.72 106.817 703.72 109.803C701.928 110.002 700.137 109.902 698.346 109.902C696.554 109.902 694.862 109.902 693.071 109.902C691.28 109.902 689.488 109.902 687.498 109.902C687.498 113.286 687.498 116.371 687.498 119.854C692.474 119.854 697.45 119.854 702.526 119.854C702.526 122.74 702.526 125.427 702.526 128.413C697.55 128.612 692.573 128.413 687.498 128.513C687.498 132.195 687.498 135.778 687.498 139.559C688.195 139.659 688.891 139.758 689.588 139.758C693.668 139.758 697.649 139.758 701.729 139.758C702.426 139.758 703.123 139.758 703.819 139.758C704.416 141.152 704.516 146.227 704.018 148.218C702.625 148.616 678.541 148.616 676.849 148.218C676.551 146.824 676.451 103.234 676.849 101.443Z" fill="white"/>
<path d="M517.618 209.924C517.618 213.407 517.618 216.592 517.618 219.777C507.467 219.777 497.515 219.777 487.264 219.777C487.165 202.162 487.165 184.547 487.165 166.832C491.344 166.832 495.325 166.832 499.605 166.832C499.704 170.415 499.605 173.898 499.605 177.481C499.605 181.063 499.605 184.746 499.605 188.328C499.605 191.911 499.605 195.494 499.605 198.977C499.605 202.56 499.605 206.043 499.605 209.825C505.775 209.924 511.646 209.924 517.618 209.924Z" fill="white"/>
<path d="M453.926 219.679C453.926 202.064 453.926 184.449 453.926 166.734C458.007 166.734 461.888 166.734 466.068 166.734C466.167 167.63 466.267 168.426 466.267 169.222C466.267 181.861 466.267 194.5 466.267 207.14C466.267 207.936 466.267 208.831 466.267 209.926C472.338 209.926 478.209 209.926 484.28 209.926C484.28 213.31 484.28 216.395 484.28 219.58C482.887 219.978 456.614 220.077 453.926 219.679Z" fill="white"/>
<path d="M479.801 287.844C477.81 287.844 476.118 287.844 474.526 287.844C474.128 286.551 474.029 240.373 474.427 238.084C476.915 237.985 479.502 237.985 482.189 238.084C487.663 251.818 493.037 265.452 498.51 279.385C499.207 278.49 499.008 277.793 499.008 277.096C499.008 264.955 499.008 252.813 499.008 240.672C499.008 239.876 499.008 239.08 499.008 238.184C500.899 238.184 502.591 238.184 504.382 238.184C504.78 239.577 504.88 286.053 504.382 287.944C502.093 287.944 499.804 287.944 497.416 287.944C496.52 287.944 496.421 287.247 496.221 286.551C494.828 282.968 493.435 279.485 492.042 275.902C488.359 266.647 484.677 257.391 480.995 248.136C480.796 247.738 480.597 247.34 480.199 246.544C480 247.24 479.9 247.638 479.9 248.036C479.9 250.226 479.9 252.415 479.9 254.605C479.9 264.955 479.9 275.305 479.9 285.555C479.801 286.252 479.801 286.949 479.801 287.844Z" fill="white"/>
<path d="M337.685 287.948C335.993 287.948 334.6 287.948 333.207 287.948C332.908 287.948 332.51 287.849 332.112 287.749C332.112 271.229 332.112 254.708 332.112 238.188C332.61 238.089 333.107 237.989 333.605 237.989C335.197 237.989 336.889 238.089 338.481 237.989C339.675 237.889 340.173 238.387 340.571 239.482C342.96 245.652 345.348 251.723 347.836 257.893C350.424 264.461 353.011 271.03 355.599 277.598C355.798 278.096 355.997 278.593 356.295 279.19C356.992 278.494 356.693 277.697 356.693 277.1C356.693 264.859 356.693 252.718 356.693 240.477C356.693 239.78 356.793 239.084 356.793 238.188C358.684 238.188 360.376 238.188 362.067 238.188C362.466 239.78 362.466 286.256 362.067 288.048C359.878 288.048 357.589 288.048 355.3 288.048C354.404 288.048 354.305 287.351 354.006 286.754C352.912 284.067 351.817 281.38 350.822 278.693C346.841 268.542 342.86 258.49 338.78 248.339C338.581 247.841 338.382 247.344 338.083 246.747C337.486 247.443 337.685 248.041 337.685 248.638C337.685 256.102 337.685 263.665 337.685 271.129C337.685 276.006 337.685 280.882 337.685 285.858C337.685 286.356 337.685 287.052 337.685 287.948Z" fill="white"/>
<path d="M543.493 101.248C552.45 101.248 561.407 101.248 570.363 101.248C570.363 104.134 570.363 106.821 570.363 109.807C568.672 110.006 566.88 109.906 565.188 109.906C563.397 109.906 561.705 109.906 559.914 109.906C558.222 109.906 556.431 109.906 554.54 109.906C554.341 113.29 554.341 116.475 554.54 119.858C557.028 119.958 559.416 119.858 561.805 119.858C564.193 119.858 566.582 119.858 568.97 119.858C569.567 121.152 569.667 125.73 569.169 128.417C564.392 128.616 559.516 128.417 554.44 128.517C554.142 131.9 554.341 135.184 554.341 138.369C554.341 141.653 554.341 144.838 554.341 148.022C552.748 148.52 545.185 148.52 543.393 148.122C543.493 132.597 543.493 116.972 543.493 101.248Z" fill="white"/>
<path d="M634.257 238.18C634.655 238.08 635.053 237.98 635.451 237.98C637.243 237.98 638.935 237.98 640.726 237.98C641.721 237.98 642.219 238.379 642.617 239.274C644.309 243.554 646.001 247.833 647.692 252.112C650.977 260.572 654.36 268.931 657.644 277.39C657.843 277.988 658.142 278.585 658.64 279.182C659.038 274.703 658.938 270.225 658.938 265.747C658.938 261.169 658.938 256.591 658.938 252.013C658.938 247.534 658.938 242.956 658.938 238.279C660.829 238.279 662.521 238.279 664.412 238.279C664.511 238.876 664.611 239.374 664.611 239.971C664.611 255.396 664.611 270.922 664.611 286.347C664.611 286.845 664.511 287.342 664.511 288.039C663.218 288.039 661.924 288.139 660.73 288.139C659.436 288.139 657.843 288.437 656.848 287.84C655.953 287.243 655.754 285.651 655.256 284.456C650.479 272.514 645.801 260.572 641.025 248.629C640.825 248.132 640.527 247.534 640.228 246.838C639.631 247.634 639.83 248.231 639.83 248.828C639.83 261.169 639.83 273.509 639.83 285.75C639.83 286.447 639.83 287.143 639.83 288.039C637.939 288.039 636.148 288.039 634.456 288.039C633.959 286.447 633.859 240.468 634.257 238.18Z" fill="white"/>
<path d="M727.107 148.417C723.524 148.417 720.041 148.417 716.259 148.417C716.259 147.72 716.259 147.023 716.259 146.426C716.259 141.45 716.259 136.375 716.259 131.399C716.259 130.403 716.06 129.309 715.662 128.413C712.179 120.153 708.596 111.793 705.113 103.533C704.815 102.836 704.616 102.239 704.217 101.344C704.815 101.244 705.213 101.145 705.71 101.145C708.696 101.145 711.582 101.145 714.568 101.145C716.259 101.145 716.259 101.145 716.757 102.737C718.25 107.215 719.643 111.694 721.036 116.172C721.235 116.769 721.434 117.366 721.633 117.963C721.733 117.963 721.932 117.963 722.032 117.963C722.231 117.466 722.529 116.968 722.629 116.371C724.022 111.893 725.415 107.414 726.908 102.936C727.505 101.145 727.505 101.145 729.297 101.145C732.481 101.145 735.666 101.145 739.249 101.145C738.95 102.04 738.751 102.637 738.452 103.334C735.069 111.495 731.585 119.556 728.102 127.716C727.505 129.209 727.107 130.602 727.207 132.294C727.306 136.972 727.207 141.649 727.207 146.227C727.207 146.824 727.207 147.521 727.107 148.417Z" fill="white"/>
<path d="M442.183 287.84C440.193 287.84 438.501 287.84 436.908 287.84C436.809 287.74 436.809 287.741 436.709 287.641L436.61 287.541C436.51 287.143 436.51 286.745 436.51 286.248C436.51 270.424 436.51 254.6 436.51 238.777C436.51 238.578 436.61 238.478 436.709 238.18C437.107 238.08 437.506 237.98 437.904 237.98C442.88 237.98 447.955 237.98 452.931 238.08C453.727 238.08 454.623 238.18 455.419 238.379C460.495 239.175 463.48 242.26 464.675 247.136C465.371 250.022 465.272 253.008 464.476 255.894C463.58 258.979 461.788 261.268 458.803 262.562C458.504 262.661 458.305 262.86 458.007 262.96C458.007 262.96 457.907 263.06 457.907 263.259C458.405 263.458 458.803 263.657 459.3 263.856C461.788 264.652 463.381 266.244 463.878 268.832C464.376 271.519 464.675 274.305 464.874 277.092C465.073 278.983 464.973 280.973 465.272 282.864C465.57 284.556 466.167 286.148 466.665 288.039C464.874 288.039 462.983 288.039 461.092 288.039C460.196 288.039 459.898 287.442 459.798 286.745C459.499 285.053 459.201 283.262 459.101 281.57C458.902 278.883 458.803 276.097 458.703 273.41C458.604 272.414 458.504 271.32 458.206 270.324C457.609 267.936 456.116 266.443 453.727 265.846C453.528 265.846 453.329 265.747 453.23 265.747C449.747 265.249 446.263 265.548 442.581 265.548C442.084 273.012 442.382 280.276 442.183 287.84ZM442.283 260.87C445.865 260.97 449.249 261.169 452.633 260.671C455.618 260.173 457.509 258.482 458.504 255.695C459.201 253.705 459.4 251.714 459.002 249.624C458.405 245.843 456.315 243.554 452.533 243.056C449.348 242.658 446.064 242.857 442.78 242.757C442.681 242.757 442.482 242.956 442.183 243.156C442.283 248.928 442.183 254.799 442.283 260.87Z" fill="white"/>
<path d="M594.249 262.868C594.349 258.589 594.548 254.409 595.543 250.229C595.842 248.836 596.24 247.542 596.737 246.248C598.927 240.675 603.007 237.491 608.978 237.093C610.869 236.993 612.86 237.093 614.75 237.491C618.433 238.187 621.02 240.377 622.911 243.561C624.603 246.547 625.399 249.732 625.797 253.016C626.593 260.38 626.593 267.844 625.2 275.209C624.802 277.199 624.105 279.19 623.309 281.08C621.518 285.26 618.333 287.947 613.755 288.544C611.466 288.843 609.078 288.843 606.689 288.544C602.609 287.947 599.623 285.559 597.733 281.976C596.041 278.791 595.245 275.308 594.846 271.726C594.548 268.74 594.448 265.854 594.249 262.868ZM600.519 262.868C600.519 264.759 600.519 266.75 600.519 268.64C600.519 269.735 600.718 270.929 600.818 272.024C601.216 274.711 601.713 277.398 603.007 279.886C604.102 281.877 605.595 283.469 607.884 283.867C612.163 284.763 615.746 283.469 617.637 279.588C618.532 277.796 619.129 275.706 619.428 273.716C620.622 267.048 620.423 260.38 619.726 253.712C619.428 250.826 618.731 248.04 617.238 245.452C614.452 240.775 606.192 240.576 603.405 245.452C602.609 246.945 601.912 248.537 601.514 250.13C600.519 254.309 600.42 258.589 600.519 262.868Z" fill="white"/>
<path d="M447.754 166.742C447.754 184.357 447.754 201.972 447.754 219.687C443.673 219.985 439.693 219.786 435.413 219.786C435.413 201.972 435.413 184.457 435.413 166.643C439.493 166.742 443.574 166.742 447.754 166.742Z" fill="white"/>
<path d="M706.507 287.85C704.218 287.85 702.327 287.85 700.137 287.85C698.943 283.371 697.849 278.794 696.654 274.216C691.081 274.216 685.807 274.216 680.233 274.216C679.039 278.794 677.745 283.272 676.551 287.85C674.561 287.85 672.67 287.85 670.381 287.85C675.158 271.131 679.935 254.71 684.712 238.09C687.399 238.09 689.986 238.09 692.773 238.09C697.351 254.61 701.929 271.031 706.507 287.85ZM695.56 269.24C694.962 266.951 694.465 264.761 693.868 262.572C693.37 260.382 692.773 258.193 692.275 256.103C691.778 253.914 691.181 251.824 690.584 249.634C690.086 247.544 689.688 245.355 688.693 243.464C687.697 246.35 686.901 249.137 686.205 252.023C685.409 254.909 684.612 257.795 683.916 260.78C683.219 263.567 682.124 266.354 681.826 269.339C686.404 269.24 690.783 269.24 695.56 269.24Z" fill="white"/>
<path d="M546.381 287.949C544.589 287.949 542.798 287.949 541.006 287.949C540.21 287.949 540.21 287.253 540.011 286.656C539.215 283.371 538.419 280.087 537.523 276.803C536.727 273.917 537.324 274.216 534.239 274.216C530.358 274.216 526.477 274.216 522.695 274.216C521.998 274.216 521.401 274.216 520.505 274.216C519.013 278.694 518.117 283.371 516.724 287.85C514.733 287.85 512.842 287.85 510.951 287.85C510.951 286.556 523.69 241.573 525.083 238.09C527.671 238.09 530.258 238.09 532.846 238.09C533.841 240.379 546.381 286.357 546.381 287.949ZM521.998 269.24C526.477 269.24 530.955 269.24 535.732 269.24C533.542 260.482 531.353 251.923 529.164 243.165C528.268 244.459 521.998 267.249 521.998 269.24Z" fill="white"/>
<path d="M347.639 121.646C345.151 121.646 342.961 121.646 340.672 121.646C340.473 126.721 340.672 131.598 340.573 136.673C337.886 136.673 335.298 136.673 332.711 136.673C332.312 135.479 332.113 104.628 332.511 101.642C333.805 101.244 338.383 101.144 340.573 101.542C340.573 105.822 340.573 110.101 340.573 114.679C342.961 114.779 345.151 114.878 347.539 114.679C347.539 110.201 347.539 106.021 347.539 101.742C348.932 101.244 353.51 101.144 355.7 101.542C355.7 113.186 355.7 124.83 355.7 136.673C353.013 136.673 350.425 136.673 347.639 136.673C347.639 131.697 347.639 126.821 347.639 121.646Z" fill="white"/>
<path d="M403.966 238.09C412.326 238.09 420.586 238.09 429.045 238.09C429.045 239.682 429.045 241.274 429.045 242.966C428.348 242.966 427.652 243.066 426.955 243.066C421.979 243.066 416.904 243.066 411.928 243.066C411.231 243.066 410.534 243.165 409.838 243.165C409.44 244.658 409.34 256.899 409.738 259.188C410.435 259.288 411.131 259.387 411.828 259.387C416.506 259.387 421.083 259.387 425.761 259.387C426.458 259.387 427.154 259.487 428.05 259.487C428.05 261.178 428.05 262.671 428.05 264.363C421.88 264.363 415.908 264.363 409.937 264.363C409.44 265.856 409.34 280.485 409.838 282.675C413.122 282.774 416.506 282.675 419.889 282.675C423.173 282.675 426.557 282.675 430.04 282.675C430.04 284.367 430.04 285.959 430.04 287.551C428.747 287.949 406.653 288.049 404.165 287.75C403.568 286.457 403.468 240.18 403.966 238.09Z" fill="white"/>
<path d="M446.66 148.323C443.077 148.323 439.494 148.323 436.011 148.323C435.613 146.93 435.414 103.042 435.911 101.151C439.494 101.051 442.977 101.051 446.66 101.151C446.66 116.975 446.66 132.599 446.66 148.323Z" fill="white"/>
<path d="M360.079 101.447C366.747 101.447 373.315 101.447 379.983 101.447C379.983 103.537 379.983 105.528 379.983 107.817C376.002 107.817 372.121 107.817 368.04 107.817C367.841 110.305 367.941 112.693 367.941 115.181C368.638 115.281 369.334 115.38 369.931 115.38C372.32 115.38 374.808 115.38 377.196 115.38C377.893 115.38 378.49 115.48 379.286 115.48C379.286 117.57 379.286 119.46 379.286 121.55C378.689 121.55 377.992 121.65 377.395 121.65C375.007 121.65 372.519 121.65 370.13 121.65C369.533 121.65 368.837 121.749 368.04 121.749C368.04 124.536 368.04 127.123 368.04 130.01C372.121 130.308 376.201 129.91 380.381 130.209C380.68 132.398 380.58 134.388 380.48 136.379C379.087 136.777 362.567 136.876 360.178 136.578C359.681 135.384 359.581 103.836 360.079 101.447Z" fill="white"/>
<path d="M718.351 282.774C725.317 282.774 731.985 282.774 738.852 282.774C738.852 284.566 738.852 286.158 738.852 287.85C730.094 287.85 721.436 287.85 712.778 287.85C712.38 286.357 712.28 239.981 712.778 238.09C714.569 238.09 716.36 238.09 718.351 238.09C718.351 238.886 718.45 239.583 718.45 240.379C718.45 253.615 718.45 266.851 718.45 280.087C718.351 280.883 718.351 281.58 718.351 282.774Z" fill="white"/>
<path d="M386.054 287.84C383.964 287.84 382.273 287.84 380.282 287.84C380.183 284.158 380.282 280.476 380.183 276.793C380.183 273.012 380.183 269.329 380.183 265.548C380.183 261.865 380.183 258.183 380.183 254.501C380.183 250.819 380.183 247.136 380.183 243.255C376.003 242.757 371.923 243.255 367.643 242.956C367.345 241.364 367.544 239.871 367.544 238.18C368.041 238.08 368.539 237.98 368.937 237.98C378.391 237.98 387.746 237.98 397.201 237.98C397.599 237.98 397.897 238.08 398.395 238.08C398.395 239.672 398.395 241.165 398.395 242.956C397.798 242.956 397.201 243.056 396.604 243.056C393.817 243.056 391.03 243.056 388.244 243.056C387.647 243.056 386.95 243.156 386.054 243.156C385.955 246.937 386.054 250.62 385.955 254.302C385.955 258.084 385.955 261.766 385.955 265.548C385.955 269.23 385.955 272.912 385.955 276.594C386.054 280.276 386.054 283.959 386.054 287.84Z" fill="white"/>
<path d="M544.788 238.09C555.038 238.09 565.189 238.09 575.34 238.09C575.738 239.782 575.639 241.274 575.34 243.066C571.26 243.364 567.279 242.966 563 243.265C563 258.193 563 273.021 563 287.85C561.01 287.85 559.218 287.85 557.228 287.85C557.029 280.286 557.228 272.922 557.128 265.458C557.128 258.093 557.128 250.729 557.128 243.165C552.849 242.966 548.868 243.165 544.688 242.966C544.489 241.374 544.589 239.881 544.788 238.09Z" fill="white"/>
<path d="M315.394 108.115C312.807 108.115 310.518 108.115 308.129 108.115C307.731 105.826 307.93 103.637 308.03 101.447C315.693 101.447 323.157 101.447 330.82 101.447C331.118 103.637 330.919 105.727 330.919 108.115C328.431 108.115 326.242 108.115 323.654 108.115C323.455 111.399 323.555 114.584 323.555 117.669C323.555 120.854 323.555 123.939 323.555 127.123C323.555 130.308 323.555 133.393 323.555 136.777C320.868 136.876 318.181 136.876 315.394 136.777C315.394 127.223 315.394 117.868 315.394 108.115Z" fill="white"/>
<path d="M580.915 238.09C582.806 238.09 584.597 238.09 586.588 238.09C586.588 254.71 586.588 271.23 586.588 287.75C585.99 287.85 585.592 287.949 585.294 287.949C583.901 287.949 582.408 287.949 581.014 287.949C580.616 286.556 580.517 240.578 580.915 238.09Z" fill="white"/>
<path d="M322.46 287.845C320.569 287.845 318.778 287.845 316.887 287.845C316.887 271.324 316.887 254.804 316.887 238.383C318.181 237.886 320.171 237.886 322.36 238.184L322.46 238.284L322.559 238.383C322.559 238.781 322.659 239.179 322.659 239.677C322.659 255.501 322.659 271.324 322.659 287.148C322.659 287.347 322.559 287.447 322.46 287.845Z" fill="white"/>
<path d="M128.395 319.892C197.649 319.892 253.791 263.751 253.791 194.497C253.791 125.243 197.649 69.1016 128.395 69.1016C59.1414 69.1016 3 125.243 3 194.497C3 263.751 59.1414 319.892 128.395 319.892Z" stroke="white" stroke-width="6" stroke-miterlimit="10"/>
</svg>
