<svg width="384" height="150" viewBox="0 0 384 150" fill="none" xmlns="http://www.w3.org/2000/svg">
<path d="M157.346 59.5684H169.7C171.659 59.5684 173.316 60.171 174.672 61.2257C175.878 62.431 176.48 63.9377 176.48 65.7457V69.0603C176.48 71.019 175.878 72.5256 174.522 73.731C173.166 74.9363 171.508 75.539 169.399 75.539H161.414V83.6749H157.346V59.5684ZM169.399 72.0736C170.303 72.0736 171.056 71.7723 171.659 71.1696C172.262 70.567 172.563 69.8137 172.563 68.9097V65.8963C172.563 64.9923 172.262 64.3897 171.81 63.787C171.358 63.335 170.604 63.0337 169.7 63.0337H161.414V72.0736H169.399Z" fill="#72A15F"/>
<path d="M180.398 82.9216C179.795 82.3189 179.645 81.7163 179.645 80.8123V59.5684H197.423V63.0337H183.713V69.663H196.368V73.1283H183.713V80.2096H197.423V83.6749H182.658C181.603 83.6749 180.85 83.3736 180.398 82.9216Z" fill="#72A15F"/>
<path d="M200.89 59.5684H213.395C215.354 59.5684 217.011 60.171 218.216 61.2257C219.422 62.2803 220.024 63.787 220.024 65.4443V67.855C220.024 69.0603 219.723 70.115 218.97 71.019C218.216 71.923 217.312 72.6763 215.956 72.9776C216.71 73.4296 217.312 74.0323 217.764 74.635C218.216 75.3883 218.668 76.1416 218.97 77.347L220.928 83.5243H216.71L214.902 77.4976C214.6 76.443 214.148 75.6896 213.546 75.087C212.943 74.4843 212.19 74.183 211.436 74.183H205.259V83.6749H200.89V59.5684ZM212.491 71.019C213.546 71.019 214.45 70.7176 215.052 70.115C215.655 69.5123 215.956 68.759 215.956 67.855V65.4443C215.956 64.691 215.655 64.0883 215.203 63.6363C214.751 63.1843 214.148 62.883 213.244 62.883H204.958V70.8683H212.491V71.019Z" fill="#72A15F"/>
<path d="M112.297 40.1507C111.695 40.1507 111.243 40 110.64 40C93.1626 40 79 54.1626 79 71.6399C79 76.4612 80.0547 80.9812 82.0133 85.0491C82.0133 85.1998 82.164 85.3505 82.164 85.3505L82.3147 85.5011C86.9853 95.1438 96.4773 102.074 107.627 103.129C107.777 103.129 107.777 103.129 107.928 103.129C108.531 103.129 109.284 103.28 109.887 103.28C110.037 103.28 110.339 103.28 110.489 103.28H110.64C128.117 103.28 142.28 89.1171 142.28 71.6399C142.28 54.9159 129.021 41.0547 112.297 40.1507ZM125.104 56.4226C125.104 64.4079 118.625 70.8865 110.64 70.8865C101.6 70.8865 94.3679 78.1185 94.3679 87.1585C94.3679 91.3771 96.0253 95.2944 98.5866 98.1571C97.5319 97.4038 96.7786 96.8011 96.0253 96.0478C92.8613 92.8838 90.9026 88.5145 90.9026 84.4465C90.9026 76.0092 96.1759 71.1879 107.024 69.6812C116.516 68.3252 121.186 63.6546 121.186 55.8199C121.186 51.7519 119.378 47.9853 115.913 45.2733C114.105 43.7667 111.845 42.712 109.585 42.1093C109.887 42.1093 110.188 42.1093 110.64 42.1093C118.625 41.9587 125.104 48.4373 125.104 56.4226ZM83.6706 84.4465C83.2186 82.9398 81.26 76.3105 83.8213 71.4892C85.0266 69.0785 87.136 67.4212 89.9986 66.6679C91.0533 66.3666 92.1079 66.0652 93.1626 65.7639C102.203 63.2026 107.175 61.6959 107.325 54.7653C107.476 51.3 105.367 48.2866 101.751 46.78C100.997 46.4786 99.9426 46.1773 99.0386 46.0266C102.353 45.424 105.668 45.7253 108.229 47.0813C111.243 48.588 112.749 51.3 112.749 54.9159C112.749 59.8879 110.339 62.9012 104.764 64.4079C104.161 64.5586 103.408 64.7092 102.655 65.0106C94.0666 67.2705 83.3693 70.1332 84.2733 82.7892C84.424 84.4465 84.876 86.2545 85.6293 88.0625C85.0266 87.0078 84.2733 85.8025 83.6706 84.4465ZM85.6293 55.6693C89.0946 51.1493 93.1626 50.2453 95.7239 50.848C97.3813 51.3 98.4359 52.3546 98.7372 53.7106C99.0386 55.0666 98.8879 56.2719 98.1346 57.0253C96.6279 58.9839 93.0119 59.5866 89.848 59.7372C86.3826 60.0386 83.6706 61.3946 81.8627 63.8052C82.7666 60.9426 83.972 58.2306 85.6293 55.6693ZM100.997 43.616C105.969 42.5613 111.243 43.616 114.859 46.6293C117.721 48.8893 119.378 52.2039 119.378 55.6693C119.378 62.5999 115.311 66.5172 106.723 67.7225C94.9706 69.3799 88.944 74.9545 88.944 84.2958C88.944 87.4598 89.9986 90.7745 91.8066 93.7878C88.492 90.4731 86.232 86.5558 86.0813 82.7892C85.328 71.6399 94.3679 69.2292 103.107 66.8186C103.86 66.6679 104.463 66.5172 105.216 66.2159C111.544 64.4079 114.557 60.7919 114.557 54.9159C114.557 50.6973 112.599 47.232 108.983 45.424C106.421 44.068 103.107 43.616 99.7919 43.9173C100.244 43.7667 100.545 43.7666 100.997 43.616ZM81.1093 73.5985C81.1093 70.8865 81.4107 67.4212 83.3693 65.0106C84.876 63.0519 87.136 61.8466 89.9986 61.6959C93.6146 61.3946 97.6826 60.7919 99.4906 58.2306C100.395 56.8746 100.847 55.3679 100.395 53.4093C99.9426 51.3 98.2852 49.6426 95.8746 49.04C94.8199 48.7386 93.6146 48.7386 92.2586 49.04C95.5733 47.3826 98.7372 47.5333 100.997 48.4373C103.86 49.6426 105.517 52.0533 105.367 54.7653C105.216 60.3399 101.449 61.3946 92.5599 63.9559C91.5053 64.2572 90.4506 64.5586 89.396 64.8599C85.9306 65.9146 83.52 67.8732 82.164 70.7359C81.712 71.6399 81.4107 72.5439 81.1093 73.5985ZM110.64 101.622C110.489 101.472 110.489 101.472 110.64 101.622C102.655 101.472 96.1759 95.1438 96.1759 87.1585C96.1759 79.1732 102.655 72.6945 110.64 72.6945C119.68 72.6945 126.912 65.4626 126.912 56.4226C126.912 51.4506 124.652 46.9306 121.036 43.9173C132.336 48.136 140.472 58.9839 140.472 71.7905C140.472 88.2131 127.062 101.622 110.64 101.622Z" fill="#72A15F"/>
<path d="M224.844 82.9216C224.241 82.3189 224.091 81.7163 224.091 80.8123V59.5684H228.159V80.2096H241.267V83.6749H227.104C226.049 83.6749 225.296 83.3736 224.844 82.9216Z" fill="#72A15F"/>
<path d="M244.281 83.217C243.829 82.765 243.527 82.1623 243.527 81.409C243.527 80.6557 243.829 80.053 244.281 79.601C244.733 79.149 245.335 78.8477 246.089 78.8477C246.842 78.8477 247.445 79.149 247.897 79.601C248.349 80.053 248.65 80.6557 248.65 81.409C248.65 82.1623 248.349 82.765 247.897 83.217C247.445 83.669 246.842 83.9703 246.089 83.9703C245.335 83.9703 244.733 83.669 244.281 83.217Z" fill="#72A15F"/>
<path d="M252.567 82.0192C251.361 80.8138 250.759 79.3072 250.759 77.4992V72.8285C250.759 70.8699 251.361 69.2125 252.567 68.0072C253.772 66.8019 255.429 66.1992 257.388 66.1992H260.251C262.209 66.1992 263.716 66.8019 264.921 68.0072C266.127 69.2125 266.729 70.7192 266.729 72.6779V75.8418H253.923V77.4992C253.923 78.5538 254.224 79.4578 254.827 80.0605C255.429 80.6632 256.333 80.9645 257.388 80.9645H260.1C261.155 80.9645 261.908 80.6632 262.661 80.2112C263.264 79.6085 263.565 79.0058 263.565 78.1018H266.729C266.729 79.7592 266.127 81.2658 264.921 82.3205C263.716 83.3751 262.059 83.8271 260.1 83.8271H257.539C255.279 83.6765 253.772 83.0738 252.567 82.0192ZM263.415 73.2805V72.5272C263.415 71.3219 263.113 70.4179 262.511 69.8152C261.908 69.0619 261.155 68.7605 260.1 68.7605H257.237C256.183 68.7605 255.279 69.0619 254.676 69.8152C254.073 70.5685 253.772 71.4725 253.772 72.6779V73.1299H263.415V73.2805Z" fill="#72A15F"/>
<path d="M271.701 81.8749C270.496 80.6696 269.893 79.1629 269.893 77.2043V72.5336C269.893 70.5749 270.496 68.9176 271.701 67.7123C272.906 66.507 274.413 65.9043 276.522 65.9043H279.234C281.042 65.9043 282.549 66.507 283.754 67.411C284.96 68.4656 285.412 69.8216 285.412 71.6296H282.248C282.248 70.7256 281.946 69.9723 281.344 69.5203C280.741 69.0683 279.988 68.767 279.084 68.767H276.372C275.317 68.767 274.564 69.0683 273.961 69.8216C273.358 70.5749 273.057 71.4789 273.057 72.6843V77.0536C273.057 78.1082 273.358 79.0122 273.961 79.7656C274.564 80.3682 275.468 80.8202 276.372 80.8202H279.084C279.988 80.8202 280.892 80.5189 281.344 79.7656C281.946 79.1629 282.248 78.2589 282.248 77.0536H285.412C285.412 79.0122 284.809 80.5189 283.604 81.7242C282.398 82.9296 280.892 83.5322 278.933 83.5322H276.221C274.564 83.6829 272.906 83.0802 271.701 81.8749Z" fill="#72A15F"/>
<path d="M290.385 81.8749C289.18 80.6696 288.577 79.0122 288.577 77.0536V72.5336C288.577 70.5749 289.18 68.9176 290.385 67.7123C291.59 66.507 293.248 65.9043 295.357 65.9043H298.22C300.329 65.9043 301.836 66.507 303.192 67.7123C304.397 68.9176 305 70.5749 305 72.5336V77.0536C305 79.0122 304.397 80.6696 303.192 81.8749C301.986 83.0802 300.329 83.6829 298.22 83.6829H295.357C293.248 83.6829 291.59 83.0802 290.385 81.8749ZM298.22 80.8202C299.274 80.8202 300.178 80.5189 300.932 79.7656C301.534 79.0122 301.986 78.1082 301.986 76.9029V72.6843C301.986 71.4789 301.685 70.5749 301.082 69.8216C300.48 69.0683 299.576 68.767 298.521 68.767H295.658C294.604 68.767 293.7 69.0683 293.097 69.8216C292.494 70.5749 292.193 71.4789 292.193 72.6843V76.9029C292.193 78.1082 292.494 79.0122 293.097 79.7656C293.7 80.5189 294.604 80.8202 295.658 80.8202H298.22Z" fill="#72A15F"/>
</svg>
