<svg width="296" height="105" viewBox="0 0 296 105" fill="none" xmlns="http://www.w3.org/2000/svg">
<path d="M269.636 42.2246C274.986 42.4548 280.249 42.3876 285.436 42.9918C289.188 43.4329 292.248 45.5619 293.268 49.5033C294.25 53.3105 294.048 57.0697 290.901 59.9083C289.573 61.107 287.735 61.7496 286.109 62.6126C285.695 62.8332 285.214 62.9099 284.56 63.1113C288.322 68.5296 291.969 74.0438 295.635 79.3278H290.497C287.629 75.1466 283.607 68.9228 280.788 64.7128C280.105 63.6963 279.374 63.2072 278.123 63.3223C276.833 63.4374 275.515 63.3511 274.014 63.3511C274.014 68.7406 274.014 73.9862 274.014 79.3278C272.474 79.3278 271.127 79.3278 269.645 79.3278C269.636 67.1199 269.636 54.9216 269.636 42.2246ZM274.072 45.8783C274.072 50.6829 274.072 55.1517 274.072 60.0426C277.709 59.7836 281.269 59.8124 284.714 59.2082C287.88 58.652 289.352 56.0724 289.256 52.5721C289.15 49.0046 287.735 46.8757 284.406 46.4058C281.038 45.9263 277.584 46.0414 274.072 45.8783Z" fill="white"/>
<path d="M118.441 88.7647C118.441 76.691 118.441 64.6558 118.441 52.3903H122.627L122.636 56.303C122.771 56.3413 122.896 56.3893 123.031 56.4277C123.454 55.9482 123.839 55.4207 124.311 54.9892C129.882 49.849 139.062 51.2683 142.516 58.0292C145.268 63.4091 145.114 69 142.16 74.2936C138.051 81.649 127.255 81.4188 123.416 76.0581C123.3 75.8951 123.108 75.7704 122.646 75.358C122.646 77.8226 122.646 79.9708 122.646 82.1189C122.646 84.2862 122.646 86.4631 122.646 88.7647C121.203 88.7647 119.875 88.7647 118.441 88.7647ZM122.348 66.2477C122.588 67.5807 122.713 69.2301 123.194 70.7645C124.359 74.4758 127.534 76.5184 131.652 76.4129C135.703 76.3074 138.301 74.2936 139.35 70.3617C140.101 67.5807 140.12 64.7612 139.408 61.9706C138.321 57.7415 135.261 55.3536 131.152 55.4591C126.812 55.5646 123.714 58.1155 122.838 62.3925C122.598 63.5625 122.53 64.7612 122.348 66.2477Z" fill="white"/>
<path d="M111.243 52.1184C110.079 52.1184 107.269 52.1184 107.269 52.1184C107.269 52.1184 107.211 51.543 107.048 51.1306C104.998 45.6932 97.4637 43.593 92.7584 47.1029C90.0257 49.1359 89.381 55.2159 93.9227 56.7695C96.2321 57.5558 98.6858 57.9298 101.072 58.5148C102.66 58.908 104.267 59.2724 105.826 59.7615C114.149 62.4179 113.629 72.3913 109.039 76.4766C104.142 80.84 94.3846 81.1469 89.3714 76.8986C86.783 74.7025 85.5898 71.8064 85.2915 68.2389L89.4868 68.2965C89.4868 68.2965 89.5542 68.8335 89.66 69.2075C91.4883 75.6615 98.3682 78.4809 104.344 75.1724C106.942 73.7339 108.135 71.5187 107.971 68.565C107.808 65.5634 105.999 63.9139 103.295 63.1851C100.822 62.5234 98.272 62.1206 95.7702 61.5548C94.7117 61.3151 93.6533 60.989 92.6333 60.6054C88.9865 59.2436 86.6964 56.7886 86.4847 52.7705C86.273 48.5989 88.0531 45.4247 91.7481 43.5546C96.5015 41.1476 101.39 41.2914 106.095 43.756C109.28 45.4343 110.771 48.3304 111.243 52.1184Z" fill="white"/>
<path d="M264.324 79.27L260.004 79.3372C259.301 77.2753 256.982 70.8597 256.338 68.7787H240.865C240.037 71.368 238.344 76.2205 237.372 79.3372C237.372 79.3372 234.091 79.4426 233.1 79.4426C233.85 77.237 234.524 75.2423 235.217 73.2572C238.613 63.4468 242.501 52.2554 245.859 42.4258H251.834C255.346 52.7732 260.292 67.3115 263.814 77.6589C263.987 78.1576 264.141 78.6755 264.324 79.27ZM248.871 46.6837C248.717 46.6741 248.572 46.6933 248.418 46.6837C246.35 52.802 244.281 58.9108 242.193 65.0962C246.657 65.0962 250.776 65.0962 255.106 65.0962C252.989 58.834 250.93 52.7349 248.871 46.6837Z" fill="white"/>
<path d="M170.044 79.434C169.227 79.434 168.524 79.434 167.812 79.434C167.273 79.434 166.734 79.434 166.032 79.434C165.974 78.4367 165.916 77.5448 165.859 76.5091C165.56 76.6626 165.358 76.7201 165.224 76.8544C161.981 80.1437 158.017 80.4697 153.821 79.4244C150.636 78.6285 148.789 76.3461 148.423 73.1814C148.038 69.8729 149.183 67.322 152.147 65.663C155.409 63.8313 159.027 63.6587 162.645 63.5628C163.675 63.534 164.694 63.5628 166.09 63.5628C165.916 58.3172 165.002 57.4637 164.656 57.0513C162.308 54.2607 155.621 55.0758 154.37 58.4706C153.927 59.4008 153.917 60.2927 153.917 60.2927C153.917 60.2927 150.223 60.3023 149.626 60.3023C149.866 56.4184 152.003 53.5126 155.832 52.6496C158.267 52.0933 160.951 51.9879 163.434 52.3331C167.312 52.8701 169.794 55.3539 169.977 59.209C170.256 65.8548 170.044 72.5293 170.044 79.434ZM165.859 66.7275C163.53 66.7275 161.384 66.5644 159.277 66.785C157.786 66.9384 156.265 67.4083 154.909 68.0605C153.003 68.9811 152.311 70.9278 152.734 73.2294C153.051 74.9843 154.225 76.3461 156.198 76.3749C158.276 76.4036 160.441 76.1063 162.424 75.4926C164.415 74.8788 165.58 73.1431 165.82 71.0525C165.993 69.662 165.859 68.2427 165.859 66.7275Z" fill="white"/>
<path d="M201.096 39.3945C201.096 47.8911 201.096 56.0809 201.096 64.7693L212.566 52.5039H217.512C213.452 56.8768 209.699 60.7895 205.84 64.9515C210.007 69.7273 214.096 74.3112 218.455 79.3171H213.548C213.548 79.3171 201.818 66.2174 201.164 65.5269C201.164 70.3506 201.164 74.7715 201.164 79.3171C199.692 79.3171 198.402 79.3171 196.853 79.3171C196.853 78.6938 196.853 39.3945 196.853 39.3945H201.096Z" fill="white"/>
<path d="M182.534 56.9628C185.864 52.9926 187.788 51.9569 191.368 52.0528C191.368 53.2612 191.368 54.4695 191.368 55.8025C190.646 55.9176 189.905 56.0326 189.164 56.1573C184.844 56.8669 182.698 59.2069 182.611 63.5703C182.515 68.1926 182.573 72.8149 182.563 77.4372C182.563 78.0222 182.563 78.6167 182.563 79.3168C181.139 79.3168 179.85 79.3168 178.416 79.3168C178.416 70.3982 178.416 61.4797 178.416 52.4652C179.782 52.4652 181.072 52.4652 182.534 52.4652C182.534 53.8653 182.534 55.1983 182.534 56.9628Z" fill="white"/>
<path d="M0 91.6136L29.1653 104.953L58.0611 91.6136V65.4141L0 91.6136Z" fill="white"/>
<path d="M29.0303 78.5123V52.4375L58.0608 65.4126L29.0303 78.5123Z" fill="white" fill-opacity="0.6"/>
<path d="M58.0611 39.3395L28.8958 26L0 39.3395V65.539L58.0611 39.3395Z" fill="white"/>
<path d="M29.0305 52.4375V78.5123L0 65.5372L29.0305 52.4375Z" fill="white" fill-opacity="0.4"/>
<path d="M93.142 95.476H91.594V94.018H93.142V93.352C93.142 92.368 93.412 91.618 93.952 91.102C94.492 90.586 95.272 90.328 96.292 90.328H97.174V91.768H96.292C95.788 91.768 95.416 91.9 95.176 92.164C94.936 92.416 94.816 92.818 94.816 93.37V94.018H96.976V95.476H94.816V103H93.142V95.476ZM103.852 94.018H105.454V95.332C105.694 94.936 106.042 94.612 106.498 94.36C106.966 94.108 107.452 93.982 107.956 93.982H108.892V95.476H107.956C107.224 95.476 106.636 95.704 106.192 96.16C105.748 96.604 105.526 97.192 105.526 97.924V103H103.852V94.018ZM118.277 103.144C117.221 103.144 116.369 102.826 115.721 102.19C115.085 101.554 114.767 100.72 114.767 99.688V97.348C114.767 96.304 115.091 95.464 115.739 94.828C116.387 94.192 117.245 93.874 118.313 93.874H119.825C120.893 93.874 121.751 94.192 122.399 94.828C123.047 95.464 123.371 96.304 123.371 97.348V99.688C123.371 100.72 123.041 101.554 122.381 102.19C121.733 102.826 120.875 103.144 119.807 103.144H118.277ZM119.789 101.668C120.365 101.668 120.827 101.482 121.175 101.11C121.523 100.738 121.697 100.24 121.697 99.616V97.402C121.697 96.778 121.523 96.28 121.175 95.908C120.839 95.536 120.389 95.35 119.825 95.35H118.313C117.749 95.35 117.293 95.536 116.945 95.908C116.609 96.28 116.441 96.778 116.441 97.402V99.616C116.441 100.24 116.609 100.738 116.945 101.11C117.281 101.482 117.731 101.668 118.295 101.668H119.789ZM140.523 93.874C141.351 93.874 142.011 94.144 142.503 94.684C142.995 95.212 143.241 95.938 143.241 96.862V103H141.567V96.844C141.567 96.388 141.459 96.028 141.243 95.764C141.027 95.488 140.745 95.35 140.397 95.35H139.461C139.005 95.35 138.621 95.512 138.309 95.836C138.009 96.148 137.817 96.58 137.733 97.132V103H136.041V96.916C136.041 96.424 135.939 96.04 135.735 95.764C135.543 95.488 135.279 95.35 134.943 95.35H134.025C133.569 95.35 133.173 95.548 132.837 95.944C132.501 96.328 132.291 96.838 132.207 97.474V103H130.533V94.018H132.135V95.224C132.375 94.804 132.669 94.474 133.017 94.234C133.377 93.994 133.743 93.874 134.115 93.874H135.159C135.639 93.874 136.053 93.994 136.401 94.234C136.761 94.474 137.043 94.816 137.247 95.26C137.511 94.804 137.835 94.462 138.219 94.234C138.603 93.994 139.017 93.874 139.461 93.874H140.523ZM160.557 90.4H169.215V91.912H162.267V96.106H168.549V97.618H162.267V103H160.557V90.4ZM181.968 99.688H176.712L175.488 103H173.706L178.584 90.4H179.358C179.874 90.4 180.24 90.682 180.456 91.246L184.974 103H183.21L181.968 99.688ZM177.216 98.248H181.464L179.358 92.56H179.34L177.216 98.248ZM195.099 103.144C194.259 103.144 193.515 102.952 192.867 102.568C192.219 102.184 191.715 101.644 191.355 100.948C191.007 100.24 190.833 99.424 190.833 98.5V94.9C190.833 93.976 191.013 93.166 191.373 92.47C191.733 91.762 192.237 91.216 192.885 90.832C193.545 90.448 194.307 90.256 195.171 90.256H197.079C197.895 90.256 198.615 90.436 199.239 90.796C199.875 91.144 200.361 91.636 200.697 92.272C201.045 92.908 201.219 93.64 201.219 94.468H199.545C199.545 93.664 199.317 93.016 198.861 92.524C198.417 92.032 197.823 91.786 197.079 91.786H195.171C194.391 91.786 193.755 92.074 193.263 92.65C192.783 93.226 192.543 93.988 192.543 94.936V98.464C192.543 99.412 192.777 100.174 193.245 100.75C193.713 101.326 194.331 101.614 195.099 101.614H197.043C197.811 101.614 198.423 101.344 198.879 100.804C199.347 100.252 199.581 99.532 199.581 98.644H201.255C201.255 99.532 201.081 100.318 200.733 101.002C200.385 101.686 199.893 102.214 199.257 102.586C198.621 102.958 197.883 103.144 197.043 103.144H195.099ZM209.602 103C209.182 103 208.846 102.88 208.594 102.64C208.354 102.4 208.234 102.07 208.234 101.65V90.4H217.072V91.894H209.944V95.818H216.532V97.294H209.944V101.506H217.072V103H209.602ZM225.571 103C225.163 103 224.833 102.88 224.581 102.64C224.329 102.388 224.203 102.058 224.203 101.65V90.4H229.837C230.929 90.4 231.805 90.664 232.465 91.192C233.137 91.708 233.473 92.398 233.473 93.262V94.198C233.473 94.63 233.371 95.038 233.167 95.422C232.975 95.806 232.699 96.118 232.339 96.358V96.376C232.915 96.544 233.377 96.856 233.725 97.312C234.085 97.756 234.265 98.272 234.265 98.86V99.76C234.265 100.744 233.935 101.53 233.275 102.118C232.627 102.706 231.745 103 230.629 103H225.571ZM230.089 95.926C230.593 95.926 230.995 95.77 231.295 95.458C231.607 95.134 231.763 94.708 231.763 94.18V93.352C231.763 92.92 231.583 92.572 231.223 92.308C230.863 92.044 230.395 91.912 229.819 91.912H225.913V95.926H230.089ZM230.449 101.488C231.097 101.488 231.607 101.326 231.979 101.002C232.363 100.678 232.555 100.246 232.555 99.706V98.86C232.555 98.416 232.393 98.056 232.069 97.78C231.745 97.504 231.319 97.366 230.791 97.366H225.913V101.488H230.449ZM245.329 103.144C244.453 103.144 243.679 102.952 243.007 102.568C242.347 102.184 241.831 101.644 241.459 100.948C241.099 100.252 240.919 99.442 240.919 98.518V94.882C240.919 93.958 241.099 93.148 241.459 92.452C241.831 91.756 242.353 91.216 243.025 90.832C243.697 90.448 244.471 90.256 245.347 90.256H247.255C248.131 90.256 248.899 90.448 249.559 90.832C250.231 91.216 250.747 91.756 251.107 92.452C251.479 93.148 251.665 93.958 251.665 94.882V98.518C251.665 99.442 251.479 100.252 251.107 100.948C250.747 101.644 250.231 102.184 249.559 102.568C248.887 102.952 248.119 103.144 247.255 103.144H245.329ZM247.219 101.614C248.035 101.614 248.695 101.332 249.199 100.768C249.703 100.192 249.955 99.43 249.955 98.482V94.918C249.955 93.97 249.703 93.214 249.199 92.65C248.695 92.074 248.035 91.786 247.219 91.786H245.365C244.549 91.786 243.889 92.074 243.385 92.65C242.881 93.214 242.629 93.97 242.629 94.918V98.482C242.629 99.43 242.875 100.192 243.367 100.768C243.871 101.332 244.531 101.614 245.347 101.614H247.219ZM263.021 103.144C262.145 103.144 261.371 102.952 260.699 102.568C260.039 102.184 259.523 101.644 259.151 100.948C258.791 100.252 258.611 99.442 258.611 98.518V94.882C258.611 93.958 258.791 93.148 259.151 92.452C259.523 91.756 260.045 91.216 260.717 90.832C261.389 90.448 262.163 90.256 263.039 90.256H264.947C265.823 90.256 266.591 90.448 267.251 90.832C267.923 91.216 268.439 91.756 268.799 92.452C269.171 93.148 269.357 93.958 269.357 94.882V98.518C269.357 99.442 269.171 100.252 268.799 100.948C268.439 101.644 267.923 102.184 267.251 102.568C266.579 102.952 265.811 103.144 264.947 103.144H263.021ZM264.911 101.614C265.727 101.614 266.387 101.332 266.891 100.768C267.395 100.192 267.647 99.43 267.647 98.482V94.918C267.647 93.97 267.395 93.214 266.891 92.65C266.387 92.074 265.727 91.786 264.911 91.786H263.057C262.241 91.786 261.581 92.074 261.077 92.65C260.573 93.214 260.321 93.97 260.321 94.918V98.482C260.321 99.43 260.567 100.192 261.059 100.768C261.563 101.332 262.223 101.614 263.039 101.614H264.911ZM284.456 103L279.83 97.204L278.372 98.77V103H276.662V90.4H278.372V96.61L284.132 90.4H286.256L281 95.98L286.58 103H284.456Z" fill="white"/>
<path d="M1.332 1.4H7.614C8.61 1.4 9.408 1.682 10.008 2.246C10.62 2.798 10.926 3.536 10.926 4.46V6.26C10.926 7.232 10.602 8.018 9.954 8.618C9.318 9.206 8.472 9.5 7.416 9.5H3.042V14H1.332V1.4ZM7.38 7.988C7.932 7.988 8.376 7.826 8.712 7.502C9.048 7.166 9.216 6.728 9.216 6.188V4.478C9.216 4.01 9.066 3.632 8.766 3.344C8.466 3.056 8.07 2.912 7.578 2.912H3.042V7.988H7.38ZM15.6952 14.144C14.6392 14.144 13.7872 13.826 13.1392 13.19C12.5032 12.554 12.1852 11.72 12.1852 10.688V8.348C12.1852 7.304 12.5092 6.464 13.1572 5.828C13.8052 5.192 14.6632 4.874 15.7312 4.874H17.2432C18.3112 4.874 19.1692 5.192 19.8172 5.828C20.4652 6.464 20.7892 7.304 20.7892 8.348V10.688C20.7892 11.72 20.4592 12.554 19.7992 13.19C19.1512 13.826 18.2932 14.144 17.2252 14.144H15.6952ZM17.2072 12.668C17.7832 12.668 18.2452 12.482 18.5932 12.11C18.9412 11.738 19.1152 11.24 19.1152 10.616V8.402C19.1152 7.778 18.9412 7.28 18.5932 6.908C18.2572 6.536 17.8072 6.35 17.2432 6.35H15.7312C15.1672 6.35 14.7112 6.536 14.3632 6.908C14.0272 7.28 13.8592 7.778 13.8592 8.402V10.616C13.8592 11.24 14.0272 11.738 14.3632 12.11C14.6992 12.482 15.1492 12.668 15.7132 12.668H17.2072ZM34.1885 5.018L32.2985 12.83C32.2025 13.238 32.0525 13.538 31.8485 13.73C31.6445 13.91 31.3805 14 31.0565 14H30.2825L28.1045 7.574L25.8725 14H25.0985C24.7745 14 24.5105 13.91 24.3065 13.73C24.1025 13.538 23.9525 13.238 23.8565 12.83L21.9485 5.018H23.7125L25.1885 11.93L27.4745 5.252H28.1045C28.3205 5.252 28.4945 5.306 28.6265 5.414C28.7585 5.51 28.8605 5.666 28.9325 5.882L30.9485 11.948L32.4245 5.018H34.1885ZM38.8631 14.144C37.8071 14.144 36.9551 13.844 36.3071 13.244C35.6711 12.632 35.3531 11.834 35.3531 10.85V8.366C35.3531 7.31 35.6711 6.464 36.3071 5.828C36.9551 5.192 37.8071 4.874 38.8631 4.874H40.3391C41.3591 4.874 42.1811 5.186 42.8051 5.81C43.4291 6.434 43.7411 7.262 43.7411 8.294V9.986H37.0271V10.85C37.0271 11.402 37.1951 11.846 37.5311 12.182C37.8671 12.518 38.3111 12.686 38.8631 12.686H40.2491C40.7891 12.686 41.2271 12.548 41.5631 12.272C41.8991 11.984 42.0671 11.606 42.0671 11.138H43.7051C43.7051 12.038 43.3871 12.764 42.7511 13.316C42.1151 13.868 41.2751 14.144 40.2311 14.144H38.8631ZM42.0671 8.654V8.294C42.0671 7.694 41.9051 7.214 41.5811 6.854C41.2691 6.494 40.8551 6.314 40.3391 6.314H38.8631C38.3111 6.314 37.8671 6.506 37.5311 6.89C37.1951 7.262 37.0271 7.76 37.0271 8.384V8.654H42.0671ZM45.803 5.018H47.405V6.332C47.645 5.936 47.993 5.612 48.449 5.36C48.917 5.108 49.403 4.982 49.907 4.982H50.843V6.476H49.907C49.175 6.476 48.587 6.704 48.143 7.16C47.699 7.604 47.477 8.192 47.477 8.924V14H45.803V5.018ZM55.2284 14.144C54.1724 14.144 53.3204 13.844 52.6724 13.244C52.0364 12.632 51.7184 11.834 51.7184 10.85V8.366C51.7184 7.31 52.0364 6.464 52.6724 5.828C53.3204 5.192 54.1724 4.874 55.2284 4.874H56.7044C57.7244 4.874 58.5464 5.186 59.1704 5.81C59.7944 6.434 60.1064 7.262 60.1064 8.294V9.986H53.3924V10.85C53.3924 11.402 53.5604 11.846 53.8964 12.182C54.2324 12.518 54.6764 12.686 55.2284 12.686H56.6144C57.1544 12.686 57.5924 12.548 57.9284 12.272C58.2644 11.984 58.4324 11.606 58.4324 11.138H60.0704C60.0704 12.038 59.7524 12.764 59.1164 13.316C58.4804 13.868 57.6404 14.144 56.5964 14.144H55.2284ZM58.4324 8.654V8.294C58.4324 7.694 58.2704 7.214 57.9464 6.854C57.6344 6.494 57.2204 6.314 56.7044 6.314H55.2284C54.6764 6.314 54.2324 6.506 53.8964 6.89C53.5604 7.262 53.3924 7.76 53.3924 8.384V8.654H58.4324ZM65.1022 14.144C64.1182 14.144 63.3202 13.826 62.7082 13.19C62.1082 12.554 61.8082 11.714 61.8082 10.67V8.546C61.8082 7.826 61.9522 7.19 62.2402 6.638C62.5282 6.074 62.9302 5.642 63.4462 5.342C63.9742 5.03 64.5802 4.874 65.2642 4.874H66.4882C66.8722 4.874 67.2502 4.964 67.6222 5.144C67.9942 5.324 68.2942 5.564 68.5222 5.864V1.4H70.2142V14H68.6122V12.722C68.3482 13.142 68.0002 13.484 67.5682 13.748C67.1362 14.012 66.7042 14.144 66.2722 14.144H65.1022ZM66.3442 12.668C66.9082 12.668 67.4002 12.44 67.8202 11.984C68.2402 11.516 68.4742 10.964 68.5222 10.328V8.294C68.4382 7.706 68.2162 7.238 67.8562 6.89C67.5082 6.53 67.0882 6.35 66.5962 6.35H65.3902C64.8262 6.35 64.3642 6.56 64.0042 6.98C63.6562 7.388 63.4822 7.934 63.4822 8.618V10.616C63.4822 11.228 63.6442 11.726 63.9682 12.11C64.3042 12.482 64.7242 12.668 65.2282 12.668H66.3442ZM81.3826 14.144C80.9866 14.144 80.5786 14.024 80.1586 13.784C79.7386 13.532 79.4086 13.22 79.1686 12.848V14H77.5666V1.4H79.2406V5.954C79.5046 5.63 79.8346 5.372 80.2306 5.18C80.6266 4.976 81.0226 4.874 81.4186 4.874H82.6966C83.3326 4.874 83.8966 5.018 84.3886 5.306C84.8926 5.594 85.2826 5.996 85.5586 6.512C85.8346 7.028 85.9726 7.628 85.9726 8.312V10.544C85.9726 11.252 85.8286 11.882 85.5406 12.434C85.2646 12.974 84.8746 13.394 84.3706 13.694C83.8666 13.994 83.2846 14.144 82.6246 14.144H81.3826ZM82.5166 12.668C83.0446 12.668 83.4706 12.47 83.7946 12.074C84.1186 11.666 84.2806 11.132 84.2806 10.472V8.366C84.2806 7.766 84.1186 7.28 83.7946 6.908C83.4826 6.536 83.0746 6.35 82.5706 6.35H81.4006C80.8246 6.35 80.3326 6.56 79.9246 6.98C79.5166 7.4 79.2886 7.946 79.2406 8.618V10.598C79.2886 11.174 79.5166 11.666 79.9246 12.074C80.3326 12.47 80.7946 12.668 81.3106 12.668H82.5166ZM91.2271 17.654C90.3751 17.654 89.6671 17.42 89.1031 16.952C88.5511 16.484 88.2451 15.872 88.1851 15.116H89.8591C89.8951 15.44 90.0391 15.704 90.2911 15.908C90.5431 16.112 90.8551 16.214 91.2271 16.214H92.6491C93.1891 16.214 93.6091 16.022 93.9091 15.638C94.2211 15.266 94.3771 14.75 94.3771 14.09V12.596C94.1011 13.016 93.7591 13.352 93.3511 13.604C92.9431 13.856 92.5351 13.982 92.1271 13.982H90.9571C90.0811 13.982 89.3731 13.688 88.8331 13.1C88.2931 12.512 88.0231 11.738 88.0231 10.778V5.018H89.6971V10.814C89.6971 11.318 89.8231 11.726 90.0751 12.038C90.3391 12.35 90.6751 12.506 91.0831 12.506H92.1811C92.6851 12.506 93.1411 12.302 93.5491 11.894C93.9691 11.486 94.2451 10.97 94.3771 10.346V5.018H96.0691V14.09C96.0691 15.194 95.7631 16.064 95.1511 16.7C94.5391 17.336 93.7051 17.654 92.6491 17.654H91.2271Z" fill="white"/>
</svg>
