<svg width="384" height="150" viewBox="0 0 384 150" fill="none" xmlns="http://www.w3.org/2000/svg">
<path d="M129.934 98.1691H128.66V96.969H129.934V96.4208C129.934 95.6108 130.156 94.9935 130.601 94.5687C131.045 94.144 131.687 93.9316 132.527 93.9316H133.253V95.117H132.527C132.112 95.117 131.806 95.2256 131.608 95.4429C131.411 95.6503 131.312 95.9812 131.312 96.4356V96.969H133.09V98.1691H131.312V104.362H129.934V98.1691Z" fill="#72A15F"/>
<path d="M134.634 96.969H135.952V98.0506C136.15 97.7246 136.436 97.4579 136.812 97.2505C137.197 97.0431 137.597 96.9394 138.012 96.9394H138.782V98.1691H138.012C137.409 98.1691 136.925 98.3568 136.56 98.7322C136.194 99.0976 136.012 99.5816 136.012 100.184V104.362H134.634V96.969Z" fill="#72A15F"/>
<path d="M142.392 104.481C141.523 104.481 140.822 104.219 140.288 103.696C139.765 103.172 139.503 102.486 139.503 101.636V99.71C139.503 98.8507 139.77 98.1592 140.303 97.6357C140.836 97.1122 141.543 96.8505 142.422 96.8505H143.666C144.545 96.8505 145.252 97.1122 145.785 97.6357C146.318 98.1592 146.585 98.8507 146.585 99.71V101.636C146.585 102.486 146.314 103.172 145.77 103.696C145.237 104.219 144.531 104.481 143.652 104.481H142.392ZM143.637 103.266C144.111 103.266 144.491 103.113 144.778 102.807C145.064 102.5 145.207 102.091 145.207 101.577V99.7545C145.207 99.2408 145.064 98.8309 144.778 98.5247C144.501 98.2185 144.131 98.0654 143.666 98.0654H142.422C141.958 98.0654 141.582 98.2185 141.296 98.5247C141.019 98.8309 140.881 99.2408 140.881 99.7545V101.577C140.881 102.091 141.019 102.5 141.296 102.807C141.572 103.113 141.943 103.266 142.407 103.266H143.637Z" fill="#72A15F"/>
<path d="M156.588 96.8505C157.27 96.8505 157.813 97.0727 158.218 97.5172C158.623 97.9518 158.825 98.5494 158.825 99.31V104.362H157.447V99.2952C157.447 98.9198 157.359 98.6235 157.181 98.4062C157.003 98.179 156.771 98.0654 156.484 98.0654H155.714C155.339 98.0654 155.022 98.1988 154.766 98.4655C154.519 98.7223 154.361 99.0779 154.292 99.5322V104.362H152.899V99.3544C152.899 98.9495 152.815 98.6334 152.647 98.4062C152.489 98.179 152.272 98.0654 151.995 98.0654H151.239C150.864 98.0654 150.538 98.2284 150.261 98.5544C149.985 98.8704 149.812 99.2902 149.743 99.8137V104.362H148.365V96.969H149.684V97.9617C149.881 97.616 150.123 97.3443 150.41 97.1468C150.706 96.9492 151.007 96.8505 151.313 96.8505H152.173C152.568 96.8505 152.909 96.9492 153.195 97.1468C153.491 97.3443 153.724 97.6259 153.892 97.9913C154.109 97.616 154.376 97.3345 154.692 97.1468C155.008 96.9492 155.348 96.8505 155.714 96.8505H156.588Z" fill="#72A15F"/>
<path d="M176.453 93.9896H183.58V95.2342H177.861V98.6864H183.032V99.931H177.861V104.361H176.453V93.9896Z" fill="#72A15F"/>
<path d="M195.724 101.635H191.397L190.39 104.361H188.923L192.938 93.9896H193.575C194 93.9896 194.301 94.2217 194.479 94.686L198.198 104.361H196.746L195.724 101.635ZM191.812 100.45H195.309L193.575 95.7676H193.561L191.812 100.45Z" fill="#72A15F"/>
<path d="M208.179 104.48C207.487 104.48 206.875 104.322 206.342 104.006C205.808 103.689 205.393 103.245 205.097 102.672C204.811 102.089 204.667 101.418 204.667 100.657V97.6937C204.667 96.9331 204.816 96.2664 205.112 95.6935C205.408 95.1107 205.823 94.6613 206.356 94.3452C206.9 94.0291 207.527 93.8711 208.238 93.8711H209.809C210.48 93.8711 211.073 94.0193 211.587 94.3156C212.11 94.602 212.51 95.007 212.787 95.5305C213.073 96.054 213.216 96.6566 213.216 97.3381H211.839C211.839 96.6763 211.651 96.1429 211.276 95.738C210.91 95.333 210.421 95.1305 209.809 95.1305H208.238C207.596 95.1305 207.073 95.3675 206.668 95.8417C206.273 96.3158 206.075 96.943 206.075 97.7234V100.627C206.075 101.408 206.268 102.035 206.653 102.509C207.038 102.983 207.547 103.22 208.179 103.22H209.779C210.411 103.22 210.915 102.998 211.29 102.553C211.676 102.099 211.868 101.506 211.868 100.776H213.246C213.246 101.506 213.103 102.153 212.816 102.716C212.53 103.279 212.125 103.714 211.601 104.02C211.078 104.327 210.47 104.48 209.779 104.48H208.179Z" fill="#72A15F"/>
<path d="M221.763 104.361C221.417 104.361 221.141 104.262 220.933 104.065C220.736 103.867 220.637 103.596 220.637 103.25V93.9896H227.912V95.2194H222.045V98.4494H227.467V99.6643H222.045V103.131H227.912V104.361H221.763Z" fill="#72A15F"/>
<path d="M236.554 104.361C236.218 104.361 235.946 104.262 235.739 104.065C235.531 103.857 235.428 103.586 235.428 103.25V93.9896H240.065C240.964 93.9896 241.685 94.2069 242.228 94.6415C242.782 95.0663 243.058 95.6342 243.058 96.3454V97.1159C243.058 97.4715 242.974 97.8073 242.806 98.1234C242.648 98.4395 242.421 98.6963 242.125 98.8938V98.9087C242.599 99.047 242.979 99.3038 243.266 99.6791C243.562 100.045 243.71 100.469 243.71 100.953V101.694C243.71 102.504 243.438 103.151 242.895 103.635C242.362 104.119 241.636 104.361 240.717 104.361H236.554ZM240.273 98.5383C240.688 98.5383 241.018 98.4098 241.265 98.153C241.522 97.8863 241.651 97.5357 241.651 97.1011V96.4195C241.651 96.0639 241.502 95.7775 241.206 95.5602C240.91 95.3429 240.525 95.2342 240.05 95.2342H236.835V98.5383H240.273ZM240.569 103.117C241.102 103.117 241.522 102.983 241.828 102.716C242.144 102.45 242.302 102.094 242.302 101.65V100.953C242.302 100.588 242.169 100.292 241.902 100.064C241.636 99.8372 241.285 99.7236 240.85 99.7236H236.835V103.117H240.569Z" fill="#72A15F"/>
<path d="M254.464 104.48C253.743 104.48 253.105 104.322 252.552 104.006C252.009 103.689 251.584 103.245 251.278 102.672C250.982 102.099 250.834 101.432 250.834 100.672V97.6789C250.834 96.9183 250.982 96.2516 251.278 95.6787C251.584 95.1058 252.014 94.6613 252.567 94.3452C253.12 94.0291 253.757 93.8711 254.478 93.8711H256.049C256.77 93.8711 257.402 94.0291 257.945 94.3452C258.499 94.6613 258.923 95.1058 259.22 95.6787C259.526 96.2516 259.679 96.9183 259.679 97.6789V100.672C259.679 101.432 259.526 102.099 259.22 102.672C258.923 103.245 258.499 103.689 257.945 104.006C257.392 104.322 256.76 104.48 256.049 104.48H254.464ZM256.019 103.22C256.691 103.22 257.234 102.988 257.649 102.524C258.064 102.05 258.271 101.423 258.271 100.642V97.7085C258.271 96.9282 258.064 96.3059 257.649 95.8417C257.234 95.3675 256.691 95.1305 256.019 95.1305H254.493C253.822 95.1305 253.278 95.3675 252.863 95.8417C252.449 96.3059 252.241 96.9282 252.241 97.7085V100.642C252.241 101.423 252.444 102.05 252.849 102.524C253.263 102.988 253.807 103.22 254.478 103.22H256.019Z" fill="#72A15F"/>
<path d="M270.672 104.48C269.951 104.48 269.314 104.322 268.761 104.006C268.218 103.689 267.793 103.245 267.487 102.672C267.19 102.099 267.042 101.432 267.042 100.672V97.6789C267.042 96.9183 267.19 96.2516 267.487 95.6787C267.793 95.1058 268.223 94.6613 268.776 94.3452C269.329 94.0291 269.966 93.8711 270.687 93.8711H272.258C272.979 93.8711 273.611 94.0291 274.154 94.3452C274.707 94.6613 275.132 95.1058 275.428 95.6787C275.734 96.2516 275.888 96.9183 275.888 97.6789V100.672C275.888 101.432 275.734 102.099 275.428 102.672C275.132 103.245 274.707 103.689 274.154 104.006C273.601 104.322 272.969 104.48 272.258 104.48H270.672ZM272.228 103.22C272.9 103.22 273.443 102.988 273.858 102.524C274.273 102.05 274.48 101.423 274.48 100.642V97.7085C274.48 96.9282 274.273 96.3059 273.858 95.8417C273.443 95.3675 272.9 95.1305 272.228 95.1305H270.702C270.03 95.1305 269.487 95.3675 269.072 95.8417C268.657 96.3059 268.45 96.9282 268.45 97.7085V100.642C268.45 101.423 268.652 102.05 269.057 102.524C269.472 102.988 270.015 103.22 270.687 103.22H272.228Z" fill="#72A15F"/>
<path d="M289.963 104.361L286.155 99.5902L284.955 100.879V104.361H283.547V93.9896H284.955V99.1013L289.696 93.9896H291.444L287.118 98.5827L291.711 104.361H289.963Z" fill="#72A15F"/>
<path d="M271.75 49.2051C275.917 49.3843 280.016 49.3321 284.056 49.8026C286.979 50.1462 289.362 51.8044 290.156 54.8742C290.921 57.8395 290.763 60.7674 288.313 62.9783C287.279 63.9119 285.847 64.4123 284.581 65.0846C284.258 65.2564 283.884 65.3161 283.374 65.473C286.304 69.6931 289.145 73.9878 292 78.1034H287.998C285.765 74.8468 282.632 69.9993 280.436 66.7203C279.904 65.9286 279.334 65.5477 278.36 65.6373C277.356 65.7269 276.329 65.6597 275.16 65.6597C275.16 69.8574 275.16 73.943 275.16 78.1034C273.961 78.1034 272.912 78.1034 271.758 78.1034C271.75 68.5951 271.75 59.0943 271.75 49.2051ZM275.205 52.0508C275.205 55.7929 275.205 59.2735 275.205 63.0828C278.038 62.8812 280.811 62.9036 283.494 62.433C285.96 61.9998 287.106 59.9906 287.031 57.2643C286.949 54.4858 285.847 52.8276 283.254 52.4616C280.631 52.0882 277.94 52.1778 275.205 52.0508Z" fill="#72A15F"/>
<path d="M153.99 85.4522C153.99 76.0485 153.99 66.6747 153.99 57.1216H157.25L157.257 60.169C157.362 60.1989 157.46 60.2363 157.565 60.2661C157.894 59.8927 158.194 59.4819 158.561 59.1458C162.901 55.1423 170.05 56.2477 172.741 61.5135C174.884 65.7037 174.764 70.0583 172.464 74.1812C169.263 79.9101 160.855 79.7309 157.864 75.5556C157.774 75.4286 157.625 75.3315 157.265 75.0103C157.265 76.9299 157.265 78.603 157.265 80.2761C157.265 81.9641 157.265 83.6596 157.265 85.4522C156.141 85.4522 155.106 85.4522 153.99 85.4522ZM157.033 67.9146C157.22 68.9528 157.317 70.2375 157.692 71.4326C158.599 74.3232 161.072 75.9141 164.28 75.8319C167.435 75.7498 169.458 74.1812 170.275 71.1189C170.86 68.9528 170.875 66.7569 170.32 64.5833C169.473 61.2894 167.09 59.4296 163.89 59.5118C160.51 59.5939 158.097 61.5807 157.415 64.912C157.227 65.8232 157.175 66.7569 157.033 67.9146Z" fill="#72A15F"/>
<path d="M148.383 56.9108C147.477 56.9108 145.288 56.9108 145.288 56.9108C145.288 56.9108 145.243 56.4626 145.116 56.1414C143.52 51.9064 137.651 50.2706 133.987 53.0044C131.858 54.5878 131.356 59.3233 134.893 60.5333C136.692 61.1458 138.603 61.4371 140.462 61.8927C141.698 62.1989 142.95 62.4828 144.164 62.8637C150.647 64.9327 150.242 72.7006 146.667 75.8825C142.853 79.281 135.253 79.52 131.349 76.2111C129.333 74.5007 128.403 72.245 128.171 69.4664L131.438 69.5113C131.438 69.5113 131.491 69.9295 131.573 70.2208C132.997 75.2476 138.356 77.4435 143.01 74.8667C145.033 73.7463 145.963 72.0209 145.835 69.7204C145.708 67.3825 144.299 66.0978 142.193 65.5302C140.267 65.0148 138.281 64.7011 136.332 64.2604C135.508 64.0737 134.684 63.8197 133.889 63.521C131.049 62.4604 129.265 60.5482 129.1 57.4187C128.935 54.1696 130.322 51.6973 133.2 50.2408C136.902 48.366 140.709 48.478 144.374 50.3976C146.855 51.7047 148.016 53.9604 148.383 56.9108Z" fill="#72A15F"/>
<path d="M267.613 78.0579L264.248 78.1102C263.701 76.5044 261.895 71.5075 261.393 69.8867H249.341C248.697 71.9033 247.378 75.6827 246.621 78.1102C246.621 78.1102 244.065 78.1924 243.293 78.1924C243.878 76.4745 244.403 74.9209 244.942 73.3748C247.588 65.7338 250.616 57.0172 253.231 49.3613H257.885C260.621 57.4206 264.473 68.7439 267.216 76.8031C267.351 77.1915 267.471 77.5949 267.613 78.0579ZM255.577 52.6776C255.457 52.6702 255.345 52.6851 255.225 52.6776C253.613 57.443 252.002 62.2009 250.376 67.0185C253.853 67.0185 257.061 67.0185 260.433 67.0185C258.785 62.1411 257.181 57.3907 255.577 52.6776Z" fill="#72A15F"/>
<path d="M194.182 78.1843C193.545 78.1843 192.998 78.1843 192.443 78.1843C192.023 78.1843 191.604 78.1843 191.057 78.1843C191.012 77.4075 190.967 76.7128 190.922 75.9062C190.689 76.0257 190.532 76.0705 190.427 76.175C187.901 78.737 184.814 78.9909 181.546 78.1768C179.065 77.5568 177.627 75.7792 177.342 73.3143C177.042 70.7375 177.934 68.7507 180.242 67.4585C182.783 66.0319 185.601 65.8974 188.419 65.8228C189.22 65.8003 190.015 65.8228 191.102 65.8228C190.967 61.7371 190.255 61.0724 189.985 60.7512C188.156 58.5776 182.948 59.2125 181.973 61.8566C181.629 62.5811 181.621 63.2758 181.621 63.2758C181.621 63.2758 178.743 63.2832 178.279 63.2832C178.466 60.2582 180.13 57.9951 183.113 57.3228C185.009 56.8896 187.1 56.8075 189.033 57.0763C192.053 57.4946 193.987 59.4291 194.129 62.4317C194.347 67.6079 194.182 72.8064 194.182 78.1843ZM190.922 68.2876C189.108 68.2876 187.437 68.1606 185.796 68.3324C184.634 68.4519 183.45 68.8179 182.393 69.3258C180.909 70.0428 180.37 71.5591 180.699 73.3517C180.947 74.7186 181.861 75.7792 183.397 75.8016C185.016 75.824 186.702 75.5924 188.246 75.1144C189.798 74.6364 190.704 73.2845 190.892 71.6562C191.027 70.5732 190.922 69.4677 190.922 68.2876Z" fill="#72A15F"/>
<path d="M218.367 47C218.367 53.6177 218.367 59.9964 218.367 66.7635L227.3 57.2104H231.153C227.99 60.6163 225.067 63.6638 222.062 66.9054C225.307 70.625 228.492 74.1953 231.887 78.0942H228.065C228.065 78.0942 218.929 67.8913 218.42 67.3535C218.42 71.1105 218.42 74.5538 218.42 78.0942C217.273 78.0942 216.269 78.0942 215.062 78.0942C215.062 77.6087 215.062 47 215.062 47H218.367Z" fill="#72A15F"/>
<path d="M203.91 60.6843C206.503 57.5921 208.002 56.7854 210.79 56.8601C210.79 57.8012 210.79 58.7423 210.79 59.7806C210.228 59.8702 209.651 59.9598 209.074 60.0569C205.709 60.6096 204.038 62.4321 203.97 65.8306C203.895 69.4308 203.94 73.0309 203.933 76.6311C203.933 77.0867 203.933 77.5498 203.933 78.095C202.824 78.095 201.819 78.095 200.703 78.095C200.703 71.1487 200.703 64.2023 200.703 57.1813C201.767 57.1813 202.771 57.1813 203.91 57.1813C203.91 58.2718 203.91 59.31 203.91 60.6843Z" fill="#72A15F"/>
<path d="M68 98.4527L90.7157 108.842L113.222 98.4527V78.0469L68 98.4527Z" fill="#72A15F"/>
<path opacity="0.4" d="M90.6104 88.2482V67.9395L113.221 78.0453L90.6104 88.2482Z" fill="#72A15F"/>
<path d="M113.222 57.7373L90.5059 47.3477L68 57.7373V78.1431L113.222 57.7373Z" fill="#72A15F"/>
<path opacity="0.8" d="M90.6108 67.9395V88.2482L68 78.1424L90.6108 67.9395Z" fill="#72A15F"/>
</svg>
